<svg width="478" height="363" viewBox="0 0 478 363" fill="none" xmlns="http://www.w3.org/2000/svg">
<g clip-path="url(#clip0_600_162)">
<path d="M239.839 74.8052C240.157 74.7703 240.606 74.5814 240.773 74.7254C242.741 76.4162 244.672 78.1482 246.595 79.8913C246.846 80.1184 247.154 80.4562 247.167 80.7529C247.253 82.9975 247.282 85.2429 247.303 87.491C247.313 88.4172 247.317 89.3496 247.219 90.2698C246.999 92.327 247.08 94.5174 246.359 96.3894C245.434 98.7926 245.594 101.322 244.842 103.714C243.689 107.378 242.678 111.09 241.618 114.786C240.8 117.636 239.817 120.455 239.241 123.355C238.286 128.165 236.094 135.172 233.936 139.395C233.1 141.03 231.829 142.097 230.113 142.768C229.267 143.099 228.469 143.659 227.787 144.265C226.322 145.573 225.363 147.521 223.02 147.676C222.606 147.704 222.236 148.331 221.836 148.667C220.168 150.083 218.484 151.481 216.836 152.917C216.311 153.375 215.783 153.873 215.401 154.448C213.037 158.005 210.621 161.535 208.401 165.185C206.318 168.608 204.494 172.186 202.479 175.65C201.695 177.002 200.612 178.179 199.828 179.53C198.642 181.567 197.533 183.654 196.512 185.78C195.498 187.888 194.632 190.069 193.667 192.296C194.431 192.869 194.915 192.439 195.349 191.817C196.437 190.26 197.289 188.6 199.459 188.021C200.463 187.753 201.243 186.453 202 185.519C202.87 184.444 203.364 182.756 204.455 182.246C205.891 181.574 206.18 180.514 206.728 179.374C207.016 178.776 207.587 178.285 208.103 177.829C210.495 175.709 213.084 173.845 214.598 170.821C215.288 169.44 216.909 168.548 218.01 167.342C219.28 165.95 220.986 164.876 221.384 162.801C221.449 162.463 221.933 162.16 222.282 161.931C225.013 160.137 227.3 157.9 229.078 155.157C229.392 154.671 229.623 154.131 229.959 153.662C230.728 152.601 230.625 150.882 233.03 151.264C234.475 151.492 236.03 149.632 236.204 147.886C236.358 146.377 237.274 145.402 238.26 145.189C239.61 144.895 239.897 143.737 240.798 143.159C241.157 142.758 241.525 142.376 242.177 141.69C240.643 141.795 240.533 142.376 240.852 143.228C240.548 143.071 240.242 142.915 239.859 142.718C242.435 139.445 244.978 136.218 247.655 132.819C248.732 133.636 250.076 133.017 251.467 132.671C252.371 132.446 253.463 132.114 254.246 132.416C256.657 133.345 258.309 132.38 259.841 130.727C260.009 130.546 260.271 130.455 260.645 130.231C262.181 131.832 263.864 133.241 266.306 131.515C267.262 132.487 268.333 133.306 268.634 134.854C268.785 135.628 269.455 136.397 270.074 136.97C271.54 138.328 273.075 139.623 274.664 140.836C275.399 141.396 275.575 141.997 275.575 142.852C275.573 144.586 275.82 146.333 275.697 148.052C275.642 148.84 275.058 149.656 274.543 150.33C272.554 152.929 272.146 156 271.814 159.098C271.798 159.241 271.965 159.405 272.144 159.739C274.347 159.912 276.52 159.294 278.628 158.573C283.696 156.84 288.716 154.962 293.769 153.188C297.606 151.841 301.257 150.125 304.818 148.172C307.26 146.832 309.882 145.812 312.317 144.457C314.892 143.025 317.582 141.819 319.861 139.802C321.323 138.508 323.333 137.739 325.208 137.015C328.764 135.641 331.784 133.381 335.029 131.49C336.425 130.677 337.896 129.937 339.413 129.392C341.991 128.465 344.499 127.502 346.286 125.285C346.436 125.099 346.745 125.04 346.98 124.923C348.997 123.897 350.948 122.771 352.519 121.106C353.299 120.279 354.217 119.971 355.369 120.081C356.039 120.143 356.74 119.919 357.421 119.796C357.675 119.751 357.979 119.488 358.148 119.566C360.859 120.844 363.753 119.93 366.534 120.313C368.095 120.528 369.696 120.509 371.245 120.612C373.269 120.745 374.45 121.692 375.259 123.094C376.394 125.061 378.373 126.081 379.764 127.716C380.299 128.345 380.933 129.037 381.113 129.795C381.821 132.77 381.813 135.766 381.297 138.801C380.933 140.943 381.112 143.176 380.782 145.327C380.238 148.866 379.397 152.36 378.83 155.898C378.251 159.52 377.854 163.175 377.377 166.815C376.789 171.332 376.775 175.852 377.182 180.394C377.27 181.374 376.839 182.403 376.59 183.705C377.539 184.585 377.838 186.02 378.091 187.631C378.467 190.009 379.194 192.384 380.116 194.622C381.478 197.926 382.407 201.486 384.726 204.311C387.99 208.292 391.003 212.452 395.484 215.372C399.273 217.842 402.603 221.016 405.793 223.599C405.514 224.731 405.316 225.521 405.108 226.362C404.298 226.331 403.376 226.295 402.454 226.262C402.41 226.384 402.368 226.507 402.324 226.629C403.075 227.165 403.859 227.665 404.564 228.253C404.926 228.554 405.148 229.016 405.436 229.406C404.969 229.67 404.501 229.935 404.037 230.206C403.89 230.292 403.756 230.407 403.499 230.593C403.648 231.418 403.805 232.304 403.97 233.226C402.894 233.78 400.978 232.97 401.337 235.094C402.03 235.549 402.723 236.005 403.419 236.462C403.391 236.626 403.364 236.79 403.333 236.955C402.193 236.989 401.043 236.946 399.914 237.077C398.519 237.239 397.051 237.324 395.785 237.851C394.619 238.334 393.636 239.075 392.285 237.767C391.82 240.205 394.205 239.604 394.553 241.011C392.79 240.548 391.14 240.893 389.322 241.305C389.901 242.319 390.251 243.312 388.502 243.44C388.361 243.451 388.288 244.321 388.216 244.641C386.009 243.922 383.711 243.399 381.62 242.425C379.668 241.517 377.838 240.26 376.137 238.927C373.183 236.614 370.387 234.055 368.52 230.768C366.098 226.51 363.022 222.662 361.425 217.876C359.766 212.905 357.304 208.2 355.328 203.328C353.813 199.594 352.51 195.777 351.111 191.996C350.532 190.429 349.946 188.864 349.361 187.297C349.105 186.612 348.614 186.111 349.072 185.146C349.409 184.442 349.062 183.214 348.662 182.392C347.502 180.003 347.556 177.441 347.29 174.917C347.157 173.667 347.039 172.417 346.882 170.845C346.11 171.265 345.335 172.065 344.734 171.952C342.756 171.577 341.487 173.013 339.86 173.452C336.523 174.353 333.335 175.572 330.282 177.195C328.568 178.107 327.094 179.701 324.836 179.34C324.555 179.296 324.194 179.601 323.905 179.796C319.935 182.5 315.366 184.049 311.174 186.325C307.862 188.124 304.445 189.745 301 191.276C298.794 192.258 296.434 192.887 294.177 193.759C292.319 194.476 290.512 195.325 288.645 196.13C288.393 195.565 288.223 195.189 288.063 194.832C286.046 194.339 285.362 196.115 283.598 197.25C283.796 196.693 283.991 196.135 284.206 195.531C282.685 195.711 281.904 195.712 281.175 195.907C278.554 196.605 275.961 197.404 273.336 198.097C269.628 199.076 265.76 199.058 262.109 198.417C257.143 197.543 253.485 194.499 251.703 189.572C251.614 189.323 251.565 189.057 251.45 188.82C250.285 186.382 248.974 186.166 247.156 188.107C246.375 188.942 245.624 189.801 244.827 190.62C244.536 190.918 244.099 191.394 243.824 191.335C241.952 190.937 241.121 192.321 240.134 193.38C238.008 195.658 235.782 197.794 233.998 200.439C232.539 202.6 230.058 204.076 228.021 205.848C227.511 206.292 226.9 206.641 226.446 207.134C223.567 210.264 219.764 212.384 217.074 215.717C215.3 217.919 213.103 219.674 210.881 221.4C210.606 221.615 210.354 221.869 210.125 222.136C209.027 223.41 208.35 224.909 206.639 225.822C205.045 226.671 203.979 228.511 202.696 229.927C201.808 230.908 200.939 231.8 199.539 232.176C198.79 232.376 198.27 233.324 197.584 233.851C194.328 236.357 191.051 238.837 187.774 241.316C187.567 241.474 187.312 241.575 187.07 241.68C184.753 242.691 182.434 243.698 179.999 244.756C180.359 242.575 183.454 242.759 183.904 240.263C180.771 241.255 178.166 243.959 174.73 241.97C174.554 242.312 174.371 242.659 174.142 243.096C172.495 242.72 171.065 242.095 169.925 240.694C168.957 239.503 167.303 238.89 166.938 237.168C166.905 237.009 166.665 236.882 166.656 236.731C166.448 233.492 164.611 231.204 162.351 229.096C161.698 228.487 161.391 227.519 160.888 226.739C159.849 225.137 158.573 223.645 157.801 221.928C157.229 220.657 157.258 219.108 157.09 217.672C156.56 213.126 157.662 208.818 159.127 204.594C160.196 201.515 161.51 198.589 164.077 196.326C164.783 195.704 164.785 194.284 165.1 193.228C165.333 192.444 165.469 191.621 165.787 190.874C166.325 189.604 166.973 188.383 167.572 187.152C167.513 187.749 167.579 188.285 168.349 187.921C168.589 187.809 168.663 187.351 168.813 187.05C168.405 186.85 167.996 186.647 167.588 186.447C168.761 185.333 169.337 183.796 170.961 182.897C171.987 182.33 172.214 180.337 172.898 178.757C171.572 179.009 170.503 179.212 169.186 179.463C169.009 180.387 168.817 181.398 168.581 182.639C167.633 183.459 166.568 184.061 165.445 182.148C163.968 184.958 162.178 186.961 159.702 188.078C159.329 187.73 158.965 187.163 158.714 187.207C158.245 187.289 157.793 187.679 157.42 188.033C154.753 190.566 152.124 193.145 149.439 195.659C148.681 196.368 147.768 196.909 146.821 197.606C146.489 197.059 146.233 196.64 145.892 196.08C142.965 198.993 139.33 201.036 136.753 204.291C136.438 204.691 135.969 204.972 135.554 205.285C133.746 206.649 131.957 208.041 130.112 209.357C127.062 211.534 123.984 213.668 120.899 215.796C120.471 216.092 119.964 216.299 119.468 216.476C115.249 217.986 111.617 220.465 108.04 223.091C106.451 224.256 104.562 225.02 102.812 225.968C101.38 226.746 100.008 227.598 98.2195 227.4C97.8191 227.356 97.3304 228.104 96.8321 228.534C96.6334 227.771 96.8007 226.57 95.2945 227.197C93.6059 227.898 91.8568 228.451 90.1454 229.105C89.764 229.251 89.354 229.477 89.1053 229.784C87.4468 231.838 85.2888 232.007 83.9848 229.803C82.7793 227.766 81.2431 226.559 79.0446 225.886C78.5623 225.738 77.9815 224.856 77.988 224.32C78.0276 221.089 76.1479 218.786 74.4287 216.359C73.4736 215.012 72.7279 213.522 71.8423 212.121C71.3923 211.411 70.8427 210.763 70.1308 209.81C70.3211 208.155 70.4186 206.16 70.8227 204.231C71.0641 203.079 71.8129 202.038 72.2955 200.93C72.998 199.321 73.682 197.701 74.348 196.076C75.3001 193.757 76.2279 191.427 77.2751 188.834C76.724 188.077 75.4638 187.889 74.9757 188.983C74.0111 191.144 71.7576 191.894 70.5219 193.653C68.2586 196.877 65.0485 199.195 62.522 202.199C59.8632 205.361 56.4934 207.922 53.5009 210.813C50.6571 213.561 47.8905 216.391 45.1047 219.199C44.7989 219.505 44.6496 220.056 44.2999 220.216C41.5598 221.456 39.1951 223.245 36.8168 225.044C35.729 225.867 34.4232 226.405 32.9984 227.192C33.0629 226.609 33.1081 226.19 33.1551 225.781C33.019 225.748 32.9359 225.707 32.853 225.711C31.6706 225.764 31.0938 227.243 29.5092 226.736C27.506 226.093 25.7234 225.362 24.4646 223.621C24.1117 223.134 23.6697 222.712 23.1155 222.089C23.6991 221.676 24.2098 221.318 24.7979 220.901C23.9432 219.542 23.4054 217.572 22.2314 217.058C20.0451 216.097 19.1314 214.514 18.1268 212.627C17.5022 211.452 16.4734 211.617 15.5731 212.815C14.241 214.59 12.5214 215.856 10.5313 217.127C10.2546 216.644 10.0517 216.291 9.78821 215.831C8.70392 216.359 7.62546 216.926 6.51027 217.412C3.67474 218.645 1.96987 217.186 1.92698 214.073C1.90299 212.345 2.13472 210.855 2.9006 209.38C3.06015 209.072 3.12593 208.659 3.37122 208.46C6.60502 205.846 8.3013 201.982 11.1344 199.025C12.6126 197.481 13.456 195.339 14.8985 193.751C16.7323 191.732 17.6337 189.083 19.8546 187.292C21.3326 186.103 22.7292 184.607 23.1037 182.406C23.2666 181.442 24.4737 180.671 25.1779 179.786C26.6464 177.944 28.152 176.129 29.534 174.226C31.7911 171.124 34.0566 168.042 37.0935 165.622C37.4197 165.363 37.7472 165.021 37.9017 164.644C38.6237 162.896 39.7798 161.602 41.4033 160.59C41.9335 160.261 42.3399 159.255 42.2997 158.587C42.2122 157.059 42.4685 156.34 44.2654 156.317C46.1526 156.293 48.449 153.066 48.3687 151.034C48.3542 150.694 48.4128 150.345 48.484 150.006C48.5189 149.846 48.6609 149.711 48.8738 149.38C50.0267 150.444 50.9321 150.136 51.9104 148.951C54.3549 145.99 56.7233 142.964 59.809 140.566C61.0695 139.585 62.0884 138.173 62.9001 136.773C63.7181 135.358 64.8859 134.417 66.0422 133.356C68.0138 131.547 69.7981 129.536 71.6686 127.62C72.8912 126.366 73.9826 124.913 75.4016 123.94C76.9326 122.889 77.7167 121.378 78.7452 119.991C79.9915 118.315 81.0233 116.459 82.7561 115.175C83.097 114.922 83.3219 114.51 83.5797 114.154C85.2761 111.826 86.9054 109.445 88.6924 107.188C89.2988 106.422 89.9728 105.927 89.819 104.739C89.6861 103.711 90.255 103.018 91.5982 103.161C92.7418 103.285 93.45 102.471 94.0316 101.475C95.9535 98.1778 97.5924 94.7064 99.8941 91.6344C99.9517 89.4378 101.911 88.6179 103.081 87.2196C104.25 85.8212 105.381 84.3918 106.497 82.9501C107.027 82.2663 107.443 81.4926 107.979 80.8143C108.51 80.1424 109.037 79.4196 109.716 78.9269C111.874 77.3629 113.741 75.6272 114.707 73.0286C115.056 72.0903 115.766 71.2309 116.472 70.4879C119.593 67.2084 122.811 64.0231 125.907 60.7247C127.444 59.085 128.714 57.2001 130.247 55.5559C132.215 53.4428 134.246 51.3772 136.391 49.4476C138.721 47.3505 141.121 45.3007 143.665 43.4718C145.606 42.0759 146.991 40.1516 148.78 38.6903C151.158 36.746 153.177 34.1335 156.508 33.5908C157.016 33.5079 157.526 33.4378 158.034 33.3667C160.096 33.0723 162.197 32.9417 164.206 32.4487C167.037 31.7527 168.845 33.4865 170.762 34.9159C172.125 35.9294 173.375 37.1303 174.519 38.3866C175.639 39.6147 176.63 40.9776 177.551 42.3645C178.524 43.8291 179.193 45.4238 179.177 47.258C179.166 48.5444 179.326 49.8323 179.408 51.1184C179.414 51.2046 179.457 51.3243 179.419 51.3738C177.643 53.4979 179.697 55.9 178.928 58.1313C178.154 60.3664 177.792 62.7571 176.887 64.927C176.002 67.0532 175.78 69.2681 175.307 71.455C175.125 72.2955 174.696 73.0806 174.423 73.9046C174.153 74.7214 173.925 75.5561 173.712 76.3888C173.582 76.8947 173.66 77.5103 173.399 77.9189C171.573 80.7533 171.186 84.0863 170.083 87.1675C169.795 87.9734 168.994 88.6208 168.796 89.4313C168.449 90.8542 168.173 92.3599 168.25 93.811C168.419 96.9352 167.752 99.891 166.672 102.74C166.097 104.254 165.703 105.833 164.698 107.265C164.026 108.222 164.24 109.986 164.456 111.324C164.797 113.448 164.361 115.276 163.427 117.166C162.873 118.286 162.611 119.671 162.64 120.928C162.679 122.527 162.147 123.616 160.655 124.596C160.476 121.109 156.556 120.42 155.69 117.351C152.768 117.835 150.211 118.826 148.513 121.485C148.132 122.084 147.298 122.428 146.622 122.801C145.963 123.167 145.117 123.279 144.571 123.752C141.171 126.682 137.073 128.942 135.298 133.467C134.984 134.267 133.807 134.688 133.29 135.461C131.502 138.128 129.887 140.909 128.095 143.574C126.838 145.441 125.418 147.204 124.039 148.987C121.536 152.222 118.668 155.213 117.316 159.206C117.175 159.618 116.984 160.051 116.701 160.366C113.745 163.625 112.151 167.695 110 171.434C108.483 174.071 106.802 176.611 105.271 179.238C104.133 181.192 103.071 183.196 102.067 185.222C101.294 186.78 100.667 188.408 99.8447 190.308C101.801 190.178 103.376 189.805 104.814 188.841C106.262 187.868 107.745 186.948 109.201 185.988C110.501 185.131 111.814 184.388 112.938 183.181C114.267 181.753 116.186 180.875 117.851 179.761C118.217 179.516 118.731 179.378 118.946 179.042C121.033 175.765 124.743 174.268 127.244 171.484C129.645 168.809 132.644 166.826 135.152 164.278C138.096 161.285 141.698 158.949 144.123 155.446C144.431 155.003 145.727 154.96 144.939 153.915C145.511 153.731 146.225 153.703 146.627 153.335C147.756 152.305 148.983 151.327 149.344 149.679C149.525 148.847 149.735 147.967 151.043 148.139C151.494 148.199 152.056 147.643 152.518 147.305C153.064 146.904 153.495 146.235 154.097 146.035C155.329 145.626 155.394 144.761 155.272 143.754C155.474 143.715 155.691 143.607 155.76 143.669C156.422 144.258 156.884 143.838 157.334 143.385C158.489 142.222 159.643 141.06 160.769 139.867C160.807 139.826 160.486 139.506 160.415 139.288C160.279 138.869 159.981 138.195 160.144 138.044C160.596 137.623 161.394 137.041 161.789 137.197C162.697 137.558 163.086 137.295 163.483 136.49C163.327 136.33 163.175 136.146 162.995 136.002C162.806 135.851 162.586 135.738 162.352 135.591C163.19 134.216 164.508 134.257 165.783 134.316C167.404 131.822 169.37 129.806 171.497 127.846C174.613 124.968 177.908 122.015 180.074 118.455C181.954 115.367 184.289 113.073 186.94 110.85C187.911 110.037 188.991 109.179 189.027 107.653C189.034 107.31 189.498 106.973 189.762 106.643C190.955 105.143 192.111 103.615 193.355 102.159C194.298 101.055 195.178 99.8771 196.851 99.6593C197.743 99.5439 198.348 98.8809 198.409 97.804C198.441 97.2358 198.855 96.6886 199.13 96.0529C200.302 95.9378 201.471 95.8217 202.492 95.7218C203.329 94.301 204.057 92.9335 204.916 91.6513C205.415 90.9076 206.195 90.5137 205.949 89.2518C205.82 88.588 206.95 87.6077 207.635 86.8871C209.071 85.3737 210.579 83.9287 212.08 82.4782C212.319 82.2473 212.665 82.0486 212.988 81.9981C214.958 81.6814 215.827 80.1095 216.857 78.7115C217.263 78.1612 217.577 77.4961 218.091 77.0762C219.502 75.9209 220.995 74.8701 222.605 73.6626C223.184 74.0688 223.837 74.5244 224.807 75.2035C224.81 74.3003 224.811 73.7705 224.814 73.0973C225.844 73.9959 226.792 74.1583 228.161 73.7743C229.967 73.2685 231.958 73.4246 234.037 73.2846C234.05 72.7542 234.064 72.2071 234.08 71.5165C235.606 71.9181 237.162 73.6347 238.342 71.3564C239.658 71.9454 240.163 73.0947 239.856 74.8042C239.16 74.6958 238.814 73.399 237.513 74.2794C238.491 74.4983 239.164 74.6482 239.835 74.8006L239.839 74.8052ZM191.677 234.673C191.807 234.839 191.938 235.005 192.068 235.171C192.396 234.803 192.722 234.437 193.049 234.068C192.963 233.979 192.877 233.89 192.79 233.804C192.42 234.093 192.048 234.384 191.679 234.674L191.677 234.673Z" fill="#FF8200"/>
<path d="M471.44 180.657C470.625 180.656 470.23 180.773 470.062 180.626C469.867 180.457 469.871 180.059 469.79 179.758C470.075 179.689 470.43 179.482 470.624 179.583C470.89 179.722 471.035 180.096 471.441 180.655L471.44 180.657Z" fill="#FF8200"/>
</g>
<defs>
<clipPath id="clip0_600_162">
<rect width="418.563" height="235.442" fill="white" transform="translate(93.5474) rotate(23.4112)"/>
</clipPath>
</defs>
</svg>
