<svg width="1058" height="370" viewBox="0 0 1058 370" fill="none" xmlns="http://www.w3.org/2000/svg">
<path d="M1057.98 295.736C1054.24 312.039 994.086 327.65 976.354 334.984C956.01 342.046 932.282 350.826 911.939 352.063C887.209 353.592 886.645 342.402 909.725 330.416C928.773 320.546 949.932 314.532 970.213 307.282C991.998 299.654 1024.02 288.611 1044.57 289.575C1049.23 289.952 1057.35 290.036 1057.98 295.631V295.736Z" fill="#FF8200"/>
<path d="M617.976 0.775312C623.824 -3.33184 626.957 9.89068 627.459 18.9641C628.566 33.402 627.062 48.1962 625.433 62.7388C617.704 123.801 618.548 122.398 609.504 182.057C600.606 227.927 584.816 231.363 586.528 181.428C590.309 120.219 593.706 120.511 600.18 60.811C602.478 43.649 605.736 12.6148 617.892 0.838177L617.976 0.775312Z" fill="#FF8200"/>
<path d="M476.094 291.566C459.739 290.329 454.1 225.223 451.447 208.815C445.641 165.376 438.957 116.111 433.297 72.9646C431.647 59.8678 430.101 46.9177 430.414 33.9047C431.083 10.561 438.184 -3.08063 448.21 13.7252C457.337 31.2225 459.635 56.1378 462.622 77.868C465.441 99.9544 468.512 124.933 471.519 149.68C474.84 177.236 477.848 202.172 480.689 226.689C482.13 241.232 488.208 285.594 476.177 291.524H476.094V291.566Z" fill="#FF8200"/>
<path d="M787.599 317.341C783.631 310.3 799.442 288.109 806.46 279.601C829.122 251.647 857.716 215.856 880.441 187.651C888.378 177.928 896.253 169.337 902.915 163.867C915.656 152.824 928.293 151.001 920.377 170.426C917.39 177.802 911.061 188.007 902.915 198.841C890.404 215.333 874.342 235.282 860.536 252.737C840.673 276.542 827.472 297.58 804.288 314.365C799.505 317.278 791.296 322.559 787.641 317.425L787.599 317.341Z" fill="#FF8200"/>
<path d="M0.501196 308.853C12.7617 295.358 90.941 333.182 108.799 341.103C116.235 344.707 149.006 361.492 140.109 368.637C127.221 373.478 101.74 364.426 84.2155 358.453C60.8223 349.569 36.698 340.977 15.6232 327.294C3.96841 319.54 -1.73369 312.541 0.417649 308.937L0.480309 308.853H0.501196Z" fill="#FF8200"/>
<path d="M109.468 186.624C123.42 177.76 177.496 229.058 192.785 240.248C203.939 249.384 215.259 258.646 226.455 267.594C248.031 285.384 274.787 303.238 290.577 323.103C304.237 343.513 264.928 320.232 258.077 315.203C226.496 294.437 187.146 263.633 156.526 239.64C145.393 230.545 102.847 199.574 109.405 186.687L109.468 186.624Z" fill="#FF8200"/>
<path d="M272.865 80.9697C283.643 70.4084 306.931 111.815 312.383 122.754C332.936 162.484 355.117 207.956 375.294 248.085C381.33 260.343 387.471 272.518 390.917 285.594C394.781 300.933 390.646 307.156 380.578 300.765C367.294 291.231 357.582 273.629 348.622 256.991C337.28 235.386 323.557 207.474 311.61 183.69C301.71 160.871 262.672 97.9431 272.782 81.0744L272.844 80.9906L272.865 80.9697Z" fill="#FF8200"/>
<path d="M672.826 294.625C666.289 286.39 679.991 254.623 686.883 241.693C705.765 204.205 729.701 155.38 749.105 118.06C758.024 101.547 767.736 84.05 780.978 74.788C791.108 68.6273 794.784 75.27 790.941 90.4203C787.453 103.517 781.25 115.734 775.193 128.034C755.058 168.037 732.939 213.404 712.449 253.009C706.955 264.094 683.52 305.585 672.868 294.709L672.806 294.625H672.826Z" fill="#FF8200"/>
</svg>
