<svg width="203" height="305" viewBox="0 0 203 305" fill="none" xmlns="http://www.w3.org/2000/svg">
<path d="M201.042 163.972C193.946 177.424 137.311 177.078 119.978 179.377C100.409 180.826 77.4579 182.993 59.2473 179.323C37.104 174.885 39.217 164.92 62.3454 159.783C81.4287 155.564 101.471 155.226 121.029 153.597C142 151.988 172.784 149.77 190.666 155.423C194.681 156.844 201.82 158.817 201.067 163.88L201.042 163.972Z" fill="#FF8200"/>
<path d="M114.26 278.75C104.17 284.188 68.8736 260.186 57.0616 254.345C44.2069 247.033 28.9341 238.751 19.0795 228.807C7.08643 216.73 12.5937 211.381 29.2243 217.88C42.9383 223.254 55.6225 231.46 68.546 238.654C82.3451 246.454 102.541 257.995 111.357 269.042C113.273 271.617 116.911 275.85 114.314 278.702L114.26 278.75Z" fill="#FF8200"/>
<path d="M100.232 10.0336C102.065 23.166 82.9618 33.9409 71.8707 44.3976C58.7642 55.3925 43.6313 68.6186 28.878 75.2996C10.9515 83.4409 7.36959 75.3147 21.1152 59.8976C32.4665 47.1903 37.1601 45.8688 50.1667 34.752C64.1831 22.9296 73.005 14.3825 88.5354 9.27164C86.3658 10.0234 98.1553 5.99038 100.202 9.95604L100.232 10.0336Z" fill="#FF8200"/>
<path d="M11.5419 134.893C10.9021 127.569 32.3779 115.177 41.4046 110.788C70.7344 96.2151 107.937 77.3978 137.414 62.6408C147.661 57.5927 157.429 53.4572 165.017 51.4478C179.746 47.1215 190.916 50.3852 177.031 63.4694C171.775 68.445 162.681 74.4993 151.842 80.3876C135.251 89.3089 114.412 99.7503 96.3835 108.98C70.9384 121.177 52.0626 133.6 26.5069 138.734C21.4419 139.338 12.6432 140.607 11.545 134.979L11.5419 134.893Z" fill="#FF8200"/>
</svg>
