<svg width="455" height="1066" viewBox="0 0 455 1066" fill="none" xmlns="http://www.w3.org/2000/svg">
<g clip-path="url(#clip0_377_1290)">
<path d="M378.456 336.771C381.347 329.816 369.364 327.56 361.342 327.862C348.539 327.995 335.742 331.093 323.181 334.307C270.548 348.799 210.293 364.025 159.051 379.86C119.89 394.217 118.8 412.267 162.404 405.586C215.647 395.51 276.36 375.42 327.951 362.464C342.729 358.25 369.561 351.636 378.411 336.871L378.456 336.771Z" fill="#FF8200"/>
<path d="M140.611 523.715C143.689 541.952 201.5 542.077 216.22 543.49C255.041 545.867 299.08 548.674 337.626 550.915C349.318 551.519 360.868 552.019 372.248 550.428C392.648 547.453 403.751 538.183 387.784 528.532C371.319 519.956 349.179 519.752 329.749 518.47C310.027 517.41 287.737 516.345 265.657 515.328C241.075 514.226 218.83 513.227 196.972 512.375C184.037 512.144 144.374 509.55 140.637 523.617L140.648 523.711L140.611 523.715Z" fill="#FF8200"/>
<path d="M277.378 925.184C283.454 908.681 231.854 852.879 220.173 836.786C210.797 825.139 201.291 813.316 192.075 801.604C173.836 779.085 154.91 750.757 135.556 734.929C115.983 721.543 128.11 769.289 133.358 776.499C155.428 809.964 187.441 847.091 212.225 879.17C221.561 890.798 266.822 933.849 277.33 925.261L277.378 925.184Z" fill="#FF8200"/>
<path d="M350.157 731.729C358.11 718.627 318.941 696.435 308.679 691.359C271.315 672.079 228.715 651.517 191.047 632.697C179.555 627.09 168.125 621.359 156.232 618.737C142.303 615.862 137.347 621.097 144.181 631.786C154.166 645.787 170.794 655.01 186.484 663.48C206.822 674.15 232.985 686.892 255.308 698.034C276.537 706.97 336.507 744.786 350.076 731.833L350.141 731.754L350.157 731.729Z" fill="#FF8200"/>
<path d="M113.947 303.222C121.969 309.774 148.172 291.369 158.675 282.401C189.266 257.638 229.186 226.121 259.565 200.787C272.966 189.204 287.134 176.636 293.646 160.892C297.817 148.936 291.54 145.443 278.716 151.2C267.65 156.363 257.688 164.489 247.634 172.459C214.99 198.869 177.882 228.017 145.631 254.787C136.574 262.009 103.028 292.264 113.868 303.183L113.95 303.245L113.947 303.222Z" fill="#FF8200"/>
</g>
<defs>
<clipPath id="clip0_377_1290">
<rect width="1194.39" height="326.543" fill="white" transform="matrix(-0.107978 -0.994153 -0.994153 0.107978 454.462 1030.25)"/>
</clipPath>
</defs>
</svg>
