<svg width="428" height="156" viewBox="0 0 428 156" fill="none" xmlns="http://www.w3.org/2000/svg">
<g style="mix-blend-mode:darken">
<path d="M9.11763 65.0999L9.14593 73.9408L14.0693 73.9251L14.0599 70.9781C14.0593 70.8016 14.0942 70.675 14.1646 70.5983C14.2349 70.5217 14.3259 70.4831 14.4377 70.4828C14.5436 70.4824 14.6319 70.5204 14.7028 70.5966C14.7736 70.667 14.8093 70.7933 14.8099 70.9757L14.8217 74.6638L6.63367 74.69C6.4572 74.6906 6.33062 74.6557 6.25393 74.5854C6.17724 74.515 6.13872 74.4269 6.13838 74.321C6.13802 74.2093 6.17597 74.1209 6.25224 74.056C6.32848 73.9851 6.45483 73.9494 6.6313 73.9489L8.39595 73.9432L8.36765 65.1023L6.60299 65.1079C6.42652 65.1085 6.29995 65.0766 6.22328 65.0121C6.14658 64.9418 6.10806 64.8507 6.1077 64.739C6.10734 64.6272 6.14529 64.5388 6.22155 64.4739C6.2978 64.4031 6.42415 64.3674 6.60062 64.3668L10.8799 64.3531C11.0564 64.3525 11.183 64.3874 11.2596 64.4578C11.3363 64.5222 11.3748 64.6103 11.3752 64.7221C11.3756 64.8338 11.3376 64.9251 11.2614 64.996C11.1851 65.0609 11.0587 65.0937 10.8823 65.0942L9.11763 65.0999ZM22.4696 69.6541L22.4832 73.8981L28.183 73.8799L28.176 71.6917C28.1755 71.5152 28.2074 71.3887 28.2719 71.312C28.3422 71.2353 28.4333 71.1968 28.545 71.1964C28.6568 71.196 28.7452 71.234 28.8101 71.3103C28.8809 71.3865 28.9166 71.5129 28.9172 71.6893L28.9266 74.6187L20.7474 74.6448C20.5709 74.6454 20.4443 74.6105 20.3677 74.5402C20.291 74.4698 20.2524 74.3817 20.2521 74.2758C20.2517 74.1641 20.2897 74.0757 20.366 74.0108C20.4422 73.94 20.5686 73.9043 20.745 73.9037L21.7421 73.9005L21.7137 65.0596L20.7167 65.0628C20.5402 65.0633 20.4137 65.0314 20.337 64.9669C20.2603 64.8966 20.2218 64.8055 20.2214 64.6938C20.2211 64.582 20.259 64.4936 20.3353 64.4287C20.4115 64.3579 20.5379 64.3222 20.7143 64.3216L28.5053 64.2967L28.5135 66.8466C28.514 67.0231 28.4791 67.1496 28.4088 67.2263C28.3443 67.303 28.2562 67.3415 28.1445 67.3419C28.0327 67.3422 27.9414 67.3043 27.8706 67.228C27.8056 67.1518 27.7729 67.0254 27.7723 66.849L27.7665 65.0402L22.4549 65.0572L22.4672 68.913L25.1231 68.9045L25.1204 68.0663C25.1198 67.8898 25.1547 67.7632 25.225 67.6865C25.2954 67.6098 25.3864 67.5713 25.4982 67.5709C25.6041 67.5706 25.6924 67.6085 25.7633 67.6848C25.8341 67.761 25.8698 67.8874 25.8704 68.0639L25.8781 70.4814C25.8787 70.6579 25.8438 70.7845 25.7734 70.8612C25.7031 70.9379 25.615 70.9764 25.5091 70.9767C25.3973 70.9771 25.306 70.9391 25.2352 70.8629C25.1644 70.7867 25.1287 70.6603 25.1281 70.4838L25.1254 69.6456L22.4696 69.6541ZM51.4041 69.9409L51.4165 73.8055L52.7841 73.8011C52.9665 73.8005 53.096 73.8354 53.1727 73.9057C53.2494 73.9702 53.2879 74.0583 53.2882 74.1701C53.2886 74.2759 53.2506 74.3643 53.1744 74.4351C53.0981 74.506 52.9688 74.5417 52.7865 74.5423L49.6807 74.5522C49.5042 74.5528 49.3777 74.5179 49.301 74.4475C49.2243 74.3772 49.1858 74.2891 49.1854 74.1832C49.1851 74.0714 49.223 73.9831 49.2993 73.9181C49.3755 73.8473 49.5019 73.8116 49.6783 73.811L50.6754 73.8079L50.6471 64.9669L49.65 64.9701C49.4736 64.9707 49.347 64.9387 49.2703 64.8743C49.1936 64.8039 49.1551 64.7129 49.1547 64.6011C49.1544 64.4894 49.1923 64.401 49.2686 64.3361C49.3448 64.2652 49.4712 64.2295 49.6477 64.229L54.1299 64.2146C55.0534 64.2117 55.8308 64.5033 56.4621 65.0895C57.0992 65.6698 57.4189 66.3276 57.4213 67.0628C57.423 67.5922 57.2275 68.0929 56.8349 68.5647C56.4482 69.0306 55.7965 69.4209 54.8799 69.7356C55.4105 70.0986 55.8647 70.5089 56.2426 70.9665C56.6206 71.4242 57.2265 72.3634 58.0605 73.7842L58.6251 73.7824C58.8016 73.7818 58.9282 73.8167 59.0049 73.8871C59.0816 73.9515 59.1201 74.0396 59.1204 74.1514C59.1208 74.2573 59.0828 74.3456 59.0066 74.4165C58.9303 74.4873 58.804 74.523 58.6275 74.5236L57.6393 74.5267C56.7164 72.8885 56.0012 71.7908 55.4935 71.2336C54.9917 70.6764 54.4139 70.243 53.76 69.9333L51.4041 69.9409ZM51.4018 69.1997L53.4223 69.1933C54.0693 69.1912 54.6542 69.0717 55.177 68.8347C55.7057 68.5977 56.0871 68.32 56.3214 68.0016C56.5615 67.6832 56.6811 67.3593 56.68 67.0299C56.6784 66.5358 56.4269 66.066 55.9255 65.6206C55.43 65.1751 54.8264 64.9535 54.1146 64.9558L51.3882 64.9646L51.4018 69.1997ZM70.7273 71.0349L65.8569 71.0505L64.8685 73.7624L66.289 73.7579C66.4655 73.7573 66.5921 73.7922 66.6688 73.8625C66.7455 73.927 66.784 74.0151 66.7843 74.1269C66.7847 74.2327 66.7467 74.3211 66.6705 74.3919C66.5942 74.4628 66.4679 74.4985 66.2914 74.499L63.5209 74.5079C63.3444 74.5085 63.2179 74.4736 63.1412 74.4032C63.0645 74.3329 63.026 74.2448 63.0256 74.1389C63.0253 74.0271 63.0632 73.9388 63.1395 73.8738C63.2157 73.803 63.3421 73.7673 63.5185 73.7667L64.092 73.7649L67.3372 64.9135L65.149 64.9205C64.9725 64.9211 64.846 64.8891 64.7693 64.8246C64.6926 64.7543 64.6541 64.6633 64.6537 64.5515C64.6534 64.4397 64.6913 64.3514 64.7676 64.2864C64.8438 64.2156 64.9702 64.1799 65.1466 64.1793L68.8789 64.1674L72.5271 73.7379L73.1006 73.7361C73.2771 73.7355 73.4037 73.7704 73.4804 73.8407C73.557 73.9052 73.5956 73.9933 73.5959 74.105C73.5962 74.2109 73.5583 74.2993 73.4821 74.3701C73.4058 74.4409 73.2795 74.4766 73.103 74.4772L70.3413 74.486C70.159 74.4866 70.0294 74.4518 69.9527 74.3814C69.876 74.3111 69.8375 74.223 69.8372 74.1171C69.8368 74.0053 69.8748 73.917 69.951 73.852C70.0273 73.7812 70.1566 73.7455 70.3389 73.7449L71.7507 73.7404L70.7273 71.0349ZM70.4426 70.2946L68.3783 64.9102L68.1048 64.911L66.1368 70.3084L70.4426 70.2946ZM83.1431 69.7863L83.1556 73.7039L85.0791 73.6977C85.2556 73.6971 85.3822 73.732 85.4589 73.8024C85.5355 73.8668 85.574 73.9549 85.5744 74.0667C85.5747 74.1726 85.5368 74.2609 85.4605 74.3318C85.3843 74.4026 85.258 74.4383 85.0815 74.4389L80.4846 74.4536C80.3081 74.4541 80.1815 74.4192 80.1048 74.3489C80.0281 74.2786 79.9896 74.1905 79.9893 74.0846C79.9889 73.9728 80.0239 73.8845 80.0943 73.8195C80.1705 73.7487 80.2998 73.713 80.4822 73.7124L82.4057 73.7063L82.3931 69.7887L79.1216 64.8758L78.6804 64.8772C78.5039 64.8777 78.3774 64.8458 78.3007 64.7813C78.224 64.711 78.1855 64.6199 78.1851 64.5082C78.1847 64.3964 78.2227 64.3081 78.299 64.2431C78.3752 64.1723 78.5016 64.1366 78.678 64.136L80.7162 64.1295C80.8927 64.1289 81.0192 64.1638 81.0959 64.2341C81.1726 64.2986 81.2111 64.3867 81.2115 64.4985C81.2118 64.6102 81.1739 64.7015 81.0977 64.7724C81.0214 64.8373 80.895 64.8701 80.7186 64.8706L79.9862 64.873L82.7701 69.0375L85.4655 64.8554L84.742 64.8578C84.5596 64.8583 84.4301 64.8264 84.3535 64.7619C84.2768 64.6916 84.2382 64.6005 84.2379 64.4888C84.2375 64.377 84.2755 64.2887 84.3517 64.2237C84.428 64.1529 84.5573 64.1172 84.7396 64.1166L86.769 64.1101C86.9454 64.1095 87.072 64.1444 87.1487 64.2148C87.2254 64.2792 87.2639 64.3673 87.2643 64.4791C87.2646 64.5909 87.2267 64.6822 87.1504 64.753C87.0742 64.8179 86.9478 64.8507 86.7713 64.8513L86.3302 64.8527L83.1431 69.7863ZM101.746 69.2503C101.75 70.2385 101.552 71.1568 101.155 72.0051C100.758 72.8475 100.207 73.5051 99.5027 73.978C98.8042 74.4508 98.0521 74.6885 97.2462 74.6911C96.0521 74.6949 94.9976 74.1924 94.0826 73.1836C93.1735 72.1689 92.7164 70.8674 92.7113 69.2792C92.7062 67.6851 93.155 66.3808 94.0576 65.3662C94.9661 64.3515 96.0174 63.8423 97.2114 63.8384C98.0173 63.8359 98.771 64.0687 99.4725 64.5371C100.174 65.0054 100.726 65.6595 101.129 66.4994C101.537 67.3392 101.743 68.2562 101.746 69.2503ZM100.996 69.2527C100.992 68.0468 100.639 66.9656 99.936 66.0091C99.2329 65.0525 98.3256 64.576 97.2138 64.5796C96.1727 64.5829 95.283 65.0446 94.5448 65.9646C93.8124 66.8787 93.4483 67.9828 93.4525 69.2768C93.4569 70.6533 93.8458 71.7785 94.6191 72.6525C95.3984 73.5205 96.2733 73.953 97.2438 73.9499C98.3556 73.9464 99.2599 73.467 99.9568 72.5118C100.654 71.5508 101 70.4644 100.996 69.2527ZM115.329 74.342L114.377 74.3451L108.885 65.1246L108.913 73.6214L110.28 73.617C110.463 73.6164 110.592 73.6513 110.669 73.7216C110.745 73.7861 110.784 73.8742 110.784 73.986C110.785 74.0919 110.747 74.1802 110.67 74.251C110.594 74.3219 110.465 74.3576 110.283 74.3582L107.556 74.3669C107.374 74.3675 107.244 74.3326 107.168 74.2623C107.091 74.1919 107.052 74.1038 107.052 73.9979C107.052 73.8862 107.09 73.7978 107.166 73.7329C107.242 73.662 107.371 73.6263 107.554 73.6257L108.171 73.6238L108.143 64.7828L107.146 64.786C106.97 64.7866 106.843 64.7546 106.766 64.6902C106.69 64.6198 106.651 64.5288 106.651 64.417C106.65 64.3053 106.688 64.2169 106.765 64.152C106.841 64.0811 106.967 64.0454 107.144 64.0449L109.085 64.0386L114.585 73.2768L114.558 64.7623L113.19 64.7667C113.014 64.7672 112.887 64.7353 112.81 64.6708C112.734 64.6005 112.695 64.5094 112.695 64.3977C112.694 64.2859 112.729 64.1976 112.8 64.1326C112.876 64.0618 113.005 64.0261 113.188 64.0255L115.923 64.0168C116.099 64.0162 116.226 64.0511 116.303 64.1214C116.379 64.1859 116.418 64.274 116.418 64.3857C116.419 64.4975 116.381 64.5888 116.304 64.6596C116.228 64.7246 116.102 64.7573 115.925 64.7579L115.299 64.7599L115.329 74.342ZM138.203 69.2836L138.216 73.5276L143.916 73.5093L143.909 71.3211C143.909 71.1447 143.941 71.0181 144.005 70.9414C144.075 70.8647 144.167 70.8262 144.278 70.8258C144.39 70.8255 144.478 70.8634 144.543 70.9397C144.614 71.0159 144.65 71.1423 144.65 71.3188L144.66 74.2481L136.481 74.2743C136.304 74.2748 136.178 74.24 136.101 74.1696C136.024 74.0993 135.986 74.0112 135.985 73.9053C135.985 73.7935 136.023 73.7052 136.099 73.6402C136.175 73.5694 136.302 73.5337 136.478 73.5331L137.475 73.5299L137.447 64.689L136.45 64.6922C136.273 64.6928 136.147 64.6608 136.07 64.5964C135.994 64.526 135.955 64.435 135.955 64.3232C135.954 64.2114 135.992 64.1231 136.069 64.0581C136.145 63.9873 136.271 63.9516 136.448 63.951L144.239 63.9261L144.247 66.476C144.247 66.6525 144.212 66.7791 144.142 66.8558C144.078 66.9324 143.989 66.971 143.878 66.9713C143.766 66.9717 143.675 66.9337 143.604 66.8575C143.539 66.7812 143.506 66.6549 143.506 66.4784L143.5 64.6696L138.188 64.6866L138.2 68.5424L140.856 68.5339L140.854 67.6957C140.853 67.5192 140.888 67.3926 140.958 67.3159C141.029 67.2393 141.12 67.2007 141.231 67.2004C141.337 67.2 141.426 67.238 141.497 67.3142C141.567 67.3905 141.603 67.5168 141.604 67.6933L141.611 70.1109C141.612 70.2873 141.577 70.4139 141.507 70.4906C141.436 70.5673 141.348 70.6058 141.242 70.6062C141.131 70.6065 141.039 70.5686 140.968 70.4923C140.898 70.4161 140.862 70.2897 140.861 70.1133L140.859 69.2751L138.203 69.2836ZM157.719 64.6241L157.719 64.377C157.718 64.2006 157.75 64.074 157.814 63.9973C157.885 63.9206 157.976 63.8821 158.088 63.8817C158.199 63.8814 158.288 63.9193 158.353 63.9956C158.423 64.0718 158.459 64.1982 158.46 64.3747L158.466 66.2628C158.466 66.4393 158.431 66.5659 158.361 66.6426C158.297 66.7193 158.209 66.7578 158.097 66.7581C157.991 66.7585 157.903 66.7235 157.832 66.6531C157.767 66.5827 157.731 66.4681 157.725 66.3093C157.694 65.8153 157.436 65.372 156.953 64.9795C156.475 64.5869 155.848 64.3918 155.072 64.3943C154.254 64.397 153.605 64.6108 153.124 65.0359C152.643 65.455 152.403 65.9499 152.405 66.5205C152.406 66.8146 152.474 67.082 152.61 67.3228C152.747 67.5635 152.927 67.76 153.151 67.9122C153.375 68.0585 153.628 68.1783 153.911 68.2715C154.193 68.3588 154.635 68.4515 155.235 68.5496C156.241 68.7111 156.936 68.8765 157.319 69.0459C157.831 69.2736 158.218 69.5901 158.478 69.9951C158.744 70.4001 158.878 70.8791 158.879 71.432C158.882 72.2791 158.546 73.0036 157.872 73.6058C157.197 74.2021 156.286 74.502 155.139 74.5057C153.851 74.5098 152.82 74.1102 152.047 73.3068L152.049 73.7303C152.049 73.9068 152.014 74.0334 151.944 74.1101C151.88 74.1867 151.791 74.2253 151.68 74.2256C151.574 74.226 151.485 74.188 151.415 74.1118C151.344 74.0355 151.308 73.9092 151.307 73.7327L151.301 71.6857C151.3 71.5033 151.332 71.3738 151.397 71.2972C151.467 71.2205 151.558 71.1819 151.67 71.1816C151.776 71.1812 151.861 71.2163 151.926 71.2866C151.997 71.357 152.036 71.4716 152.042 71.6304C152.073 72.1714 152.363 72.6646 152.911 73.1099C153.466 73.5493 154.208 73.7675 155.137 73.7646C156.066 73.7616 156.798 73.5269 157.332 73.0605C157.871 72.5941 158.14 72.0432 158.138 71.4079C158.137 71.0197 158.033 70.6759 157.826 70.3766C157.619 70.0714 157.313 69.8312 156.906 69.656C156.623 69.5334 156.035 69.397 155.14 69.247C153.91 69.045 153.024 68.7332 152.481 68.3114C151.939 67.8896 151.666 67.2875 151.664 66.5052C151.661 65.7288 151.968 65.0601 152.584 64.4994C153.205 63.9386 154.025 63.6565 155.043 63.6533C156.078 63.6499 156.97 63.9736 157.719 64.6241ZM174.08 69.0187C174.083 70.0069 173.886 70.9252 173.488 71.7735C173.091 72.6159 172.54 73.2735 171.836 73.7464C171.138 74.2192 170.385 74.4569 169.579 74.4595C168.385 74.4633 167.331 73.9608 166.416 72.952C165.507 71.9373 165.05 70.6358 165.045 69.0476C165.039 67.4535 165.488 66.1492 166.391 65.1345C167.299 64.1199 168.351 63.6107 169.545 63.6068C170.351 63.6043 171.104 63.8371 171.806 64.3055C172.507 64.7738 173.059 65.4279 173.462 66.2678C173.871 67.1076 174.076 68.0246 174.08 69.0187ZM173.33 69.0211C173.326 67.8152 172.972 66.734 172.269 65.7775C171.566 64.8209 170.659 64.3444 169.547 64.348C168.506 64.3513 167.616 64.813 166.878 65.733C166.146 66.6471 165.782 67.7512 165.786 69.0452C165.79 70.4217 166.179 71.5469 166.952 72.4209C167.732 73.2889 168.607 73.7214 169.577 73.7183C170.689 73.7148 171.593 73.2354 172.29 72.2802C172.987 71.3192 173.334 70.2328 173.33 69.0211ZM182.408 69.892L182.419 73.386L184.96 73.3779C185.137 73.3773 185.263 73.4122 185.34 73.4826C185.417 73.547 185.455 73.6351 185.456 73.7469C185.456 73.8528 185.418 73.9411 185.342 74.0119C185.266 74.0828 185.139 74.1185 184.963 74.119L180.684 74.1327C180.507 74.1333 180.38 74.0984 180.304 74.0281C180.227 73.9577 180.189 73.8696 180.188 73.7637C180.188 73.652 180.226 73.5636 180.302 73.4987C180.378 73.4279 180.505 73.3922 180.681 73.3916L181.678 73.3884L181.65 64.5475L180.653 64.5507C180.476 64.5512 180.35 64.5193 180.273 64.4548C180.196 64.3845 180.158 64.2934 180.158 64.1817C180.157 64.0699 180.195 63.9815 180.271 63.9166C180.348 63.8458 180.474 63.8101 180.65 63.8095L184.956 63.7957C185.974 63.7925 186.804 64.0898 187.447 64.6877C188.096 65.2856 188.422 65.9875 188.425 66.7934C188.426 67.2698 188.322 67.6996 188.111 68.0826C187.906 68.4656 187.657 68.7664 187.364 68.985C186.924 69.3158 186.469 69.5584 185.999 69.7129C185.658 69.8257 185.235 69.883 184.729 69.8846L182.408 69.892ZM182.406 69.1508L184.77 69.1433C185.317 69.1415 185.829 69.0193 186.305 68.7766C186.786 68.528 187.135 68.2269 187.352 67.8733C187.574 67.5196 187.685 67.1604 187.683 66.7958C187.682 66.2134 187.43 65.6907 186.928 65.2276C186.427 64.7645 185.794 64.5342 185.029 64.5366L182.391 64.5451L182.406 69.1508ZM196.069 69.0983L196.083 73.3423L201.783 73.324L201.776 71.1358C201.775 70.9594 201.807 70.8328 201.872 70.7561C201.942 70.6794 202.033 70.6409 202.145 70.6406C202.257 70.6402 202.345 70.6782 202.41 70.7544C202.481 70.8307 202.517 70.957 202.517 71.1335L202.526 74.0628L194.347 74.089C194.171 74.0896 194.044 74.0547 193.968 73.9843C193.891 73.914 193.852 73.8259 193.852 73.72C193.852 73.6082 193.89 73.5199 193.966 73.4549C194.042 73.3841 194.168 73.3484 194.345 73.3478L195.342 73.3446L195.314 64.5037L194.317 64.5069C194.14 64.5075 194.014 64.4755 193.937 64.4111C193.86 64.3407 193.822 64.2497 193.821 64.1379C193.821 64.0262 193.859 63.9378 193.935 63.8728C194.011 63.802 194.138 63.7663 194.314 63.7658L202.105 63.7408L202.113 66.2907C202.114 66.4672 202.079 66.5938 202.009 66.6705C201.944 66.7472 201.856 66.7857 201.744 66.786C201.633 66.7864 201.541 66.7484 201.47 66.6722C201.405 66.5959 201.373 66.4696 201.372 66.2931L201.366 64.4843L196.055 64.5013L196.067 68.3571L198.723 68.3486L198.72 67.5104C198.72 67.3339 198.755 67.2074 198.825 67.1307C198.895 67.054 198.986 67.0154 199.098 67.0151C199.204 67.0147 199.292 67.0527 199.363 67.1289C199.434 67.2052 199.47 67.3315 199.47 67.508L199.478 69.9256C199.479 70.102 199.444 70.2286 199.373 70.3053C199.303 70.382 199.215 70.4205 199.109 70.4209C198.997 70.4212 198.906 70.3833 198.835 70.307C198.764 70.2308 198.729 70.1044 198.728 69.928L198.725 69.0898L196.069 69.0983Z" fill="#3435FF"/>
</g>
<line x1="5.46747" y1="95.6869" x2="427.126" y2="94.9489" stroke="#3435FF" stroke-width="0.903509" stroke-dasharray="7.23 7.23"/>
</svg>
