<svg width="422" height="178" viewBox="0 0 422 178" fill="none" xmlns="http://www.w3.org/2000/svg">
<g style="mix-blend-mode:darken">
<path d="M356.017 96.8072L356.013 98.6424C356.01 100.237 355.629 101.498 354.868 102.425C354.273 103.154 353.522 103.517 352.616 103.515C352.181 103.514 351.769 103.425 351.381 103.248C350.999 103.077 350.673 102.835 350.403 102.523C350.233 102.328 350.045 102.016 349.84 101.586C349.641 101.157 349.498 100.762 349.41 100.403C349.276 99.8972 349.209 99.3059 349.211 98.6295L349.214 96.7942C349.217 95.1943 349.599 93.9303 350.36 93.0024C350.955 92.2741 351.706 91.9108 352.612 91.9126C353.053 91.9134 353.464 92.0024 353.846 92.1796C354.228 92.3509 354.554 92.5927 354.824 92.905C355.001 93.1053 355.188 93.4204 355.387 93.8502C355.587 94.2799 355.733 94.6714 355.826 95.0245C355.955 95.5306 356.018 96.1249 356.017 96.8072ZM355.276 96.9028C355.277 96.2028 355.178 95.5527 354.979 94.9523C354.786 94.3461 354.567 93.8633 354.32 93.504C354.174 93.2979 353.983 93.121 353.748 92.9735C353.413 92.767 353.037 92.6634 352.619 92.6626C351.79 92.661 351.139 93.0833 350.667 93.9294C350.194 94.7755 349.957 95.7633 349.955 96.8927L349.952 98.525C349.951 99.225 350.047 99.8781 350.239 100.484C350.438 101.091 350.664 101.573 350.916 101.933C351.057 102.133 351.245 102.307 351.48 102.454C351.815 102.667 352.194 102.773 352.617 102.774C353.441 102.776 354.089 102.353 354.561 101.507C355.033 100.655 355.27 99.6645 355.273 98.5351L355.276 96.9028ZM370.484 96.8348L370.48 98.67C370.477 100.264 370.095 101.525 369.335 102.453C368.739 103.181 367.989 103.545 367.083 103.543C366.647 103.542 366.236 103.453 365.848 103.276C365.466 103.104 365.14 102.863 364.87 102.55C364.7 102.356 364.512 102.044 364.307 101.614C364.108 101.184 363.965 100.79 363.877 100.431C363.743 99.9248 363.676 99.3335 363.677 98.657L363.681 96.8218C363.684 95.2218 364.066 93.9579 364.826 93.0299C365.422 92.3017 366.173 91.9384 367.078 91.9401C367.52 91.941 367.931 92.03 368.313 92.2072C368.695 92.3785 369.021 92.6203 369.291 92.9326C369.467 93.1329 369.655 93.448 369.854 93.8778C370.053 94.3075 370.2 94.699 370.293 95.0521C370.421 95.5582 370.485 96.1524 370.484 96.8348ZM369.742 96.9304C369.744 96.2304 369.645 95.5803 369.446 94.9799C369.253 94.3737 369.033 93.8909 368.787 93.5316C368.64 93.3254 368.45 93.1486 368.215 93.0011C367.88 92.7946 367.503 92.6909 367.086 92.6901C366.256 92.6886 365.606 93.1108 365.133 93.957C364.661 94.8031 364.424 95.7909 364.422 96.9203L364.419 98.5526C364.417 99.2526 364.513 99.9057 364.706 100.512C364.905 101.118 365.131 101.601 365.383 101.96C365.524 102.16 365.712 102.334 365.947 102.482C366.281 102.694 366.661 102.801 367.084 102.802C367.908 102.803 368.555 102.381 369.028 101.535C369.5 100.683 369.737 99.6921 369.739 98.5627L369.742 96.9304ZM384.95 96.8624L384.947 98.6976C384.944 100.292 384.562 101.553 383.801 102.481C383.206 103.209 382.455 103.572 381.549 103.57C381.114 103.57 380.703 103.481 380.315 103.303C379.933 103.132 379.607 102.89 379.337 102.578C379.166 102.384 378.979 102.071 378.774 101.642C378.575 101.212 378.431 100.817 378.344 100.459C378.209 99.9524 378.143 99.3611 378.144 98.6846L378.148 96.8494C378.151 95.2494 378.532 93.9855 379.293 93.0575C379.889 92.3293 380.639 91.966 381.545 91.9677C381.986 91.9686 382.398 92.0576 382.78 92.2348C383.162 92.4061 383.488 92.6479 383.758 92.9602C383.934 93.1605 384.122 93.4756 384.321 93.9053C384.52 94.3351 384.666 94.7266 384.76 95.0797C384.888 95.5858 384.952 96.18 384.95 96.8624ZM384.209 96.958C384.21 96.258 384.112 95.6078 383.913 95.0075C383.72 94.4012 383.5 93.9185 383.254 93.5592C383.107 93.353 382.916 93.1762 382.681 93.0287C382.346 92.8222 381.97 92.7185 381.552 92.7177C380.723 92.7161 380.072 93.1384 379.6 93.9846C379.128 94.8307 378.891 95.8185 378.889 96.9479L378.885 98.5802C378.884 99.2802 378.98 99.9333 379.173 100.539C379.372 101.146 379.597 101.629 379.85 101.988C379.99 102.188 380.178 102.362 380.413 102.509C380.748 102.722 381.127 102.828 381.551 102.829C382.374 102.831 383.022 102.409 383.494 101.562C383.967 100.71 384.204 99.7197 384.206 98.5903L384.209 96.958ZM399.417 96.8899L399.414 98.7252C399.411 100.319 399.029 101.58 398.268 102.508C397.673 103.236 396.922 103.6 396.016 103.598C395.581 103.597 395.169 103.508 394.781 103.331C394.399 103.16 394.073 102.918 393.803 102.606C393.633 102.411 393.446 102.099 393.24 101.669C393.041 101.239 392.898 100.845 392.81 100.486C392.676 99.98 392.61 99.3887 392.611 98.7122L392.614 96.877C392.617 95.277 392.999 94.0131 393.76 93.0851C394.355 92.3569 395.106 91.9936 396.012 91.9953C396.453 91.9962 396.865 92.0852 397.247 92.2624C397.629 92.4337 397.955 92.6755 398.225 92.9877C398.401 93.1881 398.588 93.5031 398.787 93.9329C398.987 94.3627 399.133 94.7541 399.226 95.1073C399.355 95.6134 399.418 96.2076 399.417 96.8899ZM398.676 96.9856C398.677 96.2856 398.578 95.6354 398.379 95.0351C398.187 94.4288 397.967 93.9461 397.72 93.5868C397.574 93.3806 397.383 93.2038 397.148 93.0563C396.813 92.8498 396.437 92.7461 396.019 92.7453C395.19 92.7437 394.539 93.166 394.067 94.0122C393.595 94.8583 393.357 95.8461 393.355 96.9754L393.352 98.6078C393.351 99.3077 393.447 99.9608 393.64 100.567C393.838 101.173 394.064 101.656 394.316 102.015C394.457 102.216 394.645 102.39 394.88 102.537C395.215 102.749 395.594 102.856 396.018 102.857C396.841 102.858 397.489 102.436 397.961 101.59C398.433 100.738 398.67 99.7473 398.673 98.6179L398.676 96.9856ZM413.884 96.9175L413.88 98.7528C413.877 100.347 413.495 101.608 412.735 102.536C412.139 103.264 411.389 103.627 410.483 103.626C410.048 103.625 409.636 103.536 409.248 103.359C408.866 103.187 408.54 102.945 408.27 102.633C408.1 102.439 407.912 102.127 407.707 101.697C407.508 101.267 407.365 100.873 407.277 100.514C407.143 100.008 407.076 99.4163 407.078 98.7398L407.081 96.9046C407.084 95.3046 407.466 94.0406 408.226 93.1127C408.822 92.3844 409.573 92.0212 410.478 92.0229C410.92 92.0237 411.331 92.1128 411.713 92.29C412.095 92.4613 412.421 92.7031 412.691 93.0153C412.867 93.2157 413.055 93.5307 413.254 93.9605C413.453 94.3903 413.6 94.7817 413.693 95.1348C413.822 95.641 413.885 96.2352 413.884 96.9175ZM413.142 97.0132C413.144 96.3132 413.045 95.663 412.846 95.0626C412.653 94.4564 412.434 93.9736 412.187 93.6144C412.041 93.4082 411.85 93.2314 411.615 93.0839C411.28 92.8773 410.904 92.7737 410.486 92.7729C409.656 92.7713 409.006 93.1936 408.534 94.0397C408.061 94.8859 407.824 95.8736 407.822 97.003L407.819 98.6353C407.818 99.3353 407.913 99.9884 408.106 100.595C408.305 101.201 408.531 101.684 408.783 102.043C408.924 102.243 409.112 102.417 409.347 102.565C409.682 102.777 410.061 102.884 410.484 102.884C411.308 102.886 411.956 102.464 412.428 101.618C412.9 100.766 413.137 99.7749 413.139 98.6455L413.142 97.0132Z" fill="#3435FF"/>
</g>
<g style="mix-blend-mode:darken">
<path d="M15.2226 102.932C15.9044 103.239 16.4241 103.661 16.7819 104.197C17.1397 104.727 17.3181 105.28 17.317 105.857C17.3153 106.745 16.952 107.53 16.2272 108.21C15.5083 108.886 14.6077 109.222 13.5254 109.22C12.8901 109.219 12.2315 109.082 11.5497 108.81C10.8679 108.538 10.392 108.261 10.1219 107.978C10.0339 107.884 9.98994 107.784 9.99014 107.678C9.99032 107.584 10.0228 107.502 10.0877 107.431C10.1584 107.361 10.2408 107.326 10.3349 107.326C10.429 107.326 10.5348 107.37 10.6523 107.459C11.5628 108.137 12.5268 108.477 13.5444 108.479C14.4032 108.481 15.1214 108.214 15.6988 107.68C16.2822 107.14 16.5745 106.541 16.5758 105.882C16.5766 105.441 16.4333 105.008 16.1459 104.584C15.8644 104.16 15.4562 103.827 14.9214 103.585C14.3866 103.336 13.8456 103.212 13.2986 103.211C13.1221 103.211 12.9957 103.178 12.9194 103.113C12.843 103.042 12.805 102.951 12.8052 102.839C12.8054 102.733 12.8409 102.645 12.9116 102.575C12.9882 102.504 13.1 102.469 13.2471 102.47L13.8823 102.48C14.547 102.481 15.0945 102.279 15.5246 101.874C15.9607 101.469 16.1792 100.999 16.1802 100.463C16.1813 99.9106 15.9558 99.4219 15.5036 98.9975C15.0515 98.5731 14.4608 98.3603 13.7314 98.3589C13.2196 98.3579 12.7489 98.4452 12.3191 98.6209C11.8894 98.7965 11.5448 99.037 11.2854 99.3424C11.1911 99.4599 11.1174 99.5333 11.0644 99.5626C11.0173 99.586 10.9614 99.5977 10.8967 99.5976C10.7967 99.5974 10.7115 99.5648 10.641 99.5C10.5706 99.4293 10.5354 99.3469 10.5356 99.2528C10.5361 99.0175 10.7925 98.7209 11.3049 98.3631C12.0176 97.8644 12.8269 97.616 13.7328 97.6177C14.668 97.6195 15.4351 97.9033 16.034 98.4691C16.633 99.0291 16.9317 99.6973 16.9302 100.474C16.9293 100.968 16.7843 101.435 16.4952 101.876C16.2061 102.316 15.7819 102.669 15.2226 102.932ZM29.5426 105.889L24.628 105.879L24.6296 105.024L28.7637 97.9111L30.3078 97.914L30.294 105.149L30.9116 105.15C31.0939 105.151 31.2233 105.186 31.2996 105.257C31.376 105.322 31.414 105.41 31.4138 105.522C31.4136 105.628 31.3752 105.716 31.2986 105.786C31.222 105.857 31.0925 105.892 30.9102 105.891L30.2925 105.89L30.288 108.246L30.9057 108.247C31.088 108.248 31.2174 108.283 31.2937 108.354C31.3701 108.419 31.4081 108.507 31.4079 108.619C31.4077 108.725 31.3693 108.813 31.2927 108.883C31.2161 108.954 31.0866 108.989 30.9043 108.988L28.1514 108.983C27.969 108.983 27.8397 108.947 27.7634 108.877C27.687 108.806 27.649 108.718 27.6492 108.612C27.6494 108.5 27.6878 108.412 27.7644 108.347C27.841 108.277 27.9705 108.242 28.1528 108.242L29.5381 108.245L29.5426 105.889ZM29.544 105.148L29.5563 98.6626L29.1681 98.6618L25.4058 105.14L29.544 105.148ZM44.156 102.987C44.8378 103.295 45.3575 103.716 45.7153 104.252C46.0731 104.782 46.2515 105.335 46.2504 105.912C46.2487 106.8 45.8855 107.585 45.1606 108.266C44.4417 108.941 43.5411 109.277 42.4588 109.275C41.8235 109.274 41.1649 109.137 40.4831 108.866C39.8013 108.594 39.3254 108.316 39.0553 108.033C38.9673 107.939 38.9234 107.839 38.9236 107.733C38.9237 107.639 38.9562 107.557 39.0211 107.486C39.0918 107.416 39.1742 107.381 39.2683 107.381C39.3625 107.381 39.4682 107.425 39.5857 107.514C40.4962 108.192 41.4602 108.532 42.4778 108.534C43.3366 108.536 44.0548 108.269 44.6323 107.735C45.2156 107.195 45.5079 106.596 45.5092 105.937C45.51 105.496 45.3667 105.063 45.0793 104.639C44.7978 104.215 44.3896 103.882 43.8548 103.64C43.32 103.392 42.779 103.267 42.232 103.266C42.0555 103.266 41.9291 103.233 41.8528 103.168C41.7765 103.098 41.7384 103.006 41.7386 102.895C41.7388 102.789 41.7743 102.7 41.845 102.63C41.9216 102.56 42.0334 102.525 42.1805 102.525L42.8157 102.535C43.4804 102.536 44.0279 102.334 44.458 101.929C44.8941 101.524 45.1126 101.054 45.1137 100.519C45.1147 99.9657 44.8892 99.4771 44.437 99.0527C43.9849 98.6283 43.3942 98.4154 42.6648 98.414C42.153 98.4131 41.6823 98.5004 41.2525 98.676C40.8228 98.8517 40.4782 99.0922 40.2188 99.3976C40.1245 99.515 40.0508 99.5884 39.9978 99.6177C39.9507 99.6412 39.8948 99.6528 39.8301 99.6527C39.7301 99.6525 39.6449 99.62 39.5744 99.5552C39.504 99.4845 39.4688 99.402 39.469 99.3079C39.4695 99.0726 39.7259 98.7761 40.2383 98.4182C40.951 97.9196 41.7603 97.6711 42.6662 97.6729C43.6015 97.6747 44.3685 97.9585 44.9675 98.5243C45.5664 99.0843 45.8651 99.7525 45.8636 100.529C45.8627 101.023 45.7177 101.49 45.4286 101.931C45.1395 102.372 44.7153 102.724 44.156 102.987ZM55.0663 98.7112L55.0594 102.338C55.495 102.156 55.9129 102.022 56.3131 101.934C56.7132 101.841 57.0927 101.794 57.4515 101.795C58.3809 101.797 59.1568 102.125 59.779 102.779C60.4072 103.433 60.7202 104.292 60.7182 105.357C60.716 106.534 60.3612 107.486 59.654 108.214C58.9467 108.942 58.0637 109.305 57.0049 109.303C56.3049 109.302 55.6317 109.144 54.9852 108.831C54.5268 108.613 54.1097 108.342 53.7339 108.017C53.5107 107.823 53.3993 107.661 53.3995 107.531C53.3997 107.425 53.4352 107.337 53.5059 107.267C53.5766 107.191 53.6591 107.152 53.7532 107.153C53.8532 107.153 53.959 107.206 54.0705 107.312C54.9571 108.143 55.924 108.56 56.971 108.562C57.8357 108.563 58.5509 108.271 59.1168 107.683C59.6826 107.09 59.9664 106.303 59.9683 105.32C59.9699 104.485 59.7271 103.814 59.2398 103.307C58.7526 102.795 58.1325 102.538 57.3795 102.536C56.609 102.535 55.838 102.736 55.0667 103.141C54.8783 103.234 54.7458 103.281 54.6694 103.281C54.5635 103.281 54.4783 103.245 54.4137 103.175C54.3491 103.104 54.317 103.004 54.3172 102.874L54.3266 97.9598L59.497 97.9697C59.6735 97.97 59.7999 98.0055 59.8762 98.0763C59.9526 98.147 59.9906 98.2382 59.9904 98.35C59.9902 98.4559 59.9518 98.5441 59.8752 98.6145C59.7986 98.6849 59.6721 98.72 59.4956 98.7196L55.0663 98.7112ZM69.7787 104.077L69.7706 108.321L72.3117 108.326C72.4882 108.327 72.6146 108.362 72.6909 108.433C72.7673 108.498 72.8053 108.586 72.8051 108.698C72.8049 108.804 72.7665 108.892 72.6899 108.962C72.6133 109.033 72.4868 109.068 72.3103 109.067L68.031 109.059C67.8545 109.059 67.7281 109.023 67.6518 108.953C67.5755 108.882 67.5374 108.794 67.5376 108.688C67.5378 108.576 67.5762 108.488 67.6528 108.423C67.7294 108.353 67.856 108.318 68.0324 108.318L69.0295 108.32L69.0463 99.479L68.0493 99.4771C67.8728 99.4768 67.7464 99.4442 67.6701 99.3793C67.5937 99.3086 67.5557 99.2174 67.5559 99.1056C67.5561 98.9938 67.6004 98.8998 67.6888 98.8235C67.7536 98.7648 67.8742 98.7356 68.0507 98.736L76.2123 98.7515L76.2074 101.301C76.2071 101.478 76.1715 101.604 76.1008 101.681C76.0301 101.757 75.9418 101.795 75.8359 101.795C75.7241 101.795 75.633 101.756 75.5626 101.68C75.4921 101.603 75.4571 101.476 75.4574 101.3L75.4609 99.4913L69.7875 99.4804L69.7801 103.336L72.4359 103.341L72.4375 102.503C72.4379 102.327 72.4734 102.2 72.5441 102.124C72.6149 102.048 72.7061 102.009 72.8179 102.01C72.9238 102.01 73.0119 102.048 73.0824 102.125C73.1528 102.202 73.1879 102.328 73.1875 102.505L73.1829 104.922C73.1826 105.099 73.147 105.225 73.0763 105.301C73.0056 105.378 72.9173 105.416 72.8114 105.415C72.6996 105.415 72.6085 105.377 72.5381 105.3C72.4676 105.224 72.4326 105.097 72.4329 104.921L72.4345 104.082L69.7787 104.077ZM84.2454 104.105L84.2373 108.349L86.7784 108.354C86.9549 108.354 87.0813 108.39 87.1576 108.46C87.234 108.525 87.272 108.614 87.2718 108.725C87.2716 108.831 87.2332 108.919 87.1566 108.99C87.08 109.06 86.9535 109.095 86.777 109.095L82.4977 109.087C82.3212 109.086 82.1948 109.051 82.1185 108.98C82.0422 108.909 82.0041 108.821 82.0043 108.715C82.0045 108.604 82.0429 108.515 82.1195 108.451C82.1961 108.38 82.3227 108.345 82.4991 108.346L83.4962 108.348L83.513 99.5066L82.516 99.5047C82.3395 99.5044 82.2131 99.4718 82.1368 99.4069C82.0604 99.3362 82.0224 99.2449 82.0226 99.1332C82.0228 99.0214 82.0671 98.9274 82.1555 98.8511C82.2203 98.7924 82.3409 98.7632 82.5174 98.7635L90.679 98.7791L90.6741 101.329C90.6738 101.506 90.6382 101.632 90.5675 101.708C90.4968 101.785 90.4085 101.823 90.3026 101.822C90.1908 101.822 90.0997 101.784 90.0293 101.707C89.9588 101.631 89.9238 101.504 89.9241 101.328L89.9276 99.5188L84.2542 99.508L84.2468 103.364L86.9026 103.369L86.9042 102.531C86.9046 102.354 86.9401 102.228 87.0108 102.151C87.0816 102.075 87.1728 102.037 87.2846 102.037C87.3905 102.037 87.4786 102.076 87.5491 102.152C87.6195 102.229 87.6546 102.356 87.6542 102.532L87.6496 104.95C87.6493 105.126 87.6137 105.253 87.543 105.329C87.4723 105.405 87.384 105.443 87.2781 105.443C87.1663 105.443 87.0752 105.404 87.0048 105.328C86.9343 105.251 86.8993 105.125 86.8996 104.948L86.9012 104.11L84.2454 104.105ZM104.281 103.49L104.279 104.549L96.7173 104.535L96.7193 103.476L104.281 103.49ZM113.179 104.16L113.171 108.404L115.712 108.409C115.888 108.409 116.015 108.445 116.091 108.516C116.167 108.58 116.205 108.669 116.205 108.781C116.205 108.886 116.167 108.975 116.09 109.045C116.013 109.115 115.887 109.15 115.71 109.15L111.431 109.142C111.255 109.142 111.128 109.106 111.052 109.035C110.976 108.965 110.938 108.876 110.938 108.77C110.938 108.659 110.976 108.571 111.053 108.506C111.13 108.436 111.256 108.4 111.433 108.401L112.43 108.403L112.446 99.5618L111.449 99.5599C111.273 99.5595 111.147 99.5269 111.07 99.4621C110.994 99.3914 110.956 99.3001 110.956 99.1884C110.956 99.0766 111.001 98.9826 111.089 98.9063C111.154 98.8476 111.274 98.8184 111.451 98.8187L119.612 98.8343L119.608 101.384C119.607 101.561 119.572 101.687 119.501 101.763C119.43 101.84 119.342 101.878 119.236 101.878C119.124 101.877 119.033 101.839 118.963 101.762C118.892 101.686 118.857 101.559 118.858 101.383L118.861 99.574L113.188 99.5632L113.18 103.419L115.836 103.424L115.838 102.586C115.838 102.409 115.874 102.283 115.944 102.207C116.015 102.13 116.106 102.092 116.218 102.092C116.324 102.093 116.412 102.131 116.482 102.208C116.553 102.284 116.588 102.411 116.588 102.587L116.583 105.005C116.583 105.181 116.547 105.308 116.476 105.384C116.406 105.46 116.317 105.498 116.212 105.498C116.1 105.498 116.009 105.46 115.938 105.383C115.868 105.306 115.833 105.18 115.833 105.003L115.835 104.165L113.179 104.16ZM127.646 104.188L127.637 108.432L130.179 108.437C130.355 108.437 130.481 108.472 130.558 108.543C130.634 108.608 130.672 108.696 130.672 108.808C130.672 108.914 130.633 109.002 130.557 109.073C130.48 109.143 130.354 109.178 130.177 109.178L125.898 109.17C125.721 109.169 125.595 109.134 125.519 109.063C125.442 108.992 125.404 108.904 125.404 108.798C125.405 108.686 125.443 108.598 125.52 108.534C125.596 108.463 125.723 108.428 125.899 108.428L126.896 108.43L126.913 99.5894L125.916 99.5875C125.74 99.5871 125.613 99.5545 125.537 99.4897C125.461 99.4189 125.422 99.3277 125.423 99.2159C125.423 99.1042 125.467 99.0101 125.556 98.9338C125.62 98.8751 125.741 98.846 125.918 98.8463L134.079 98.8619L134.074 101.412C134.074 101.588 134.038 101.715 133.968 101.791C133.897 101.867 133.809 101.905 133.703 101.905C133.591 101.905 133.5 101.867 133.429 101.79C133.359 101.713 133.324 101.587 133.324 101.41L133.328 99.6016L127.654 99.5908L127.647 103.447L130.303 103.452L130.304 102.613C130.305 102.437 130.34 102.311 130.411 102.234C130.482 102.158 130.573 102.12 130.685 102.12C130.791 102.12 130.879 102.159 130.949 102.235C131.02 102.312 131.055 102.438 131.054 102.615L131.05 105.032C131.049 105.209 131.014 105.335 130.943 105.412C130.872 105.488 130.784 105.526 130.678 105.526C130.566 105.526 130.475 105.487 130.405 105.411C130.334 105.334 130.299 105.207 130.3 105.031L130.301 104.193L127.646 104.188ZM145.422 103.463C146.039 103.764 146.503 104.162 146.814 104.657C147.131 105.145 147.289 105.672 147.288 106.237C147.286 107.113 146.955 107.872 146.295 108.511C145.635 109.151 144.835 109.47 143.893 109.469C142.952 109.467 142.153 109.145 141.495 108.502C140.838 107.86 140.51 107.1 140.511 106.224C140.512 105.665 140.669 105.142 140.982 104.654C141.301 104.161 141.772 103.762 142.396 103.457C141.855 103.144 141.462 102.82 141.216 102.484C140.875 102.007 140.706 101.48 140.707 100.904C140.708 100.092 141.021 99.3839 141.646 98.7792C142.277 98.1687 143.033 97.8642 143.915 97.8659C144.804 97.8676 145.559 98.1749 146.181 98.7879C146.804 99.3949 147.114 100.104 147.113 100.916C147.111 101.493 146.94 102.016 146.598 102.486C146.356 102.826 145.964 103.152 145.422 103.463ZM146.354 100.941C146.355 100.306 146.118 99.7613 145.642 99.3074C145.172 98.8477 144.593 98.6172 143.905 98.6159C143.223 98.6146 142.643 98.8429 142.166 99.3008C141.694 99.7587 141.458 100.299 141.457 100.923C141.456 101.499 141.687 102.006 142.151 102.442C142.621 102.872 143.203 103.088 143.897 103.089C144.597 103.091 145.179 102.877 145.645 102.449C146.116 102.014 146.353 101.512 146.354 100.941ZM146.546 106.253C146.548 105.6 146.296 105.032 145.791 104.549C145.286 104.065 144.657 103.823 143.904 103.822C143.151 103.82 142.521 104.06 142.015 104.542C141.508 105.023 141.254 105.587 141.253 106.234C141.251 106.905 141.503 107.488 142.008 107.983C142.519 108.478 143.148 108.726 143.895 108.727C144.642 108.729 145.269 108.483 145.776 107.99C146.288 107.497 146.545 106.918 146.546 106.253ZM155.168 108.484L160.859 108.495L160.86 108.204C160.86 108.027 160.895 107.901 160.966 107.825C161.037 107.748 161.128 107.71 161.24 107.711C161.346 107.711 161.434 107.749 161.504 107.826C161.575 107.902 161.61 108.029 161.61 108.205L161.608 109.238L154.443 109.224L154.445 108.13C155.954 106.78 157.421 105.406 158.847 104.009C159.513 103.357 159.97 102.879 160.217 102.573C160.465 102.268 160.633 102.001 160.722 101.771C160.816 101.536 160.864 101.301 160.864 101.066C160.866 100.431 160.611 99.8683 160.1 99.3791C159.589 98.8899 158.972 98.6446 158.248 98.6432C157.601 98.642 157.027 98.8262 156.527 99.1958C156.026 99.5655 155.702 100.024 155.554 100.57C155.518 100.712 155.474 100.803 155.421 100.844C155.35 100.902 155.268 100.932 155.174 100.931C155.074 100.931 154.988 100.899 154.918 100.834C154.853 100.763 154.821 100.681 154.821 100.587C154.822 100.304 154.975 99.9223 155.282 99.4405C155.595 98.9588 156.022 98.5802 156.564 98.3047C157.111 98.0293 157.67 97.8922 158.241 97.8932C159.165 97.895 159.958 98.2171 160.621 98.8595C161.285 99.502 161.616 100.229 161.614 101.041C161.614 101.382 161.557 101.697 161.445 101.985C161.333 102.267 161.141 102.578 160.87 102.919C160.604 103.254 160.124 103.761 159.428 104.442C157.684 106.157 156.264 107.486 155.168 108.431L155.168 108.484ZM176.237 102.816L176.233 104.651C176.23 106.245 175.848 107.506 175.088 108.434C174.492 109.162 173.741 109.526 172.836 109.524C172.4 109.523 171.989 109.434 171.601 109.257C171.219 109.085 170.893 108.844 170.623 108.531C170.453 108.337 170.265 108.025 170.06 107.595C169.861 107.165 169.717 106.771 169.63 106.412C169.496 105.906 169.429 105.314 169.43 104.638L169.434 102.803C169.437 101.203 169.819 99.9388 170.579 99.0109C171.175 98.2826 171.925 97.9193 172.831 97.9211C173.272 97.9219 173.684 98.0109 174.066 98.1881C174.448 98.3594 174.774 98.6012 175.044 98.9135C175.22 99.1138 175.408 99.4289 175.607 99.8587C175.806 100.288 175.952 100.68 176.046 101.033C176.174 101.539 176.238 102.133 176.237 102.816ZM175.495 102.911C175.497 102.211 175.398 101.561 175.199 100.961C175.006 100.355 174.786 99.8718 174.54 99.5125C174.393 99.3064 174.202 99.1295 173.967 98.982C173.633 98.7755 173.256 98.6719 172.839 98.6711C172.009 98.6695 171.358 99.0918 170.886 99.9379C170.414 100.784 170.177 101.772 170.175 102.901L170.172 104.534C170.17 105.233 170.266 105.887 170.459 106.493C170.658 107.099 170.883 107.582 171.136 107.941C171.276 108.141 171.464 108.315 171.699 108.463C172.034 108.675 172.413 108.782 172.837 108.783C173.661 108.784 174.308 108.362 174.781 107.516C175.253 106.664 175.49 105.673 175.492 104.544L175.495 102.911ZM190.703 102.843L190.7 104.679C190.697 106.273 190.315 107.534 189.554 108.462C188.959 109.19 188.208 109.553 187.302 109.551C186.867 109.551 186.455 109.462 186.068 109.284C185.686 109.113 185.36 108.871 185.09 108.559C184.919 108.364 184.732 108.052 184.527 107.623C184.327 107.193 184.184 106.798 184.097 106.439C183.962 105.933 183.896 105.342 183.897 104.666L183.9 102.83C183.904 101.23 184.285 99.9664 185.046 99.0385C185.641 98.3102 186.392 97.9469 187.298 97.9487C187.739 97.9495 188.151 98.0385 188.533 98.2157C188.915 98.387 189.241 98.6288 189.511 98.9411C189.687 99.1414 189.874 99.4565 190.074 99.8863C190.273 100.316 190.419 100.707 190.513 101.061C190.641 101.567 190.705 102.161 190.703 102.843ZM189.962 102.939C189.963 102.239 189.864 101.589 189.666 100.988C189.473 100.382 189.253 99.8994 189.007 99.5401C188.86 99.334 188.669 99.1571 188.434 99.0096C188.099 98.8031 187.723 98.6994 187.305 98.6986C186.476 98.6971 185.825 99.1193 185.353 99.9655C184.881 100.812 184.644 101.799 184.641 102.929L184.638 104.561C184.637 105.261 184.733 105.914 184.926 106.52C185.125 107.127 185.35 107.609 185.602 107.969C185.743 108.169 185.931 108.343 186.166 108.49C186.501 108.703 186.88 108.809 187.304 108.81C188.127 108.812 188.775 108.389 189.247 107.543C189.719 106.691 189.957 105.701 189.959 104.571L189.962 102.939Z" fill="#3435FF"/>
</g>
<line x1="5.47095" y1="69.4682" x2="414.928" y2="70.2489" stroke="#3435FF" stroke-width="0.903509" stroke-dasharray="7.23 7.23"/>
</svg>
