<svg width="57" height="115" viewBox="0 0 57 115" fill="none" xmlns="http://www.w3.org/2000/svg">
<path d="M18.251 34.6863C16.7196 28.0847 18.2693 20.9815 22.2399 15.3282C26.1004 9.83903 32.6843 6.34674 39.2591 5.78141C43.3397 5.43491 47.136 5.99113 50.9415 7.54123L48.9241 4.90605L50.5288 20.3159L54.0134 17.6807C48.8324 15.5288 42.1843 16.2218 38.122 20.2885C34.4083 24.0088 33.2895 30.3095 36.2697 34.7866C36.9758 35.8534 38.1312 36.3184 39.3783 36.0449C42.1659 35.434 44.9811 34.9781 47.8237 34.7227C48.5573 34.6589 49.2909 34.5951 50.0337 34.5586C50.3088 34.5495 50.6297 34.5951 50.8956 34.5495C51.079 34.5313 51.1249 34.5495 51.0332 34.5677C50.7673 34.6863 50.538 34.5221 50.3546 34.0753L50.3363 33.975C50.4096 34.2942 50.428 34.3854 50.4096 34.2304C50.4096 34.1756 50.4188 34.7774 50.4188 34.8413C50.4188 35.5525 50.3821 36.2637 50.3638 36.9658C50.1896 42.993 50.0062 49.011 49.8319 55.0382L52.5829 52.3027L37.2968 51.5368C35.7746 51.4639 34.5917 52.8498 34.5458 54.2723C33.9039 72.7094 34.069 91.1647 35.0593 109.584L37.8103 106.848L15.5367 109.009L18.2877 111.745C17.9575 94.2558 18.0401 76.7579 18.5444 59.2782C18.5903 57.8375 17.2515 56.488 15.7935 56.5427L9.0903 56.7798C8.55845 56.798 7.9349 56.7251 7.41222 56.8345C6.66946 56.9895 7.1463 56.7068 7.18297 56.9257C7.32969 57.026 7.43973 57.1445 7.51309 57.2995C7.43973 56.953 7.42139 56.8619 7.4489 57.0351C7.38471 56.4698 7.36637 55.9044 7.32969 55.3391L6.44939 42.1724C6.33935 40.5311 6.15595 38.7348 6.54109 37.4856C6.50441 37.595 6.95373 37.1482 6.54109 37.44C6.67863 37.3488 6.82535 37.2667 6.97207 37.1938C6.69697 37.3123 6.71531 37.3214 7.01792 37.212C7.33886 37.1482 7.34803 37.1391 7.04543 37.1756C7.21965 37.1573 7.40305 37.1482 7.57728 37.1391C7.85237 37.13 8.12747 37.1391 8.40256 37.1391C11.7129 37.2576 14.7481 37.8959 17.5174 35.5707C18.6545 34.6133 18.5077 32.6894 17.5174 31.7046C16.3895 30.5831 14.7664 30.7472 13.6294 31.7046C13.932 31.4493 13.4551 31.7958 13.3268 31.8505C13.7761 31.6499 13.0242 31.887 12.8774 31.9143C12.5565 31.9781 12.8958 31.9052 12.9508 31.9052C12.8133 31.9052 12.6757 31.9234 12.5382 31.9234C12.2081 31.9234 11.8871 31.9234 11.557 31.9052C10.2732 31.8414 8.9986 31.6225 7.71483 31.6499C4.2853 31.7411 1.45182 33.7197 0.929139 37.2303C0.663213 39.0266 0.86495 40.8137 0.984158 42.61L1.3968 48.7375L1.7911 54.637C1.91948 56.5062 1.81861 58.6308 2.919 60.2447C4.31281 62.2781 6.64195 62.3237 8.87023 62.2416L15.8026 61.9954L13.0517 59.26C12.5473 76.7396 12.4648 94.2376 12.7949 111.726C12.8224 113.094 14.042 114.608 15.5459 114.462L37.8194 112.301C39.2408 112.164 40.6529 111.161 40.5704 109.565C39.58 91.1465 39.4058 72.6911 40.0569 54.254L37.3059 56.9895L52.5921 57.7554C54.1051 57.8284 55.2972 56.4424 55.343 55.02L55.6548 44.4063L55.8107 39.2089C55.8565 37.5403 56.0308 35.8352 55.9207 34.1756C55.8107 32.5161 55.1596 30.7198 53.5824 29.7806C52.0877 28.8962 50.3821 29.0329 48.7316 29.1606C45.1095 29.4433 41.4965 29.9812 37.9386 30.7563L41.0472 32.0146C40.497 31.1849 40.3503 30.884 40.1577 29.9083C40.1394 29.8171 40.0936 29.4524 40.1211 29.7442C40.0936 29.498 40.0844 29.2427 40.0844 28.9874C40.0844 28.7868 40.0844 28.5862 40.1027 28.3856C40.1027 28.2761 40.1853 27.7108 40.1302 28.0573C40.4145 26.3339 41.0472 25.0756 42.2668 23.9358C45.0361 21.3463 49.2542 21.5651 52.5829 22.9511C54.1418 23.5985 56.2325 21.9481 56.0674 20.3159L54.4627 4.90605C54.3252 3.55655 53.6741 2.77238 52.4453 2.27088C44.6143 -0.902275 35.5453 -0.282233 28.0535 3.40154C20.5618 7.08532 15.1424 14.1793 13.0975 22.1851C11.933 26.7625 11.8688 31.5496 12.9416 36.1452C13.2809 37.5859 14.9315 38.4339 16.3253 38.06C17.8108 37.6588 18.5811 36.1361 18.251 34.6954V34.6863Z" fill="#FF8200"/>
</svg>
