<svg width="980" height="393" viewBox="0 0 980 393" fill="none" xmlns="http://www.w3.org/2000/svg">
<path d="M972.151 64.7291L976.767 321.071C977.06 337.319 976.964 354.876 967.447 367.965C953.89 386.617 927.533 388.481 904.66 388.649C695.116 390.17 485.545 391.686 276.019 388.196C235.206 387.516 194.396 386.644 153.587 385.777L55.672 383.689C49.3532 383.557 42.8026 383.365 37.1327 380.543C23.6685 373.848 20.7834 356.06 19.5899 340.926C14.1903 272.57 8.79078 204.213 3.39119 135.861C0.347679 97.3106 -0.54459 52.8588 27.697 26.8044C50.6046 5.66703 84.744 4.50226 115.747 4.50617C277.622 4.514 439.498 4.51795 601.373 4.52578L883.247 4.53752C906.364 4.53752 930.758 4.87755 950.626 16.8377C970.494 28.7978 982.9 56.7635 970.32 76.3883" fill="#3435FF"/>
<path d="M974.333 75.0294C973.866 75.9791 973.503 76.5732 973.306 76.9954C973.105 77.4136 973.04 77.6403 973.032 77.7732C973.02 78.0389 973.256 77.9256 973.128 78.2266C973.576 77.4488 973.928 76.8195 974.198 76.3075C974.461 75.7915 974.615 75.3811 974.735 75.0841C974.967 74.4861 974.978 74.2907 974.901 74.2907C974.747 74.2946 974.233 75.0763 974.33 75.0294L974.333 75.0294Z" fill="#3435FF"/>
<path d="M953.554 16.6462L954.624 17.1504L953.593 16.5016C953.245 16.2905 952.886 16.099 952.534 15.8957L951.476 15.2977L950.398 14.7662C948.958 14.0665 947.548 13.3122 946.057 12.7376L947.019 13.1598L947.502 13.3708L947.969 13.6093L949.842 14.5707C950.464 14.8991 951.098 15.2 951.715 15.5518C952.326 15.9153 952.948 16.2671 953.554 16.6423L953.554 16.6462Z" fill="#3435FF"/>
<path d="M895.719 2.884C898.523 3.37647 903.907 3.45074 909.932 3.84159C911.439 3.96276 912.984 4.05265 914.536 4.20117C915.313 4.28325 916.089 4.36533 916.865 4.4435C917.642 4.52558 918.418 4.59985 919.183 4.72102C922.253 5.13141 925.224 5.6747 927.823 6.33134L929.499 6.92542C931.125 7.05049 932.732 7.30846 934.358 7.53906C928.047 5.69814 920.612 4.47476 913.667 3.86893C906.715 3.25529 900.253 3.10287 895.719 2.884Z" fill="#3435FF"/>
<path d="M864.098 0.973901C866.048 1.29831 857.265 1.25141 871.463 1.07553C870.749 1.04035 870.544 1.0208 870.131 0.993439C868.852 0.997348 867.095 0.993444 864.098 0.973901Z" fill="#3435FF"/>
<path d="M870.131 0.992187C876.369 0.968847 866.048 0.719874 870.131 0.992187V0.992187Z" fill="#3435FF"/>
<path d="M841.318 1.17577L849.533 0.886547C847.818 0.695028 840.503 0.652025 843.218 0.511318C834.786 0.671567 836.521 0.863094 841.314 1.17969L841.318 1.17577Z" fill="#3435FF"/>
<path d="M833.527 1.78711L837.788 1.66597C837.042 1.58391 835.914 1.55655 833.527 1.78711Z" fill="#3435FF"/>
<path d="M846.818 1.40314L837.788 1.66112C838.977 1.79792 839.105 2.06761 841.932 1.56732C841.194 1.81356 842.979 1.57512 846.818 1.40314Z" fill="#3435FF"/>
<path d="M851.932 1.53286C856.543 1.71656 862.495 1.82991 854.249 2.11914C869.969 2.00579 867.651 1.4156 851.932 1.53286Z" fill="#3435FF"/>
<path d="M892.668 3.69703C894.726 3.81038 896.781 3.92374 898.836 4.07617C900.62 4.02145 902.405 4.02146 904.189 4.00973C903.521 4.00973 902.443 3.96673 901.207 3.90028C899.972 3.84556 898.581 3.77913 897.283 3.7205C894.688 3.61107 892.479 3.56805 892.668 3.69703Z" fill="#3435FF"/>
<path d="M790.13 0.741755C789.616 0.921548 792.892 1.21471 793.506 1.44531L799.577 1.24206C796.456 1.1209 790.543 1.00754 790.13 0.745667L790.13 0.741755Z" fill="#3435FF"/>
<path d="M793.506 1.44572L784.425 1.75057C792.536 1.78575 794.019 1.64114 793.506 1.44572Z" fill="#3435FF"/>
<path d="M832.064 2.71681L846.98 2.0758L829.186 2.72461L832.064 2.71681Z" fill="#3435FF"/>
<path d="M755.446 0.718611L760.595 0.304306L751.421 0.929687L755.446 0.718611Z" fill="#3435FF"/>
<path d="M732.438 0.789062C736.246 0.44902 727.216 0.21059 731.241 -0.00047072C724.991 0.0620654 719.654 0.351304 714.849 0.617084C719.955 0.46856 725.397 0.507647 732.434 0.789062L732.438 0.789062Z" fill="#3435FF"/>
<path d="M706.784 1.00195C709.333 0.919873 711.975 0.775265 714.853 0.618924C712.141 0.697094 709.472 0.810434 706.784 1.00195Z" fill="#3435FF"/>
<path d="M768.957 1.66211C768.254 1.55267 766.902 1.27126 761.811 1.154L765.384 1.65428C766.473 1.65428 767.709 1.6582 768.96 1.66211L768.957 1.66211Z" fill="#3435FF"/>
<path d="M765.504 1.66992L765.376 1.65451C761.498 1.6391 758.81 1.6314 757.659 1.62755C758.648 1.6314 761.008 1.64682 765.5 1.66992L765.504 1.66992Z" fill="#3435FF"/>
<path d="M769.856 1.66157C769.524 1.66157 769.281 1.66157 768.957 1.66157C769.3 1.71163 769.509 1.72703 769.856 1.66157Z" fill="#3435FF"/>
<path d="M808.256 2.26307C802.918 2.54449 791.795 2.84154 802.559 3.27148C806.387 2.92753 800.226 2.6852 808.256 2.26307Z" fill="#3435FF"/>
<path d="M774.29 2.29096L783.935 2.4043C783.745 2.27141 782.007 2.07989 784.649 1.93918L774.29 2.28704L774.29 2.29096Z" fill="#3435FF"/>
<path d="M769.567 2.45117L774.29 2.29091L770.714 2.24792L769.567 2.45117Z" fill="#3435FF"/>
<path d="M723.307 1.47438C719.14 1.69326 714.582 1.70887 709.434 1.74404C714.953 1.84176 720.658 1.89648 726.077 1.89648C726.841 1.74014 729.221 1.45875 723.307 1.47438Z" fill="#3435FF"/>
<path d="M743.813 1.61157C743.527 1.61933 743.156 1.63097 742.886 1.63872C743.453 1.68139 743.913 1.69302 743.813 1.61157Z" fill="#3435FF"/>
<path d="M658.748 1.74015C659.03 1.77143 659.273 1.7988 659.563 1.83008C659.629 1.80271 659.671 1.77141 659.752 1.74404L658.748 1.74404L658.748 1.74015Z" fill="#3435FF"/>
<path d="M727.004 1.98496C731.152 2.08267 733.631 1.95759 735.991 1.80516C732.89 1.85597 729.603 1.88722 726.077 1.89113C725.733 1.96148 725.667 2.00841 727.004 1.98496Z" fill="#3435FF"/>
<path d="M692.644 1.23616C694.803 1.34169 697.256 1.43159 699.828 1.51367C697.715 1.35342 693.409 1.10717 692.644 1.23616Z" fill="#3435FF"/>
<path d="M741.491 1.50195C741.7 1.49413 741.885 1.48631 742.113 1.47849C740.754 1.37292 740.924 1.42375 741.491 1.50195Z" fill="#3435FF"/>
<path d="M741.491 1.50176C739.355 1.57602 737.679 1.6972 735.995 1.80664C738.521 1.76755 740.862 1.71284 742.889 1.63858C742.376 1.6034 741.862 1.54867 741.491 1.50176Z" fill="#3435FF"/>
<path d="M643.391 4.95117C644.121 4.48605 655.029 4.06002 664.441 4.5564C673.703 4.20855 667.647 2.68031 659.563 1.82825C659.277 2.03149 659.277 2.21911 649.741 2.49271C653.078 2.74676 670.891 3.08679 662.85 3.50501C650.224 3.74343 652.503 3.34085 646.365 3.09461C651.583 3.67308 630.302 3.93495 633.052 4.78702L644.125 4.48605C644.334 4.61894 640.317 4.83 643.395 4.95117L643.391 4.95117Z" fill="#3435FF"/>
<path d="M677.724 1.87695L681.648 1.81831C677.175 1.73623 673.973 1.55253 668.083 1.18904C661.556 1.41573 660.204 1.5877 659.752 1.74404L679.068 1.81051L677.728 1.88086L677.724 1.87695Z" fill="#3435FF"/>
<path d="M699.256 1.8176C696.194 2.3218 686.773 2.53679 692.544 3.08398C704.054 3.04881 700.608 2.66186 707.487 2.44298C688.909 2.56805 712.825 2.16156 699.399 1.87623C703.049 1.79025 706.332 1.76288 709.434 1.74333C706.089 1.6808 702.864 1.60655 699.828 1.51274C699.998 1.52447 700.114 1.53229 700.253 1.54402L700.342 1.54402C700.342 1.54402 700.322 1.544 700.322 1.55182C701.122 1.61435 701.388 1.65346 700.485 1.61828C700.423 1.62219 700.199 1.62608 700.098 1.62999C699.971 1.70035 699.627 1.75897 699.26 1.82151C693.88 1.71598 698.414 1.69253 700.098 1.62999C700.16 1.60263 700.307 1.57918 700.322 1.55573L700.253 1.54791L681.648 1.82542C685.588 1.89577 690.516 1.88014 699.26 1.82542L699.256 1.8176Z" fill="#3435FF"/>
<path d="M792.637 4.35352C792.061 4.31072 792.084 4.2718 792.042 4.23679C790.837 4.29903 790.381 4.34184 792.637 4.35352Z" fill="#3435FF"/>
<path d="M784.981 4.04872C786.337 3.97837 787.461 3.77513 791.86 3.82985C795.676 3.98228 791.841 4.07217 792.042 4.23633C794.691 4.10344 801.319 3.87284 793.007 3.6266L791.69 3.69695C784.201 3.52497 774.572 2.89179 775.882 2.82144C778.068 3.27874 779.995 3.59924 784.981 4.04872Z" fill="#3435FF"/>
<path d="M741.584 3.06405L726.088 3.31029L733.979 3.74805L733.577 3.48618C742.391 3.5878 740.487 3.2673 741.58 3.06405L741.584 3.06405Z" fill="#3435FF"/>
<path d="M656.975 1.48619L659.03 0.954639L650.081 1.70898L656.975 1.48619Z" fill="#3435FF"/>
<path d="M636.841 1.54883L637.582 1.08762L632.268 1.36514L636.841 1.54883Z" fill="#3435FF"/>
<path d="M196.327 383.834L200.881 383.792C198.726 383.792 197.339 383.807 196.327 383.834Z" fill="#3435FF"/>
<path d="M163.374 383.15L162.563 383.361C164.092 383.264 164.718 383.185 163.374 383.15Z" fill="#3435FF"/>
<path d="M142.297 1.58398C135.665 1.15014 128.257 0.47787 129.057 1.00161L131.092 1.50972C135.727 1.41982 139.277 1.47454 142.297 1.58398Z" fill="#3435FF"/>
<path d="M11.8459 241.469C11.8459 240.828 11.8459 240.163 11.8459 239.499C11.5447 237.889 11.2628 236.372 11.0117 235.02C11.2628 236.958 11.5485 239.159 11.8498 241.469L11.8459 241.469Z" fill="#3435FF"/>
<path d="M14.2908 246.024L14.6654 254.869C14.6229 252.876 14.5071 250.034 14.2908 246.024Z" fill="#3435FF"/>
<path d="M376.306 386.168L381.62 385.703C373.312 385.625 376.966 385.922 376.306 386.168Z" fill="#3435FF"/>
<path d="M430.602 1.72746C424.878 1.52813 420.325 1.44605 416.323 1.41869C423.218 1.71184 428.779 2.14958 430.602 1.72746Z" fill="#3435FF"/>
<path d="M183.253 388.975C186.042 388.936 187.232 388.857 187.154 388.744C184.285 388.775 182.662 388.838 183.253 388.975Z" fill="#3435FF"/>
<path d="M399.796 1.4218C400.805 1.46089 401.793 1.49997 402.821 1.54297C407.004 1.45698 411.214 1.39054 416.323 1.4218C411.233 1.20683 405.401 1.07004 399.796 1.4218Z" fill="#3435FF"/>
<path d="M973.758 313.191C973.77 312.711 973.773 312.132 973.793 311.694C973.723 311.55 973.731 312.214 973.758 313.191Z" fill="#3435FF"/>
<path d="M975.361 120.646C975.426 122.541 975.484 125.633 975.542 128.545C975.55 127.126 975.504 124.742 975.361 120.646Z" fill="#3435FF"/>
<path d="M555.82 1.32422C560.092 1.29357 556.496 1.27058 555.82 1.32422V1.32422Z" fill="#3435FF"/>
<path d="M576.588 3.33774C575.68 3.39246 574.989 3.46673 574.881 3.58398C575.232 3.46282 575.827 3.38465 576.588 3.33774Z" fill="#3435FF"/>
<path d="M357.256 4.58943C357.129 4.58943 357.032 4.58943 356.886 4.58943C358.156 4.6906 357.936 4.67114 357.256 4.58943Z" fill="#3435FF"/>
<path d="M562.243 1.55469C560.64 1.49216 558.794 1.44136 556.782 1.40228C557.662 1.44136 559.323 1.49216 562.243 1.55469Z" fill="#3435FF"/>
<path d="M561.382 1.31245C562.853 1.332 564.012 1.34764 565.113 1.36328C565.65 1.27726 565.175 1.22643 561.382 1.31245Z" fill="#3435FF"/>
<path d="M549.868 1.35346C552.309 1.34564 554.588 1.3691 556.782 1.4082C555.944 1.37301 555.592 1.34566 555.816 1.32611C554.565 1.33002 552.796 1.34173 549.868 1.35346Z" fill="#3435FF"/>
<path d="M679.342 388.506C679.624 388.518 679.949 388.533 680.257 388.549C684.564 388.318 682.671 388.361 679.342 388.506Z" fill="#3435FF"/>
<path d="M35.5492 23.459C35.6999 23.3378 35.7771 23.2674 35.92 23.1658C35.7539 23.2674 35.5569 23.4081 35.4102 23.5059L35.5454 23.459L35.5492 23.459Z" fill="#3435FF"/>
<path d="M24.8119 33.6562C26.6928 31.1079 28.3653 29.2396 30.057 27.6879C30.4818 27.3009 30.899 26.9218 31.3161 26.5583C31.7526 26.2105 32.1851 25.8665 32.6215 25.5226C33.4828 24.819 34.4291 24.2015 35.4063 23.5097L32.9884 24.393L30.5899 25.3897C30.0492 26.0502 29.5356 26.7303 29.0103 27.3948L28.6241 27.8951L28.2571 28.4149L27.5271 29.4506C26.5306 30.7991 25.6847 32.2648 24.8041 33.6602L24.8119 33.6562Z" fill="#3435FF"/>
<path d="M275.231 385.246L264.471 384.573C277.479 384.096 286.88 384.468 276.78 383.678C275.231 385.246 234.924 383.014 233.398 384.577L226.307 384.1C228.339 384.155 228.667 384.069 230.679 384.124C216.887 383.088 220.401 385.07 202.619 384.495C196.424 384.249 192.102 383.932 196.331 383.827L182.512 383.948C178.495 383.838 179.48 383.58 183.481 383.69L162.408 383.401L162.566 383.358C159.554 383.545 152.737 383.803 149.407 383.889C144.058 383.545 152.096 383.776 150.732 383.549L139.056 383.686C134.313 383.17 143.989 382.979 152.049 383.209C141.188 381.388 142.362 383.405 118.868 381.974L129.887 382.009C122.804 380.954 114.198 381.099 101.758 380.27C104.705 380.626 126.662 382.22 113.993 382.345C110.429 382.15 105.724 381.994 98.8878 382.166C98.8337 381.599 92.1634 381.595 83.8169 381.45L84.4001 380.712C75.3738 380.735 76.0767 381.134 70.7621 381.357C60.7084 381.067 58.6343 380.442 56.2783 379.903C54.2969 379.852 52.9838 379.817 52.1611 379.797C51.3577 379.777 51.037 379.797 51.0293 379.836C51.0139 379.918 52.2538 380.106 53.4318 380.274C54.6098 380.438 55.7183 380.602 55.3359 380.712C55.1467 380.766 54.5827 380.805 53.4858 380.817C52.3966 380.817 50.7629 380.817 48.4957 380.637C45.3247 380.282 42.5206 379.699 40.0294 378.726C37.5497 377.761 35.3405 376.361 33.359 374.56C29.4194 370.909 26.403 365.511 24.3134 357.972C23.8345 355.732 23.7186 354.681 23.707 354.345C23.6993 354.008 23.8268 354.376 23.9891 354.923C24.3173 356.017 24.8425 357.796 24.5799 356.185C23.8113 353.602 23.1741 350.94 22.6334 348.239C22.4016 346.234 22.6642 346.86 22.7917 347.176C22.2857 343.737 22.1196 343.6 21.8724 342.979C21.6291 342.353 21.3587 341.231 20.8218 335.681C19.7713 332.754 20.2116 312.785 18.1993 299.113C18.1414 295.709 18.7825 300.712 18.9872 299.652C16.89 280.841 17.2685 283.518 15.2292 268.099L14.673 254.868C14.8854 264.608 13.2478 252.273 11.8535 241.47C11.8535 244.929 11.8535 247.888 11.8999 249.869L10.1347 232.59C10.0922 230.487 10.4824 232.214 11.0154 235.025C10.857 233.848 10.7064 232.734 10.5866 231.867C10.3703 225.656 11.0502 228.83 11.8149 233.231C11.8265 235.353 11.838 237.46 11.8496 239.504C12.6375 243.741 13.4487 247.704 13.8117 246.778C13.6379 245.66 13.3946 243.498 13.1629 241.118C13.3714 242.224 13.5374 242.932 13.5722 242.408C13.6031 241.814 13.298 240.02 12.8848 237.206L13.3984 233.203L12.9967 232.273L11.7222 209.584C9.61336 193.446 7.28047 179.449 4.90895 153.754C6.01747 160.086 6.00203 155.048 6.74745 155.333C6.54274 162.412 8.64388 175.228 9.54378 188.572C9.07259 181.61 9.53615 183.111 9.79494 184.87L7.2264 161.153C7.85597 161.642 7.26497 156.068 7.01778 149.838C6.62386 152.23 6.08315 147.817 5.4999 141.599C5.21022 138.488 4.90126 134.927 4.61928 131.55C4.34121 128.169 4.09017 124.964 3.87002 122.556C4.24856 121.939 4.66952 124.221 5.4883 135.998C5.41494 129.467 4.80471 125.308 4.2253 121.161C3.6614 117.018 3.09756 112.879 3.39883 106.496C3.41811 107.934 3.4374 109.041 3.449 109.928C3.48373 110.815 3.53786 111.487 3.64986 112.054C3.37173 108.701 3.29452 102.912 3.48763 98.4602C3.54171 97.3462 3.59579 96.3183 3.64986 95.4311C3.70779 94.5438 3.78506 93.7973 3.84298 93.2501C3.96658 92.1557 4.06319 91.8626 4.09792 92.828C4.05929 93.7778 3.99752 94.7275 3.97433 95.6812C4.02065 94.493 4.10568 93.2306 4.17519 91.9056C4.2524 90.5806 4.37215 89.193 4.47256 87.7547C4.73519 84.8858 5.02487 81.8176 5.47671 78.6829C5.89388 75.5444 6.46548 72.3394 7.12594 69.1774C7.29977 68.3879 7.4736 67.6023 7.64743 66.8166C7.8251 66.0349 8.0375 65.261 8.22677 64.4911C8.59371 62.9394 9.06875 61.4463 9.48202 59.961C11.2742 54.067 13.5027 48.8686 15.4378 45.046C15.8974 44.0767 16.3802 43.2169 16.8012 42.4351C17.226 41.6534 17.5775 40.9421 17.9251 40.3597C18.5971 39.1793 19.0143 38.3624 19.107 37.995C19.2113 37.9559 19.107 38.6439 18.9293 39.4647C18.7555 40.2893 18.4814 41.2274 18.2766 41.7629C20.737 36.8029 23.8539 32.1205 27.5463 27.8406C29.4002 25.7144 31.3816 23.6585 33.5329 21.7824C35.6727 19.8907 37.9245 18.0967 40.3075 16.4746C39.1991 17.5924 41.4121 17.1664 42.173 17.526C42.5631 17.7097 42.5785 18.0459 41.6979 18.8627C41.4777 19.066 41.1997 19.2966 40.856 19.5584C40.5122 19.8164 40.1066 20.1174 39.6354 20.4691C39.1642 20.8209 38.6234 21.2118 37.9978 21.6417C37.3914 22.099 36.7039 22.6071 35.9315 23.166C36.3949 22.8729 36.87 22.568 37.3643 22.2553C37.6115 22.099 37.8626 21.9388 38.1175 21.7746C38.3802 21.6222 38.6467 21.4658 38.9209 21.3056C39.4694 20.989 40.0294 20.6411 40.6319 20.2972C41.2383 19.961 41.8756 19.6132 42.5438 19.2419C45.2397 17.8035 48.5266 16.1737 52.8293 14.4148C52.1186 14.6571 51.2998 14.876 50.5235 15.0402C49.751 15.2043 49.0402 15.3646 48.5227 15.4115C47.4953 15.5209 47.2829 15.2864 49.1871 14.4344C49.863 14.1998 50.5041 14.0318 51.0835 13.8559C51.6667 13.6878 52.1958 13.5197 52.6902 13.3869C53.6789 13.1211 54.5094 12.9022 55.2317 12.7068C56.6916 12.3628 57.719 12.0697 58.8468 11.8235C59.4069 11.6906 59.9901 11.5537 60.6505 11.3974C61.3188 11.2606 62.068 11.1043 62.9602 10.9167C63.8524 10.7291 64.903 10.5649 66.1505 10.3421C67.4096 10.1584 68.8658 9.91608 70.6116 9.72065C69.4876 9.87699 68.9353 9.85746 68.8581 9.72065C68.7769 9.57996 69.1632 9.31806 69.9202 9.00538C71.4265 8.36048 74.4276 7.52405 78.035 7.08631C76.9381 7.42634 78.7882 8.30967 76.2004 8.80997C79.1242 8.17679 82.0827 7.62568 85.0567 7.15275C88.0308 6.672 91.0202 6.24988 94.0251 5.8903C89.5293 6.36713 93.2913 7.02378 97.3275 7.23875C96.3889 7.14884 100.278 6.98469 105.021 6.93388C109.764 6.87525 115.353 6.91822 117.779 6.85178L110.093 6.56257C130.575 6.72672 130.343 4.69819 150.678 4.76072C148.214 5.03431 144.595 6.43751 154.942 6.60167C159.681 5.92549 175.938 3.35365 193.937 2.83382L197.389 3.22075L211.197 2.78301C202.6 3.79924 178.464 5.93721 165.286 6.76973C172.96 7.0746 167.421 7.227 178.916 7.19182C182.975 7.55531 172.651 7.73903 169.272 7.76249L196.03 7.99699C194.84 7.20747 216.493 7.20748 215.469 6.55086L186.409 7.36772C185.231 6.58211 203.214 5.13204 222.17 5.26885C226.994 5.58153 218.563 6.67201 218.957 6.93389C221.417 6.6642 236.952 6.41405 238.694 6.60946L230.652 7.0316C241.208 7.32863 247.874 5.98803 260.558 6.73846C264.934 6.78927 273.629 7.75466 274.386 7.28954C267.248 6.39059 265.85 3.60772 270.608 2.93154C272.142 2.99407 293.593 3.79141 298.591 4.23699C305.798 4.94442 287.769 5.91766 293.906 6.52349C294.169 6.30853 298.151 6.04275 299.811 5.95675C304.408 6.14047 297.907 6.62512 307.899 6.5274C309.568 5.73007 328.219 6.59384 312.623 5.85122C322.395 5.62451 323.009 6.01538 334.484 5.98019C330.83 5.46429 344.785 4.22528 354.576 3.99466C354 4.19791 356.198 4.46368 357.26 4.58487C377.29 4.65912 388.043 5.02262 406.722 5.02652C408.444 5.22196 417.455 5.45646 413.616 5.80042C416.3 5.6597 418.768 5.38611 424.531 5.37049C435.681 6.06229 411.685 5.47602 420.186 6.30854C420.912 5.84342 435.087 5.66755 443.29 5.3783C440.764 4.65913 424.334 5.24149 416.115 5.53074C416.076 4.54187 430.382 3.50611 449.903 3.04881C465.418 2.80256 456.631 3.68983 459.323 3.54911C488.464 3.72108 484.15 1.82154 508.352 2.53679C517.954 3.16606 508.784 3.79142 510.916 4.24482C498.275 4.48326 491.512 3.84224 482.945 3.86961L493.493 4.16664C489.472 4.3777 481.037 4.53407 476.437 4.35429C484.486 4.921 525.671 4.46373 548.157 4.98747C552.151 4.77641 559.049 4.55751 555.785 4.30348L548.671 4.38945C542.132 3.88133 562.062 3.68593 553.055 3.4475C562.599 3.09181 573.297 2.52898 586.73 2.8182L589.256 3.5374C588.971 3.32631 580.473 3.10747 576.7 3.32634C582.3 3.00585 597.302 4.29955 603.435 3.3576L594.019 2.86123C603.601 2.50164 615.443 1.73556 627.351 1.96615C621.932 1.25478 624.605 2.04824 616.146 1.21572C623.481 2.25149 585.688 1.17275 597.472 2.25539C588.789 1.29 582.447 1.8489 571.096 1.02419C571.447 1.26262 575.116 1.47759 565.121 1.36034C564.669 1.43068 563.603 1.51668 562.927 1.56749C562.622 1.55968 562.514 1.55574 562.251 1.54793C562.452 1.55965 562.599 1.56746 562.803 1.5753C562.371 1.61046 562.332 1.6183 563.008 1.58312C565.387 1.68865 567.318 1.81371 568.098 1.94271C563.135 2.48598 547.242 2.47035 541.865 2.75176C535.933 2.63841 544.345 2.47817 541.108 2.22804L533.078 2.65013C532.283 2.12248 517.32 1.77464 531.294 1.46587L518.718 1.4424C511.314 1.14537 501.129 1.02812 494.849 1.2509C488.916 1.13755 479.867 1.83326 485.035 1.42286L465.313 1.74726L465.132 1.61439C445.673 1.54795 425.072 2.48597 402.824 1.53229C396.274 1.66516 389.503 1.82544 378.542 1.67691L376.406 1.21961C367.998 1.37595 351.146 0.762298 347.531 1.23523C338.458 0.007963 306.706 0.965541 291.917 0.746667L291.357 1.34075C281.176 1.3056 271.412 1.47756 258.77 1.71209L259.546 2.2358C248.647 2.66576 231.529 1.86058 214.291 1.9153C215.465 1.71596 219.834 1.7668 222.927 1.88796C202.333 0.699754 179.48 2.74785 160.805 1.88405C156.151 2.07557 152.779 2.00911 149.516 1.88014C149.948 1.88014 150.338 1.86839 150.67 1.85276C150.192 1.85276 149.485 1.84886 148.759 1.84495C146.704 1.75505 144.587 1.66517 142.293 1.56355C144.243 1.69252 146.109 1.79805 147.731 1.84495C144.143 1.85667 138.697 1.91923 133.363 2.0521L131.092 1.48927C130.66 1.49317 130.308 1.50099 129.86 1.50489C124.623 1.29774 125.65 1.7707 128.443 2.19673C125.758 2.29054 123.294 2.39997 121.386 2.53675C117.137 1.62608 107.381 2.82209 101.518 2.01691C99.7144 2.29835 92.963 2.56022 86.3159 3.25202C82.9942 3.59598 79.7036 4.04935 77.0772 4.51841C75.7678 4.77244 74.6206 4.99912 73.7207 5.23755C72.8208 5.47596 72.1681 5.68705 71.8321 5.86686C71.6312 5.76914 70.0515 5.95673 72.9251 5.48771C71.4342 5.68314 69.9511 5.93329 68.4795 6.1756C67.0119 6.45313 65.548 6.715 64.1189 7.05503C62.6822 7.3638 61.2839 7.74683 59.9127 8.12598C58.5532 8.54419 57.2169 8.94287 55.9501 9.43534C55.0656 9.46662 54.1734 9.48224 53.285 9.55258C49.1948 11.2958 45.232 13.3243 41.4816 15.6694C40.5663 16.0876 39.7397 16.5176 38.9749 16.885C38.2102 17.2524 37.5498 17.6355 36.9588 17.9364C35.773 18.5344 34.9736 19.0113 34.5642 19.1637C34.1625 19.3239 34.1741 19.1989 34.6917 18.7181C34.9543 18.4836 35.3289 18.1396 35.862 17.7371C36.3988 17.3345 37.0747 16.842 37.9051 16.2518C36.8932 16.9515 35.9353 17.5573 35.0856 18.1866C34.6607 18.4992 34.2513 18.8002 33.8573 19.0894C33.4633 19.3748 33.0849 19.6523 32.7334 19.9415C32.0266 20.5043 31.3777 21.028 30.7713 21.5127C30.1842 22.0169 29.6435 22.4859 29.1375 22.9237C28.6239 23.3497 28.1797 23.7836 27.7548 24.1783C27.33 24.5731 26.9322 24.9444 26.5536 25.2962C25.8198 26.0232 25.1787 26.6876 24.5453 27.3286C23.9002 27.9579 23.3325 28.6263 22.7106 29.3337C22.0926 30.0412 21.4206 30.7838 20.7369 31.7101C20.0378 32.6208 19.2306 33.6331 18.3963 34.9112C18.1839 35.2278 17.9599 35.5561 17.732 35.8961C17.5041 36.2362 17.257 36.5879 17.0368 36.971C16.5811 37.7332 16.0866 38.55 15.5537 39.4373L15.6193 38.511C15.4184 38.8236 15.1945 39.1364 14.9936 39.4803C14.7967 39.8242 14.5919 40.176 14.3833 40.5395C13.9778 41.2704 13.5221 42.013 13.1242 42.8104C12.7264 43.6077 12.3247 44.4207 11.9192 45.2337C11.5214 46.0466 11.1776 46.8909 10.8107 47.696C10.6291 48.1025 10.4515 48.5012 10.2777 48.896C10.1155 49.2986 9.95706 49.6894 9.80258 50.0764C9.48587 50.8463 9.18466 51.5772 8.90658 52.2612C8.38516 53.6448 7.89456 54.8018 7.50448 55.6069C7.18777 56.3691 6.82858 57.2798 6.43075 58.3273C6.04446 59.3748 5.66989 60.5747 5.23733 61.8841C4.45327 64.5262 3.59194 67.6765 2.89285 71.245C1.41744 78.3742 0.451867 87.1489 0.139 96.5567C-0.193154 105.968 0.11196 116.002 0.668111 125.746C0.942342 130.616 1.28219 135.427 1.59114 140.039C1.89632 144.659 2.17055 149.107 2.39846 153.281C3.23268 146.711 3.02028 168.814 4.16744 170.053C4.00136 172.019 4.19057 176.678 3.48763 171.304C5.14076 188.282 4.99776 196.889 6.80537 208.556C6.6393 210.526 6.05226 204.956 5.99818 206.703C6.17586 208.063 6.70112 212.081 6.65089 213.868C6.59681 215.615 6.18745 211.401 5.83601 208.72C7.26118 226.082 8.3813 227.759 9.40095 228.947C9.65974 237.784 10.069 242.169 11.1737 248.478C11.1157 251.566 11.2046 256.701 10.2429 245.922C10.6793 251.995 12.7302 283.045 13.5182 283.604C13.4796 285.523 14.1323 292.093 14.3447 293.688C15.3759 307.313 15.403 308.517 16.5308 321.888L16.3571 318.171C17.6664 323.381 17.4346 329.275 18.3924 340.051L18.2766 339.75C18.5779 345.965 19.0375 349.775 19.4353 352.328C19.837 354.884 20.1653 356.201 20.4858 357.507C20.8219 358.808 21.1501 360.098 21.884 362.56C22.2664 363.788 22.7453 365.312 23.5255 367.231C23.9272 368.189 24.3791 369.252 24.9777 370.409C25.5648 371.57 26.2832 372.828 27.2025 374.153C27.0712 373.664 26.9553 373.18 26.8626 372.687C27.0056 372.769 27.1754 372.914 27.3724 373.113C27.5771 373.309 27.8127 373.559 28.0715 373.86C28.5968 374.462 29.2611 375.232 30.076 376.123C30.9142 376.991 31.8991 377.976 33.1003 378.941C34.3015 379.899 35.7074 380.833 37.291 381.65C38.8784 382.463 40.6435 383.135 42.4936 383.631C44.3475 384.128 46.2787 384.46 48.2137 384.683C50.1488 384.905 52.0838 385.007 53.9686 385.062C55.8496 385.117 57.6803 385.128 59.4377 385.109L54.3742 384.679C62.0525 384.433 75.7639 386.782 83.4578 387.098C85.134 387.239 80.8043 387.212 78.4598 387.239C98.5942 388.384 81.0862 386.559 96.1031 386.707C98.8647 387.165 92.5149 387.641 102.619 387.931C107.648 388.361 131.957 387.266 145.731 388.322C142.699 387.95 139.686 387.579 146.665 387.501C157.356 387.622 175.544 389.236 185.219 388.466C186.579 388.576 187.089 388.669 187.143 388.744C195.319 388.658 213.712 388.857 218.64 388.431C226.156 390.522 269.461 388.49 269.249 390.28C277.626 390.432 286.011 390.491 294.393 390.596L293.732 390.768C309.8 391.128 315.489 390.796 321.143 390.428C324.855 390.596 322.144 390.729 321.835 390.819C333.572 391.144 340.026 391.296 346.009 391.284C351.992 391.276 357.5 391.097 367.349 390.741L369.392 391.343C372.061 391.198 380.546 391.511 391.245 391.8C401.944 392.078 414.856 392.304 426.373 392.054C426.145 392.121 425.67 392.23 423.839 392.297C436.798 392.062 452.305 392.515 465.761 392.816C479.218 393.11 490.623 393.168 495.374 392.132L512.477 391.663C490.353 391.433 515.771 390.757 506.675 390.377C515.373 390.284 529.166 391.05 518.475 391.147L516.803 391.038C512.875 392.136 544.291 391.46 543.696 392.214C587.229 392.183 629.661 392.699 670.439 392.594L665.739 391.753L679.964 391.742C683.699 391.925 684.977 392.39 674.831 392.402C677.5 392.633 681.752 392.512 685.375 392.312C688.998 392.109 691.987 391.828 692.134 391.734C712.002 391.992 684.379 392.77 690.469 392.762L698.743 392.66L696.877 392.566C703.582 392.183 704.177 391.816 716.37 391.792C724.087 391.921 720.333 392.3 723.369 392.316C723.361 392.347 723.612 392.367 724.323 392.371C725.034 392.371 726.204 392.359 728.027 392.316L745.948 392.293L738.78 391.656C746.721 391.28 755.631 391.593 747.358 390.878C753.43 391.433 770.142 391.437 786.267 391.343C802.393 391.241 817.931 391.038 821.658 391.198C832.778 390.632 843.759 390.561 857.362 390.522C853.978 390.405 851.951 389.658 863.681 389.67C859.401 391.273 885.167 390.198 894.657 391.261C890.42 390.913 898.747 390.815 906.499 390.663C910.384 390.581 914.131 390.397 916.058 390.194C917.989 389.983 918.094 389.826 914.741 389.713C917.201 389.643 918.472 389.611 919.113 389.639C919.751 389.666 919.758 389.748 919.689 389.838C919.554 390.018 919.117 390.284 922.883 390.166C928.754 389.502 934.941 388.595 941.252 386.903C944.404 386.047 947.587 385.015 950.719 383.643C953.851 382.275 956.941 380.606 959.857 378.55C962.758 376.475 965.473 374.009 967.848 371.187L968.706 370.1C968.988 369.733 969.289 369.381 969.54 368.99C970.062 368.224 970.587 367.454 971.112 366.68C971.579 365.871 972.043 365.062 972.51 364.249C972.958 363.428 973.337 362.572 973.754 361.728C975.311 358.316 976.45 354.712 977.261 351.05C978.068 347.387 978.563 343.667 978.829 339.95C978.748 339.711 978.516 340.829 978.339 341.2C978.25 341.388 978.176 341.392 978.142 340.95C978.126 340.731 978.118 340.399 978.122 339.922C978.122 339.449 978.13 338.832 978.134 338.034C978.806 332.863 979.127 327.665 979.385 322.51C979.188 316.744 978.115 317.229 978.636 306.7C978.489 308.189 978.273 310.409 978.138 306.551C978.103 249.447 975.226 189.92 976.044 131.913C975.789 139.774 975.658 134.54 975.535 128.544C975.511 132.445 975.029 128.466 974.766 129.236L975.098 104.952C974.252 100.544 974.577 78.9332 973.8 76.4122L974.071 84.0964C973.02 73.8912 972.406 98.4329 971.271 96.9594C972.46 108.384 970.359 127.165 972.105 145.914C971.954 150.065 971.684 142.384 971.468 144.608C972.028 149.361 972.232 155.107 972.209 165.761L972.07 164.558C972.727 194.481 972.487 207.321 972.781 240.946L973.283 238.449C973.341 245.675 973.194 247.196 973.117 250.581C974.098 258.855 972.8 230.291 973.851 237.827C972.908 247.43 974.75 288.771 973.6 295.271C973.793 306.387 974.175 292.003 974.368 303.111L974.078 306.062L974.573 308.861C974.631 316.146 974.268 319.832 973.982 320.11C973.982 318.343 973.812 315.087 973.75 313.192C973.692 315.556 973.7 318.406 973.746 321.392C973.793 324.374 973.847 327.473 973.854 330.374C973.839 331.82 973.854 333.223 973.808 334.521C973.793 335.173 973.777 335.803 973.762 336.404C973.731 337.002 973.704 337.577 973.677 338.112C973.634 339.195 973.549 340.137 973.476 340.907C973.403 341.677 973.356 342.283 973.279 342.67C973.727 339.254 973.986 335.783 974.136 332.285C974.094 336.014 973.912 339.824 973.457 343.647C973.001 347.466 972.259 351.304 971.074 355.009C969.892 358.711 968.246 362.275 966.064 365.484C965.017 367.118 963.758 368.611 962.437 370.034C961.12 371.464 959.653 372.75 958.119 373.954C956.594 375.165 954.944 376.225 953.256 377.202C951.569 378.187 949.796 379.031 948 379.801C944.4 381.341 940.638 382.467 936.868 383.358C929.306 385.097 921.713 385.847 914.56 386.317C915.29 386.379 916.016 386.426 916.746 386.477C911.277 386.872 907.422 386.934 904.355 386.965C901.277 386.989 898.998 386.958 896.646 386.922C891.945 386.852 886.975 386.75 874.835 386.95L875.716 386.879C870.857 387.176 864.368 387.356 857.725 387.372C863.855 387.02 846.184 386.856 854.226 386.461C830.248 387.149 842.368 386.954 826.536 388.04L822.879 387.63C817.483 388.06 817.035 388.271 804.907 388.462C814.849 388.025 797.163 387.853 808.302 387.286C782.853 386.508 770.525 388.486 758.841 387.169C747.161 388.443 780.864 387.704 774.321 388.001C779.802 388.361 764.681 388.959 756.693 388.888C748.563 388.912 742.862 387.43 722.415 387.559C724.45 387.556 724.586 387.462 726.617 387.458C718.962 387.188 711.624 387.958 702.238 387.501C696.981 388.251 690.052 387.513 688.538 388.447L707.294 388.15C696.661 388.439 686.696 389.568 669.176 389.119C670.54 388.927 675.754 388.658 679.334 388.505C674.209 388.251 669.47 388.732 664.159 388.466C665.669 387.54 686.955 388.165 698.341 387.411C692.841 387.043 676.793 388.177 682.513 387.149C674.29 388.47 662.367 387.071 648.52 388.091L649.432 387.532C647.242 387.626 642.704 387.903 638.668 387.903L645.967 387.157C634.759 387.813 624.354 386.688 613.601 387.04C636.115 386.977 618.657 387.7 628.177 388.087C600.411 388.88 612.207 386.676 581.118 386.977C585.328 386.899 596.919 387.298 590.338 387.563C584.421 387.45 576.603 387.243 572.973 386.95C552.375 387.075 576.136 387.52 567.368 387.868C560.354 387.192 557.253 388.154 548.223 388.365L548.157 387.798C524.686 387.407 541.935 388.97 520.8 388.505L529.734 387.731L518.714 387.919L520.989 387.278C509.004 387.747 505.273 387.598 493.532 387.384C496.259 387.79 491.995 388.404 481.597 388.392C474.51 388.032 485.572 387.868 470.833 387.899C474.162 387.563 477.808 387.126 484.22 387.665C484.876 387.481 487.503 387.321 488.179 387.141C480.543 386.735 468.99 386.997 463.656 386.965C465.711 386.997 468.164 387.04 469.423 387.126L448.056 387.802C444.696 387.571 447.365 387.415 450.007 387.262C445.681 387.301 442.684 387.548 436.323 387.563C437.972 387.114 437.582 386.637 446.585 386.465L426.23 386.856C424.871 386.645 415.79 386.23 418.432 386.078C407.15 385.726 390.747 386.774 375.792 386.258C375.015 386.34 373.455 386.41 370.272 386.445C356.213 386.219 343.769 385.492 327.099 385.914L317.655 384.972C304.605 384.98 330.44 386.191 308.706 386.191C293.319 386.219 302.975 385.402 297.583 385.089C289.928 385.378 276.614 386.062 262.493 385.085C267.175 385.023 270.84 385.218 275.212 385.242L275.231 385.246ZM114.287 382.369C117.408 382.318 123.634 382.084 125.905 382.467C122.34 383.037 119.598 382.67 114.287 382.369ZM11.027 217.475C11.3939 219.801 11.5909 223.424 11.7029 227.524C11.4248 224.565 11.1776 221.208 11.027 217.475ZM509.008 1.78245C508.873 1.79417 508.784 1.80198 508.676 1.80983C501.72 1.59092 504.188 1.67692 509.008 1.78245ZM523.457 2.0287C524.91 1.95051 524.809 1.87233 524.195 1.79417C523.187 1.9388 519.943 1.94661 516.246 1.90751C517.274 2.05604 519.139 2.15767 523.454 2.03261L523.457 2.0287ZM724.976 392.097L722.164 391.964C728.514 391.769 726.737 391.925 724.976 392.097Z" fill="#3435FF"/>
<path d="M14.001 245.407C13.9778 246.306 13.8928 246.56 13.804 246.778C13.9933 248.01 14.1053 248.025 14.001 245.407Z" fill="#3435FF"/>
<path d="M375.324 386.254C375.487 386.254 375.649 386.262 375.815 386.266C376.085 386.234 376.228 386.199 376.309 386.168L375.324 386.254Z" fill="#3435FF"/>
<path d="M299.642 6.81641C296.668 6.73433 295.007 6.6327 293.906 6.52327C293.744 6.66006 295.096 6.77732 299.642 6.81641Z" fill="#3435FF"/>
<path d="M600.025 1.07207L590.771 1.2206C595.247 1.19324 596.846 1.31831 599.106 1.4082C598.901 1.27531 597.132 1.0838 600.025 1.07599L600.025 1.07207Z" fill="#3435FF"/>
<path d="M680.354 4.57227C681.706 4.50191 683.224 4.56444 684.556 4.49409L684.186 4.23222C678.423 4.24786 674.394 4.45892 680.354 4.57227Z" fill="#3435FF"/>
<path d="M608.592 2.95072C609.325 3.42756 615.13 3.26731 621.615 3.17742L620.468 3.17742C622.38 2.51297 615.47 2.73184 608.592 2.95072Z" fill="#3435FF"/>
<path d="M623.118 3.16211C625.115 3.13866 627.154 3.12695 629.112 3.1504C629.873 2.88467 626.683 3.09568 623.118 3.16211Z" fill="#3435FF"/>
<path d="M541.784 1.71246C544.859 1.83363 543.712 1.10273 545.454 1.29816C548.887 0.692337 524.956 2.02905 541.784 1.71246Z" fill="#3435FF"/>
<path d="M613.84 4.51758L611.515 3.9313L607.885 4.40424L613.84 4.51758Z" fill="#3435FF"/>
<path d="M562.649 4.08389L573.008 4.24805C572.849 4.15033 574.166 4.0917 575.785 4.04871C569.4 4.02916 562.405 3.91192 562.649 4.08389Z" fill="#3435FF"/>
<path d="M575.785 4.04903C579.11 4.0607 582.273 4.04903 584.123 3.95178C582.324 3.95956 578.454 3.97512 575.785 4.04903Z" fill="#3435FF"/>
<path d="M599.677 4.69336L596.614 4.57222L589.303 4.52922L599.677 4.69336Z" fill="#3435FF"/>
<path d="M451.289 3.96838L439.984 4.13647C438.833 4.3358 441.912 4.46086 446.122 4.38268C448.829 4.24198 453.024 4.16381 451.289 3.96838Z" fill="#3435FF"/>
<path d="M485.483 5.57797C482.424 5.45681 482.219 5.32391 480.496 5.13239L480.153 5.85937L485.483 5.57797Z" fill="#3435FF"/>
<path d="M452.514 5.74629C451.386 5.94953 436.106 6.32475 450.436 6.28176C451.583 6.08242 462.907 5.91436 452.514 5.74629Z" fill="#3435FF"/>
<path d="M282.161 4.81836L285.034 4.80662L284.621 3.61452L282.161 4.81836Z" fill="#3435FF"/>
<path d="M132.015 7.66787C145.41 7.95319 135.198 6.92914 147.303 7.28873C150.446 7.00732 137.407 6.99559 140.632 6.75326C132.545 7.05031 128.3 6.88225 132.015 7.66787Z" fill="#3435FF"/>
<path d="M140.632 6.75391C141.926 6.70701 143.301 6.64841 144.761 6.57417C142.421 6.64841 141.316 6.70701 140.632 6.75391Z" fill="#3435FF"/>
<path d="M975.423 88.7012L975.511 79.9773L975.214 85.6095L975.423 88.7012Z" fill="#3435FF"/>
<path d="M974.245 71.9805L974.959 69.9129L974.183 64.6911C974.252 66.661 974.384 70.4796 974.241 71.9805L974.245 71.9805Z" fill="#3435FF"/>
<path d="M90.3907 380.324L89.7303 380.492C91.0589 380.719 93.075 380.777 97.115 380.895L90.3907 380.324Z" fill="#3435FF"/>
<path d="M207.192 383.302L205.18 383.248L208.923 384.01L207.192 383.302Z" fill="#3435FF"/>
<path d="M305.234 384.229C301.233 384.139 296.529 384.221 292.512 384.131C301.233 384.139 306.304 385.104 305.234 384.229Z" fill="#3435FF"/>
</svg>
