<svg width="126" height="155" viewBox="0 0 126 155" fill="none" xmlns="http://www.w3.org/2000/svg">
<path d="M103.472 59.5052C98.7009 54.7587 74.8233 62.3742 67.1985 63.6891C58.7411 65.6579 48.7605 67.7691 41.5521 71.7211C32.7839 76.5161 34.9906 80.4468 45.4377 79.5663C54.0552 78.8317 62.566 76.3311 71.0424 74.44C80.113 72.354 93.4089 69.2309 100.217 64.4849C101.726 63.3553 104.481 61.5803 103.495 59.5408L103.472 59.5052Z" fill="#3435FF"/>
<path d="M51.6768 22.4682C46.6975 21.5018 34.9535 36.2953 30.7342 40.3203C26.2686 45.1042 20.9094 50.6169 18.0583 56.1173C14.585 62.8003 17.6167 64.3333 23.7846 59.3949C28.8688 55.3162 33.1445 50.1771 37.6547 45.4338C42.4549 40.319 49.4637 32.7808 51.7308 26.9517C52.2006 25.6112 53.1793 23.3433 51.7059 22.4811L51.6768 22.4682Z" fill="#3435FF"/>
<path d="M81.1948 137.824C80.2372 132.035 70.7468 130.003 64.6827 127.049C57.6963 124.133 49.5597 120.542 42.4467 119.665C33.8006 118.591 33.3593 122.496 41.1988 127.195C47.6696 131.066 49.8265 131.005 56.7868 133.986C64.2666 137.131 69.1203 139.578 76.3546 139.689C75.339 139.657 80.8509 139.806 81.1925 137.861L81.1948 137.824Z" fill="#3435FF"/>
<path d="M27.2628 96.7793C27.9586 99.9577 38.6644 102.36 43.0563 103.023C57.3674 105.311 75.564 108.353 89.9614 110.699C94.9556 111.48 99.6274 111.939 103.097 111.787C109.89 111.672 114.178 108.82 106.587 105.124C103.711 103.716 99.0705 102.358 93.7157 101.3C85.5308 99.7196 75.3511 98.0573 66.5184 96.5362C54.1616 94.7401 44.5498 91.9815 33.0778 93.1835C30.8586 93.5964 26.9745 94.2205 27.2529 96.7429L27.2628 96.7793Z" fill="#3435FF"/>
</svg>
