<svg width="187" height="132" viewBox="0 0 187 132" fill="none" xmlns="http://www.w3.org/2000/svg">
<g style="mix-blend-mode:darken" clip-path="url(#clip0_640_135)">
<path d="M128.733 86.3956C128.149 86.5062 128.577 86.9815 128.529 87.0988C129.423 86.7171 128.65 86.2638 128.733 86.3956Z" fill="#FF8200"/>
<path d="M137.53 82.3588L137.475 82.6293C137.843 82.2943 138.208 81.9675 138.568 81.6252C138.227 81.8773 137.88 82.1139 137.53 82.3588Z" fill="#FF8200"/>
<path d="M145.947 78.6978C145.264 78.4977 144.57 78.9208 143.808 79.4271C143.049 79.9391 142.215 80.5231 141.377 80.6943L141.012 80.5957L140.726 81.5702C141.625 81.144 142.599 80.5454 143.498 79.9868C144.41 79.4368 145.241 78.9113 145.943 78.6921L145.947 78.6978Z" fill="#FF8200"/>
<path d="M151.591 77.6442C151.329 77.5971 151.487 77.3641 151.505 77.3422C151.514 77.3132 151.411 77.5225 150.531 78.2657C150.656 78.2326 150.699 78.2281 150.776 78.2161C150.938 78.085 151.189 77.9366 151.59 77.6484L151.591 77.6442Z" fill="#FF8200"/>
<path d="M150.772 78.2101C151.548 78.0695 149.95 78.821 150.772 78.2101V78.2101Z" fill="#FF8200"/>
<path d="M154.258 74.9844L153.919 75.5852L153.54 76.1682C153.734 76.1481 154.085 75.9492 154.34 75.7883C154.59 75.626 154.775 75.5205 154.679 75.7412C155.532 74.5915 155.122 74.6661 154.263 74.986L154.258 74.9844Z" fill="#FF8200"/>
<path d="M154.533 73.5931C154.431 73.7983 154.307 73.9917 154.187 74.1867C154.347 74.1601 154.52 74.0599 154.533 73.5931Z" fill="#FF8200"/>
<path d="M153.395 75.4393C153.687 75.034 153.929 74.6037 154.19 74.1934C153.922 74.2312 153.648 74.029 153.809 74.7484C153.65 74.4641 153.698 74.8683 153.394 75.4435L153.395 75.4393Z" fill="#FF8200"/>
<path d="M152.639 75.8986C152.274 76.079 151.881 76.2963 151.672 76.3119C151.462 76.3317 151.455 76.206 151.826 75.652C150.914 76.4948 150.635 76.9591 150.833 77.0408C150.931 77.0768 151.151 77.0098 151.459 76.8294C151.769 76.6448 152.182 76.3653 152.635 75.8971L152.639 75.8986Z" fill="#FF8200"/>
<path d="M145.72 77.6275C145.389 77.7 145.069 77.7853 144.733 77.8423L144.216 78.4957C144.346 78.3317 144.782 78.1782 145.16 78.0386C145.532 77.8877 145.839 77.7435 145.719 77.6317L145.72 77.6275Z" fill="#FF8200"/>
<path d="M159.55 68.3794C159.373 68.2132 158.813 68.5601 158.501 68.5243L158.272 69.5029C158.463 69.3126 158.703 69.0189 158.936 68.7821C159.169 68.5412 159.373 68.3456 159.544 68.382L159.55 68.3794Z" fill="#FF8200"/>
<path d="M158.506 68.5194C158.595 68.0266 158.666 67.5278 158.744 67.0403C158.188 68.2073 158.248 68.4919 158.506 68.5194Z" fill="#FF8200"/>
<path d="M153.749 72.7309C153.619 73.1055 153.447 73.4623 153.279 73.8248C153.106 74.1858 152.95 74.5611 152.748 74.9129C153.229 74.0787 153.676 73.252 154.032 72.3867L153.755 72.7283L153.749 72.7309Z" fill="#FF8200"/>
<path d="M161.282 62.7996L161.644 63.7891C161.477 63.2005 161.31 62.6301 161.123 62.0718L161.277 62.798L161.282 62.7996Z" fill="#FF8200"/>
<path d="M161.394 58.7682C161.619 59.11 161.795 58.8871 161.947 58.6567C162.094 58.4248 162.196 58.1876 162.373 58.5644C162.27 57.9733 162.093 57.4319 161.88 56.9385C161.667 56.445 161.359 55.9896 161.105 55.5745C161.294 56.0284 161.473 56.5154 161.504 57.0377C161.534 57.5642 161.526 58.1427 161.389 58.7667L161.394 58.7682Z" fill="#FF8200"/>
<path d="M160.219 54.2023C160.344 54.4161 160.494 54.6332 160.652 54.8576C160.81 55.0819 160.948 55.3183 161.109 55.5664C160.998 55.3251 160.891 55.0895 160.745 54.8599C160.589 54.6314 160.414 54.4109 160.221 54.1982L160.219 54.2023Z" fill="#FF8200"/>
<path d="M159.646 64.7266C159.805 64.654 160.206 64.5401 160.563 63.7529L159.799 64.1672L159.646 64.7266Z" fill="#FF8200"/>
<path d="M159.778 64.1834L159.803 64.1687C159.99 63.5697 160.053 63.128 160.096 62.945C160.056 63.1016 160.009 63.4935 159.778 64.1834Z" fill="#FF8200"/>
<path d="M159.605 64.8652L159.649 64.7283C159.57 64.7625 159.54 64.7897 159.605 64.8652Z" fill="#FF8200"/>
<path d="M156.425 70.0879C156.459 69.8698 156.517 69.605 156.567 69.351C156.604 69.0884 156.628 68.8352 156.61 68.6465C156.574 68.2691 156.37 68.1719 155.751 68.7516C155.847 69.4499 156.613 68.7846 156.425 70.0879Z" fill="#FF8200"/>
<path d="M158.645 65.3083C158.426 65.7643 158.235 66.2294 157.995 66.6695C158.162 66.7044 158.502 66.5388 158.5 66.9863C158.586 66.4377 158.599 65.8607 158.645 65.3083Z" fill="#FF8200"/>
<path d="M158.658 64.5433C158.664 64.8015 158.661 65.0566 158.644 65.3071C158.724 65.1363 158.799 64.968 158.862 64.787L158.664 64.5407L158.658 64.5433Z" fill="#FF8200"/>
<path d="M160.363 57.1751C160.194 56.8236 160.019 56.4566 159.888 56.067C159.74 55.6812 159.669 55.2652 159.482 54.8393C159.591 55.3134 159.619 55.798 159.707 56.2744C159.74 56.5136 159.796 56.7465 159.819 56.9828C159.844 57.2149 159.869 57.447 159.895 57.675C160.108 57.7934 160.515 58.2025 160.362 57.1793L160.363 57.1751Z" fill="#FF8200"/>
<path d="M160.37 60.6675C160.359 60.6185 160.358 60.5585 160.343 60.508C160.283 60.5985 160.26 60.6691 160.37 60.6675Z" fill="#FF8200"/>
<path d="M154.728 47.1088C154.737 47.162 154.739 47.222 154.746 47.2794C154.782 47.2677 154.812 47.2545 154.852 47.2444L154.727 47.1129L154.728 47.1088Z" fill="#FF8200"/>
<path d="M159.8 57.8279C159.78 58.526 159.932 58.9315 160.133 59.334C160.101 59.0724 160.067 58.8052 160.035 58.5297C159.983 58.2523 159.939 57.9639 159.898 57.6672C159.801 57.6132 159.741 57.6033 159.8 57.8279Z" fill="#FF8200"/>
<path d="M158.921 51.8463C158.979 52.2536 159.066 52.6979 159.172 53.1523C159.2 52.7542 159.136 51.9243 158.921 51.8463Z" fill="#FF8200"/>
<path d="M160.535 60.2961C160.545 60.3312 160.55 60.3648 160.558 60.404C160.705 60.1858 160.631 60.2078 160.535 60.2961Z" fill="#FF8200"/>
<path d="M160.532 60.2959C160.438 59.9226 160.276 59.6285 160.129 59.3388C160.181 59.7627 160.282 60.1655 160.344 60.5101C160.395 60.4305 160.469 60.3487 160.534 60.2918L160.532 60.2959Z" fill="#FF8200"/>
<path d="M150.075 47.8204C150.3 47.6728 150.843 47.7688 151.383 48.12C151.934 48.4561 152.494 49.0379 152.732 49.7454C153.363 50.1574 153.919 49.9694 154.299 49.4645C154.673 48.9664 154.866 48.0998 154.746 47.2837C154.636 47.3353 154.534 47.3941 154.287 47.3153C154.041 47.2365 153.643 47.0131 152.913 46.5692C152.966 46.7142 153.124 46.9706 153.313 47.2599C153.495 47.5559 153.69 47.8928 153.842 48.1839C154.138 48.7771 154.199 49.2081 153.567 48.8504C152.746 48.1853 152.487 47.8692 152.354 47.5981C152.226 47.3285 152.257 47.0866 151.971 46.6568C152.061 47.1611 151.368 46.8939 150.643 46.6482C149.898 46.4145 149.112 46.2133 148.96 46.7044C149.486 46.9688 150.024 47.2279 150.54 47.5255C150.453 47.6488 149.81 47.4247 150.074 47.8246L150.075 47.8204Z" fill="#FF8200"/>
<path d="M156.798 49.815L157.258 50.3691C156.898 49.6502 156.749 49.0859 156.407 48.0021C155.386 47.2273 155.054 47.1896 154.85 47.2388C155.249 47.6547 155.613 48.1185 155.989 48.559C156.334 49.0307 156.702 49.4779 157.008 49.9737L156.799 49.8109L156.798 49.815Z" fill="#FF8200"/>
<path d="M158.765 53.1604C157.942 52.8105 157.004 51.4856 156.813 52.5865C157.668 54.2872 157.869 53.6425 158.524 54.6799C158.227 53.9444 158.126 53.6239 158.099 53.5284C158.083 53.4318 158.21 53.541 158.342 53.6838C158.469 53.825 158.625 53.9894 158.717 53.9778C158.799 53.9673 158.877 53.7727 158.705 53.2008C159.078 53.7638 159.265 54.3222 159.477 54.8338C159.353 54.2589 159.28 53.6867 159.164 53.1511L159.159 53.2318L159.165 53.2473C159.165 53.2473 159.16 53.2458 159.156 53.2443C159.144 53.396 159.115 53.451 159.088 53.2914C159.075 53.2827 159.056 53.2445 159.045 53.2317C158.955 53.235 158.857 53.199 158.76 53.1589C158.473 52.2439 158.846 52.9715 159.045 53.2317C159.08 53.234 159.117 53.2503 159.151 53.2428L159.155 53.2303L158.267 51.7478C157.925 51.2817 157.614 50.8025 157.246 50.3692C157.562 50.9964 158.044 51.7407 158.755 53.1574L158.765 53.1604Z" fill="#FF8200"/>
<path d="M155.188 66.8929C155.272 66.8421 155.312 66.864 155.359 66.8792C155.357 66.6909 155.33 66.6135 155.188 66.8929Z" fill="#FF8200"/>
<path d="M155.978 66.0521C155.985 66.26 156.157 66.507 155.838 67.0637C155.427 67.4814 155.564 66.9396 155.354 66.8771C155.351 67.2786 155.145 68.2509 156.002 67.3175L156.001 67.1069C156.313 66.6533 156.833 66.1881 157.202 65.8168C157.584 65.4542 157.899 65.221 157.906 65.3286C157.235 65.4523 156.789 65.6069 155.974 66.0506L155.978 66.0521Z" fill="#FF8200"/>
<path d="M158.567 60.1326C158.446 59.3207 158.356 58.5236 158.123 57.7354C157.987 58.1447 157.875 58.5434 157.683 58.9304L158.013 58.8802C157.913 60.2024 158.314 59.9462 158.566 60.1367L158.567 60.1326Z" fill="#FF8200"/>
<path d="M154.733 46.7031L155.489 46.5926C155.174 46.4828 154.87 46.3719 154.562 46.2734L153.636 46.0045C154.002 46.2313 154.376 46.4472 154.734 46.6989L154.733 46.7031Z" fill="#FF8200"/>
<path d="M151.949 44.3612L152.416 44.0579C152.089 43.9394 151.767 43.8183 151.441 43.7138C151.613 43.9246 151.782 44.1478 151.949 44.3612Z" fill="#FF8200"/>
<path d="M19.8954 74.6333L20.4411 75C20.203 74.8141 20.0343 74.7052 19.8954 74.6333Z" fill="#FF8200"/>
<path d="M17.2115 71.1067L16.9057 71.1324C17.1535 71.2391 17.2988 71.2581 17.2115 71.1067Z" fill="#FF8200"/>
<path d="M74.3835 26.0743C73.264 25.6247 71.958 24.9096 72.1774 25.4967L72.5877 26.0579C73.3129 25.9285 73.8892 25.9711 74.3882 26.0758L74.3835 26.0743Z" fill="#FF8200"/>
<path d="M24.9542 40.9424C25.0677 40.9466 25.1919 40.9498 25.3115 40.9514C25.4017 40.6693 25.4806 40.4063 25.5515 40.1683C25.3719 40.4036 25.1592 40.6603 24.9542 40.9424Z" fill="#FF8200"/>
<path d="M25.8956 43.3173C25.4632 43.4122 25.0214 43.5042 24.598 43.6204C24.9138 43.5796 25.3388 43.4914 25.8956 43.3173Z" fill="#FF8200"/>
<path d="M42.631 86.8601L43.5747 86.5536C42.3739 86.1786 42.8119 86.6206 42.631 86.8601Z" fill="#FF8200"/>
<path d="M120.56 31.0461C119.717 30.5659 119.005 30.3289 118.375 30.1414C118.888 30.4333 119.334 30.75 119.705 30.9463C120.074 31.1467 120.358 31.2376 120.56 31.0461Z" fill="#FF8200"/>
<path d="M13.3384 76.602C13.727 76.9047 13.9564 76.9873 14.0606 76.9062C13.6686 76.5979 13.3983 76.4474 13.3384 76.602Z" fill="#FF8200"/>
<path d="M115.743 29.5061C115.89 29.5991 116.046 29.6672 116.196 29.7519C116.88 29.8195 117.567 29.9066 118.375 30.1377C117.62 29.7086 116.717 29.3328 115.743 29.5061Z" fill="#FF8200"/>
<path d="M141.032 91.663C141.109 91.6689 141.195 91.6595 141.268 91.6738C141.258 91.592 141.163 91.6124 141.032 91.663Z" fill="#FF8200"/>
<path d="M170.333 86.5526C170.116 86.7256 169.699 86.9353 169.318 87.1474C169.527 87.0816 169.85 86.9197 170.333 86.5526Z" fill="#FF8200"/>
<path d="M140.072 37.4292C140.731 37.6858 140.2 37.4199 140.072 37.4292V37.4292Z" fill="#FF8200"/>
<path d="M142.126 40.8306C141.966 40.8251 141.823 40.848 141.747 40.9562C141.861 40.8601 141.988 40.8229 142.126 40.8306Z" fill="#FF8200"/>
<path d="M108.453 31.6521L108.396 31.634C108.577 31.7842 108.545 31.7553 108.453 31.6521Z" fill="#FF8200"/>
<path d="M140.918 38.0938C140.711 37.9226 140.46 37.7461 140.176 37.5729C140.29 37.6734 140.516 37.8325 140.918 38.0938Z" fill="#FF8200"/>
<path d="M140.912 37.7937L141.446 38.0973C141.571 38.0503 141.526 37.9627 140.912 37.7937Z" fill="#FF8200"/>
<path d="M139.162 37.0515C139.535 37.2074 139.864 37.3859 140.175 37.5723C140.068 37.4831 140.028 37.4291 140.07 37.4287C139.881 37.35 139.608 37.2399 139.167 37.053L139.162 37.0515Z" fill="#FF8200"/>
<path d="M88.5041 97.5479C88.5488 97.5713 88.5962 97.5865 88.6456 97.6114C89.3144 97.4137 89.0208 97.4341 88.5041 97.5479Z" fill="#FF8200"/>
<path d="M58.3513 33.5397C58.3513 33.5397 58.3915 33.511 58.4156 33.5002L58.3152 33.4912L58.348 33.534L58.3513 33.5397Z" fill="#FF8200"/>
<path d="M56.1863 34.3097C56.9553 33.4396 57.5443 33.4587 58.3205 33.4966L57.1274 31.9714C56.8063 32.7469 56.4899 33.524 56.1911 34.3112L56.1863 34.3097Z" fill="#FF8200"/>
<path d="M28.6581 81.3646C28.2987 80.9706 27.9701 80.5453 27.6349 80.1408C28.1553 80.2112 28.5956 80.32 28.9594 80.4226C29.3321 80.5144 29.6209 80.6068 29.8217 80.6481C30.222 80.735 30.2504 80.6297 29.8416 79.9821C29.5532 80.3289 29.0697 80.339 28.5223 80.141C27.9661 79.954 27.3225 79.5834 26.7132 79.1872C26.0817 78.8114 25.5033 78.384 24.959 78.1596C24.4283 77.9258 23.9822 77.8517 23.6165 78.1464C23.4514 77.8466 23.2762 77.5618 23.128 77.2583C23.3202 77.457 23.4414 77.4043 23.6437 77.5879C23.2213 76.6889 22.7566 76.6729 22.1205 76.6707C21.8024 76.6696 21.4728 76.6556 21.1148 76.5182C20.7615 76.3824 20.3577 76.1434 19.9848 75.6445C19.5067 74.9198 19.3231 74.335 19.9008 74.6342C19.3349 74.2656 18.8314 73.8484 18.2822 73.444C17.9798 72.9859 18.334 72.9391 18.6431 73.3765C18.013 72.6535 17.3991 71.9128 16.8471 71.1416L16.9071 71.1333C16.3955 70.9377 15.5337 70.3189 15.1111 69.9916C14.9956 69.2594 15.4873 70.2355 15.6101 69.982C15.1872 69.5906 14.8384 69.1634 14.445 68.7448C14.5368 68.3762 14.85 68.4581 15.1844 68.7343C15.5176 69.0147 15.8586 69.4989 16.1105 69.9682C16.6209 68.9925 16.4124 68.7795 15.9666 68.3944C15.7454 68.2047 15.4753 67.972 15.2807 67.5849C15.0799 67.2005 14.9041 66.6732 14.9708 65.926L15.3065 66.5411C15.4245 66.7436 15.5641 66.9437 15.6881 67.1435C15.8702 66.8678 15.9464 66.6132 15.9903 66.3619C16.0402 66.108 16.0374 65.8555 16.0076 65.5898C15.9777 65.3241 15.9316 65.044 15.9461 64.7376C15.9545 64.4339 15.9601 64.1063 16.0621 63.7547C15.9023 63.9277 15.6593 64.655 15.3302 65.2268C15.0518 65.7872 14.6974 66.1771 14.195 65.4629C14.2059 65.2331 14.2031 64.9806 14.1096 64.6854C14.0209 64.3917 13.8353 64.0579 13.5825 63.6568C14.2939 63.5871 13.9343 62.8179 13.839 61.8268L14.7862 61.9011C14.5882 61.3941 14.4213 61.1486 14.2123 60.9536C14.0045 60.7545 13.7808 60.6052 13.5642 60.2706C13.6284 59.6782 13.8981 59.3574 14.1826 59.1694C14.4733 58.9788 14.816 58.9191 15.1506 58.8523C15.4032 58.0137 15.0506 58.2348 14.6688 58.4329C14.2836 58.6253 13.8679 58.7988 13.9954 57.6823C14.1398 57.3123 14.3163 56.9891 14.4191 56.6514C14.5408 56.3198 14.5686 55.9719 14.6727 55.6302C14.7578 55.2823 14.8151 54.9073 14.8689 54.4945C14.9463 54.0893 15.0499 53.6512 15.1531 53.1491C16.0276 52.3081 15.56 53.5903 16.0098 53.3591C15.9603 52.959 15.9372 52.5582 15.9038 52.1404C16.0573 51.938 16.2116 52.1245 16.2911 52.2186C16.5233 51.346 15.4919 51.6656 16.1492 50.3938C15.9947 50.1752 16.109 49.9647 16.3705 49.751C16.6543 49.5491 17.0841 49.348 17.5339 49.1168C17.9708 48.8769 18.4875 48.6488 18.8848 48.3368C19.0859 48.1815 19.2625 48.0047 19.4073 47.8132C19.5615 47.6247 19.6772 47.4101 19.746 47.1622C20.2782 47.0489 19.9995 47.6916 20.3678 47.846C21.0067 46.7787 21.3772 46.3712 21.6334 45.9454C21.8957 45.517 22.1171 45.135 22.664 44.1435C23.2909 43.946 23.9559 43.7928 24.5904 43.6207C23.0227 43.8054 23.9344 42.2444 24.9407 40.9425C24.3099 40.9236 23.7614 40.9083 23.4219 40.9415C24.0624 40.3916 24.7021 39.8278 25.3847 39.3097C25.7465 39.2882 25.6892 39.6632 25.5394 40.1642C25.6527 40.0221 25.7539 39.8852 25.8269 39.7713C26.8289 39.6253 26.6934 40.2772 26.4199 40.9856C26.0504 40.9818 25.6647 40.9636 25.2932 40.95C25.078 41.7045 24.9594 42.4671 25.3916 42.8295C25.4636 42.6695 25.6764 42.4449 25.9353 42.2395C25.8871 42.4391 25.8785 42.5964 25.9982 42.6301C26.1261 42.671 26.2169 42.3707 26.4391 42.0027L27.5153 42.5711L27.4044 42.1834C28.454 41.8559 29.533 41.5835 30.6033 41.322C32.1472 39.547 33.3686 37.4585 36.8184 35.8449C36.239 36.8077 37.151 36.9759 37.4788 37.7623C36.0985 37.2796 34.9072 39.0622 33.0444 39.6145C34.0199 39.3227 34.0129 39.7687 33.8494 39.9863C34.7811 39.342 35.7099 38.674 36.6837 38.0615C36.9284 38.7161 37.6128 38.2901 38.5919 38.2647C37.3367 37.2274 40.6552 36.6285 41.8658 35.863C42.1341 36.2644 41.9919 36.7907 40.2909 37.1798C41.4171 37.3799 41.8395 36.8426 42.2605 36.2774C42.6801 35.7163 43.1165 35.1515 44.1925 35.3127C43.7833 35.4334 43.5347 35.4271 43.4606 35.6916C44.2612 35.0328 46.7644 34.7631 46.3452 35.274L45.9339 35.3849C46.6354 35.2479 47.5096 35.0609 48.4335 34.8488C49.3507 34.6252 50.3293 34.3893 51.2178 34.1247C53.0005 33.6108 54.4552 33.0286 54.512 32.443C54.5817 32.5842 54.53 33.8393 54.4287 34.0905C55.7316 32.5632 57.0974 31.0515 58.5281 29.5651C58.3224 30.5834 60.609 32.623 58.3928 33.4968C59.1034 33.5274 59.9769 33.5872 61.3212 33.0566C60.8285 32.9813 59.832 31.8209 60.4449 31.6511C62.4485 32.5024 61.8032 32.0718 64.1523 32.7409C63.4081 32.6035 63.8624 31.0197 64.9946 30.9565C64.8649 31.1986 65.3925 32.4377 65.0215 32.6347C65.8367 32.0446 66.6621 31.4716 67.4969 30.9015C66.8505 31.2253 67.6135 32.1693 68.305 32.5368C67.9624 32.2534 70.6975 32.401 71.4116 32.2086L70.1824 31.9389C71.7654 31.9512 72.4557 31.3761 73.1534 30.7942C73.8519 30.2263 74.5583 29.6335 76.1458 29.6153C75.7971 29.9383 75.4509 31.5429 77.0542 31.6715C77.3707 31.2695 78.0698 30.3405 79.0588 29.4355C80.0451 28.5388 81.3156 27.6187 82.7255 27.3561L83.3034 27.8016L85.4645 27.3448C84.8105 27.9041 83.5715 28.7748 82.2749 29.6134C80.9785 30.4841 79.6226 31.3449 78.6615 31.8197C79.8756 32.1531 79.0412 32.3299 80.7974 32.2741C81.452 32.6756 79.9021 32.9026 79.3917 32.9315C80.7583 33.0164 82.1193 33.0538 83.4808 33.1874C83.234 32.2942 86.546 32.3519 86.3568 31.6052C84.8815 31.8926 83.4142 32.1552 81.96 32.4585C81.8318 32.0104 82.4212 31.3755 83.4241 30.9004C84.4269 30.4253 85.8437 30.0597 87.3247 30.1949C88.0873 30.5852 86.827 31.751 86.9084 32.0515C87.2714 31.7651 89.659 31.5957 89.9291 31.8284L88.7044 32.2464C90.3214 32.6584 91.3348 31.1711 93.2914 32.1858C93.966 32.2964 95.2787 33.4801 95.4014 32.9659C94.3371 31.8707 94.1438 28.7213 94.9171 28.0172C95.1653 28.0737 98.5361 29.3349 99.289 29.9188C100.365 30.8302 97.5056 31.6263 98.4257 32.4055C98.4763 32.1655 99.1078 31.9375 99.3708 31.8661C100.069 32.1488 99.0324 32.5813 100.581 32.6373C100.897 31.778 103.701 33.1461 101.36 31.9808C102.888 31.9346 102.947 32.3879 104.719 32.5933C104.467 32.2703 104.913 31.8229 105.627 31.484C106.335 31.1478 107.317 30.8995 108.099 30.9026C107.98 31.1115 108.285 31.4651 108.431 31.6264C109.989 31.9142 111.158 32.3065 112.301 32.6493C113.448 32.9977 114.561 33.3216 115.989 33.687C116.209 33.9631 117.529 34.5503 116.859 34.7842C117.3 34.7285 117.747 34.5237 118.63 34.7149C119.384 35.3127 118.892 35.2013 118.344 35.1218C117.795 35.0423 117.192 34.9684 117.73 35.5705C117.842 35.3363 118.45 35.2792 119.191 35.3288C119.929 35.3726 120.806 35.4841 121.47 35.4996C121.295 34.625 118.634 34.524 117.309 34.5712C117.429 34.0332 118.096 33.6109 119.142 33.3599C120.18 33.1339 121.59 33.1 123.179 33.2742C124.421 33.4704 124.624 33.7502 124.581 33.9332C124.537 34.1203 124.246 34.2468 124.473 34.2372C126.67 35.0405 127.767 34.8745 128.759 34.7756C129.74 34.696 130.622 34.6626 132.332 35.6989C133.536 36.8799 131.887 37.0249 132.027 37.6141C130.043 37.19 129.279 36.1359 127.969 35.7261C128.473 35.9969 128.958 36.3076 129.445 36.5961C129.105 36.5972 128.605 36.5287 128.113 36.4033C127.615 36.2944 127.124 36.1327 126.809 35.9267C127.062 36.1813 127.659 36.4364 128.439 36.7727C129.22 37.1049 130.198 37.4728 131.243 37.8619C132.298 38.2359 133.386 38.7028 134.418 39.1655C135.441 39.6391 136.423 40.0769 137.158 40.5864C137.827 40.6313 138.933 40.8616 138.587 40.394L137.517 40.0196C136.805 39.0784 139.802 40.1878 138.606 39.357C140.166 39.6365 142.052 39.7458 143.859 41.0327L143.821 41.9173C143.904 41.6921 142.788 40.8549 142.119 40.81C142.612 40.8491 143.232 41.4588 143.883 42.0011C144.538 42.549 145.221 43.0419 145.943 42.8385C145.597 42.4351 145.249 42.0219 144.891 41.6237C146.47 42.0096 148.721 42.2997 150.266 43.7041C149.99 42.5411 149.833 43.5063 149.16 41.9553C149.349 42.7661 148.247 42.0339 147.207 41.4357C146.162 40.8319 145.198 40.3221 145.753 41.3137C145.031 39.7015 143.766 39.7405 142.494 38.1352C142.426 38.3971 142.863 38.8572 141.426 38.0635C141.324 38.1041 141.122 38.1171 140.993 38.1264C140.95 38.0988 140.937 38.0901 140.898 38.064L140.967 38.1271C140.887 38.1334 140.875 38.1387 140.991 38.1486C141.293 38.4143 141.519 38.6696 141.571 38.8508C140.552 39.0648 138.219 37.9708 137.284 37.9234C136.444 37.4488 137.783 37.7994 137.413 37.3424L136.012 37.2831C136.135 36.7005 134.008 35.4207 136.272 35.9622L134.366 35.1649C133.363 34.4004 131.81 33.739 130.759 33.6133C130.319 33.3901 129.685 33.3336 129.284 33.315C128.88 33.3048 128.697 33.3378 129.181 33.2455L125.985 32.6121L126.002 32.4619C124.5 31.9175 122.843 31.7444 121.188 31.4025C119.535 31.0384 117.84 30.6746 116.184 29.715C115.116 29.593 114 29.5744 112.28 29.0427L112.02 28.4699C110.654 28.3348 108.028 27.225 107.377 27.6436C107.051 27.242 106.482 26.9501 105.764 26.7297C105.049 26.533 104.19 26.4135 103.3 26.3212C102.408 26.2372 101.492 26.1637 100.647 26.113C99.8008 26.0664 99.0266 26.0063 98.4303 25.8795L98.309 26.536C97.4906 26.4344 96.6806 26.372 95.8277 26.3782C94.9735 26.3885 94.0668 26.4324 93.0508 26.4917L93.1717 27.093C92.2968 27.266 91.1801 27.0689 89.9296 26.8656C88.6805 26.6582 87.291 26.3509 85.9155 26.3592C86.0925 26.1322 86.7945 26.2058 87.2999 26.3721C85.6203 25.6336 83.8787 25.8724 82.2013 26.1226C80.5227 26.4091 78.9087 26.771 77.3644 26.2953C76.6491 26.524 76.1039 26.4822 75.5676 26.3473C75.6372 26.3421 75.6986 26.3297 75.7471 26.3086C75.6694 26.3067 75.5593 26.308 75.4432 26.3121C75.1017 26.2211 74.7486 26.1173 74.3733 26.0339C74.7016 26.1663 75.0162 26.2761 75.2778 26.3232C74.7087 26.3561 73.8503 26.4612 73.0254 26.6411L72.5728 26.016C72.5067 26.0269 72.4493 26.0268 72.3771 26.0403C71.5076 25.8537 71.7551 26.3857 72.2695 26.8338C71.8623 26.9643 71.4904 27.1152 71.2159 27.2881C70.3777 26.3019 69.0704 27.7775 67.9612 26.7411C67.7203 27.0208 66.6868 27.2163 65.6787 27.4793C64.6754 27.7439 63.7049 28.1013 63.6028 28.6816C63.5439 28.5393 63.2823 28.4922 63.7325 28.4395C62.7747 28.3984 61.8231 28.3868 61.0663 28.7943L60.484 28.0362L58.7242 29.3762C57.3833 29.0479 56.794 28.8503 57.8585 28.0518C55.1636 29.4266 55.5556 28.7561 53.3448 30.1027L53.3127 29.5664C52.4283 29.7364 51.2404 30.6921 50.5775 30.3657C50.0081 30.2201 49.1122 30.2629 48.0035 30.416C46.899 30.5887 45.5823 30.8537 44.189 31.1948C41.3875 31.8585 38.2726 32.7513 35.6295 33.1318C37.2836 34.2601 33.0533 33.2546 33.4361 34.4566C32.9844 34.2206 32.2088 34.2789 32.8349 33.6924C31.691 34.3146 30.7036 34.5294 29.8563 34.8118C29.431 34.9502 29.0414 35.0909 28.6854 35.3064C28.3314 35.5317 28.0103 35.8177 27.7377 36.2291C27.2564 36.0203 27.96 35.518 27.5921 35.4278C27.441 35.5899 26.9972 36.0472 26.624 35.9736C26.2535 35.8916 26.8019 35.5318 27.1034 35.2258C24.6486 36.4212 25.098 37.5621 25.5669 38.5766C24.8286 38.6653 24.3114 38.7971 23.9387 39.0484C23.5742 39.3069 23.3365 39.6746 23.151 40.2053C22.5314 40.1352 21.6067 40.2191 22.9549 39.3009C22.7481 39.4086 22.3082 39.5927 21.7972 39.8683C21.2862 40.144 20.6816 40.4675 20.1298 40.8216C19.5849 41.1871 19.0839 41.562 18.7555 41.8869C18.4339 42.2232 18.287 42.5193 18.4284 42.6972C18.0442 42.7069 17.358 43.416 17.2608 43.6548C15.6702 44.9391 15.466 45.0064 14.1426 46.4997L14.6345 46.1859C14.8103 46.8277 14.5941 47.161 14.203 47.5025C13.8003 47.8311 13.2811 48.2139 12.8513 48.8724L12.7838 48.773C12.5997 48.9245 12.435 49.064 12.2946 49.1929C12.1623 49.329 12.0435 49.4556 11.9394 49.5687C11.7314 49.7949 11.5832 49.9808 11.4719 50.1328C11.2528 50.4423 11.1742 50.623 11.1226 50.8169C11.0663 51.0093 11.0078 51.1919 10.8077 51.5075C10.6076 51.8232 10.2284 52.2417 9.67079 53.0056L10.4094 53.0955C10.7301 53.317 10.7647 53.5842 10.6293 53.8931C10.5647 54.0463 10.4494 54.2107 10.3181 54.3928C10.201 54.5795 10.0548 54.7752 9.89735 54.9901C9.23613 55.8169 8.54091 56.9622 8.66866 58.0643C8.81592 57.8324 9.00713 57.61 9.19096 57.3943C9.22558 57.5472 9.2136 57.6989 9.16183 57.8607C9.12087 58.0214 9.04617 58.1897 8.94516 58.3586C8.73703 58.6991 8.41695 59.0633 8.07737 59.4396C7.77224 59.8223 7.44628 60.2212 7.18303 60.6035C7.05377 60.7955 6.93533 60.9863 6.85191 61.1655C6.77798 61.3476 6.73437 61.5167 6.72105 61.6725C6.62265 61.9475 6.45387 61.2348 6.36591 60.8407C6.01192 62.5023 6.2949 62.6294 6.64936 62.6147C6.83368 62.6096 7.05098 62.5831 7.24816 62.7011C7.43927 62.8217 7.63527 63.0902 7.79252 63.6757C7.37788 64.156 6.4283 63.1753 6.63486 64.8469C6.55555 65.2744 7.1976 66.4495 8.00407 67.6817C8.77152 68.9381 9.67024 70.2411 9.76594 71.4107C9.88356 70.8308 10.0216 70.2849 10.7824 71.1869C11.2618 71.9074 11.5114 73.0531 11.9873 74.111C12.201 74.6505 12.4902 75.1501 12.8309 75.5701C13.1668 75.9886 13.5678 76.3181 14.0677 76.4689C14.1263 76.6935 14.1047 76.8101 14.0348 76.8655C14.3196 77.0847 14.6422 77.3982 15.0316 77.7149C15.4197 78.0357 15.8356 78.3838 16.2486 78.708C17.1091 79.3309 17.9347 79.8832 18.4712 79.9358C18.0833 81.0834 19.9266 82.3545 21.7022 83.2335C22.582 83.6979 23.4525 84.077 24.0132 84.4622C24.5839 84.8323 24.8568 85.2032 24.5639 85.6127C25.7794 86.3171 27.0269 86.954 28.2776 87.5645L28.0798 87.6933C29.2416 88.3531 30.1045 88.6748 30.8035 88.8069C31.5012 88.9432 32.0291 88.9245 32.5543 88.8821C33.0547 89.2434 32.5705 89.2395 32.4784 89.3152C33.3232 89.7913 33.9903 90.1373 34.5657 90.3946C35.1385 90.6602 35.6197 90.8369 36.0965 90.962C37.0487 91.2163 37.9965 91.2724 39.6613 91.3064L39.77 92.0273C40.2425 91.9863 41.4686 92.6575 43.073 93.3536C44.676 94.054 46.6479 94.7762 48.5319 94.8756C48.4809 94.9371 48.3748 95.0404 48.067 95.0563C49.1229 95.1333 50.2254 95.4402 51.3229 95.8279C52.4197 96.2015 53.5168 96.6394 54.5488 97.0198C56.6046 97.7734 58.4114 98.1959 59.3648 97.2063C60.2914 97.2145 61.2225 97.1922 62.1449 97.1807C58.7154 96.2988 62.8326 96.2709 61.4762 95.5992C62.8472 95.7358 64.8614 97.0113 63.1773 96.7928L62.9339 96.6235C62.527 97.1612 63.5851 97.5088 64.7225 97.7719C65.8585 98.0392 67.0686 98.2708 66.9635 98.6809C73.8231 99.855 80.5191 101.361 87.0398 101.946L86.3081 100.921L88.5643 101.162C89.1566 101.416 89.3611 101.984 87.7414 101.809C88.5931 102.443 90.4579 101.526 90.4953 101.327C93.6637 101.915 89.2708 102.381 90.2369 102.461L91.5592 102.473L91.262 102.341C92.3285 102.01 92.4106 101.606 94.3549 101.729C95.5873 101.973 95.006 102.354 95.4946 102.409C95.4936 102.478 95.6586 102.517 96.2377 102.469C97.191 102.54 98.148 102.568 99.1032 102.617L97.9143 101.829C99.1549 101.476 100.589 101.921 99.2253 101.028C100.228 101.728 102.892 101.853 105.449 101.824C106.725 101.784 107.976 101.741 108.984 101.706C109.99 101.662 110.752 101.645 111.063 101.735C112.74 101.11 114.454 100.991 116.602 100.9C116.042 100.776 115.573 99.9578 117.416 99.907C117.253 100.825 118.126 100.935 119.263 100.955C119.833 100.968 120.463 100.955 121.067 101.011C121.667 101.061 122.234 101.164 122.678 101.439C121.92 101.101 123.215 100.888 124.395 100.643C125.581 100.41 126.643 100.077 125.465 99.6457C127.011 99.5637 125.724 100.291 126.984 100.529C127.845 100.219 128.78 100.038 129.762 99.872C130.745 99.706 131.781 99.5984 132.848 99.4958C134.972 99.2514 137.24 99.0483 139.383 98.4027C139.367 98.1597 138.509 97.9859 139.323 97.432C140.226 97.6293 141.143 97.8311 142.05 97.9977C142.868 97.6601 142.316 96.4957 144.193 96.8627C143.896 96.7311 143.452 96.5343 143.993 96.3138C148.423 95.6998 152.566 94.0885 156.623 92.39C160.703 90.699 164.671 88.8852 169.169 87.7807C167.846 87.934 168.518 87.5313 169.298 87.0993C168.715 87.2742 168.954 86.5914 168.654 86.3718C169.909 86.0871 171.119 85.7149 172.36 85.3755C172.363 85.1064 172.565 84.8508 172.874 84.6021C172.951 84.5399 173.033 84.4792 173.121 84.4159C173.235 84.3379 173.356 84.2532 173.476 84.1725C173.752 83.9774 174.002 83.769 174.238 83.5518C174.701 83.1188 175.084 82.6377 175.292 82.1507C175.505 81.6652 175.529 81.1973 175.337 80.9805C175.231 81.5914 175.013 82.0613 174.763 82.4984C174.826 81.9422 174.571 81.7461 174.23 81.7333C173.89 81.7204 173.424 81.8229 172.941 81.879C172.454 81.9336 171.937 81.933 171.531 81.8167C171.315 81.7568 171.167 81.6638 170.988 81.57C170.82 81.4751 170.691 81.3561 170.609 81.2062C170.269 82.09 169.052 82.2724 167.778 82.565C166.497 82.8504 165.126 83.1851 164.426 84.5255C163.743 84.5723 164.627 83.931 164.172 83.8176C163.905 84.6196 163.206 85.0592 161.689 85.5115L161.767 85.3169C157.934 87.247 155.929 87.5071 151.195 88.8426L151.836 89.3037C150.807 89.583 150.507 89.4777 149.974 89.4949C149.286 90.7979 152.771 88.5368 152.243 89.8914C151.757 89.7131 151.083 89.781 150.313 89.9692C149.537 90.142 148.662 90.4153 147.798 90.6834C147.368 90.8203 146.941 90.9489 146.528 91.0639C146.109 91.1676 145.711 91.251 145.34 91.3015C144.603 91.4041 143.984 91.38 143.609 91.0999C142.049 91.5526 144.364 91.6615 142.801 92.1085L142.223 91.8414L142.024 92.4318C140.95 92.6234 140.242 92.2917 140.076 91.9779C140.341 91.9484 140.75 91.6994 141.005 91.6027C140.244 91.5513 139.329 91.8488 138.519 92.1294C137.707 92.4002 137.021 92.684 136.761 92.6648L138.375 92.5455C134.171 93.9726 128.631 94.483 124.494 95.8449L124.896 96.088C123.303 96.5983 122.605 96.5764 121.872 96.5522C121.135 96.5223 120.356 96.4746 118.535 96.7658L118.657 96.681C117.978 97.0403 117.022 97.3019 116.001 97.3457C116.869 96.9326 114.118 96.8028 115.276 96.3316C111.729 97.173 113.566 96.9463 111.301 98.1661L110.667 97.7024C109.903 98.1808 109.867 98.4393 108.005 98.6304C109.488 98.1716 106.716 97.9116 108.364 97.3134C106.34 96.8171 104.939 97.1511 103.766 97.3569C102.597 97.5685 101.682 97.7195 100.722 96.9365C99.0223 98.3004 104.179 97.6812 103.193 97.9741C104.086 98.4151 101.79 98.9982 100.534 98.8617C99.9011 98.8331 99.328 98.389 98.53 97.9462C97.7286 97.4978 96.7038 97.0785 95.126 97.0175C95.4387 97.0352 95.4551 96.9352 95.7678 96.9529C94.5798 96.5546 93.4726 97.3394 92.0076 96.697C91.207 97.4701 90.128 96.5349 89.9028 97.5653L92.8063 97.4968C91.9877 97.5917 91.1966 97.9105 90.2619 98.1238C89.3271 98.3371 88.2539 98.4284 86.8907 98.0061C87.1085 97.815 87.9177 97.6027 88.4748 97.4927C87.6806 97.1197 86.9417 97.5695 86.1237 97.189C86.2512 96.6763 87.1332 96.6931 88.2053 96.7524C89.2739 96.806 90.5392 96.8814 91.4111 96.5382C90.5622 96.0425 88.0917 97.0911 88.9737 96.0147C88.3421 96.7001 87.5614 96.5785 86.6779 96.4194C85.7923 96.2504 84.808 96.0637 83.7205 96.4934L83.8845 95.8826C83.5452 95.9479 82.8326 96.1683 82.2109 96.0883L83.3679 95.3926C82.4927 95.6479 81.6702 95.4122 80.8597 95.1392C80.0518 94.8579 79.2564 94.5212 78.4189 94.6101C81.8706 95.0143 79.1455 95.4554 80.5868 96.0903C76.2422 96.3885 78.2335 94.194 73.4644 93.8121C74.1161 93.8147 75.8455 94.528 74.8124 94.6732C73.9155 94.4092 72.7416 94.0154 72.224 93.5937C69.0634 93.2094 72.6366 94.3112 71.2538 94.4726C70.268 93.5398 69.6685 94.5328 68.2429 94.5342L68.3143 93.9029C64.7806 92.8412 67.172 95.0425 63.9994 93.9453C64.4993 93.753 65.0047 93.5441 65.5039 93.3379C64.9318 93.315 64.3576 93.2823 63.7874 93.2371L64.2477 92.5976C62.3402 92.7513 61.7831 92.5182 60.0402 91.9287C60.3727 92.4559 59.5971 93.0037 58.0016 92.6718C56.9912 92.0604 58.7202 92.2201 56.4624 91.8043C57.0484 91.539 57.6987 91.1706 58.5587 91.958C58.6995 91.7789 59.1332 91.6798 59.274 91.5007C58.2012 90.8236 56.389 90.7608 55.5809 90.5618C55.884 90.6587 56.252 90.7811 56.4236 90.9137L53.0009 90.9899C52.5445 90.638 52.991 90.5476 53.4315 90.4598C52.7598 90.373 52.2454 90.5286 51.2698 90.331C51.6388 89.8955 51.7033 89.3672 53.1073 89.4824L49.9171 89.2396C49.7616 88.9749 48.5021 88.2289 48.9494 88.1524C47.3501 87.4076 44.5723 87.9645 42.5126 86.8803C42.3684 86.9394 42.1132 86.9538 41.6327 86.8733C39.6246 86.0846 38.1045 84.8802 35.538 84.5807C35.2322 84.117 34.9297 83.6589 34.6381 83.1996C33.7316 82.9005 34.0211 83.3499 34.172 83.7595C34.3194 84.1635 34.3295 84.5235 32.7673 84.0055C30.559 83.2717 32.3717 82.9413 31.781 82.3727C31.1689 82.3278 30.3191 82.2756 29.429 82.0229C28.992 81.8876 28.5432 81.7075 28.1231 81.4542C27.7117 81.19 27.3276 80.8567 27.0086 80.4344C27.6931 80.6442 28.0452 81.045 28.6409 81.3042L28.6581 81.3646ZM14.1925 65.5033C14.4707 65.8576 15.1421 66.484 14.8531 66.849C13.9205 66.6147 14.1868 66.1738 14.1925 65.5033ZM28.7723 40.4528C28.5919 40.7884 28.0584 40.9059 27.3976 40.9644C27.7379 40.7165 28.2002 40.5442 28.7723 40.4528ZM132.76 34.9805C132.76 34.9805 132.717 34.985 132.699 34.9929C131.716 34.3766 132.06 34.6057 132.76 34.9805ZM134.86 36.0866C135.113 36.0945 135.13 36.0084 135.074 35.8899C134.858 35.9764 134.366 35.7868 133.819 35.5205C133.912 35.7376 134.15 35.9556 134.858 36.0908L134.86 36.0866ZM95.7576 102.224L95.3054 102.038C96.3074 101.892 96.0321 102.051 95.7576 102.224Z" fill="#FF8200"/>
<path d="M25.7961 43.042C25.6177 43.0123 25.5091 42.9273 25.4067 42.8396C25.3246 43.0146 25.4049 43.1227 25.7961 43.042Z" fill="#FF8200"/>
<path d="M42.4579 86.9131C42.4803 86.9248 42.5053 86.9282 42.5263 86.9441C42.5761 86.9188 42.6118 86.8891 42.6319 86.8589L42.4566 86.9172L42.4579 86.9131Z" fill="#FF8200"/>
<path d="M99.3177 32.8431C98.8678 32.6992 98.6199 32.5604 98.4557 32.421C98.4221 32.5749 98.6242 32.7265 99.3177 32.8431Z" fill="#FF8200"/>
<path d="M146.862 40.421C146.367 40.2076 145.873 40.004 145.382 39.8102C146.071 40.1359 146.241 40.3871 146.525 40.6606C146.571 40.5154 146.42 40.188 146.862 40.421Z" fill="#FF8200"/>
<path d="M154.199 51.641C154.381 51.7725 154.458 51.9892 154.628 52.126L154.884 51.9471C154.377 51.2133 153.808 50.839 154.194 51.6395L154.199 51.641Z" fill="#FF8200"/>
<path d="M146.959 42.907C146.761 43.411 147.68 43.7369 148.632 44.252C148.576 44.2157 148.522 44.1892 148.473 44.1461C149.203 43.7254 148.078 43.2743 146.96 42.9029L146.959 42.907Z" fill="#FF8200"/>
<path d="M148.848 44.3769C149.142 44.535 149.427 44.7221 149.673 44.9333C149.967 44.7804 149.392 44.6375 148.848 44.3769Z" fill="#FF8200"/>
<path d="M137.781 36.8886C138.192 37.203 138.359 36.3873 138.529 36.7026C139.337 36.2839 135.073 36.1825 137.781 36.8886Z" fill="#FF8200"/>
<path d="M146.669 44.7908L146.736 44.0576C146.472 44.1011 146.2 44.1514 145.938 44.2046C146.185 44.3936 146.429 44.595 146.668 44.7949L146.669 44.7908Z" fill="#FF8200"/>
<path d="M139.717 40.6495L141.135 41.4874C141.165 41.378 141.384 41.4114 141.639 41.4793C140.73 41.0239 139.767 40.4598 139.717 40.6495Z" fill="#FF8200"/>
<path d="M141.638 41.4807C142.11 41.7186 142.57 41.9297 142.885 41.9712C142.627 41.8475 142.061 41.5933 141.638 41.4807Z" fill="#FF8200"/>
<path d="M144.64 43.8359L144.293 43.4869L143.298 42.908C143.747 43.2164 144.204 43.5181 144.64 43.8359Z" fill="#FF8200"/>
<path d="M123.133 34.3536L121.345 34.0516C121.114 34.22 121.547 34.482 122.216 34.5771C122.672 34.5399 123.339 34.6391 123.133 34.3536Z" fill="#FF8200"/>
<path d="M127.755 37.6797C127.343 37.4015 127.359 37.2555 127.168 36.9704L126.86 37.7225L127.755 37.6797Z" fill="#FF8200"/>
<path d="M122.776 36.3108C122.54 36.4777 120.139 36.2493 122.303 36.7952C122.537 36.6184 124.288 36.9362 122.776 36.3108Z" fill="#FF8200"/>
<path d="M96.7071 30.3105L97.1591 30.3499L97.1421 28.9996L96.7071 30.3105Z" fill="#FF8200"/>
<path d="M73.7401 33.0073C75.8167 33.2553 74.1115 32.1564 76.0083 32.4932C76.4494 32.1586 74.4562 32.2209 74.9104 31.9271C73.718 32.3096 73.0498 32.1462 73.7401 33.0073Z" fill="#FF8200"/>
<path d="M74.9112 31.9236C75.1033 31.8616 75.3028 31.7927 75.5163 31.6964C75.1664 31.7948 75.0088 31.8633 74.9112 31.9236Z" fill="#FF8200"/>
<path d="M175.428 84.2343C175.99 83.815 176.507 83.34 176.984 82.6507C176.586 83.0631 176.177 83.3442 175.759 83.5902C175.658 83.8093 175.552 84.0269 175.427 84.2385L175.428 84.2343Z" fill="#FF8200"/>
<path d="M176.07 79.7284C176.351 79.4525 176.528 79.0149 176.652 78.5607C176.266 78.1214 175.819 77.7545 175.357 77.5196C175.24 77.4595 175.128 77.4009 175.009 77.349C174.898 77.3044 174.793 77.2752 174.687 77.246C174.477 77.1835 174.269 77.135 174.065 77.1019C174.259 77.1961 174.504 77.3292 174.75 77.4903C175.008 77.6781 175.293 77.9294 175.508 78.204C175.969 78.786 176.124 79.4439 176.063 79.7352L176.07 79.7284Z" fill="#FF8200"/>
<path d="M15.4956 62.5536L15.2609 62.4877C15.0132 62.6418 15.0455 62.8671 15.0873 63.3241C15.2249 63.0571 15.3382 62.8006 15.4956 62.5536Z" fill="#FF8200"/>
<path d="M21.5926 75.1805L21.4159 74.9822L21.1546 75.8318L21.5926 75.1805Z" fill="#FF8200"/>
<path d="M33.3056 81.9459C32.8171 81.6615 32.1167 81.5336 31.643 81.2357C32.7962 81.6777 33.0027 82.8599 33.3056 81.9459Z" fill="#FF8200"/>
</g>
<defs>
<clipPath id="clip0_640_135">
<rect width="169.118" height="83.8503" fill="white" transform="translate(161.394 131.389) rotate(-162.262)"/>
</clipPath>
</defs>
</svg>
