<svg width="389" height="33" viewBox="0 0 389 33" fill="none" xmlns="http://www.w3.org/2000/svg">
<g clip-path="url(#clip0_600_3362)">
<path d="M223.811 12.6466C223.185 11.5179 222.375 10.869 221.374 10.7207L221.403 10.4322C221.767 10.4404 222.145 10.5516 222.49 10.4337C223.02 10.2487 223.533 9.92928 224.04 9.62229C224.433 9.38394 224.801 8.8957 225.195 8.84384C226.034 8.73079 226.885 8.78352 227.727 8.86538C227.967 8.88965 228.178 9.28619 228.422 9.44674C228.723 9.64421 229.056 9.73551 229.356 9.93714C229.705 10.1692 230.032 10.4699 230.363 10.7351C230.121 12.0642 230.195 12.1161 231.123 11.8396C231.685 11.6721 232.126 11.3636 232.448 10.6501C232.634 10.2374 232.836 10.0115 233.204 10.3194C233.369 10.4572 233.68 10.3825 233.876 10.2445C234.31 9.93793 234.645 9.99789 235.032 10.4193C235.179 10.5798 235.513 10.3674 235.903 10.3007C236.343 10.9015 236.838 10.7995 237.372 9.92745C237.581 9.58648 237.946 9.46064 238.241 9.23683C238.33 9.71442 239.082 9.54075 238.768 10.5079C238.724 10.6431 238.803 11.2566 238.788 11.6711C238.771 12.1065 238.863 12.7895 239.28 12.3652C239.784 11.8528 240.235 11.6975 240.789 11.9803C240.896 12.0351 241.053 11.8752 241.091 12.0562C241.259 12.236 241.519 12.6253 241.581 12.5638C242.265 11.8816 242.871 12.4358 243.421 12.8296C243.96 13.2125 244.285 13.046 244.538 12.5426C244.337 12.119 244.164 11.7569 244.098 11.615C243.611 11.537 243.185 11.4603 242.758 11.4004C242.329 11.3404 241.888 11.3535 241.47 11.2205C241.217 11.1414 240.968 10.8928 240.781 10.6225C240.728 10.5458 240.862 9.94757 240.971 9.89765C241.269 9.75983 241.615 9.68592 241.912 9.78063C242.127 9.84834 242.297 10.2251 242.528 10.5173C242.69 10.2214 242.833 9.96064 242.862 9.90683C243.317 9.8752 243.651 9.88065 243.98 9.82103C244.899 9.6574 245.796 9.69651 246.647 10.2877C247.078 10.0942 247.509 9.9028 248.128 9.62555C248.332 10.3278 248.633 11.0784 248.757 11.892C248.849 12.4996 248.904 12.704 249.364 12.5887C249.998 12.4291 250.652 12.4585 251.297 12.3914C251.471 12.3744 251.643 12.3007 251.687 12.2871C251.289 11.5888 250.89 10.8884 250.503 10.2092C251.471 9.83929 252.38 9.47641 253.296 9.16398C253.392 9.13053 253.644 9.43372 253.631 9.52351C253.551 10.0811 253.417 10.6207 253.296 11.1648C253.282 11.2252 253.241 11.2851 253.203 11.3198C252.953 11.5384 252.645 11.676 252.463 11.9819C252.303 12.2507 252.285 12.7049 252.191 13.1302C252.432 13.2236 252.751 13.3461 252.975 13.4328C253.351 12.9406 253.653 12.4907 253.995 12.1234C254.119 11.99 254.338 12.0159 254.51 12.0344C254.916 12.0771 255.32 12.1617 255.532 12.1958C256.067 12.3399 256.401 12.494 256.738 12.5058C257.149 12.5193 257.576 12.4871 257.97 12.3242C258.148 12.2507 258.38 11.8096 258.384 11.5353C258.405 9.76748 258.533 9.58389 259.705 9.57474C260.636 9.56851 261.574 9.35713 262.498 9.43456C263.421 9.50987 264.331 9.82793 265.247 10.0434C265.496 10.1035 265.743 10.1825 266.139 10.2962C265.824 10.5656 265.58 10.7759 265.336 10.9862C265.405 11.149 265.474 11.3119 265.545 11.4769C266.165 11.0887 266.777 10.6667 267.409 10.3269C267.706 10.166 268.038 10.1609 268.354 10.0843C268.369 10.2019 268.381 10.3195 268.395 10.4393C268.069 10.654 267.744 10.8666 267.418 11.0814C267.757 12.3125 268.231 12.6522 268.892 12.2292C269.375 11.9196 269.538 10.7709 269.268 9.2857C270.049 8.4611 270.757 9.73416 271.547 9.37697C271.374 9.20544 271.205 9.04032 271.012 8.8495C272.257 8.05213 273.773 8.52841 274.538 9.95778C274.684 10.2293 274.68 10.6712 274.808 10.9758C274.936 11.2783 275.114 11.628 275.32 11.7249C275.485 11.8019 275.726 11.5266 275.933 11.4077C275.838 11.1562 275.781 10.8365 275.641 10.6657C275.347 10.3092 275.009 10.0334 274.69 9.72238L275.031 9.56456C275.431 9.28657 275.822 8.95808 276.237 8.74536C276.661 8.52658 277.11 8.41939 277.65 8.22836C277.566 8.61405 277.508 8.87673 277.435 9.2061C277.784 9.40883 278.135 9.6116 278.531 9.84053C278.41 10.2149 278.312 10.5102 278.241 10.7265C278.678 10.8013 279.099 10.9679 279.508 10.9059C279.732 10.8712 280.03 10.5092 280.128 10.1846C280.429 9.18989 280.98 8.77074 281.623 8.39767C281.88 9.79671 281.169 10.6627 280.754 11.835C281.076 11.9072 281.283 11.9517 281.57 12.0168C281.382 9.56128 282.574 9.02672 283.746 8.41836C284.106 9.27081 284.666 9.58723 285.397 9.16587C285.656 9.01669 285.93 8.91811 286.197 8.80262C286.592 8.63414 286.879 8.84734 287.058 9.44221C287.917 8.77022 288.837 8.91041 289.762 8.84539C290.58 8.78844 291.337 8.79504 292.124 9.17108C292.488 9.34481 292.969 8.99112 293.397 8.87298C293.539 8.83219 293.68 8.77672 293.938 8.69036C293.767 9.28149 293.646 9.69568 293.588 9.89132C294.093 10.4768 294.511 10.9618 294.961 11.4832C295.007 11.1092 294.996 10.7297 295.104 10.4514C295.241 10.0983 295.441 9.6608 295.673 9.5508C296.458 9.17673 297.266 8.91003 298.07 8.64746C298.651 8.45734 299.24 8.34074 299.907 8.17142C299.813 9.26087 300.122 9.29925 300.566 8.90702C301.282 8.27581 301.931 8.1459 302.511 9.22749C302.945 10.0355 303.508 9.82614 303.916 9.23825C304.4 8.53894 304.842 8.99517 305.27 9.14941C305.398 9.19629 305.479 9.87275 305.469 10.2559C305.453 10.8527 305.158 11.5311 305.678 11.9095C305.93 12.0933 306.259 12.2054 306.52 12.1191C306.63 12.0818 306.776 11.356 306.694 11.1069C306.593 10.8051 306.265 10.6783 305.923 10.3751C305.812 9.33343 306.108 8.83102 307.342 8.30784C307.956 9.36716 309.216 9.74131 310.169 9.27048C310.723 8.99804 311.351 8.61834 311.759 9.69605C312.223 9.07591 312.656 8.50115 313.153 7.83776C313.279 8.35389 313.352 8.65304 313.449 9.05331C313.928 8.52987 314.399 8.08585 314.534 9.57644C314.779 8.21805 315.362 8.78851 315.807 8.82371C316.304 8.86426 316.794 9.04711 317.189 9.14403C317.21 9.8296 317.222 10.251 317.234 10.6724C317.564 10.5793 317.913 10.5557 318.212 10.3592C318.353 10.2681 318.482 9.82898 318.462 9.58131C318.449 9.4176 318.159 9.31258 317.993 9.18102C317.853 9.06891 317.714 8.95684 317.575 8.84476C317.719 8.72649 317.88 8.47871 318.002 8.5129C318.912 8.76179 319.813 9.06497 320.717 9.35356C320.712 9.44982 320.705 9.54605 320.7 9.64232C320.837 9.46104 320.959 9.23541 321.115 9.11115C321.29 8.97263 321.495 8.89345 321.69 8.86852C321.734 8.86322 321.867 9.26849 321.827 9.36397C321.728 9.59848 321.572 9.83798 321.404 9.93686C320.732 10.3344 320.046 10.673 319.368 11.0474C319.288 11.0917 319.226 11.2076 319.116 11.335C320.534 12.5717 321.564 11.7276 322.489 9.91944C322.373 9.59837 322.217 9.16115 322.058 8.72599C322.089 8.63029 322.117 8.53666 322.147 8.44097C322.353 8.55037 322.619 8.57522 322.755 8.78571C323.077 9.28323 323.336 9.21156 323.648 8.77654C324.27 7.91274 324.417 7.93281 324.89 8.95962C325.087 8.17421 325.34 7.81956 325.838 8.49705C325.938 8.6334 326.331 8.29238 326.548 8.33709C327.094 8.49817 327.642 8.64672 328.185 8.83287C328.325 8.88212 328.438 9.06905 328.573 9.16637C328.701 9.25935 328.875 9.43926 328.966 9.37427C329.402 9.06567 329.678 9.24788 329.994 9.75574C330.445 10.4783 331.168 10.2935 331.751 9.84362C332.452 9.30423 333.196 8.74906 334.054 9.02195C334.403 9.13457 334.783 9.05515 335.254 9.06578C335.499 9.77528 335.917 9.30284 336.363 9.08663C336.893 8.82833 337.475 7.72268 337.95 8.55678C338.301 9.17438 338.71 9.0223 339.06 9.30257C339.382 9.55915 339.779 9.56183 339.913 8.73518C340.01 8.1298 340.328 7.8227 340.762 7.90375C341.672 8.07723 342.58 8.25695 343.45 8.42745C343.415 8.80378 343.393 9.05469 343.369 9.30765C343.545 9.25087 343.72 9.1794 343.899 9.14153C344.403 9.03141 344.907 8.91078 345.414 8.83632C346.149 8.72722 346.792 8.30596 347.641 8.89708C348.349 9.39074 349.376 9.29242 350.353 8.54347C351.103 7.9675 352.213 8.44509 353.162 8.48747C353.877 8.52038 354.563 8.74538 355.186 9.29369C355.221 9.32592 355.291 9.34634 355.32 9.31766C356.071 8.56991 356.692 9.32978 357.359 9.61722C357.51 9.68138 357.71 9.47218 357.889 9.44062C358.451 9.34226 359.025 9.13733 359.573 9.22721C360.086 9.31003 360.509 9.27768 361.022 9.04623C361.313 8.91453 362.013 8.65377 362.397 9.48582C362.641 10.013 363.38 9.58133 363.697 8.70856C365.296 9.59735 367.138 8.31692 368.558 9.495C369.245 9.48537 369.782 9.48283 370.32 9.46773C370.595 9.45929 370.888 9.3339 371.142 9.42972C371.866 9.70377 372.575 10.055 373.285 10.3937C373.73 10.6048 374.165 10.8535 374.604 11.0834C374.647 11.1053 374.713 11.1424 374.738 11.1137C375.379 10.3467 376.21 10.6022 376.903 10.159C377.516 9.76847 378.067 9.62588 378.765 9.78409C379.477 9.94474 380.267 10.7001 381.029 9.76397C381.124 9.64669 381.339 9.75422 381.584 9.75975C381.43 10.0265 381.31 10.2313 381.192 10.436C381.21 10.5391 381.225 10.6442 381.243 10.7472C381.563 10.6686 381.884 10.5962 382.204 10.507C382.316 10.476 382.43 10.3403 382.531 10.3615C383.084 10.4766 383.633 10.6231 384.169 10.7567C384.142 10.8965 384.088 11.1676 384.001 11.6119C385.763 9.852 386.838 11.3638 387.878 12.8937C387.7 13.2207 387.414 13.6332 388.058 13.7944C388.204 13.8312 388.324 14.0791 388.457 14.2308C388.298 14.3844 388.152 14.599 387.978 14.6788C386.984 15.1383 385.983 15.564 384.985 16.0024L384.993 16.2708C385.17 16.4131 385.347 16.5553 385.647 16.7967C385.208 17.0508 384.876 17.2403 384.546 17.4297C385.297 17.9642 386.471 17.2386 386.809 19.0522C385.955 18.5824 385.146 18.6459 384.281 19.0642C383.893 19.2503 383.396 18.9123 382.949 18.8079C382.881 18.7917 382.806 18.7083 382.749 18.7363C381.85 19.1581 381.064 18.803 380.361 17.8423C380.317 17.9251 380.272 18.0079 380.228 18.0886C380.299 18.4631 380.37 18.8377 380.45 19.2585C379.88 19.1995 379.252 19.1016 378.625 19.079C377.868 19.0536 377.083 19.2705 376.359 19.0488C375.688 18.8451 375.03 18.8051 374.361 18.7607C374.298 18.7572 374.203 18.7068 374.182 18.6372C373.793 17.2917 373.165 17.8139 372.554 18.2066C371.27 19.0303 370 18.8466 368.724 18.2521C368.541 18.1663 368.266 18.1559 368.121 18.3034C367.637 18.8058 367.523 18.5036 367.536 17.6282C366.839 17.8408 366.17 18.0436 365.464 18.2581C365.429 18.5632 365.396 18.8558 365.344 19.3218C364.908 19.1507 364.415 18.6912 364.125 18.8962C363.475 19.3571 363.007 18.7914 362.482 18.6161C362.021 18.4611 361.566 18.1575 361.165 17.7839C360.559 17.2213 359.512 17.424 359.01 18.2486C358.895 18.4387 358.652 18.5234 358.465 18.538C357.515 18.6108 356.564 18.6501 355.615 18.6852C355.458 18.6901 355.297 18.6424 355.146 18.5762C355.014 18.5187 354.896 18.3317 354.769 18.3247C353.772 18.277 352.773 18.2586 351.775 18.234C351.381 18.2251 350.986 18.2309 350.593 18.2115C350.433 18.2037 350.274 18.11 350.113 18.1085C348.943 18.0884 347.771 18.0996 346.601 18.0627C346.216 18.0498 345.833 17.8945 345.446 17.8586C344.875 17.8059 344.348 17.553 343.73 18.0985C343.389 18.4009 342.703 18.002 342.228 17.721C341.779 17.4552 341.534 17.4204 341.083 17.9214C340.648 18.406 339.954 18.558 339.384 18.5325C338.193 18.4805 336.976 18.3965 335.833 17.9726C335.033 17.6759 334.328 17.2179 333.537 17.9396C333.448 18.0214 333.263 17.9188 333.139 17.8468C332.148 17.2671 331.173 17.683 330.161 17.8194C329.249 17.9434 328.383 18.039 327.478 18.3769C326.991 18.5586 326.178 18.2092 325.724 17.2709C325.581 16.9764 325.112 16.8359 324.839 16.9324C324.34 17.1076 323.873 17.5119 323.364 17.8398C322.761 17.4449 322.088 17.0044 321.37 16.5336C321.252 16.9981 321.181 17.2773 321.105 17.5793C321.045 17.5968 320.98 17.6352 320.916 17.6295C320.712 17.6103 320.45 17.4346 320.317 17.5657C319.548 18.3173 319.35 17.4643 319.124 16.7657C317.817 16.4911 316.727 17.2773 315.699 18.333C315.089 18.9604 314.413 18.6769 313.846 18.4714C312.505 17.9865 311.148 18.113 309.797 17.9819C309.555 17.9576 309.307 17.7697 309.094 17.5805C308.438 17 308.287 17.0469 307.905 18.1194C307.724 18.0168 307.534 17.9182 307.348 17.8051C306.905 17.5395 306.462 17.0937 306.12 18.1063C306.068 18.2623 305.697 18.3712 305.578 18.2596C304.71 17.4417 303.8 18.0351 302.906 18.0673C302.4 18.0852 301.887 18.0945 301.39 17.987C301.25 17.9565 301.155 17.504 300.955 17.0553C300.636 17.266 300.24 17.5252 299.76 17.8391C299.078 17.0066 298.402 18.2296 297.652 18.2944C296.68 18.3792 295.71 18.5627 294.738 18.6706C294.625 18.6827 294.509 18.4664 294.384 18.4028C294.082 18.2515 293.711 17.8911 293.477 18.0346C292.66 18.5315 291.843 18.1485 291.032 18.2559C289.91 18.4024 288.773 18.2489 287.595 18.2223C287.612 18.428 287.633 18.6799 287.655 18.9339C287.617 18.9666 287.578 19.0286 287.544 19.0257C287.048 18.9579 286.551 18.8252 286.053 18.8203C285.467 18.8154 284.897 18.8717 284.478 18.0933C284.395 17.9385 284.178 17.8058 284.061 17.8576C283.375 18.169 282.949 17.7906 282.599 16.9279C282.523 16.7418 282.1 16.6694 281.937 16.8124C281.179 17.4699 280.371 17.5962 279.537 17.8477C278.547 18.1459 277.638 18.1107 276.676 17.9821C276.319 17.9342 275.928 18.4743 275.554 18.4806C275.156 18.4883 274.761 18.1798 274.414 17.8326C274.016 18.0163 273.617 18.2022 273.11 18.4359C273.209 17.9981 273.27 17.7334 273.347 17.3916C272.377 17.7468 271.492 18.083 270.604 18.3939C269.878 18.6478 269.154 18.9856 268.418 19.0842C267.742 19.1737 267.757 18.3883 267.92 17.6106C267.788 17.572 267.659 17.4831 267.625 17.5348C266.904 18.631 266.046 18.8316 265.093 18.5398C264.976 18.5037 264.832 18.7141 264.701 18.7153C264.447 18.718 264.191 18.6514 263.937 18.6122C263.931 18.4947 263.926 18.3794 263.918 18.2619C263.734 18.4505 263.549 18.6411 263.278 18.9179C263.141 18.5502 263.007 18.1931 262.836 17.7346C262.349 17.8766 261.807 18.0508 261.261 18.183C261.11 18.2194 260.916 18.2004 260.795 18.0845C260.259 17.5738 259.807 17.9679 259.496 18.5287C259.215 19.0377 258.961 19.0697 258.595 18.9735C258.061 18.8315 257.52 18.7502 256.941 18.6344L256.929 19.16C255.862 19.1359 254.812 19.0913 253.762 19.099C253.371 19.1027 252.976 19.3054 252.588 19.2883C251.882 19.2598 251.178 19.0742 250.473 19.0771C250.126 19.0777 249.776 19.4741 249.428 19.4788C248.854 19.4889 248.278 19.3586 247.71 19.2284C246.967 19.0587 246.231 18.8075 245.488 18.6419C245.323 18.6047 245.136 18.8372 244.955 18.8646C244.668 18.9042 244.318 19.0262 244.097 18.8452C243.608 18.4403 243.284 18.7954 242.906 19.1577C242.735 19.3214 242.435 19.52 242.314 19.4104C241.662 18.8133 241.102 19.3935 240.5 19.6628C239.891 18.3606 239.146 17.6125 237.963 17.7723C237.066 17.8924 236.148 17.5365 235.237 17.4384C235.039 17.4172 234.828 17.5905 234.445 17.7473C234.859 18.0081 235.107 18.1101 235.311 18.3095C235.445 18.4404 235.519 18.7123 235.619 18.9199C235.467 19.0128 235.318 19.1666 235.165 19.1841C234.994 19.2033 234.821 19.0716 234.645 19.0487C234.401 19.0181 234.155 19.0021 233.911 19.0259C233.616 19.0548 233.322 19.1718 233.028 19.1819C231.793 19.2211 230.567 18.3889 229.32 19.2847C228.595 19.8067 228.34 18.6466 227.8 18.2636C227.774 18.5018 227.747 18.7401 227.705 19.1288C227.028 19.1135 226.343 19.1588 225.668 19.0661C225.035 18.9784 224.408 18.5474 223.793 19.1997C223.143 18.3281 220.995 18.4577 220.578 19.3995C219.922 19.2129 219.265 19.0262 218.609 18.8417C218.542 18.8235 218.442 18.7814 218.408 18.8288C217.648 19.876 216.904 19.2914 216.15 18.8805C216.046 18.8237 215.898 18.9419 215.77 18.9788C215.799 19.1659 215.829 19.3509 215.869 19.6158C215.368 19.6862 214.875 19.7547 214.205 19.8464C214.414 19.4384 214.499 19.2727 214.664 18.9496L210.918 18.8651C210.781 18.6315 210.648 18.4064 210.515 18.1834C209.883 19.0407 208.984 19.0204 208.731 18.3946C208.343 18.6645 207.977 19.1297 207.622 19.1217C206.873 19.1048 206.115 19.5737 205.352 19.0453C205.119 18.8829 204.718 19.3347 204.393 19.3546C203.357 19.413 202.319 19.4503 201.285 19.3955C200.59 19.3568 199.898 18.985 199.214 19.0554C198.346 19.1448 197.488 19.5319 196.691 19.7716C196.562 19.643 196.443 19.4371 196.306 19.4046C195.951 19.3254 195.589 19.3193 195.228 19.2944C195.091 19.285 194.891 19.2219 194.825 19.3293C194.205 20.321 193.596 19.6766 192.994 19.3739C192.306 19.0294 191.676 19.1723 191.199 19.7293C191.002 19.4965 190.858 19.1811 190.712 19.182C190.178 19.1825 189.641 19.2982 189.105 19.3531C188.892 19.3755 188.679 19.3477 188.402 19.3414C188.365 19.5019 188.308 19.7395 188.241 20.025C187.701 19.5121 187.202 18.6963 186.602 19.8246C186.284 19.6456 186.134 18.427 185.654 19.5287C185.619 19.6096 185.168 19.3187 184.921 19.1644C184.479 18.8841 184.09 18.2447 183.656 19.3851C183.509 19.7736 182.814 20.0114 182.457 19.8651C181.615 19.5192 180.819 19.979 180.006 19.9962C179.153 20.0147 178.299 20.3369 177.445 20.3721C176.584 20.4071 175.705 20.0604 174.864 20.2447C174.131 20.4041 173.63 19.9277 173.04 19.5959C172.83 19.478 172.566 19.5475 172.328 19.561C171.672 19.5965 171.018 19.6466 170.363 19.6968C170.028 19.7228 169.693 19.7571 169.358 19.7956C169.246 19.8099 169.131 19.8869 169.022 19.8698C168.149 19.7432 167.28 19.5665 166.407 19.4734C165.795 19.4072 165.173 19.3575 164.567 19.4696C163.988 19.5759 163.427 19.9152 162.853 20.1223C161.382 20.6547 159.971 20.3652 158.538 19.763C157.897 19.4929 157.14 19.8026 156.436 19.8517C155.935 19.8865 155.431 19.9631 154.93 19.9518C154.553 19.9433 154.151 19.5843 153.864 20.2881C153.831 20.3669 153.689 20.3994 153.609 20.3745C153.193 20.252 152.782 20.1044 152.369 19.9631C152.324 19.9474 152.279 19.8961 152.239 19.9036C151.666 20.0059 151.034 19.9246 150.536 20.2758C150.031 20.6331 149.697 20.4098 149.25 20.2509C148.613 20.0229 147.938 19.9971 147.277 19.9299C146.267 19.8295 145.253 19.7689 144.24 19.6874C144.056 19.6728 143.835 19.5295 143.696 19.6374C142.757 20.3684 142.008 19.8549 141.24 19.0728C141.075 18.9057 140.691 19.2134 140.431 19.4464C140.054 19.2116 139.689 18.9268 139.59 19.9679C139.584 20.0306 139.285 20.0888 139.127 20.0685C138.566 19.9951 138.008 19.8861 137.448 19.7938C137.363 19.7794 137.267 19.817 137.192 19.7692C136.705 19.4628 136.224 19.1377 135.683 18.7819C135.561 19.3574 135.502 19.6368 135.44 19.9329C133.499 19.8891 131.576 19.8059 129.652 19.8169C128.582 19.8221 127.51 20.0179 126.438 20.067C125.658 20.1017 124.876 20.0108 124.094 20.0183C123.709 20.0221 123.323 20.1643 122.938 20.1598C122.187 20.1533 121.437 20.0882 120.687 20.0461C119.968 20.0047 119.247 19.9549 118.527 19.9135C118.14 19.8901 117.752 19.8772 117.365 19.858C117.155 19.8469 116.884 19.6963 116.748 19.8378C116.03 20.5905 115.192 20.2468 114.427 20.5417C114.196 20.6307 113.899 20.645 113.695 20.5C112.933 19.9632 112.034 20.1587 111.303 19.3105C110.762 18.6823 110.146 19.1272 109.917 19.849C109.549 19.8093 109.307 19.7138 109.081 19.7694C108.131 20.0036 107.19 20.3259 106.238 20.5139C105.976 20.5667 105.686 20.271 105.409 20.137C105.038 19.9589 104.776 19.733 104.258 19.9476C103.456 20.2793 102.523 19.8351 101.645 19.744C101.229 19.7011 100.81 19.6853 100.393 19.7011C99.7849 19.723 99.2501 20.2389 98.5608 19.974C97.9048 19.7224 97.0624 19.7935 96.4418 20.2069C95.5683 20.7885 94.808 20.0778 93.9929 20.2417C93.4716 20.3451 92.9286 20.1674 92.3956 20.1051C91.7162 20.0248 91.019 20.0488 90.3638 19.8204C89.4756 19.5091 88.6767 19.5141 87.8134 20.142C86.5675 21.0483 85.2268 20.9468 83.9024 20.6215C83.812 20.5985 83.7006 20.5143 83.6323 20.563C82.8105 21.1499 82.1255 21.191 81.668 19.7665C81.6236 19.6272 81.1083 19.7748 80.826 19.8837C80.2531 20.1033 79.735 20.5001 79.1169 19.8702C78.9282 19.6774 78.3109 20.1894 77.9849 20.5633C77.3085 21.3379 76.6573 21.5557 75.9125 20.8999C75.7986 20.801 75.6211 20.8577 75.4745 20.846C75.1309 20.8194 74.7394 20.9384 74.4558 20.7329C74.0374 20.4302 73.7396 20.2978 73.3454 20.8441C73.2327 21.0007 72.8636 20.7431 72.6374 20.7883C72.2156 20.8835 71.7948 20.9934 71.372 21.0698C70.1021 21.303 68.8276 21.4963 67.5597 21.7631C67.1872 21.8406 66.9289 21.9458 66.8873 21.1864C66.8754 20.9704 66.6184 20.7006 66.4398 20.619C66.0687 20.4535 65.6678 20.4277 65.289 20.2872C65.0268 20.1891 64.7837 19.9908 64.4525 19.7906C64.2446 19.8886 63.9154 20.0362 63.59 20.1943C63.4642 20.2543 63.2591 20.2937 63.2311 20.4146C63.0103 21.3377 62.4875 21.3176 61.9825 21.4423C61.2749 21.617 60.5781 21.9344 59.8676 22.0504C59.3509 22.133 58.8175 21.9051 58.2973 21.9604C57.0674 22.094 55.8421 22.3366 54.6118 22.489C54.0914 22.5527 53.5633 22.5219 53.0423 22.4871C52.9431 22.4807 52.819 22.2746 52.7652 22.1163C52.4491 21.1873 52.1893 21.0432 51.6131 21.533C51.1781 21.9045 50.7482 22.2928 50.2786 22.7075C49.5341 21.6055 48.7779 21.7665 47.8193 22.212C46.9174 22.6317 45.8683 22.3775 44.8877 22.3156C44.3038 22.2793 43.7791 22.2193 43.2406 22.7728C42.9084 23.1131 42.4322 23.1401 42.0201 23.3005C41.1351 23.6471 40.2541 23.7592 39.3461 23.5146C38.9526 23.4093 38.5157 23.6781 38.1066 23.6395C37.2034 23.5563 36.305 23.3831 35.4044 23.2496C35.2231 23.2224 35.0423 23.1786 34.8616 23.1871C32.9528 23.2801 31.0425 23.4402 29.1339 23.4579C28.3364 23.465 27.5296 22.9524 26.7491 23.073C25.2877 23.2998 23.8356 23.1141 22.382 23.2468C21.5521 23.3224 20.7269 23.5656 19.8991 23.7334C19.8317 23.7465 19.7349 23.8177 19.7009 23.775C18.8174 22.6949 17.9146 23.2738 17.0085 23.7519C16.9349 23.7901 16.8128 23.7475 16.7501 23.6728C15.9025 22.6773 15.0867 23.3084 14.2571 23.8051C14.0855 23.908 13.8624 23.8737 13.6733 23.8233C13.2408 23.7088 12.8188 23.4437 12.3856 23.4213C11.5193 23.3766 10.6224 23.26 9.78929 23.5429C9.13942 23.7628 8.47572 23.2325 7.99412 23.5589C6.80502 24.3659 5.68506 23.4733 4.53125 23.6462C4.01752 23.7226 3.4521 22.9284 2.91444 22.5161C2.75769 22.3952 2.63156 22.1577 2.46808 22.087C1.68664 21.753 1.67351 20.5375 1.27111 19.7721C1.06314 19.3798 0.892672 18.8753 0.837972 18.3859C0.774166 17.8041 0.984541 17.0986 0.846233 16.5947C0.494571 15.3172 0.857552 14.4203 1.37076 13.4995C1.49909 13.2678 1.58356 12.9345 1.60989 12.6355C1.68871 11.7468 1.89805 11.211 2.59818 11.3672C2.8167 11.4161 3.07341 11.137 3.31138 11.0062C4.19534 10.517 4.92793 11.0322 5.64728 11.7C5.80761 11.8482 6.0086 11.9303 6.198 11.9681C7.69771 12.2743 9.1933 12.6391 10.7012 12.8302C11.5995 12.9448 12.5154 12.7769 13.4239 12.7492C13.6675 12.7422 13.9558 12.6733 14.1481 12.8305C15.0133 13.5436 15.9766 13.4459 16.9063 13.5339C17.5568 13.5947 18.2402 13.5012 18.8777 13.2725C20.2471 12.7818 21.579 13.3922 22.9348 13.3201C24.432 13.2408 25.9348 13.2894 27.4268 13.4404C29.0026 13.5975 30.5929 13.1746 32.1644 13.9601C32.993 14.3748 33.9706 14.6294 34.9128 13.9802C35.1416 13.822 35.4952 14.1463 35.7919 14.1383C36.4274 14.1234 37.0615 14.0434 37.6967 13.9781C37.9266 13.954 38.1938 13.7673 38.3787 13.8825C39.5985 14.6286 40.8823 13.7798 42.1143 14.1679C42.8158 14.3891 43.8682 14.1237 44.1691 14.7339C44.6439 15.7021 45.4795 14.9374 45.85 15.9996C46.0406 16.5423 46.8809 16.0061 47.1292 15.3559C47.1931 15.1877 47.504 15.113 47.669 15.1754C47.7994 15.2244 47.8802 15.5489 48.0838 15.9516C48.1524 15.3916 48.1901 15.0824 48.2366 14.6959C48.5576 14.6067 48.8926 14.5137 49.2854 14.4053C49.3585 13.7071 49.6832 13.3897 50.2034 13.3386C50.8483 13.2736 51.4941 12.9886 52.1329 13.0093C52.9479 13.036 53.7567 13.2743 54.6177 13.4299C54.9363 12.7625 55.3089 12.5551 55.7513 13.3445C55.8239 13.4739 56.085 13.4358 56.2417 13.3744C56.5324 13.2615 56.8064 13.0226 57.0981 12.9286C57.5025 12.7995 57.9931 12.5067 58.3156 12.7193C59.1882 13.2922 59.948 12.9762 60.7397 12.42C60.8619 12.3348 61.1372 12.3515 61.174 12.4549C61.4225 13.1561 61.7138 12.9574 62.1453 12.8037C62.5571 12.658 63.1021 12.8065 63.4741 13.1228C64.4857 13.9816 65.1402 13.9293 66.0175 12.6816C66.0854 12.5847 66.1919 12.5138 66.2861 12.497C67.324 12.3151 68.3673 12.2025 69.3983 11.9555C70.2914 11.741 71.0803 12.0542 71.8552 12.6165C71.9516 12.6857 72.069 12.6883 72.2774 12.7517C72.2218 12.367 72.1832 12.0938 72.1167 11.6314C72.4267 11.718 72.8449 11.6604 72.9361 11.895C73.2403 12.6708 73.5256 12.5494 74.015 12.2504C74.4462 11.9878 74.9714 12.0834 75.4553 12.0294C76.2701 11.9389 77.0976 11.9659 77.8986 11.7452C78.9712 11.4509 79.9696 11.8401 80.9954 12.0707C81.3837 12.159 81.839 12.1295 82.1994 11.9072C82.9229 11.4605 83.5838 11.6828 84.2701 11.9539C84.6098 12.0894 84.9637 12.1498 85.3113 12.2456C85.3387 12.1499 85.3659 12.0562 85.3947 11.9605C85.4811 12.2222 85.5675 12.484 85.6656 12.7858C85.7487 12.7625 85.8657 12.7861 85.9206 12.7098C86.9418 11.281 88.1822 11.3634 89.438 11.3813C89.8688 11.3869 90.3045 11.0468 90.743 10.8954C91.1547 10.7538 91.5695 10.5956 91.9872 10.561C92.2451 10.5396 92.5093 10.7341 92.8145 10.8479L92.7882 12.0122C94.3423 10.6498 95.9511 10.9606 97.603 10.9686C97.9828 11.6182 98.2735 11.5075 98.8947 10.9474C99.2631 10.6163 99.8778 10.5276 100.274 10.746C100.827 11.0497 101.26 10.7305 101.731 10.5589C102.484 10.2826 103.166 10.1786 103.799 11.0833C103.949 11.2983 104.492 11.1702 104.733 10.9263C105.252 10.4017 105.755 10.4319 106.33 10.4972C107.173 10.5938 108.028 10.5146 108.878 10.4982C109.895 10.4792 110.912 10.4289 111.929 10.4267C112.991 10.4255 114.051 10.4683 115.111 10.4923C115.126 10.6015 115.141 10.7108 115.156 10.8201C114.762 11.1003 114.368 11.3806 113.961 11.6689C113.929 12.0557 113.887 12.5639 113.842 13.1055C113.872 13.1062 113.986 13.1339 113.989 13.1172C114.181 12.0971 114.81 12.0798 115.319 11.7687C115.693 11.5404 116.045 11.2278 116.494 10.8838C116.649 10.9963 116.9 11.2638 117.182 11.3686C117.835 11.6139 118.527 12.2454 119.119 11.1002C119.159 11.0236 119.238 10.9437 119.298 10.9408C120.626 10.9038 121.903 9.57707 123.291 10.5931C123.75 10.9282 124.356 10.8832 124.897 10.8955C125.645 10.9102 126.398 10.8057 127.147 10.7661C128.104 10.7143 129.062 10.7045 130.018 10.6151C130.35 10.5849 130.683 10.2362 131.004 10.2602C131.78 10.3176 132.551 10.5214 133.325 10.6374C133.623 10.6818 133.93 10.6761 134.228 10.6347C135.347 10.484 135.508 10.4268 136.034 12.1944C136.829 11.2633 137.606 10.3066 138.736 10.7868C138.933 10.8708 139.185 10.6775 139.412 10.6176C139.561 10.577 139.761 10.437 139.853 10.527C140.31 10.9857 140.57 10.8198 140.853 10.1117C141.046 9.62793 142.117 9.77362 142.532 10.2272C143.053 10.7962 144.095 10.8156 144.66 10.2647C145.115 9.82245 145.902 10.0351 146.276 10.6804C146.34 10.7887 146.462 10.8187 146.557 10.8837C146.6 10.6437 146.643 10.4038 146.734 9.90511C147.195 10.1942 147.655 10.4979 148.124 10.7682C148.264 10.8489 148.429 10.8903 148.58 10.877C149.706 10.7662 150.859 10.3649 151.948 10.5927C152.962 10.8041 153.94 10.4596 154.93 10.616C155.154 10.6525 155.398 10.459 155.637 10.4853C156.648 10.9711 157.618 10.4609 158.586 9.96106C158.726 10.3246 158.869 10.6903 159.01 11.0559L159.143 10.9856C159.136 10.7193 159.127 10.4552 159.122 10.2811C159.966 10.1347 160.761 9.97455 161.558 9.87521C161.714 9.85568 161.887 10.0461 162.038 10.1752C162.341 10.4334 162.636 10.7145 162.935 10.9874C162.833 12.305 163.846 11.89 164.033 12.8098C164.39 12.2752 164.652 11.8663 164.101 11.5396C163.719 11.3151 163.311 11.1844 162.914 11.012C163.014 10.92 163.15 10.8623 163.207 10.7295C163.74 9.51802 164.318 10.3691 164.906 10.5332C165.38 10.6655 165.885 10.5847 166.376 10.5958C166.578 10.6003 166.792 10.5318 166.977 10.6135C167.468 10.8278 167.921 10.9952 168.446 10.6299C168.679 10.4676 169.054 10.585 169.315 10.7459C169.798 11.0438 170.232 11.5523 170.754 10.8056C170.788 10.7582 171.116 11.1427 171.293 11.3521C171.639 11.7621 171.963 12.222 172.328 12.5885C172.395 12.655 172.617 12.3813 172.772 12.2633C172.487 11.9552 172.263 11.7113 172.039 11.4695C172.183 11.3512 172.327 11.235 172.469 11.1188C172.401 10.9916 172.322 10.8431 172.242 10.6968C172.275 10.6284 172.308 10.56 172.341 10.4916C172.579 10.7127 172.809 10.961 173.06 11.1468C173.165 11.2246 173.314 11.1756 173.444 11.1827C173.43 10.9498 173.416 10.717 173.393 10.354C174.781 10.5823 176.229 10.3887 177.767 11.1714C178.12 11.0809 178.676 10.9405 179.23 10.798L179.289 11.1827C178.977 11.2972 178.662 11.3885 178.356 11.5346C178.16 11.6286 177.812 11.8449 177.821 11.9352C177.862 12.3552 177.994 12.7583 178.121 13.1488C178.136 13.1931 178.374 13.167 178.418 13.0759C178.534 12.8375 178.599 12.5457 178.679 12.294C178.895 12.2674 179.187 12.2321 179.518 12.1893C179.586 12.4653 179.66 12.7708 179.667 12.794C180.013 12.7473 180.249 12.7086 180.486 12.6868C180.741 12.6611 180.997 12.6522 181.237 12.6367C181.005 12.116 180.773 11.7274 180.662 11.2703C180.621 11.1017 180.831 10.6455 180.99 10.5423C181.253 10.3701 181.569 10.3877 181.86 10.3021C182.158 10.2146 182.45 10.0473 182.747 10.0058C183.06 9.96257 183.377 10.0263 183.693 10.0502C184.379 10.1013 185.073 10.2887 185.747 10.1678C186.279 10.073 186.638 10.2801 187.018 10.7328C187.204 10.9528 187.463 11.032 187.696 11.1797C187.464 11.3295 187.157 11.4881 186.877 11.7206C186.685 11.8797 186.529 12.1402 186.358 12.3563C186.532 12.5614 186.707 12.7664 186.997 13.1061C187.166 13.6735 185.852 13.7339 186.522 14.7589C186.869 14.4797 187.221 14.2258 187.548 13.9168C187.642 13.8267 187.731 13.5626 187.719 13.399C187.627 12.2593 187.915 11.677 188.719 11.7622C188.799 11.7703 188.886 11.6654 189.018 11.5825C188.942 11.2958 188.875 11.0429 188.746 10.5602C189.311 10.8621 189.746 11.0961 190.182 11.3301L190.127 11.1089C190.817 10.8437 191.499 10.526 192.196 10.3281C192.919 10.1223 193.657 10.0593 194.384 9.8872C195.114 9.71303 195.409 10.1177 195.357 11.1914C195.338 11.5911 195.419 12.3283 195.51 12.3471C195.875 12.4161 196.263 12.2635 196.676 12.187C196.608 11.8879 196.601 11.8543 196.593 11.8206C196.459 11.2477 195.593 11.9572 195.798 10.8577C195.896 10.332 197.109 9.79995 197.514 9.98719C197.957 10.192 198.407 10.3656 198.994 10.6093C199.032 10.7568 199.136 11.1614 199.254 11.6229C199.496 11.5467 199.715 11.4783 199.949 11.404C200.082 11.8323 200.212 12.2584 200.389 12.8323C201.176 11.9533 201.977 12.5204 202.822 12.6295C202.741 13.2604 201.766 13.3704 202.326 14.1624C202.51 14.4222 203.11 14.0314 203.647 13.9073C203.445 13.4481 203.331 13.192 203.321 13.1687C203.814 12.8279 204.326 12.4686 204.84 12.1178C205.283 11.8156 205.771 11.6905 205.809 10.6458C205.817 10.3967 206.6 9.95555 206.983 10.0333C207.271 10.0901 207.93 10.26 207.755 11.2429C207.648 11.8481 207.85 12.0621 208.183 11.9502C208.547 11.8264 208.891 11.5639 209.285 11.1119C208.881 11.0378 208.475 10.9658 207.887 10.8583C208.13 10.3107 208.27 9.65385 208.524 9.52342C208.786 9.39105 209.153 9.80997 209.486 9.91806C209.89 10.0508 210.306 10.1838 210.717 10.1847C211.053 10.186 211.39 9.94846 211.731 9.90378C211.951 9.87523 212.179 9.9998 212.376 10.0503L216.817 10.1506C216.822 10.224 216.828 10.2996 216.833 10.373C216.521 10.4372 216.209 10.4993 215.817 10.5785C215.663 11.4487 214.515 10.9974 214.494 12.3441C214.49 12.5975 214.558 12.8505 214.623 13.3275C215.056 12.7863 215.385 12.3768 215.75 11.9199C216.454 12.403 217.04 11.6096 217.35 10.8917C217.781 9.89162 218.3 9.95153 218.89 9.96066C219.094 9.96527 219.298 10.0097 219.536 10.0402C219.441 11.2218 218.038 10.5239 218.243 11.9909C219.091 11.5617 219.944 11.1305 220.797 10.6993C220.508 11.0587 220.539 11.6195 220.888 12.3816C221.482 11.3957 222.12 11.6636 222.792 12.1732C223.111 12.415 223.495 12.4761 223.85 12.6182C223.911 12.8542 223.926 13.1961 224.042 13.3076C224.489 13.7388 224.963 14.1015 225.433 14.4746C225.547 14.5651 225.681 14.5975 225.98 14.7383C225.042 13.414 225.103 12.8078 226.129 12.0893C225.484 11.7228 224.839 11.3541 224.197 10.9876C224.071 11.5568 223.951 12.1051 223.829 12.6512L223.811 12.6466ZM159.032 16.3486C158.978 16.6638 158.923 16.9789 158.884 17.2085C159.197 17.4125 159.43 17.5644 159.794 17.8031C159.912 17.3993 160.208 16.8759 160.141 16.5098C160.001 15.7378 159.547 16.2136 159.211 16.2919C159.144 16.3071 159.078 16.3476 159.012 16.3775C158.835 15.6675 158.659 14.9574 158.468 14.1884C158.083 14.8816 157.758 15.4693 157.458 16.0093C157.805 16.7316 158.15 17.4496 158.494 18.1697C158.566 18.1147 158.638 18.0598 158.709 18.0049C158.678 17.7695 158.669 17.5221 158.612 17.3029C158.45 16.6791 158.62 16.4043 159.031 16.3507L159.032 16.3486ZM240.088 14.3068C239.517 13.6088 238.946 13.4513 238.246 13.8001C237.762 14.0406 237.211 13.9464 236.703 14.1005C236.51 14.159 236.34 14.4799 236.189 14.7216C236.172 14.7505 236.339 15.0371 236.386 15.1304C236.602 14.8629 236.755 14.6443 236.932 14.4828C236.959 14.4582 237.172 14.7438 237.157 14.7874C237.072 15.0495 236.954 15.292 236.832 15.5218C236.655 15.8509 236.465 16.1629 236.268 16.5042C237.191 16.2925 238.25 17.211 239.062 15.637C238.969 15.4715 238.876 15.3584 238.834 15.2129C238.729 14.8648 238.645 14.5005 238.567 14.1363C238.566 14.1278 238.72 14.0391 238.801 13.9886C238.877 14.2941 238.916 14.6365 239.037 14.8969C239.165 15.1722 239.367 15.3695 239.537 15.6017C239.638 15.3965 239.749 15.2 239.84 14.9842C239.935 14.7642 240.01 14.525 240.089 14.3068L240.088 14.3068ZM265.433 16.4859C265.815 16.174 266.293 15.8077 266.749 15.3864C266.819 15.323 266.84 14.9694 266.79 14.8258C266.74 14.6822 266.578 14.5989 266.453 14.55C266.066 14.3967 265.659 14.3331 265.289 14.1236C264.659 13.7658 264.219 14.3026 263.787 14.8104C263.709 14.9029 263.743 15.507 263.827 15.5655C264.291 15.8944 264.785 16.1298 265.434 16.4859L265.433 16.4859ZM150.827 11.1603C150.813 11.2417 150.798 11.3251 150.784 11.4065C150.963 11.5887 151.141 11.7729 151.298 11.9314C150.7 12.161 150.13 12.3597 149.569 12.611C149.45 12.6649 149.37 12.9166 149.272 13.0757C149.405 13.1793 149.554 13.4005 149.667 13.3612C149.952 13.2608 150.271 12.8154 150.484 12.9166C151.169 13.2422 151.355 12.3769 151.723 11.9389C152.872 13.1088 154.092 12.9499 154.652 11.3367C154.361 11.5271 154.198 11.6701 154.025 11.7416C153.68 11.8826 153.3 12.161 152.985 12.0617C152.518 11.915 152.107 11.4343 151.647 11.1998C151.401 11.0748 151.103 11.1665 150.827 11.1603ZM272.471 15.1258C271.963 14.1862 271.354 14.403 270.809 14.7992C270.292 15.1772 270.246 14.8472 270.257 14.2399C270.26 14.087 270.264 13.9363 270.265 13.8923C269.795 14.2358 269.339 14.5146 268.931 14.9097C268.841 14.9978 268.871 15.7255 268.93 15.752C269.272 15.9042 269.641 16.0089 269.996 15.9834C270.481 15.9504 270.997 15.5786 271.436 15.7331C271.92 15.9012 272.182 15.7625 272.471 15.1258ZM284.322 10.9476C283.572 10.8636 282.898 10.7897 282.124 10.7031C282.09 11.0711 281.918 11.6895 282.043 11.885C282.228 12.1741 282.623 12.1642 282.951 12.291C282.806 12.5391 282.666 12.7769 282.513 13.0375C283.283 13.5158 284.368 12.103 284.323 10.9476L284.322 10.9476ZM152.345 15.3973C151.244 15.6239 150.172 15.8448 148.921 16.1036C149.258 16.6056 149.437 16.968 149.677 17.1892C149.808 17.3116 150.196 17.2365 150.205 17.1759C150.298 16.5181 150.617 16.6824 150.907 16.6219C151.489 16.4989 152.07 16.3339 152.639 16.1037C152.803 16.0383 152.954 15.7253 153.048 15.474C153.097 15.3452 153.041 14.9689 152.976 14.936C152.748 14.8177 152.497 14.7974 152.176 14.7231C152.256 15.0454 152.306 15.2435 152.345 15.3973ZM295.473 13.4076C295.392 13.7807 295.36 14.1132 295.252 14.3747C295.15 14.6238 294.968 14.802 294.821 15.0124C295.035 15.1408 295.253 15.3908 295.462 15.3725C296.089 15.3133 296.715 15.162 297.338 15.0189C297.529 14.975 297.711 14.845 297.897 14.755C297.695 14.5576 297.506 14.3208 297.287 14.1776C297.099 14.0539 296.771 14.1408 296.691 13.9547C296.35 13.1487 295.919 13.0845 295.471 13.4075L295.473 13.4076ZM281.104 14.4261C281.117 14.3405 281.132 14.2529 281.145 14.1673C280.218 13.5786 279.265 13.1506 278.031 13.4768C278.266 13.7922 278.418 14.0156 278.584 14.2121C278.721 14.3744 278.986 14.4747 279.005 14.6532C279.122 15.76 279.72 15.4529 280.148 15.4521C280.246 15.4522 280.352 14.6878 280.477 14.1878C280.602 14.2367 280.853 14.3325 281.104 14.4282L281.104 14.4261ZM212.442 13.8817C212.349 13.8063 212.254 13.7287 212.161 13.6532C211.996 14.056 211.884 14.7008 211.656 14.8193C210.943 15.1908 211.583 15.8212 211.444 16.2664C211.724 16.4466 212.001 16.763 212.286 16.7715C212.644 16.7838 213.009 16.5448 213.45 16.385C213.357 15.9513 213.24 15.4103 213.122 14.8671C212.797 15.0085 212.463 15.1539 212.028 15.341C212.207 14.7123 212.324 14.2959 212.442 13.8817ZM228.866 13.5359C229.449 13.7942 229.638 13.2999 229.592 12.643C229.566 12.28 229.337 11.9543 229.199 11.6139C228.955 11.9184 228.684 12.191 228.472 12.5403C228.244 12.9143 228.036 13.3328 227.884 13.782C227.761 14.1479 227.602 14.7079 227.702 14.9616C227.843 15.3146 228.21 15.4612 228.48 15.6978L228.574 15.4547C228.325 15.1977 228.076 14.9407 227.828 14.6816C227.836 14.5665 227.844 14.4494 227.852 14.3343C228.163 14.2659 228.474 14.1975 228.852 14.1139C228.851 14.1327 228.857 13.8793 228.865 13.538L228.866 13.5359ZM309.825 13.3042C309.516 13.7518 309.247 14.1313 308.986 14.5234C308.868 14.7009 308.765 14.9018 308.654 15.0942C308.816 15.234 308.971 15.468 309.142 15.4949C309.563 15.561 309.993 15.533 310.457 15.5434C310.736 14.8416 310.425 13.8038 309.825 13.3042ZM144.748 17.3398C144.783 17.2065 144.818 17.0753 144.852 16.942C144.473 16.5772 144.121 16.1021 143.706 15.8811C143.289 15.658 142.81 15.6891 142.445 15.6243C142.369 15.3439 142.307 15.112 142.243 14.8823C142.009 15.3295 141.774 15.7767 141.54 16.224C141.567 16.321 141.595 16.4159 141.622 16.5129C142.11 16.5239 142.606 16.6189 143.084 16.5186C143.472 16.4373 143.768 16.2974 144.04 16.9027C144.159 17.1673 144.505 17.2002 144.747 17.3377L144.748 17.3398ZM213.99 15.4565C214.306 16.7626 214.943 16.8315 215.606 15.8199C215.825 15.4875 216.068 15.1913 216.37 14.7874C215.492 14.3318 214.803 15.2193 213.99 15.4565ZM201.247 15.7848C200.86 15.2858 200.563 14.9041 200.214 14.4541C199.575 14.2637 199.672 16.3673 198.723 15.7509C198.899 16.0733 199.088 16.308 199.282 16.3145C199.801 16.3304 200.323 16.2689 200.841 16.1863C200.971 16.1662 201.09 15.9489 201.247 15.7869L201.247 15.7848ZM169.083 15.2472C168.735 15.5641 168.422 15.8462 168.01 16.2224C168.186 16.572 168.316 17.1155 168.512 17.1702C169.059 17.3229 169.615 17.2077 169.922 16.2488C169.643 15.9156 169.379 15.6017 169.084 15.2494L169.083 15.2472ZM133.313 15.5061C132.233 15.6766 131.363 15.8162 130.322 15.9812C130.964 16.3854 131.529 16.7418 132.104 17.1046C132.43 16.6741 132.799 16.1859 133.313 15.5082L133.313 15.5061ZM143.826 11.4422C143.79 11.8772 143.761 12.2348 143.732 12.5693C144.67 13.8581 144.9 11.7807 145.548 11.6864C145.603 11.6793 145.637 11.3029 145.657 11.2091C145.002 11.2928 144.439 11.3639 143.826 11.4422ZM345.313 15.2136C345.553 15.1855 345.741 15.1646 345.812 15.1558C345.996 15.5685 346.141 15.8944 346.37 16.4087C346.424 15.8756 346.45 15.6185 346.468 15.4387C346.747 15.3717 346.978 15.3392 347.194 15.2373C347.227 15.2212 347.233 14.7374 347.18 14.7006C346.845 14.473 346.493 14.1844 346.138 14.1638C345.772 14.1408 345.359 14.3389 345.314 15.2137L345.313 15.2136ZM176.931 15.8099C176.885 15.723 176.838 15.6381 176.793 15.5512C176.177 15.6923 175.561 15.8314 174.883 15.9858C175.231 17.1187 175.803 17.1253 176.3 16.9312C176.555 16.8322 176.722 16.2012 176.929 15.8099L176.931 15.8099ZM303.132 11.4141C303.188 10.4663 302.712 10.6797 302.385 10.6158C301.9 10.521 301.529 10.741 301.398 11.5887C302.015 12.1746 302.591 12.1855 303.132 11.4141ZM169.136 12.9752C168.615 12.6597 168.23 12.5274 167.927 12.2168C167.361 11.6362 166.88 11.8474 166.255 12.42C166.662 12.5549 167.025 12.5149 167.207 12.7662C167.773 13.5479 168.359 13.1735 169.136 12.9752ZM361.967 14.7683C361.487 14.7072 361.02 14.6485 360.551 14.5876C360.099 14.5313 359.625 14.4033 359.58 15.5609C359.807 15.3439 360.034 15.127 360.287 14.8876C360.601 15.3053 360.93 15.7422 361.264 16.1855C361.529 15.651 361.742 15.2242 361.967 14.7683ZM290.867 15.8659C290.875 14.1963 290.244 13.8468 289.115 14.6929C289.161 15.0312 289.206 15.3696 289.271 15.8487C289.826 14.9813 290.346 15.1984 290.865 15.8658L290.867 15.8659ZM249.334 13.6502C248.998 13.5924 248.711 13.5335 248.424 13.4977C248.261 13.4773 248.097 13.4903 247.932 13.4866C248 13.7689 248.025 14.2429 248.142 14.2979C248.698 14.5535 249.28 14.6924 249.853 14.875C249.891 14.7669 249.928 14.6588 249.966 14.5507C249.737 14.225 249.506 13.8992 249.334 13.6523L249.334 13.6502ZM174 14.9434C173.533 15.0188 173.059 15.0961 172.478 15.1898C172.893 15.7711 173.22 16.2269 173.635 16.8082C173.819 16.5819 174.068 16.2753 174.248 16.0531C174.146 15.5962 174.066 15.2403 174 14.9434ZM88.6898 14.2242C88.7189 13.6781 88.7558 12.975 88.794 12.2719C88.6978 12.2592 88.6029 12.2487 88.5066 12.2361C88.4719 12.6585 88.528 13.3365 88.3855 13.4506C88.1006 13.6788 87.7079 13.5966 87.3389 13.6469C87.3013 14.0085 87.2634 14.389 87.2313 14.6921C87.6823 14.5472 88.1064 14.4122 88.6898 14.2242ZM158.186 13.0779C158.656 12.6486 159.091 12.2519 159.527 11.8532L159.464 11.5271C159.271 11.5437 159.046 11.4736 158.888 11.5958C158.557 11.8523 158.31 12.1673 157.875 11.8327C157.685 11.686 157.104 11.7943 157.073 12.7972C157.43 12.5895 157.677 12.4442 157.945 12.2889C158.027 12.5547 158.1 12.7931 158.187 13.0779L158.186 13.0779ZM116.327 15.7051C116.373 15.8444 116.403 16.0567 116.488 16.1801C116.959 16.8654 117.422 16.6894 117.867 16.0625C118.015 15.8542 118.159 15.6396 118.306 15.4271C118.079 15.378 117.846 15.2554 117.626 15.2986C117.203 15.3792 116.788 15.5562 116.327 15.7051ZM248.651 15.6566C249.438 16.3029 250.319 16.195 250.798 15.395C250.137 14.7557 249.03 14.89 248.651 15.6566ZM191.331 15.8165C190.727 15.4363 190.193 15.0995 189.659 14.7627C189.726 16.5869 189.831 16.847 190.399 16.6608C190.325 16.5606 190.245 16.4499 190.202 16.3882C190.566 16.2036 190.911 16.0291 191.331 15.8165ZM146.444 15.8256C146.467 15.9707 146.491 16.1179 146.514 16.263C146.904 16.2718 147.38 16.4899 147.658 16.228C147.913 15.9866 147.954 15.2291 148.089 14.7L147.915 14.6206C147.425 15.0223 146.933 15.4239 146.443 15.8256L146.444 15.8256ZM111.027 14.8647C110.273 15.076 109.703 15.4047 109.583 16.5752C109.837 16.7507 110.101 16.9305 110.331 17.0887C110.567 16.3314 110.783 15.6449 111.029 14.8647L111.027 14.8647ZM185.138 14.7486C185.052 14.8137 184.965 14.8767 184.879 14.9418C184.865 15.5805 184.839 16.2168 184.852 16.854C184.853 16.9274 185.072 17.0601 185.176 17.0331C185.392 16.9751 185.597 16.8268 185.928 16.6499C185.629 15.9309 185.385 15.3408 185.14 14.7486L185.138 14.7486ZM117.726 16.3275C118.453 17.5109 119.13 17.3962 119.869 15.9401C119.206 16.0592 118.543 16.1804 117.726 16.3275ZM123.192 16.9935C123.34 16.6051 123.447 16.3247 123.529 16.1086C123.963 16.3614 124.342 16.5816 124.722 16.8039C124.747 16.7332 124.773 16.6646 124.8 16.594C124.616 16.1143 124.432 15.6346 124.267 15.2034C123.905 15.3817 123.567 15.4851 123.269 15.711C122.905 15.9877 122.742 16.3988 123.192 16.9914L123.192 16.9935ZM290.088 12.5674C289.388 13.0167 288.722 13.4437 287.896 13.974C289.027 14.3368 290.095 13.6151 290.088 12.5674ZM301.883 14.9246L302.075 14.9289C302.081 14.6504 302.072 14.3715 302.098 14.0977C302.124 13.807 302.184 13.5213 302.223 13.2645C302.021 13.2181 301.82 13.1465 301.616 13.1335C301.367 13.1195 301.113 13.1159 300.873 13.1984C300.824 13.2162 300.83 13.627 300.811 13.857C301.061 13.848 301.313 13.8369 301.564 13.8321C301.604 13.833 301.645 13.8549 301.683 13.8662C301.751 14.2239 301.819 14.5732 301.885 14.9246L301.883 14.9246ZM312.838 14.3716L313.096 15.4228C314.045 15.4443 314.29 15.257 314.457 14.2342C313.908 14.2805 313.362 14.3268 312.839 14.3716L312.838 14.3716ZM304.881 13.6388C304.027 12.9575 303.667 13.3788 303.402 14.1376C303.336 14.3247 303.324 14.5506 303.286 14.7593C303.457 14.7904 303.672 14.9335 303.791 14.8294C304.14 14.523 304.453 14.1173 304.879 13.6388L304.881 13.6388ZM214.171 12.3724C213.958 12.0031 213.812 11.5263 213.576 11.3952C213.313 11.251 212.966 11.392 212.666 11.4878C212.614 11.5055 212.569 12.1016 212.594 12.1127C212.835 12.2312 213.088 12.304 213.343 12.3454C213.569 12.3819 213.799 12.3619 214.171 12.3703L214.171 12.3724ZM183.416 10.3435C183.035 11.3301 183.157 11.9635 183.58 12.4696C183.69 12.602 183.996 12.6717 184.029 12.597C184.131 12.3626 184.24 11.9607 184.172 11.7748C183.987 11.2866 183.711 10.8802 183.418 10.3457L183.416 10.3435ZM277.43 13.4088L277.599 13.2282C277.584 12.7628 277.568 12.2973 277.547 11.6264L276.231 11.5967L276.224 11.9171L276.819 11.9305C276.777 12.0029 276.734 12.0731 276.692 12.1455C276.938 12.568 277.185 12.9884 277.431 13.4109L277.43 13.4088ZM196.011 16.1506C196.083 16.2025 196.154 16.2544 196.226 16.3063C196.582 15.5852 197.47 15.5571 197.387 14.0949C196.929 14.4617 196.504 14.714 196.16 15.1231C196.018 15.2917 196.054 15.7975 196.01 16.1505L196.011 16.1506ZM260.476 12.0748C260.906 12.3003 261.258 12.5283 261.629 12.6561C261.785 12.7099 262.052 12.6342 262.129 12.4704C262.211 12.2984 262.167 11.9266 262.101 11.6904C262.048 11.5007 261.88 11.3858 261.858 11.3581C261.336 11.6271 260.924 11.8419 260.476 12.0727L260.476 12.0748ZM212.151 12.618C211.671 12.4207 211.477 12.3409 211.183 12.2212C211.067 12.8596 210.958 13.4585 210.851 14.0574L211.056 14.1207C211.378 13.6775 211.7 13.2364 212.151 12.618ZM189.211 15.1045C188.755 15.31 188.385 15.6118 188.622 16.3923C188.689 16.6117 189.13 16.8354 189.219 16.7263C189.616 16.2388 189.512 15.6644 189.211 15.1045ZM257.097 15.114C257.031 15.0161 256.964 14.9182 256.898 14.8204C256.39 15.9403 255.89 14.9694 255.366 14.9492C255.572 15.333 255.791 15.5915 256.03 15.8022C256.241 15.9872 256.598 16.3304 256.676 16.2295C256.879 15.9681 256.965 15.5007 257.098 15.1161L257.097 15.114ZM134.431 11.0772C134.28 11.4404 134.12 11.6777 134.151 11.779C134.29 12.2263 134.484 12.635 134.658 13.0559C134.793 12.7803 135.071 12.4304 135.03 12.243C134.946 11.8556 134.693 11.5566 134.431 11.0772ZM187.293 16.4733C187.574 17.8981 187.613 17.9744 188.045 17.63C188.238 17.4752 188.343 17.0648 188.487 16.7706C188.119 16.6785 187.752 16.5885 187.293 16.4733ZM228.045 11.0787C227.944 10.9968 227.844 10.917 227.744 10.8352C227.492 11.2087 227.239 11.5822 226.987 11.9536C227.245 12.0935 227.505 12.2335 227.764 12.3734C227.857 11.9418 227.951 11.5103 228.045 11.0787ZM126.137 11.6441C125.648 12.1108 125.237 12.5038 124.828 12.8968L124.942 13.2367C125.451 13.0177 125.96 12.8008 126.533 12.5519C126.363 12.1626 126.258 11.9192 126.137 11.6421L126.137 11.6441ZM300.624 13.1363C300.548 13.0905 300.472 13.0448 300.396 12.9991C300.127 13.4707 299.836 13.9188 299.602 14.4268C299.53 14.5823 299.614 14.8943 299.625 15.1355C299.766 15.0905 299.988 15.1122 300.034 14.9897C300.256 14.3934 300.431 13.7583 300.624 13.1383L300.624 13.1363ZM254.255 13.7487L254.247 14.2074C254.618 14.2158 254.99 14.2577 255.356 14.2052C255.432 14.1944 255.489 13.8269 255.556 13.6231C255.427 13.5469 255.292 13.3867 255.173 13.4133C254.862 13.4817 254.559 13.632 254.253 13.7487L254.255 13.7487ZM182.577 15.9269C182.638 15.9555 182.699 15.9841 182.76 16.0148L183.012 14.5686C182.733 14.5246 182.456 14.4806 182.117 14.4269C182.328 15.1168 182.452 15.5218 182.577 15.9269ZM308.399 13.7769C308.374 13.571 308.338 13.1344 308.318 13.1361C307.781 13.1952 307.246 13.2962 306.711 13.3931C306.718 13.5085 306.724 13.6238 306.731 13.7392L308.399 13.7769ZM332.362 14.2173C331.965 13.827 331.599 13.7999 331.292 14.3335C331.225 14.4493 331.297 14.9622 331.38 15.0101C331.857 15.2849 332.157 14.9334 332.362 14.2173ZM140.664 17.2832C140.56 16.5098 140.096 16.2214 139.274 16.418C139.692 16.6788 140.108 16.9375 140.664 17.2832ZM258.56 15.5576C258.611 15.586 258.664 15.6166 258.715 15.6449C258.881 15.1626 259.049 14.6804 259.267 14.0442C258.935 14.1352 258.763 14.1313 258.624 14.2329C258.39 14.4015 258.179 14.6356 257.959 14.8422C258.006 14.9313 258.053 15.0182 258.1 15.1073C258.239 14.9701 258.378 14.8307 258.581 14.63L258.56 15.5576ZM324.662 13.1866C324 13.2429 323.504 13.2861 323.008 13.3273L323.01 13.65C323.517 13.3304 324.013 14.8543 324.662 13.1866ZM321.707 14.6912C321.4 13.6681 320.848 14.0747 320.395 14.0603C320.342 14.0591 320.225 14.3267 320.241 14.4381C320.256 14.56 320.388 14.7285 320.474 14.7325C320.871 14.7477 321.267 14.7106 321.708 14.6912L321.707 14.6912ZM225.233 9.7833C225.116 10.1243 225.017 10.4174 224.828 10.9726C225.352 10.8273 225.704 10.7304 226.057 10.6337C226.063 10.5479 226.068 10.4621 226.074 10.3763C225.81 10.1902 225.544 10.004 225.234 9.78542L225.233 9.7833ZM316.059 11.5384C315.581 11.0415 315.238 10.686 314.874 10.309C314.653 11.2364 314.956 11.5742 316.059 11.5384ZM376.131 15.4212C376.103 15.6364 376.076 15.8495 376.049 16.0647C376.331 16.1863 376.613 16.3079 376.895 16.4295C376.902 16.1258 376.969 15.5994 376.901 15.558C376.67 15.4208 376.391 15.4522 376.131 15.4191L376.131 15.4212ZM336.338 13.9069C336.328 13.9632 336.274 14.1862 336.286 14.1949C336.678 14.4509 337.074 14.6945 337.479 14.8985C337.508 14.9138 337.676 14.5908 337.669 14.444C337.66 14.3118 337.508 14.1344 337.401 14.1027C337.084 14.0096 336.76 13.9793 336.338 13.9069ZM165.312 14.9086C165.42 16.409 165.582 16.6012 166.258 16.1556L165.312 14.9086ZM263.018 13.7015L262.885 13.1475C262.58 13.3144 262.275 13.4815 261.969 13.6484C262.08 13.8311 262.21 14.1902 262.295 14.1649C262.545 14.091 262.778 13.8678 263.018 13.7015ZM174.714 12.4035C174.641 12.2175 174.569 12.0336 174.497 11.8476C174.248 12.0263 173.986 12.1755 173.766 12.4135C173.733 12.4484 173.894 12.892 173.967 13.1472C174.216 12.8993 174.465 12.6514 174.715 12.4014L174.714 12.4035ZM290.756 10.59C290.712 10.6917 290.669 10.7934 290.625 10.895C290.766 11.1433 290.965 11.636 291.036 11.5957C291.304 11.4467 291.529 11.1208 291.771 10.8622C291.736 10.7588 291.699 10.6532 291.664 10.5497C291.361 10.5618 291.059 10.5759 290.756 10.5879L290.756 10.59ZM271.887 14.4066L272.051 13.9766C271.735 13.6364 271.418 13.2961 271.103 12.9559L270.888 13.4412C271.22 13.763 271.554 14.0848 271.887 14.4066ZM286.685 14.8894C286.296 14.7759 285.989 13.7445 285.528 14.5972C285.932 14.6168 286.206 15.6999 286.685 14.8894ZM222.902 15.0418C222.936 15.2311 222.969 15.4225 223.003 15.6118C223.252 15.5483 223.501 15.4848 223.749 15.4212C223.697 15.1833 223.628 14.7334 223.597 14.7411C223.361 14.7923 223.133 14.9317 222.902 15.0439L222.902 15.0418ZM304.672 15.4694C304.711 15.5834 304.749 15.6974 304.788 15.8114C305.087 15.5479 305.385 15.2844 305.795 14.9228C305.428 14.726 305.239 14.6253 305.069 14.5335C304.927 14.8697 304.8 15.1706 304.673 15.4715L304.672 15.4694ZM369.314 14.9552C369.57 14.6509 369.767 14.4165 369.966 14.18C369.842 14.0704 369.722 13.877 369.594 13.8657C369.385 13.8485 369.172 13.9505 368.938 14.006C369.062 14.3167 369.152 14.5429 369.314 14.9531L369.314 14.9552ZM185.113 12.6404C185.052 12.683 184.99 12.7235 184.929 12.7661C185.024 13.1663 185.082 13.6055 185.236 13.9484C185.291 14.0691 185.579 13.9498 185.891 13.9339C185.557 13.3795 185.336 13.0099 185.115 12.6425L185.113 12.6404ZM198.293 12.0538C197.393 11.7883 197.337 11.8814 197.536 13.0738C197.808 12.707 198.051 12.3793 198.293 12.0538ZM190.922 11.7721L191.011 12.0654C191.295 11.9838 191.578 11.9022 191.859 11.8205C191.856 11.722 191.851 11.6213 191.848 11.5228C191.666 11.3427 191.482 11.1646 191.259 10.9438C191.127 11.2656 191.024 11.5188 190.922 11.77L190.922 11.7721ZM126.784 15.4991C126.345 15.8768 125.994 16.1768 125.644 16.479C125.691 16.5932 125.738 16.7095 125.785 16.8237C126.301 16.8731 126.582 16.4122 126.784 15.4991ZM219.091 14.6918L218.836 14.7049L218.612 15.7034C218.821 15.7039 219.031 15.7065 219.239 15.707C219.189 15.3686 219.14 15.0302 219.09 14.6917L219.091 14.6918ZM211.268 11.6218L211.221 11.363C211.032 11.3588 210.84 11.3167 210.656 11.3607C210.495 11.4011 210.345 11.5381 210.19 11.6331C210.348 11.7665 210.509 12.0174 210.662 12.002C210.867 11.9815 211.066 11.7576 211.267 11.6197L211.268 11.6218ZM86.3052 15.3164C86.0093 15.5339 85.6636 15.7901 85.3179 16.0442C85.4072 16.1761 85.4951 16.3101 85.5845 16.442C86.1409 16.4587 86.3256 15.9601 86.3052 15.3164ZM273.135 11.6902C273.229 11.6001 273.325 11.5101 273.419 11.4201C273.338 11.1647 273.29 10.7467 273.167 10.6916C273.005 10.6188 272.782 10.8316 272.585 10.9215C272.768 11.177 272.952 11.4346 273.135 11.6902ZM328.51 10.5393C328.027 10.8804 327.667 11.1321 327.307 11.3858C327.349 11.5062 327.39 11.6286 327.432 11.749C327.664 11.1383 328.397 11.9426 328.51 10.5393ZM76.0171 14.4703L76.1474 13.9662C75.8851 13.8095 75.6243 13.6527 75.362 13.496C75.3418 13.7092 75.2678 14.0742 75.3118 14.1087C75.529 14.277 75.7776 14.3581 76.0157 14.4703L76.0171 14.4703ZM194.19 15.4223C194.251 15.4823 194.313 15.5445 194.376 15.6045C194.416 15.4902 194.436 15.3398 194.498 15.2658C194.704 15.0211 194.923 14.8019 195.189 14.5188C195.167 14.4324 195.107 14.1964 194.984 13.7096C194.664 14.4001 194.426 14.9101 194.19 15.4223ZM274.301 14.4401L274.576 14.7229C274.716 14.3259 274.865 13.9354 274.986 13.5254C274.996 13.49 274.835 13.3439 274.753 13.2499C274.603 13.6466 274.452 14.0434 274.302 14.4402L274.301 14.4401Z" fill="#FEF7F1"/>
</g>
<defs>
<clipPath id="clip0_600_3362">
<rect width="387.633" height="23.5346" fill="white" transform="translate(1.03781 0.222656) rotate(1.29328)"/>
</clipPath>
</defs>
</svg>
