<svg width="677" height="28" viewBox="0 0 677 28" fill="none" xmlns="http://www.w3.org/2000/svg">
<g clip-path="url(#clip0_392_2406)">
<path d="M389.79 8.61176C388.653 7.31373 387.216 6.57932 385.464 6.43292L385.503 6.09622C386.138 6.09622 386.801 6.21577 387.399 6.06938C388.316 5.84003 389.197 5.45452 390.07 5.08366C390.746 4.79575 391.368 4.21749 392.054 4.14673C393.513 3.99302 394.999 4.03206 396.47 4.10526C396.89 4.12721 397.273 4.58348 397.705 4.76403C398.239 4.98606 398.822 5.08366 399.354 5.31057C399.971 5.57164 400.554 5.91322 401.142 6.21333C400.771 7.76755 400.903 7.82611 402.511 7.47964C403.484 7.26981 404.241 6.89895 404.775 6.05962C405.083 5.57408 405.427 5.30569 406.08 5.65459C406.373 5.81075 406.912 5.71559 407.249 5.54968C407.993 5.18125 408.581 5.24225 409.272 5.72291C409.535 5.9059 410.109 5.64971 410.787 5.56188C411.577 6.24993 412.436 6.11818 413.334 5.08854C413.685 4.68595 414.317 4.5298 414.822 4.26141C414.995 4.81527 416.301 4.59324 415.791 5.72779C415.72 5.88639 415.881 6.59884 415.871 7.08194C415.859 7.58944 416.047 8.38241 416.757 7.87735C417.616 7.26737 418.396 7.07462 419.375 7.38937C419.563 7.45036 419.831 7.26005 419.904 7.46988C420.204 7.67484 420.673 8.12134 420.778 8.04814C421.944 7.23565 423.022 7.86515 423.998 8.30921C424.952 8.74107 425.513 8.53856 425.935 7.94566C425.567 7.45768 425.252 7.04046 425.13 6.87699C424.279 6.79891 423.532 6.72083 422.786 6.66228C422.034 6.60372 421.266 6.63056 420.531 6.4866C420.087 6.40121 419.643 6.11818 419.307 5.80831C419.211 5.72047 419.421 5.02022 419.609 4.95922C420.124 4.79087 420.724 4.69571 421.246 4.79819C421.624 4.87139 421.934 5.30569 422.349 5.63996C422.62 5.29105 422.859 4.98362 422.908 4.92018C423.701 4.87139 424.284 4.86895 424.855 4.79087C426.45 4.57616 428.017 4.59812 429.524 5.26421C430.269 5.02754 431.013 4.79331 432.081 4.45416C432.464 5.26665 433.018 6.13282 433.267 7.07706C433.452 7.78219 433.555 8.01886 434.353 7.87247C435.453 7.66996 436.595 7.68704 437.717 7.59188C438.02 7.56748 438.317 7.4772 438.393 7.46012C437.671 6.6574 436.949 5.85223 436.246 5.07146C437.92 4.6152 439.491 4.16869 441.077 3.78075C441.243 3.73927 441.694 4.08574 441.675 4.19065C441.557 4.84211 441.345 5.47404 441.155 6.11086C441.133 6.18161 441.065 6.25237 440.999 6.29385C440.572 6.55492 440.04 6.72327 439.735 7.08438C439.467 7.40157 439.452 7.93103 439.306 8.42877C439.73 8.53124 440.291 8.66544 440.684 8.76059C441.321 8.17746 441.831 7.64556 442.411 7.20881C442.624 7.05022 443.007 7.07462 443.307 7.0917C444.017 7.13074 444.724 7.21857 445.095 7.25273C446.035 7.40645 446.622 7.57724 447.21 7.58212C447.928 7.587 448.672 7.5382 449.353 7.33813C449.66 7.24785 450.048 6.72815 450.043 6.40853C450.011 4.34925 450.226 4.13209 452.271 4.09062C453.893 4.0589 455.52 3.78807 457.136 3.85395C458.748 3.91738 460.349 4.26385 461.954 4.49076C462.391 4.5542 462.825 4.63959 463.521 4.76159C462.981 5.08366 462.564 5.33497 462.147 5.58628C462.274 5.77415 462.401 5.96202 462.53 6.15234C463.596 5.68387 464.648 5.17637 465.736 4.76403C466.248 4.56884 466.826 4.5542 467.375 4.4566C467.405 4.59324 467.432 4.72987 467.461 4.86895C466.9 5.12758 466.341 5.38377 465.782 5.6424C466.421 7.0673 467.261 7.45036 468.398 6.94042C469.227 6.56712 469.466 5.22517 468.937 3.5026C470.267 2.52176 471.552 3.9857 472.916 3.54896C472.606 3.35377 472.306 3.16589 471.962 2.94874C474.102 1.98742 476.764 2.50224 478.154 4.14673C478.42 4.45904 478.43 4.97386 478.667 5.32521C478.901 5.67411 479.225 6.0767 479.589 6.18405C479.879 6.26945 480.289 5.9425 480.645 5.79855C480.47 5.5082 480.358 5.13734 480.106 4.94214C479.579 4.53468 478.979 4.22237 478.411 3.86858L478.999 3.67583C479.687 3.34157 480.355 2.94874 481.07 2.69011C481.802 2.42416 482.58 2.28753 483.515 2.05086C483.383 2.50224 483.293 2.80967 483.178 3.19517C483.795 3.42208 484.415 3.64899 485.115 3.90518C484.918 4.34437 484.759 4.69083 484.644 4.94458C485.408 5.02022 486.15 5.20321 486.86 5.12026C487.25 5.0739 487.755 4.64447 487.914 4.26385C488.399 3.09757 489.343 2.59495 490.451 2.14357C490.954 3.76611 489.748 4.79331 489.07 6.16941C489.634 6.24505 489.997 6.29141 490.5 6.35973C490.075 3.50504 492.134 2.85114 494.155 2.11185C494.816 3.09514 495.804 3.44892 497.063 2.93898C497.509 2.75843 497.983 2.63643 498.444 2.49492C499.125 2.28834 499.634 2.52908 499.971 3.21713C501.442 2.41196 503.053 2.55104 504.663 2.451C506.088 2.36316 507.408 2.35096 508.796 2.76819C509.438 2.96094 510.262 2.5364 511.004 2.38756C511.25 2.33632 511.494 2.26801 511.941 2.16065C511.665 2.85358 511.47 3.33913 511.377 3.56848C512.28 4.23701 513.029 4.79087 513.834 5.38621C513.9 4.94946 513.866 4.50784 514.044 4.18089C514.268 3.76611 514.6 3.25129 515 3.11709C516.354 2.66083 517.752 2.32901 519.145 2.00206C520.151 1.76539 521.173 1.61411 522.329 1.3994C522.21 2.67059 522.749 2.70719 523.508 2.23873C524.733 1.4848 525.86 1.31644 526.914 2.5608C527.702 3.4904 528.675 3.23177 529.363 2.5364C530.181 1.70927 530.969 2.22897 531.723 2.39732C531.947 2.44856 532.115 3.23421 532.113 3.68071C532.108 4.37608 531.62 5.17393 532.542 5.60092C532.989 5.80831 533.567 5.9303 534.018 5.82295C534.209 5.77659 534.436 4.9275 534.282 4.63959C534.094 4.29069 533.518 4.15161 532.908 3.80759C532.674 2.59739 533.172 2.0045 535.302 1.3628C536.414 2.58032 538.627 2.9829 540.272 2.40952C541.226 2.0777 542.306 1.61899 543.06 2.86334C543.846 2.12893 544.578 1.4482 545.42 0.662551C545.659 1.26033 545.798 1.60679 545.983 2.07038C546.798 1.4482 547.601 0.918741 547.896 2.65107C548.269 1.06269 549.309 1.71171 550.087 1.74099C550.955 1.77515 551.817 1.97522 552.51 2.0777C552.573 2.87554 552.61 3.36596 552.649 3.85639C553.22 3.73927 553.827 3.70267 554.342 3.466C554.583 3.3562 554.791 2.84139 554.747 2.55348C554.718 2.36316 554.208 2.24849 553.913 2.09965C553.664 1.97278 553.417 1.8459 553.171 1.71903C553.417 1.57751 553.688 1.28473 553.903 1.32132C555.498 1.58727 557.082 1.91666 558.67 2.22897C558.665 2.3412 558.658 2.45344 558.653 2.56568C558.885 2.35096 559.087 2.08501 559.356 1.93618C559.656 1.77027 560.01 1.67267 560.349 1.63851C560.424 1.63119 560.673 2.09965 560.607 2.21189C560.444 2.4876 560.18 2.77063 559.892 2.89018C558.736 3.37084 557.553 3.78319 556.384 4.23701C556.247 4.29069 556.142 4.42732 555.957 4.5786C558.477 5.98154 560.241 4.97142 561.783 2.84139C561.569 2.47052 561.278 1.96546 560.986 1.46284C561.034 1.3506 561.081 1.24081 561.129 1.12857C561.493 1.25057 561.957 1.27253 562.203 1.51408C562.784 2.08501 563.233 1.99474 563.76 1.47992C564.811 0.457599 565.067 0.477118 565.933 1.66047C566.246 0.740627 566.673 0.320964 567.568 1.09685C567.749 1.25301 568.42 0.845543 568.8 0.891902C569.759 1.06513 570.72 1.22373 571.674 1.42624C571.921 1.47992 572.126 1.69463 572.365 1.80443C572.592 1.90934 572.901 2.11429 573.058 2.03622C573.807 1.66535 574.295 1.8703 574.866 2.45344C575.68 3.28301 576.934 3.04878 577.935 2.50956C579.135 1.86298 580.411 1.19689 581.919 1.49212C582.531 1.61411 583.19 1.51164 584.012 1.51164C584.469 2.33144 585.178 1.77027 585.947 1.50676C586.862 1.19201 587.833 -0.110899 588.694 0.847983C589.331 1.558 590.039 1.37012 590.661 1.68731C591.232 1.97766 591.925 1.97034 592.125 1.00414C592.271 0.296565 592.813 -0.0694208 593.574 0.013536C595.167 0.191649 596.758 0.377082 598.283 0.552755C598.236 0.991938 598.207 1.28473 598.175 1.57995C598.48 1.5092 598.783 1.42136 599.093 1.37256C599.969 1.23105 600.842 1.07733 601.723 0.977298C603.001 0.830904 604.106 0.323404 605.609 0.989498C606.863 1.5458 608.652 1.40428 610.325 0.506397C611.611 -0.184096 613.566 0.342923 615.222 0.367322C616.471 0.386841 617.677 0.630832 618.784 1.25301C618.848 1.28961 618.97 1.31157 619.018 1.27741C620.299 0.386841 621.412 1.25545 622.588 1.57263C622.854 1.64339 623.193 1.39452 623.505 1.35304C624.481 1.22373 625.474 0.969978 626.433 1.06025C627.331 1.14321 628.068 1.09441 628.953 0.811385C629.456 0.650351 630.666 0.328284 631.369 1.28717C631.815 1.8947 633.086 1.37256 633.606 0.347803C636.429 1.34084 639.591 -0.198736 642.114 1.13589C643.311 1.10661 644.248 1.08953 645.185 1.05782C645.666 1.04074 646.171 0.887022 646.617 0.991938C647.891 1.29205 649.143 1.68243 650.394 2.05818C651.177 2.29241 651.946 2.57056 652.722 2.82675C652.797 2.85114 652.915 2.89262 652.956 2.85846C654.044 1.94838 655.503 2.22409 656.694 1.68975C657.748 1.21885 658.704 1.0383 659.927 1.20421C661.176 1.37256 662.584 2.23141 663.874 1.12125C664.035 0.982178 664.416 1.10173 664.843 1.10173C664.584 1.41648 664.384 1.65803 664.186 1.89958C664.221 2.01914 664.252 2.14113 664.286 2.26069C664.843 2.16065 665.399 2.06794 665.953 1.9557C666.148 1.91666 666.341 1.75563 666.519 1.77759C667.487 1.89714 668.451 2.0533 669.391 2.19481C669.349 2.35828 669.266 2.67547 669.132 3.19517C672.135 1.09929 674.07 2.83163 675.944 4.58592C675.646 4.97142 675.163 5.4594 676.293 5.6302C676.549 5.66923 676.768 5.9547 677.005 6.12794C676.734 6.31093 676.488 6.56468 676.188 6.66228C674.473 7.22345 672.743 7.74559 671.02 8.28237L671.045 8.59468C671.359 8.75571 671.674 8.91675 672.206 9.19002C671.45 9.49744 670.879 9.7268 670.31 9.95615C671.642 10.5588 673.66 9.68288 674.321 11.7861C672.814 11.2615 671.406 11.3567 669.913 11.8666C669.244 12.0935 668.363 11.7129 667.58 11.6031C667.461 11.586 667.326 11.4908 667.229 11.525C665.677 12.0398 664.291 11.647 663.027 10.5466C662.954 10.6442 662.879 10.7418 662.806 10.837C662.945 11.2713 663.084 11.7056 663.24 12.1935C662.242 12.1399 661.144 12.0423 660.048 12.0325C658.729 12.0227 657.367 12.296 656.096 12.0569C654.918 11.8373 653.768 11.808 652.6 11.7739C652.49 11.7714 652.322 11.7153 652.283 11.6348C651.551 10.0781 650.477 10.7028 649.426 11.1761C647.22 12.1691 644.997 11.9886 642.748 11.3298C642.426 11.2347 641.945 11.2298 641.699 11.4054C640.874 12.0032 640.664 11.6543 640.652 10.6344C639.444 10.9004 638.286 11.1541 637.063 11.4225C637.014 11.7788 636.968 12.1203 636.895 12.6644C636.129 12.4766 635.25 11.9544 634.753 12.2009C633.638 12.7547 632.798 12.1081 631.876 11.9178C631.066 11.7495 630.261 11.4079 629.546 10.9833C628.468 10.3441 626.65 10.6076 625.806 11.5811C625.613 11.8056 625.194 11.9105 624.867 11.9325C623.212 12.0423 621.556 12.113 619.902 12.1789C619.628 12.1887 619.345 12.1374 619.079 12.0642C618.848 12.0008 618.635 11.7861 618.413 11.7812C616.671 11.7519 614.929 11.7568 613.187 11.7544C612.499 11.7544 611.811 11.7714 611.126 11.7592C610.845 11.7544 610.565 11.6494 610.284 11.6519C608.242 11.6592 606.2 11.7031 604.158 11.6909C603.484 11.686 602.811 11.5152 602.135 11.4835C601.137 11.4372 600.208 11.1566 599.151 11.808C598.568 12.1691 597.356 11.7226 596.516 11.4079C595.723 11.1102 595.294 11.0761 594.528 11.6714C593.789 12.2472 592.583 12.4424 591.588 12.4278C589.509 12.3985 587.384 12.3326 585.374 11.869C583.966 11.5445 582.719 11.0297 581.368 11.891C581.216 11.9886 580.889 11.8739 580.67 11.7934C578.918 11.1444 577.235 11.6543 575.475 11.8398C573.89 12.0081 572.382 12.1423 570.818 12.5595C569.976 12.784 568.544 12.3985 567.714 11.3176C567.453 10.9785 566.631 10.8272 566.158 10.9467C565.294 11.1639 564.496 11.647 563.62 12.0423C562.554 11.5982 561.364 11.1029 560.093 10.5734C559.905 11.1175 559.792 11.4445 559.67 11.7983C559.568 11.8202 559.456 11.8666 559.343 11.8617C558.987 11.8446 558.524 11.647 558.297 11.8032C556.984 12.6986 556.606 11.7104 556.184 10.9028C553.893 10.6174 552.024 11.5616 550.272 12.8182C549.233 13.5648 548.042 13.2525 547.047 13.028C544.688 12.4985 542.326 12.6815 539.964 12.5644C539.542 12.5424 539.103 12.3302 538.722 12.1155C537.556 11.4567 537.295 11.5152 536.671 12.7742C536.351 12.6596 536.017 12.5498 535.687 12.4229C534.904 12.1252 534.114 11.6177 533.557 12.806C533.472 12.9889 532.83 13.1256 532.618 12.9987C531.071 12.0691 529.507 12.784 527.951 12.845C527.067 12.8792 526.174 12.9036 525.303 12.7913C525.057 12.7596 524.874 12.235 524.508 11.7178C523.959 11.9715 523.278 12.2838 522.454 12.662C521.231 11.7104 520.102 13.1524 518.797 13.2476C517.103 13.372 515.42 13.6111 513.729 13.7624C513.531 13.7795 513.322 13.5306 513.1 13.4598C512.568 13.2915 511.907 12.8816 511.504 13.0548C510.099 13.655 508.659 13.2305 507.249 13.3769C505.297 13.577 503.309 13.4281 501.252 13.4281C501.291 13.6672 501.337 13.96 501.386 14.2553C501.32 14.2943 501.254 14.3675 501.196 14.3651C500.327 14.2992 499.456 14.1577 498.588 14.165C497.565 14.1747 496.572 14.2553 495.811 13.3598C495.66 13.1817 495.277 13.0329 495.074 13.0963C493.891 13.4769 493.132 13.0475 492.488 12.052C492.349 11.8373 491.607 11.7641 491.329 11.9349C490.034 12.7206 488.628 12.8889 487.184 13.2037C485.469 13.577 483.883 13.5599 482.2 13.4354C481.575 13.3891 480.914 14.0283 480.262 14.0454C479.57 14.0649 478.867 13.716 478.25 13.3208C477.562 13.5452 476.874 13.7722 475.998 14.0576C476.154 13.5452 476.249 13.2354 476.371 12.8352C474.692 13.2744 473.163 13.6892 471.626 14.0747C470.369 14.3895 469.12 14.8018 467.841 14.936C466.665 15.058 466.661 14.143 466.914 13.2329C466.682 13.1915 466.453 13.0914 466.397 13.1524C465.182 14.448 463.694 14.7042 462.02 14.3895C461.815 14.3504 461.571 14.5993 461.344 14.6042C460.9 14.6139 460.451 14.5432 460.007 14.5041C459.993 14.3675 459.978 14.2333 459.961 14.0967C459.646 14.3211 459.331 14.548 458.87 14.8774C458.617 14.4529 458.368 14.0405 458.053 13.5111C457.209 13.6892 456.269 13.9064 455.323 14.0747C455.062 14.1211 454.723 14.104 454.505 13.9722C453.552 13.3915 452.778 13.8624 452.258 14.5236C451.788 15.1239 451.346 15.1678 450.704 15.0653C449.767 14.914 448.821 14.8335 447.806 14.714V15.3264C445.944 15.3264 444.112 15.302 442.28 15.3386C441.599 15.3532 440.918 15.5996 440.24 15.5899C439.008 15.5752 437.773 15.3776 436.544 15.3996C435.939 15.4093 435.343 15.8802 434.736 15.8949C433.735 15.9217 432.725 15.7851 431.73 15.6484C430.427 15.4703 429.134 15.1971 427.831 15.0238C427.543 14.9848 427.226 15.2605 426.911 15.2971C426.411 15.3508 425.806 15.502 425.413 15.2971C424.545 14.8384 423.993 15.2605 423.349 15.6924C423.057 15.8876 422.542 16.1267 422.327 16.0022C421.166 15.3239 420.212 16.0144 419.172 16.3438C418.06 14.8433 416.73 13.9917 414.673 14.2089C413.114 14.3724 411.499 13.982 409.906 13.8917C409.56 13.8722 409.198 14.0796 408.537 14.2723C409.269 14.5651 409.706 14.6774 410.069 14.9043C410.309 15.0531 410.448 15.3679 410.631 15.607C410.37 15.7192 410.116 15.9022 409.85 15.9266C409.552 15.9534 409.245 15.8046 408.937 15.7826C408.51 15.7534 408.081 15.7412 407.656 15.7753C407.142 15.8168 406.634 15.9608 406.122 15.9803C403.97 16.0583 401.799 15.1214 399.659 16.1974C398.415 16.8245 397.924 15.4801 396.968 15.0482C396.931 15.3264 396.895 15.6045 396.836 16.0583C395.655 16.0583 394.462 16.1291 393.281 16.0388C392.174 15.9534 391.063 15.4679 390.017 16.2438C388.848 15.2459 385.108 15.4532 384.417 16.561C383.266 16.3609 382.112 16.1608 380.96 15.9632C380.843 15.9437 380.667 15.8973 380.609 15.9534C379.326 17.1929 378.006 16.5317 376.674 16.073C376.491 16.0095 376.237 16.1511 376.015 16.1974C376.073 16.4146 376.132 16.6293 376.212 16.9367C375.341 17.0319 374.485 17.1246 373.319 17.249C373.668 16.7684 373.809 16.5732 374.085 16.1925H367.549C367.3 15.9242 367.058 15.6655 366.819 15.4093C365.751 16.4243 364.182 16.4243 363.716 15.7021C363.05 16.0266 362.43 16.578 361.81 16.578C360.503 16.578 359.2 17.1441 357.848 16.5488C357.436 16.3658 356.753 16.9026 356.187 16.9343C354.384 17.0294 352.573 17.1002 350.768 17.0636C349.555 17.0367 348.333 16.622 347.142 16.722C345.632 16.8489 344.151 17.3222 342.77 17.6223C342.541 17.4759 342.326 17.2393 342.085 17.2051C341.462 17.1221 340.831 17.1246 340.201 17.1051C339.962 17.0977 339.611 17.0294 339.498 17.1563C338.457 18.3275 337.368 17.593 336.307 17.2563C335.095 16.8733 334.002 17.0563 333.191 17.7175C332.838 17.4515 332.574 17.088 332.32 17.0929C331.389 17.1075 330.456 17.2563 329.524 17.3344C329.154 17.3661 328.78 17.3393 328.297 17.3393C328.239 17.5272 328.148 17.8053 328.044 18.1396C327.082 17.5564 326.18 16.6195 325.177 17.9493C324.616 17.7492 324.306 16.3341 323.513 17.6296C323.454 17.7248 322.656 17.3979 322.22 17.2246C321.437 16.9099 320.734 16.1755 320.021 17.515C319.78 17.9712 318.577 18.2665 317.95 18.1054C316.467 17.7248 315.098 18.2811 313.68 18.3226C312.192 18.3665 310.716 18.7642 309.228 18.8276C307.727 18.8911 306.181 18.5105 304.722 18.7471C303.45 18.9521 302.557 18.4104 301.516 18.0396C301.145 17.9078 300.686 17.9956 300.271 18.0176C299.129 18.0761 297.99 18.1518 296.851 18.2274C296.268 18.2665 295.685 18.3153 295.101 18.3689C294.906 18.3885 294.709 18.4812 294.518 18.4641C292.991 18.3397 291.469 18.1567 289.941 18.0713C288.873 18.0103 287.784 17.9688 286.733 18.1152C285.728 18.2543 284.762 18.6642 283.769 18.9204C281.224 19.5791 278.752 19.279 276.23 18.6154C275.1 18.3177 273.792 18.6983 272.567 18.774C271.694 18.8276 270.818 18.9301 269.945 18.9301C269.286 18.9301 268.571 18.5226 268.098 19.3498C268.044 19.4425 267.798 19.484 267.656 19.4571C266.927 19.3254 266.204 19.1643 265.477 19.0106C265.399 18.9936 265.319 18.935 265.248 18.9448C264.253 19.0789 263.147 19.0009 262.293 19.423C261.427 19.8524 260.834 19.6011 260.049 19.4279C258.929 19.179 257.751 19.1668 256.597 19.1058C254.83 19.0155 253.059 18.9716 251.29 18.9033C250.968 18.8911 250.578 18.73 250.338 18.8594C248.731 19.7353 247.403 19.157 246.032 18.2665C245.739 18.0761 245.081 18.4446 244.637 18.7227C243.971 18.4592 243.322 18.1371 243.19 19.3522C243.183 19.4254 242.663 19.5011 242.387 19.4815C241.406 19.4108 240.428 19.2985 239.447 19.2058C239.298 19.1912 239.132 19.2375 239.001 19.1839C238.139 18.8398 237.288 18.4739 236.329 18.0737C236.139 18.7471 236.049 19.0741 235.951 19.4205C232.565 19.4205 229.207 19.3742 225.853 19.4376C223.986 19.4718 222.125 19.728 220.256 19.8134C218.897 19.8744 217.531 19.789 216.167 19.8182C215.496 19.8329 214.827 20.0086 214.156 20.0134C212.846 20.0256 211.536 19.9695 210.226 19.9402C208.969 19.911 207.71 19.8719 206.454 19.8426C205.778 19.8256 205.1 19.8207 204.424 19.8085C204.058 19.8012 203.58 19.6328 203.348 19.8012C202.126 20.6966 200.65 20.3184 199.327 20.682C198.927 20.7918 198.41 20.8162 198.049 20.6527C196.7 20.0476 195.138 20.2989 193.83 19.3303C192.862 18.6129 191.805 19.1473 191.434 19.9939C190.79 19.9573 190.366 19.8524 189.973 19.9232C188.326 20.2208 186.696 20.621 185.045 20.865C184.588 20.9333 184.071 20.5966 183.583 20.4477C182.929 20.2501 182.463 19.9939 181.568 20.2574C180.182 20.6649 178.538 20.172 177.003 20.0891C176.276 20.05 175.544 20.0427 174.817 20.072C173.758 20.1135 172.846 20.7283 171.633 20.438C170.479 20.1623 169.013 20.2672 167.947 20.7649C166.446 21.4652 165.092 20.6576 163.677 20.8698C162.772 21.004 161.818 20.8113 160.886 20.7527C159.698 20.6771 158.483 20.7234 157.331 20.4746C155.77 20.1354 154.376 20.1623 152.895 20.9162C150.758 22.0044 148.416 21.9214 146.093 21.5774C145.935 21.553 145.737 21.4579 145.62 21.5164C144.21 22.2215 143.017 22.2874 142.163 20.6405C142.08 20.4795 141.187 20.6649 140.699 20.7991C139.708 21.0699 138.82 21.5457 137.717 20.8284C137.381 20.6088 136.324 21.2212 135.771 21.6652C134.621 22.5851 133.494 22.8559 132.169 22.1117C131.967 21.9995 131.659 22.0703 131.403 22.0605C130.803 22.0386 130.125 22.1874 129.622 21.9556C128.881 21.614 128.356 21.4676 127.69 22.1142C127.5 22.2996 126.846 22.0093 126.453 22.0678C125.721 22.1898 124.992 22.3289 124.257 22.4289C122.052 22.7339 119.836 22.9926 117.636 23.3366C116.989 23.4366 116.542 23.5659 116.44 22.6827C116.411 22.4314 115.952 22.1239 115.637 22.0337C114.983 21.8507 114.283 21.8312 113.617 21.6774C113.156 21.5701 112.724 21.3456 112.139 21.1211C111.78 21.2407 111.212 21.4213 110.65 21.614C110.433 21.6872 110.077 21.7384 110.033 21.88C109.684 22.9608 108.772 22.9511 107.896 23.1097C106.669 23.3317 105.466 23.7196 104.231 23.8734C103.333 23.9832 102.394 23.7318 101.489 23.8099C99.3493 23.9978 97.2217 24.3125 95.082 24.5224C94.1769 24.6102 93.2546 24.5883 92.3446 24.5614C92.1714 24.5565 91.9469 24.3199 91.8469 24.1369C91.2589 23.0633 90.8002 22.9023 89.8145 23.4879C89.0704 23.9319 88.336 24.3955 87.5333 24.8908C86.1914 23.6269 84.8788 23.8343 83.2246 24.3784C81.668 24.8908 79.8284 24.6224 78.1157 24.5761C77.0959 24.5492 76.1785 24.4931 75.2611 25.1519C74.6951 25.5569 73.8656 25.6008 73.1532 25.7984C71.6234 26.2254 70.0912 26.3791 68.498 26.1181C67.8076 26.0058 67.0561 26.3303 66.3413 26.2962C64.7627 26.223 63.189 26.0449 61.6129 25.9131C61.2958 25.8863 60.9786 25.8399 60.6638 25.8546C57.3384 26.0132 54.013 26.2498 50.6851 26.3206C49.2944 26.3499 47.8671 25.774 46.5106 25.9351C43.9708 26.2376 41.4309 26.0595 38.9009 26.2523C37.4565 26.3621 36.0268 26.6671 34.5897 26.8842C34.4726 26.9013 34.3067 26.9867 34.2457 26.9379C32.6623 25.7033 31.1106 26.4011 29.5491 26.9818C29.4223 27.0282 29.2076 26.9818 29.0953 26.8964C27.5778 25.7594 26.1798 26.5158 24.7525 27.116C24.4573 27.2404 24.0669 27.2063 23.7351 27.1526C22.9763 27.0306 22.2297 26.7329 21.4734 26.7183C19.9607 26.689 18.3919 26.5768 16.95 26.9281C15.8253 27.2014 14.6469 26.6012 13.8198 26.994C11.7777 27.9651 9.78922 26.955 7.78371 27.1868C6.89074 27.2892 5.87335 26.3791 4.91939 25.9131C4.64125 25.7765 4.41191 25.5032 4.12401 25.4251C2.74797 25.0567 2.67721 23.6416 1.94528 22.7608C1.56711 22.3094 1.24993 21.7262 1.13526 21.1577C1.00107 20.4819 1.34021 19.6548 1.07915 19.0716C0.415523 17.593 1.01327 16.539 1.87208 15.4533C2.08678 15.18 2.22097 14.7896 2.25513 14.4407C2.3576 13.4037 2.70161 12.7742 3.92883 12.9377C4.31188 12.9889 4.7486 12.6571 5.15849 12.4985C6.68092 11.9056 7.97889 12.4863 9.25978 13.2451C9.54524 13.4135 9.89901 13.5038 10.2308 13.5428C12.8585 13.86 15.4813 14.2455 18.1187 14.4285C19.6899 14.5383 21.2807 14.3187 22.8641 14.2626C23.2886 14.2479 23.7888 14.1601 24.1303 14.3382C25.6674 15.1458 27.3436 15.0067 28.9685 15.0848C30.1054 15.1385 31.2936 15.0116 32.3964 14.7286C34.7654 14.1211 37.1125 14.7969 39.4742 14.6774C42.0824 14.5456 44.7051 14.5627 47.3133 14.6993C50.0678 14.8408 52.8248 14.3065 55.5964 15.18C57.0578 15.6411 58.773 15.912 60.3906 15.1312C60.7834 14.9409 61.4129 15.3093 61.9301 15.2922C63.0378 15.2581 64.1406 15.1483 65.2458 15.0555C65.6459 15.0214 66.1046 14.7969 66.4315 14.9262C68.5883 15.7631 70.7939 14.7408 72.958 15.1605C74.1901 15.3996 76.015 15.0629 76.564 15.7656C77.4301 16.8806 78.8574 15.9681 79.5454 17.1953C79.8992 17.8224 81.3436 17.1758 81.751 16.4121C81.8559 16.2145 82.3951 16.1193 82.6854 16.1877C82.9148 16.2413 83.0685 16.6171 83.4393 17.0807C83.5369 16.4268 83.5906 16.0657 83.6565 15.6143C84.2128 15.502 84.7934 15.3849 85.4741 15.2483C85.5742 14.4334 86.128 14.0552 87.0332 13.982C88.1555 13.8893 89.2705 13.5404 90.3854 13.5477C91.8078 13.5574 93.2278 13.8136 94.7356 13.9722C95.265 13.1866 95.9067 12.9353 96.7094 13.8429C96.8411 13.9917 97.2949 13.9405 97.5658 13.8649C98.0684 13.7258 98.5368 13.4403 99.0418 13.3232C99.7421 13.1622 100.586 12.8084 101.157 13.0475C102.702 13.6916 104.014 13.3037 105.373 12.6352C105.583 12.5327 106.064 12.5449 106.132 12.6644C106.593 13.4745 107.093 13.2354 107.84 13.0451C108.552 12.8645 109.509 13.0231 110.17 13.3818C111.968 14.3553 113.107 14.2772 114.588 12.8011C114.703 12.6864 114.886 12.601 115.049 12.579C116.852 12.3399 118.668 12.1813 120.456 11.8666C122.005 11.5933 123.393 11.9373 124.767 12.5717C124.938 12.6498 125.143 12.6498 125.509 12.7181C125.397 12.2716 125.318 11.9544 125.184 11.4176C125.728 11.5104 126.455 11.4323 126.624 11.7031C127.185 12.5986 127.678 12.4497 128.519 12.0886C129.261 11.7714 130.181 11.869 131.023 11.7934C132.44 11.6665 133.885 11.6763 135.273 11.3981C137.132 11.0273 138.889 11.4542 140.687 11.6958C141.367 11.7885 142.16 11.7422 142.78 11.4738C144.024 10.9345 145.186 11.1761 146.393 11.4738C146.991 11.6226 147.611 11.6836 148.221 11.7861C148.265 11.6738 148.309 11.564 148.355 11.4518C148.516 11.7544 148.677 12.0569 148.86 12.4058C149.004 12.3765 149.209 12.4009 149.302 12.3107C151.027 10.6198 153.193 10.6832 155.384 10.671C156.135 10.6662 156.882 10.2587 157.641 10.0708C158.353 9.89515 159.071 9.69996 159.798 9.64872C160.247 9.617 160.715 9.83659 161.252 9.96103V11.3176C163.909 9.6902 166.727 10.0098 169.608 9.97567C170.296 10.7223 170.799 10.5856 171.86 9.91711C172.489 9.52184 173.558 9.40229 174.258 9.64628C175.234 9.98542 175.976 9.60236 176.791 9.39009C178.094 9.0485 179.279 8.90943 180.419 9.94639C180.69 10.1928 181.631 10.0293 182.041 9.73899C182.927 9.11438 183.805 9.13634 184.81 9.19734C186.284 9.28761 187.772 9.17294 189.253 9.13146C191.027 9.08266 192.798 8.99726 194.572 8.96798C196.424 8.93871 198.276 8.96066 200.125 8.96066C200.154 9.08754 200.186 9.21442 200.215 9.34129C199.539 9.678 198.864 10.0147 198.166 10.3612C198.124 10.8126 198.071 11.4054 198.015 12.0374C198.066 12.0374 198.266 12.0667 198.271 12.0471C198.566 10.854 199.661 10.8174 200.537 10.4417C201.181 10.166 201.782 9.79267 202.553 9.38033C202.826 9.5072 203.275 9.81219 203.77 9.92687C204.919 10.1953 206.151 10.9126 207.139 9.56332C207.205 9.47305 207.339 9.37789 207.444 9.37301C209.76 9.29493 211.934 7.71631 214.395 8.86307C215.208 9.24125 216.264 9.17294 217.208 9.17294C218.514 9.1705 219.822 9.02898 221.127 8.96311C222.793 8.87771 224.464 8.84111 226.128 8.71179C226.707 8.66788 227.273 8.25309 227.834 8.27261C229.19 8.31897 230.542 8.53612 231.896 8.6508C232.418 8.69472 232.952 8.68008 233.472 8.62396C235.417 8.41901 235.695 8.34825 236.683 10.3929C238.032 9.28761 239.35 8.15306 241.34 8.68252C241.687 8.77523 242.119 8.54344 242.512 8.4678C242.77 8.41657 243.114 8.24821 243.278 8.35069C244.093 8.87283 244.539 8.67276 245.005 7.84075C245.322 7.27225 247.196 7.41377 247.938 7.93103C248.87 8.58004 250.687 8.57516 251.651 7.91883C252.427 7.39181 253.808 7.61872 254.486 8.36045C254.601 8.48488 254.815 8.5166 254.984 8.5898C255.05 8.30921 255.116 8.02862 255.255 7.44548C256.07 7.76999 256.884 8.11158 257.712 8.41413C257.96 8.5044 258.248 8.54832 258.512 8.5288C260.471 8.37021 262.467 7.87247 264.375 8.10914C266.151 8.32873 267.844 7.90175 269.576 8.0579C269.969 8.0945 270.386 7.86271 270.803 7.88711C272.587 8.42633 274.258 7.80659 275.927 7.19905C276.186 7.61872 276.449 8.04082 276.71 8.46292L276.94 8.37753C276.915 8.06766 276.891 7.76023 276.874 7.55772C278.34 7.36497 279.721 7.15758 281.107 7.02094C281.378 6.9941 281.687 7.21125 281.956 7.35765C282.495 7.65044 283.02 7.97006 283.551 8.27993C283.427 9.81707 285.176 9.30713 285.54 10.3734C286.14 9.74144 286.582 9.25833 285.608 8.89235C284.932 8.64104 284.215 8.49952 283.517 8.30921C283.688 8.19942 283.922 8.12866 284.017 7.9725C284.898 6.5476 285.94 7.52356 286.972 7.69923C287.804 7.84075 288.682 7.73339 289.539 7.73339C289.89 7.73339 290.261 7.648 290.588 7.73827C291.451 7.97494 292.249 8.15794 293.15 7.71875C293.55 7.52356 294.208 7.65044 294.67 7.83099C295.523 8.16526 296.302 8.74595 297.183 7.86271C297.239 7.80659 297.827 8.24577 298.144 8.48488C298.764 8.95335 299.347 9.48036 299.998 9.89759C300.118 9.97323 300.493 9.64872 300.759 9.5072C300.249 9.15586 299.849 8.87771 299.449 8.602C299.696 8.46048 299.942 8.32141 300.186 8.18234C300.061 8.03594 299.918 7.86515 299.774 7.69679C299.827 7.61628 299.883 7.53576 299.937 7.45524C300.362 7.70655 300.771 7.98958 301.218 8.19942C301.403 8.28725 301.662 8.22625 301.889 8.23113C301.855 7.9603 301.821 7.68948 301.767 7.26737C304.197 7.49672 306.715 7.23321 309.428 8.10426C310.04 7.98958 311.004 7.81147 311.965 7.63092L312.082 8.07742C311.543 8.21893 310.997 8.33361 310.47 8.51172C310.131 8.6264 309.533 8.88747 309.552 8.99238C309.64 9.48036 309.887 9.94639 310.123 10.3978C310.15 10.449 310.565 10.4124 310.638 10.3051C310.831 10.0245 310.933 9.68288 311.063 9.38765C311.438 9.35105 311.946 9.30225 312.522 9.24369C312.651 9.56332 312.792 9.91711 312.805 9.94395C313.407 9.88051 313.817 9.82927 314.229 9.79755C314.673 9.76095 315.12 9.74387 315.537 9.71948C315.113 9.11926 314.693 8.67276 314.481 8.1433C314.403 7.94811 314.752 7.41133 315.025 7.28689C315.476 7.0795 316.028 7.0917 316.533 6.98434C317.047 6.87455 317.55 6.67204 318.067 6.61592C318.611 6.55736 319.168 6.62324 319.719 6.64276C320.917 6.68423 322.134 6.88431 323.305 6.72571C324.23 6.60128 324.864 6.83307 325.545 7.35033C325.877 7.60164 326.333 7.68704 326.746 7.85295C326.345 8.0335 325.816 8.22625 325.338 8.5044C325.008 8.69472 324.747 9.00214 324.457 9.25833C324.769 9.49256 325.082 9.7268 325.601 10.1147C325.918 10.7711 323.63 10.876 324.838 12.052C325.433 11.7178 326.036 11.4128 326.594 11.0443C326.755 10.937 326.899 10.6271 326.872 10.4368C326.667 9.11194 327.146 8.42633 328.551 8.5044C328.693 8.51172 328.839 8.38729 329.066 8.28725C328.922 7.95542 328.795 7.66264 328.551 7.1039C329.549 7.44061 330.317 7.70167 331.086 7.96274L330.981 7.70655C332.174 7.37961 333.353 6.99166 334.56 6.74279C335.812 6.48416 337.098 6.39145 338.359 6.17185C339.625 5.94982 340.155 6.4134 340.106 7.66508C340.089 8.1311 340.26 8.9875 340.418 9.00702C341.057 9.07778 341.728 8.88991 342.446 8.78987C342.316 8.44341 342.302 8.40437 342.287 8.36533C342.031 7.70167 340.547 8.55076 340.862 7.26493C341.013 6.65008 343.107 5.99862 343.822 6.20601C344.602 6.43292 345.393 6.62324 346.427 6.89163C346.498 7.06242 346.696 7.53088 346.92 8.06522C347.34 7.97006 347.718 7.88467 348.123 7.79195C348.372 8.28725 348.616 8.78011 348.948 9.44377C350.285 8.39949 351.705 9.03874 353.183 9.14366C353.066 9.88051 351.37 10.0342 352.378 10.9419C352.71 11.2395 353.739 10.7686 354.671 10.61C354.301 10.0806 354.093 9.78535 354.074 9.75851C354.92 9.34861 355.799 8.91675 356.682 8.49464C357.443 8.1311 358.29 7.9725 358.314 6.75499C358.319 6.46464 359.666 5.9303 360.337 6.01082C360.842 6.06938 361.998 6.24993 361.732 7.39913C361.569 8.1067 361.93 8.35069 362.506 8.21161C363.135 8.0579 363.726 7.74315 364.394 7.20637C363.687 7.13074 362.977 7.05754 361.947 6.94774C362.349 6.30361 362.567 5.53504 363.006 5.37645C363.457 5.21541 364.113 5.69363 364.699 5.81075C365.409 5.9547 366.138 6.09866 366.856 6.0889C367.441 6.08158 368.02 5.79611 368.612 5.73511C368.996 5.69607 369.398 5.83515 369.745 5.88883H377.493C377.505 5.97422 377.518 6.06206 377.53 6.14746C376.988 6.23041 376.447 6.31093 375.766 6.41341C375.532 7.43085 373.512 6.93554 373.529 8.5044C373.531 8.79963 373.66 9.09242 373.792 9.64628C374.527 9.00458 375.083 8.51904 375.703 7.97738C376.949 8.52148 377.94 7.58212 378.452 6.73791C379.165 5.56188 380.072 5.618 381.102 5.61312C381.458 5.61312 381.814 5.65947 382.231 5.68875C382.112 7.0673 379.638 6.29141 380.053 7.99446C381.514 7.47232 382.985 6.94774 384.456 6.42316C383.967 6.84933 384.042 7.5016 384.681 8.37997C385.679 7.21613 386.801 7.51136 387.994 8.08718C388.56 8.36045 389.231 8.42145 389.856 8.5776C389.973 8.85087 390.012 9.24857 390.219 9.37545C391.015 9.86587 391.856 10.2758 392.691 10.6979C392.893 10.8004 393.128 10.8345 393.655 10.9907C391.966 9.47305 392.049 8.76547 393.811 7.90175C392.671 7.49184 391.532 7.0795 390.397 6.6696C390.2 7.33569 390.012 7.97738 389.822 8.61664L389.79 8.61176ZM276.957 14.6261C276.874 14.9945 276.791 15.363 276.732 15.6314C277.286 15.8607 277.698 16.0315 278.342 16.2999C278.533 15.8266 279.028 15.2093 278.896 14.7847C278.623 13.8893 277.85 14.4553 277.267 14.5554C277.149 14.5749 277.037 14.6237 276.922 14.6603C276.586 13.838 276.252 13.0158 275.888 12.1252C275.244 12.9426 274.7 13.6355 274.197 14.2723C274.832 15.1043 275.461 15.9315 276.091 16.761C276.212 16.6952 276.337 16.6293 276.459 16.5634C276.395 16.2901 276.369 16.0022 276.261 15.7485C275.954 15.0263 276.239 14.7018 276.954 14.6286L276.957 14.6261ZM418.243 10.1172C417.221 9.31933 416.218 9.15098 415.01 9.57552C414.176 9.86831 413.212 9.77315 412.331 9.96591C411.997 10.0391 411.714 10.4173 411.46 10.7028C411.431 10.7369 411.733 11.0663 411.819 11.1737C412.185 10.8565 412.443 10.5978 412.746 10.4051C412.792 10.3758 413.175 10.7028 413.151 10.754C413.012 11.0614 412.817 11.3469 412.612 11.6177C412.317 12.0057 411.997 12.3741 411.668 12.7767C413.268 12.5058 415.152 13.5477 416.506 11.6934C416.337 11.503 416.171 11.3737 416.091 11.2054C415.896 10.8028 415.735 10.3807 415.583 9.95859C415.581 9.94883 415.847 9.84147 415.986 9.78047C416.13 10.1343 416.213 10.532 416.432 10.8321C416.667 11.1493 417.028 11.3737 417.333 11.6397C417.501 11.3981 417.686 11.1663 417.838 10.9126C417.994 10.654 418.116 10.3734 418.245 10.1172H418.243ZM462.532 11.9886C463.186 11.6153 464.006 11.1761 464.784 10.6735C464.904 10.5978 464.926 10.1855 464.833 10.0196C464.74 9.85367 464.455 9.76095 464.235 9.70728C463.555 9.53892 462.842 9.47549 462.188 9.24125C461.076 8.84111 460.329 9.47793 459.595 10.0806C459.463 10.1904 459.546 10.8931 459.695 10.9589C460.517 11.3298 461.388 11.5909 462.535 11.9886H462.532ZM262.442 8.79963C262.42 8.89479 262.398 8.99238 262.376 9.08754C262.696 9.29493 263.013 9.50476 263.294 9.68532C262.259 9.96835 261.274 10.2148 260.305 10.5222C260.1 10.5881 259.971 10.8833 259.805 11.0712C260.042 11.1883 260.31 11.442 260.505 11.3933C260.998 11.2688 261.537 10.7418 261.913 10.854C263.121 11.2151 263.411 10.2026 264.035 9.68288C266.085 11.0151 268.208 10.7979 269.12 8.90455C268.62 9.1339 268.342 9.30469 268.042 9.39253C267.446 9.56576 266.795 9.90003 266.241 9.79267C265.421 9.63408 264.684 9.0851 263.874 8.82403C263.44 8.68496 262.923 8.79963 262.442 8.79963ZM474.753 10.2197C473.831 9.13878 472.777 9.40717 471.843 9.88295C470.955 10.3368 470.862 9.95371 470.857 9.24613C470.857 9.06802 470.857 8.89235 470.857 8.84111C470.052 9.25345 469.266 9.59016 468.571 10.0611C468.417 10.166 468.498 11.0126 468.603 11.0419C469.205 11.2103 469.852 11.3225 470.472 11.2835C471.316 11.2322 472.201 10.7857 472.972 10.9541C473.824 11.1371 474.275 10.9687 474.753 10.2197ZM495.257 5.04218C493.947 4.9641 492.769 4.89578 491.415 4.81527C491.371 5.24469 491.095 5.96934 491.32 6.19381C491.654 6.52564 492.342 6.50368 492.92 6.64276C492.676 6.93554 492.442 7.21613 492.186 7.52356C493.547 8.06034 495.384 6.38657 495.26 5.04218H495.257ZM265.255 13.6941C263.345 13.9869 261.483 14.2723 259.312 14.6066C259.92 15.1824 260.246 15.5996 260.673 15.851C260.908 15.99 261.581 15.8924 261.593 15.8217C261.73 15.0531 262.293 15.2361 262.796 15.158C263.806 14.9994 264.814 14.792 265.797 14.509C266.08 14.4285 266.331 14.0601 266.485 13.7648C266.566 13.6136 266.453 13.1768 266.339 13.1402C265.936 13.0085 265.497 12.9914 264.936 12.9133C265.087 13.2866 265.182 13.516 265.255 13.6941ZM514.803 7.61384C514.676 8.05058 514.634 8.43853 514.456 8.74595C514.288 9.03874 513.978 9.25101 513.729 9.49988C514.107 9.64384 514.498 9.92931 514.861 9.90247C515.952 9.81707 517.037 9.62432 518.118 9.44133C518.45 9.38521 518.762 9.22906 519.084 9.11926C518.723 8.89479 518.384 8.62396 517.996 8.46292C517.664 8.32385 517.096 8.43365 516.95 8.21893C516.323 7.28933 515.569 7.22589 514.8 7.61384H514.803ZM489.782 9.17782C489.802 9.07778 489.824 8.9753 489.843 8.87527C488.204 8.21406 486.525 7.74071 484.386 8.15306C484.808 8.51416 485.081 8.77035 485.379 8.99482C485.625 9.18026 486.091 9.29005 486.13 9.49744C486.379 10.7833 487.409 10.41 488.155 10.3978C488.326 10.3953 488.482 9.50232 488.68 8.91675C488.899 8.97042 489.341 9.07534 489.782 9.18026V9.17782ZM370.01 10.349C369.845 10.2636 369.676 10.1757 369.51 10.0903C369.239 10.5637 369.069 11.3176 368.676 11.4616C367.446 11.9129 368.588 12.6303 368.364 13.1524C368.859 13.3549 369.354 13.716 369.852 13.7185C370.476 13.7234 371.103 13.4354 371.867 13.2378C371.687 12.7352 371.462 12.1081 371.235 11.4786C370.674 11.6519 370.096 11.83 369.344 12.0593C369.632 11.3225 369.82 10.8345 370.01 10.349ZM398.641 9.51452C399.669 9.79999 399.978 9.2193 399.871 8.4556C399.813 8.0335 399.4 7.6602 399.146 7.26737C398.732 7.62848 398.271 7.95298 397.914 8.36533C397.531 8.80695 397.185 9.29981 396.939 9.82683C396.738 10.2563 396.482 10.9126 396.668 11.2054C396.926 11.6128 397.573 11.7739 398.053 12.0423L398.207 11.7568C397.763 11.464 397.319 11.1712 396.875 10.876C396.885 10.7418 396.895 10.6052 396.904 10.471C397.444 10.3831 397.983 10.2953 398.639 10.1879C398.639 10.2099 398.639 9.91467 398.639 9.51696L398.641 9.51452ZM539.83 7.1161C539.308 7.64556 538.854 8.0945 538.415 8.55808C538.215 8.76791 538.044 9.00458 537.859 9.23149C538.147 9.39009 538.425 9.65848 538.725 9.68532C539.462 9.75119 540.211 9.70728 541.021 9.70728C541.479 8.88259 540.896 7.68216 539.83 7.1161ZM252.083 16.1559C252.139 15.9998 252.195 15.8461 252.249 15.6899C251.573 15.2751 250.941 14.731 250.209 14.4846C249.472 14.2357 248.638 14.2845 247.999 14.2187C247.855 13.8942 247.738 13.6258 247.618 13.3598C247.228 13.8868 246.835 14.4139 246.445 14.9409C246.496 15.0531 246.547 15.1629 246.598 15.2751C247.45 15.2751 248.318 15.3727 249.148 15.2434C249.821 15.1385 250.334 14.9677 250.831 15.6655C251.048 15.9705 251.654 15.9998 252.08 16.1535L252.083 16.1559ZM372.772 12.1423C373.375 13.655 374.487 13.7185 375.605 12.5229C375.973 12.1301 376.386 11.7788 376.896 11.3005C375.346 10.793 374.18 11.8446 372.772 12.1423ZM350.56 12.8596C349.865 12.2887 349.333 11.852 348.706 11.3371C347.584 11.1322 347.835 13.5794 346.157 12.8865C346.476 13.2573 346.815 13.5257 347.154 13.5282C348.06 13.533 348.967 13.4476 349.867 13.3379C350.094 13.311 350.292 13.0548 350.56 12.8621V12.8596ZM294.443 13.0792C293.847 13.4574 293.313 13.7941 292.61 14.2431C292.93 14.6456 293.179 15.2751 293.523 15.3337C294.482 15.4972 295.448 15.3483 295.946 14.2235C295.445 13.8429 294.972 13.4842 294.445 13.0817L294.443 13.0792ZM232.067 14.3211C230.191 14.548 228.678 14.7335 226.87 14.9531C228.005 15.4069 229.005 15.807 230.022 16.2145C230.574 15.7046 231.198 15.1263 232.067 14.3236V14.3211ZM250.243 9.31201C250.197 9.81951 250.16 10.2367 250.124 10.6271C251.81 12.1033 252.129 9.678 253.256 9.55112C253.352 9.54136 253.396 9.10218 253.427 8.99238C252.288 9.10706 251.31 9.20466 250.243 9.31201ZM601.798 8.40681C602.216 8.36777 602.543 8.33849 602.667 8.32629C603.004 8.80207 603.27 9.17782 603.689 9.77071C603.762 9.14854 603.797 8.84843 603.821 8.6386C604.306 8.5532 604.707 8.50928 605.08 8.38485C605.136 8.36533 605.129 7.80171 605.034 7.76023C604.441 7.50404 603.816 7.1771 603.196 7.16246C602.557 7.14538 601.845 7.38693 601.801 8.40681H601.798ZM308.152 13.5282C308.069 13.4281 307.984 13.3305 307.901 13.2305C306.832 13.4111 305.763 13.5892 304.587 13.7868C305.239 15.097 306.237 15.0897 307.095 14.8506C307.537 14.7286 307.803 13.9893 308.149 13.5282H308.152ZM528.082 5.09098C528.143 3.9857 527.321 4.24677 526.748 4.18089C525.899 4.0833 525.26 4.34925 525.064 5.33985C526.165 6.00594 527.17 6.0035 528.082 5.09098ZM294.445 10.4319C293.525 10.0781 292.847 9.93419 292.308 9.5804C291.298 8.91919 290.466 9.17782 289.4 9.86099C290.114 10.0074 290.746 9.95127 291.073 10.2392C292.091 11.1346 293.098 10.6832 294.445 10.4319ZM630.827 7.45036C629.988 7.39181 629.171 7.33569 628.351 7.27713C627.56 7.22345 626.728 7.08682 626.694 8.43609C627.082 8.17746 627.47 7.91883 627.902 7.63336C628.465 8.11158 629.056 8.61176 629.656 9.11926C630.098 8.48976 630.451 7.98714 630.827 7.45036ZM506.866 10.5978C506.815 8.65324 505.7 8.26285 503.765 9.27785C503.858 9.67068 503.95 10.0635 504.082 10.6198C505.017 9.59504 505.932 9.83415 506.864 10.5978H506.866ZM434.343 9.1095C433.755 9.05094 433.252 8.98994 432.75 8.95578C432.464 8.93627 432.179 8.95578 431.891 8.95578C432.02 9.28273 432.084 9.83415 432.289 9.89515C433.27 10.1782 434.289 10.3246 435.297 10.5222C435.358 10.3953 435.419 10.2685 435.48 10.1416C435.068 9.76827 434.653 9.39497 434.343 9.11194V9.1095ZM303.006 12.5961C302.194 12.6962 301.372 12.7986 300.362 12.9231C301.108 13.5892 301.696 14.1113 302.443 14.7774C302.755 14.509 303.177 14.1455 303.482 13.882C303.287 13.3525 303.133 12.9401 303.006 12.5961ZM154.191 14.0015C154.22 13.3647 154.257 12.5449 154.296 11.7251C154.128 11.7129 153.962 11.7031 153.793 11.6909C153.749 12.1838 153.874 12.9719 153.63 13.1085C153.142 13.3818 152.454 13.2964 151.812 13.3647C151.761 13.7868 151.71 14.2309 151.666 14.5846C152.447 14.4041 153.181 14.2357 154.191 14.0015ZM275.351 10.8394C276.154 10.327 276.898 9.85367 277.642 9.37789L277.52 8.9997C277.184 9.0241 276.788 8.94847 276.517 9.09486C275.951 9.40229 275.532 9.77559 274.761 9.39741C274.424 9.23149 273.414 9.37301 273.399 10.5417C274.014 10.2904 274.439 10.1147 274.9 9.92687C275.054 10.2343 275.19 10.51 275.354 10.8394H275.351ZM202.45 14.9994C202.536 15.1605 202.597 15.4069 202.75 15.5484C203.599 16.3341 204.4 16.1169 205.151 15.3752C205.4 15.1287 205.644 14.875 205.89 14.6237C205.493 14.5724 205.083 14.4358 204.7 14.4919C203.965 14.5968 203.248 14.814 202.45 14.9994ZM433.23 11.464C434.628 12.196 436.161 12.0471 436.966 11.1029C435.787 10.3758 433.862 10.5612 433.23 11.464ZM333.267 13.1573C332.199 12.7303 331.254 12.3521 330.31 11.9739C330.498 14.0967 330.691 14.3968 331.674 14.165C331.542 14.0503 331.398 13.9234 331.32 13.8527C331.947 13.6282 332.543 13.4159 333.267 13.1573ZM254.981 14.348C255.028 14.5163 255.074 14.6871 255.12 14.8555C255.801 14.8555 256.64 15.097 257.114 14.7847C257.551 14.4968 257.592 13.6136 257.807 12.9938L257.499 12.906C256.66 13.3867 255.818 13.8673 254.979 14.348H254.981ZM193.174 14.1601C191.866 14.4261 190.886 14.8238 190.722 16.1901C191.173 16.3877 191.639 16.5902 192.047 16.7684C192.43 15.8802 192.779 15.0751 193.176 14.1601H193.174ZM322.425 12.0764C322.276 12.1545 322.127 12.2301 321.981 12.3082C321.981 13.0524 321.961 13.7941 322.007 14.5358C322.012 14.6212 322.4 14.7701 322.581 14.7359C322.954 14.6627 323.305 14.4846 323.876 14.2699C323.327 13.4403 322.878 12.7596 322.427 12.0764H322.425ZM204.914 15.6875C206.229 17.0465 207.405 16.8952 208.637 15.18C207.486 15.3361 206.334 15.4947 204.914 15.6875ZM214.473 16.3194C214.717 15.8632 214.893 15.5338 215.027 15.28C215.793 15.563 216.464 15.8095 217.135 16.0583C217.177 15.9754 217.218 15.8949 217.262 15.8119C216.923 15.2581 216.584 14.7042 216.279 14.2065C215.654 14.4236 215.069 14.5529 214.559 14.8238C213.934 15.1556 213.666 15.6387 214.473 16.317V16.3194ZM505.378 6.77695C504.175 7.31861 503.031 7.83343 501.611 8.47268C503.597 8.86551 505.431 7.9969 505.378 6.77695ZM526.043 9.21198H526.377C526.377 8.88747 526.35 8.56296 526.384 8.24333C526.418 7.90419 526.511 7.56992 526.57 7.26981C526.216 7.22101 525.862 7.14294 525.506 7.13318C525.072 7.12342 524.628 7.12586 524.213 7.22833C524.127 7.25029 524.154 7.72851 524.13 7.9969C524.567 7.97982 525.006 7.9603 525.443 7.94811C525.513 7.94811 525.584 7.9725 525.652 7.9847C525.784 8.39949 525.916 8.80451 526.045 9.21198H526.043ZM545.127 8.27993L545.617 9.49744C547.274 9.49744 547.693 9.27297 547.945 8.07742C546.988 8.14574 546.039 8.21405 545.129 8.27993H545.127ZM531.22 7.6358C529.705 6.86479 529.092 7.36497 528.661 8.25553C528.553 8.47512 528.541 8.73863 528.483 8.98262C528.783 9.01434 529.163 9.17538 529.366 9.05094C529.964 8.68496 530.493 8.2043 531.217 7.6358H531.22ZM372.965 8.54588C372.58 8.12134 372.306 7.56992 371.889 7.42353C371.426 7.26249 370.825 7.43572 370.306 7.55528C370.215 7.57724 370.162 8.27261 370.206 8.28481C370.63 8.41657 371.074 8.49464 371.521 8.53612C371.916 8.57272 372.316 8.54344 372.965 8.54344V8.54588ZM319.248 6.99166C318.621 8.15062 318.86 8.88503 319.616 9.46329C319.814 9.61456 320.351 9.68776 320.405 9.59992C320.573 9.32421 320.749 8.85331 320.622 8.6386C320.28 8.07498 319.782 7.60896 319.25 6.9941L319.248 6.99166ZM483.334 8.08962L483.622 7.87491C483.578 7.33325 483.532 6.79159 483.468 6.01082H481.172V6.38413H482.212C482.141 6.46952 482.068 6.55248 481.997 6.63788C482.444 7.12342 482.89 7.60652 483.337 8.09206L483.334 8.08962ZM341.443 13.4233C341.57 13.4818 341.697 13.5404 341.823 13.5989C342.416 12.7498 343.963 12.6937 343.761 10.9931C342.978 11.4323 342.246 11.7373 341.662 12.2228C341.421 12.4229 341.504 13.0109 341.44 13.4233H341.443ZM453.713 6.9819C454.471 7.23321 455.096 7.4894 455.747 7.62848C456.021 7.68704 456.484 7.59188 456.611 7.39913C456.748 7.19661 456.657 6.76475 456.533 6.49148C456.433 6.27189 456.135 6.14258 456.096 6.11086C455.196 6.4378 454.486 6.69887 453.713 6.97946V6.9819ZM369.452 8.88503C368.608 8.66788 368.266 8.58004 367.749 8.44829C367.571 9.1949 367.405 9.89515 367.241 10.5954L367.602 10.6637C368.146 10.1391 368.691 9.617 369.452 8.88503ZM329.542 12.3839C328.754 12.6352 328.122 12.9963 328.566 13.899C328.69 14.1528 329.468 14.4017 329.62 14.2723C330.293 13.6941 330.088 13.028 329.542 12.3839ZM447.94 10.61C447.82 10.4978 447.701 10.3856 447.581 10.2733C446.74 11.5909 445.83 10.4734 444.915 10.4636C445.288 10.9053 445.681 11.2005 446.105 11.4396C446.481 11.6494 447.118 12.0398 447.25 11.9203C447.594 11.6104 447.725 11.0639 447.942 10.6125L447.94 10.61ZM233.843 9.1339C233.594 9.56088 233.323 9.84147 233.382 9.95859C233.643 10.4758 233.997 10.9467 234.316 11.4323C234.541 11.1078 235.012 10.693 234.934 10.4758C234.773 10.0269 234.319 9.68532 233.843 9.1339ZM326.25 14.0283C326.797 15.6802 326.868 15.768 327.607 15.3557C327.939 15.1702 328.105 14.6896 328.344 14.3431C327.7 14.2455 327.055 14.1503 326.25 14.0283ZM397.112 6.67448C396.934 6.58176 396.756 6.49148 396.577 6.39877C396.153 6.84039 395.726 7.28201 395.301 7.72119C395.758 7.87735 396.216 8.0335 396.673 8.18966C396.819 7.6846 396.965 7.17954 397.112 6.67448ZM219.399 10.0123C218.565 10.5686 217.865 11.037 217.167 11.5055L217.379 11.8983C218.258 11.6299 219.136 11.364 220.126 11.059C219.814 10.61 219.621 10.3295 219.399 10.0098V10.0123ZM523.776 7.16246C523.642 7.11122 523.508 7.05998 523.374 7.00874C522.922 7.56504 522.432 8.0945 522.044 8.69228C521.924 8.87527 522.083 9.23637 522.112 9.51696C522.356 9.46084 522.744 9.48036 522.82 9.33641C523.183 8.63616 523.464 7.89199 523.776 7.1649V7.16246ZM442.929 9.09486L442.934 9.6292C443.58 9.6292 444.232 9.66824 444.868 9.59748C445 9.58284 445.085 9.15342 445.193 8.91431C444.966 8.82891 444.724 8.64592 444.517 8.68008C443.978 8.76791 443.456 8.95091 442.926 9.09486H442.929ZM318.004 13.516C318.111 13.5477 318.218 13.5794 318.326 13.6136L318.709 11.9227C318.221 11.8788 317.735 11.8349 317.143 11.7812C317.538 12.579 317.77 13.0475 318.004 13.516ZM537.361 7.70411C537.31 7.465 537.229 6.9575 537.195 6.95994C536.261 7.0429 535.331 7.17466 534.401 7.30153C534.419 7.43573 534.433 7.56992 534.45 7.70411H537.361ZM579.172 7.587C578.464 7.14294 577.825 7.12098 577.31 7.75047C577.198 7.88711 577.344 8.48244 577.491 8.53612C578.332 8.84355 578.842 8.42633 579.172 7.587ZM244.959 16.1974C244.746 15.2995 243.926 14.9758 242.499 15.2263C243.239 15.5191 243.975 15.8095 244.959 16.1974ZM450.509 11.0883C450.599 11.12 450.692 11.1541 450.782 11.1859C451.053 10.6198 451.326 10.0537 451.683 9.30713C451.107 9.42181 450.807 9.42181 450.568 9.5438C450.168 9.74631 449.809 10.0245 449.433 10.2709C449.519 10.3734 449.604 10.4734 449.689 10.5759C449.926 10.4124 450.163 10.2465 450.509 10.0074V11.0883ZM565.702 6.58908C564.55 6.67204 563.686 6.73547 562.823 6.79647L562.84 7.17222C563.711 6.78671 564.635 8.54832 565.702 6.58908ZM560.607 8.41901C560.032 7.23565 559.085 7.72363 558.294 7.71875C558.202 7.71875 558.009 8.0335 558.041 8.16282C558.072 8.30433 558.309 8.49708 558.458 8.49952C559.151 8.50684 559.841 8.45317 560.61 8.41901H560.607ZM392.156 5.23981C391.966 5.63996 391.805 5.98398 391.498 6.63544C392.405 6.45244 393.015 6.33045 393.628 6.20845C393.635 6.10842 393.64 6.00838 393.647 5.90834C393.179 5.69851 392.708 5.48868 392.159 5.24225L392.156 5.23981ZM550.633 4.89578C549.78 4.32973 549.167 3.9247 548.518 3.49528C548.169 4.58104 548.711 4.96654 550.633 4.89578ZM655.554 7.83831C655.515 8.08962 655.476 8.33849 655.437 8.5898C655.935 8.72399 656.43 8.85819 656.928 8.99238C656.928 8.6386 657.023 8.02374 656.904 7.97738C656.496 7.82367 656.011 7.86759 655.554 7.83587V7.83831ZM586.093 7.12098C586.079 7.18685 585.993 7.44792 586.015 7.45768C586.708 7.74559 587.408 8.01886 588.123 8.24577C588.175 8.26285 588.455 7.88223 588.436 7.71143C588.416 7.55772 588.143 7.35521 587.955 7.32105C587.399 7.22101 586.833 7.19417 586.093 7.12098ZM287.853 12.784C288.099 14.5285 288.39 14.7481 289.551 14.2113L287.853 12.784ZM458.212 8.80939L457.958 8.1677C457.431 8.37021 456.906 8.57272 456.379 8.77523C456.579 8.98506 456.821 9.39985 456.967 9.36813C457.401 9.27541 457.799 9.00946 458.212 8.80939ZM304.151 9.61944C304.016 9.40473 303.885 9.19246 303.75 8.97774C303.324 9.19246 302.872 9.37301 302.499 9.65604C302.443 9.69752 302.74 10.2099 302.877 10.5051C303.302 10.2099 303.726 9.91467 304.153 9.617L304.151 9.61944ZM506.466 4.4566C506.393 4.57616 506.322 4.69571 506.249 4.81527C506.505 5.10074 506.871 5.66923 506.993 5.62044C507.454 5.43988 507.835 5.05438 508.247 4.74695C508.181 4.62739 508.113 4.5054 508.047 4.38584C507.52 4.4078 506.993 4.4322 506.466 4.45416V4.4566ZM473.707 9.39741L473.975 8.89235C473.411 8.5044 472.845 8.11646 472.282 7.72851L471.926 8.29945C472.518 8.66544 473.114 9.03142 473.707 9.39741ZM499.534 9.57064C498.851 9.44865 498.275 8.25553 497.504 9.26077C498.21 9.27297 498.732 10.5271 499.534 9.57064ZM388.299 11.425C388.365 11.6446 388.431 11.8666 388.497 12.0862C388.929 12.0057 389.36 11.9251 389.79 11.8446C389.69 11.5689 389.553 11.0468 389.5 11.0565C389.09 11.1224 388.697 11.2908 388.299 11.4274V11.425ZM530.927 9.77315C531 9.90491 531.071 10.0367 531.144 10.1684C531.654 9.85367 532.164 9.53892 532.864 9.10706C532.218 8.88747 531.884 8.77523 531.583 8.67276C531.349 9.06802 531.139 9.42181 530.93 9.77559L530.927 9.77315ZM643.648 7.47476C644.082 7.11366 644.417 6.83551 644.753 6.55492C644.534 6.43048 644.317 6.20845 644.092 6.19869C643.729 6.18405 643.36 6.30849 642.955 6.37925C643.182 6.73791 643.348 6.99898 643.648 7.47232V7.47476ZM322.298 9.62188C322.193 9.67312 322.086 9.72192 321.981 9.77315C322.164 10.2367 322.281 10.7467 322.564 11.1419C322.664 11.281 323.161 11.1346 323.706 11.1078C323.1 10.471 322.7 10.0464 322.3 9.62432L322.298 9.62188ZM345.261 8.59224C343.68 8.30677 343.587 8.41657 343.98 9.79999C344.441 9.36569 344.851 8.97775 345.261 8.59224ZM332.394 8.45804L332.562 8.79719C333.052 8.69472 333.543 8.59224 334.031 8.48976C334.021 8.37509 334.009 8.25797 333.999 8.1433C333.675 7.93835 333.348 7.73583 332.95 7.48452C332.733 7.86271 332.562 8.16038 332.394 8.4556V8.45804ZM220.68 14.4846C219.929 14.936 219.329 15.2947 218.731 15.6558C218.816 15.7875 218.904 15.9217 218.99 16.0535C219.892 16.0974 220.363 15.5533 220.68 14.4846ZM381.639 11.1175L381.194 11.1395L380.843 12.3082C381.207 12.3033 381.573 12.3009 381.936 12.296C381.836 11.9032 381.736 11.5104 381.636 11.1175H381.639ZM367.873 7.74803L367.78 7.44792C367.451 7.44792 367.114 7.40401 366.795 7.46012C366.517 7.51136 366.26 7.67484 365.995 7.78951C366.275 7.94079 366.565 8.22869 366.831 8.20673C367.188 8.17746 367.527 7.91151 367.871 7.74559L367.873 7.74803ZM150.075 15.3361C149.568 15.5972 148.975 15.9046 148.382 16.2096C148.543 16.3609 148.701 16.5146 148.862 16.6659C149.834 16.6708 150.136 16.0852 150.075 15.3361ZM475.776 6.20113C475.937 6.09378 476.1 5.98642 476.261 5.87907C476.11 5.58384 476.01 5.0983 475.793 5.0373C475.507 4.95678 475.127 5.21053 474.788 5.32033C475.117 5.61312 475.446 5.90834 475.776 6.20113ZM572.309 3.405C571.479 3.81491 570.862 4.11746 570.245 4.42244C570.323 4.56152 570.398 4.70303 570.476 4.84211C570.857 4.12477 572.167 5.04218 572.309 3.405ZM132.099 14.6212L132.306 14.0308C131.842 13.8551 131.381 13.6794 130.918 13.5038C130.891 13.7526 130.776 14.1796 130.854 14.2187C131.24 14.409 131.677 14.4968 132.096 14.6212H132.099ZM338.237 12.623C338.347 12.6913 338.457 12.762 338.569 12.8304C338.635 12.6962 338.664 12.5205 338.769 12.4326C339.118 12.1423 339.491 11.8812 339.945 11.5445C339.903 11.4445 339.789 11.1712 339.554 10.6076C339.025 11.4201 338.63 12.0203 338.237 12.623ZM477.918 9.37301L478.408 9.69508C478.637 9.22906 478.881 8.77035 479.077 8.28969C479.094 8.24821 478.806 8.0823 478.659 7.97494C478.413 8.44097 478.167 8.90699 477.92 9.37301H477.918Z" fill="#FF8200"/>
</g>
<defs>
<clipPath id="clip0_392_2406">
<rect width="676.231" height="27.4148" fill="white" transform="translate(0.769043)"/>
</clipPath>
</defs>
</svg>
