<svg width="110" height="66" viewBox="0 0 110 66" fill="none" xmlns="http://www.w3.org/2000/svg">
<g clip-path="url(#clip0_640_140)">
<path d="M33.2645 56.0171C32.9399 56.4147 32.6288 56.8231 32.289 57.2091C31.9436 57.6011 31.6654 58.1202 30.9794 57.9594C30.8484 57.9292 30.6638 58.0355 30.5312 58.1189C30.0883 58.4004 29.7048 58.5157 29.5699 57.7886C29.0628 58.161 29.5215 59.1462 28.5577 59.0899C28.6048 58.9216 28.6493 58.7644 28.6979 58.5912C28.5917 58.5904 28.511 58.5762 28.5065 58.5907C28.0396 59.8463 26.6343 59.9226 25.8143 60.7319C25.7654 60.7802 25.6962 60.8492 25.6419 60.8448C23.9947 60.7254 23.0601 62.2036 21.615 62.6165C19.0375 63.3509 16.5204 64.3187 13.8166 64.5042C12.6681 64.5836 11.6199 64.1189 10.6629 63.5359C10.3149 63.3247 10.0454 62.9021 9.87761 62.5154C9.80225 62.3409 10.0614 62.02 10.1877 61.7223C9.88368 61.6245 9.28159 61.5828 9.62967 60.8284C9.67288 60.7362 9.33573 60.4674 9.13685 60.2384C9.34735 60.1054 9.57056 59.9656 9.78011 59.8344C9.54207 59.6963 9.15893 59.5897 9.1421 59.4389C9.10814 59.1462 9.27842 58.8282 9.37181 58.4889C8.64264 58.2321 8.54843 57.5929 9.14893 56.9061C9.43875 56.5746 9.54744 56.0838 9.72924 55.6609C9.90424 55.2548 9.99557 54.7897 10.2511 54.442C11.0612 53.3417 11.9215 52.2765 12.7864 51.2173C13.0356 50.9125 13.3665 50.6747 13.7373 50.3338C13.7848 50.2463 13.8687 50.0185 14.0117 49.8365C14.4593 49.2686 14.8815 48.67 15.3991 48.1695C16.3509 47.249 17.0446 46.054 18.2822 45.4279C18.3729 45.3818 18.4043 45.205 18.448 45.0847C18.5015 44.938 18.502 44.6822 18.5896 44.6503C19.6648 44.2546 19.5985 43.0163 20.3152 42.3641C20.7204 41.9954 21.1046 41.605 21.5012 41.2272C21.6021 41.1311 21.7791 41.0638 21.8092 40.952C22.2259 39.438 23.7546 38.9106 24.6016 37.7862C24.8947 37.3964 25.1234 36.9581 25.4247 36.5762C25.7582 36.1539 26.142 35.7725 26.568 35.3006C26.4678 34.3192 27.8742 33.9443 27.8579 32.8542C28.4629 33.1831 29.2128 32.8311 29.375 32.1539C29.1479 32.2361 28.9528 32.3072 28.5816 32.4439C28.6935 32.152 28.7185 31.9785 28.8139 31.8591C29.2944 31.2535 29.7944 30.6641 30.2831 30.0664C30.3705 29.9596 30.5005 29.8328 30.4999 29.7169C30.5019 28.6684 31.1712 27.8716 31.5417 26.965C31.6534 26.6923 32.008 26.5194 32.4038 26.1638C32.5742 25.0139 32.7175 24.7685 33.8001 24.8336C34.2582 24.8608 35.1318 24.4103 35.1962 25.489C35.9219 25.2736 36.38 25.5931 36.7484 26.1554C36.8537 26.3167 37.0637 26.4101 37.2246 26.5357C37.3315 26.6186 37.477 26.6827 37.5363 26.793C37.8237 27.3352 38.068 27.9005 38.3637 28.4358C38.6081 28.8776 38.5822 29.1866 38.0426 29.3453C38.268 29.54 38.6313 29.7084 38.6513 29.9097C38.676 30.1611 38.3665 30.4264 38.2919 30.7101C38.1651 31.1843 38.1009 31.6765 38.0445 32.165C38.0414 32.1895 38.4462 32.3441 38.5305 32.2765C38.7913 32.0653 38.9896 31.7771 39.2017 31.5305C39.5808 31.4899 39.9897 31.3714 40.3756 31.4229C40.7788 31.4781 41.1596 31.6957 41.5855 31.8573C41.7422 31.0628 42.5047 31.5653 42.8658 31.2906C42.5688 31.0187 42.2776 30.751 41.9863 30.4832C42.32 30.3342 42.6638 30.2042 42.9858 30.0307C43.2065 29.9123 43.3939 29.7361 43.6157 29.5718C43.8249 29.6126 44.0647 29.6575 44.4285 29.7288C44.0016 29.1031 44.481 28.9298 44.7787 28.7092C45.1418 28.4412 45.5446 28.2275 45.8092 28.0637C46.164 28.1245 46.4769 28.277 46.7014 28.1912C46.9445 28.0985 47.1903 27.8168 47.2799 27.5639C47.3947 27.2373 47.5119 27.107 47.8676 27.141C48.2339 27.1763 48.6078 27.1329 48.9801 27.1237C48.9379 26.8379 48.7736 26.4826 48.8882 26.3089C49.0188 26.1099 49.4232 26.1148 49.6617 25.9573C50.1984 25.6054 50.7068 25.2076 51.2425 24.8178C51.6006 25.1274 52.1695 25.0672 52.5866 24.4907C53.0023 23.9146 53.4599 23.648 54.1852 23.753C54.4817 23.7958 54.8887 23.6955 55.1097 23.5035C55.5763 23.099 55.9387 22.5857 56.6174 22.4695C56.7057 22.455 56.734 22.0895 56.8091 21.8174C57.2708 22.0153 57.7199 21.8835 58.1007 21.3383C58.1944 21.2032 58.6714 21.2894 58.9582 21.3439C59.2964 21.4081 59.6204 21.5485 59.969 21.6625C60.0027 21.0778 59.9139 20.6104 60.071 20.2478C60.5149 19.2268 61.3694 18.6278 62.4279 18.3194C62.5346 18.2877 62.7395 18.2842 62.7646 18.334C63.0365 18.8882 63.5046 18.9741 64.047 18.9188C64.0316 19.0204 64.0171 19.1202 63.989 19.3079C64.3199 19.1347 64.6181 18.98 64.8115 18.8785C64.8472 18.2359 64.8773 17.6935 64.9075 17.1511C65.2443 17.2304 65.5067 17.2921 65.7864 17.3575C65.8274 16.49 66.3994 15.8557 67.1807 15.684C67.6444 15.5816 68.1052 15.4595 68.5529 15.303C68.6716 15.2619 68.7385 15.0613 68.8192 14.9271C68.9623 14.6906 69.0723 14.4272 69.2509 14.2214C69.32 14.1421 69.5366 14.188 69.6846 14.1764C69.676 14.3009 69.6701 14.4246 69.6583 14.5486C69.6434 14.7162 69.6244 14.885 69.6067 15.0534C69.7607 14.9577 69.9248 14.8766 70.0655 14.7658C70.2839 14.5951 70.4896 14.4062 70.6951 14.2217C70.9016 14.0355 71.264 13.8544 71.2765 13.6538C71.3334 12.7507 72.021 12.4862 72.6503 12.1539C73.7677 11.5635 74.8888 10.9808 76.0199 10.4171C76.3057 10.275 76.657 10.2647 76.9424 10.1212C77.2649 9.95933 77.5418 9.70811 77.8473 9.50866C78.3794 9.16109 78.894 8.7746 79.4633 8.50271C79.806 8.33925 80.2116 8.6406 80.5452 8.0257C80.806 7.54705 81.6995 7.4111 82.3138 7.12731C82.9444 6.83426 83.5784 6.54755 84.2112 6.2568C84.7122 6.02723 85.2153 5.79996 85.7143 5.56363C86.4036 5.23551 87.0759 4.86983 87.7793 4.57427C88.5113 4.26583 89.2688 4.01886 89.9493 3.76979C90.096 3.58517 90.1989 3.33267 90.3793 3.24679C91.746 2.60441 93.1209 1.98014 94.5137 1.39613C94.71 1.31433 95.0129 1.48748 95.3746 1.56671C95.5617 1.45385 95.8861 1.09007 96.1874 1.10936C96.7945 1.1481 97.4055 1.34878 97.9793 1.5723C98.3236 1.70669 98.7772 3.05635 98.6914 3.41104C99.6724 3.48572 100.316 4.13373 100.682 5.06722C101.156 6.27982 101.097 7.42757 100.458 8.50495C100.202 8.93827 99.6999 9.29443 99.2285 9.50936C98.8996 9.6599 98.5698 9.63878 98.5338 10.1168C98.5255 10.2325 98.2645 10.4084 98.1103 10.4189C97.576 10.457 97.0355 10.4 96.5027 10.448C96.1086 10.4827 95.7117 10.5873 95.3384 10.7217C94.4752 11.0338 93.6295 11.3951 92.7671 11.71C92.414 11.8383 92.0136 11.8469 91.6728 11.9966C90.6965 12.4232 89.5796 12.7181 88.8222 13.4015C88.137 14.0208 87.3819 13.7262 86.7112 14.0576C85.7607 14.5265 84.7012 14.772 83.7371 15.2199C82.9072 15.6045 82.1485 16.1398 81.3555 16.6045C81.134 16.735 80.8959 16.9732 80.681 16.9576C79.3154 16.8605 78.5534 17.9494 77.5187 18.4962C77.0633 18.7357 76.6294 19.013 76.1118 18.5523C75.8099 18.2834 75.4495 18.4712 75.4561 18.8352C75.4721 19.771 74.8151 19.9602 74.1437 20.2448C73.1488 20.6681 72.1569 21.1213 71.2261 21.6666C70.6124 22.0266 70.1556 22.6575 69.5371 23.0013C69.1358 23.2248 68.5679 23.1495 68.0023 23.216C68.014 23.2801 68.0551 23.4928 68.132 23.9006C66.3889 24.8399 64.5811 25.7896 62.799 26.7861C62.0196 27.2218 61.3243 27.8074 60.5361 28.2236C59.9282 28.5437 59.2364 28.7051 58.5896 28.9338C58.6025 28.9623 58.6877 29.1502 58.7732 29.3393C58.5666 29.3713 58.3287 29.3478 58.1622 29.4458C57.8332 29.6405 57.3582 29.3876 57.0996 29.9332C56.9739 30.1984 56.3617 30.2317 56.0876 30.5071C55.815 30.7629 55.5597 31.0371 55.2679 31.2678C54.8854 31.5694 54.4848 31.85 54.0747 32.1129C53.8336 32.2668 53.5636 32.3778 53.2981 32.489C52.8073 32.6935 52.3009 32.86 51.8206 33.0849C51.2162 33.3672 50.4357 33.5519 50.0882 34.0357C49.6719 34.6149 49.1481 34.916 48.5935 35.2026C47.6349 35.6988 46.6286 36.1034 45.6461 36.5539C44.9603 36.8692 44.2733 37.1804 43.6013 37.5225C42.8178 37.9197 42.0434 38.3378 41.2749 38.7658C40.355 39.2785 39.504 39.8692 38.9838 40.8364C38.8954 40.9993 38.6565 41.0864 38.4806 41.1974C37.8866 41.5692 37.3308 42.0943 36.6816 42.2606C36.0423 42.4254 35.7635 42.7889 35.3989 43.2352C35.1659 43.5204 34.6885 43.6607 34.2931 43.7457C33.1326 43.9977 32.6672 45.1147 31.77 45.6838C31.3754 45.9347 30.9879 46.1997 30.4826 46.5334C30.4533 46.6082 30.4272 46.976 30.2412 47.0974C29.1958 47.7767 28.138 48.4537 27.0245 49.0077C26.5837 49.2268 25.9845 49.1255 25.458 49.1848C25.1208 49.2232 24.7548 49.2187 24.4589 49.3565C23.9702 49.5824 23.528 49.9062 23.03 50.2099C23.1179 50.2881 23.2586 50.4154 23.4609 50.5963C22.8062 51.3036 22.157 52.0049 21.5088 52.7044L21.657 52.8764C21.7659 52.8867 21.8878 52.9357 21.9826 52.9032C23.4225 52.4036 24.8508 51.8649 26.3035 51.4086C26.6803 51.2909 27.1371 51.4227 27.575 51.4412C27.681 51.2436 27.7723 50.8329 28.021 50.6797C28.2673 50.5287 28.6805 50.6823 29.0084 50.6276C29.3717 50.5682 29.8005 50.5217 30.0652 50.3035C31.641 49.0038 32.6471 48.7668 34.8238 48.4454C34.7549 48.6245 34.693 48.7825 34.6296 48.9454C35.7861 49.2795 36.5904 49.9725 36.986 51.0572C37.0629 51.2666 36.8187 51.5933 36.709 51.9022L36.9311 52.0611C36.7401 52.2001 36.5636 52.329 36.3716 52.4697C36.429 52.5541 36.4544 52.62 36.5017 52.6604C36.7196 52.8396 36.9441 53.0111 37.1648 53.1851C36.8917 53.4837 36.6686 53.8762 36.3325 54.0568C35.8211 54.3306 35.2312 54.4587 34.7634 54.6167C34.9595 55.0494 35.0986 55.3593 35.2391 55.6689C35.0162 55.7306 34.7934 55.7924 34.5723 55.8551C34.5814 55.7274 34.6342 55.509 34.5912 55.4879C34.1207 55.2602 33.553 55.4978 33.2645 56.0171ZM68.8822 20.959C68.2073 21.227 67.6274 21.4579 66.9959 21.7086C67.4618 22.0327 68.0905 21.7829 68.8822 20.959ZM37.9692 28.5632C37.9525 28.4624 37.9358 28.3615 37.9191 28.2607C37.5874 28.3371 37.2499 28.3991 36.9283 28.5049C36.8733 28.5227 36.8777 28.7256 36.8551 28.8426C37.1338 28.8054 37.4143 28.7794 37.6908 28.7252C37.7909 28.7058 37.8782 28.6182 37.9706 28.5628L37.9692 28.5632ZM40.0676 33.932C40.8107 34.4682 40.9845 34.4196 41.164 33.7711C40.8453 33.8172 40.5454 33.8621 40.0676 33.932ZM62.7172 19.6208L62.8154 19.2434C62.5828 19.1978 62.3515 19.1518 62.1184 19.1049C62.0976 19.2081 62.042 19.3922 62.0622 19.4009C62.2742 19.4908 62.4969 19.5525 62.7159 19.6212L62.7172 19.6208Z" fill="#FF8200"/>
</g>
<defs>
<clipPath id="clip0_640_140">
<rect width="103.477" height="37.9549" fill="white" transform="translate(-0.000305176 29.4531) rotate(-16.5365)"/>
</clipPath>
</defs>
</svg>
