<svg width="123" height="54" viewBox="0 0 123 54" fill="none" xmlns="http://www.w3.org/2000/svg">
<g clip-path="url(#clip0_640_138)">
<path d="M24.0367 27.7451C23.7985 27.9076 23.591 27.7287 23.3353 27.575C22.8177 27.2636 22.2695 26.9999 21.7216 26.7412C21.4733 26.6235 21.1848 26.5892 20.9381 26.4688C20.7724 26.3879 20.6652 26.1856 20.4997 26.1039C19.9874 25.8515 19.4616 25.6254 18.9369 25.398C18.6209 25.2607 18.2927 25.1508 17.9779 25.0089C17.708 24.8871 17.4611 24.7398 17.2139 24.5576C16.7358 24.2048 16.106 24.0669 15.5853 23.7611C15.0494 23.4455 14.3935 23.372 13.9373 22.8831C13.7791 22.7134 13.465 22.6901 13.2227 22.5984C12.9497 22.4944 12.6129 22.495 12.4945 22.138C12.4787 22.0908 12.393 22.0654 12.3364 22.0348C12.1563 21.9379 11.981 21.8293 11.7932 21.7522C11.667 21.6998 11.5229 21.6928 11.3528 21.6585C11.2762 21.2479 10.9425 21.1009 10.5593 20.9179C9.99275 20.6469 9.49515 20.2337 8.95885 19.8954C8.56621 19.6474 8.15229 19.4335 7.76143 19.182C7.57888 19.0641 7.33101 18.9206 7.28514 18.7437C7.15744 18.2577 6.70732 18.1849 6.40867 17.9192C6.10424 17.6478 5.86832 17.3023 5.58889 17.0012C5.46868 16.8716 5.32054 16.7646 5.17558 16.6609C5.05784 16.5766 4.89654 16.5399 4.80497 16.4367C4.37728 15.9563 3.94596 15.4773 3.5593 14.965C3.30555 14.6285 3.08496 14.2531 2.92999 13.8628C2.85084 13.6648 2.94887 13.3958 2.96863 13.1586C2.98466 12.9625 3.01457 12.7661 3.0194 12.5695C3.02585 12.3214 2.96258 12.0612 3.02008 11.8284C3.08124 11.582 3.25757 11.3689 3.10545 11.0921C3.08093 11.0474 3.15428 10.934 3.2016 10.8664C3.45507 10.5077 3.71151 10.153 3.58486 9.67218C3.85942 9.48296 4.12118 9.28706 4.3992 9.11823C4.57182 9.01281 4.76388 8.89232 4.95593 8.87484C5.65597 8.81098 6.36094 8.8044 7.06205 8.74569C7.85278 8.67937 8.63904 8.55101 9.43055 8.50599C9.97421 8.47484 10.5236 8.54661 11.0707 8.55695C11.1731 8.55924 11.277 8.4922 11.3788 8.45457C11.4688 8.42112 11.557 8.35229 11.6466 8.35114C12.0653 8.34735 12.4842 8.36713 12.9034 8.36753C13.6369 8.36942 14.3926 8.47049 15.0981 8.32862C15.693 8.20902 16.227 8.28071 16.7884 8.36789C16.8491 8.37765 16.9216 8.31596 16.9878 8.28667C17.0686 8.25154 17.1482 8.18447 17.2286 8.18411C17.7378 8.17861 18.2484 8.20431 18.7576 8.18665C19.2866 8.1678 19.8138 8.11035 20.3417 8.06848C20.3807 8.06515 20.4351 8.03185 20.4538 8.04661C20.9886 8.48434 21.6042 7.71572 22.1412 8.15729C22.1532 8.16699 22.2266 8.08689 22.279 8.06687C22.3722 8.031 22.4912 7.95907 22.5644 7.98843C23.2108 8.24598 23.7405 7.80392 24.3273 7.71459C24.8398 7.63617 25.3466 7.51889 25.8605 7.4595C25.9667 7.44742 26.0935 7.61603 26.1498 7.65707C26.7593 7.4197 27.337 7.19491 27.9537 6.95462C27.9957 7.13377 28.0172 7.2263 28.0365 7.30854C28.2683 7.2636 28.5389 7.11953 28.7098 7.19615C29.11 7.37639 29.3729 7.05508 29.709 7.02672C30.2128 6.98407 30.7547 7.19254 31.1144 7.57848C31.2253 7.69741 31.4382 7.78366 31.6015 7.77957C31.9059 7.77272 32.2078 7.65408 32.5118 7.64874C32.7661 7.6439 33.0217 7.74322 33.2784 7.78117C33.5812 7.82579 33.9202 7.95312 34.1837 7.86558C34.6811 7.7012 35.1156 7.81436 35.533 8.01218C35.825 8.15126 36.0706 8.32738 36.4272 8.25584C36.5876 8.22338 36.7749 8.32953 36.9504 8.37088C37.0586 8.39664 37.1705 8.4485 37.275 8.43677C37.4798 8.4138 37.6568 8.39796 37.7699 8.62373C37.797 8.67721 37.9186 8.73494 37.9706 8.71643C38.5135 8.5245 38.8067 8.97698 39.1958 9.17774C39.2299 9.1958 39.2616 9.21971 39.2975 9.23419C39.632 9.37626 39.7297 9.619 39.5906 9.96241C39.7752 9.87886 39.9596 9.79606 40.1442 9.71251C40.1758 9.74288 40.2082 9.77345 40.24 9.80306C40.0705 10.0148 39.9011 10.2265 39.6743 10.5096C40.2762 10.6093 40.6104 10.0945 41.188 10.0579C40.3648 10.9144 39.6048 11.7044 38.8458 12.4938C38.8127 12.4387 38.7797 12.3836 38.7473 12.3287C38.5948 12.3681 38.4435 12.4184 38.2885 12.4426C38.0931 12.4729 37.8945 12.4814 37.7116 12.4981C37.4031 12.7747 37.0762 13.0683 36.7403 13.3685C36.637 13.3846 36.501 13.4049 36.3648 13.426L36.3576 13.5376C36.8225 13.8033 37.2523 14.1456 37.8602 14.0562C38.057 14.0271 38.2763 14.029 38.4646 14.086C38.9545 14.2343 39.4313 14.4285 39.9182 14.5882C40.1873 14.6765 40.4675 14.7297 40.742 14.8008C40.918 14.8464 41.094 14.8919 41.2676 14.9433C41.5177 15.0176 41.7328 15.1685 42.0356 14.9917C42.2078 14.8911 42.4974 14.894 42.6693 15.1907C42.7474 15.326 42.9981 15.3834 43.1822 15.432C43.6086 15.5446 44.044 15.4423 44.4959 15.6266C45.0968 15.872 45.7868 15.8971 46.4359 16.0296C46.6243 16.068 46.8031 16.1516 46.9858 16.2143L46.9896 16.3605C47.0784 16.2805 47.1679 16.2006 47.2767 16.1033C47.3948 16.2014 47.5088 16.3358 47.6544 16.404C47.7907 16.4673 47.9604 16.4819 48.1143 16.4794C48.3603 16.4755 48.6055 16.4382 48.851 16.418C48.875 16.4164 48.9108 16.4251 48.9242 16.4417C49.4374 17.1024 50.2477 16.7996 50.8927 17.0438C51.3156 17.2033 51.7735 17.2741 52.2205 17.3615C52.3423 17.3852 52.4874 17.2886 52.611 17.3087C53.0211 17.3764 53.4248 17.4773 53.833 17.5551C53.9264 17.5728 54.0285 17.5458 54.1268 17.5421C54.2447 17.538 54.3624 17.5379 54.5743 17.5339C54.4202 17.6581 54.3482 17.715 54.2118 17.8244C54.6115 17.8642 54.9324 17.8959 55.2759 17.9303C55.2845 18.0648 55.2923 18.187 55.2952 18.234C55.756 18.3575 56.1775 18.4736 56.601 18.5822C56.7126 18.6105 56.8299 18.6298 56.9441 18.6304C57.3219 18.6343 57.6993 18.621 58.0769 18.6314C58.1356 18.6333 58.1942 18.7204 58.2485 18.7722C58.4509 18.9644 58.6449 19.0756 58.9269 18.8737C59.0033 18.8188 59.2013 18.9181 59.3366 18.9641C59.6435 19.069 59.9456 19.1856 60.2505 19.2949C60.4177 19.3551 60.5865 19.4093 60.7909 19.4786C60.7849 19.3618 60.7796 19.2696 60.7745 19.1676C60.8159 19.1674 60.8525 19.161 60.8866 19.1669C61.3164 19.2431 61.7489 19.3087 62.1731 19.4086C62.2799 19.4339 62.3592 19.5736 62.4516 19.6616C62.4924 19.7002 62.5258 19.7634 62.5727 19.776C62.9899 19.887 63.4078 19.9981 63.8296 20.0917C64.3355 20.2045 64.8687 20.2396 65.3488 20.4185C66.0228 20.6696 66.7196 20.5546 67.3972 20.6713C67.4739 20.6846 67.5572 20.6704 67.6298 20.6931C68.2268 20.8806 68.8169 21.0939 69.4212 21.2542C69.6384 21.3124 69.8887 21.244 70.1515 21.2317C70.1677 21.5832 70.3806 21.6208 70.681 21.6047C70.9395 21.5904 71.2022 21.6633 71.4632 21.6975C71.5014 21.7029 71.5541 21.7275 71.5771 21.711C71.9975 21.4165 72.3647 21.7566 72.7555 21.8053C72.794 21.81 72.8459 21.8068 72.8689 21.83C73.3152 22.2927 73.9649 22.1772 74.4938 22.4041C74.6525 22.4718 74.823 22.5588 74.8802 22.2789C74.8885 22.239 75.0124 22.1821 75.0167 22.1873C75.1007 22.2885 75.1745 22.3975 75.26 22.5202C75.7839 22.3962 76.2681 22.6354 76.7719 22.7955C77.132 22.9107 77.5172 23.0715 77.8748 23.0383C78.5143 22.9794 79.1016 23.0337 79.7166 23.2358C80.2877 23.4229 80.9135 23.4365 81.5086 23.5586C82.4733 23.7571 83.4345 23.9717 84.3931 24.1993C85.3601 24.4284 86.3186 24.6925 87.2859 24.9177C87.848 25.048 88.445 25.0628 88.9817 25.2544C89.5339 25.4519 90.1273 25.3562 90.6712 25.6358C91.0863 25.8484 91.5944 25.8953 92.0676 25.9791C93.2476 26.1882 94.4479 26.2917 95.5851 26.7091C95.6856 26.7458 95.8127 26.7101 95.9281 26.7094C96.3187 26.7045 96.7091 26.6915 97.0999 26.6981C97.4286 26.7034 97.7578 26.7219 98.0856 26.7546C98.2105 26.767 98.3518 26.8056 98.4465 26.8821C98.778 27.1494 99.1288 27.1598 99.538 27.104C99.8117 27.0662 100.109 27.2164 100.398 27.2663C100.693 27.3178 100.998 27.3249 101.287 27.3951C101.766 27.5121 102.233 27.767 102.71 27.7778C103.385 27.7924 103.984 28.1573 104.656 28.1048C104.72 28.0999 104.803 28.0704 104.844 28.0992C105.197 28.3478 105.56 28.1108 105.914 28.1385C106.393 28.176 106.873 28.2356 107.345 28.3264C107.594 28.3744 107.821 28.5271 108.069 28.5943C108.166 28.6201 108.291 28.5409 108.388 28.5127C108.744 28.5844 109.125 28.6524 109.5 28.7393C109.703 28.7862 109.899 28.9265 110.094 28.9178C110.565 28.898 110.971 29.4082 111.479 29.0707C111.561 29.0164 111.71 29.036 111.82 29.0575C112.606 29.2106 113.392 29.3676 114.175 29.5368C114.474 29.6015 114.794 29.6483 115.055 29.7928C115.673 30.1361 116.372 29.8262 116.995 30.0871C117.353 30.2366 117.724 30.3573 118.095 30.4753C118.403 30.5732 118.714 30.6744 119.032 30.7263C119.691 30.8316 120.106 31.2421 120.481 31.7505C120.69 32.0335 120.982 32.2545 121.223 32.5155C121.311 32.6105 121.425 32.7439 121.418 32.8531C121.398 33.1464 121.29 33.4345 121.273 33.7284C121.237 34.3248 121.246 34.9233 121.22 35.5204C121.212 35.6879 121.139 35.8526 121.101 36.0191C121.04 36.2827 120.925 36.5494 120.939 36.8102C120.962 37.2886 120.889 37.7298 120.681 38.1555C120.234 38.1689 119.976 38.4972 119.684 38.7718C119.606 38.8457 119.506 38.9001 119.439 38.9828C119.165 39.3214 118.788 39.2869 118.42 39.2694C118.111 39.2539 117.884 39.3755 117.752 39.646C117.626 39.9065 117.525 39.9381 117.253 39.7668C117.058 39.6442 116.738 39.6662 116.486 39.7051C116.254 39.7416 116.029 39.8728 115.816 39.9893C115.384 40.2257 114.952 40.2745 114.474 40.1262C114.201 40.0418 113.902 40.0442 113.613 40.0123C113.1 39.955 112.582 39.9241 112.074 39.8344C111.913 39.8058 111.78 39.625 111.553 39.4512C111.084 39.4791 110.558 39.3357 110.144 38.8719C110.076 38.796 109.935 38.7794 109.825 38.7473C109.713 38.7143 109.595 38.7053 109.485 38.6685C109.153 38.5583 108.828 38.4202 108.491 38.3285C107.796 38.1397 107.097 37.9645 106.394 37.8046C106.187 37.7572 105.958 37.7461 105.748 37.7791C105.269 37.8545 104.977 37.4339 104.555 37.3685C104.228 37.3176 103.91 37.2032 103.583 37.1667C103.135 37.1162 102.683 37.112 102.334 36.7572C102.287 36.7089 102.17 36.7263 102.085 36.719C101.548 36.6731 101.021 36.6489 100.536 36.3243C100.294 36.1621 99.9395 36.1213 99.6323 36.1112C98.9355 36.0875 98.2808 35.9397 97.6649 35.6141C97.6223 35.5913 97.57 35.5838 97.5205 35.5778C97.2551 35.5481 96.9897 35.5216 96.7199 35.4055C96.6251 35.4896 96.5306 35.5729 96.4017 35.6876C96.3239 35.3334 96.1404 35.2916 95.7951 35.2607C95.1575 35.2034 94.5405 34.9423 93.9105 34.7809C93.7293 34.7339 93.5317 34.7507 93.3463 34.7132C92.7486 34.592 92.1492 34.4768 91.5587 34.3259C90.8237 34.1387 90.0997 33.9106 89.3661 33.7181C89.15 33.6618 88.9183 33.667 88.6867 33.7323C88.5323 33.6666 88.3674 33.5284 88.2244 33.5476C87.5187 33.6416 86.9166 33.3067 86.277 33.1296C86.1804 33.1029 86.0765 33.1002 85.9753 33.0902C85.8875 33.082 85.7602 33.1153 85.7159 33.0685C85.2674 32.5931 84.6482 32.6308 84.0858 32.5441C83.6301 32.474 83.2261 32.3138 82.8073 32.1424C82.2728 31.9245 81.7044 31.7876 81.1492 31.6226C80.7434 31.5026 80.3264 31.4151 79.9292 31.2722C79.6118 31.158 79.3166 30.9824 78.9405 30.7997C78.9752 30.976 78.9864 31.0342 78.9974 31.0899C78.8078 31.065 78.6104 31.0632 78.4296 31.0083C78.1498 30.9236 77.8879 30.778 77.6064 30.7025C77.3211 30.6261 77.0204 30.6039 76.727 30.5578C76.6391 30.5439 76.5297 30.5617 76.4668 30.5148C75.9779 30.151 75.4008 30.1951 74.8427 30.1194C74.2644 30.0407 73.6919 29.901 73.1274 29.7498C72.9722 29.7082 72.8719 29.4802 72.7152 29.4203C72.3787 29.2929 72.0207 29.2213 71.6731 29.1233C71.4385 29.0572 71.2033 28.9179 70.973 28.9268C70.325 28.951 69.7317 28.5439 69.0592 28.7287C68.8764 28.7786 68.6422 28.6202 68.4269 28.5852C67.9715 28.511 67.5147 28.46 67.2886 27.963C67.2657 27.9123 67.1538 27.8758 67.0837 27.8773C66.6806 27.8861 66.2781 27.908 65.8466 27.9262C65.8327 27.8479 65.8178 27.7644 65.7991 27.6645C65.6608 27.7329 65.5263 27.799 65.372 27.8753C65.3026 27.7951 65.2265 27.7252 65.172 27.6409C64.9569 27.3115 64.6999 27.1388 64.2921 27.3256C64.1969 27.369 64.0557 27.3515 63.948 27.3202C63.4556 27.1753 62.967 27.016 62.477 26.862C62.3791 26.8309 62.2432 26.7417 62.1885 26.7765C61.6065 27.1535 61.2287 26.5202 60.722 26.489C60.2083 26.4568 59.7428 26.178 59.2015 26.1278C58.5326 26.0662 57.883 25.7997 57.2234 25.6311C56.7049 25.4986 56.1827 25.383 55.663 25.2551C55.1546 25.1303 54.6515 24.9768 54.1372 24.8804C53.7717 24.8124 53.4106 24.7919 53.0911 24.5498C52.9871 24.4716 52.77 24.5432 52.5508 24.5469C52.6641 24.6568 52.7365 24.7257 52.8317 24.8185C52.7293 24.8616 52.6407 24.8987 52.5949 24.9181C52.3884 24.681 52.221 24.4488 52.0119 24.2638C51.8589 24.1296 51.6544 23.9604 51.4857 24.2964C51.4595 24.3486 51.2526 24.3459 51.1446 24.3161C50.8149 24.2237 50.4908 24.1077 50.1677 23.9936C50.1203 23.9768 50.0806 23.928 50.0464 23.8864C50.0151 23.8488 50.004 23.7721 49.9705 23.7639C49.5707 23.6608 49.172 23.5353 48.7639 23.4812C48.4154 23.4348 48.098 23.4812 47.7512 23.2349C47.3641 22.9601 46.8175 22.9207 46.361 22.7294C45.688 22.4469 44.9686 22.5348 44.2794 22.4069C43.8969 22.336 43.5323 22.1742 43.1567 22.0622C43.0313 22.0246 42.8945 22.0236 42.7672 21.9903C42.6018 21.9476 42.4421 21.887 42.2783 21.8382C41.7334 21.6744 41.1946 21.4814 40.6407 21.3572C40.1654 21.251 39.6738 21.1817 39.1875 21.1715C38.5247 21.1569 37.903 21.0252 37.2954 20.7683C37.1861 20.722 37.0315 20.7722 36.9001 20.7905C36.8538 20.7968 36.8087 20.8715 36.7704 20.8661C36.4964 20.8259 36.224 20.774 35.9516 20.7221C35.9014 20.7127 35.8452 20.6652 35.8053 20.678C35.0553 20.9102 34.677 20.2362 34.1187 20.0014C33.9569 19.933 33.7468 19.9059 33.5789 19.9452C33.3229 20.0048 33.1242 19.9743 32.949 19.7837C32.7852 19.6052 32.6314 19.5916 32.4504 19.7767C32.3979 19.8307 32.266 19.8294 32.1745 19.8195C31.9154 19.7907 31.6577 19.7476 31.4006 19.7022C31.1457 19.6574 30.7721 19.8534 30.718 19.3741C30.7145 19.3448 30.6078 19.313 30.5464 19.3062C30.0598 19.2513 29.5724 19.2026 29.1029 19.1539C29.0685 19.0887 29.0482 18.9827 28.9929 18.9589C28.6391 18.8082 28.3288 18.6253 27.8718 18.7477C27.4595 18.8579 26.957 18.8019 26.5737 18.4648C26.5066 18.4063 26.3935 18.3987 26.3004 18.3705C26.0964 18.3085 25.8936 18.242 25.6871 18.1924C25.5819 18.1674 25.4683 18.1767 25.3588 18.1677C25.0176 18.1395 24.6748 18.1231 24.3358 18.0777C24.0148 18.0346 23.6969 17.9616 23.3495 17.8961C23.4519 18.3039 25.7202 19.4341 26.2726 19.3793C26.0223 19.2603 25.8224 19.1646 25.6232 19.0699C25.6275 19.0353 25.6329 19.0003 25.6373 18.9658C25.758 18.9754 25.891 18.9543 25.9964 18.9995C26.5873 19.2552 27.1711 19.5284 27.7585 19.7912C27.9403 19.8724 27.9835 20.0714 28.2306 20.1481C28.9222 20.361 29.5813 20.6893 30.2383 21.004C30.5035 21.131 30.7297 21.3401 31.0137 21.5395C31.4294 21.3986 31.5863 21.4641 31.9215 21.9263C31.9813 22.0088 32.108 22.0476 32.2098 22.0944C32.7332 22.3327 33.282 22.5276 33.7731 22.8198C33.9849 22.9463 34.3105 23.0904 34.281 23.4791C34.2753 23.5578 34.4894 23.6485 34.5941 23.7422C34.7819 23.9101 35.0138 24.0558 35.1355 24.2644C35.2738 24.5018 35.3092 24.7271 35.1171 25.0625C34.8403 25.5447 34.4814 26.0609 34.5831 26.7013C34.6247 26.9607 34.3393 27.1754 33.9822 27.0822C34.3768 27.462 34.0818 27.7398 33.9951 28.0573C33.8865 28.4564 33.8733 28.8811 33.7961 29.2903C33.776 29.3985 33.6912 29.5485 33.601 29.5795C33.0348 29.7766 32.4615 29.9547 31.8839 30.1154C31.7472 30.1534 31.5753 30.126 31.4358 30.0805C31.133 29.9816 30.8491 29.7879 30.5426 29.7512C30.2582 29.7171 29.9566 29.8496 29.6597 29.8861C29.1145 29.9533 28.5445 30.1282 28.0265 30.0333C27.2209 29.8855 26.3452 29.8545 25.6766 29.256C25.6281 29.213 25.5713 29.1434 25.5198 29.145C24.9499 29.1651 24.7642 28.7625 24.5558 28.3384C24.4489 28.12 24.2279 27.9578 24.0346 27.7438L24.0367 27.7451ZM24.3187 17.6813C23.8919 17.7154 23.6959 17.2176 23.2217 17.4742C23.5753 17.6768 23.8007 18.0616 24.3187 17.6813Z" fill="#FF8200"/>
</g>
<defs>
<clipPath id="clip0_640_138">
<rect width="120.634" height="23.4313" fill="white" transform="translate(116.523 53.8555) rotate(-165)"/>
</clipPath>
</defs>
</svg>
