<svg width="110" height="86" viewBox="0 0 110 86" fill="none" xmlns="http://www.w3.org/2000/svg">
<g clip-path="url(#clip0_640_139)">
<path d="M23.2871 42.6934C22.7754 42.6538 22.2651 42.5971 21.7513 42.5766C21.2292 42.5559 20.6615 42.399 20.3045 43.0063C20.2359 43.122 20.0315 43.1822 19.8796 43.2206C19.3703 43.3469 19.0222 43.5447 19.4552 44.1442C18.8357 44.2541 18.4394 43.2422 17.8149 43.9785C17.9692 44.0606 18.1137 44.1369 18.2726 44.2212C18.1999 44.2986 18.1545 44.3668 18.1409 44.36C16.91 43.8313 15.8849 44.7956 14.7333 44.8304C14.6646 44.8325 14.5669 44.8349 14.5327 44.8772C13.4822 46.1516 11.7674 45.8077 10.4713 46.5684C8.16081 47.9267 5.72324 49.0802 3.7229 50.9087C2.87277 51.685 2.48556 52.7643 2.24697 53.8591C2.1596 54.2567 2.27933 54.7434 2.44337 55.1317C2.51767 55.3067 2.92874 55.3407 3.23131 55.4547C3.09226 55.7422 2.70688 56.2067 3.49302 56.4755C3.58956 56.5079 3.55136 56.9373 3.57981 57.2393C3.82137 57.1788 4.07656 57.1137 4.31619 57.0527C4.25178 57.3202 4.06453 57.6711 4.16203 57.7874C4.35038 58.0139 4.69805 58.1102 5.00802 58.2768C4.69054 58.9817 5.0881 59.491 5.99954 59.5305C6.43944 59.5496 6.86961 59.8097 7.30109 59.97C7.71577 60.1237 8.11535 60.3785 8.54339 60.4336C9.8987 60.6068 11.2632 60.7195 12.6267 60.8247C13.0192 60.8547 13.4197 60.7794 13.9223 60.7463C14.0185 60.7724 14.2411 60.8688 14.4716 60.891C15.1914 60.9591 15.916 61.0667 16.6354 61.0376C17.9583 60.9842 19.3019 61.307 20.6092 60.8435C20.7051 60.8096 20.8547 60.909 20.9719 60.9604C21.115 61.0229 21.3005 61.1992 21.384 61.1578C22.4124 60.6528 23.2628 61.5554 24.2294 61.487C24.7759 61.4482 25.3235 61.4397 25.8707 61.4135C26.0098 61.4068 26.1807 61.3251 26.2824 61.3805C27.6655 62.1239 29.1022 61.3817 30.5005 61.5448C30.9849 61.6018 31.4599 61.7387 31.9442 61.7843C32.4799 61.8345 33.0209 61.82 33.6564 61.8374C34.2974 62.5872 35.5393 61.8283 36.3169 62.5925C36.4965 61.9277 37.2688 61.628 37.8707 61.978C37.6546 62.0856 37.4685 62.1777 37.1134 62.3519C37.4018 62.4724 37.5446 62.5741 37.6968 62.5875C38.4667 62.6578 39.2383 62.7027 40.0081 62.7616C40.1457 62.7721 40.3272 62.7655 40.4107 62.846C41.1707 63.5682 42.2093 63.6338 43.1211 63.9914C43.3955 64.0988 43.7653 63.9616 44.2959 63.9205C45.2455 64.5909 45.522 64.6565 46.2221 63.8282C46.5186 63.478 47.4475 63.1567 46.7114 62.3656C47.3682 61.9892 47.4531 61.4371 47.3005 60.7825C47.2564 60.595 47.3338 60.3785 47.3539 60.1754C47.3678 60.0408 47.4218 59.8913 47.3829 59.7723C47.1889 59.1901 46.9485 58.6231 46.7652 58.0397C46.6142 57.5579 46.3727 57.3634 45.8854 57.6443C45.9001 57.3468 46.0289 56.9677 45.8971 56.8143C45.7323 56.623 45.3267 56.6638 45.0699 56.5219C44.6392 56.2865 44.2387 55.9931 43.8463 55.6968C43.8265 55.6821 43.9939 55.2825 44.1011 55.2682C44.4339 55.2252 44.7793 55.2806 45.1041 55.2974C45.3952 55.051 45.7631 54.8369 45.9922 54.5221C46.2305 54.1923 46.3359 53.7665 46.5129 53.3468C47.1961 53.7818 47.3586 52.8832 47.8066 52.8115C47.7985 53.214 47.7912 53.6096 47.7839 54.0051C48.1221 53.8665 48.4534 53.7075 48.8012 53.5942C49.0392 53.5162 49.296 53.5022 49.568 53.4551C49.6829 53.2756 49.8159 53.0711 50.0154 52.7586C50.1735 53.4994 50.6298 53.272 50.9949 53.2089C51.4395 53.1311 51.872 52.9871 52.1732 52.9087C52.3741 52.61 52.4797 52.2783 52.6968 52.175C52.9316 52.0632 53.3051 52.0797 53.55 52.1894C53.8655 52.3317 54.0407 52.3369 54.2616 52.056C54.4889 51.7666 54.7784 51.526 55.0419 51.2629C55.2196 51.4907 55.3633 51.8549 55.5681 51.8918C55.8023 51.9346 56.0779 51.6386 56.3565 51.5747C56.9815 51.4292 57.6203 51.3359 58.2721 51.2173C58.2952 50.7445 58.7314 50.3743 59.4364 50.4704C60.1402 50.5672 60.649 50.4201 61.0736 49.8228C61.2473 49.5787 61.6008 49.3534 61.8922 49.326C62.507 49.2675 63.1285 49.3595 63.6811 48.9486C63.7525 48.8947 64.0365 49.1265 64.2852 49.26C64.4607 48.7893 64.866 48.5553 65.5233 48.656C65.6858 48.6814 65.9527 48.2768 66.1112 48.0316C66.2981 47.7426 66.4202 47.4112 66.5782 47.0803C67.0246 47.4594 67.3016 47.8463 67.6724 47.9829C68.7176 48.3663 69.7408 48.1614 70.6945 47.6084C70.7911 47.553 70.9351 47.4072 70.9163 47.3546C70.7029 46.7754 70.9639 46.3773 71.3783 46.0229C71.2941 45.964 71.2119 45.9056 71.0567 45.7964C71.4104 45.6765 71.7282 45.5675 71.9351 45.4976C72.4247 45.9152 72.838 46.2678 73.2513 46.6204C73.4264 46.3219 73.5629 46.0894 73.7086 45.8419C74.3646 46.411 75.2184 46.4348 75.8819 45.9879C76.2761 45.7231 76.6825 45.4739 77.1047 45.2579C77.2163 45.2004 77.4077 45.2905 77.5605 45.3247C77.8303 45.3844 78.0969 45.4865 78.3691 45.4994C78.4742 45.5041 78.5905 45.3157 78.701 45.2166C78.605 45.1369 78.5113 45.0558 78.4135 44.9787C78.282 44.8738 78.1467 44.7711 78.0127 44.6677C78.1882 44.6223 78.3601 44.5595 78.5374 44.5342C78.8117 44.4939 79.0903 44.4755 79.3657 44.4541C79.6429 44.4332 80.0241 44.2959 80.1779 44.4254C80.8707 45.0075 81.5366 44.6924 82.2114 44.4664C83.4099 44.0654 84.6053 43.6563 85.7939 43.2267C86.094 43.1181 86.3439 42.8709 86.6447 42.7635C86.9844 42.6418 87.3573 42.6148 87.7125 42.5314C88.3313 42.3863 88.9662 42.2806 89.5558 42.0563C89.9106 41.9212 89.9725 41.4197 90.6477 41.6027C91.1741 41.7443 91.8891 41.1916 92.5185 40.9429C93.1658 40.6888 93.8108 40.4279 94.458 40.1707C94.9699 39.9666 95.4816 39.7594 95.997 39.5615C96.7102 39.2891 97.4388 39.055 98.1382 38.75C98.8666 38.4332 99.5681 38.0554 100.218 37.7349C100.453 37.7562 100.707 37.856 100.893 37.7848C102.301 37.2392 103.702 36.6751 105.086 36.0703C105.281 35.9847 105.364 35.646 105.557 35.3296C105.768 35.2721 106.255 35.2884 106.449 35.0571C106.84 34.591 107.116 34.0104 107.35 33.4409C107.491 33.099 106.827 31.8392 106.511 31.6565C107.134 30.8951 107.11 29.9819 106.686 29.0732C106.137 27.8928 105.265 27.1435 104.045 26.8623C103.554 26.7489 102.95 26.8661 102.469 27.0589C102.133 27.1929 101.921 27.4462 101.55 27.1423C101.461 27.0685 101.153 27.1359 101.039 27.2403C100.643 27.6006 100.311 28.031 99.9086 28.3835C99.6114 28.6447 99.2618 28.8597 98.9069 29.0372C98.0852 29.4464 97.2401 29.8089 96.4171 30.2157C96.0805 30.3826 95.7979 30.6664 95.4543 30.8097C94.4718 31.2218 93.4876 31.8265 92.4703 31.9029C91.5492 31.9712 91.2412 32.721 90.5385 32.9776C89.5432 33.3418 88.6343 33.9391 87.6448 34.3276C86.7937 34.6627 85.8826 34.8422 84.9991 35.0953C84.7518 35.1656 84.4151 35.1735 84.278 35.3397C83.4058 36.395 82.0919 36.1948 80.9821 36.5662C80.4945 36.7304 79.9944 36.853 79.9704 37.5455C79.9567 37.9496 79.572 38.0807 79.3132 37.8247C78.6471 37.1672 78.0567 37.5121 77.3874 37.8015C76.3944 38.2294 75.3818 38.6343 74.3448 38.9315C73.6607 39.1271 72.8889 39.0222 72.2132 39.2325C71.7745 39.3686 71.437 39.8316 70.9986 40.1949C70.9602 40.1422 70.8347 39.9657 70.5928 39.6286C68.7099 40.2417 66.775 40.8943 64.8239 41.4962C63.9707 41.7595 63.0671 41.8584 62.2218 42.1415C61.5706 42.3604 60.9764 42.7497 60.3645 43.0599C60.3527 43.0309 60.2756 42.8396 60.1978 42.6471C60.032 42.7746 59.8848 42.9629 59.699 43.0158C59.3311 43.1195 59.1862 43.6378 58.6129 43.4483C58.3343 43.3563 57.8876 43.7763 57.4992 43.7846C57.1259 43.8053 56.7513 43.8008 56.3829 43.8527C55.9006 43.9213 55.4212 44.0175 54.9478 44.1329C54.6701 44.2011 54.4034 44.3199 54.1397 44.4353C53.653 44.6493 53.183 44.9008 52.6887 45.0931C52.0673 45.3356 51.395 45.7729 50.805 45.6905C50.0986 45.592 49.5192 45.7633 48.929 45.9668C47.9083 46.3179 46.921 46.7669 45.9169 47.1669C45.2154 47.4456 44.516 47.7279 43.8047 47.978C42.9765 48.2709 42.1395 48.5427 41.2993 48.8034C40.2935 49.1152 39.2786 49.3234 38.2197 49.0323C38.0408 48.9838 37.8129 49.0965 37.6112 49.1472C36.9322 49.3204 36.1686 49.3602 35.6002 49.7152C35.0397 50.064 34.5842 50.0149 34.0096 49.9707C33.6425 49.9425 33.2114 50.1912 32.877 50.4185C31.8937 51.0844 30.7642 50.6503 29.7331 50.9067C29.2792 51.0191 28.82 51.1166 28.2297 51.252C28.1554 51.2215 27.8712 50.9865 27.655 51.0374C26.442 51.325 25.2219 51.6232 24.0526 52.0466C23.5898 52.2144 23.2495 52.7179 22.8432 53.058C22.5828 53.2754 22.3334 53.5434 22.0295 53.6624C21.5286 53.8601 20.9891 53.9566 20.4256 54.1074C20.4297 53.9898 20.4348 53.8001 20.4434 53.5289C19.4797 53.5145 18.5242 53.5002 17.5707 53.4865L17.5484 53.2606C17.6162 53.1746 17.6648 53.0526 17.7538 53.0065C19.1091 52.3093 20.4847 51.6475 21.8176 50.9112C22.1628 50.7198 22.3827 50.2983 22.6716 49.9687C22.8877 50.0283 23.2479 50.2457 23.5304 50.1715C23.8097 50.0975 23.9837 49.6924 24.2496 49.4929C24.5433 49.271 24.8729 48.9928 25.2135 48.9519C27.2416 48.7086 28.1075 48.1441 29.8424 46.7909C29.6653 46.7171 29.5082 46.6528 29.3466 46.5863C29.903 45.5188 29.9567 44.4585 29.4448 43.4236C29.3463 43.2235 28.9414 43.1746 28.6421 43.0409L28.6805 42.7704C28.448 42.8127 28.233 42.8515 27.9986 42.8933C27.9771 42.7935 27.947 42.7296 27.9504 42.6676C27.9711 42.3862 28.002 42.1054 28.0284 41.8256C27.6239 41.8171 27.1858 41.7077 26.8231 41.8262C26.2721 42.0073 25.7722 42.3457 25.335 42.5752C25.1573 42.1347 25.029 41.8201 24.9019 41.5048C24.7034 41.6235 24.5049 41.7421 24.307 41.8588C24.4057 41.9403 24.6002 42.0529 24.5857 42.0985C24.4257 42.5962 23.862 42.843 23.2871 42.6934ZM73.2391 41.116C72.5794 41.4194 72.012 41.6796 71.3948 41.9636C71.4818 41.4027 72.0965 41.1202 73.2391 41.116ZM46.4007 58.2372C46.4621 58.3189 46.5236 58.4006 46.585 58.4823C46.3008 58.6696 46.023 58.871 45.7245 59.0307C45.6737 59.0582 45.5298 58.9149 45.4296 58.8506C45.6488 58.6746 45.8612 58.4895 46.0913 58.3268C46.1745 58.2678 46.2981 58.2651 46.4019 58.2365L46.4007 58.2372ZM43.964 53.0133C44.0888 52.1055 44.244 52.0133 44.8371 52.331C44.5838 52.5297 44.3443 52.7157 43.964 53.0133ZM69.9525 46.5007L70.2934 46.6902C70.1658 46.89 70.0394 47.0891 69.9125 47.2901C69.8235 47.2339 69.6519 47.1472 69.6595 47.1265C69.7408 46.9111 69.8499 46.7073 69.9512 46.5014L69.9525 46.5007Z" fill="#FF8200"/>
</g>
<defs>
<clipPath id="clip0_640_139">
<rect width="103.477" height="37.9549" fill="white" transform="matrix(0.867604 -0.497255 -0.497255 -0.867604 19.5505 85.0996)"/>
</clipPath>
</defs>
</svg>
