<svg width="926" height="106" viewBox="0 0 926 106" fill="none" xmlns="http://www.w3.org/2000/svg">
<g clip-path="url(#clip0_392_2400)">
<path d="M598.452 95.2756C597.965 95.1948 597.482 95.0932 596.993 95.0373C595.948 94.9171 594.893 94.6953 593.855 94.7451C592.029 94.8342 590.212 95.1077 588.388 95.2818C588.129 95.3067 587.853 95.1616 587.59 95.172C587.041 95.1969 586.494 95.2777 585.947 95.3274C585.004 95.4165 584.054 95.4704 583.116 95.5968C582.548 95.6735 581.997 95.86 581.437 96.003C581.306 96.0362 581.167 96.1626 581.06 96.1377C579.203 95.6839 577.497 96.7512 575.731 96.6911C574.523 96.6496 573.553 97.0372 572.492 97.3626C572.096 97.4828 571.62 97.346 571.18 97.3108C570.714 97.2735 570.239 97.1222 569.79 97.1823C568.59 97.3439 567.406 97.6734 566.204 97.7771C565.456 97.8413 564.687 97.5864 563.923 97.5346C563.013 97.4724 562.095 97.4165 561.187 97.4621C560.393 97.5014 559.606 97.7854 558.816 97.7812C556.383 97.7688 553.948 97.7149 551.519 97.5864C550.383 97.5263 549.258 97.2548 548.13 97.0766C547.963 97.0496 547.788 96.9502 547.631 96.975C546.298 97.1823 544.972 97.4289 543.639 97.6216C543.208 97.6838 542.75 97.6714 542.319 97.5968C541.215 97.4082 540.16 97.1802 538.987 97.232C537.565 97.2942 536.108 96.8362 534.688 96.5149C532.289 95.9699 529.955 95.2321 527.729 94.1378C526.643 93.6031 525.41 93.371 524.299 92.8757C523.777 92.6415 523.437 92.0301 522.931 91.7255C521.678 90.969 520.208 90.5773 519.317 89.2385C519.054 88.8427 518.378 88.7287 517.904 88.4655C517.671 88.337 517.433 88.1899 517.259 87.9971C516.275 86.9153 515.357 85.7672 514.314 84.7475C513.821 84.2646 512.973 84.1278 512.511 83.6284C511.891 82.959 511.166 82.7766 510.354 82.6523C510.192 82.6274 509.958 82.5528 509.902 82.4326C509.098 80.7414 507.473 81.1829 506.109 80.9466C505.844 80.901 505.529 80.9155 505.326 80.7767C503.983 79.8503 502.563 79.7301 501.046 80.2565C500.833 80.3311 500.576 80.2979 500.342 80.2793C498.999 80.1798 497.598 79.7923 496.331 80.0534C495.393 80.2482 494.234 79.7301 493.395 80.7808C493.115 81.129 492.197 81.0212 491.569 81.0274C490.412 81.0399 489.297 81.0834 488.193 81.5746C487.679 81.8025 486.96 81.5393 486.334 81.5601C485.53 81.587 484.721 81.6285 483.928 81.7445C483.039 81.8772 482.158 82.0782 481.285 82.2916C480.396 82.5093 479.52 82.7828 478.597 83.0419C477.874 82.1051 476.749 82.4947 475.752 82.445C474.515 82.3849 473.337 82.8678 472.019 82.5735C470.795 82.2999 469.441 82.6605 468.148 82.6191C467.261 82.5901 466.384 82.2606 465.497 82.2233C462.449 82.0927 459.616 80.756 456.592 80.6254C455.253 80.5674 454.225 79.9705 453.089 79.4814C452.578 79.2617 451.966 79.2783 451.4 79.1788C451.075 79.1229 450.748 79.0648 450.428 78.9799C449.231 78.6586 448.035 78.325 446.839 77.9975C446.708 77.9623 446.553 77.9664 446.445 77.898C444.396 76.5758 442.244 75.5334 439.753 75.38C439.592 75.3696 439.432 75.266 439.281 75.1893C438.151 74.6152 437.078 73.8526 435.882 73.5023C434.348 73.0547 433.14 72.1138 431.805 71.3615C430.73 70.7563 429.733 69.9729 428.601 69.5149C427.159 68.9305 426.195 67.8487 425.364 66.6902C424.247 65.1379 422.734 64.141 421.201 63.1235C421.145 63.0862 421.029 63.0903 421.014 63.0489C420.436 61.4033 418.253 61.6417 417.563 60.1225C417.518 60.0231 417.342 59.9464 417.215 59.9257C415.711 59.6707 414.27 59.3143 412.66 59.6044C410.894 59.9236 409.253 60.5225 407.603 61.1215C406.967 61.3515 406.322 61.6603 405.929 62.4354C405.638 63.0074 404.861 63.3805 404.235 63.7224C403 64.396 401.568 64.6488 400.696 66.0208C400.291 66.657 399.274 66.8974 398.551 67.343C398.333 67.4777 398.043 67.6767 398.003 67.886C397.823 68.8476 397.094 69.2476 396.37 69.7263C395.423 70.3522 394.532 71.0672 393.639 71.7698C392.526 72.6485 391.434 73.5521 390.335 74.4495C389.144 75.4235 387.983 76.439 386.754 77.3654C385.722 78.1426 384.605 78.8078 383.544 79.5477C383.221 79.7736 382.98 80.1135 382.665 80.3498C382.195 80.7 381.693 81.0129 381.194 81.3238C381.051 81.4129 380.841 81.4026 380.711 81.502C379.615 82.3269 378.574 83.2346 377.43 83.9848C376.075 84.8719 375.028 86.2625 373.285 86.5381C372.527 86.6583 372.015 87.0293 371.544 87.7546C371.086 88.4593 370.152 88.8655 369.401 89.3629C368.353 90.0572 367.352 90.9069 366.2 91.3442C364.488 91.9949 363.116 93.1493 361.549 93.9865C360.276 94.6663 358.815 94.9855 357.462 95.5222C356.107 96.0611 354.797 96.7243 353.433 97.2382C351.997 97.7791 350.523 98.2185 349.06 98.6786C348.13 98.9708 347.199 99.319 346.242 99.4703C343.906 99.8412 341.56 100.279 339.206 100.351C338.012 100.388 336.856 100.536 335.68 100.625C335.005 100.674 334.236 100.434 333.62 100.109C332.128 99.3231 330.485 99.7791 328.962 99.3894C327.874 99.1117 326.8 98.7698 325.739 98.3988C324.162 97.8455 322.593 97.2652 321.043 96.6393C320.649 96.4797 320.371 96.0569 319.992 95.8372C318.34 94.8818 316.641 94.0093 315.024 92.998C314.427 92.6249 314.032 91.941 313.52 91.4208C313.167 91.0623 312.755 90.7639 312.407 90.4033C311.938 89.9183 311.509 89.396 311.051 88.9007C310.805 88.6334 310.544 88.3764 310.272 88.1339C310.096 87.9785 309.835 87.8977 309.7 87.7173C308.995 86.7806 308.349 85.8003 307.624 84.8822C307.105 84.2253 306.392 83.703 305.943 83.0087C304.268 80.4244 302.666 77.7944 301.033 75.1831C300.869 74.922 300.656 74.6899 300.507 74.4204C299.821 73.1728 299.155 71.9148 298.474 70.6672C298.028 69.8527 297.549 69.0528 297.108 68.2362C296.405 66.9368 295.618 65.6705 295.054 64.311C294.101 62.0147 292.561 60.2013 290.839 58.4646C289.713 57.3309 288.814 55.9756 287.711 54.817C286.416 53.4575 284.988 52.241 282.974 52.0793C282.843 52.069 282.661 52.0296 282.599 51.9384C281.892 50.9063 280.632 51.2752 279.699 50.8027C279.434 50.668 278.856 50.7633 278.651 50.9768C278.137 51.5094 277.643 51.3705 277.051 51.2338C276.112 51.0182 275.214 51.0058 274.286 51.5301C273.65 51.8887 272.785 51.8099 272.068 52.0607C270.914 52.4627 269.782 52.9415 268.67 53.4513C267.55 53.9632 266.419 54.4751 265.378 55.1258C264.222 55.8491 263.163 56.7279 262.058 57.5361C261.814 57.7143 261.557 57.8781 261.308 58.0522C260.427 58.6718 259.555 59.3039 258.662 59.9049C258.303 60.1474 257.87 60.2863 257.522 60.5412C255.466 62.052 253.381 63.5276 251.394 65.1234C249.97 66.2674 248.712 67.6166 247.321 68.8062C246.492 69.5149 245.516 70.0517 244.673 70.746C244.103 71.2164 243.713 71.9086 243.133 72.3584C241.133 73.9106 239.064 75.3779 237.065 76.9302C236.517 77.355 236.146 77.9996 235.632 78.4742C234.667 79.3674 233.693 80.2627 232.65 81.0627C231.643 81.8357 230.545 82.4885 229.488 83.1952C229.038 83.4957 228.594 83.8045 228.147 84.1071C227.117 84.8055 226.058 85.4646 225.067 86.2148C223.855 87.1329 222.713 88.1422 221.519 89.0852C220.69 89.7401 219.834 90.3597 218.974 90.9732C218.615 91.2302 218.191 91.396 217.836 91.6571C217.37 92.0011 216.947 92.4011 216.5 92.7679C216.375 92.8695 216.228 92.9524 216.081 93.0166C214.241 93.8249 212.408 94.6559 210.549 95.4207C209.926 95.6777 209.223 95.7315 208.577 95.9346C207.681 96.2165 206.817 96.6041 205.911 96.8486C205.236 97.031 204.514 97.0331 203.822 97.1553C203.319 97.2444 202.834 97.4351 202.33 97.5242C200.958 97.7667 199.578 97.9594 198.206 98.2102C197.713 98.3014 197.24 98.5086 196.753 98.6413C196.504 98.7097 196.237 98.7843 195.988 98.7594C195.284 98.6848 194.587 98.5439 193.883 98.4548C191.622 98.1708 189.305 98.1128 187.112 97.5615C185.098 97.0558 183.15 96.1543 181.295 95.1886C179.106 94.0487 177.104 92.5524 174.92 91.4084C173.755 90.7991 173.038 89.9597 172.381 88.8945C171.973 88.2313 171.241 87.7774 170.725 87.1702C170.045 86.3723 169.419 85.5288 168.798 84.6853C168.193 83.8605 167.529 83.0605 167.057 82.1611C166.176 80.4907 164.501 79.1995 164.564 77.0711C163.6 76.4556 164.485 75.0152 163.355 74.408C163.117 74.2795 163.179 73.5997 163.094 73.1749C162.817 71.776 162.537 70.3791 162.261 68.9802C162.243 68.8808 162.292 68.7087 162.247 68.6839C161.273 68.1492 161.764 67.086 161.389 66.3524C160.81 65.2249 160.978 64.0436 161.005 62.8644C161.011 62.5929 161.02 62.3193 160.999 62.0499C160.821 59.7205 160.479 57.389 160.491 55.0616C160.512 51.5716 160.767 48.0816 160.958 44.5936C160.98 44.1812 161.304 43.7895 161.347 43.3729C161.382 43.0144 161.144 42.6351 161.15 42.2662C161.179 40.3513 161.231 38.4363 161.316 36.5255C161.343 35.9204 161.467 35.3152 161.608 34.7245C161.959 33.2572 161.816 31.8169 161.501 30.275C161.314 30.3807 161.134 30.4221 161.111 30.5071C160.597 32.2998 159.484 33.7733 158.612 35.3815C157.364 37.6861 156.145 40.0031 154.792 42.2497C154.183 43.261 153.493 44.2206 152.856 45.2153C152.338 46.0236 151.824 46.8381 151.356 47.6754C151.207 47.9427 151.294 48.3572 151.124 48.5997C150.239 49.8494 149.248 51.0286 148.401 52.3032C147.23 54.0585 146.173 55.8906 145.02 57.6584C144.697 58.1558 144.117 58.4915 143.82 58.9972C142.71 60.8873 141.197 62.3567 139.363 63.5255C139.23 63.6105 139.066 63.7804 139.064 63.9131C139.054 64.6571 138.579 64.9099 137.997 65.2353C137.605 65.455 137.439 66.0788 137.058 66.4021C136.556 66.9699 135.839 67.4591 135.597 68.1222C135.147 69.3533 134.043 69.8445 133.243 70.6755C132.65 71.2931 132.142 71.9936 131.556 72.6174C131.239 72.9531 130.839 73.2163 130.463 73.4961C129.875 73.9355 129.208 74.294 128.7 74.8121C127.976 75.5479 127.479 76.895 126.679 77.0773C125.574 77.3281 125.322 78.068 124.714 78.6731C124.064 79.3197 123.202 79.7653 122.402 80.2503C121.985 80.5031 121.488 80.6171 121.057 80.8492C120.557 81.1166 120.093 81.4502 119.606 81.7445C119.274 81.9435 118.934 82.13 118.592 82.3124C118.313 82.4616 118.025 82.5963 117.743 82.7414C117.361 82.9362 116.986 83.1476 116.599 83.3299C116.356 83.4439 116.033 83.4501 115.851 83.618C114.248 85.0729 112.323 85.7008 110.215 85.7361C108.91 85.7589 107.917 86.3122 106.958 86.8718C106.224 86.9837 105.49 87.0935 104.759 87.2055C104.216 87.2883 103.677 87.4106 103.13 87.4479C101.271 87.5785 99.4076 87.6531 97.5507 87.8065C96.5352 87.8894 95.53 88.0904 94.5207 88.2396C94.4192 88.2541 94.2907 88.337 94.2265 88.2997C92.7778 87.4811 91.3292 88.3826 89.8826 88.2956C89.4391 88.2686 88.9914 88.2852 88.5458 88.2852C88.3054 88.2852 88.0567 88.2562 87.8226 88.3038C86.2454 88.623 84.6786 89.0209 83.0911 89.2696C82.1564 89.4168 81.1845 89.3401 80.2291 89.3567C78.0737 89.396 75.9038 89.3028 73.8459 90.1546C73.6905 90.2188 73.4127 90.1981 73.2884 90.0986C72.1776 89.195 71.0978 89.537 69.9207 89.9971C69.502 90.1608 68.8823 89.7919 68.3497 89.6965C67.844 89.6054 67.3259 89.4706 66.8244 89.5059C65.898 89.5701 64.984 89.6634 64.0432 89.6489C62.3085 89.6219 60.5718 89.8147 58.6983 89.9224C58.7024 89.9307 58.5905 89.6965 58.4392 89.3795C57.9584 89.6282 57.5211 89.8541 57.1253 90.0572C55.4072 89.3277 53.6394 89.3256 51.8219 89.4789C50.2219 89.6136 48.6033 89.6592 47.0013 89.5784C45.2211 89.4893 43.4553 89.1577 41.6751 89.0458C40.7839 88.9898 39.8762 89.253 38.9768 89.2551C38.2224 89.2551 37.468 89.0562 36.7116 89.0043C36.096 88.9629 35.4701 89.0562 34.8567 88.9981C34.5334 88.9691 34.2287 88.7453 33.9427 88.623C33.3417 88.8406 32.7283 89.1867 32.0817 89.2551C31.6174 89.3049 31.1221 88.9214 30.6227 88.8468C29.9512 88.7474 29.2611 88.7598 28.5792 88.7266C28.372 88.7163 28.1523 88.7556 27.9616 88.6955C26.743 88.3163 25.5306 87.9142 24.3162 87.5246C24.2188 87.4935 24.0903 87.4417 24.0157 87.479C22.8157 88.0552 21.709 87.2365 20.5464 87.249C20.3868 87.249 20.2086 87.1661 20.0718 87.077C18.6977 86.1734 17.1848 86.2293 15.6471 86.3951C15.4647 86.4138 15.2512 86.3288 15.0792 86.2397C14.0658 85.7133 13.0648 85.1641 12.0514 84.6397C11.4234 84.3144 10.7664 83.7382 10.1468 83.7714C8.83904 83.8398 8.23181 82.7745 7.24739 82.3766C6.73342 82.1694 6.00599 82.3144 5.61844 81.9994C4.48273 81.0772 3.47551 79.9954 2.40198 78.9964C2.16987 78.7809 1.88387 78.5674 1.58543 78.4845C0.857998 78.2794 0.120202 77.0276 0.242477 76.2774C0.321231 75.7924 0.306724 75.2515 0.176159 74.7811C-0.344029 72.8993 0.395839 71.7967 2.40198 71.4527C3.43199 71.2765 4.47651 71.1936 5.51482 71.0568C5.63916 71.0403 5.80703 70.9698 5.86092 70.8745C6.49923 69.7408 7.22667 70.4102 8.11161 70.5532C9.57476 70.7874 10.6421 71.948 12.1322 71.9812C12.4285 71.9874 12.7518 72.1055 13.0068 72.2609C13.5953 72.6216 14.016 73.4485 14.9279 72.7314C15.0357 72.6464 15.6491 73.2744 16.0699 73.492C16.4678 73.6972 16.9092 73.8484 17.3486 73.9293C18.6128 74.1614 19.8853 74.3624 21.1577 74.5406C21.5722 74.5987 22.0033 74.5489 22.3142 74.5489C22.8302 74.7686 23.2654 75.0588 23.7359 75.1375C25.2322 75.3841 26.7244 75.6391 28.1834 76.0618C29.2756 76.3789 30.4092 77.038 31.4558 76.924C33.2547 76.725 34.8671 77.2473 36.5499 77.5623C36.7178 77.5934 36.8939 77.6058 37.0659 77.6079C39.2918 77.6328 41.5197 77.6182 43.7434 77.6887C45.0263 77.7281 46.3029 77.9561 47.5858 78.0017C48.8189 78.0452 50.0582 77.9934 51.2934 77.925C52.7441 77.8462 54.1886 77.6618 55.6393 77.6162C56.1305 77.6017 56.7025 78.097 57.1149 77.9685C58.6382 77.4918 60.0827 78.783 61.6204 78.0431C62.0432 77.84 62.6878 78.1488 63.2266 78.1301C64.8348 78.0763 66.441 77.9395 68.0513 77.9167C68.6171 77.9084 69.1829 78.2421 69.7528 78.2504C72.418 78.298 75.0852 78.3353 77.7483 78.2794C79.4353 78.2441 81.1202 78.0493 82.8031 77.9125C84.3325 77.7882 85.8641 77.6638 87.3894 77.498C88.5583 77.3696 89.7168 77.1374 90.8857 77.0297C91.4577 76.9779 92.0462 77.1437 92.6265 77.1416C93.2607 77.1395 93.9011 77.0981 94.527 76.9965C96.2865 76.7147 98.0564 76.468 99.7889 76.0639C101.209 75.7323 102.574 75.181 103.975 74.7583C105.041 74.437 106.162 74.2671 107.183 73.8464C108.684 73.2288 110.118 72.4495 111.577 71.7345C112.168 71.4444 112.798 71.2061 113.324 70.8268C114.483 69.9874 115.581 69.0652 116.719 68.1948C117.084 67.915 117.488 67.6891 117.882 67.4487C117.995 67.3803 118.18 67.3865 118.25 67.2953C119.486 65.683 121.249 64.6633 122.77 63.3887C123.952 62.3981 124.83 61.1754 125.906 60.1723C126.658 59.4718 127.413 58.6677 128.291 58.0418C129.875 56.9123 130.841 55.2274 131.889 53.6275C132.258 53.0637 132.78 52.6016 133.241 52.1001C133.354 51.9757 133.564 51.899 133.616 51.7581C134.675 48.8877 137.257 47.0702 138.679 44.4423C138.975 43.8952 139.624 43.5408 140.096 43.0849C140.21 42.975 140.293 42.8237 140.357 42.6766C140.853 41.5367 141.248 40.3451 141.854 39.2674C142.467 38.1731 143.292 37.1991 144.005 36.1608C144.133 35.9742 144.15 35.7131 144.256 35.5059C144.486 35.0479 144.631 34.3619 145.004 34.194C146.245 33.6344 146.386 32.4925 146.55 31.4563C146.826 29.7051 148.063 28.4885 148.761 26.9798C149.14 26.1653 149.553 25.3612 149.998 24.5819C150.407 23.8649 150.885 23.1892 151.325 22.4908C151.507 22.2027 151.733 21.923 151.833 21.6059C152.276 20.1945 153.408 19.1811 153.992 17.892C154.444 16.8972 155.374 16.0683 155.161 14.7315C155.068 14.145 155.484 13.3865 155.859 12.8332C157.097 11.0156 158.131 9.12138 158.794 7.01162C158.974 6.43754 159.617 6.0272 159.901 5.46556C160.367 4.54953 160.684 3.5589 161.132 2.63251C161.295 2.29262 161.604 1.94238 161.938 1.77865C163.217 1.14863 164.487 0.414976 165.851 0.0771647C166.69 -0.130081 167.797 0.102034 168.588 0.512381C169.608 1.04293 170.437 1.94238 171.339 2.69468C171.937 3.19414 172.592 3.65009 173.084 4.24074C173.357 4.57026 173.307 5.15055 173.469 5.59613C173.929 6.87276 174.468 8.12245 174.88 9.4136C175.042 9.92135 174.924 10.512 174.978 11.0612C175.146 12.8186 175.326 14.574 175.517 16.3294C175.699 18.0143 175.411 19.7034 175.471 21.3613C175.531 23.0297 174.663 24.6337 175.301 26.3373C175.477 26.8057 175.032 27.4917 174.916 28.0865C174.826 28.5445 174.787 29.0149 174.756 29.4812C174.688 30.476 174.669 31.477 174.574 32.4697C174.482 33.4189 174.242 34.3598 174.213 35.309C174.178 36.5214 173.948 37.6799 173.743 38.8674C173.361 41.0808 173.115 43.3501 173.065 45.6215C173.048 46.3925 172.783 47.1552 172.686 47.9282C172.644 48.2494 172.665 48.6225 172.791 48.9105C173.222 49.8887 172.957 50.784 172.582 51.6856C172.493 51.9011 172.292 52.214 172.371 52.3342C173.322 53.8098 172.124 55.3227 172.485 56.819C172.702 57.7247 172.679 58.6884 172.744 59.6293C172.843 61.0779 172.856 62.539 173.034 63.9773C173.21 65.399 173.548 66.8021 173.813 68.2134C173.991 69.1585 174.248 70.0973 174.331 71.0506C174.526 73.2992 175.879 75.0878 176.634 77.1126C176.822 77.6203 177.027 78.1239 177.224 78.6275C177.415 78.441 177.604 78.2566 177.794 78.07C177.689 79.0731 178.36 79.6016 179.036 80.1467C179.334 80.3871 179.564 80.7062 179.85 80.9632C180.982 81.9828 182.03 83.1331 183.288 83.9683C184.561 84.8118 186.028 85.3734 187.439 85.991C188.275 86.3578 189.147 86.7412 190.036 86.849C190.892 86.9526 191.794 86.7329 192.672 86.6189C194.693 86.3578 196.728 86.248 198.678 85.5122C199.698 85.1268 200.865 85.1537 201.934 84.876C203.138 84.5631 204.334 84.1797 205.486 83.7133C207.536 82.8823 209.584 82.0347 211.567 81.0585C213.039 80.3352 214.415 79.4151 215.818 78.5571C216.63 78.0618 217.474 77.5892 218.195 76.9799C219.415 75.9478 220.441 74.6526 221.753 73.7697C222.947 72.9656 223.558 71.5107 225.125 71.0962C225.832 70.9097 226.327 70.004 226.972 69.4963C228.621 68.1968 230.31 66.9451 231.966 65.6519C232.36 65.3451 232.623 64.8229 233.052 64.6198C234.076 64.1307 234.6 63.0364 235.407 62.5349C236.408 61.9131 237.054 60.5806 238.532 60.6614C238.843 60.678 239.176 60.0956 239.516 59.8075C240.785 58.734 242.011 57.6024 243.348 56.6201C244.77 55.5735 246.324 54.7093 247.771 53.6938C249.062 52.786 250.285 51.7788 251.539 50.8172C251.646 50.7343 251.746 50.612 251.868 50.583C253.319 50.2328 253.955 48.9064 254.983 48.0484C255.893 47.2899 256.985 46.749 257.994 46.1086C258.869 45.5532 259.7 44.9086 260.622 44.4485C262.201 43.6631 263.826 42.9626 265.453 42.2766C267.074 41.5927 268.684 40.8404 270.369 40.3616C272.162 39.8497 274.035 39.6197 275.878 39.2736C276.725 39.114 277.562 38.9399 278.338 39.5845C278.481 39.7026 278.893 39.4394 279.173 39.4601C280.594 39.5617 282.008 39.5036 283.33 40.3513C284.109 40.8528 285.166 40.9772 286.12 41.1471C288.236 41.5222 289.794 42.9253 291.52 43.9988C292.689 44.7262 293.769 45.6112 294.828 46.4982C295.396 46.9728 295.837 47.6007 296.331 48.1624C297.493 49.4825 298.687 50.7778 299.8 52.1394C300.49 52.9829 301.016 53.9611 301.694 54.817C302.225 55.4885 302.915 56.0294 303.452 56.6968C303.825 57.1589 304.049 57.7392 304.349 58.2615C304.923 59.2542 305.441 60.2883 306.096 61.2251C307.53 63.2748 308.386 65.598 309.447 67.83C310.071 69.1398 310.954 70.3232 311.7 71.577C312.001 72.0827 312.251 72.6195 312.523 73.1417C312.618 73.3241 312.672 73.5479 312.811 73.6868C314.162 75.0111 314.494 76.9758 315.745 78.3478C317.008 79.7342 318.444 80.9756 319.604 82.4388C320.701 83.819 322.151 84.5071 323.652 85.249C324.864 85.848 325.913 86.791 327.148 87.3194C328.298 87.8127 329.596 87.9598 330.829 88.2624C331.092 88.3267 331.359 88.3785 331.61 88.4759C333.334 89.137 335.075 89.2986 336.907 88.9152C337.888 88.7101 338.93 88.8178 339.939 88.7328C341.125 88.6334 342.341 88.6085 343.481 88.3163C345.585 87.7775 347.663 87.1163 349.719 86.4075C351.408 85.8273 353.075 85.162 354.704 84.4304C356.187 83.7631 357.671 83.0522 359.043 82.1818C361.319 80.7394 363.499 79.1519 365.729 77.6369C366.092 77.3903 366.521 77.239 366.886 76.9965C368.568 75.8732 370.253 74.752 371.909 73.5915C373.343 72.5863 374.734 71.5231 376.156 70.5014C376.483 70.2652 376.844 70.0558 377.217 69.9004C379.198 69.0756 380.929 67.8694 382.483 66.4166C383.198 65.7472 383.747 64.9037 384.458 64.2281C385.519 63.2167 386.51 61.9194 387.795 61.4158C389.2 60.8645 389.898 59.3993 391.566 59.1734C392.526 59.0428 393.471 57.963 394.188 57.1113C394.955 56.2035 395.869 55.6688 396.911 55.2295C397.179 55.1175 397.407 54.8896 397.624 54.6865C398.202 54.1476 398.716 53.5218 399.346 53.0575C400.474 52.2285 401.653 51.468 402.843 50.7302C403.398 50.3841 404.005 50.0898 404.625 49.8825C407.354 48.9748 410.032 47.8432 412.952 47.6671C413.827 47.6132 414.71 47.7002 415.586 47.7458C415.704 47.752 415.872 47.8598 415.92 47.9655C416.521 49.2483 417.182 48.552 417.895 47.924C419.596 48.7696 421.31 49.5779 422.981 50.4711C423.725 50.869 424.355 51.4783 425.076 51.926C426.765 52.9767 428.319 54.1559 429.754 55.5673C430.527 56.3279 431.422 57.161 432.593 57.534C433.138 57.7081 433.528 58.3257 434.037 58.6697C435.208 59.4614 436.406 60.2158 437.6 60.9702C438.319 61.424 439.038 61.8904 439.791 62.2841C440.821 62.825 441.877 63.3141 442.934 63.8032C443.96 64.2778 444.999 64.7296 446.033 65.1835C446.188 65.2519 446.356 65.3016 446.524 65.3244C447.73 65.4964 448.868 65.8177 449.753 66.7275C449.842 66.8187 449.991 66.8601 450.122 66.8995C452.113 67.4881 454.095 68.1098 456.099 68.6445C457.898 69.1232 459.713 69.5419 461.535 69.9232C463.379 70.3108 465.238 70.6216 467.091 70.9657C467.159 70.9781 467.238 71.0133 467.294 70.9905C469.261 70.2051 471.246 71.548 473.234 70.9263C473.727 70.7729 474.326 70.9967 474.871 70.9553C475.391 70.9138 475.895 70.7025 476.415 70.6527C477.385 70.5594 478.365 70.5594 479.337 70.4683C482.415 70.1802 485.557 70.1595 488.539 69.459C490.381 69.0258 492.168 69.0258 493.983 68.8517C494.522 68.7999 495.09 68.7212 495.577 68.5036C497.353 67.716 499.079 68.6072 500.829 68.572C501.778 68.5533 502.758 68.3005 503.67 68.458C506.232 68.9015 508.82 68.945 511.357 69.9128C513.879 70.8765 516.14 72.1242 518.214 73.7386C520.643 75.6308 522.931 77.7032 525.317 79.6534C526.123 80.3124 527.022 80.8596 527.905 81.415C528.755 81.9497 529.592 82.5466 530.519 82.903C531.994 83.4709 533.515 83.9517 535.057 84.3019C536.742 84.6853 538.469 84.8947 540.18 85.1558C541.351 85.334 542.529 85.4646 543.702 85.6179C543.735 85.6221 543.774 85.6449 543.803 85.6366C545.181 85.1599 546.599 85.819 547.996 85.477C548.547 85.3423 549.154 85.4231 549.737 85.4335C551.225 85.4604 552.713 85.4998 554.203 85.5413C554.511 85.5496 554.82 85.5951 555.131 85.6138C556.068 85.6698 557.046 85.9184 557.929 85.7278C559.398 85.4107 560.81 85.3672 562.281 85.6221C562.835 85.7174 563.438 85.4915 564.02 85.4604C566.778 85.3133 569.543 85.247 572.295 85.0169C573.574 84.9112 574.824 84.4739 576.096 84.2418C576.581 84.1527 577.101 84.2667 577.593 84.1983C580.297 83.819 582.993 83.3672 585.702 83.0398C586.616 82.93 587.565 83.1414 588.498 83.1455C590.332 83.1538 592.17 83.0398 594 83.1227C596.429 83.2325 598.85 83.4875 601.275 83.6698C602.736 83.7797 604.201 83.8377 605.656 83.9911C606.317 84.0615 606.951 84.3558 607.612 84.4636C608.733 84.6439 609.908 84.6128 610.978 84.9403C611.962 85.2408 612.876 84.905 613.807 85.0107C615.477 85.1972 617.135 85.5143 618.808 85.6926C619.904 85.8107 621.021 85.7361 622.121 85.8314C623.365 85.9392 624.598 86.1609 625.839 86.2894C626.372 86.3454 626.915 86.2832 627.454 86.2832C628.776 86.2832 630.098 86.2542 631.418 86.3081C632.053 86.3329 632.676 86.592 633.311 86.6148C634.32 86.65 635.34 86.505 636.345 86.5651C637.853 86.6562 639.354 86.9215 640.863 87.0023C642.589 87.0956 644.326 87.0334 646.054 87.1101C647.368 87.1681 648.678 87.3339 649.99 87.4624C651.762 87.6365 653.534 87.8417 655.308 87.9909C656.199 88.0655 657.086 87.8977 657.929 88.4883C658.304 88.7515 658.99 88.5878 659.535 88.5899C659.842 88.5899 660.157 88.4821 660.458 88.5152C662.76 88.766 665.059 89.0562 667.363 89.2966C667.834 89.3463 668.323 89.224 668.804 89.1909C669.112 89.1701 669.467 89.0624 669.726 89.1722C671.28 89.825 672.861 89.4748 674.451 89.4706C675.626 89.4686 676.801 89.9701 677.978 90.2416C678.142 90.2789 678.324 90.3328 678.478 90.2955C680.239 89.8686 681.982 90.2271 683.738 90.3535C685.582 90.4862 687.443 90.4074 689.29 90.5089C691.3 90.6188 693.3 90.8633 695.31 90.9856C697.256 91.1037 699.204 91.1431 701.153 91.2136C702.893 91.2758 704.634 91.3835 706.375 91.3773C708.756 91.3711 711.138 91.2509 713.521 91.2343C714.338 91.2281 715.212 91.2343 715.958 91.5079C716.578 91.7338 717.038 91.5804 717.604 91.512C718.279 91.4291 718.99 91.6923 719.687 91.7027C721.326 91.7296 722.965 91.6529 724.602 91.6965C726.567 91.7483 728.53 91.9058 730.497 91.9721C732.472 92.0384 734.451 92.0384 736.426 92.0882C736.9 92.1006 737.383 92.1545 737.843 92.2623C739.387 92.6291 740.921 92.2809 742.459 92.2581C742.716 92.254 743.064 92.37 743.219 92.5565C743.891 93.3689 744.805 93.4249 745.551 92.6747C745.733 92.4902 746.038 92.2871 746.264 92.3099C747.368 92.4198 748.465 92.6063 749.565 92.7555C749.799 92.7866 750.04 92.7928 750.276 92.7804C751.544 92.7099 752.813 92.6166 754.083 92.5586C756.189 92.4612 758.297 92.3327 760.404 92.3182C761.312 92.312 762.218 92.5897 763.129 92.6685C763.764 92.7244 764.431 92.7596 765.044 92.6311C766.858 92.2477 768.671 92.4343 770.483 92.5503C770.711 92.5648 770.918 92.9192 771.193 93.1721C771.983 92.0923 773.098 92.6208 774.111 92.6249C775.817 92.6291 777.521 92.7161 779.226 92.7058C781.253 92.6933 783.28 92.5938 785.307 92.5773C786.038 92.5711 786.776 92.6685 787.504 92.7638C787.754 92.7969 787.982 92.9814 788.229 93.0747C788.397 93.1389 788.629 93.255 788.751 93.1928C790.341 92.3638 792.071 93.0581 793.717 92.7078C796.001 92.2229 798.264 92.9545 800.542 93.0829C800.747 93.0954 800.987 93.1866 801.149 93.1099C802.825 92.3037 804.635 92.9648 806.373 92.6643C806.983 92.5586 807.654 92.3244 808.346 92.3762C809.099 92.4322 809.863 92.2643 810.624 92.2415C811.07 92.227 811.521 92.3514 811.967 92.3327C813.774 92.254 815.581 92.169 817.386 92.0405C818.68 91.9493 819.965 91.7628 821.258 91.6737C821.807 91.6343 822.373 91.3006 822.928 91.9617C823.107 92.1731 824.029 91.7731 824.607 91.6364C825.316 91.4685 826.016 91.0084 826.715 91.711C826.827 91.8229 827.237 91.8229 827.361 91.711C828.23 90.9214 829.237 91.682 830.169 91.4167C831.067 91.1618 832.035 91.11 832.976 91.0582C834.335 90.9815 835.711 91.0789 837.06 90.9317C838.948 90.7245 840.809 90.4468 842.729 90.5898C844.14 90.6934 845.572 90.5131 846.996 90.4779C848.697 90.4385 850.401 90.4613 852.1 90.3784C853.259 90.3224 854.413 90.1318 855.567 89.9991C855.835 89.968 856.1 89.9038 856.369 89.8934C857.768 89.8416 859.169 89.7981 860.568 89.7587C861.202 89.7421 861.87 89.6219 862.462 89.7753C862.925 89.8934 863.296 90.3618 863.739 90.6975C864.951 90.3618 866.317 89.8934 867.722 89.6282C868.634 89.4561 869.604 89.6095 870.545 89.5577C871.631 89.4976 872.814 89.0499 873.778 89.3442C875.78 89.9556 877.645 88.8904 879.66 89.2821C881.413 89.624 883.332 89.0002 885.173 89.0562C887.581 89.1287 889.97 88.8282 892.395 88.9961C894.689 89.1556 897.025 88.5753 899.35 88.4344C901.302 88.3163 903.265 88.364 905.224 88.3287C905.532 88.3225 905.839 88.2624 906.146 88.2458C907.016 88.2002 907.891 88.1899 908.757 88.1153C909.77 88.0282 910.78 87.8894 911.789 87.7692C912.95 87.6324 914.152 87.6344 915.258 87.3091C916.216 87.0293 917.418 87.2614 918.106 86.1402C918.257 85.8936 918.976 86.0262 919.424 85.9267C921.246 85.5247 922.628 86.5879 924.112 87.3111C924.186 87.3484 924.232 87.4749 924.261 87.5681C924.852 89.4831 925.494 91.3856 925.99 93.3275C926.124 93.856 925.801 94.4984 925.697 95.0912C925.424 96.6662 924.209 97.3232 922.928 97.8973C921.751 98.4237 920.599 99.1117 919.36 99.3666C917.48 99.7542 915.532 99.8019 913.619 100.048C912.894 100.142 912.195 100.417 911.474 100.556C910.564 100.732 909.644 100.954 908.726 100.977C907.236 101.012 905.742 100.83 904.254 100.877C903.315 100.909 902.39 101.302 901.452 101.34C900.345 101.383 899.226 101.122 898.121 101.17C896.697 101.232 895.284 101.491 893.862 101.624C892.955 101.709 892.03 101.653 891.129 101.777C890.238 101.899 889.367 102.175 888.482 102.359C888.198 102.417 887.889 102.446 887.605 102.401C887.181 102.332 886.772 102.16 886.348 102.077C885.49 101.91 884.625 101.771 883.763 101.628C883.494 101.582 883.193 101.476 882.951 101.547C880.143 102.351 877.254 101.709 874.421 102.042C874.133 102.075 873.828 101.955 873.532 101.912C873.227 101.868 872.825 101.688 872.63 101.816C871.188 102.765 869.683 101.758 868.209 102.009C866.694 102.266 865.13 102.218 863.594 102.374C860.993 102.637 858.402 103.033 855.797 103.219C854.301 103.327 852.784 103.093 851.277 103.087C850.49 103.083 849.7 103.236 848.913 103.319C848.846 103.325 848.761 103.385 848.72 103.36C847.665 102.745 846.571 103.008 845.454 103.136C843.848 103.321 842.225 103.369 840.608 103.485C839.813 103.543 839.021 103.684 838.227 103.679C837.05 103.673 835.873 103.559 834.696 103.518C833.715 103.485 832.735 103.456 831.755 103.483C829.761 103.536 827.77 103.613 825.778 103.708C824.17 103.787 822.566 103.943 820.957 104.001C818.98 104.071 816.997 104.028 815.022 104.121C812.674 104.233 810.334 104.486 807.986 104.583C806.438 104.647 804.871 104.411 803.337 104.56C802.081 104.683 800.875 104.079 799.549 104.672C798.66 105.068 797.468 104.832 796.415 104.813C794.43 104.776 792.446 104.635 790.463 104.641C788.559 104.647 786.652 104.78 784.747 104.865C784.511 104.875 784.242 105.033 784.047 104.96C782.109 104.247 780.19 105.029 778.265 105.006C776.799 104.987 775.334 104.956 773.871 104.973C773.367 104.979 772.849 105.223 772.364 105.161C771.108 105.002 769.873 104.647 768.615 104.527C767.337 104.405 766.039 104.459 764.75 104.461C763.471 104.461 762.126 104.251 760.929 104.571C759.528 104.944 758.201 104.434 756.821 104.68C755.557 104.906 754.212 104.62 752.91 104.691C751.406 104.772 749.928 104.879 748.43 104.519C747.793 104.365 747.033 104.405 746.407 104.602C744.824 105.099 743.296 104.925 741.754 104.504C741.721 104.496 741.686 104.479 741.653 104.484C739.298 104.801 736.994 104.164 734.681 103.976C731.999 103.758 729.338 104.115 726.702 103.837C725.61 103.721 724.663 103.708 723.67 104.075C723.568 104.113 723.415 104.048 723.297 104.003C722.406 103.661 721.55 103.536 720.534 103.576C718.027 103.675 715.504 103.379 712.986 103.275C712.211 103.244 711.43 103.344 710.651 103.346C710.145 103.348 709.637 103.292 709.134 103.244C709.042 103.236 708.962 103.093 708.873 103.089C707.333 103.025 705.793 102.991 704.255 102.915C702.935 102.85 701.617 102.695 700.295 102.662C698.002 102.602 695.706 102.618 693.414 102.573C691.982 102.544 690.552 102.463 689.122 102.403C688.78 102.388 688.434 102.326 688.094 102.353C686.347 102.498 684.658 102.353 682.94 101.893C681.746 101.574 680.428 101.653 679.168 101.665C677.549 101.682 675.929 101.878 674.312 101.864C673.1 101.852 671.887 101.636 670.677 101.495C669.067 101.304 667.463 101.043 665.846 100.913C664.101 100.772 662.335 100.838 660.599 100.643C659.349 100.502 658.143 99.9822 656.893 99.8143C655.83 99.6713 654.725 99.8599 653.65 99.7729C652.694 99.6962 651.758 99.3936 650.8 99.2858C649.741 99.1677 648.67 99.1428 647.602 99.1138C647.057 99.0993 646.498 99.2402 645.963 99.1698C644.833 99.0205 643.723 98.6848 642.591 98.5957C641.42 98.5045 640.231 98.6641 639.051 98.6206C638.133 98.5874 637.165 98.691 636.345 98.0796C636.229 97.9926 635.992 97.9822 635.843 98.032C633.777 98.7138 631.707 97.9677 629.636 98.0258C627.752 98.0776 625.873 97.6755 623.972 98.1708C623.365 98.3283 622.563 98.117 621.958 97.8392C620.335 97.0952 618.629 97.719 616.996 97.402C616.777 97.3584 616.526 97.2569 616.379 97.0994C615.977 96.6642 615.585 96.4569 615.034 96.8569C614.922 96.9377 614.667 96.9564 614.555 96.8838C613.585 96.258 612.53 96.7885 611.535 96.6351C610.194 96.4279 608.829 95.8725 607.535 96.0196C606.178 96.173 605.175 95.1533 603.985 95.3336C602.446 95.5658 600.976 95.1678 599.474 95.1637C599.161 95.1637 598.848 95.344 598.535 95.4414L598.475 95.2653L598.452 95.2756Z" fill="#3435FF"/>
</g>
<defs>
<clipPath id="clip0_392_2400">
<rect width="926" height="105.173" fill="white"/>
</clipPath>
</defs>
</svg>
