<svg width="454" height="235" viewBox="0 0 454 235" fill="none" xmlns="http://www.w3.org/2000/svg">
<g style="mix-blend-mode:darken" clip-path="url(#clip0_600_3268)">
<path d="M142.951 111.969C144.215 112.396 143.126 112.858 143.198 113.043C141.323 112.093 143.175 111.824 142.951 111.969Z" fill="#3435FF"/>
<path d="M124.6 102.23L124.643 102.633C123.924 101.994 123.208 101.368 122.508 100.723C123.193 101.234 123.895 101.725 124.6 102.23Z" fill="#3435FF"/>
<path d="M106.982 93.1952C108.556 93.2359 109.973 94.1496 111.517 95.2113C113.053 96.2793 114.734 97.4828 116.544 98.113L117.384 98.1466L117.732 99.6374C115.862 98.6236 113.873 97.3342 112.041 96.1356C110.177 94.9431 108.485 93.8225 106.991 93.1889L106.982 93.1952Z" fill="#3435FF"/>
<path d="M94.7562 89.0876C95.351 89.1443 95.0683 88.7458 95.036 88.7072C95.0239 88.6624 95.1924 89.0024 96.9282 90.449C96.6594 90.3443 96.5648 90.3178 96.3975 90.2651C96.0761 90.0067 95.5621 89.6826 94.758 89.094L94.7562 89.0876Z" fill="#3435FF"/>
<path d="M96.4087 90.259C94.7271 89.7002 98.0546 91.494 96.4087 90.259V90.259Z" fill="#3435FF"/>
<path d="M89.6141 84.1357L90.1892 85.1307L90.8612 86.1202C90.4355 86.0012 89.715 85.5602 89.1958 85.2169C88.6875 84.8737 88.3074 84.6402 88.4574 84.9928C86.8998 82.9925 87.7888 83.2883 89.6031 84.1356L89.6141 84.1357Z" fill="#3435FF"/>
<path d="M89.4099 82.0721C89.5766 82.4056 89.7964 82.7333 90.0052 83.0609C89.6579 82.949 89.3032 82.7286 89.4099 82.0721Z" fill="#3435FF"/>
<path d="M91.3966 85.1735C90.8682 84.4726 90.4569 83.76 89.9959 83.0662C90.5797 83.2441 91.249 83.0909 90.6795 84.0175C91.1174 83.6961 90.8918 84.2366 91.3983 85.1799L91.3966 85.1735Z" fill="#3435FF"/>
<path d="M92.9398 86.1675C93.699 86.5898 94.5084 87.0763 94.967 87.1956C95.4274 87.3213 95.4793 87.1494 94.8194 86.2047C96.5967 87.8049 97.0801 88.582 96.6157 88.6031C96.3873 88.6073 95.9189 88.4113 95.2872 88.0158C94.6538 87.6139 93.8184 87.0314 92.9508 86.1676L92.9398 86.1675Z" fill="#3435FF"/>
<path d="M107.799 91.8101C108.513 92.0659 109.198 92.3342 109.929 92.571L110.885 93.7229C110.643 93.4333 109.721 93.0159 108.921 92.6444C108.139 92.2602 107.5 91.9158 107.801 91.8165L107.799 91.8101Z" fill="#3435FF"/>
<path d="M79.7991 72.4633C80.2398 72.3143 81.3815 73.0594 82.0853 73.1555L82.3079 74.6259C81.9387 74.2713 81.4917 73.7499 81.0452 73.3115C80.5969 72.8668 80.2023 72.4991 79.8118 72.4698L79.7991 72.4633Z" fill="#3435FF"/>
<path d="M82.0769 73.147C82.0221 72.4187 82.0112 71.6908 81.9818 70.9756C82.8742 72.8609 82.6567 73.2291 82.0769 73.147Z" fill="#3435FF"/>
<path d="M91.4047 81.2349C91.584 81.8175 91.8604 82.3947 92.1274 82.9782C92.4055 83.5618 92.6432 84.1578 92.987 84.742C92.1638 83.3552 91.4133 81.9947 90.8785 80.6234L91.392 81.2284L91.4047 81.2349Z" fill="#3435FF"/>
<path d="M77.5888 63.8811L76.4944 65.0898C77.0373 64.3482 77.5761 63.632 78.1548 62.9417L77.5998 63.8812L77.5888 63.8811Z" fill="#3435FF"/>
<path d="M78.5224 58.2126C77.923 58.5834 77.5982 58.1909 77.3282 57.7989C77.0692 57.407 76.9123 57.0289 76.4087 57.4709C76.8114 56.696 77.3623 56.0246 77.9796 55.4368C78.5969 54.849 79.4155 54.359 80.1003 53.8995C79.5477 54.4432 79.0088 55.0381 78.7861 55.751C78.5651 56.4702 78.4122 57.2795 78.5333 58.2127L78.5224 58.2126Z" fill="#3435FF"/>
<path d="M82.4705 52.4029C82.1307 52.6423 81.7344 52.8747 81.3179 53.1132C80.9013 53.3518 80.5246 53.6163 80.0948 53.8867C80.4115 53.6025 80.719 53.3245 81.1102 53.0729C81.525 52.828 81.9778 52.6025 82.4688 52.3965L82.4705 52.4029Z" fill="#3435FF"/>
<path d="M80.6576 67.3306C80.3259 67.155 79.4669 66.8084 78.9068 65.5455L80.4823 66.4798L80.6576 67.3306Z" fill="#3435FF"/>
<path d="M80.5236 66.5121L80.4714 66.4797C80.2331 65.5582 80.2215 64.9133 80.1798 64.6384C80.222 64.875 80.2128 65.4431 80.5236 66.5121Z" fill="#3435FF"/>
<path d="M80.7076 67.541L80.6505 67.3298C80.8154 67.4144 80.8731 67.466 80.7076 67.541Z" fill="#3435FF"/>
<path d="M86.2364 76.3027C86.2266 75.9835 86.1741 75.5872 86.1378 75.2102C86.1326 74.8271 86.1545 74.4634 86.2497 74.209C86.4401 73.7001 86.9213 73.66 88.1252 74.7568C87.7092 75.6849 86.203 74.4001 86.2364 76.3027Z" fill="#3435FF"/>
<path d="M82.7095 68.6067C83.062 69.3442 83.3487 70.0811 83.7525 70.8063C83.3729 70.7771 82.6662 70.3873 82.5399 71.0117C82.5082 70.2071 82.6501 69.3977 82.7095 68.6067Z" fill="#3435FF"/>
<path d="M82.9038 67.5378C82.8144 67.8945 82.7469 68.2513 82.7122 68.6085C82.583 68.3327 82.4665 68.0635 82.3794 67.7818L82.8911 67.5313L82.9038 67.5378Z" fill="#3435FF"/>
<path d="M81.279 56.4779C81.7584 56.0675 82.2545 55.6382 82.6601 55.1569C83.102 54.6888 83.3807 54.1425 83.9218 53.6369C83.5399 54.2461 83.3362 54.9081 83.0016 55.5305C82.858 55.8483 82.6653 56.1465 82.5435 56.4645C82.4201 56.7761 82.2966 57.0877 82.1714 57.3929C81.6643 57.4583 80.6409 57.8379 81.2807 56.4843L81.279 56.4779Z" fill="#3435FF"/>
<path d="M80.2407 61.3388C80.2778 61.2753 80.2989 61.1925 80.3468 61.1291C80.4537 61.2833 80.4831 61.3921 80.2407 61.3388Z" fill="#3435FF"/>
<path d="M96.7465 45.0913C96.7107 45.1612 96.6894 45.244 96.6553 45.3203C96.5809 45.2876 96.5174 45.2551 96.4321 45.2223L96.7482 45.0977L96.7465 45.0913Z" fill="#3435FF"/>
<path d="M82.3387 57.6497C82.1777 58.6312 81.7208 59.1248 81.1583 59.5918C81.3042 59.2421 81.4594 58.8861 81.6112 58.5173C81.8085 58.1553 81.9896 57.774 82.1673 57.3799C82.3998 57.3502 82.5348 57.3643 82.3387 57.6497Z" fill="#3435FF"/>
<path d="M86.0445 49.7318C85.797 50.272 85.4722 50.8498 85.1053 51.4336C85.1595 50.866 85.5438 49.7397 86.0445 49.7318Z" fill="#3435FF"/>
<path d="M79.9814 60.7419C79.95 60.7863 79.9295 60.8308 79.8998 60.8816C79.6362 60.5088 79.795 60.5741 79.9814 60.7419Z" fill="#3435FF"/>
<path d="M79.9881 60.7429C80.3077 60.2672 80.7531 59.9331 81.1656 59.5988C80.925 60.1646 80.5829 60.6784 80.344 61.1294C80.2529 60.9944 80.1144 60.8463 79.9864 60.7365L79.9881 60.7429Z" fill="#3435FF"/>
<path d="M106.871 48.2584C106.415 47.9476 105.18 47.8273 103.878 48.0637C102.557 48.2745 101.142 48.8227 100.405 49.6966C98.8845 49.9757 97.7048 49.4536 97.0073 48.5724C96.3243 47.704 96.1484 46.4064 96.6544 45.3261C96.8845 45.4496 97.0945 45.5792 97.6645 45.5847C98.2345 45.5902 99.1846 45.4652 100.936 45.1884C100.776 45.3656 100.349 45.6488 99.844 45.9631C99.353 46.2903 98.8211 46.6683 98.3977 47.0026C97.5669 47.6904 97.3062 48.2624 98.8147 48.0599C100.833 47.5174 101.501 47.1983 101.875 46.8827C102.238 46.567 102.241 46.2159 103.001 45.7508C102.655 46.4114 104.271 46.363 105.953 46.36C107.676 46.3829 109.482 46.4705 109.675 47.2256C108.429 47.3477 107.157 47.4568 105.925 47.6301C106.081 47.8423 107.575 47.8311 106.873 48.2648L106.871 48.2584Z" fill="#3435FF"/>
<path d="M91.3559 47.8944L90.1727 48.4512C91.1828 47.6182 91.6778 46.9016 92.7561 45.5522C95.2501 44.9505 95.9994 45.0534 96.4373 45.2172C95.4283 45.6097 94.4856 46.0859 93.5216 46.5235C92.617 47.0191 91.6674 47.4696 90.8425 48.0171L91.3542 47.888L91.3559 47.8944Z" fill="#3435FF"/>
<path d="M86.0065 51.6332C87.9357 51.5304 90.4089 50.1242 90.5086 51.7466C88.111 53.7153 87.8537 52.7234 86.0953 53.862C86.971 52.9767 87.2895 52.5775 87.3772 52.4571C87.4412 52.33 87.1274 52.4228 86.7928 52.56C86.4692 52.6973 86.074 52.8531 85.8721 52.7938C85.6938 52.741 85.5779 52.4334 86.1277 51.7173C85.1337 52.327 84.555 53.0173 83.9337 53.6306C84.3779 52.8879 84.7073 52.1251 85.1216 51.4332L85.1089 51.548L85.0921 51.567C85.0921 51.567 85.1031 51.5671 85.1141 51.5672C85.0962 51.7841 85.1423 51.8739 85.2496 51.6642C85.2808 51.6582 85.3344 51.614 85.3639 51.6015C85.5623 51.6481 85.7908 51.6439 86.0175 51.6333C86.9227 50.4929 85.8813 51.332 85.3639 51.6015C85.2837 51.588 85.1977 51.5935 85.125 51.5673L85.1198 51.5481L87.5273 49.8986C88.4226 49.4093 89.2545 48.8874 90.1983 48.456C89.3122 49.1816 88.0228 49.9928 86.0284 51.6334L86.0065 51.6332Z" fill="#3435FF"/>
<path d="M89.9218 72.4311C89.7499 72.3209 89.6547 72.3328 89.5451 72.3317C89.6057 72.0706 89.6894 71.9756 89.9218 72.4311Z" fill="#3435FF"/>
<path d="M88.413 70.89C88.3375 71.1765 87.884 71.4403 88.4292 72.3648C89.2177 73.1384 89.073 72.3199 89.557 72.3309C89.4462 72.8916 89.6198 74.3424 87.9901 72.6415L88.053 72.3484C87.4929 71.5706 86.4758 70.6799 85.7645 69.99C85.0221 69.3062 84.3916 68.8342 84.3437 68.9805C85.798 69.4669 86.7435 69.8909 88.424 70.8901L88.413 70.89Z" fill="#3435FF"/>
<path d="M84.3997 61.437C84.9074 60.363 85.3401 59.2947 86.0896 58.306C86.2718 58.9397 86.4034 59.5474 86.7154 60.176L85.9989 59.9521C85.8316 61.8401 85.0176 61.2961 84.4015 61.4434L84.3997 61.437Z" fill="#3435FF"/>
<path d="M96.8546 44.5243L95.2087 44.0169C95.9396 44.0112 96.6469 43.9988 97.3594 44.0056L99.4962 44.0644C98.617 44.2092 97.7217 44.3347 96.8528 44.5179L96.8546 44.5243Z" fill="#3435FF"/>
<path d="M103.724 42.5661L102.775 41.925C103.537 41.9131 104.286 41.8948 105.042 41.902C104.597 42.1148 104.157 42.3468 103.724 42.5661Z" fill="#3435FF"/>
<path d="M388.102 146.489L386.783 146.744C387.366 146.597 387.773 146.524 388.102 146.489Z" fill="#3435FF"/>
<path d="M395.097 142.834L395.768 143.013C395.187 143.046 394.858 143.004 395.097 142.834Z" fill="#3435FF"/>
<path d="M281.341 53.3736C283.959 53.271 287.069 52.8859 286.41 53.6009L285.334 54.1907C283.761 53.6713 282.469 53.461 281.33 53.3735L281.341 53.3736Z" fill="#3435FF"/>
<path d="M386.75 97.2006C386.497 97.1535 386.22 97.0998 385.954 97.0461C385.836 96.6109 385.738 96.2078 385.651 95.8431C385.981 96.2548 386.378 96.7119 386.75 97.2006Z" fill="#3435FF"/>
<path d="M383.963 100.065C384.896 100.4 385.85 100.735 386.756 101.094C386.067 100.89 385.149 100.568 383.963 100.065Z" fill="#3435FF"/>
<path d="M334.026 152.884L332.02 152.016C334.797 152.055 333.694 152.466 334.026 152.884Z" fill="#3435FF"/>
<path d="M177.336 38.7002C179.35 38.4259 181.001 38.4289 182.453 38.462C181.23 38.629 180.145 38.8612 179.265 38.9613C178.386 39.0678 177.728 39.0615 177.336 38.7002Z" fill="#3435FF"/>
<path d="M402.086 152.299C401.134 152.539 400.601 152.546 400.393 152.385C401.354 152.139 401.998 152.055 402.086 152.299Z" fill="#3435FF"/>
<path d="M188.487 38.8088C188.131 38.8693 187.765 38.8913 187.407 38.9389C185.87 38.7135 184.318 38.5135 182.455 38.4574C184.259 38.2129 186.374 38.1119 188.487 38.8088Z" fill="#3435FF"/>
<path d="M114.092 113.55C113.921 113.522 113.733 113.469 113.565 113.454C113.612 113.345 113.817 113.418 114.092 113.55Z" fill="#3435FF"/>
<path d="M50.5218 92.7292C50.9533 93.0716 51.8175 93.5587 52.6015 94.0322C52.1567 93.8428 51.4864 93.4662 50.5218 92.7292Z" fill="#3435FF"/>
<path d="M132.133 38.466C130.593 38.515 131.85 38.393 132.133 38.466V38.466Z" fill="#3435FF"/>
<path d="M126.573 42.2423C126.93 42.3095 127.241 42.4083 127.379 42.5947C127.154 42.4074 126.883 42.2963 126.573 42.2423Z" fill="#3435FF"/>
<path d="M204.045 45.2075L204.176 45.2087C203.731 45.3334 203.811 45.3084 204.045 45.2075Z" fill="#3435FF"/>
<path d="M130.06 38.9961C130.568 38.8541 131.179 38.7259 131.86 38.6176C131.577 38.7042 131.029 38.8203 130.06 38.9961Z" fill="#3435FF"/>
<path d="M130.161 38.5799L128.885 38.7528C128.622 38.629 128.748 38.528 130.161 38.5799Z" fill="#3435FF"/>
<path d="M134.264 38.3657C133.39 38.4084 132.606 38.503 131.861 38.6172C132.125 38.5431 132.23 38.4867 132.137 38.4666C132.58 38.4453 133.218 38.4195 134.253 38.3656L134.264 38.3657Z" fill="#3435FF"/>
<path d="M229.018 146.315C228.912 146.326 228.802 146.325 228.685 146.337C227.258 145.749 227.904 145.915 229.018 146.315Z" fill="#3435FF"/>
<path d="M314.755 71.2686C314.755 71.2686 314.674 71.2098 314.624 71.1836L314.85 71.2179L314.764 71.2623L314.755 71.2686Z" fill="#3435FF"/>
<path d="M319.337 73.3541C317.885 71.7826 316.571 71.5338 314.836 71.2235L317.933 69.6573C318.419 70.8876 318.894 72.1178 319.326 73.354L319.337 73.3541Z" fill="#3435FF"/>
<path d="M366.668 151.767C367.582 151.386 368.436 150.947 369.299 150.541C368.123 150.395 367.113 150.341 366.275 150.314C365.421 150.267 364.752 150.261 364.294 150.225C363.38 150.158 363.347 149.998 364.445 149.288C364.984 149.906 366.055 150.146 367.329 150.126C368.618 150.126 370.156 149.911 371.626 149.644C373.138 149.416 374.548 149.091 375.823 149.033C377.07 148.955 378.082 149.061 378.808 149.642C379.263 149.302 379.735 148.987 380.154 148.634C379.668 148.821 379.415 148.691 378.912 148.852C380.113 147.797 381.15 147.992 382.563 148.287C383.27 148.434 384.006 148.569 384.841 148.545C385.666 148.521 386.633 148.377 387.607 147.856C388.881 147.071 389.461 146.342 388.09 146.488C389.455 146.24 390.695 145.894 392.034 145.588C392.84 145.091 392.067 144.86 391.252 145.325C392.863 144.613 394.444 143.868 395.896 143.052L395.765 143.013C396.959 142.979 399.054 142.521 400.088 142.263C400.56 141.297 399.181 142.426 398.983 142.016C400.037 141.668 400.937 141.237 401.933 140.838C401.838 140.281 401.118 140.249 400.294 140.477C399.472 140.712 398.573 141.227 397.876 141.763C397.029 140.165 397.554 139.966 398.657 139.638C399.204 139.477 399.872 139.279 400.418 138.831C400.976 138.39 401.522 137.737 401.593 136.666L400.667 137.365C400.345 137.592 399.977 137.806 399.643 138.026C399.319 137.557 399.224 137.166 399.201 136.796C399.164 136.419 399.245 136.069 399.389 135.713C399.533 135.356 399.718 134.988 399.775 134.554C399.846 134.127 399.929 133.669 399.806 133.131C400.11 133.447 400.437 134.574 401 135.524C401.454 136.435 402.126 137.143 403.451 136.383C403.495 136.058 403.575 135.708 403.869 135.341C404.152 134.973 404.662 134.595 405.341 134.155C403.782 133.725 404.806 132.822 405.308 131.486L403.183 131.146C403.772 130.533 404.214 130.269 404.736 130.095C405.255 129.915 405.796 129.812 406.375 129.447C406.406 128.592 405.902 128.019 405.325 127.624C404.735 127.222 403.992 126.979 403.268 126.73C402.953 125.443 403.671 125.916 404.461 126.371C405.26 126.819 406.132 127.255 406.177 125.64C405.965 125.057 405.668 124.525 405.538 124.006C405.365 123.488 405.406 122.99 405.275 122.465C405.188 121.941 405.17 121.392 405.172 120.792C405.119 120.191 405.018 119.533 404.936 118.785C403.24 117.205 403.902 119.209 402.971 118.677C403.199 118.143 403.368 117.595 403.564 117.029C403.283 116.675 402.885 116.863 402.681 116.957C402.422 115.633 404.618 116.56 403.532 114.482C403.939 114.249 403.747 113.903 403.229 113.483C402.658 113.069 401.762 112.588 400.831 112.055C399.931 111.517 398.851 110.958 398.06 110.337C397.659 110.027 397.319 109.698 397.053 109.364C396.766 109.029 396.572 108.676 396.492 108.299C395.343 107.892 395.774 108.917 394.911 108.96C393.805 107.175 393.102 106.434 392.657 105.721C392.201 105.002 391.821 104.366 390.897 102.729C389.563 102.161 388.131 101.637 386.773 101.1C390.2 102.091 388.633 99.4902 386.78 97.2062C388.187 97.475 389.409 97.7102 390.153 97.9152C388.892 96.8498 387.637 95.7653 386.273 94.7244C385.476 94.5253 385.493 95.0744 385.679 95.8423C385.469 95.5913 385.284 95.3533 385.156 95.1606C382.973 94.4885 383.083 95.4599 383.483 96.5745C384.304 96.742 385.166 96.8971 385.995 97.0518C386.252 98.2034 386.292 99.3209 385.225 99.6235C385.112 99.3671 384.706 98.9546 384.191 98.5475C384.24 98.848 384.212 99.0712 383.937 99.0621C383.641 99.0593 383.527 98.5986 383.142 97.982L380.585 98.2703L380.945 97.7822C378.71 96.8352 376.394 95.9511 374.094 95.0864C371.186 91.8922 369.086 88.4121 361.898 84.5512C362.902 86.1632 360.828 85.9709 359.869 86.9129C363.076 86.8862 365.199 89.9261 369.174 91.5665C367.093 90.7039 366.977 91.3284 367.277 91.7079C365.397 90.3748 363.53 89.0099 361.547 87.7014C360.812 88.4987 359.417 87.5852 357.25 87.0921C360.341 86.2344 353.148 83.8481 350.684 82.2158C349.97 82.6494 350.132 83.4489 353.795 84.7863C351.235 84.5383 350.455 83.5924 349.686 82.6084C348.919 81.6307 348.115 80.6399 345.678 80.3612C346.552 80.7206 347.105 80.8281 347.192 81.2311C345.608 79.9391 340.128 78.3928 340.909 79.3004L341.79 79.6472C340.272 79.1283 338.386 78.4591 336.396 77.7314C334.425 76.9911 332.321 76.2049 330.425 75.4207C326.617 73.8712 323.557 72.38 323.603 71.5378C323.407 71.7019 323.153 73.4741 323.305 73.8714C320.859 71.1348 318.27 68.3905 315.528 65.6512C315.686 67.1656 310.01 68.937 314.675 71.1905C313.088 70.9007 311.131 70.5756 308.301 69.2078C309.418 69.3334 311.971 68.1833 310.66 67.66C305.96 67.9086 307.52 67.6108 302.107 67.444C303.8 67.6007 303.255 65.1824 300.76 64.5648C300.977 64.9626 299.442 66.4417 300.208 66.8895C298.57 65.6865 296.906 64.5023 295.219 63.3179C296.559 64.0712 294.588 65.029 292.945 65.2176C293.789 64.9831 287.671 63.9094 286.142 63.3074L288.951 63.5067C285.432 62.7835 284.067 61.6597 282.689 60.5229C281.304 59.4053 279.909 58.2492 276.389 57.4813C277.069 58.0943 277.367 60.491 273.769 59.9203C273.184 59.2125 271.904 57.5915 269.973 55.8685C268.046 54.1584 265.494 52.2826 262.44 51.2575L261.026 51.6078L256.361 49.9607C257.649 51.0455 260.145 52.8378 262.778 54.6122C265.402 56.4312 268.161 58.2642 270.156 59.375C267.362 59.2716 269.163 59.9081 265.279 59.009C263.708 59.2621 267.083 60.3031 268.208 60.582C265.148 60.0611 262.115 59.4766 259.052 59.0259C259.862 57.8974 252.49 56.4286 253.129 55.4772C256.321 56.5675 259.503 57.6194 262.643 58.722C263.059 58.1578 261.937 56.998 259.849 55.8672C257.761 54.7364 254.722 53.5646 251.393 53.0603C249.585 53.2472 252.042 55.4604 251.774 55.8408C251.051 55.2722 245.799 53.9195 245.131 54.1174L247.728 55.2722C244.016 55.0898 242.202 52.5444 237.559 53.0425C236.028 52.881 232.766 53.9158 232.644 53.1422C235.329 52.1146 236.682 47.8186 235.171 46.4763C234.604 46.4389 226.748 46.619 224.905 47.0801C222.248 47.8462 228.364 50.2923 226.093 50.9472C226.05 50.5893 224.715 49.9765 224.152 49.754C222.519 49.8213 224.694 50.9083 221.239 50.2623C220.788 48.9174 214.16 49.5114 219.702 48.9836C216.321 48.2043 216.058 48.8082 212.063 48.2656C212.716 47.9335 211.857 47.1018 210.371 46.2959C208.898 45.4966 206.789 44.6912 205.051 44.3298C205.254 44.6765 204.474 45.0265 204.101 45.1825C200.558 44.8549 197.846 44.8544 195.207 44.7972C192.558 44.7462 189.992 44.677 186.713 44.5178C186.144 44.7996 183.039 44.9997 184.458 45.6389C183.496 45.3552 182.564 44.8611 180.546 44.714C178.697 45.1942 179.821 45.2689 181.063 45.4148C182.305 45.5608 183.666 45.7398 182.294 46.3267C182.115 45.9484 180.781 45.5845 179.121 45.3068C177.47 45.0229 175.487 44.7677 174.01 44.479C174.654 43.3425 180.594 44.4464 183.523 45.132C183.415 44.3266 182.056 43.4262 179.807 42.5876C177.568 41.7873 174.447 41.0807 170.868 40.5803C168.051 40.2724 167.519 40.5674 167.56 40.8423C167.604 41.1236 168.213 41.4358 167.71 41.3161C162.597 41.4075 160.209 40.6632 158.035 40.0615C155.88 39.4918 153.93 39.0326 149.83 39.6764C146.81 40.7582 150.429 41.7313 149.944 42.4863C154.474 42.8234 156.481 41.7127 159.509 41.7546C158.312 41.8963 157.143 42.1021 155.977 42.2761C156.731 42.4365 157.862 42.575 158.992 42.6305C160.129 42.7117 161.267 42.7162 162.027 42.5767C161.392 42.8131 159.991 42.8891 158.16 42.9928C156.328 43.0902 154.047 43.1449 151.613 43.1982C149.16 43.2257 146.608 43.3672 144.181 43.5291C141.77 43.7102 139.46 43.8604 137.678 44.2264C136.178 43.9758 133.654 43.7792 134.561 43.29L137.048 43.2692C138.904 42.2911 131.924 42.4348 134.824 41.837C131.277 41.4966 127.057 40.7667 122.666 41.7141L122.49 42.9636C122.373 42.6114 125.096 41.9672 126.596 42.2178C125.488 42.0412 123.934 42.6008 122.328 43.0514C120.714 43.5083 119.053 43.8754 117.507 43.2541C118.394 42.8541 119.288 42.4413 120.2 42.0543C116.582 41.8536 111.498 41.2048 107.655 42.4383C108.607 40.9473 108.674 42.3651 110.624 40.5197C109.965 41.5604 112.627 41.056 115.114 40.7096C117.609 40.3569 119.901 40.098 118.378 41.2197C120.454 39.3117 123.252 39.9578 126.547 38.3168C126.622 38.7133 125.515 39.1496 128.94 38.7164C129.154 38.8206 129.6 38.9334 129.882 39.0063C129.987 38.9882 130.018 38.9821 130.111 38.9638L129.941 39.0197C130.117 39.066 130.142 39.079 129.88 39.0382C129.133 39.2673 128.555 39.5171 128.388 39.7453C130.587 40.5196 136.089 40.0872 138.179 40.4584C140.184 40.1903 137.107 40.0523 138.064 39.5891L141.193 40.1617C141.089 39.2925 146.189 38.5052 141.001 38.2001L145.468 37.9812C147.92 37.3855 151.563 37.1906 153.933 37.507C154.976 37.4021 156.402 37.62 157.298 37.7818C158.198 37.9564 158.594 38.0879 157.547 37.7331L164.83 38.3456L164.837 38.1286C168.331 38.0727 172.061 38.6064 175.837 38.9044C179.615 39.1704 183.486 39.4565 187.445 38.8944C189.852 39.2239 192.336 39.7201 196.311 39.7838L197.058 39.1078C200.131 39.5587 206.288 39.2411 207.61 40.1283C208.451 39.7214 209.802 39.5812 211.461 39.6098C213.106 39.6703 215.05 39.906 217.052 40.1933C219.057 40.4934 221.113 40.8195 223.005 41.1441C224.898 41.4751 226.635 41.7535 227.997 41.8559L228.073 42.8269C229.921 43.0681 231.738 43.36 233.63 43.7676C235.524 44.1815 237.525 44.6667 239.763 45.2244L239.319 46.0054C241.211 46.6555 243.749 46.9033 246.585 47.205C249.42 47.5003 252.596 47.7222 255.648 48.3771C255.322 47.9782 253.741 47.7524 252.57 47.7475C256.516 47.5045 260.314 48.6517 263.966 49.7847C267.609 50.9687 271.088 52.2277 274.657 52.2875C276.178 52.9404 277.401 53.1373 278.632 53.2002C278.479 53.1604 278.346 53.1144 278.244 53.0624C278.418 53.096 278.662 53.1494 278.918 53.2093C279.703 53.2424 280.518 53.2629 281.376 53.3222C280.608 53.3532 279.877 53.3589 279.282 53.3022C280.536 53.6142 282.412 54.1621 284.191 54.7983L285.38 54.1394C285.523 54.1855 285.651 54.2123 285.807 54.2648C287.793 54.4116 287.087 55.0368 285.813 55.4204C286.679 55.7925 287.461 56.1767 288.02 56.5459C290.171 55.5643 292.641 58.2308 295.408 57.3062C295.861 57.8085 298.099 58.5641 300.26 59.4019C302.411 60.2396 304.461 61.1913 304.518 62.0473C304.69 61.8766 305.285 61.9334 304.301 61.6494C306.44 62.0402 308.557 62.469 310.118 63.3905L311.633 62.6071L315.148 65.2964C318.222 65.4663 319.589 65.4667 317.459 63.8567C323.041 67.0319 322.367 65.9146 326.881 68.8242L327.11 68.0923C329.024 68.7426 331.382 70.6293 332.95 70.4847C334.257 70.5483 336.234 71.0269 338.651 71.7587C341.053 72.5159 343.9 73.5007 346.894 74.6274C352.921 76.8621 359.576 79.5624 365.334 81.3284C361.33 82.1263 371.019 82.7044 369.816 84.1994C370.889 84.082 372.594 84.5261 371.376 83.4164C373.734 84.8179 375.863 85.5788 377.662 86.3685C378.566 86.7602 379.39 87.1384 380.117 87.605C380.837 88.0843 381.467 88.6329 381.951 89.3334C383.081 89.2676 381.666 88.2391 382.51 88.2854C382.798 88.5819 383.649 89.4263 384.499 89.4983C385.346 89.5575 384.234 88.7999 383.654 88.2326C388.755 91.0457 387.423 92.4245 386.083 93.6182C387.697 94.0869 388.807 94.5125 389.561 95.0368C390.295 95.5673 390.715 96.1906 390.971 97.0166C392.368 97.2087 394.396 97.758 391.672 95.8487C392.099 96.0953 393.022 96.5574 394.076 97.1804C395.13 97.8033 396.378 98.5367 397.499 99.2879C398.602 100.052 399.605 100.808 400.239 101.414C400.855 102.033 401.094 102.514 400.728 102.696C401.578 102.889 402.894 104.198 403.04 104.576C406.195 107.108 406.629 107.298 409.13 109.996L408.13 109.329C407.551 110.141 407.933 110.706 408.702 111.365C409.5 112.011 410.54 112.787 411.302 113.905L411.481 113.798C411.845 114.095 412.17 114.367 412.444 114.612C412.698 114.863 412.925 115.095 413.122 115.301C413.518 115.714 413.793 116.042 413.995 116.306C414.391 116.839 414.513 117.128 414.57 117.422C414.639 117.716 414.715 117.998 415.067 118.531C415.419 119.064 416.138 119.824 417.152 121.149L415.486 120.929C414.709 121.087 414.554 121.443 414.764 121.937C414.862 122.181 415.07 122.463 415.308 122.779C415.513 123.093 415.781 123.434 416.067 123.807C417.293 125.268 418.501 127.188 417.894 128.664C417.635 128.272 417.276 127.872 416.931 127.486C416.809 127.683 416.791 127.9 416.859 128.149C416.902 128.392 417.019 128.662 417.194 128.944C417.556 129.516 418.16 130.173 418.804 130.856C419.369 131.531 419.976 132.239 420.449 132.895C420.679 133.223 420.886 133.544 421.019 133.832C421.13 134.121 421.177 134.377 421.161 134.6C421.299 135.029 421.883 134.115 422.194 133.608C422.492 136.087 421.827 136.132 421.044 135.946C420.636 135.852 420.161 135.714 419.689 135.786C419.229 135.864 418.715 136.147 418.194 136.889C418.974 137.752 421.37 136.83 420.421 139.061C420.472 139.694 418.701 141.03 416.549 142.369C414.476 143.76 412.098 145.155 411.543 146.739C411.451 145.876 411.305 145.051 409.351 145.952C408.075 146.731 407.185 148.21 405.817 149.461C405.184 150.112 404.396 150.673 403.516 151.099C402.647 151.524 401.66 151.796 400.506 151.772C400.31 152.057 400.323 152.23 400.462 152.34C399.766 152.512 398.957 152.798 398 153.057C397.044 153.322 396.018 153.612 395.006 153.871C392.912 154.336 390.917 154.719 389.71 154.541C390.235 156.321 385.768 157.229 381.567 157.623C379.477 157.858 377.433 157.979 376.075 158.253C374.699 158.502 373.984 158.891 374.514 159.598C371.608 160.011 368.651 160.314 365.694 160.58L366.096 160.852C363.322 161.227 361.312 161.272 359.721 161.129C358.131 160.992 356.964 160.719 355.81 160.415C354.593 160.684 355.67 160.905 355.852 161.053C353.836 161.321 352.253 161.491 350.9 161.581C349.55 161.683 348.43 161.704 347.334 161.655C345.145 161.564 343.024 161.199 339.316 160.467L338.864 161.42C337.826 161.142 334.907 161.504 331.139 161.723C327.374 161.949 322.783 162.032 318.57 161.29C318.665 161.399 318.871 161.593 319.55 161.759C317.182 161.372 314.644 161.284 312.093 161.311C309.547 161.318 306.983 161.415 304.579 161.462C299.793 161.55 295.656 161.293 293.829 159.469C291.769 159.047 289.708 158.581 287.663 158.133C295.538 158.509 286.403 156.545 289.612 156.243C286.527 155.792 281.68 156.627 285.484 157.11L286.074 156.988C286.82 157.927 284.368 157.917 281.765 157.751C279.164 157.592 276.409 157.349 276.522 157.969C260.944 156.396 245.632 155.362 230.98 153.128L232.905 152.042L227.824 151.323C226.434 151.399 225.814 152.095 229.462 152.609C227.384 153.093 223.512 150.943 223.488 150.649C216.279 149.986 225.898 152.689 223.729 152.35L220.789 151.747L221.487 151.702C219.216 150.742 219.152 150.142 214.798 149.404C211.99 149.166 213.169 149.969 212.068 149.818C212.05 149.914 211.672 149.891 210.4 149.553C208.262 149.207 206.129 148.797 203.993 148.419L206.864 147.879C204.213 146.806 200.898 146.755 204.188 146.149C201.756 146.655 195.803 145.583 190.134 144.348C187.312 143.695 184.546 143.049 182.318 142.53C180.097 141.998 178.409 141.618 177.693 141.598C174.151 139.943 170.38 138.975 165.636 137.844C166.917 137.933 168.199 137.013 164.12 136.08C164.213 137.435 162.242 137.179 159.712 136.676C158.442 136.428 157.045 136.115 155.689 135.91C154.342 135.699 153.052 135.578 151.984 135.753C153.767 135.636 150.954 134.735 148.406 133.842C145.84 132.962 143.579 132.002 146.321 131.952C142.913 131.115 145.558 132.73 142.69 132.472C140.868 131.638 138.845 130.948 136.712 130.257C134.579 129.566 132.309 128.932 129.971 128.29C125.324 126.956 120.347 125.613 115.777 123.711C115.885 123.38 117.841 123.539 116.196 122.387C114.133 122.24 112.038 122.092 109.974 121.9C108.257 121.047 109.823 119.683 105.548 119.317C106.247 119.272 107.289 119.206 106.154 118.646C96.496 115.719 87.7672 111.537 79.2569 107.274C70.6919 103.01 62.4119 98.6283 52.7467 94.9863C55.6392 95.8184 54.2656 94.9434 52.6596 93.9768C53.9033 94.493 53.5722 93.4302 54.3038 93.2648C51.5999 92.2813 49.0218 91.1969 46.3646 90.1436C46.4379 89.7677 46.0647 89.3173 45.4508 88.8262C45.2974 88.7034 45.133 88.5806 44.9559 88.4512C44.7263 88.2894 44.4823 88.1147 44.24 87.9464C43.6833 87.5453 43.1906 87.1384 42.7291 86.7254C41.8298 85.906 41.1191 85.0566 40.8001 84.2811C40.4701 83.5055 40.5532 82.8424 41.0424 82.63C41.1001 83.5307 41.4468 84.2873 41.8725 85.0127C41.8956 84.2086 42.5209 84.055 43.2807 84.1963C44.0405 84.3377 45.0454 84.6984 46.1006 85.0022C47.1667 85.3061 48.3141 85.5469 49.251 85.575C49.7477 85.5926 50.103 85.5321 50.5276 85.4851C50.9286 85.4315 51.2499 85.3261 51.4772 85.1559C51.9733 86.5459 54.623 87.3693 57.3649 88.3723C60.1271 89.3691 63.0721 90.4762 64.2339 92.6706C65.7373 93.0553 63.9628 91.7487 65.0052 91.8034C65.3629 93.0453 66.7866 93.9846 70.0241 95.3243L69.9082 95.0168C77.8542 99.4977 82.2287 100.797 92.3497 104.871L90.7915 105.214C92.9946 106.084 93.6926 106.078 94.8707 106.351C96.0169 108.488 88.9414 103.709 89.7149 105.842C90.8462 105.821 92.3237 106.231 93.9788 106.853C95.6506 107.457 97.5151 108.247 99.3542 109.024C100.269 109.416 101.181 109.795 102.063 110.148C102.964 110.489 103.822 110.791 104.632 111.035C106.239 111.522 107.62 111.778 108.535 111.564C111.866 112.923 106.695 111.993 110.034 113.346L111.395 113.244L111.664 114.16C113.993 114.929 115.663 114.798 116.124 114.439C115.543 114.274 114.709 113.736 114.17 113.482C115.876 113.766 117.82 114.608 119.537 115.378C121.262 116.135 122.702 116.851 123.285 116.946L119.734 116.025C128.653 119.979 140.806 123.281 149.593 127.112L148.628 127.263C152.017 128.719 153.573 129.014 155.209 129.324C156.854 129.627 158.597 129.924 162.555 131.182L162.311 131.007C163.713 131.825 165.758 132.636 168.014 133.175C166.207 132.193 172.355 133.299 169.921 132.101C177.552 134.932 173.539 133.758 178.21 136.515L179.755 136.166C181.311 137.19 181.315 137.567 185.394 138.704C182.235 137.371 188.468 138.305 184.984 136.702C189.623 136.957 192.637 138.077 195.18 138.912C197.715 139.754 199.702 140.392 202.065 139.751C205.439 142.445 194.168 139.171 196.272 140.04C194.161 140.237 199.087 142.123 201.917 142.52C203.331 142.776 204.734 142.426 206.636 142.182C208.547 141.932 210.946 141.828 214.468 142.481C213.768 142.359 213.761 142.212 213.062 142.091C215.817 142.092 218.045 143.702 221.487 143.493C223.038 144.944 225.709 144.146 225.907 145.687L219.479 144.233C221.269 144.748 222.932 145.562 224.946 146.297C226.959 147.031 229.315 147.66 232.466 147.709C232.039 147.341 230.304 146.667 229.099 146.253C230.972 146.105 232.482 147.077 234.41 146.93C234.277 146.156 232.313 145.767 229.915 145.348C227.526 144.923 224.694 144.437 222.858 143.551C224.889 143.257 230.068 145.873 228.425 143.962C229.627 145.212 231.396 145.407 233.405 145.599C235.421 145.778 237.661 145.978 239.951 147.085L239.765 146.158C240.5 146.407 242.018 147.048 243.422 147.227L241.057 145.717C242.925 146.482 244.821 146.538 246.701 146.537C248.578 146.523 250.443 146.426 252.277 146.942C244.493 145.89 250.415 147.779 247.028 147.989C256.589 150.437 252.81 146.449 263.513 148.147C262.065 147.846 258.015 148.031 260.267 148.716C262.336 148.768 265.059 148.769 266.332 148.423C273.464 149.366 265.205 149.23 268.229 150.101C270.692 149.263 271.732 150.927 274.897 151.595L274.924 150.683C283.083 150.857 277.126 152.804 284.494 152.76C283.44 152.258 282.379 151.731 281.331 151.21C282.608 151.446 283.893 151.669 285.172 151.873L284.337 150.767C288.529 151.873 289.834 151.809 293.878 151.803C292.984 152.382 294.546 153.507 298.187 153.791C300.61 153.412 296.723 152.826 301.859 153.303C300.636 152.659 299.3 151.842 297.159 152.537C296.899 152.221 295.965 151.88 295.705 151.565C298.286 151.124 302.328 151.884 304.181 151.985C303.48 151.978 302.627 151.976 302.207 152.081L309.785 153.788C310.902 153.511 309.937 153.176 308.985 152.848C310.502 153.041 311.599 153.499 313.823 153.679C313.131 152.9 313.143 152.134 309.991 151.638L317.147 152.792C317.57 152.496 320.586 152.046 319.615 151.73C323.385 151.441 329.391 153.516 334.283 152.969C334.586 153.119 335.148 153.258 336.239 153.371C340.93 153.212 344.659 152.245 350.446 153.028C351.261 152.525 352.067 152.029 352.85 151.526C354.951 151.533 354.176 152.024 353.721 152.524C353.275 153.017 353.147 153.514 356.768 153.523C361.887 153.534 357.959 152.226 359.437 151.71C360.81 151.934 362.712 152.259 364.763 152.323C365.773 152.339 366.823 152.298 367.83 152.142C368.821 151.966 369.772 151.682 370.604 151.243C369.022 151.215 368.123 151.608 366.724 151.691L366.668 151.767ZM403.445 136.441C402.723 136.804 401.048 137.363 401.583 138.006C403.723 138.116 403.261 137.378 403.445 136.441ZM378.415 94.7321C378.717 95.284 379.867 95.6972 381.318 96.0877C380.635 95.5832 379.659 95.127 378.415 94.7321ZM149.09 38.4755C149.09 38.4755 149.184 38.502 149.222 38.5215C151.585 38.1228 150.753 38.2808 149.09 38.4755ZM144.102 39.0342C143.537 38.9266 143.525 38.7988 143.684 38.6599C144.137 38.8813 145.287 38.8476 146.579 38.7323C146.31 38.9915 145.717 39.1837 144.104 39.0406L144.102 39.0342ZM211.538 149.437L212.597 149.389C210.415 148.717 210.979 149.067 211.538 149.437Z" fill="#3435FF"/>
<path d="M384.265 99.7292C384.67 99.7714 384.936 99.7037 385.189 99.6296C385.32 99.9117 385.11 100.025 384.265 99.7292Z" fill="#3435FF"/>
<path d="M334.394 153.041C334.341 153.047 334.285 153.04 334.233 153.052C334.13 152.994 334.06 152.936 334.024 152.884L334.396 153.048L334.394 153.041Z" fill="#3435FF"/>
<path d="M223.983 51.1369C225.025 51.1469 225.616 51.0696 226.022 50.9522C226.051 51.1823 225.558 51.2989 223.983 51.1369Z" fill="#3435FF"/>
<path d="M116.176 39.455C117.339 39.3895 118.495 39.3368 119.643 39.2967C118.016 39.4279 117.565 39.6981 116.856 39.9467C116.795 39.7226 117.227 39.3374 116.176 39.455Z" fill="#3435FF"/>
<path d="M96.5921 51.6524C96.1485 51.7503 95.9142 52.0161 95.496 52.127L94.9808 51.7582C96.321 50.9731 97.6952 50.7182 96.6031 51.6525L96.5921 51.6524Z" fill="#3435FF"/>
<path d="M115.232 42.8743C115.523 43.6687 113.387 43.6929 111.121 43.9648C111.257 43.9406 111.385 43.9291 111.506 43.8919C110.009 42.9647 112.638 42.8622 115.23 42.8679L115.232 42.8743Z" fill="#3435FF"/>
<path d="M110.605 44.0374C109.906 44.1201 109.219 44.2476 108.611 44.4269C108.002 44.0763 109.322 44.1464 110.605 44.0374Z" fill="#3435FF"/>
<path d="M137.38 38.7843C136.375 39.03 136.243 37.8158 135.772 38.1752C134.102 37.2144 143.601 39.0674 137.38 38.7843Z" fill="#3435FF"/>
<path d="M115.323 45.6342L115.388 44.5815C115.963 44.7658 116.552 44.9629 117.119 45.1599C116.514 45.3073 115.914 45.4739 115.325 45.6406L115.323 45.6342Z" fill="#3435FF"/>
<path d="M131.977 43.1177L128.582 43.6214C128.548 43.4551 128.052 43.3993 127.466 43.3745C129.617 43.1653 131.921 42.8299 131.977 43.1177Z" fill="#3435FF"/>
<path d="M127.467 43.3737C126.349 43.4843 125.266 43.5633 124.553 43.4735C125.162 43.4219 126.494 43.3325 127.467 43.3737Z" fill="#3435FF"/>
<path d="M120.109 45.252L120.983 44.9284L123.362 44.5873C122.273 44.8067 121.17 45.0132 120.109 45.252Z" fill="#3435FF"/>
<path d="M170.652 42.1048L174.711 42.5203C175.175 42.8631 174.137 43.0255 172.623 42.845C171.622 42.5801 170.11 42.406 170.652 42.1048Z" fill="#3435FF"/>
<path d="M159.411 44.5743C160.408 44.3796 160.417 44.169 160.924 43.8611L161.388 45.0529L159.411 44.5743Z" fill="#3435FF"/>
<path d="M170.871 44.9964C171.346 45.3393 176.746 46.1444 171.78 45.8925C171.312 45.5369 167.33 45.1604 170.871 44.9964Z" fill="#3435FF"/>
<path d="M230.524 48.8316L229.508 48.6751L229.942 46.8024L230.524 48.8316Z" fill="#3435FF"/>
<path d="M280.736 63.3322C276.052 62.7064 280.161 61.9733 275.85 61.5553C274.969 60.883 279.377 61.902 278.454 61.2803C280.99 62.3707 282.522 62.4556 280.736 63.3322Z" fill="#3435FF"/>
<path d="M278.454 61.2724C278.045 61.0962 277.622 60.907 277.176 60.6729C277.925 60.9737 278.255 61.1429 278.454 61.2724Z" fill="#3435FF"/>
<path d="M39.8869 87.1182C38.7614 86.2712 37.7519 85.3678 36.8964 84.185C37.6596 84.9456 38.484 85.528 39.3401 86.0661C39.501 86.4187 39.6729 86.7715 39.8886 87.1246L39.8869 87.1182Z" fill="#3435FF"/>
<path d="M39.783 80.5442C39.239 80.0283 38.9754 79.3364 38.8323 78.6455C39.82 78.2145 40.919 77.9123 42.0151 77.8015C42.2914 77.7722 42.5568 77.7428 42.8366 77.7264C43.0962 77.7161 43.3391 77.7248 43.5819 77.7335C44.066 77.7445 44.5442 77.7747 45.0057 77.8238C44.5465 77.8641 43.9644 77.9351 43.3708 78.0443C42.742 78.1851 42.0353 78.4018 41.4774 78.6837C40.2826 79.2787 39.7455 80.1226 39.7974 80.5571L39.783 80.5442Z" fill="#3435FF"/>
<path d="M401.416 131.722L401.957 131.74C402.462 132.07 402.324 132.369 402.097 132.986C401.87 132.549 401.693 132.139 401.416 131.722Z" fill="#3435FF"/>
<path d="M384.173 146.457L384.623 146.264L384.954 147.569L384.173 146.457Z" fill="#3435FF"/>
<path d="M356.177 150.403C357.345 150.235 358.938 150.384 360.077 150.191C357.386 150.267 356.581 151.817 356.177 150.403Z" fill="#3435FF"/>
</g>
<defs>
<clipPath id="clip0_600_3268">
<rect width="372.845" height="127.604" fill="white" transform="matrix(0.999954 0.00958848 -0.261002 -0.965338 57.2209 159.357)"/>
</clipPath>
</defs>
</svg>
