<svg width="96" height="94" viewBox="0 0 96 94" fill="none" xmlns="http://www.w3.org/2000/svg">
<path d="M8.05234 71.4901C7.42879 59.5635 6.67689 47.6368 6.19089 35.701C6.01666 31.4975 6.03499 27.0751 6.80525 23.1816C7.57552 19.2881 8.93266 15.8141 11.7937 13.1789C15.269 9.9784 20.7434 9.21247 25.4934 8.5286C31.408 7.67148 37.35 7.04233 43.3012 6.60465C49.2525 6.16697 55.2679 5.9299 61.265 5.89343C65.8591 5.86607 70.7007 5.86607 74.9739 6.65024C78.9628 7.38882 82.7774 8.66538 85.5008 11.3006C88.7745 14.4646 89.5539 19.2608 89.6365 23.902C89.7465 29.7832 89.5631 35.6736 89.5172 41.5549L89.3614 59.7094C89.3156 64.9159 89.7741 70.4871 88.4444 75.5751C87.289 80.0066 83.9604 83.6448 80.1091 86.0611C78.321 87.1826 76.221 88.0945 74.2953 88.1948C71.3976 88.3498 68.4816 88.3315 65.5748 88.3133C60.1279 88.2768 54.681 88.058 49.225 88.0033C39.4774 87.903 29.7391 88.8239 19.9915 88.4136C19.5422 88.3954 19.0929 88.3771 18.6436 88.3407C18.396 88.3224 18.1483 88.3133 17.9099 88.286C17.3231 88.2312 17.6165 88.2586 17.7449 88.2768C17.2772 88.213 16.8004 88.1036 16.3419 87.9759C16.076 87.903 15.81 87.8209 15.5533 87.7297C15.4524 87.6933 14.7647 87.3924 15.2232 87.6112C14.8289 87.4288 14.4529 87.2282 14.0861 87.0094C13.9394 86.9182 13.8019 86.827 13.6552 86.7359C13.6827 86.7541 13.0316 86.2708 13.325 86.5079C12.9949 86.2435 12.1329 85.3864 11.6561 84.8028C11.9495 85.1675 11.6836 84.8301 11.6286 84.7572C11.4819 84.5566 11.3443 84.3469 11.2068 84.1372C10.9775 83.7815 10.7666 83.4168 10.5649 83.043C10.3815 82.7056 10.2164 82.3591 10.0514 82.0126C9.99634 81.9032 9.79464 81.3834 9.96886 81.8394C9.868 81.6023 9.77631 81.3561 9.69378 81.1099C9.09774 79.4595 8.69425 77.7544 8.41916 76.031C8.37331 75.7757 8.33662 75.5204 8.29994 75.256C8.31828 75.3745 8.35496 75.7575 8.29994 75.2104C8.2541 74.7909 8.20823 74.3624 8.17155 73.9429C8.09819 73.1314 8.05237 72.3108 8.02486 71.4993C7.89648 67.9887 2.39457 67.9705 2.52295 71.4993C2.79805 78.9489 4.6045 88.1948 11.8579 92.0609C15.9659 94.2493 20.881 93.9849 25.4017 93.994C30.3168 93.994 35.2135 93.7934 40.1193 93.5928C45.8505 93.3648 51.5816 93.5016 57.3127 93.6384C60.2746 93.7113 63.2365 93.7751 66.1984 93.7934C69.1602 93.8116 72.2964 93.9393 75.2766 93.5837C80.7234 92.9545 85.6201 89.4713 89.1322 85.4319C91.0028 83.2892 92.4792 80.9731 93.3778 78.265C94.2765 75.5569 94.5515 72.9126 94.689 70.2045C95.0192 64.004 94.8633 57.758 94.9183 51.5485L95.0834 32.4914C95.1293 26.6739 95.7162 20.3823 93.8639 14.7564C92.3141 10.0422 88.9854 6.25816 84.5289 4.0333C80.0724 1.80845 75.3499 1.00604 70.5357 0.641312C64.8412 0.212754 59.0734 0.395119 53.3789 0.595721C47.015 0.823677 40.6603 1.27047 34.324 1.95434C31.0962 2.30083 27.8867 2.71116 24.6681 3.16707C21.7613 3.57739 18.827 3.97859 16.0026 4.83571C11.0601 6.34022 6.86028 9.34924 4.29273 13.8628C1.9269 18.0298 1.02823 22.8443 0.707284 27.5766C0.34966 32.692 0.753158 37.8164 1.01908 42.9226L2.01862 62.0527L2.51377 71.5084C2.58713 72.9855 3.72419 74.2438 5.26473 74.2438C6.69522 74.2438 8.08904 72.9946 8.01568 71.5084L8.05234 71.4901Z" fill="#FF8200"/>
<path d="M42.6796 62.316C36.5817 59.8084 33.5373 52.4409 33.7115 46.1949C33.8857 39.9489 37.5812 33.1467 43.7892 30.8762C46.8886 29.7364 50.0063 29.4903 53.0599 30.3474C56.1134 31.2045 58.7726 33.3655 60.6433 36.0827C62.7982 39.2194 64.2837 42.9123 65.0082 46.6417C65.7326 50.3711 64.9715 53.7174 62.7157 56.4256C60.0473 59.6261 56.2601 61.3585 52.1887 62.1701C50.0246 62.5986 47.7781 62.7719 45.5773 62.6989C44.5961 62.6625 44.1835 62.626 43.2757 62.3524C42.6888 62.1792 42.0744 61.8418 41.836 61.4862C40.9924 60.2735 39.4243 59.7173 38.0763 60.5014C36.8659 61.2035 36.2424 63.0272 37.086 64.2399C39.947 68.3431 45.2013 68.4343 49.7404 67.9966C54.848 67.5042 59.8089 66.0453 63.8895 62.8631C67.5666 59.9908 70.0974 55.8967 70.6476 51.2646C71.2345 46.2952 69.5106 41.1343 67.3557 36.7119C65.375 32.6452 62.3581 28.8429 58.3234 26.6271C54.2887 24.4114 49.9788 23.9919 45.6414 24.7123C36.7192 26.1986 30.0527 33.6755 28.5947 42.4017C26.9075 52.4865 31.3274 63.5196 41.2124 67.5863C42.5879 68.1516 44.2385 66.9754 44.5961 65.6715C45.0271 64.1031 44.0551 62.8722 42.6704 62.3068L42.6796 62.316Z" fill="#FF8200"/>
<path d="M71.795 21.6861L71.7216 21.7226L72.3818 21.449C72.1984 21.522 72.0151 21.5767 71.8133 21.604L72.5469 21.5037C72.3177 21.5311 72.0975 21.5311 71.8683 21.5037L72.6019 21.604C72.3727 21.5676 72.1618 21.5037 71.9509 21.4126L72.6111 21.6861C72.4277 21.604 72.2626 21.5037 72.0975 21.3852L72.657 21.8138C72.5011 21.6952 72.3635 21.5584 72.2351 21.4034L72.666 21.9597C72.5468 21.8046 72.446 21.6405 72.3635 21.4582L72.6386 22.1147L72.6111 22.0326L72.3359 24.1389C72.5193 23.838 72.7119 23.5553 72.9228 23.2818L72.4919 23.838C72.8128 23.4277 73.1704 23.063 73.583 22.7347L73.0237 23.1633C73.3263 22.9353 73.6381 22.7438 73.9866 22.5888L73.3264 22.8624C73.629 22.7347 73.9316 22.6435 74.2525 22.5979L73.5189 22.6982C73.8123 22.6618 74.1057 22.6709 74.3992 22.7074L73.6656 22.607C73.9591 22.6526 74.2341 22.7347 74.5092 22.8441L73.849 22.5706C74.0599 22.6618 74.2525 22.7803 74.4451 22.9171L73.8857 22.4885C74.0691 22.6253 74.225 22.7803 74.3626 22.9535L73.9315 22.3973C74.0507 22.5523 74.1425 22.7256 74.225 22.908L73.9498 22.2514C74.0049 22.3882 74.0416 22.5159 74.0691 22.6618L73.9682 21.9323C73.9865 22.0964 73.9957 22.2606 73.9682 22.4247L74.0691 21.6952C74.0416 21.8594 73.9957 22.0144 73.9407 22.1785L74.2158 21.522C74.1333 21.7043 74.0416 21.8685 73.9224 22.0326L74.3534 21.4764C74.2342 21.6314 74.0966 21.7682 73.9407 21.8958L74.5 21.4673C74.3441 21.5858 74.1883 21.677 74.0049 21.7591L74.6651 21.4855C74.5367 21.5311 74.4175 21.5676 74.2799 21.5858L75.0136 21.4855C74.8852 21.5037 74.7568 21.5037 74.6192 21.4855L75.3529 21.5858C75.2153 21.5676 75.0961 21.5311 74.9677 21.4764L75.628 21.7499L75.5546 21.7135C74.8852 21.3852 74.1792 21.2302 73.4364 21.4399C72.7945 21.6132 72.1067 22.1055 71.795 22.6982C71.4557 23.3365 71.2906 24.1024 71.5198 24.8045C71.7307 25.4519 72.1434 26.1267 72.7853 26.4367C73.4547 26.765 74.0691 26.9747 74.8302 26.9656C75.5913 26.9565 76.2424 26.765 76.9026 26.4276C77.7646 25.9899 78.544 25.1875 78.9567 24.3213C79.2959 23.6192 79.461 23.0447 79.4977 22.2606C79.5343 21.4764 79.2959 20.829 78.9841 20.1451C78.5806 19.2515 77.7829 18.4856 76.9392 18.0023C75.0411 16.9081 72.7394 16.9993 70.8504 18.0388C70.0527 18.4765 69.31 19.0965 68.7323 19.7986C68.3838 20.2181 68.0445 20.6557 67.751 21.1117C67.4301 21.6132 67.2375 22.1603 67.21 22.7529C67.1825 23.3456 67.4393 23.9383 67.7328 24.4398C68.393 25.5796 69.5025 26.3638 70.7496 26.7741C71.2723 26.9382 71.8592 27.0294 72.4002 26.9929C73.2622 26.9382 73.8307 26.765 74.601 26.4094C75.1879 26.1358 75.7014 25.379 75.8664 24.7772C76.0498 24.1207 75.9673 23.2544 75.5913 22.6709C75.2153 22.0873 74.6468 21.5767 73.9498 21.4126C73.1888 21.2393 72.5377 21.367 71.8317 21.6861H71.795Z" fill="#FF8200"/>
</svg>
