<svg width="91" height="90" viewBox="0 0 91 90" fill="none" xmlns="http://www.w3.org/2000/svg">
<path d="M3.31762 32.7369C3.69358 50.7546 2.72158 68.7905 0.401613 86.6714C0.227386 88.03 1.81377 89.5619 3.15257 89.4069L24.3533 86.8993C25.9671 86.7078 26.9208 85.7869 27.1042 84.1639C28.1862 74.4711 28.9015 64.742 29.2316 55.0037C29.3966 50.1345 29.47 45.2563 29.4517 40.378C29.4425 38.1805 29.6442 35.7459 28.5897 33.7308C27.4068 31.4877 25.0593 30.8585 22.6843 30.8494C17.1457 30.813 11.598 30.8677 6.05021 30.8677C2.51065 30.8677 2.50148 36.3477 6.05021 36.3386L19.5391 36.3204C20.6486 36.3204 21.7582 36.3021 22.8677 36.3204C23.1337 36.3204 23.583 36.293 23.7664 36.3751C23.6013 36.3021 23.7664 36.2383 23.8122 36.4572C23.9131 36.8675 23.9314 37.4237 23.9406 38.1258C23.9589 39.3294 23.9589 40.5239 23.9589 41.7275C23.9681 50.8002 23.6472 59.8728 23.0053 68.9273C22.6477 74.0152 22.1708 79.0941 21.6114 84.1639L24.3624 81.4284L3.16172 83.9359L5.91267 86.6714C8.23264 68.7905 9.20464 50.7637 8.82868 32.7369C8.75532 29.2173 3.25341 29.2081 3.32677 32.7369H3.31762Z" fill="#FF8200"/>
<path d="M16.5627 19.0877C15.7558 19.2245 17.0762 19.106 16.2601 19.1151C16.0859 19.1151 15.9116 19.1333 15.7466 19.1242C15.4898 19.1242 15.2331 19.1059 14.9763 19.0877C15.4715 19.1333 15.0497 19.1059 14.9396 19.0786C14.5178 18.9874 14.1052 18.8962 13.6926 18.7595C13.6467 18.7412 12.8673 18.4312 13.3899 18.6592C13.1515 18.5497 12.9223 18.4403 12.693 18.3127C11.2625 17.5376 10.263 16.562 9.50193 15.1577C9.52027 15.1942 9.1443 14.4465 9.30019 14.793C9.45608 15.1395 9.1443 14.3736 9.15347 14.4101C9.01592 13.9997 8.91505 13.5894 8.83252 13.17C8.93338 13.6897 8.83254 13.1426 8.82337 13.0058C8.80503 12.787 8.80501 12.5682 8.80501 12.3493C8.80501 12.1305 8.82336 11.9116 8.8417 11.6928C8.86003 11.4922 8.86003 11.5196 8.83252 11.7658C8.86003 11.5925 8.89672 11.4193 8.9334 11.2551C9.03427 10.8266 9.16264 10.4071 9.3277 10.0059C9.16264 10.4163 9.3277 10.0059 9.36438 9.93299C9.49276 9.69591 9.6028 9.46796 9.74035 9.24C9.83205 9.08499 9.92375 8.9391 10.0246 8.79321C10.043 8.77497 10.5656 8.0911 10.2264 8.50142C10.5656 8.0911 10.9324 7.70813 11.3267 7.36164C11.4551 7.2431 11.5926 7.12457 11.7302 7.02427C11.3084 7.35252 12.0145 6.85102 12.0328 6.83278C12.3996 6.59571 12.7939 6.38599 13.1882 6.1945C13.0782 6.24921 12.7481 6.3404 13.2616 6.16715C13.5092 6.08509 13.7567 5.9939 14.0135 5.93008C14.1877 5.88448 14.3528 5.84801 14.527 5.81154C14.8571 5.75683 14.8755 5.74771 14.582 5.78418C14.7104 5.76595 14.8479 5.75683 14.9763 5.75683C15.3798 5.72947 15.7649 5.75683 16.1684 5.77506C16.9753 5.82066 15.7008 5.62917 16.4802 5.82977C16.6544 5.87537 16.8195 5.90272 16.9937 5.94831C17.2505 6.01214 17.498 6.10332 17.7456 6.18539C18.25 6.3404 17.9474 6.25833 17.8282 6.20362C18.3142 6.41334 18.7818 6.67777 19.222 6.96956C19.2403 6.97867 19.9372 7.49841 19.5246 7.17016C19.6621 7.27958 19.7997 7.39811 19.928 7.51665C20.2582 7.80843 20.5608 8.13669 20.8542 8.46495C21.3861 9.05764 20.6433 8.07287 21.0651 8.74762C21.1568 8.89351 21.2577 9.0394 21.3494 9.18529C21.4869 9.41325 21.6061 9.6412 21.7345 9.87828C22.0096 10.3524 21.6886 9.62297 21.872 10.1883C22.0096 10.6077 22.1196 11.0181 22.2205 11.4557C22.4131 12.249 22.2205 11.164 22.248 11.629C22.2572 11.8387 22.2755 12.0484 22.2664 12.2581C22.2572 12.4679 22.248 12.6685 22.2297 12.8782C22.193 13.3341 22.4039 12.2673 22.2022 13.0058C22.0738 13.4891 21.9638 13.9633 21.7712 14.4283C21.9546 13.9815 21.7895 14.3827 21.7437 14.4556C21.5786 14.7474 21.4319 15.0483 21.2485 15.331C21.1568 15.4769 21.0651 15.6137 20.9642 15.7504C20.7808 16.0057 20.7625 16.024 20.9275 15.796C20.845 15.8963 20.7625 15.9875 20.68 16.0787C20.3682 16.4252 20.0289 16.7352 19.6805 17.0361C19.1028 17.5467 20.0931 16.8173 19.442 17.2094C19.2311 17.337 19.0294 17.4829 18.8093 17.6014C18.5892 17.72 18.3692 17.8294 18.1491 17.9388C18.5801 17.7291 18.0574 17.9753 17.8923 18.0209C17.6998 18.0847 17.5072 18.1394 17.3055 18.1941C17.1679 18.2306 16.3243 18.34 16.9662 18.2853C16.4894 18.3309 16.0033 18.34 15.5173 18.2853C15.6641 18.3035 15.9942 18.413 15.5173 18.258C15.1964 18.1577 14.8754 18.0847 14.5637 17.9662C13.1699 17.4555 11.5468 18.5406 11.18 19.881C10.7582 21.4129 11.7027 22.7259 13.1057 23.2456C18.0666 25.0784 23.5226 22.1423 26.1085 17.875C28.9145 13.2338 27.8325 7.37988 23.8894 3.74169C19.9464 0.103512 13.7934 -0.890378 9.11681 2.20071C4.44019 5.2918 2.01017 10.8266 3.87165 16.0149C5.94404 21.7958 11.9044 25.4249 18.0024 24.4037C19.4695 24.1575 20.2857 22.3612 19.928 21.039C19.4971 19.498 18.0115 18.878 16.5444 19.1242L16.5627 19.0877Z" fill="#FF8200"/>
<path d="M32.4341 32.748L33.021 60.8961L33.3144 74.9746L33.4611 82.0139C33.5069 84.3026 33.3236 86.9378 35.6619 88.2143C36.8356 88.8526 38.1286 88.6794 39.394 88.57L43.2728 88.2143L51.4799 87.4666C53.3138 87.3025 54.5426 85.8527 54.13 84.0017C51.6266 72.7407 48.8664 58.3429 58.8066 49.9724C60.2462 48.7597 62.9147 47.0272 65.0237 47.2916C65.794 47.3919 66.2342 48.1761 66.6376 48.9967C67.3529 50.4192 67.8939 51.9328 68.3616 53.4464C70.1864 59.4554 70.4064 65.7561 70.5257 71.993C70.5807 75.2117 70.6082 78.4305 70.7549 81.6401C70.8283 83.1264 70.8374 84.64 71.6994 85.9165C72.9373 87.7584 75.0647 87.8678 77.0821 87.877L82.0705 87.9134C83.9961 87.9226 86.1236 88.1687 87.8933 87.2296C91.0936 85.5427 90.7818 81.3757 90.8552 78.321C91.0202 71.227 90.6718 64.133 89.819 57.0846C89.0304 50.6289 88.4252 43.2887 84.7114 37.7175C81.0159 32.1644 74.4412 28.581 67.7013 28.7725C60.9615 28.9639 54.5884 32.7298 51.1222 38.4834L55.4412 37.9272C55.0928 37.6354 55.3954 38.1187 55.3496 37.9089C55.267 37.5351 55.4504 38.3649 55.377 37.9637C55.322 37.6536 55.3495 38.4378 55.3587 37.8998C55.3587 37.7357 55.3587 37.5716 55.3587 37.4074C55.377 36.6324 55.5054 35.8665 55.5513 35.1005C55.6705 32.9668 54.9186 30.7511 52.8737 29.7481C51.6083 29.1281 50.2603 29.1098 48.8757 29.1098H36.2762C32.7367 29.1281 32.7275 34.599 36.2762 34.5899H47.7294C48.3438 34.5808 48.949 34.5717 49.5634 34.5808C49.6276 34.5808 50.2694 34.6264 50.2786 34.599C50.2694 34.6173 50.2419 34.4805 50.2052 34.4987C50.2052 34.4987 49.8568 34.0793 50.0677 34.3346C50.2878 34.6081 49.9301 33.9516 50.031 34.289C50.141 34.6537 50.031 33.8422 50.031 34.2434C50.031 34.4075 50.0402 34.5625 50.0402 34.7267C50.0402 35.4561 49.9118 36.1765 49.866 36.9059C49.7376 38.6658 50.0952 40.6171 51.5349 41.8024C52.892 42.924 54.8819 42.8693 55.8539 41.2462C58.4031 37.0154 63.1714 34.2708 68.0314 34.2343C72.8914 34.1978 77.5589 36.7145 80.1356 40.763C81.7037 43.234 82.4648 46.0607 83.0242 48.8964C83.6477 52.0331 84.097 55.2245 84.4547 58.3977C85.2341 65.3002 85.5184 72.2574 85.3166 79.1964C85.2983 79.935 85.2707 80.6736 85.2341 81.4121C85.2341 81.3665 85.1515 82.3513 85.2157 81.9045L85.1607 82.2054C85.0415 82.5246 85.0415 82.5884 85.1607 82.3969C85.2432 82.789 84.8031 82.5884 85.2616 82.4516C85.8576 82.2692 84.904 82.4334 85.0782 82.4334C84.0787 82.406 83.07 82.4334 82.0613 82.4334L77.0729 82.3969C76.7703 82.3969 75.5874 82.3969 75.5965 82.3513L76.266 82.8984C76.3302 82.9622 76.3485 83.0352 76.3301 83.1172C76.4677 82.9531 76.2568 81.8589 76.2476 81.6218C75.9542 75.467 76.1468 69.3031 75.6333 63.1574C75.3673 60.0389 74.9455 56.9023 74.1844 53.8659C73.4233 50.8295 72.4605 47.6381 70.7549 45.1124C66.7202 39.149 58.99 42.5045 54.6618 46.2886C50.1503 50.2368 47.4268 56.1546 46.5923 62.0085C45.4736 69.9049 47.1059 77.7466 48.8115 85.4333L51.4615 81.9683C47.1242 82.3604 42.796 82.7708 38.4587 83.1446C38.2569 83.1628 37.9635 83.1264 37.7709 83.1902C37.0098 83.4455 39.339 84.0838 38.9814 84.2023C39.0731 84.175 38.7613 85.0321 38.9814 84.02C39.0272 83.8193 38.9722 83.5367 38.963 83.3361L38.8897 79.935L38.7613 73.5795L38.2202 47.474L37.9177 32.7207C37.8443 29.201 32.3424 29.1919 32.4158 32.7207L32.4341 32.748Z" fill="#FF8200"/>
</svg>
