<svg width="313" height="1768" viewBox="0 0 313 1768" fill="none" xmlns="http://www.w3.org/2000/svg">
<g clip-path="url(#clip0_640_42)">
<path d="M124.752 1014.47C121.782 1011.05 120.385 1007.05 120.629 1002.45L119.739 1002.43C119.513 1004.08 119.588 1005.85 118.994 1007.35C118.071 1009.65 116.755 1011.8 115.479 1013.94C114.49 1015.6 112.765 1017.01 112.336 1018.77C111.417 1022.5 110.989 1026.38 110.655 1030.23C110.562 1031.33 111.612 1032.49 111.927 1033.68C112.314 1035.15 112.36 1036.7 112.76 1038.16C113.219 1039.86 113.9 1041.5 114.47 1043.13C118.643 1042.72 118.748 1043.08 117.275 1047.14C116.382 1049.6 115.148 1051.43 112.776 1052.52C111.404 1053.15 110.584 1053.95 111.258 1055.77C111.559 1056.59 111.12 1057.96 110.568 1058.77C109.345 1060.57 109.294 1062.13 110.298 1064.09C110.68 1064.84 109.809 1066.24 109.339 1067.97C110.846 1070.27 110.198 1072.46 107.201 1074.43C106.029 1075.2 105.398 1076.78 104.52 1078C105.898 1078.65 104.856 1081.96 107.987 1081.04C108.425 1080.91 110.22 1081.59 111.479 1081.73C112.803 1081.88 114.798 1082.65 113.231 1084.32C111.34 1086.34 110.56 1088.3 111.03 1090.95C111.121 1091.46 110.531 1092.09 111.05 1092.36C111.476 1093.21 112.47 1094.59 112.243 1094.83C109.715 1097.58 110.967 1100.6 111.773 1103.3C112.556 1105.93 111.83 1107.32 110.138 1108.21C109.001 1107.08 108.028 1106.11 107.646 1105.73C107.747 1103.49 107.81 1101.52 107.924 1099.56C108.039 1097.59 108.383 1095.6 108.271 1093.64C108.207 1092.45 107.629 1091.2 106.944 1090.21C106.749 1089.93 104.854 1090.23 104.628 1090.7C104.007 1091.97 103.546 1093.5 103.626 1094.89C103.682 1095.9 104.7 1096.86 105.422 1098.06C104.418 1098.64 103.533 1099.15 103.351 1099.26C102.942 1101.3 102.728 1102.82 102.321 1104.27C101.194 1108.34 100.693 1112.42 101.887 1116.58C101.007 1118.43 100.133 1120.28 98.8701 1122.94C100.846 1124.23 102.901 1125.98 105.267 1126.96C107.034 1127.69 107.613 1128.04 106.948 1130.07C106.029 1132.85 105.667 1135.83 105.019 1138.71C104.848 1139.49 104.507 1140.23 104.436 1140.42C102.606 1138.26 100.77 1136.09 98.9908 1133.99C97.208 1138.18 95.4872 1142.1 93.9134 1146.09C93.7465 1146.5 94.4864 1147.8 94.7661 1147.79C96.5015 1147.72 98.2201 1147.39 99.9436 1147.12C100.135 1147.09 100.344 1146.94 100.475 1146.78C101.306 1145.76 101.933 1144.44 102.981 1143.78C103.901 1143.19 105.283 1143.34 106.629 1143.14C106.744 1144.28 106.893 1145.79 107 1146.84C105.257 1148.29 103.693 1149.43 102.35 1150.78C101.862 1151.28 101.789 1152.28 101.727 1153.07C101.575 1154.93 101.551 1156.8 101.508 1157.77C101.573 1160.27 101.807 1161.86 101.61 1163.39C101.368 1165.26 100.975 1167.17 100.213 1168.87C99.8684 1169.64 98.379 1170.46 97.5498 1170.34C92.2072 1169.52 91.5662 1170 90.7297 1175.3C90.069 1179.51 88.7849 1183.64 88.3805 1187.87C87.9707 1192.08 88.301 1196.37 88.3188 1200.62C88.3281 1201.78 88.3954 1202.94 88.4647 1204.79C89.4942 1203.5 90.2963 1202.51 91.0983 1201.51C91.5416 1201.91 91.9848 1202.3 92.4335 1202.71C90.8356 1205.31 89.1414 1207.87 87.6815 1210.55C86.9915 1211.81 86.7473 1213.31 86.2979 1214.7C86.6427 1214.83 86.9884 1214.95 87.3396 1215.07C88.2119 1213.7 89.0771 1212.34 89.9487 1210.98C93.4254 1213.15 94.1222 1215.47 92.3912 1218.25C91.125 1220.27 87.5509 1220.41 83.2612 1218.42C80.2372 1221.53 83.585 1225.39 81.9635 1228.78C81.5665 1227.91 81.185 1227.06 80.743 1226.09C77.4811 1231.31 77.8709 1238.41 81.6508 1242.62C82.3679 1243.42 83.7029 1243.63 84.532 1244.37C85.3557 1245.1 86.2867 1246.09 86.4362 1247.07C86.5548 1247.86 85.5587 1248.81 85.0575 1249.68C84.3652 1249.12 83.441 1248.7 83.0231 1247.97C82.1516 1246.46 81.5535 1244.79 80.8363 1243.18L80.1256 1244.64C79.0114 1246.31 77.7518 1247.91 76.8247 1249.68C75.8724 1251.48 75.2398 1253.46 74.2914 1255.8C75.5119 1255.62 76.3434 1255.5 77.3865 1255.34C77.7564 1257.02 78.1255 1258.71 78.542 1260.63C79.7543 1260.27 80.7116 1259.98 81.4121 1259.77C81.3366 1261.79 81.548 1263.78 81.0793 1265.59C80.8197 1266.59 79.5232 1267.75 78.4772 1268.03C75.272 1268.88 73.6287 1271.15 72.0604 1273.87C76.0997 1275.76 79.1998 1272.99 83.0192 1271.72C83.015 1273.21 83.006 1274.17 83.0045 1275.5C75.734 1273.38 73.3 1278.5 70.658 1283.49C72.9788 1285.56 73.5464 1288.25 71.772 1291.34C71.1434 1292.44 70.6576 1293.63 70.1253 1294.78C69.3454 1296.47 69.7898 1297.88 71.4586 1299C68.841 1302.54 68.6287 1306.78 67.7947 1310.93C67.0585 1314.6 66.5564 1318.03 67.1464 1321.79C67.4188 1323.52 66.0212 1325.52 65.3699 1327.39C65.1488 1328.02 64.8843 1328.62 64.4461 1329.75C66.3458 1329.28 67.6777 1328.94 68.3071 1328.78C69.7234 1331.37 70.8965 1333.51 72.1573 1335.82C70.9984 1335.83 69.8624 1335.59 68.9489 1335.94C67.7905 1336.37 66.3338 1337.05 65.8423 1338.04C64.1735 1341.4 62.8125 1344.92 61.466 1348.42C60.4925 1350.95 59.7348 1353.56 58.7645 1356.49C62.112 1356.63 62.015 1358.04 60.5266 1359.85C58.13 1362.76 57.2906 1365.63 60.1501 1368.82C62.2861 1371.2 61.2667 1373.64 59.2137 1375.18C56.7719 1377.01 57.8422 1379.24 58.0113 1381.26C58.0645 1381.86 60.0471 1382.58 61.2088 1382.73C63.0184 1382.97 65.2666 1381.99 66.048 1384.54C66.4281 1385.77 66.5392 1387.32 66.0992 1388.45C65.9109 1388.93 63.6225 1389.22 62.9287 1388.72C62.0886 1388.1 61.9322 1386.56 61.2552 1384.85C58.1923 1383.81 56.4735 1384.89 54.0461 1390.2C56.8149 1393.53 57.0729 1399.42 54.9962 1403.49C53.7935 1405.85 52.2157 1408.5 55.1822 1410.9C52.9928 1412.69 50.9621 1414.35 48.6196 1416.25C50.0885 1417.09 50.9397 1417.57 52.0789 1418.22C50.1709 1420.12 48.5083 1422.02 52.9069 1423.4C48.6443 1423.81 49.9612 1426.74 49.76 1428.77C49.5392 1431.04 49.7525 1433.35 49.7719 1435.19C51.8236 1435.64 53.0856 1435.91 54.3467 1436.19C53.8388 1437.63 53.5271 1439.2 52.7283 1440.45C52.3568 1441.04 50.9444 1441.39 50.2115 1441.18C49.7272 1441.03 49.6108 1439.67 49.329 1438.85C49.0879 1438.15 48.8458 1437.47 48.6038 1436.78C48.1481 1437.37 47.2903 1437.97 47.309 1438.54C47.4317 1442.79 47.7238 1447.02 47.9697 1451.26C48.2632 1451.29 48.5576 1451.31 48.8511 1451.34C48.2103 1451.86 47.4467 1452.3 46.9641 1452.94C46.4258 1453.66 46.046 1454.55 45.8363 1455.42C45.7903 1455.61 46.9196 1456.42 47.2348 1456.29C48.0099 1455.97 48.8397 1455.38 49.2531 1454.68C50.9149 1451.84 52.4087 1448.91 54.005 1446.03C54.1933 1445.7 54.5859 1445.47 55.0453 1445.05C57.7945 1452.1 54.5397 1456.32 48.4524 1459.57C47.5647 1458.88 46.3551 1457.95 45.1527 1457.01C44.8435 1457.1 44.5415 1457.18 44.2323 1457.26C44.4199 1458.25 44.3118 1459.47 44.852 1460.19C46.1294 1461.91 45.7347 1463.04 44.2084 1464.23C41.1757 1466.6 41.1352 1467.27 43.9031 1469.94C41.4003 1470.43 40.1571 1471.39 41.8552 1473.99C42.1968 1474.52 40.8983 1476.12 40.8832 1477.12C40.9919 1479.68 41.0616 1482.23 41.2481 1484.78C41.2999 1485.44 41.785 1486.05 41.9853 1486.71C42.1772 1487.34 42.5996 1488.22 42.341 1488.6C41.1098 1490.41 41.4687 1491.76 42.7814 1493.45C44.6477 1495.86 43.5918 1499.04 41.8334 1501.45C39.7246 1504.34 37.5381 1507.42 37.7683 1511.44C37.8672 1513.08 37.366 1514.76 37.0729 1516.89C39.0417 1518.37 37.3297 1520.02 36.3707 1521.92C35.2264 1524.19 31.4929 1526.25 33.6789 1528.83C35.2979 1530.74 34.5573 1532.51 35.1602 1534.24C35.7116 1535.83 35.4456 1537.63 32.8623 1537.8C30.9706 1537.93 29.826 1539.21 29.7704 1541.22C29.6657 1545.42 29.5809 1549.62 29.4941 1553.65C30.6525 1553.69 31.4241 1553.72 32.203 1553.74C31.9103 1554.51 31.5741 1555.26 31.3368 1556.05C30.6568 1558.28 29.9459 1560.49 29.3719 1562.75C28.5356 1566.02 26.8223 1568.71 28.0184 1572.86C29.0178 1576.31 28.0125 1580.91 25.0816 1584.95C22.8282 1588.04 23.5019 1593.31 22.9749 1597.63C22.5805 1600.88 22.7853 1604.1 24.0081 1607.2C24.0806 1607.38 24.0942 1607.71 23.988 1607.82C21.2162 1610.83 23.078 1614.04 23.4835 1617.21C23.5727 1617.92 22.8048 1618.72 22.5856 1619.51C21.9016 1622 20.888 1624.49 20.781 1627.02C20.6767 1629.38 20.2872 1631.28 19.2357 1633.48C18.638 1634.73 17.3694 1637.76 19.6119 1639.93C21.0323 1641.31 19.2218 1644.43 16.3723 1645.41C17.948 1653.11 12.8184 1660.78 15.3892 1667.81C14.8862 1670.92 14.5078 1673.35 14.0915 1675.77C13.8758 1677.02 13.2962 1678.27 13.4098 1679.47C13.7362 1682.89 14.305 1686.28 14.8358 1689.67C15.1657 1691.79 15.615 1693.89 16.0045 1696C16.041 1696.2 16.1071 1696.52 16.0035 1696.62C13.2496 1699.12 13.4464 1703.01 11.6329 1705.92C10.033 1708.49 9.22271 1710.91 9.21843 1714.15C9.21093 1717.46 10.9421 1721.42 7.59585 1724.38C7.17688 1724.75 7.35207 1725.78 7.1999 1726.89C8.11037 1726.33 8.80969 1725.9 9.50812 1725.47C9.80677 1725.6 10.1126 1725.73 10.4113 1725.86C9.95295 1727.27 9.51366 1728.69 9.02448 1730.09C8.85343 1730.58 8.36606 1731.02 8.35968 1731.49C8.3253 1734.05 8.38782 1736.62 8.42097 1739.11C8.86076 1739.06 9.71498 1738.96 11.1139 1738.79C4.59456 1745.85 8.40885 1751.5 12.302 1757C13.4103 1756.36 14.8512 1755.28 14.8926 1758.28C14.9028 1758.96 15.5667 1759.63 15.9328 1760.31C16.5051 1759.67 17.2526 1759.12 17.6133 1758.37C19.6835 1754.11 21.6575 1749.8 23.667 1745.51L24.4702 1745.69C24.7767 1746.57 25.0832 1747.44 25.6041 1748.92C26.673 1747.06 27.4727 1745.66 28.2716 1744.27C29.3637 1747.94 26.3673 1752.88 31.5997 1755.35C30.7732 1751.24 31.5223 1747.61 33.3802 1743.91C34.2084 1742.26 33.5327 1739.83 33.5264 1737.75C33.5246 1737.44 33.325 1737.05 33.4486 1736.81C35.3401 1732.96 34.8127 1729.22 32.4022 1725.54C32.6821 1725.39 32.9627 1725.22 33.2362 1725.07C34.3158 1725.58 35.3953 1726.1 36.6084 1726.68C36.8245 1724.07 36.962 1721.18 37.3271 1718.33C37.7721 1714.89 38.9678 1711.45 38.7991 1708.06C38.6482 1704.92 38.9816 1701.92 39.3093 1698.87C39.3421 1698.58 39.2562 1698.12 39.0608 1697.99C35.2745 1695.54 37.281 1692.97 38.8864 1690.4C42.2543 1685.02 42.577 1679.18 41.6659 1673.1C41.5333 1672.23 41.6919 1670.97 42.2365 1670.4C44.0845 1668.46 43.2522 1667.8 40.605 1667.4C41.7268 1664.35 42.7996 1661.43 43.933 1658.35C44.8765 1658.35 45.7811 1658.35 47.2218 1658.35C47.0064 1656.3 45.9619 1653.83 46.78 1652.62C48.6173 1649.92 47.2354 1647.51 47.0693 1645.04C46.9203 1642.88 46.3192 1640.66 45.4702 1638.65C44.1925 1635.62 45.5254 1630.99 48.3573 1629.14C49.0096 1628.72 49.4319 1627.66 49.6055 1626.82C50.4805 1622.56 51.2549 1618.28 52.0157 1614C52.1385 1613.29 52.1061 1612.54 52.0106 1611.82C51.9283 1611.2 51.4457 1610.57 51.5121 1609.99C52.0568 1605.45 52.6904 1600.92 53.3049 1596.39C53.5501 1594.61 53.8397 1592.82 54.0523 1591.04C54.1396 1590.3 53.9668 1589.54 54.0732 1588.81C54.82 1583.5 55.662 1578.21 56.358 1572.9C56.5853 1571.14 56.3813 1569.33 56.5397 1567.56C56.7748 1564.95 56.3766 1562.44 58.4468 1559.92C59.5934 1558.53 58.8647 1555.22 58.3456 1552.93C57.8543 1550.76 57.9185 1549.63 59.7393 1547.85C61.4998 1546.14 62.4368 1543.07 62.7535 1540.48C63.4183 1535.06 64.0043 1529.52 63.5156 1524.12C63.1736 1520.35 62.2795 1516.92 65.0004 1513.72C65.3081 1513.36 65.1264 1512.47 64.9954 1511.87C63.9323 1507.08 65.8581 1502.89 66.9671 1498.38C67.97 1494.32 68.8563 1490.44 70.4984 1486.53C71.3819 1484.42 70.8901 1480.56 68.3756 1478.02C67.5869 1477.22 67.4866 1475.02 67.9661 1473.84C68.8385 1471.67 70.3789 1469.77 71.7186 1467.63C70.9441 1464.7 70.0807 1461.43 69.1572 1457.93C70.6388 1457.64 71.5288 1457.46 72.4921 1457.27C72.5857 1457.01 72.7462 1456.74 72.7735 1456.45C72.8561 1455.51 72.5075 1454.24 72.9943 1453.7C75.7901 1450.61 73.3558 1449.27 71.4066 1447.89C71.4809 1441.83 74.6018 1437.31 78.493 1433.2C80.8045 1430.77 80.4169 1427.56 80.1881 1424.89C79.6524 1418.57 80.9698 1412.49 81.507 1406.31C81.6004 1405.21 81.205 1403.99 80.7825 1402.92C79.4854 1399.66 79.7306 1399 83.2264 1397.82C83.0422 1396.95 82.8759 1396.04 82.6634 1395.14C82.1686 1393 81.1309 1390.76 84.4184 1389.74C84.9246 1389.58 85.5085 1387.97 85.2543 1387.37C83.3888 1383.02 85.8047 1379.2 86.5181 1375.18C86.9217 1372.9 87.3033 1370.58 87.322 1368.28C87.3273 1367.63 86.0287 1366.96 84.8143 1365.83C85.6697 1364.49 86.7242 1362.83 88.0014 1360.82C85.9631 1357.31 90.1146 1354.88 90.8272 1351.52C91.7542 1347.17 92.9758 1342.87 93.9717 1338.53C94.0865 1338.02 93.5143 1337.39 93.4094 1336.79C93.1613 1335.34 92.3312 1333.48 92.9251 1332.49C94.9864 1329.06 94.3957 1325.16 95.2789 1321.55C96.4946 1316.54 96.8163 1311.32 97.5494 1305.97C98.1571 1306.16 98.9018 1306.39 99.652 1306.62C99.7769 1306.46 99.9907 1306.32 100.005 1306.16C100.144 1303.88 100.086 1301.57 100.415 1299.31C100.804 1296.66 101.368 1294.1 99.3108 1291.8C98.9016 1291.35 98.6512 1290.3 98.8883 1289.79C100.3 1286.85 99.4536 1284.73 97.095 1282.7C96.5863 1282.26 96.6604 1280.31 97.2035 1279.64C99.7078 1276.56 100.646 1272.96 101.979 1269.32C103.561 1264.99 104.082 1260.86 104.359 1256.44C104.461 1254.8 106.358 1253.31 106.635 1251.62C106.932 1249.83 106.276 1247.88 105.468 1246.13C106.297 1244.42 107.132 1242.72 108.186 1240.54C106.799 1240.76 105.959 1240.9 104.875 1241.08C106.615 1236.87 108.239 1233.04 109.789 1229.18C111.055 1226.03 112.572 1222.92 113.377 1219.65C114.113 1216.63 111.736 1216.3 109.28 1216.63C109.254 1216.01 109.076 1215.38 109.255 1215.26C113.056 1212.56 114.252 1208.78 114.031 1204.32C114.002 1203.77 114.736 1203.23 114.83 1202.64C115.013 1201.49 114.989 1200.29 115.046 1199.13C114.696 1199.04 114.352 1198.95 114.003 1198.86C114.699 1198.12 115.401 1197.39 116.422 1196.3C115.409 1195.49 114.425 1194.7 113.161 1193.69C113.925 1191.56 114.824 1189.2 115.599 1186.79C115.813 1186.13 115.889 1185.24 115.624 1184.63C114.454 1181.95 115.954 1180.1 117.858 1178.99C119.587 1177.98 119.858 1176.85 119.821 1175.14C119.761 1172.65 119.889 1170.16 119.94 1167.48L121.532 1167.7C122.196 1162.86 122.785 1158.09 123.534 1153.33C123.814 1151.57 124.697 1149.89 124.914 1148.12C125.315 1144.91 125.241 1141.63 125.736 1138.44C125.977 1136.87 127.414 1135.49 127.668 1133.92C128.095 1131.33 128.099 1128.65 128.099 1126.02C128.1 1122.57 127.851 1119.11 127.865 1115.66C127.866 1114.9 128.696 1114.17 128.903 1113.36C129.221 1112.08 129.83 1110.56 129.437 1109.47C128.554 1107.05 129.848 1105.77 131.2 1104.24C131.812 1103.55 132.617 1102.3 132.37 1101.7C131.02 1098.44 133.156 1096.2 134.382 1093.62C130.878 1090.19 129.138 1086.43 130.435 1081.16C131.416 1077.16 130.977 1072.83 131.31 1068.65C131.382 1067.74 132.05 1066.88 132.787 1065.23C133.287 1067.24 133.423 1068.41 133.884 1069.44C134.186 1070.11 134.954 1070.59 135.511 1071.15C135.896 1070.51 136.462 1069.91 136.62 1069.23C136.796 1068.47 136.518 1067.61 136.571 1066.81C136.647 1065.69 136.768 1064.57 137.008 1063.47C137.3 1062.15 137.855 1060.88 138.088 1059.56C139.058 1053.99 137.396 1048.01 140.956 1042.83C143.03 1039.82 139.709 1038.07 138.927 1035.43C139.664 1035.43 140.4 1035.43 141.601 1035.44C142.021 1032.37 142.631 1029.3 142.817 1026.2C142.989 1023.28 142.123 1020.23 144.513 1017.78C142.335 1014.39 144.207 1004.74 147.333 1003.34C147.223 1000.27 147.115 997.2 147.011 994.135C147.002 993.824 146.944 993.351 147.111 993.218C150.791 990.324 149.542 986.656 148.824 983.029C148.725 982.531 149.183 981.922 149.383 981.361C149.926 981.591 150.464 981.82 151.234 982.138C151.792 979.908 152.338 977.714 153.078 974.727C151.704 975.463 151.146 975.761 150.058 976.342L152.387 959.349C151.778 958.606 151.192 957.886 150.611 957.173C153.631 954.756 154.19 950.678 152.478 949.209C153.559 947.593 155.214 946.178 155.435 944.567C155.901 941.167 157.837 937.982 156.771 934.255C156.442 933.118 158.081 931.533 158.365 930.073C159.255 925.419 160.084 920.738 160.632 916.031C160.995 912.869 160.352 909.543 161.036 906.483C161.905 902.602 163.663 898.921 164.935 895.437C164.637 894.789 164.098 894.146 164.095 893.506C164.101 891.859 164.333 890.217 164.506 888.574C164.572 887.949 164.52 887.012 164.89 886.765C168.306 884.474 166.784 881.383 166.287 878.504C165.723 875.215 166.589 872.438 168.597 870.568C168.031 869.554 167.18 868.739 167.283 868.081C167.653 865.663 168.372 863.293 168.908 860.898C169.122 859.945 169.185 858.965 169.358 857.709C169.867 857.624 170.622 857.488 171.529 857.335C170.355 854.627 168.241 851.947 172.056 849.814C171.735 848.283 168.167 846.973 171.818 845.374C172.086 845.255 171.52 843.065 171.225 841.867C170.686 839.719 169.027 837.63 172.764 836.256C174.036 835.79 175.232 832.768 175.037 831.081C174.576 827.088 176.51 823.728 177.123 820.058C177.768 816.204 179.328 812.508 180.023 808.661C180.723 804.783 180.285 800.626 181.42 796.917C182.406 793.685 181.316 791.171 180.723 788.33C180.513 787.319 180.904 786.158 181.109 785.087C181.668 782.139 182.271 779.204 182.874 776.269C183.183 774.767 183.518 773.268 183.865 771.771C183.986 771.271 184.297 770.79 184.32 770.289C184.541 766.274 184.608 762.251 184.93 758.249C185.153 755.449 185.433 752.605 186.188 749.924C186.908 747.36 188.318 744.994 189.338 742.504C191.957 736.123 192.058 729.59 191.232 722.795C190.86 719.752 192.316 716.488 192.949 713.33C193.4 711.079 193.979 708.838 194.29 706.567C194.525 704.854 193.72 702.851 196.039 701.915C196.299 701.808 196.495 701.182 196.476 700.805C196.393 698.861 196.232 696.926 196.091 694.981C196.075 694.772 195.951 694.542 196.002 694.362C196.705 691.822 196.896 688.92 198.298 686.851C199.723 684.752 199.281 683.121 199.111 681.017C198.863 678.016 199.251 674.948 199.504 671.926C199.899 667.302 200.416 662.681 200.869 658.058C200.952 657.216 200.672 656.144 201.093 655.568C203.944 651.7 202.913 648.044 201.087 644.161C200.696 643.332 201.889 641.751 202.77 640.696C202.323 638.87 201.717 637.068 204.923 637.159C205.115 637.166 205.497 635.842 205.545 635.118C205.71 632.543 205.767 629.959 205.876 627.376C205.891 626.984 206.07 626.569 205.978 626.207C205.39 623.846 204.742 621.502 204.044 618.866C205.862 618.611 206.744 618.493 207.68 618.363C208.887 609.559 209.963 600.814 211.323 592.115C212.077 587.274 213.407 582.526 214.295 577.697C214.938 574.186 215.203 570.603 215.765 567.068C216.042 565.329 216.737 563.654 216.989 561.911C217.488 558.509 217.809 555.083 218.199 551.666C218.571 548.389 218.918 545.102 219.29 541.825C219.486 540.062 219.715 538.296 219.925 536.535C220.036 535.581 219.769 534.278 220.289 533.735C223.053 530.876 222.596 526.904 224.012 523.596C224.44 522.594 224.688 521.258 224.392 520.261C223.299 516.538 224.509 512.568 222.457 508.823C220.937 506.049 222.703 503.493 225.036 502.83C225.17 501.143 225.049 500.002 225.373 499.006C226.734 494.83 228.355 490.735 229.578 486.528C229.918 485.366 229.227 483.901 229.014 482.58C228.733 480.809 228.233 479.507 229.238 477.273C230.791 473.815 230.095 469.364 230.427 465.345C230.584 463.44 230.826 461.535 231.161 459.655C231.647 456.917 233.57 454.764 233.248 451.508C232.942 448.409 233.737 444.634 235.412 442.04C237.767 438.388 236.15 434.58 237.206 430.977C237.877 428.671 237.716 426.122 237.896 423.678C238.123 420.562 238.677 417.42 238.44 414.337C238.115 410.157 238.681 406.544 241.169 402.963C244.76 397.794 245.379 391.675 245.312 385.514C245.305 385.093 245.128 384.545 245.322 384.261C247.658 380.846 248.255 377.768 244.277 374.961C243.888 374.688 244.688 372.432 245.211 371.212C246.268 368.733 247.822 366.594 246.35 363.471C245.899 362.517 247.868 359.989 249.22 358.707C252.021 356.047 253.126 353.213 251.664 349.504C251.444 348.937 251.738 348.163 251.804 347.494C251.96 345.926 252.589 344.215 252.166 342.826C251.542 340.776 251.348 339.36 253.267 337.859C253.816 337.43 253.295 335.627 253.587 334.626C254.165 332.767 254.786 330.92 255.308 329.046C256.887 323.421 258.349 317.753 260.028 312.154C260.518 310.509 261.014 309.394 258.754 308.813C258.111 308.647 257.475 307.345 257.353 306.495C257.11 304.73 257.309 302.902 257.147 301.116C257.032 299.879 256.602 298.676 256.227 297.074C256.666 296.184 257.338 294.77 258.039 293.38C258.307 292.842 258.567 291.934 258.95 291.87C261.885 291.348 262.185 288.972 262.909 286.752C263.924 283.64 265.361 280.651 266.201 277.496C266.806 275.201 266.487 272.67 267.013 270.344C268.264 264.848 269.841 259.429 271.149 253.941C271.7 251.619 271.971 249.213 272.226 246.838C272.275 246.386 271.74 245.718 271.299 245.393C268.718 243.481 268.463 242.231 270.336 239.877C271.756 238.101 273.223 236.357 274.797 234.447C271.989 230.507 272.996 227.169 275 223.062C276.887 219.198 276.845 214.319 277.335 209.85C277.629 207.189 277.81 204.784 279.849 202.634C281.104 201.306 281.514 199.165 282.282 197.384C283.937 193.559 284.883 189.63 284.772 185.395C284.726 183.56 285.837 181.722 286.003 179.851C286.376 175.721 286.473 171.566 286.693 167.421C286.736 166.587 286.728 165.746 286.879 164.933C288.476 156.344 290.277 147.782 291.647 139.156C292.218 135.551 291.23 131.635 292.132 128.165C293.824 121.67 294.266 115.003 295.669 108.494C296.469 104.778 297.771 101.17 298.848 97.5108C298.934 97.2125 299.215 96.8116 299.11 96.6356C296.465 92.0789 298.832 88.2933 300.898 84.4407C301.064 84.1274 301.02 83.5526 300.838 83.2304C298.423 78.8798 300.888 75.5147 302.957 72.0179C303.385 71.2947 303.436 70.2677 303.414 69.3859C303.368 67.3697 302.86 65.3226 303.091 63.351C303.554 59.4078 303.822 55.2892 305.249 51.6656C306.36 48.8388 305.22 45.5611 306.536 43.5508C309.788 38.5877 307.871 33.058 309.188 27.9266C309.773 25.6415 307.769 22.6721 306.898 20.0258C306.642 19.254 306.013 18.5604 305.913 17.784C305.445 14.0752 301.791 13.3869 299.762 11.1701C298.723 10.026 297.32 8.99357 295.883 8.49284C294.174 7.90309 291.902 8.49001 290.479 7.60347C286.872 5.35118 283.918 6.5296 280.79 8.37542C280.003 8.83623 278.94 9.04597 278.02 9.01043C275.288 8.90728 273.529 9.57731 273.516 12.8262C273.513 13.8403 272.495 14.8575 271.936 15.8666C269.852 19.6134 270.9 23.1949 272.416 26.7955C272.752 27.5976 272.86 28.5496 272.844 29.4262C272.732 36.3708 272.799 43.327 272.335 50.2492C272.061 54.3733 270.923 58.4308 270.213 62.5275C270.023 63.6259 269.617 64.895 269.958 65.8465C271.51 70.1305 270.551 74.4387 270.175 78.691C269.909 81.6661 269.156 84.71 268.027 87.4762C265.603 93.4189 266.524 99.7618 265.371 105.859C264.099 112.593 263.209 119.418 262.635 126.248C262.021 133.46 259.649 140.437 260.932 147.954C261.61 151.918 261.703 156.474 259.097 160.401C258.462 161.354 259.195 163.122 258.967 164.461C258.483 167.328 257.805 170.156 257.17 172.997C256.938 174.025 256.191 175.137 256.411 176.033C257.818 181.939 254.374 187.309 254.694 193.085C254.876 196.373 253.351 200.998 254.982 202.676C257.572 205.325 254.691 208.71 257.637 210.936C259.141 212.08 256.945 215.604 254.814 216.392C254.263 216.594 253.824 217.962 253.898 218.741C253.955 219.356 254.878 219.89 255.951 221.019C254.216 221.04 253.258 221.051 252.061 221.061C251.571 222.467 251.059 223.935 250.462 225.656C248.307 225.626 247.127 226.931 246.614 229.258C245.973 232.143 244.668 234.918 244.29 237.819C243.808 241.521 243.968 245.304 243.843 249.28C241.612 250.377 240.73 251.955 242.804 254.366C243.144 254.761 242.849 255.923 242.555 256.6C242.015 257.857 241.106 258.973 240.621 260.245C239.953 262.008 238.732 264.076 239.15 265.646C240.275 269.891 238.798 273.165 236.576 276.46C236.235 276.969 236.095 278.223 236.382 278.443C238.323 279.93 237.523 281.146 236.763 283.019C236.039 284.807 236.111 287.35 236.808 289.196C238.698 294.218 238.089 297.153 233.723 300.477C233.384 300.734 233.097 301.179 232.981 301.597C231.717 306.199 230.658 310.862 229.202 315.399C227.94 319.33 228.339 323.062 229.499 326.859C229.641 327.331 229.568 327.863 229.615 328.839C228.495 328.388 227.698 328.072 226.35 327.532C226.397 328.98 225.935 330.842 226.579 331.376C228.707 333.154 228.145 334.383 226.906 336.442C225.817 338.258 225.743 340.684 225.246 342.845C224.411 346.485 223.922 350.244 222.704 353.754C221.077 358.455 221.561 363.175 221.548 367.936C221.547 369.738 221.144 371.783 220.225 373.299C218.38 376.342 218.594 379.447 218.937 382.693C219.111 384.3 219.049 385.933 219.098 387.555C218.79 387.63 218.489 387.705 218.181 387.785C218.91 388.312 219.639 388.838 220.481 389.438C220.354 389.802 220.344 390.343 220.076 390.552C215.066 394.434 214.459 400.09 213.646 405.781C213.365 407.733 212.04 409.529 211.281 411.435C210.571 413.225 209.807 415.02 209.415 416.892C209.173 418.048 209.577 419.344 209.709 420.784L213.236 421.267C208.058 427.595 207.884 435.035 206.769 442.514C208.465 444.569 207.93 445.827 205.814 448.348C204.562 449.844 203.87 452.579 204.255 454.487C204.789 457.145 203.529 458.937 202.686 460.98C201.334 464.245 200.55 467.278 202.84 470.61C203.384 471.402 202.623 473.792 201.722 474.754C199.783 476.834 199.527 479.126 199.327 481.761C199.037 485.624 198.208 489.453 197.573 493.288C196.814 497.882 195.96 502.457 195.252 507.058C194.516 511.862 193.913 516.684 193.254 521.492C193.573 521.614 193.892 521.741 194.211 521.863C195.328 520.226 196.444 518.589 197.593 516.898C198.782 516.951 200.342 517.023 202.005 517.102C201.987 517.235 201.992 517.766 201.939 517.772C198.732 518.114 198.246 520.949 196.957 523.092C196.011 524.669 194.827 526.096 193.48 527.953C193.712 528.709 194.345 529.985 194.467 531.313C194.755 534.397 196.181 537.856 192.321 539.944C192.063 540.083 191.767 540.398 191.717 540.669C190.689 546.661 185.81 551.75 187.914 558.559C188.608 560.806 188.054 563.528 187.717 565.983C187.246 569.375 186.412 572.725 185.775 576.095C184.959 580.397 184.269 584.729 183.339 589.009C183.019 590.497 181.739 591.82 181.59 593.286C181.227 596.83 181.31 600.421 181.125 603.982C181.053 605.355 180.825 606.739 180.494 608.07C179.268 613.053 178.985 613.751 183.949 617.048C180.594 620.162 177.175 623.183 177.842 628.548C177.959 629.482 177.203 630.522 176.866 631.516C176.641 632.17 176.081 633.005 176.289 633.466C177.356 635.771 176.677 636.86 174.347 637.775C172.756 638.397 172.456 643.319 173.537 645.432C174.892 648.086 174.232 652.81 172.182 655.082C170.535 656.911 170.633 660.582 172.32 662.61C172.602 662.952 172.608 663.522 172.738 663.986C171.985 664.057 171.232 664.128 169.667 664.282C170.22 666.516 170.818 668.757 171.31 671.015C171.456 671.694 171.467 672.458 171.322 673.136C170.212 678.173 168.207 683.184 168.142 688.229C168.08 692.925 166.366 697.175 166.155 701.734C166.11 702.769 165.359 703.771 165.274 704.864C166.04 709.693 163.833 713.817 161.659 717.94C162.658 718.762 163.661 719.597 164.665 720.426L164.362 720.992C163.565 720.818 162.774 720.645 162.254 720.529C161.23 724.272 160.199 727.788 159.35 731.343C159.183 732.037 159.637 732.92 159.922 733.67C160.491 735.176 161.135 736.654 161.752 738.147C165.792 738.371 163.843 742.738 166.486 744.063C164.629 745.398 163.215 746.374 162.611 743.713C162.198 741.866 162.086 739.951 161.84 738.069C161.494 738.474 161.226 739.057 160.786 739.249C156.768 741.031 158.934 744.088 159.023 746.833C159.094 749.047 158.502 751.292 158.197 753.518C158.072 754.432 157.717 755.366 157.836 756.248C158.143 758.577 158.335 760.717 156.872 762.901C156.222 763.872 156.317 765.63 156.622 766.893C157.187 769.232 158.419 771.462 155.809 773.438C155.643 773.563 156.575 775.249 157.084 776.158C158.081 777.937 159.243 779.64 160.096 781.483C160.25 781.82 159.272 782.682 158.81 783.323C158.078 781.872 157.497 780.732 156.923 779.594C156.467 780.184 156.018 780.775 155.569 781.36C155.233 780.984 154.84 780.549 154.454 780.115C154.226 780.226 153.996 780.343 153.768 780.454C154.27 781.647 154.86 782.813 155.246 784.049C155.408 784.562 155.158 785.213 155.089 785.805C154.397 785.619 153.705 785.434 152.627 785.144C152.357 791.544 150.775 797.996 152.073 805.36C151.556 806.911 150.75 809.353 149.938 811.788L151.057 812.252C151.617 810.9 152.11 809.52 152.761 808.214C153.18 807.373 154.071 805.912 154.337 806C155.575 806.402 156.698 807.209 157.788 807.985C157.911 808.073 157.668 809.138 157.363 809.29C156.565 809.692 155.64 809.836 154.827 810.067C154.598 811.031 154.29 812.333 153.932 813.809C154.717 814.259 155.587 814.753 155.652 814.794C155.272 816.338 154.993 817.386 154.764 818.447C154.51 819.588 154.307 820.743 154.095 821.819C152.686 820.501 151.674 819.251 150.373 818.51C149.894 818.238 148.374 818.954 147.953 819.62C147.253 820.719 147.088 822.157 146.629 823.432C146.16 824.731 145.454 825.966 145.124 827.29C144.778 828.684 144.751 830.154 144.605 831.594C144.286 834.724 144.372 837.96 143.543 840.948C142.89 843.308 143.266 845.04 144.368 846.994C144.904 847.946 144.963 849.163 145.247 850.294C145.859 849.318 146.549 848.01 147.443 846.866C148.055 846.078 148.947 845.508 149.717 844.845C150.214 845.74 150.712 846.636 151.536 848.125C153.129 849.184 154.217 843.271 156.844 846.83C155.763 848.259 154.755 849.717 153.598 851.038C153.262 851.418 152.405 851.682 151.92 851.545C148.548 850.54 146.595 851.538 146.298 855.22C146.266 855.59 145.891 855.927 145.55 856.481C144.738 855.988 144.022 855.554 142.657 854.721C143.176 857.435 143.581 859.526 143.986 861.617L143.357 861.253C142.082 864.239 140.653 867.164 139.576 870.215C138.458 873.377 137.758 876.687 136.738 879.888C135.709 883.101 136.726 884.643 139.997 884.962C141.215 885.084 143.381 885.833 143.375 886.252C143.331 887.939 142.604 889.617 142.088 891.446C141.233 890.986 141.137 890.934 141.041 890.882C139.407 889.98 142.143 886.426 138.688 886.786C137.035 886.96 134.595 892.17 134.88 894.103C135.191 896.213 135.405 898.336 135.734 901.121C136.152 901.366 137.3 902.047 138.609 902.821C138.212 903.878 137.855 904.831 137.47 905.851C138.669 906.674 139.863 907.484 141.471 908.583C138.279 911.687 139.435 915.607 139.181 919.488C141.138 919.446 142.142 915.093 144.143 918.036C144.799 919.005 143.207 921.514 142.463 923.88C141.219 922.727 140.525 922.083 140.462 922.022C139.095 924.077 137.659 926.207 136.247 928.353C135.03 930.202 134.316 932.347 131.142 931.976C130.385 931.886 128.516 935.197 128.486 936.97C128.459 938.304 128.516 941.375 131.599 941.093C133.496 940.92 134.002 941.946 133.435 943.393C132.811 944.975 131.783 946.398 130.149 947.944C130.204 946.078 130.267 944.206 130.348 941.49C128.53 942.307 126.455 942.598 125.886 943.683C125.306 944.799 126.316 946.676 126.412 948.24C126.533 950.137 126.647 952.085 126.366 953.946C126.138 955.466 125.19 956.868 124.82 958.387C124.582 959.369 124.8 960.465 124.816 961.385L122.055 981.531C122.272 981.593 122.497 981.656 122.714 981.718C123.123 980.34 123.525 978.96 124.034 977.227C126.763 976.981 126.195 971.552 130.268 972.156C131.035 972.267 131.75 972.708 133.143 973.248C131.213 974.928 129.752 976.202 128.123 977.62C129.093 981.055 126.298 983.295 123.921 984.327C120.609 985.76 120.432 988.139 120.052 990.814C119.925 991.741 119.919 992.683 119.846 993.778C123.473 993.959 122.337 987.25 126.617 988.936C124.739 992.549 122.851 996.187 120.962 999.825C122.245 998.704 123.914 999.131 125.97 1001.11C122.588 1003.29 122.956 1006.31 124.028 1009.62C124.537 1011.18 124.456 1012.95 124.639 1014.63C125.308 1015.03 126.328 1015.28 126.584 1015.86C127.576 1018.1 128.341 1020.44 129.141 1022.76C129.336 1023.32 129.341 1023.94 129.559 1025.37C126.215 1020.44 124.346 1020.4 121.473 1024.67C120.813 1021.56 120.147 1018.45 119.486 1015.36C121.288 1015.08 123.023 1014.82 124.753 1014.56L124.752 1014.47ZM180.601 723.263C181.589 723.179 182.576 723.095 183.295 723.038C183.693 724.56 183.991 725.692 184.459 727.463C183.16 727.789 181.379 728.856 180.322 728.363C178.092 727.333 179.839 725.524 180.307 724.044C180.399 723.746 180.566 723.472 180.702 723.187C178.684 722.018 176.666 720.856 174.48 719.594C176.835 718.21 178.83 717.043 180.665 715.963C182.602 717.909 184.528 719.84 186.46 721.772C186.246 722.066 186.03 722.366 185.815 722.66C185.127 722.397 184.388 722.225 183.767 721.856C181.999 720.799 181.053 721.425 180.608 723.258L180.601 723.263ZM118.525 1088.98C116.815 1086.04 116.735 1083.37 118.269 1080.38C119.328 1078.32 119.424 1075.78 120.239 1073.56C120.548 1072.71 121.632 1072.11 122.465 1071.56C122.564 1071.49 123.313 1072.4 123.561 1072.66C122.606 1073.49 121.842 1074.07 121.233 1074.79C121.14 1074.9 121.854 1076.02 121.996 1075.97C122.844 1075.72 123.656 1075.31 124.433 1074.88C125.547 1074.25 126.619 1073.55 127.783 1072.83C126.508 1076.9 128.546 1082.17 123.242 1085.03C122.807 1084.52 122.53 1084.04 122.121 1083.77C121.144 1083.12 120.104 1082.55 119.061 1082.01C119.036 1082 118.662 1082.65 118.454 1082.99C119.323 1083.49 120.327 1083.85 121.029 1084.53C121.77 1085.25 122.225 1086.27 122.808 1087.16C122.12 1087.51 121.451 1087.91 120.737 1088.21C120.009 1088.53 119.236 1088.74 118.524 1088.99L118.525 1088.98ZM107.606 1204.8C106.403 1206.36 104.969 1208.34 103.384 1210.18C103.145 1210.47 102.065 1210.38 101.667 1210.08C101.269 1209.77 101.129 1209 101.068 1208.41C100.873 1206.58 100.962 1204.71 100.586 1202.92C99.9422 1199.89 101.864 1198.17 103.692 1196.48C104.025 1196.17 105.822 1196.64 105.94 1197.05C106.612 1199.32 106.98 1201.68 107.605 1204.8L107.606 1204.8ZM170.626 683.451C170.881 683.428 171.143 683.406 171.398 683.383C171.823 684.288 172.256 685.187 172.625 685.981C173.73 683.392 174.722 680.917 175.866 678.509C176.11 677.999 176.924 677.768 177.471 677.404C177.692 678.061 178.256 678.849 178.059 679.339C177.56 680.576 175.998 681.79 176.156 682.807C176.664 686.076 173.928 686.47 172.354 687.908C175.087 693.711 173.766 699.152 168.519 700.85C169.293 699.631 169.836 698.969 170.172 698.22C170.834 696.734 171.935 695.16 171.854 693.682C171.734 691.494 170.569 689.383 170.179 687.184C169.972 686.005 170.455 684.701 170.626 683.451ZM98.6517 1235.94C96.1702 1233.15 97.2436 1230.51 98.8136 1228.25C100.31 1226.1 99.3471 1225.73 97.5093 1225.46C97.0462 1225.4 96.5895 1225.33 96.4563 1225.32C97.8152 1223.37 98.9706 1221.45 100.443 1219.81C100.77 1219.45 102.943 1219.96 102.981 1220.24C103.204 1221.87 103.266 1223.59 102.943 1225.18C102.509 1227.36 101.033 1229.5 101.196 1231.57C101.368 1233.85 100.77 1234.96 98.6517 1235.94ZM77.8834 1287.4C78.1474 1283.97 78.3898 1280.88 78.663 1277.33C79.7951 1277.37 81.7774 1276.91 82.2809 1277.57C83.0245 1278.56 82.7222 1280.34 82.8777 1281.89C83.7259 1281.36 84.5389 1280.85 85.4294 1280.3C86.3398 1284.03 81.3335 1288.21 77.8826 1287.41L77.8834 1287.4ZM182.348 692.509C183.79 687.647 185.196 682.909 186.839 677.383C188.119 679.167 189.088 680.166 189.589 681.366C189.867 682.024 189.373 683.74 189.185 683.747C187.138 683.828 187.413 685.358 187.031 686.637C186.258 689.207 185.36 691.753 184.274 694.208C183.964 694.915 182.916 695.437 182.094 695.732C181.672 695.887 180.576 695.44 180.522 695.128C180.323 694.035 180.435 692.887 180.432 691.4C181.349 691.927 181.911 692.256 182.348 692.509ZM77.6036 1339.13C78.7843 1338.96 79.8077 1338.99 80.6705 1338.63C81.4917 1338.3 82.154 1337.57 82.8897 1337.01C83.1292 1338.05 83.7322 1339.16 83.5329 1340.1C82.9222 1342.9 82.0341 1345.66 81.1732 1348.4C80.909 1349.25 80.3918 1350 79.9915 1350.8C79.5366 1349.78 78.9534 1348.8 78.673 1347.74C78.4296 1346.83 78.9177 1345.39 78.4116 1344.93C76.2183 1342.97 76.322 1340.99 77.6045 1339.13L77.6036 1339.13ZM90.5868 1274.64C90.3197 1274.66 90.0455 1274.68 89.7784 1274.69C88.6437 1270.19 88.0113 1265.66 89.8459 1260.24C90.6343 1261.47 91.203 1262.27 91.6805 1263.13C92.0748 1263.83 92.1941 1265.08 92.7194 1265.26C95.9737 1266.36 94.6362 1268.91 94.3384 1270.84C94.2712 1271.29 91.8939 1271.37 90.301 1271.68C90.3623 1272.27 90.4777 1273.46 90.5931 1274.64L90.5868 1274.64ZM136.317 963.666C136.155 963.205 135.986 962.736 135.823 962.274C137.15 961.738 139.171 961.563 139.686 960.593C141.297 957.557 142.755 960.781 144.193 960.384C144.543 961.744 145.305 963.16 145.134 964.455C144.924 966.08 143.952 967.608 143.166 969.523C141.924 968.875 140.374 968.067 138.818 967.253C139.468 965.856 140.137 964.416 141.002 962.544C138.983 963.03 137.648 963.345 136.317 963.666ZM123.944 1037.81C124.32 1040.58 122.7 1041.18 120.753 1040.63C119.676 1040.32 118.853 1039.12 117.922 1038.32C119.008 1037.37 120.016 1036.29 121.215 1035.51C122.5 1034.67 123.905 1033.94 125.363 1033.49C126.551 1033.12 128.348 1032.69 129.044 1033.28C130.011 1034.09 130.199 1035.83 130.725 1037.18L129.928 1037.48C129.326 1036.22 128.723 1034.96 128.113 1033.7C127.761 1033.68 127.402 1033.65 127.05 1033.63C126.629 1035 126.209 1036.37 125.696 1038.04C125.753 1038.05 124.985 1037.94 123.951 1037.8L123.944 1037.81ZM67.39 1404.02C68.9526 1402.85 70.2815 1401.83 71.6433 1400.86C72.2601 1400.41 72.9363 1400.05 73.5923 1399.65C73.902 1400.46 74.5007 1401.27 74.4635 1402.06C74.3722 1404 73.9911 1405.94 73.7024 1408.04C71.3948 1408.94 68.4817 1407 67.39 1404.02ZM193.443 659.14C193.017 659.231 192.598 659.322 192.173 659.405C191.335 657.501 190.146 655.664 189.766 653.673C189.381 651.669 189.806 649.517 189.862 647.831C189.07 647.341 188.414 646.941 187.765 646.536C189.274 645.709 190.784 644.875 192.294 644.048C192.567 644.221 192.834 644.394 193.108 644.567C192.804 646.781 192.749 649.074 192.117 651.184C191.604 652.898 190.977 654.169 192.614 655.711C193.33 656.385 193.19 657.968 193.438 659.133L193.443 659.14ZM139.996 971.486C143.714 973.592 143.482 976.507 139.976 978.986C138.823 979.804 137.763 980.751 136.338 981.906C135.57 977.697 138.72 975.04 139.996 971.486ZM149.777 913.994C148.54 911.982 147.594 910.444 146.479 908.63C146.346 905.639 152.619 907.165 151.416 902.554C152.266 903.517 152.843 904.494 152.729 905.377C152.419 907.732 151.873 910.061 151.267 912.363C151.116 912.943 150.38 913.365 149.783 913.994L149.777 913.994ZM170.347 768.173C171.543 766.76 172.609 765.491 174.026 763.824C174.959 764.799 176.507 765.67 176.537 766.585C176.62 769.137 175.889 771.595 172.787 772.488C171.976 771.052 171.212 769.694 170.353 768.18L170.347 768.173ZM195.807 606.447C197.065 601.65 198.086 597.784 199.302 593.162C200.077 596.273 200.761 599.016 201.458 601.806C199.935 603.058 198.209 604.476 195.813 606.448L195.807 606.447ZM176.306 651.918C177.642 651.979 178.739 652.032 179.767 652.076C183.004 656.985 176.585 656.952 175.853 659.837C175.794 660.081 174.637 660.039 174.34 660.082C175.044 657.161 175.646 654.652 176.306 651.918ZM48.6606 1565.59C48.4104 1566.66 48.2178 1567.5 48.1417 1567.82C49.2587 1568.87 50.1408 1569.69 51.5327 1570.99C49.8891 1570.96 49.0966 1570.94 48.5424 1570.93C48.1474 1572.16 47.8906 1573.19 47.434 1574.12C47.3633 1574.25 45.9006 1574.03 45.8266 1573.77C45.3719 1572.14 44.7445 1570.4 44.9273 1568.78C45.1107 1567.11 45.9926 1565.35 48.6598 1565.6L48.6606 1565.59ZM166.629 803.975C166.398 803.724 166.175 803.467 165.944 803.216C166.795 800.502 167.639 797.787 168.572 794.8C171.746 796.961 171.371 799.553 170.443 801.7C169.969 802.805 167.952 803.233 166.63 803.969L166.629 803.975ZM66.3117 1372.76C63.4164 1372.52 64.3882 1370.48 64.4213 1368.96C64.4701 1366.72 65.3894 1365.15 68.0344 1365C69.374 1368.1 69.0094 1370.71 66.3117 1372.76ZM163.464 767.236C162.872 764.719 162.739 762.904 162.012 761.376C160.653 758.514 161.622 756.444 163.778 753.915C163.904 755.826 163.533 757.449 164.165 758.401C166.13 761.365 164.597 763.824 163.464 767.236ZM35.8284 1640.72C35.9753 1638.52 36.1207 1636.37 36.2606 1634.22C36.4028 1632.15 36.344 1629.94 39.8641 1630.33C39.0535 1631.24 38.2428 1632.16 37.3467 1633.18C38.3892 1634.82 39.4791 1636.53 40.5847 1638.27C38.7907 1639.2 37.3579 1639.94 35.8284 1640.72ZM88.1902 1319.56C83.1528 1318.73 82.5352 1315.7 85.8636 1311.03C86.8518 1311.41 87.8401 1311.79 89.2394 1312.33C86.2422 1314.4 86.5377 1316.86 88.1911 1319.55L88.1902 1319.56ZM110.167 1130.48C110.225 1128.93 110.245 1127.6 110.336 1126.28C110.386 1125.53 110.539 1124.8 110.642 1124.05C111.446 1124.5 112.857 1124.87 112.942 1125.42C113.328 1128.07 113.345 1130.77 113.5 1133.46C113.149 1133.58 112.797 1133.69 112.445 1133.8C111.622 1132.6 110.799 1131.39 110.174 1130.48L110.167 1130.48ZM166.039 790.266C166.589 788.189 167.149 786.088 167.832 783.506C169.298 785.684 170.446 787.399 171.911 789.578C171.102 790.294 170.007 791.262 169.213 791.961C167.906 791.265 166.889 790.718 166.039 790.266ZM222.73 403.867C221.064 403.716 218.919 403.519 216.774 403.328C216.802 402.886 216.836 402.451 216.864 402.009C218.161 402.071 220.166 402.675 220.608 402.089C221.493 400.918 221.516 399.099 221.922 397.455C223.038 397.472 224.211 397.497 225.146 397.509C224.398 399.475 223.699 401.324 222.73 403.867ZM171.328 717.74C169.71 719.644 168.214 721.41 166.712 723.175L165.772 722.723C165.956 721.857 165.9 720.802 166.377 720.15C167.378 718.788 168.498 717.83 167.79 715.691C167.478 714.757 168.206 712.181 171.25 712.559C170.377 714.068 169.769 715.109 169.117 716.241C169.861 716.75 170.529 717.204 171.327 717.746L171.328 717.74ZM208.125 529.69C208.513 529.969 209.132 530.215 209.446 530.665C211.185 533.153 210.336 535.156 208.14 536.845C207.41 537.405 206.663 537.948 205.922 538.499C205.931 537.447 205.722 536.333 206.004 535.357C206.539 533.485 207.359 531.698 208.125 529.69ZM116.685 1128.43C118.09 1132.32 117.157 1136.25 114.415 1138.01C112.945 1134.69 114.113 1129.75 116.685 1128.43ZM156.714 869.14C155.984 866.209 155.338 863.619 154.691 861.03C160.143 862.275 160.854 862.883 159.901 865.357C159.65 864.973 159.372 864.554 159.215 864.325C158.408 865.876 157.644 867.348 156.714 869.14ZM187.71 666.031C188.131 666.212 188.558 666.393 188.98 666.574C188.737 668.344 189.066 670.612 188.085 671.731C187.181 672.764 184.87 672.557 183.182 672.894L183.063 672.064C184.612 670.053 186.162 668.036 187.711 666.025L187.71 666.031ZM209.249 505.274C210.406 501.969 211.79 499.56 215.401 499.622C215.754 500.866 216.114 502.15 216.432 503.273C213.986 503.952 211.769 504.572 209.248 505.28L209.249 505.274ZM157.768 840.565C158.024 840.206 158.273 839.846 158.529 839.494C160.463 839.759 162.399 839.972 164.311 840.357C164.531 840.4 164.78 841.462 164.626 841.919C164.303 842.864 163.715 843.713 162.953 845.121C160.992 843.398 159.382 841.989 157.767 840.572L157.768 840.565ZM209.036 536.341C212.1 540.245 211.288 543.248 206.389 545.84C207.206 542.902 208.029 539.964 209.036 536.341ZM207.272 561.419C205.999 561.891 205.08 562.23 204.372 562.488C204.835 564.581 205.237 566.413 205.645 568.246C205.414 568.325 205.19 568.404 204.959 568.488C203.64 567.409 202.32 566.33 201.135 565.36C201.922 563.813 202.467 562.337 203.353 561.108C204.438 559.602 205.79 559.077 207.266 561.418L207.272 561.419ZM78.7868 1314.33C80.6237 1311.4 82.37 1308.6 84.538 1305.14C84.8515 1310.44 81.9394 1314.9 78.7868 1314.33ZM77.7527 1368.92L77.6336 1369.79C76.7899 1369.68 75.9558 1369.49 75.1126 1369.47C74.2187 1369.43 73.3166 1369.56 72.5155 1369.6C72.5147 1368.66 72.4378 1367.72 72.5394 1366.79C72.6688 1365.66 72.8334 1364.5 73.2476 1363.46C73.3352 1363.25 74.5689 1363.49 75.2754 1363.52C75.0753 1364.65 74.8681 1365.78 74.6807 1366.91C74.6555 1367.1 74.6937 1367.29 74.7011 1367.47C75.7325 1367.96 76.7386 1368.45 77.7518 1368.93L77.7527 1368.92ZM68.5281 1418.21L71.5187 1419.92C70.9283 1424.22 70.1951 1425.23 66.9973 1425.46C67.5158 1423 68.0316 1420.56 68.5272 1418.21L68.5281 1418.21ZM71.8097 1381.82C70.3452 1377.61 71.8638 1376.19 74.3331 1375.39C74.9422 1375.19 75.6317 1375.25 76.2869 1375.19C76.2624 1375.98 76.5454 1377.02 76.1497 1377.51C74.9852 1378.93 73.5469 1380.13 71.8106 1381.82L71.8097 1381.82ZM130.577 970.705C129.61 969.552 128.274 968.645 128.042 967.508C127.789 966.245 128.453 964.747 128.949 963.438C129.038 963.211 130.865 963.32 130.881 963.438C131.073 964.589 131.117 965.771 131.066 966.947C131.02 967.987 130.802 969.017 130.57 970.704L130.577 970.705ZM145.68 830.494C148.917 829.277 150.741 830.161 151.975 832.333C152.298 832.901 152.297 834.322 152.049 834.431C151.272 834.77 149.985 835.059 149.472 834.653C148.129 833.564 147.095 832.104 145.686 830.502L145.68 830.494ZM90.0557 1257.49L89.3949 1258.16C88.0023 1257.85 86.6106 1257.54 84.6033 1257.1L85.4215 1251.13L86.3921 1251.26L86.0217 1253.96C86.2689 1253.81 86.5107 1253.65 86.7579 1253.49C87.8611 1254.83 88.958 1256.16 90.0612 1257.49L90.0557 1257.49ZM154.491 890.49C154.598 890.841 154.705 891.192 154.812 891.542C152.394 892.781 151.697 896.783 147.347 895.65C148.768 893.77 149.822 891.976 151.292 890.633C151.898 890.077 153.398 890.502 154.492 890.484L154.491 890.49ZM97.7327 1180.08C98.1157 1182.14 98.5591 1183.86 98.6886 1185.6C98.7434 1186.33 98.3308 1187.5 97.7845 1187.76C97.2093 1188.05 96.1186 1187.66 95.4525 1187.24C94.9173 1186.9 94.6871 1186.08 94.6186 1185.97C95.7895 1183.74 96.7213 1181.99 97.7264 1180.08L97.7327 1180.08ZM132.71 961.692C132.447 959.42 132.34 958.501 132.182 957.109C134.187 956.912 136.066 956.73 137.945 956.555L137.994 957.518C136.436 958.745 134.885 959.974 132.71 961.692ZM156.031 859.178C156.965 857.219 158.129 855.704 160.318 857.181C160.933 857.595 161.303 859.707 160.913 860.054C159.169 861.599 157.511 860.828 156.031 859.178ZM109.223 1166.37C108.974 1166.01 108.724 1165.66 108.475 1165.31C112.201 1163.59 109.62 1160.83 109.92 1158.45C110.935 1159.58 111.563 1160.7 112.033 1161.89C112.445 1162.94 113.233 1164.74 112.875 1165.04C111.947 1165.82 110.479 1165.97 109.228 1166.37L109.223 1166.37ZM181.687 609.216C182.886 608.721 183.712 608.117 183.996 608.311C185.248 609.174 186.346 610.262 187.494 611.266C186.571 611.734 185.324 612.81 184.788 612.53C183.678 611.951 182.951 610.65 181.687 609.216ZM161.479 851.207C165.579 853.217 165.782 853.432 164.446 855.207C163.846 856.003 162.537 856.264 161.551 856.762C161.527 855.052 161.509 853.344 161.479 851.207ZM117.106 1032.82C116.928 1032.32 116.757 1031.83 116.579 1031.33C117.879 1030.38 119.179 1029.43 120.472 1028.48C120.715 1029.72 120.958 1030.97 121.201 1032.21C119.836 1032.42 118.471 1032.62 117.106 1032.82ZM189.119 571.978C190.862 570.007 192.33 568.353 193.796 566.706L194.742 567.398C193.731 569.586 192.727 571.775 191.581 574.241C190.525 573.269 189.864 572.668 189.112 571.977L189.119 571.978ZM73.232 1362.3C73.1466 1361.93 73.0612 1361.57 72.9758 1361.2C74.583 1360.22 76.1343 1359.14 77.8267 1358.34C78.3451 1358.1 79.2274 1358.64 79.9464 1358.81C79.7136 1359.43 79.6261 1360.44 79.2248 1360.59C77.2747 1361.28 75.24 1361.75 73.2384 1362.3L73.232 1362.3ZM107.069 1152.8L108.457 1153C108.226 1154.68 108.096 1156.39 107.685 1158.02C107.6 1158.36 106.453 1158.43 105.793 1158.62C105.652 1158 105.262 1157.31 105.425 1156.78C105.846 1155.41 106.507 1154.12 107.07 1152.79L107.069 1152.8ZM163.086 829.585C163.13 829.875 163.174 830.165 163.225 830.457L158.692 830.85C158.752 829.566 158.811 828.288 158.883 826.727C160.816 828.039 161.952 828.809 163.086 829.585ZM69.7987 1397.81C69.1953 1397.59 67.9046 1397.2 67.9231 1397.12C68.4718 1394.72 69.1457 1392.35 69.8068 1389.97C70.1496 1390.07 70.4933 1390.15 70.8361 1390.24L69.7987 1397.81ZM54.5932 1506.47C53.6909 1504.48 53.8616 1502.81 55.6817 1501.69C56.0769 1501.45 57.5725 1502.04 57.6599 1502.44C58.1592 1504.74 56.8927 1505.92 54.5932 1506.47ZM196.09 640.633C193.832 639.759 193.282 637.512 194.442 633.893C194.94 635.919 195.432 637.938 196.09 640.633ZM109.55 1173.22C109.601 1173.46 109.656 1173.71 109.707 1173.96C108.139 1174.46 106.569 1174.97 104.501 1175.63C105.005 1174.18 105.112 1173.4 105.514 1172.82C106.183 1171.85 107.034 1171.02 107.809 1170.13C108.045 1170.39 108.274 1170.64 108.51 1170.9C108.001 1171.46 107.485 1172.01 106.74 1172.83L109.55 1173.22ZM56.7994 1471.1C57.4255 1468.13 57.8982 1465.91 58.3646 1463.69L59.3354 1463.86C58.0227 1465.99 62.2731 1469.02 56.7994 1471.1ZM63.3725 1458.5C60.5012 1456.59 62.1072 1454.3 62.3763 1452.24C62.4093 1452 63.2963 1451.61 63.6212 1451.74C63.9778 1451.87 64.3946 1452.56 64.3479 1452.95C64.12 1454.75 63.7344 1456.53 63.3716 1458.51L63.3725 1458.5ZM115.142 1019.42C116.25 1019.07 117.202 1018.77 119.005 1018.21C118.206 1020.5 117.671 1022.04 117.136 1023.59C116.873 1023.58 116.611 1023.55 116.348 1023.54C115.97 1022.24 115.592 1020.94 115.147 1019.43L115.142 1019.42ZM57.7672 1431.32C56.5999 1428.9 55.7651 1427.16 54.88 1425.32C57.8272 1424.8 58.6364 1426.35 57.7672 1431.32ZM28.0244 1705.15C28.6917 1705.14 29.3526 1705.12 30.0199 1705.11C30.1914 1706.45 30.3638 1707.79 30.5353 1709.13C29.6155 1709 27.983 1709.03 27.9051 1708.7C27.6507 1707.59 27.9379 1706.34 28.018 1705.15L28.0244 1705.15ZM50.9148 1524.3C51.0913 1524.29 51.8004 1524.16 51.818 1524.22C52.3196 1526.12 52.7805 1528.04 53.1157 1529.98C53.1418 1530.12 52.0522 1530.71 51.6151 1530.6C51.2225 1530.5 50.7933 1529.71 50.7715 1529.21C50.7097 1527.73 50.8416 1526.25 50.9148 1524.3ZM171.929 750.935C176.376 752.198 176.844 753.031 175.034 755.859L171.929 750.935ZM100.881 1192.43L99.3027 1191.54C100.017 1190.24 100.73 1188.95 101.445 1187.65C101.919 1188.25 102.911 1189.02 102.777 1189.39C102.381 1190.49 101.548 1191.43 100.881 1192.43ZM157.893 792.18C157.382 791.754 156.877 791.336 156.367 790.911C157.077 789.877 157.708 788.768 158.577 787.898C158.704 787.767 159.93 788.724 160.649 789.184C159.73 790.183 158.812 791.181 157.885 792.185L157.893 792.18ZM72.3664 1316.33C72.7033 1316.18 73.0394 1316.04 73.3763 1315.9C74.0272 1316.66 75.3748 1317.82 75.2044 1318.12C74.5707 1319.25 73.4328 1320.1 72.4865 1321.07C72.1992 1320.85 71.9064 1320.63 71.619 1320.42C71.8639 1319.05 72.1152 1317.69 72.3601 1316.33L72.3664 1316.33ZM96.887 1232.92L95.4782 1233.44C94.6705 1231.84 93.8636 1230.23 93.0559 1228.62L94.6672 1227.9C95.4074 1229.57 96.1467 1231.25 96.887 1232.92ZM88.1326 1300.13C88.0588 1298.31 85.1621 1296.39 88.0504 1294.75C87.8308 1296.58 90.9052 1298.39 88.1326 1300.13ZM132.597 1011.6C133.144 1011.85 133.698 1012.1 134.246 1012.35C133.882 1013.44 133.519 1014.54 133.157 1015.62C132.476 1015.26 131.167 1014.72 131.211 1014.59C131.529 1013.55 132.106 1012.58 132.603 1011.6L132.597 1011.6ZM77.4709 1381.82C77.7874 1382.06 78.1047 1382.29 78.4211 1382.53C77.4211 1383.74 76.4211 1384.96 75.0487 1386.62C74.7083 1384.86 74.5356 1383.95 74.3761 1383.14C75.4872 1382.67 76.4818 1382.25 77.4764 1381.83L77.4709 1381.82ZM31.3225 1674.06C30.2289 1675.06 29.3866 1675.83 28.5371 1676.61C28.2919 1675.99 27.792 1675.35 27.8466 1674.76C27.9381 1673.81 28.3929 1672.9 28.7212 1671.87C29.5729 1672.59 30.1925 1673.11 31.3161 1674.06L31.3225 1674.06ZM151.432 839.361C151.602 839.106 151.767 838.845 151.938 838.59C153.078 839.231 154.362 839.717 155.289 840.594C155.615 840.904 155.057 842.145 154.793 843.55C153.353 841.75 152.392 840.559 151.437 839.368L151.432 839.361ZM140.571 898.695C140.392 894.483 140.71 894.281 144.167 895.796C142.874 896.84 141.719 897.767 140.571 898.695ZM144.808 865.194L145.629 865.752C145.188 866.991 144.747 868.229 144.307 869.461C144.012 869.395 143.712 869.322 143.417 869.256C143 868.339 142.59 867.417 142.078 866.293C143.139 865.863 143.974 865.525 144.801 865.193L144.808 865.194ZM200.29 576.902C201.731 575.109 202.877 573.677 204.029 572.251C204.341 572.52 204.659 572.796 204.971 573.065C204.763 575.428 203.181 576.458 200.29 576.902ZM134.171 994.172L134.387 993.025L137.55 992.528C137.408 993.472 137.271 994.422 137.129 995.366C136.144 994.965 135.158 994.565 134.172 994.165L134.171 994.172ZM130.317 957.183L129.57 956.835C129.687 955.978 129.693 955.087 129.953 954.277C130.185 953.572 130.701 952.964 131.094 952.313C131.388 953.097 132.033 953.954 131.881 954.638C131.678 955.553 130.866 956.34 130.312 957.176L130.317 957.183ZM227.667 393.641C228.526 392.415 229.537 390.983 230.541 389.551C230.877 390.023 231.22 390.49 231.556 390.963C231.223 393.489 229.592 394.067 227.667 393.641ZM87.8397 1237.16C87.5032 1237.54 87.1659 1237.93 86.8294 1238.31C86.1157 1237.81 84.889 1237.38 84.8078 1236.79C84.7002 1236.02 85.4956 1235.12 85.9019 1234.28C86.5457 1235.24 87.1959 1236.2 87.8397 1237.16ZM46.1665 1487.14C47.5279 1485.13 48.5345 1483.63 49.5474 1482.14C49.8811 1482.39 50.2221 1482.64 50.5558 1482.89C48.5552 1483.62 50.4734 1487.35 46.1665 1487.14ZM232.215 346.65L230.606 346.979C230.314 345.711 230.022 344.45 229.73 343.182C230.387 343.201 231.538 343.055 231.611 343.272C231.969 344.342 232.042 345.509 232.216 346.644L232.215 346.65ZM153.553 881.87C153.692 882.18 153.837 882.491 153.974 882.807C153.602 882.93 153.135 882.944 152.869 883.185C151.99 883.989 151.178 884.866 150.141 885.926C149.896 885.782 149.226 885.387 147.844 884.577C150.145 883.49 151.846 882.677 153.553 881.87ZM95.3227 1243.86L95.9853 1245.25C94.692 1245.68 93.4124 1246.15 92.0932 1246.49C91.9793 1246.52 91.6506 1245.71 91.4236 1245.29C92.723 1244.82 94.0224 1244.34 95.3219 1243.87L95.3227 1243.86Z" fill="#3435FF"/>
</g>
<defs>
<clipPath id="clip0_640_42">
<rect width="1774.55" height="71.9412" fill="white" transform="matrix(-0.135811 0.990735 0.990735 0.135811 241.003 0)"/>
</clipPath>
</defs>
</svg>
