<svg width="1142" height="591" viewBox="0 0 1142 591" fill="none" xmlns="http://www.w3.org/2000/svg">
<g clip-path="url(#clip0_392_1392)">
<path d="M602.735 352.467C602.842 350.897 602.933 349.322 603.09 347.758C603.12 347.543 603.422 347.262 603.768 347.222C605.947 346.966 605.908 345.944 605.52 344.663L608.977 345.617C608.767 345.224 608.768 344.972 608.584 344.894C607.128 344.276 605.625 343.696 604.018 343.056C604.376 341.522 604.656 340.044 605.051 338.586C605.366 337.435 604.434 336.112 605.632 335.05C606.033 334.685 605.737 334.057 606.916 333.872C607.528 333.774 608.248 333.305 608.12 333.002C607.635 331.852 609.067 330.776 606.759 329.502C606.127 329.152 606.526 328.164 606.642 327.507C606.725 327.02 607.335 326.623 607.312 326.129C607.252 324.784 608.123 323.886 610.622 323.627C610.174 323.003 611.023 322.26 608.897 322.019C608.675 321.992 608.199 321.431 608.219 321.428C610.178 320.894 608.67 319.095 610.753 318.619C610.799 318.607 610.733 318.496 610.675 318.323C610.209 318.199 609.664 318.057 609.138 317.913C609.104 317.785 609.039 317.646 609.04 317.52C609.237 314.952 609.646 312.424 610.686 310.022C611.047 309.211 610.902 308.279 611.113 307.419C611.549 305.731 612.086 304.057 612.632 302.197L614.5 303.562C614.374 302.98 614.469 302.678 614.236 302.44C612.73 300.912 612.835 299.494 613.142 298.079C613.178 297.956 613.082 297.735 613.204 297.721C615.792 297.292 613.997 295.427 615.521 294.652C615.729 294.548 615.536 294.206 615.537 293.98C615.49 293.117 615.458 292.259 615.416 291.389C615.336 289.695 616.926 288.58 619.178 287.501L616.547 286.987C616.717 285.708 616.744 284.445 617.107 283.256C617.215 282.885 618.25 282.717 618.953 282.423C618.622 282.117 617.891 281.699 617.866 281.357C617.844 281.061 618.506 280.771 619.02 280.605C621.152 279.938 621.131 279.967 619.627 278.485C619.22 278.082 619.046 277.566 619.09 277.156C619.185 276.177 619.597 275.247 619.642 274.261C619.668 273.8 619.16 273.256 618.74 272.47C617.023 273.255 616.832 274.338 616.084 275.194C614.365 277.133 612.656 279.083 611.022 281.058C610.206 282.055 609.616 283.125 608.831 284.132C607.853 285.373 606.745 286.564 605.782 287.81C605.421 288.297 605.389 288.89 605.027 289.377C604.056 290.684 604.28 292.461 601.292 293.003C600.95 293.063 600.652 293.363 600.693 293.584C601.185 296.251 598.84 298.156 597.32 300.277C595.659 302.613 593.858 304.912 592.033 307.194C591.12 308.322 590.014 309.386 589.002 310.473C588.853 310.623 588.501 310.796 588.591 310.925C589.772 312.59 587.848 313.478 586.74 314.443C584.314 316.557 584.19 319.303 582.345 321.561C580.978 323.226 579.581 324.881 578.249 326.549C577.218 327.836 576.197 329.136 575.271 330.458C573.35 333.169 571.569 335.916 569.603 338.613C568.967 339.469 567.861 340.182 567.134 341.01C566.605 341.622 566.325 342.325 565.955 342.998C564.903 344.864 563.926 346.756 562.793 348.605C561.782 350.242 560.616 351.837 559.53 353.449C558.748 354.601 558.056 355.783 557.215 356.916C555.877 358.716 554.359 360.459 553.076 362.286C551.647 364.31 550.368 366.382 549.094 368.447C548.04 370.142 547.26 371.917 546.047 373.551C543.313 377.206 540.28 380.763 537.546 384.418C534.996 387.826 533.019 391.438 530.135 394.719C527.278 397.964 524.947 401.453 520.466 404.079C517.912 405.564 515.179 406.965 511.704 407.863C510.966 408.055 510.014 408.061 509.144 408.129C508.255 408.2 507.224 408.135 506.486 408.328C503.585 409.078 500.663 409.182 497.209 407.723C496.359 407.366 495.104 407.327 494.033 407.167C487.989 406.29 484.035 403.578 484.054 400.347C484.052 399.85 483.727 399.311 483.618 398.807C483.374 397.709 483.16 396.62 482.916 395.521C482.768 394.869 482.55 394.212 482.422 393.557C482.005 391.365 481.411 389.161 482.6 387.185C482.945 386.594 483.137 385.836 482.766 385.183C481.585 383.094 482.124 381.367 483.529 379.751C483.753 379.499 483.958 379.124 483.747 378.857C482.155 376.869 484.74 375.492 483.763 373.704C483.214 373.291 482.113 372.67 482.261 372.52C483.322 371.468 481.36 369.503 484.439 369.063C484.648 369.032 484.747 368.749 484.735 368.565C484.564 367.093 484.443 365.629 484.11 364.15C483.991 363.633 483.311 363.096 484.462 362.849C484.575 362.822 484.354 362.444 484.197 362.23C484.116 362.114 483.677 361.953 483.71 361.909C484.729 360.437 484.323 358.556 486.364 357.21C486.125 357.006 485.74 356.673 485.34 356.335C485.752 356.081 486.173 355.84 486.548 355.61C486.465 355.421 486.442 355.278 486.325 355.159C485.758 354.596 485.171 354.035 484.433 353.325C486.153 352.362 485.76 350.989 484.922 349.363C484.34 348.218 485.039 347.003 485.469 345.898C485.778 345.106 486.114 344.503 485.06 343.52C484.039 342.565 485.035 341.952 487.282 342.106C486.253 340.887 487.654 339.928 485.93 338.744C485.561 338.489 486.015 337.753 486.441 337.405C487.55 336.512 487.631 335.628 485.5 334.591C486.901 333.632 488.871 332.857 486.642 331.176L490.369 331.217C486.269 327.898 486.864 325.621 490.092 324.58L486.796 322.984C486.423 322.059 488.749 322.357 489.785 321.639C489.188 320.94 488.462 320.09 487.774 319.289C488.812 319.068 489.945 318.995 490.609 318.652C491.299 318.3 491.544 317.694 492.131 317.029L489.563 316.58C489.604 316.449 489.623 316.275 489.73 316.13C489.892 315.912 490.397 315.607 490.284 315.535C488.061 314.071 490.164 313.818 491.714 313.259C491.025 312.484 490.074 311.688 489.685 310.884C489.323 310.145 489.565 309.394 489.554 308.633L493.495 309.059C493.04 308.37 492.761 307.819 492.299 307.29C491.909 306.839 491.305 306.425 490.666 305.884C491.354 305.783 492.364 305.751 493.084 305.508C493.902 305.233 494.881 304.866 495.025 304.372C495.161 303.939 494.456 303.385 492.944 303.117C491.446 302.855 491.214 301.941 491.802 301.276C492.223 300.809 492.774 300.393 493.239 299.967C491.413 298.82 491.114 297.745 492.341 296.744L495.017 297.273C494.824 296.281 495.104 295.254 494.331 294.416C493.684 293.71 493.567 293.166 493.539 292.553C493.526 292.296 493.762 292.003 493.543 291.797C491.526 289.806 492.463 288.244 493.428 286.619C493.921 285.806 494.508 284.915 493.407 283.844C494.641 282.334 494.244 280.59 493.676 278.801C493.566 278.449 494.42 278.15 494.755 277.799C495.413 277.139 495.766 276.514 495.051 275.524C494.236 274.393 494.078 273.178 495.922 272.498C497.102 272.062 497.659 271.512 496.36 270.557C496.012 270.3 495.883 269.897 495.887 269.592C495.965 267.534 495.436 265.342 497.996 263.849C498.547 263.533 498.668 262.995 499.056 262.472C497.148 261.535 496.491 260.618 498.033 259.794C495.611 258.347 498.034 257.639 498.062 256.575L500.971 256.765C498.305 253.895 497.25 251.36 500.325 249.223L498.448 247.719C500.276 246.736 498.369 244.447 501.564 243.675C501.502 243.483 501.503 243.231 501.317 242.981C500.308 241.561 500.147 240.301 501.249 239.118C501.696 238.641 501.79 237.815 501.293 237.256C500.137 235.933 500.577 235.066 502.017 234.354C503.639 233.547 504.048 232.346 504.53 230.997C502.39 230.047 501.519 228.916 502.368 227.624C502.955 226.733 501.542 225.281 503.95 224.892C504.012 224.885 504.048 224.762 503.989 224.716C502.348 223.144 503.977 222.403 505.711 221.597C504.99 221.29 504.425 221.124 504.051 220.876C503.022 220.235 502.59 219.49 504.017 219.296C505.709 219.071 505.71 218.368 505.082 217.686C504.195 216.703 504.236 215.796 504.484 215.012C505.093 213.091 504.943 211.04 505.571 209.143C505.734 208.673 506.388 208.318 506.913 207.813C505.059 205.802 505.547 202.516 508.626 198.072C505.614 196.794 507.623 195.617 507.432 194.347C507.285 193.343 507.501 192.376 507.546 191.39C507.547 191.138 507.453 190.864 507.49 190.614C507.778 188.499 508.48 186.428 508.274 184.251C508.029 181.727 509.676 179.36 507.357 176.548C505.867 176.577 505.57 177.202 505.118 177.686C504.218 178.646 503.608 179.593 501.409 180.049C500.023 180.337 498.98 181.567 499.079 182.51C499.213 183.906 498.067 184.723 496.482 185.154C494.2 185.773 493.898 187.081 493.336 188.188C493.008 188.829 492.414 189.303 491.929 189.831C491.332 190.484 490.146 190.954 489.725 191.647C488.94 192.978 486.959 193.893 487.16 195.6C487.234 196.301 485.722 197.035 484.476 197.359C483.236 197.677 483.093 198.271 482.627 198.822C482.082 199.456 480.718 200.04 480.964 200.661C481.496 201.998 479.232 202.217 479.07 203.21C479.021 203.501 478.278 203.701 478.362 203.962C478.684 205.032 478.141 205.712 476.885 206.376C475.93 206.886 474.598 207.552 475.854 208.791C476.111 209.046 475.731 209.607 475.297 209.791C473.368 210.56 473.737 212.015 472.998 213.136C472.41 214.027 471.804 214.767 470.189 215.315C468.795 215.789 467.323 216.645 467.586 217.993C467.664 218.388 467.263 218.853 466.771 219.089C465.726 219.57 465.711 220.241 466.149 220.979C466.643 221.816 466.366 222.339 465.213 222.739C464.544 222.963 464.164 223.425 463.791 223.827C463.062 224.609 462.601 225.504 461.732 226.223C460.691 227.074 460.215 227.965 460.394 229.151C460.565 230.297 460.255 231.441 457.975 231.781C457.705 231.819 457.579 232.039 457.46 232.199C455.825 234.399 454.221 236.609 452.601 238.814C450.783 241.261 448.915 243.701 447.187 246.177C445.768 248.213 444.513 250.302 443.154 252.357C442.496 253.343 441.168 254.155 442.018 255.513C442.198 255.797 441.64 256.148 441.308 256.419C439.833 257.679 438.172 258.887 438.566 260.711C438.604 260.885 438.578 261.121 438.381 261.21C434.977 262.789 435.327 265.572 433.665 267.709C431.9 269.984 430.545 272.383 429.02 274.736C428.046 276.223 427.108 277.712 426.119 279.193C425.723 279.776 425.937 280.64 424.289 280.68C425.305 282.166 422.111 282.911 423.711 284.487C424.594 285.352 424.146 285.828 423.048 286.255C422.223 286.59 421.398 287.025 421.054 287.563C419.284 290.296 417.649 293.073 415.983 295.84C414.871 297.687 413.745 299.53 412.662 301.387C411.636 303.144 410.609 304.902 409.677 306.682C409.061 307.861 408.636 309.084 408.146 310.295C408.021 310.588 408.095 310.964 407.802 311.184C406.209 312.451 406.305 314.151 405.619 315.65C405.451 316.001 405.432 316.527 404.961 316.635C403.01 317.109 403.532 318.334 402.875 319.193C401.076 321.565 400.899 324.456 397.601 326.367C396.586 326.957 396.462 328.025 395.867 328.851C395.241 329.72 394.484 330.537 393.902 331.421C393.07 332.692 392.312 333.987 391.604 335.29C391.146 336.132 390.691 336.994 390.504 337.898C390.133 339.599 388.066 340.603 386.329 341.715C385.135 342.471 383.356 342.938 381.929 343.583C380.476 344.237 378.642 344.352 376.612 344.331C375.336 344.322 374.169 344.591 372.437 344.794C371.921 344.562 370.935 344.088 369.901 343.652C369.404 343.445 368.569 343.092 368.312 343.162C366.083 343.734 364.513 342.267 362.648 341.849C361.756 341.649 360.632 340.408 360.58 339.751C360.479 338.086 360.765 336.448 361.182 334.861C361.678 332.967 362.531 331.143 363.077 329.256C363.325 328.372 363.076 327.38 363.249 326.471C363.336 326.004 363.875 325.629 364.193 325.201C364.387 324.939 364.856 324.659 364.71 324.404C363.479 322.281 364.318 320.651 366.381 319.276C366.517 319.194 366.593 319.066 366.609 318.944C366.735 317.498 366.456 315.946 367.053 314.616C367.632 313.362 368.766 312.261 368.084 310.75C368.002 310.561 367.983 310.311 368.145 310.192C370.152 308.718 369.461 306.644 369.993 304.851C370.305 303.781 371.024 302.788 371.561 301.764C372.048 302.31 372.525 302.845 373.098 303.5C373.813 303.264 374.405 303.069 375.022 302.864C374.09 302.29 373.317 301.804 372.41 301.247L371.598 301.839C371.63 297.891 373.174 294.236 374.189 290.491C375.192 286.814 376.53 283.209 377.695 279.639L380.123 279.825C378.905 277.986 378.006 276.241 381.86 275.585C379.022 274.173 380.251 272.969 380.69 271.777C381.206 270.358 382.126 269.043 382.641 267.624C383.092 266.391 383.243 265.087 383.533 263.82C383.585 263.575 383.564 263.253 383.847 263.147C384.889 262.746 386.012 262.436 385.541 261.417C385.467 261.267 386.726 261.099 387.402 260.941C384.69 259.534 386.006 258.313 386.221 257.148C386.532 255.553 387.435 254.062 388.117 252.543C388.404 251.907 388.756 251.282 389.148 250.679C389.464 250.205 390.387 249.838 389.142 249.135C388.935 249.013 388.837 248.72 388.93 248.57C389.697 247.287 390.509 246.018 391.286 244.747C391.45 244.476 391.56 244.178 391.579 243.878C391.664 240.984 393.179 238.42 394.547 235.826C394.984 235.013 396.057 234.47 395.789 233.354C395.553 232.294 396.101 231.156 397.397 230.388C398.366 229.81 398.296 229.003 398.554 228.23C399.438 225.488 400.563 222.798 401.613 220.083C401.883 219.368 402.294 218.69 402.519 217.961C402.781 217.108 402.717 216.168 404.404 215.824C404.665 215.774 404.988 215.564 404.918 215.433C404.096 213.785 405.309 212.503 405.738 211.1C406.373 209.044 406.725 206.868 408.169 205.075C409.291 203.664 408.896 201.993 409.93 200.625C410.985 199.256 411.986 197.859 412.876 196.435C413.711 195.111 413.179 193.423 415.337 192.421C415.963 192.129 415.347 191.081 415.343 190.385C415.353 187.719 418.3 185.829 418.9 183.319C419.144 182.29 419.435 181.248 420.049 180.321C421.469 178.159 420.879 175.523 422.977 173.501C424.036 172.475 424.28 171.121 424.952 169.942C425.26 169.402 425.728 168.896 426.262 168.177C425.359 167.991 424.21 167.761 423.271 167.573C421.467 169.826 421.716 172.495 418.696 174.181C418.213 174.457 418.145 174.948 417.844 175.328C416.328 177.269 414.757 179.184 413.285 181.139C411.77 183.18 410.329 185.245 408.873 187.304C408.174 188.294 407.611 189.328 405.729 189.834C405.19 189.983 404.686 190.486 404.828 190.821C405.6 192.56 404.023 193.607 402.776 194.761C401.571 195.856 400.421 196.979 399.216 198.075C398.778 198.464 398.236 198.819 397.617 199.276C398.406 200.417 398.433 201.508 396.53 202.141C396.18 202.262 395.602 202.389 395.608 202.581C395.669 204.377 393.172 205.385 392.806 207.079C392.531 208.351 391.677 209.525 390.9 210.696C390.144 211.839 389.233 212.94 388.237 214.005C387.823 214.438 387.09 214.849 386.243 214.987C384.691 215.249 384.185 215.805 384.767 216.698C385.34 217.579 384.891 217.884 383.716 218.313C382.64 218.711 382.387 219.702 381.906 220.474C381.54 221.067 381.736 221.88 381.099 222.312C379.985 223.086 379.548 223.999 379.063 224.977C378.198 226.742 376.827 228.388 375.397 229.987C374.97 230.462 373.622 230.6 372.322 230.997C372.33 231.162 372.605 231.693 372.316 232.032C370.753 233.886 370.319 235.972 370.16 238.138C370.118 238.621 369.385 239.131 368.631 239.345C365.511 240.241 365.326 242.092 364.905 243.885C364.81 244.314 364.739 244.76 364.488 245.147C363.307 246.963 361.837 248.666 361.013 250.625C360.15 252.689 357.743 254.376 356.034 256.227C354.888 257.468 355.033 259.076 353.571 260.268C352.146 261.436 351.559 262.976 350.158 264.161C348.3 265.711 348.486 267.738 347.476 269.474C347.24 269.866 347.079 270.283 346.729 270.629C344.697 272.663 342.981 274.774 341.696 277.079C340.693 278.88 338.754 280.413 337.195 282.061C335.508 283.856 333.812 285.639 332.05 287.41C331.519 287.95 330.783 288.414 330.123 288.902C329.751 289.177 329.108 289.392 329.012 289.721C328.351 292.013 324.648 292.917 322.648 294.584C322.447 294.753 321.952 294.844 321.52 294.875C315.598 295.237 309.544 295.024 303.264 293.439C299.789 292.56 295.982 289.823 298.809 287.795C295.815 286.144 296.665 284.473 296.861 282.832C297.014 281.475 297.904 280.277 297.108 278.72C296.797 278.113 297.904 277.473 298.509 276.659C297.535 275.017 296.927 274.683 300.311 274.108C298.809 273.276 296.967 272.451 298.392 271.409C297.377 269.32 298.625 267.616 299.033 265.765C299.314 264.486 299.229 263.124 299.575 261.857C299.837 260.878 301.384 260.147 300.13 258.881C301.537 256.337 300.255 253.205 302.661 250.868C303.037 250.513 302.974 249.897 302.748 249.4C302 247.677 303.146 246.436 304.421 245.219C304.623 245.023 305.285 244.833 305.193 244.731C303.902 243.265 305.605 242.124 304.811 240.765C304.28 239.853 304.69 239.301 305.475 238.745C305.771 239.022 306.057 239.313 306.396 239.658C307.538 238.671 307.807 237.866 307.204 237.243C307.247 238.086 307.102 238.833 305.377 238.776C305.68 237.892 305.984 237.008 306.272 236.119C306.354 235.884 306.549 235.596 306.357 235.38C304.483 233.246 307.016 232.114 307.925 230.615C308.225 230.136 308.642 229.649 308.59 229.118C308.491 228.076 308.286 227.125 309.99 226.508C310.85 226.202 310.954 225.361 311.472 224.664L309.401 223.746C310.448 222.338 311.503 220.968 312.473 219.561C312.646 219.329 312.456 218.934 312.252 218.633C311.271 217.249 311.536 216.091 312.696 215.08C312.807 214.981 313.069 214.904 313.033 214.802C312.56 213.061 313.617 211.638 313.997 210.075C314.401 208.43 315.466 206.946 315.654 205.267C315.788 204.084 316.255 202.956 316.606 201.807C316.726 201.396 316.901 200.984 317.146 200.604C317.293 200.381 317.946 200.179 317.825 200.04C316.099 198.008 319.41 196.805 318.318 194.871C318.093 194.473 318.438 194.009 318.698 193.633C320.033 191.787 321.788 190.05 321.692 187.827C321.658 186.896 321.453 185.945 321.305 184.743C320.631 184.974 320.305 185.012 320.218 185.129C318.791 186.774 317.344 188.422 316.031 190.114C315.659 190.615 315.701 191.26 315.568 191.839C315.524 192.023 315.685 192.282 315.507 192.396C313.454 193.783 313.508 195.938 311.664 197.295C309.384 198.987 308.95 201.172 307.283 202.992C306.382 203.979 305.252 204.874 304.441 205.89C302.529 208.289 299.673 210.406 299.514 213.349C299.495 213.649 299.205 213.915 298.96 214.169C298.04 215.132 296.76 216.005 296.26 217.078C295.745 218.172 295.377 219.243 294.395 220.24C293.126 221.522 292.783 223.16 291.868 224.593C291.464 225.237 290.62 225.747 290.176 226.143C289.588 227.512 289.282 228.774 288.507 229.892C287.851 230.851 286.665 231.646 285.724 232.512C285.613 232.611 285.391 232.71 285.427 232.812C286.077 234.665 283.421 235.612 283.164 237.26C283 238.307 281.525 239.116 280.672 240.038C280.108 240.648 279.407 241.24 279.138 241.928C278.311 244.093 277.789 246.322 275.59 248.131C274.885 248.704 275.295 249.73 274.887 250.454C273.142 253.529 271.387 256.592 269.397 259.596C268.631 260.753 267.125 261.679 266.113 262.765C265.549 263.375 265.293 264.094 264.983 264.787C264.673 265.479 264.554 266.216 264.199 266.894C263.75 267.749 263.131 268.557 262.577 269.378C262.334 269.704 262.247 270.172 261.749 270.317C258.693 271.251 259.02 273.189 258.552 274.921C258.236 276.071 257.549 277.146 256.913 278.228C255.749 280.221 254.51 282.189 253.301 284.167C252.754 285.053 252.314 285.92 251.062 286.63C249.721 287.384 248.965 288.527 248.444 289.629C247.161 292.331 245.165 294.792 242.81 297.137C240.667 299.27 238.569 301.419 235.62 303.236C232.764 305.002 228.733 305.646 224.188 305.231C221.808 305.005 219.21 304.647 216.757 304.244C214.549 303.886 212.327 302.847 210.285 301.966C209.356 301.564 208.584 300.826 208.187 300.209C207.174 298.644 206.283 297.065 206.813 295.551C206.922 295.253 207.1 294.914 206.896 294.613C205.643 292.744 206.881 291.353 207.724 289.869C207.966 289.442 208.051 288.902 207.835 288.417C206.652 285.804 206.995 283.364 207.399 280.943C207.706 279.078 208.124 277.239 208.562 275.397C208.916 273.944 209.979 273.19 212.062 272.813C208.871 271.251 208.769 269.586 209.487 267.944C209.735 267.384 210.111 266.929 209.885 266.206C209.655 265.464 210.568 264.761 211.139 263.792C209.767 262.561 209.896 261.16 210.587 259.78C210.876 259.216 210.845 258.556 210.963 257.946C211.036 257.572 210.807 257.029 211.195 256.858C212.695 256.165 212.816 255.302 211.708 254.139C211.573 253.996 212.061 253.74 212.167 253.621C213.11 253.829 214.321 254.278 214.661 254.145C215.651 253.764 214.953 252.95 214.005 252.651C211.897 251.982 212.197 251.178 212.168 250.366C212.134 249.336 212.392 248.338 212.211 247.305C211.965 245.908 212.725 245.11 215.648 245.232C215.124 244.836 214.504 244.544 214.464 244.296C214.228 242.587 214.071 240.895 214.006 239.206C213.979 238.566 214.593 237.99 214.399 237.35C213.93 235.754 215.871 234.718 215.652 233.185C215.439 231.719 218.33 230.757 215.745 228.779C216.917 228.629 217.798 228.519 218.787 228.39C218.647 228.227 218.564 228.038 218.353 227.897C217.966 227.617 217.119 227.306 217.147 227.117C217.356 225.534 216.421 223.814 217.471 222.325C218.363 221.074 219.195 219.704 219.123 218.273C219.047 216.824 219.098 215.605 221.672 215.018C218.053 212.28 220.56 210.382 221.544 208.331C221.806 207.803 221.873 207.337 221.899 206.778C221.97 204.303 222.258 201.863 222.647 199.437C222.864 197.993 223.328 196.593 223.786 195.2C224.136 194.178 224.802 193.232 225.052 192.195C225.264 191.308 225.155 190.353 225.071 189.415C225.021 188.956 224.908 188.658 225.805 188.427C226.43 188.261 226.423 187.519 226.614 187.013C227.126 185.647 225.66 183.916 227.474 182.775C227.719 182.621 227.22 182.116 227.289 181.822C227.549 180.672 227.94 179.545 228.214 178.399C228.394 177.682 228.584 176.951 228.583 176.202C228.581 174.776 230.323 173.684 229.337 172.083C229.304 172.027 229.343 171.949 229.41 171.908C232.232 170.437 230.512 167.947 231.349 166.02C231.88 164.804 231.604 163.398 231.885 162.118C232.014 161.52 232.336 160.786 233.107 160.523C234.778 159.976 234.499 159.101 234.423 158.102C234.257 155.821 234.48 153.594 235.672 151.538C235.985 151.018 235.667 150.319 235.775 149.723C235.852 149.243 236.201 148.825 236.308 148.354C236.595 147.041 236.823 145.709 237.065 144.381C237.265 143.211 237.43 142.038 237.654 140.56C236.72 141.392 236.361 142.375 235.274 142.562C233.508 142.862 233.822 143.74 233.292 144.379C233.023 144.715 233.144 145.178 232.945 145.546C232.444 146.447 231.876 147.335 231.309 148.224C229.825 150.572 228.476 152.964 226.822 155.266C224.903 157.924 222.705 160.482 220.667 163.1C220.429 163.42 220.452 163.815 220.275 164.154C220.054 164.551 219.985 165.169 219.444 165.272C216.26 165.904 217.361 167.876 216.474 169.22C216.312 169.438 216.364 169.743 216.104 169.893C215.267 170.369 214.107 170.704 213.469 171.262C212.82 171.835 213.082 172.759 211.269 172.872C210.837 172.903 210.379 173.719 210.649 173.906C213.581 175.943 211.123 177.099 209.843 178.17C208 179.725 207.531 181.584 206.72 183.376C206.112 184.72 205.704 186.12 205.201 187.498C205.142 187.677 205.071 187.898 204.84 187.985C202.129 188.905 202.372 190.68 201.832 192.308C201.212 194.144 199.685 195.775 198.538 197.494C198.31 197.825 197.866 198.122 197.855 198.488C197.809 199.727 197.667 200.844 195.301 201.3C194.693 201.418 194.831 202.283 194.58 202.797C193.996 204.058 193.8 205.473 192.714 206.535C190.546 208.652 191.509 211.662 188.443 213.486C188.665 215.164 186.232 215.535 184.647 216.092C184.724 216.964 184.968 217.738 184.819 218.438C184.449 220.239 182.66 221.595 181.456 223.141C180.37 224.528 178.006 225.707 179.509 227.314C178.912 228.418 178.483 229.171 178.089 229.927C177.934 230.21 177.981 230.622 177.62 230.757C174.74 231.83 175.214 233.896 174.725 235.631C174.5 236.459 174.329 237.215 173.303 237.72C171.661 238.529 171.201 239.623 171.055 240.946C170.839 242.914 170.495 244.93 167.674 246.149C167.451 246.248 167.351 246.458 167.312 246.635C167.022 248.453 165.405 249.928 164.96 251.704C164.916 251.888 165.138 252.141 165.03 252.286C163.588 254.152 161.961 255.967 160.654 257.876C159.644 259.36 158.284 260.766 157.672 262.316C156.419 265.479 154.047 268.296 152.241 271.279C151.114 273.121 150.036 274.998 147.788 276.421C144.967 278.216 141.893 279.75 136.266 279.189C132.979 278.858 129.732 278.973 126.777 278.894C125.466 278.206 124.447 277.55 123.249 277.06C120.696 276.04 120.062 274.841 120.366 273.506C120.401 273.383 120.393 273.244 120.488 273.14C121.855 271.701 121.611 269.953 121.582 268.239C121.573 267.551 121.827 266.858 122.234 266.26C123.539 264.277 123.88 262.116 124.218 259.909C124.581 257.619 125.752 255.466 126.692 253.274C127.225 252.032 127.963 250.838 128.68 249.647C128.971 249.156 129.477 248.725 129.863 248.256C130.03 248.031 130.284 247.789 130.209 247.539C129.415 244.828 131.01 242.606 132.068 240.281C132.677 238.91 133.441 237.581 134.191 236.247C134.29 236.063 134.584 235.843 134.888 235.834C137.084 235.782 136.927 234.992 136.634 233.958C136.114 232.13 135.993 230.341 137.344 228.797C137.975 228.074 138.448 227.362 138.12 226.326C137.851 225.436 138.882 224.599 139.381 223.752C139.606 223.374 140.092 223.046 140.171 222.639C140.54 220.865 140.769 219.055 141.109 217.272C141.206 216.789 141.356 216.288 141.758 215.896C142.68 215.006 144.986 214.53 143.302 212.918C143.18 212.806 143.43 212.545 143.652 212.446C145.392 211.606 145.168 210.405 144.966 209.05C144.85 208.255 145.583 207.393 145.775 206.509C146.134 204.849 146.204 202.978 147.683 201.738C149.474 200.229 148.483 198.183 149.954 196.679C150.506 196.11 149.605 194.87 150.33 194.52C152.722 193.378 150.45 190.979 153.039 189.973C153.095 189.946 153.11 189.852 153.077 189.796C151.599 187.205 154.364 185.535 155.072 183.43C156.239 179.932 157.42 176.439 158.807 172.995C159.921 170.22 161.38 167.53 162.634 164.791C163.066 163.858 163.248 162.863 163.66 161.933C164.044 161.066 164.663 160.257 165.011 159.388C165.374 158.523 165.323 157.541 165.821 156.721C166.603 155.442 166.057 153.849 167.698 152.742C168.56 152.157 168.983 151.212 168.91 150.359C168.795 148.888 169.386 147.691 170.503 146.513C171.354 145.618 171.338 144.413 171.825 143.382C172.386 142.176 173.082 141.013 173.718 139.832C173.901 139.486 174.149 139.152 174.222 138.778C174.811 135.832 175.591 132.93 178.088 130.47C177.198 128.313 179.964 126.968 179.997 125.121C180.025 122.506 182.257 120.528 182.887 118.127C183.389 116.225 184.565 114.516 185.822 112.824C186.232 112.273 187.144 111.596 185.844 110.667C182.935 111.605 181.657 113.199 180.205 114.729C179.727 115.222 178.795 115.55 178.272 116.029C177.465 116.74 176.736 117.495 176.148 118.286C174.509 120.494 172.318 122.441 169.211 124.044C167.889 124.723 166.817 125.69 166.376 126.71C165.489 128.73 162.705 129.924 161.178 131.654C160.35 132.593 158.863 133.317 159.209 134.629C159.27 134.848 158.861 135.048 158.645 135.239C157.42 136.337 156.2 137.428 154.966 138.514C152.06 141.049 149.104 143.576 146.243 146.125C145.71 146.592 145.31 147.156 145.207 147.745C145.034 148.879 144.343 149.709 142.45 150.129C141.713 150.295 140.885 150.684 140.81 151.11C140.511 152.789 138.519 153.818 137.165 155.091C135.471 156.694 133.229 158.11 132.04 159.861C130.733 161.77 128.484 163.22 126.656 164.88C124.934 166.447 123.465 168.124 121.782 169.713C119.973 171.423 118.123 173.112 116.1 174.734C114.686 175.861 113.02 176.852 112.352 178.302C111.999 179.053 110.61 179.521 109.965 180.213C107.634 182.7 105.958 185.482 102.967 187.655C100.705 189.299 100.033 191.605 96.6819 192.786C95.7041 193.126 95.3186 193.921 94.7486 194.538C93.1035 196.301 91.5183 198.085 89.8583 199.844C87.3891 202.466 85.4728 205.296 81.9633 207.517C81.5516 207.771 81.358 208.131 81.0853 208.448C77.8957 211.991 74.8409 215.577 71.4975 219.051C69.9776 220.622 67.7456 221.924 66.0964 223.443C64.6054 224.824 63.4672 226.356 62.1505 227.803C61.9318 228.047 61.5537 228.231 61.305 228.466C60.4451 229.223 59.7091 230.038 58.7497 230.754C56.6524 232.325 54.4652 233.867 52.2589 235.385C51.9815 235.584 51.3009 235.623 50.7629 235.647C47.0625 235.821 43.4538 235.647 39.6353 234.178C38.0025 233.548 36.0269 233.328 34.3642 232.462C30.9 230.667 30.4795 228.88 33.6448 227.773C35.4823 227.127 37.7535 226.748 39.279 225.946C42.0401 224.483 45.2145 223.064 46.7105 221.125C48.4264 218.915 51.8691 217.611 53.7761 215.544C55.6777 213.485 58.5257 211.779 60.8413 209.864C61.6784 209.163 62.043 208.272 62.8706 207.558C64.7163 205.95 66.8004 204.446 68.6066 202.816C69.9843 201.587 70.7367 200.074 72.3815 198.986C74.2727 197.717 75.1587 196.049 77.3984 194.912C78.6951 194.243 78.949 193 79.906 192.112C81.8404 190.334 84.0187 188.654 85.9286 186.859C87.1978 185.676 88.3281 184.43 89.2081 183.12C89.7403 182.329 91.1527 182.906 91.3319 182.865C91.8067 181.775 91.7633 180.832 92.5525 180.296C93.5718 179.6 93.8848 178.728 94.5926 177.975C95.5977 176.923 96.8118 175.839 98.5379 175.193C99.5481 174.809 99.9687 174.468 100.437 173.863C101.998 171.838 102.626 169.49 105.684 167.952C107.078 167.252 107.693 166.099 108.781 165.209C110.607 163.703 111.371 161.724 113.525 160.451C115.936 159.008 116.207 156.941 118.08 155.396C119.238 154.438 120.535 153.544 121.648 152.572C122.533 151.805 123.33 150.982 123.997 150.135C124.674 149.274 124.667 148.081 125.763 147.482C130.048 145.144 131.089 141.515 135.164 139.109C136.528 138.299 136.91 137.008 139.237 136.63C139.722 136.553 139.488 135.692 139.645 134.905L143.639 132.932C142.257 131.914 143.017 131.142 143.667 130.317C146.399 126.815 149.579 123.486 153.6 120.476C154.072 120.115 154.182 119.592 154.605 119.198C155.769 118.107 156.844 116.96 158.286 115.996C160.172 114.734 161.129 113.17 162.346 111.682C165.013 108.393 168.276 105.352 172.389 102.67C174.169 101.5 175.568 100.242 176.047 98.6215C176.159 98.2703 176.354 97.8829 176.794 97.6655C180.096 95.9994 181.714 93.6223 184.051 91.5519C185.724 90.0766 187.58 88.6791 189.352 87.2452C189.458 87.1533 189.668 87.0955 189.853 87.0474C193.929 86.1656 195.826 84.1138 198.057 82.2614C199.41 81.1418 201.737 81.3134 204.1 81.4876C204.559 81.52 205.253 81.8631 205.468 81.798C208.356 80.7904 210.878 82.8021 213.582 83.1684C214.07 83.2372 214.593 83.7593 215.014 84.0946C215.292 84.3206 215.29 84.6987 215.623 84.852C219.253 86.5483 218.17 87.9812 217.266 89.5986C215.534 92.7317 214.181 95.9795 212.664 99.1736C212.45 99.6362 212.47 100.31 211.864 100.5C209.912 101.1 209.836 102.103 209.987 103.352C210.094 104.135 209.277 104.834 208.858 105.573C208.737 105.786 208.368 106.008 208.495 106.212C209.28 107.558 208.307 108.567 207.782 109.65C206.023 113.27 204.806 117.085 202.133 120.408C200.088 122.961 199.938 125.916 198.167 128.45C197.003 130.118 196.993 132.008 196.04 133.691C195.05 135.425 193.824 137.1 192.959 138.865C191.537 141.756 190.434 144.743 188.996 147.629C187.764 150.114 186.212 152.503 184.885 154.966C184.387 155.886 184.17 156.879 183.762 157.829C182.161 161.536 180.509 165.237 178.937 168.954C178.028 171.129 177.254 173.348 176.41 175.535C176.324 175.777 176.306 176.051 176.09 176.242C173.949 177.998 174.2 180.388 173.021 182.376C172.065 184.013 171.156 185.637 170.516 187.35C170.014 188.701 169.542 190.063 168.885 191.373C168.263 192.586 165.941 193.182 167.165 195.114C167.955 196.354 166.559 197.757 165.969 199.053C164.893 201.453 163.646 203.807 162.56 206.194C161.981 207.475 161.526 208.788 161.131 210.121C160.272 212.979 158.814 215.643 156.804 218.198C155.589 219.759 155.755 221.788 155.318 223.603C155.162 224.264 155.16 224.967 154.878 225.597C154.047 227.392 152.593 229.073 152.341 230.966C152.158 232.313 152.216 233.612 150.94 234.703C150.618 234.986 151.661 235.786 151.495 236.209C150.847 237.883 150.143 239.557 149.11 241.123C148.37 242.244 147.698 243.323 147.508 244.605C147.193 246.631 146.286 248.554 145.645 250.518C145.555 250.814 145.466 251.109 145.258 251.79C146.144 251.448 146.894 251.34 146.924 251.124C147.137 248.759 150.275 247.265 150.663 244.965C152.829 244.102 152.035 242.391 152.897 241.157C154.051 239.503 154.354 237.618 156.085 236.09C157.593 234.759 158.153 233.03 159.11 231.466C159.242 231.238 159.126 230.894 159.39 230.764C162.906 228.96 162.015 225.829 163.997 223.561C164.756 222.69 165.482 221.863 167.796 221.777C164.415 219.144 167.446 217.642 168.684 215.926C169.624 214.635 171.687 213.711 172.895 212.86C172.993 211.702 172.764 210.734 173.2 209.947C173.817 208.841 174.924 207.876 175.807 206.838C175.915 206.692 176.187 206.502 176.071 206.383C175.017 205.273 175.983 204.523 176.496 203.707C178.138 201.122 178.715 198.217 181.603 195.983C182.6 195.216 183.054 194.129 183.243 193.099C183.752 190.235 186.53 188.073 188.048 185.529C189.211 183.563 189.869 181.451 190.987 179.47C191.659 178.291 192.616 177.178 193.721 176.14C194.949 174.989 196.093 173.874 196.348 172.378C196.521 171.371 197.46 170.432 198.537 169.683C199.317 169.134 199.782 168.708 199.283 167.878C199.033 167.463 199.242 166.981 199.457 166.591C200.198 165.219 200.696 163.748 201.9 162.553C203.687 160.773 204.116 158.568 206.835 157.036C208.513 156.104 208.7 154.325 209.363 152.882C209.656 152.238 209.652 151.767 211.279 151.63C212.23 151.552 212.944 150.314 212.736 149.543C212.223 147.681 213.417 146.374 214.814 145.044C215.312 144.575 215.496 143.976 215.744 143.417C215.906 143.073 215.73 142.61 216.056 142.346C218.055 140.706 218.086 138.462 219.874 136.781C220.292 136.394 221.351 136.27 222.399 135.935C221.504 133.335 222.979 130.974 224.673 128.694C225.514 127.562 226.825 126.573 227.637 125.43C228.659 124.005 229.276 122.447 230.268 121.012C232.025 118.473 233.966 115.985 235.797 113.47C236.887 112.003 237.481 110.402 239.002 109.031C239.736 108.368 239.702 107.212 240.299 106.333C241.83 104.072 243.176 101.76 244.707 99.4989C246.139 97.3953 247.737 95.3453 249.169 93.2418C249.723 92.4211 250.405 91.5789 250.41 90.67C250.411 88.8667 251.375 87.5936 254.471 87.1317C255.2 87.0264 255.799 86.7706 256.579 86.8982C258.142 87.0466 259.706 87.195 261.259 87.3313C263.656 87.5346 266.061 87.7767 267.818 89.1422C269.139 90.1676 271.07 90.9227 271.805 92.262C272.337 93.2471 272.333 93.904 271.578 94.5691C269.525 96.4073 268.456 98.5212 267.556 100.735C266.444 103.484 267.428 106.564 266.176 109.276C265.009 111.773 264.078 114.328 263.096 116.876C262.315 118.904 261.725 120.975 260.915 122.992C259.883 125.533 260.297 128.355 258.722 130.8C258.085 131.783 258.242 132.998 257.95 134.093C257.496 135.73 257.366 137.483 256.376 138.964C254.757 141.394 254.99 144.185 254.044 146.735C253.565 148.031 253.973 149.535 252.216 150.523C251.868 150.716 252.193 151.255 252.17 151.635C252.044 153.632 252.041 155.615 250.527 157.376C249.634 158.429 249.921 159.92 249.821 161.231C249.676 163.078 249.914 164.986 249.514 166.776C249.022 168.916 248.022 170.962 247.219 173.045C246.311 175.419 245.489 177.802 245.072 180.291C244.532 183.496 243.463 186.611 242.552 189.741C241.898 191.972 241.115 194.179 240.426 196.407C240.141 197.342 239.92 198.29 239.655 199.348L237.071 199.797C237.519 200.321 237.781 200.794 238.275 201.181C239.861 202.4 239.782 203.457 239.165 204.564C238.592 205.585 238.339 206.702 237.951 207.775C237.614 208.73 237.292 209.689 236.939 210.638C236.629 211.457 235.925 212.229 236.033 213.085C236.208 214.476 235.284 215.32 233.168 215.741C233.743 217.019 234.282 218.196 234.811 219.387C234.893 219.576 235.065 219.821 234.952 219.947C233.551 221.483 234.109 223.46 232.991 225.116C232.177 226.311 231.461 227.801 232.59 229.485C233.051 230.167 232.986 230.93 232.864 231.594C232.39 233.911 232.02 236.261 231.164 238.489C230.228 240.926 230.645 243.569 230.147 246.067C229.629 248.666 228.96 251.244 228.237 253.795C227.837 255.234 228.349 256.898 226.581 258.026C226.325 258.195 226.644 258.642 226.68 258.969C226.808 260.174 227.049 261.326 226.243 262.461C225.447 263.609 225.777 265.141 225.912 266.537C226.023 267.764 226.187 268.945 225.384 270.027C224.995 270.55 225.003 271.265 225.212 271.91C225.62 273.188 225.144 274.205 223.766 274.983C222.909 275.461 222.868 276.016 223.454 276.73C224.284 277.74 223.9 278.507 222.952 279.208C222.501 279.54 222.213 280.077 222.354 280.538C223.244 283.371 223.076 286.075 223.21 288.824C223.264 290.077 223.641 291.373 223.966 293.138C225.414 292.166 226.504 291.574 227.321 290.875C229.223 289.241 231.087 287.584 232.775 285.861C233.768 284.85 234.433 283.705 235.177 282.603C237.05 279.832 238.923 277.06 240.752 274.274C241.736 272.773 242.661 271.252 243.616 269.742C244.942 267.657 246.297 265.583 247.592 263.488C248.325 262.302 248.842 261.055 249.635 259.888C250.323 258.886 251.137 257.915 253.175 257.551C253.563 257.479 253.846 257.273 254.122 257.102C255.296 256.348 255.197 255.955 253.712 254.975C254.251 253.925 254.641 252.924 255.245 251.985C256.237 250.45 257.393 248.969 258.384 247.434C258.988 246.521 259.602 245.594 259.89 244.606C260.784 241.651 263.342 239.309 266.394 237.129C266.702 236.914 267.001 236.587 266.897 236.301C265.978 233.558 268.205 231.586 269.7 229.449C269.982 229.045 270.862 228.836 271.609 228.457C271.067 227.234 270.646 225.997 273.197 225.367C274.043 225.155 274.203 224.089 274.135 223.354C273.973 221.769 275.288 220.826 277.422 220.105C276.764 219.089 276.693 218.209 278.467 217.722C278.98 217.583 279.027 216.994 279.091 216.582C279.391 214.777 280.62 213.247 281.651 211.635C283.484 208.742 286.402 206.166 287.21 202.849L288.825 203.429C289.452 203.011 289.712 202.537 289.358 201.736C289.063 201.081 289.048 200.201 289.678 199.803C291.171 198.846 291.692 197.618 292.324 196.417C292.85 195.434 293.174 194.421 294.851 193.867C295.442 193.672 295.938 193.229 295.941 192.824C295.941 190.272 298.759 188.656 300.49 186.676C300.763 186.359 301.072 186.018 301.083 185.652C301.111 183.587 302.97 182.136 304.641 180.588C305.587 179.715 306.517 178.764 306.827 177.72C307.21 176.429 308.868 175.95 310.077 175.523C310.216 174.486 309.925 173.526 310.511 172.887C312.323 170.898 314.024 168.909 314.839 166.586C315.347 165.101 316.797 163.824 317.886 162.483C318.99 161.147 320.109 159.816 321.358 158.537C321.883 158.004 322.782 157.621 323.422 157.135C323.816 156.83 324.076 156.455 324.316 156.082C325.043 154.903 325.635 153.68 326.437 152.525C328.045 150.236 330.544 148.299 332.973 146.33C333.778 145.673 334.052 144.779 334.609 144.004C335.17 143.249 335.514 142.36 336.451 141.8C337.8 140.985 339.26 140.397 342.299 141.062C344.877 141.622 347.659 141.707 350.382 142.423C353.651 143.279 355.991 144.961 355.426 146.698C354.967 148.118 353.745 149.361 352.935 150.702C352.563 151.303 352.296 151.937 352.115 152.582C351.676 154.125 351.471 155.727 350.906 157.238C350.325 158.771 350.104 160.421 348.202 161.579C348.025 161.692 348.024 161.944 348.106 162.134C349.389 165.013 347.131 167.227 346.6 169.768C346.339 171.072 345.961 172.356 345.414 173.593C344.651 175.347 343.657 177.034 342.849 178.773C342.59 179.347 342.677 180.006 342.513 180.602C342.244 181.615 342.02 182.642 341.546 183.606C341.44 183.824 340.443 183.815 340.172 183.853C339.863 185.646 339.816 187.461 339.168 189.135C338.72 190.315 337.61 191.333 338.72 192.767C338.854 192.937 338.801 193.209 338.629 193.315C335.58 195.091 336.196 197.816 335.36 200.168C334.983 201.227 334.85 202.383 334.098 203.319C332.113 205.766 332.575 208.775 331.051 211.327C330.24 212.668 329.454 214.026 328.995 215.446C327.559 219.857 326.329 224.317 324.928 228.73C324.557 229.881 323.775 230.934 323.368 232.082C322.783 233.695 322.425 235.355 321.885 236.982C321.563 237.942 320.929 238.844 320.672 239.816C319.672 243.665 318.708 247.518 317.888 251.399C317.509 253.187 317.541 255.046 317.306 256.864C317.239 257.355 316.959 257.832 316.64 258.261C315.497 259.8 315.754 261.606 315.489 263.315C315.124 265.685 314.611 268.052 313.704 270.299C313.247 271.44 312.518 272.447 313.716 273.838L311.539 274.365C312.169 274.768 313.075 275.126 313.132 275.425C313.368 276.584 313.408 277.733 313.396 278.874C313.386 280.215 313.255 281.543 313.184 282.989C315.929 283.126 316.368 281.808 317.173 281.051C320.252 278.158 322.913 275.101 325.598 272.062C326.618 270.915 327.094 269.573 328.173 268.446C328.785 267.797 329.075 266.882 330.909 266.767C331.279 266.743 331.417 266.157 331.423 265.798C331.547 263.53 332.944 261.649 334.609 259.783C336.167 258.036 337.89 256.343 338.752 254.306C339.739 251.976 341.843 249.92 343.499 247.691L345.886 248.233L344.84 245.711C346.49 244.066 346.36 241.462 350.852 240.923C350.409 240.292 349.657 239.677 349.782 239.258C349.921 238.771 350.783 238.412 351.472 238.086C351.906 237.876 352.872 237.928 353.146 237.684C353.791 237.092 353.291 236.713 351.428 236.818C352.469 235.417 353.401 234.187 354.308 232.941C354.626 232.512 354.715 232.018 355.063 231.599C355.342 231.248 355.801 230.956 356.215 230.649C356.504 230.436 357.22 230.273 357.154 230.062C356.487 228.005 359.218 226.982 360.23 225.445C360.595 224.879 361.334 224.434 361.593 223.761C361.8 223.206 363.02 222.891 363.913 222.415L362.282 221.956C363.075 220.889 363.814 219.795 364.682 218.752C365.613 217.648 366.24 216.329 367.814 215.587C369.361 214.856 367.914 212.924 371.24 213.078C370.293 211.85 370.221 210.87 371.17 209.917C372.656 208.444 373.797 206.832 375.009 205.251C375.564 204.503 376.388 203.996 378.279 204.179C375.57 200.691 380.431 200.055 383.338 198.621C380.661 196.992 381.957 195.674 382.944 194.57C384.582 192.741 386.883 191.146 388.899 189.458C389.252 189.158 390.2 189.033 389.157 188.36C388.817 188.141 389.142 187.553 389.386 187.199C390.996 184.883 392.996 182.667 394.215 180.25C394.872 178.94 395.874 177.941 397.382 176.962C398.755 176.065 399.436 174.799 399.887 173.44C400.486 171.633 402.664 170.178 404.13 168.554C404.573 168.058 405.149 167.533 405.15 166.957C405.137 165.798 405.873 165.082 407.651 164.967C407.846 164.254 407.706 163.541 408.212 163.111C411.044 160.751 412.524 157.932 414.588 155.304C416.405 152.983 418.641 150.825 420.204 148.395C421.86 145.841 423.723 143.282 427.194 141.364C428.046 140.893 428.315 140.106 428.776 139.435C428.932 139.225 428.682 138.81 428.945 138.706C431.168 137.843 430.86 136.128 432.07 134.926C433.368 133.654 434.667 132.381 435.951 131.104C437.701 129.374 438.834 127.398 441.508 126.051C441.687 123.458 444.757 121.879 446.859 119.975C448.438 118.55 450.326 117.235 453.008 116.63C456.382 117.395 459.483 118.152 462.6 118.788C466.073 119.495 466.928 120.071 467.959 121.913C469.027 123.83 468.781 125.238 466.734 126.591C465.053 127.703 464.286 129.311 463.494 130.802C462.299 133.037 461.443 135.365 460.383 137.644C459.973 138.52 459.323 139.346 458.944 140.232C458.611 140.98 458.513 141.787 458.276 142.558C458.115 143.1 458.181 143.762 457.661 144.161C455.363 145.929 454.294 148.043 453.845 150.349C453.753 150.824 453.334 151.238 453.076 151.686C452.777 152.238 452.079 152.777 452.271 153.344C453.168 156.017 451.142 158.018 449.707 160.075C448.765 161.419 447.265 162.536 446.985 164.14C446.706 165.717 445.628 167.143 444.892 168.634C443.406 171.586 441.985 174.55 440.379 177.463C439.733 178.633 440.362 180.19 438.166 180.918C437.945 180.99 438.26 181.417 438.238 181.672C438.129 183.07 437.577 184.288 436.389 185.461C435.091 186.734 434.797 188.406 434.091 189.907C433.817 190.476 433.558 191.05 433.314 191.629C432.905 192.605 432.541 193.596 432.102 194.562C431.364 196.206 430.611 197.846 429.778 199.468C429.361 200.279 428.684 201.015 428.208 201.807C427.667 202.685 427.185 203.584 426.739 204.485C425.652 206.674 424.53 208.86 423.523 211.066C422.659 212.931 422.497 215.052 420.98 216.668C418.515 219.31 418.611 222.561 416.763 225.323C416.111 226.301 416.401 227.513 415.15 228.395C414.46 228.874 414.761 229.82 414.642 230.557C414.569 230.93 414.785 231.415 414.45 231.666C412.245 233.383 412.77 235.881 410.869 237.687C410.276 238.261 410.404 239.114 410.184 239.836C409.84 240.95 410.61 242.292 409.145 243.213C408.686 243.505 409.029 244.194 408.971 244.698C408.934 245.074 409.011 245.496 408.74 245.786C406.631 248.049 405.65 250.597 405.193 253.289C405.116 253.768 404.617 254.165 404.474 254.632C404.24 255.323 404.157 256.035 404.003 256.743C403.919 257.157 403.929 257.593 403.69 257.966C402.21 260.334 401.447 262.863 400.768 265.428C400.243 267.412 399.245 269.306 398.509 271.249C397.147 274.809 395.815 278.379 394.468 281.944C394.364 282.235 394.063 282.489 393.944 282.775C393.393 283.993 392.448 285.164 392.435 286.459C392.4 289.134 391.084 291.456 389.552 293.744C389.39 293.962 389.011 294.172 389.112 294.385C390.088 296.452 388.36 298.027 388.094 299.861C387.831 301.642 388.355 303.616 386.369 305.062C385.83 305.463 386.313 306.315 386.188 306.933C385.959 308.093 385.738 309.266 383.412 309.744C384.314 310.507 384.696 311.37 384.223 312.308C383.542 313.7 383.186 315.18 382.785 316.646C382.676 317.043 382.852 317.507 383.15 317.982C385.032 316.25 386.771 314.535 387.4 312.386C387.815 310.952 389.147 309.709 390.103 308.397C390.346 308.07 391.102 307.829 391.045 307.504C390.749 305.875 392.425 304.771 392.98 303.373C393.495 302.08 394.605 300.935 395.43 299.725C395.984 298.904 396.638 298.099 396.977 297.217C397.369 296.163 397.943 295.34 400.695 295.867C398.866 293.873 399.967 292.491 400.967 291.095C401.357 290.545 401.977 290.062 402.306 289.493C403.971 286.626 405.396 283.681 407.291 280.881C408.241 279.477 409.109 278.082 409.779 276.605C410.027 276.045 411.593 275.816 412.768 275.36C410.428 274.255 411.229 273.452 412.155 272.455C413.376 271.112 413.954 269.533 414.841 268.063C415.657 266.715 416.638 265.42 418.618 264.532C418.923 264.396 419.301 264.114 419.172 263.936C417.931 262.153 419.859 261.184 420.847 259.955C421.27 259.434 420.872 258.394 421.562 258.24C423.703 257.738 422.776 256.507 423.252 255.616C424.361 253.497 425.645 251.418 427.119 249.409C427.518 248.871 428.911 248.648 430.092 248.411C430.79 247.646 430.984 246.835 430.404 245.663C429.883 244.636 431.242 243.483 432.196 242.549C432.911 241.862 434.303 241.441 435.49 240.844C433.676 239.406 433.925 238.269 435.294 237.128C436.942 235.735 436.696 233.689 438.8 232.408C439.582 231.932 440.22 231.374 441.158 230.687C440.269 228.729 442.058 227.247 443.634 225.677C444.243 225.082 444.201 224.211 444.89 223.66C446.377 222.485 446.529 220.903 447.846 219.681C448.222 219.325 448.455 219.311 449.275 219.335C450.039 219.358 450.588 218.743 451.377 218.333C448.363 216.206 450.599 214.824 452.174 213.605C453.449 212.614 453.567 211.029 456.239 210.637C456.448 210.606 456.036 209.858 455.879 209.293L458.268 209.683C458.365 209.426 458.583 209.209 458.487 208.988C457.188 206.13 458.975 204.025 461.06 201.944C462.635 200.374 463.862 198.673 465.249 197.032C467.138 194.789 468.14 192.238 470.927 190.314C471.853 189.669 472.658 189.011 472.414 188.012C472.377 187.837 472.567 187.656 472.716 187.506C473.934 186.216 475.128 184.91 476.421 183.645C478.733 181.359 481.051 179.065 483.507 176.835C484.025 176.363 485.139 176.14 486.522 175.58C487.003 174.357 487.859 172.805 489.63 171.497C490.982 170.504 491.757 169.259 492.831 168.139C493.172 167.781 493.505 167.358 494.106 167.174C497.199 166.216 498.935 164.554 501.127 163.13C505.641 160.209 515.3 160.775 521.17 164.039C523.734 165.469 525.083 167.333 525.304 169.163C525.636 171.995 526.378 174.852 526.221 177.641C526.032 181.25 526.281 184.92 526.214 188.541C526.202 189.683 525.753 190.763 525.55 191.887C525.267 193.445 524.853 194.979 524.806 196.569C524.752 198.444 524.388 200.211 523.449 201.925C522.83 203.058 523.141 204.467 523.214 205.771C523.419 208.949 523.651 212.118 522.012 214.975C521.88 215.202 521.642 215.422 521.666 215.665C521.995 218.702 521.397 221.61 520.21 224.334C518.848 227.444 518.924 230.796 518.262 234.016C517.735 236.577 516.647 239.018 516.272 241.602C516.183 242.222 516.37 242.896 516.311 243.526C516.245 244.316 516.528 245.211 514.556 245.362C513.057 245.478 513.433 246.349 513.75 246.949C514.974 249.331 515.679 251.536 515.328 253.035C514.97 254.569 514.752 256.139 514.063 257.592C513.179 259.433 513.062 261.342 513.547 263.394C513.712 264.097 513.292 264.763 513.14 265.444C512.718 267.489 512.356 269.553 511.868 271.586C511.451 273.298 510.667 274.955 510.452 276.697C510.224 278.481 509.482 280.205 510.321 282.155C510.472 282.502 510.035 282.865 509.822 283.202C508.941 284.664 508.092 286.056 508.315 287.86C508.491 289.324 508.64 291.077 507.675 292.25C506.248 293.995 506.616 295.954 506.297 297.835C506.024 299.405 506.192 301.056 505.983 302.638C505.774 304.247 505.252 305.8 505.093 307.416C504.952 308.858 504.794 310.322 505.213 311.811C505.996 314.537 504.329 316.78 503.998 319.279C503.954 319.589 503.652 319.87 503.76 320.175C504.324 321.919 503.085 323.337 503.077 324.975C503.063 326.621 502.842 328.245 502.707 329.878C502.593 331.184 501.056 332.226 502.036 333.736C502.069 333.791 502.034 333.888 501.947 333.905C499.304 334.46 499.908 335.775 500.528 337.167C500.666 337.483 499.765 337.794 499.43 338.045C499.528 338.889 499.693 339.718 499.707 340.525C499.726 341.352 500.038 342.184 500.234 342.996C500.642 344.725 500.44 346.499 499.626 348.02C499.278 348.664 498.831 349.24 498.833 349.989C498.82 351.508 498.57 352.996 498.491 354.504C498.462 355.044 498.693 355.633 498.759 356.196C498.801 356.615 498.767 357.037 498.708 357.442C498.601 358.236 498.074 359.021 498.403 359.804C499.322 361.997 499.086 363.967 498.563 365.997C498.047 367.994 498.671 370.208 498.536 372.292C498.414 373.984 497.889 375.616 497.601 377.281C497.531 377.7 497.678 378.154 497.779 378.593C498.129 380.149 498.706 381.726 498.805 383.246C498.878 384.424 497.367 385.357 498.368 386.738C498.496 386.915 498.179 387.217 497.885 387.338C496.575 387.849 497.042 388.597 497.694 389.422C498.044 389.852 498.616 390.534 498.334 390.713C497.056 391.532 498.307 392.552 498.487 393.486C498.664 394.4 498.739 395.299 498.966 396.221C499.192 397.169 499.528 398.117 499.947 399.507C501.327 398.775 502.34 398.438 502.896 397.915C505.34 395.627 508.886 393.833 511.091 391.44C512.146 390.296 513.315 389.197 514.235 388.009C517.704 383.565 521.082 379.093 524.5 374.642C524.044 372.753 526.597 371.744 527.182 370.131C527.776 368.53 529.138 367.098 530.223 365.612C531.361 364.08 533.086 362.684 533.617 361.018C534.333 358.753 537.934 357.536 538.138 355.158C540.317 354.127 540.57 352.56 540.71 350.919C540.758 350.43 541.721 350.085 542.251 349.671C542.729 349.304 543.727 348.962 543.617 348.583C543.238 347.341 543.971 346.381 544.443 345.344C544.612 344.966 544.912 344.613 545.191 344.262C545.385 344.001 545.941 343.803 545.898 343.536C545.5 341.468 547.656 340.267 549.434 338.926C549.675 338.752 549.969 338.532 549.928 338.311C549.55 336.042 552.137 334.612 553.109 332.728C553.637 331.691 554.521 330.752 555.314 329.784C555.738 329.264 556.356 328.807 556.815 328.289C557.222 327.818 557.568 327.326 557.834 326.818C558.04 326.416 557.837 325.863 558.231 325.558C560.39 323.853 560.542 321.495 562.626 319.766C563.542 319.009 564.15 318.116 565.09 317.376C565.342 317.188 566.348 317.335 567.367 317.315C566.667 316.681 566.235 316.36 565.952 316.016C565.707 315.719 565.304 315.236 565.507 315.113C568.393 313.356 568.307 310.668 570.053 308.568C570.268 308.304 570.531 307.975 570.976 307.876C572.93 307.449 572.989 306.494 572.399 305.31L575.313 304.491C574.777 302.684 575.184 301.085 576.759 299.741C577.102 299.455 577.491 299.131 577.512 298.778C577.744 296.012 580.878 294.247 582.925 292.117C583.387 291.646 583.548 291.229 583.719 290.699C584.051 289.625 585.02 288.697 585.769 287.714C586.173 287.169 587.014 286.713 587.082 286.122C587.394 283.374 590.785 281.863 593.357 279.977C591.352 278.17 592.764 276.97 594.427 275.934C595.23 275.429 595.581 274.957 595.755 274.247C596.06 272.985 596.615 271.686 597.735 270.68C599.821 268.798 601.861 266.929 602.92 264.677C603.234 264.003 604.219 263.504 604.879 262.916C605.212 262.618 605.746 262.35 605.787 261.994C606.094 259.578 608.157 257.752 610.316 255.948C611.242 255.177 612.03 254.342 612.757 253.488C614.724 251.215 616.562 248.892 618.589 246.639C620.386 244.645 622.382 242.734 624.098 240.976C625.495 240.547 626.719 240.251 627.757 239.831C629.217 239.243 631.198 239.906 632.632 240.102C635.23 240.461 637.948 241.382 640.352 242.328C643.238 243.475 644.752 246.267 643.857 247.797C642.797 249.625 641.787 251.461 640.912 253.34C640.615 253.965 640.964 254.746 640.832 255.424C640.4 257.709 639.806 259.96 639.409 262.247C639.019 264.474 639.431 266.899 638.372 268.925C636.457 272.603 636.612 276.676 635.242 280.423C634.197 283.257 633.659 286.184 632.589 289C632.163 290.124 631.386 291.17 630.785 292.255C630.608 292.594 630.308 292.947 630.423 293.318C630.872 294.916 631.212 296.461 629.696 297.726C629.36 298.004 629.58 298.608 629.849 299.047C630.765 300.517 629.069 301.399 628.756 302.596C628.695 302.828 627.686 302.86 626.555 303.105L629.793 304.755C629.555 305.651 629.287 306.538 629.099 307.442C628.934 308.29 628.879 309.165 628.756 310.207C627.105 310.877 625.871 311.837 626.586 313.603C627.056 314.748 626.599 315.889 626.401 317.006C626.222 318.048 625.908 319.072 625.497 320.075C625.275 320.625 624.133 321.236 624.487 321.586C625.599 322.642 624.895 323.414 624.752 324.233C624.43 325.968 623.761 327.644 623.259 329.347C622.869 330.672 622.984 332.17 622.046 333.307C620.835 334.762 621.553 336.474 621.169 338.018C621.02 338.618 621.243 339.295 621.325 339.935C621.437 340.81 621.408 341.576 619.673 341.859C618.361 342.072 617.88 342.745 618.968 343.559C620.104 344.407 619.673 345.087 619.705 345.846C619.787 348.29 619.452 350.642 618.243 352.846C617.955 353.383 618.342 354.114 618.419 354.662C617.394 355.365 616.428 356.015 615.319 356.781C617.482 357.675 617.619 358.567 617.09 359.504C615.781 361.792 616.396 364.419 616.027 366.868C616.006 366.997 615.99 367.118 615.939 367.237C614.982 369.026 615.39 371.08 614.921 372.938C614.04 376.402 614.515 380.119 612.85 383.436C612.377 384.374 613.634 385.811 611.086 386.036C612.835 388.238 612.573 389.541 610.178 390.538C611.628 391.29 612.178 392.1 611.867 393.045C610.988 395.68 610.445 398.389 610.284 401.159C610.192 402.635 610.467 404.168 610.591 405.678C610.595 405.797 610.819 405.996 610.746 406.044C608.376 407.383 610.699 409.762 608.982 411.322C608.216 412.029 608.877 413.317 608.866 414.333C608.853 416.303 608.799 418.278 608.815 420.259C608.825 421.723 608.92 423.197 608.945 424.666C608.969 426.134 609.4 427.708 608.883 429.055C607.99 431.307 609.599 433.698 610.01 436.023C610.15 436.862 610.345 437.701 610.413 438.535C610.498 439.573 611.387 440.178 613.158 439.997C614.955 439.807 616.84 439.447 618.015 438.792C621.344 436.963 624.546 435.057 627.36 432.971C629.582 431.332 631.164 429.403 633.029 427.593C634.582 426.079 636.32 424.616 637.638 423.016C639.117 421.225 641.498 419.773 642.396 417.739C642.809 416.782 644.143 416.063 644.922 415.189C645.53 414.521 645.729 413.702 646.47 413.105C648.321 411.616 650.38 410.221 652.579 408.637C650.766 406.848 652.833 405.591 654.198 404.205C655.51 402.865 656.755 401.539 657.709 400.055C658.527 398.779 659.111 397.292 661.348 396.433C662.229 396.098 662.297 395.155 662.553 394.436C663.47 391.975 667.182 388.08 670.429 386.387C668.757 384.282 671.815 383.195 672.364 381.48C672.646 380.625 673.88 379.99 674.503 379.201C675.595 377.807 676.362 376.298 677.643 374.975C678.695 373.883 679.301 372.692 679.939 371.484C680.542 370.346 681.731 369.371 682.692 368.277L684.623 368.708C683.265 365.479 685.955 363.686 690.078 362.242C687.905 360.786 688.607 359.59 689.625 358.37C691.654 355.965 693.533 353.51 695.516 351.09C695.951 350.555 696.575 350.091 697.262 349.467L700.966 351.215C700.309 350.523 700.146 350.19 699.771 349.969C698.509 349.215 698.221 348.526 698.832 347.778C700.328 345.966 701.549 344.046 703.309 342.329C704.714 340.937 706.052 339.588 706.784 337.95C707.286 336.824 708.975 336.003 710.133 335.046C710.422 334.806 710.922 334.609 710.96 334.332C711.44 331.008 715.411 328.892 717.751 326.218C719.556 324.164 721.441 322.126 723.436 320.143C724.587 318.994 726.377 318.061 727.248 316.839C728.113 315.624 728.631 314.377 730.37 313.437C731.897 312.609 732.687 311.369 733.894 310.346C735.669 308.832 737.033 307.121 739.598 305.972C741.02 305.335 742.679 304.829 744.317 304.326C745.18 304.066 746.108 304.043 747.267 304.61C749.096 305.503 751.193 305.96 753.45 306.227C755.541 306.466 756.825 307.19 758.207 308.434C760.884 310.839 759.996 312.66 759.289 314.639C758.715 316.237 758.141 317.836 757.793 319.481C757.494 320.935 756.5 322.297 757.448 323.95C755.081 326.11 757.059 329.18 755.43 331.499C755.349 331.608 755.246 331.746 755.327 331.862C756.721 334.192 755.245 336.128 755.245 338.256C755.246 340.357 755.242 342.466 754.926 344.519C754.522 347.165 753.817 349.766 753.232 352.381C753.188 352.565 752.928 352.715 752.975 352.901C753.581 356.417 752.119 359.611 752.166 363.053C752.215 366.442 751.856 369.779 751.473 373.099C751.31 374.57 750.468 375.928 750.234 377.394C750.098 378.179 750.72 379.094 750.758 379.918C750.884 382.727 750.839 385.517 751 388.329C751.111 390.133 751.67 391.983 751.68 393.772C751.684 395.694 751.139 397.554 753.424 399.561C752.78 401.353 754.41 403.165 755.742 404.951C757.251 406.975 757.414 406.956 761.254 407.17C766.059 407.436 769.547 406.245 772.985 405.173C776.519 404.07 779.541 402.556 782.551 401.083C785.052 399.868 787.213 398.462 789.522 397.131C789.658 397.048 789.819 396.957 789.87 396.838C790.751 394.825 793.882 393.816 795.736 392.246C799.16 389.339 802.734 386.481 805.86 383.45C808.768 380.637 811.617 377.804 815.112 375.227C816.527 374.173 817.263 372.807 818.475 371.651C821.234 369.014 823.857 366.333 827.103 363.892C827.78 363.381 829.18 363.675 829.693 362.859C830.88 360.91 832.376 358.972 834.584 357.427C836.53 356.059 837.125 354.232 839.274 352.966C840.892 352.014 842.148 350.899 843.008 349.592C843.438 348.939 845.016 348.641 846.066 348.18C849.508 346.65 851.091 344.244 854.068 342.49C856.545 341.033 858.879 339.493 861.238 337.971C862.104 337.405 862.867 336.779 863.639 336.165C864.833 335.21 866.28 334.463 868.401 334.036C869.735 333.767 870.477 332.944 871.667 332.493C873.012 331.984 874.373 331.354 876.045 331.232C880.935 330.858 885.898 330.535 891.306 332.468C894.052 333.452 897.192 334.033 898.939 335.837C900.971 337.932 903.228 340.002 903.202 342.239C903.193 342.552 903.229 342.879 903.32 343.206C903.848 345.1 904.557 347 904.892 348.876C905.527 352.302 905.965 355.718 906.473 359.139C906.529 359.464 906.749 359.869 906.536 360.107C904.8 361.967 906.822 364.177 907.225 366.238C907.392 367.14 907.029 368.004 907.14 368.906C907.499 371.828 908.521 374.857 908.261 377.685C907.886 381.621 909.507 385.747 909.157 389.673C908.976 391.543 909.564 393.53 909.781 395.467C910.011 397.535 910.186 399.602 910.396 401.673C910.736 404.895 911.117 408.112 911.407 411.326C911.553 412.907 911.522 414.475 911.583 416.046C911.61 416.686 911.581 417.326 911.749 417.976C912.228 419.809 912.899 421.66 913.272 423.485C913.864 426.293 914.244 429.086 914.75 431.884C915.195 434.365 915.604 436.843 916.211 439.331C916.804 441.787 917.664 444.259 918.348 446.718C919.101 449.434 919.713 452.14 920.557 454.859C920.848 455.819 921.871 456.82 922.076 457.77C922.724 460.578 924.34 463.359 926.037 466.157C926.862 467.526 927.244 468.913 928.028 470.286C928.511 471.138 929.171 472.002 930.032 472.796C932.326 474.914 932.21 474.57 936.266 474.493C940.149 474.422 941.344 472.864 943.107 471.743C947.05 469.239 949.911 466.239 952.458 463.136C952.619 462.919 952.738 462.659 953.033 462.512C955.851 461.121 956.71 459.065 957.578 456.994C958.099 455.793 959.284 454.899 961.097 454.236C961.859 453.961 962.267 453.336 962.44 452.779C962.956 451.108 961.912 449.108 963.956 447.709L965.26 447.881C965.441 447.011 965.381 446.216 965.805 445.57C967.221 443.388 968.847 441.276 970.328 439.107C970.843 438.364 971.631 437.728 971.363 436.711C971.057 435.547 972.303 434.745 973.626 434.067C974.145 433.794 974.857 433.611 975.267 433.284C975.97 432.738 976.815 432.427 976.239 431.274C975.599 429.984 976.845 428.631 977.476 427.357C977.961 426.379 978.666 425.455 979.416 424.545C980.275 423.489 979.98 422.059 981.852 421.316C982.275 421.147 982.147 420.618 982.375 420.287C983.096 419.241 983.802 418.19 984.613 417.174C985.501 416.029 986.448 414.904 987.435 413.801C988.321 412.808 989.372 411.87 990.242 410.873C990.6 410.467 990.664 409.955 990.812 409.48C991.174 408.318 991.421 407.109 992.965 406.908C993.829 405.494 994.444 404.441 995.104 403.402C995.775 402.349 996.431 401.291 997.206 400.272C997.595 399.75 998.036 399.181 998.8 398.853C1001.05 397.873 1003.16 396.745 1007.14 397.565C1009.57 398.068 1012.08 398.299 1014.58 398.669C1017.71 399.138 1019.01 399.914 1019.61 401.634C1019.74 402.029 1019.77 402.47 1020.14 402.817C1022.25 404.712 1020.43 405.688 1018.75 406.666C1015.95 408.307 1014.84 410.532 1013.76 412.741C1012.6 415.123 1012.04 417.655 1011.08 420.094C1010.25 422.187 1009.24 424.228 1008.35 426.301C1008.23 426.594 1008.38 426.941 1008.31 427.254C1007.71 430.142 1007.04 433.018 1006.46 435.911C1006.04 437.941 1005.81 440.003 1005.32 442.016C1004.85 443.981 1004.08 445.887 1003.54 447.828C1003.21 448.986 1003.22 450.205 1002.82 451.346C1002.26 452.93 1001.69 454.495 1000.72 456C999.759 457.492 998.344 459.096 999.581 461.212C1000.18 462.229 999.555 463.35 999.215 464.357C998.557 466.244 997.039 468.013 997.122 469.979C997.211 471.911 996.382 473.453 995.137 474.978C995.057 475.087 994.943 475.239 995.055 475.339C997.048 477.313 995.486 478.915 995.353 480.621C995.185 482.875 994.212 485.011 993.591 487.198C993.091 488.948 992.892 490.767 990.891 492.109C990.63 492.285 990.748 492.702 990.871 493.013C991.122 493.726 990.88 494.152 989.893 494.579C988.276 495.279 988.74 496.657 989.247 497.777C990.18 499.876 988.901 501.371 987.328 502.789C986.414 503.618 985.565 504.361 986.079 505.52C986.232 505.841 986.391 506.253 986.153 506.473C984.557 508.046 985.044 510.143 983.502 511.769C982.555 512.768 982.471 514.157 982.593 515.495C982.667 516.322 982.127 517.075 982.044 517.886C981.779 520.271 981.039 522.519 978.991 524.449C978.637 524.776 978.538 525.285 978.675 525.726C979.522 528.617 978.307 531.053 976.37 533.335C976.161 533.591 976.326 533.97 976.186 534.258C975.322 536.123 976.384 538.398 974.36 540.021C974.071 540.26 974.412 540.777 974.412 540.777C973.12 541.79 972.192 542.588 971.155 543.333C969.956 544.196 969.129 545.135 969.163 546.39C969.171 546.781 968.206 547.053 967.645 547.357C966.435 548.009 965.497 548.596 966.495 549.931C967.637 551.448 968.24 553.015 965.578 553.97C964.764 554.264 964.769 555.159 964.325 555.907C960.36 556.212 957.015 557.936 951.463 556.272C951.357 554.588 950.084 552.496 953.992 551.667C954.81 551.492 955.301 550.93 955.753 550.473C956.959 549.225 958.281 547.996 959.143 546.635C959.558 545.977 959.149 545.05 958.953 544.238C958.797 543.646 958.704 543.697 960.145 543.634C960.663 543.613 961.336 543.283 961.308 543.021C961.255 542.39 960.84 541.723 960.516 540.932C962.483 541.113 962.392 540.335 962.311 539.542C962.247 538.827 962.083 538.097 962.2 537.414C962.308 536.818 962.515 536.164 963.121 535.748C964.868 534.549 965.871 533.198 964.423 531.392C963.1 529.744 964.589 528.516 964.266 527.022C964.211 526.796 964.888 526.611 965.261 526.435C965.639 526.251 966.32 526.185 966.448 525.938C967.032 524.901 967.481 523.821 967.979 522.775L970.689 523.234C969.341 522.344 968.579 521.843 967.837 521.34C968.533 519.902 970.101 519.252 972.539 519.39C971.502 518.034 969.922 518.683 968.309 518.527C968.559 517.914 970.498 517.607 968.711 516.683C968.508 516.581 969.051 515.901 969.446 515.569C969.966 515.144 970.681 514.808 971.43 514.376L973.588 515.476C973.245 514.886 972.888 514.265 972.512 513.619L968.949 513.108C969.071 512.093 969.176 511.126 969.329 509.769C970.038 510.541 970.41 510.942 970.772 511.33C971.684 510.821 971.714 510.263 970.863 509.656C969.053 508.363 969.045 508.198 970.211 507.054C970.667 506.616 970.884 506.073 971.15 505.565C971.426 505.068 971.636 504.56 971.847 504.051C971.972 503.758 972.316 503.419 972.1 503.16C970.622 501.344 972.933 500.987 974.736 500.438C975.167 500.308 975.731 500.275 976.088 500.22C974.933 498.545 973.473 497.006 974.403 495.478C974.65 495.071 974.516 494.55 974.548 494.082C974.636 492.812 974.333 491.442 976.277 490.678L975.088 489.876C977.238 489.034 978.849 488.142 975.971 486.258C976.767 485.787 976.394 484.737 978.428 484.804C978.701 484.812 978.96 484.463 979.016 484.238C979.19 483.528 978.636 482.671 979.778 482.16C980.001 482.061 979.904 481.615 979.65 481.406C976.76 479.013 978.603 477.133 978.835 475.044C978.965 473.842 979.613 473.07 981.741 472.834C981.089 471.909 979.886 470.95 980.103 470.308C980.329 469.678 981.974 469.366 983.194 468.825L980.229 467.86C980.82 467.439 981.16 466.982 981.813 466.78C984.115 466.059 984.219 464.993 982.892 463.425C982.31 462.73 982.485 461.894 982.579 461.167C982.693 460.312 982.955 459.459 983.406 458.677C983.68 458.208 984.415 457.87 985.049 457.391C982.658 455.954 983.203 454.77 984.176 453.409C984.907 452.376 986.698 451.417 985.241 449.698C984.771 449.906 984.301 449.987 984.181 450.174C981.851 453.635 979.587 457.109 977.272 460.576C976.065 462.401 974.957 464.268 973.525 466.02C972.082 467.786 970.291 469.421 968.639 471.12C968.485 471.277 968.331 471.434 968.257 471.609C967.069 474.685 963.19 476.677 960.172 479.013C957.442 481.136 953.493 482.546 949.375 483.757C947.286 484.367 944.462 484.439 941.833 484.548C939.453 484.647 936.937 484.504 934.444 484.405C930.814 484.26 927.497 483.117 924.381 481.904C920.369 480.345 916.159 478.803 913.859 476.241C913.623 475.984 913.264 475.741 913.124 475.479C911.312 472.436 909.286 469.405 907.793 466.357C905.947 462.609 904.547 458.862 902.979 455.114C902.595 454.204 902.139 453.316 903.317 452.582C903.838 452.255 903.801 451.179 903.228 450.848C900.601 449.353 900.54 447.683 899.953 446.12C898.94 443.428 898.438 440.749 897.734 438.067C897.643 437.739 897.506 437.397 897.536 437.082C897.593 436.154 900.177 435.58 898.052 434.41C896.407 433.495 897.261 432.646 896.385 431.748C895.663 431.017 895.984 430.084 895.865 429.243C895.591 427.359 895.281 425.473 895.072 423.601C894.971 422.711 896.176 421.94 894.385 420.897C894.01 420.676 894.333 420.141 894.178 419.748C893.361 417.769 895.694 416.256 894.361 414.144C893.988 413.545 895.19 412.854 895.869 411.939C895.537 411.56 894.818 410.876 894.354 410.174C893.941 409.553 893.768 408.91 893.584 408.282C893.509 408.032 893.862 407.732 893.662 407.55C891.233 405.388 893.582 403.854 893.454 401.973C890.795 400.521 890.687 399.89 892.9 398.113C892.165 396.999 891.425 395.892 890.677 394.747L893.203 394.55C892.804 394.087 892.404 393.623 892.01 393.152C891.655 392.73 890.855 392.154 891.049 391.892C892.318 390.06 890.69 387.97 890.349 386.001C890.026 384.182 889.437 382.322 889.451 380.55C889.451 379.775 890.699 379.171 891.257 378.595C890.69 377.455 889.731 376.268 889.649 375.177C889.489 372.889 888.343 370.477 889.655 368.335C890.191 367.463 888.459 366.015 890.685 365.622C890.195 364.579 888.039 363.651 889.944 362.964C890.073 362.916 889.963 362.538 889.766 362.428C886.687 360.74 888.451 359.141 888.132 357.568C887.875 356.312 887.566 354.976 887.543 353.705C887.528 353.124 888.266 352.931 888.177 352.55C888.11 352.24 886.835 351.879 886.663 351.534C886.301 350.821 885.982 350.023 886.223 349.398C887.139 346.964 884.521 344.479 883.636 341.666C882.358 342.26 881.472 342.702 880.542 343.102C877.179 344.55 874.509 346.341 871.902 348.198C868.332 350.751 863.878 352.916 860.846 355.671C858.611 357.703 855.836 359.486 853.767 361.545C851.571 363.725 848.829 365.664 846.594 367.821C845.042 369.309 842.781 370.475 841.739 372.228C840.813 373.775 838.752 374.998 837.135 376.347C835.598 377.641 833.831 378.842 832.453 380.197C830.612 382.024 829.19 384.013 827.31 385.818C825.706 387.352 823.569 388.676 821.92 390.195C820.361 391.617 819.17 393.195 817.726 394.664C817.025 395.382 816.899 396.252 815.004 396.6C813.599 396.864 813.026 398.012 812.134 398.786C810.435 400.297 809.588 402.213 806.287 402.977C806.374 404.187 804.785 404.698 803.629 405.403C799.835 407.757 796.233 410.227 791.313 411.944C791.215 411.975 791.132 412.011 791.095 412.062C789.746 413.877 786.136 414.181 783.334 414.973C781.405 415.517 779.018 415.777 776.668 415.886C772.719 416.07 768.66 416.101 764.604 416.079C758.568 416.043 753.144 414.683 747.551 412.347C741.506 409.82 738.734 406.843 736.567 403.351C734.221 399.575 734.078 395.912 732.909 392.204C732.151 389.82 732.677 387.485 732.591 385.121C732.573 384.421 732.352 383.691 732.348 382.995C732.355 382.636 732.43 382.21 732.814 381.992C735.453 380.543 735.848 378.76 733.454 376.475C733.027 376.074 732.903 375.565 732.867 375.138C732.74 372.68 732.477 370.205 732.668 367.796C732.885 365.125 733.129 362.418 734.174 359.936C734.599 358.938 735.168 358.222 733.633 357.109C735.257 356.474 735.776 355.651 734.28 354.461C734.021 354.259 734.035 353.939 734.061 353.704C734.393 351.305 734.584 348.869 735.177 346.519C735.608 344.838 736.531 343.245 737.333 341.639C737.611 341.09 737.465 340.736 736.806 340.07C735.47 338.715 735.911 337.371 736.865 336.212C737.021 336.001 737.639 335.77 737.537 335.682C735.848 334.275 737.369 333.03 736.259 331.244C734.596 332.858 733.178 334.19 731.82 335.543C730.313 337.045 729.559 338.811 727.503 340.152C726.062 341.09 725.32 342.39 724.315 343.542C722.328 345.816 720.37 348.101 718.428 350.39C717.524 351.457 716.694 352.549 715.829 353.638C713.772 356.232 712.097 358.987 709.512 361.365C707.514 363.203 707.11 365.524 704.728 367.229C703.545 368.07 703.185 369.305 702.498 370.38C701.949 371.22 701.524 372.092 700.9 372.908C698.535 376.015 696.141 379.113 693.696 382.204C692.165 384.14 690.093 385.927 688.997 387.978C687.031 391.676 683.67 394.874 680.792 398.247C678.77 400.618 677.471 403.243 675.503 405.642C671.916 410.02 667.97 414.28 664.392 418.67C663.153 420.188 661.33 421.515 660.659 423.244C660.492 423.695 659.708 423.999 659.33 424.408C658.213 425.586 657.141 426.779 656.054 427.967C655.307 428.797 654.705 429.683 653.829 430.462C650.572 433.369 648.384 436.714 644.196 439.247C643.723 439.534 643.461 439.936 643.151 440.304C642.021 441.649 640.308 442.679 638.162 443.54C636.779 444.099 636.06 445.092 634.687 445.664C630.551 447.401 625.873 448.691 620.176 449C617.932 449.117 616.009 449.627 613.452 449.39C610.284 449.098 607.437 448.423 604.65 447.344C603.306 446.826 601.887 446.382 600.569 445.853C596.127 444.073 594.393 441.75 593.811 439.18C593.439 437.553 592.931 435.908 592.432 434.276C591.726 431.972 592.093 429.801 592.253 427.608C592.288 427.06 592.137 426.488 592.207 425.943C592.277 425.397 592.155 424.636 592.762 424.419C593.705 424.077 593.535 423.579 593.805 423.09C594.649 421.579 593.965 420.022 592.95 418.384C592.606 417.821 592.435 417.125 592.754 416.67C593.409 415.738 594.569 414.953 593.133 413.682C594.566 413.004 593.51 411.947 593.385 411.014C593.254 409.988 593.552 409.012 593.628 408.009C593.644 407.762 593.575 407.505 593.465 407.252C592.933 406.015 593.53 405.136 595.277 404.587C594.412 402.322 592.699 399.897 596.437 398.445C595.33 397.507 592.983 396.536 595.472 395.813C595.616 395.77 595.458 395.457 595.381 395.26C594.989 394.285 594.578 393.313 594.152 392.308C596.108 391.953 597.523 391.702 595.553 390.122C594.702 389.44 595.62 388.205 595.865 387.248C596.505 384.76 596.52 384.765 601.391 384.692C600.91 384.238 600.631 383.687 600.02 383.434C596.997 382.17 596.758 380.64 596.595 379.081C596.554 378.761 596.619 378.449 596.629 378.01L598.666 378.096C598.56 377.638 598.25 377.104 598.396 376.683C598.529 376.302 599.16 376.03 599.553 375.725C597.128 373.808 597.55 372.764 601.148 372.277C600.319 371.79 601.871 370.853 599.199 370.695C599.037 370.687 598.258 369.658 598.427 369.28C599.436 367.021 599.496 367.04 603.318 365.976C602.923 365.857 602.61 365.728 602.288 365.686C601.483 365.568 600.666 365.491 599.688 365.38C600.275 361.937 600.846 358.489 601.458 354.937C602.065 354.946 602.767 355.003 603.403 354.948C604.537 354.848 604.917 354.161 603.886 353.897C601.933 353.397 603.32 352.856 602.769 352.397C603.719 352.436 604.001 352.131 603.615 351.482L602.866 352.492L602.735 352.467ZM967.793 544.655C967.807 544.235 967.821 543.816 967.848 543.329C966.352 543.139 965.748 543.402 966.024 544.232C966.67 544.388 967.242 544.52 967.793 544.655C967.079 544.864 966.345 545.076 965.304 545.377C968.387 546.309 967.063 544.886 967.778 544.65L967.793 544.655ZM984.93 484.162C983.185 484.958 982.847 485.831 983.915 486.78C983.841 485.629 986.162 485.582 984.93 484.162ZM996.366 438.604C995.723 439.143 995.096 439.687 994.453 440.226L995.313 440.596C996.278 440.198 997.814 440.058 996.351 438.599L996.366 438.604ZM975.18 517.338C974.256 517.83 973.503 518.369 974.929 519.303C976.949 518.987 975.653 518.078 975.18 517.338ZM382.457 290.802L385.373 290.958C385.239 290.662 385.215 290.194 384.93 290.102C383.757 289.729 382.958 289.928 382.472 290.807L382.457 290.802ZM990.314 455.11C990.317 455.833 990.32 456.33 990.34 457.328C991.733 456.88 992.422 456.654 993.43 456.323L990.314 455.11ZM374.993 297.57L375.511 295.872L374.764 295.701C374.348 296.161 371.846 296.149 374.999 297.563L374.993 297.57ZM987.404 476.076C988.934 475.618 988.262 475.021 987.581 474.285C986.424 474.792 986.33 475.293 987.404 476.076ZM382.255 273.251C381.251 273.784 381.453 274.355 382.861 274.964L382.255 273.251ZM439.772 231.525C440.225 232.142 440.487 232.741 440.699 232.756C441.455 232.84 442.19 232.727 442.926 232.688L442.807 232.297L439.772 231.525ZM322.819 182.504C321.803 183.087 321.839 183.715 322.926 184.387L322.819 182.504ZM981.186 493.908C980.869 494.761 981.271 495.271 982.767 495.785C983.029 495.032 982.988 494.486 981.186 493.908ZM983.802 477.645L985.758 479.192C985.932 478.491 985.28 477.975 983.802 477.645ZM898.546 425.76L897.675 425.756C897.307 426.276 897.68 426.75 899.339 427.596C898.949 426.694 898.737 426.228 898.546 425.76ZM620.911 297.66C622.871 297.676 622.895 297.242 621.591 296.295C621.295 296.893 621.106 297.273 620.911 297.66ZM499.64 297.984L500.821 297.972C500.634 297.623 500.458 297.259 500.21 296.917C500.191 296.892 499.34 296.886 499.354 296.917C499.409 297.269 499.535 297.626 499.655 297.989L499.64 297.984ZM611.987 315.856C610.491 316.343 610.227 316.699 611.694 317.627C611.799 316.985 611.873 316.585 611.987 315.856ZM602.636 401.816L601.739 401.596L601.524 402.762L602.151 402.894L602.631 401.823L602.636 401.816ZM498.842 281.06C499.439 280.181 498.862 279.831 497.516 279.69C497.33 279.666 497.163 279.765 496.764 279.851L498.842 281.06ZM390.531 272.474C392.282 271.845 391.402 271.252 390.915 270.706L390.46 270.792L390.531 272.474ZM392.844 265.581C392.225 265.839 391.725 265.91 391.718 266.07C391.709 266.257 392.047 266.529 392.337 266.714C392.441 266.775 393.091 266.725 393.099 266.664C393.111 266.398 392.982 266.121 392.844 265.581ZM606.259 369.477L606.693 369.294L604.979 368.122L604.581 368.281L606.259 369.477ZM691.739 362.133C691.264 362.448 690.929 362.573 690.864 362.759C690.808 362.885 691.133 363.099 691.282 363.274C691.65 363.205 692.197 363.193 692.331 363.039C692.433 362.901 692.072 362.611 691.744 362.126L691.739 362.133ZM547.087 356.63C546.639 357.232 546.413 357.411 546.383 357.627C546.361 357.782 546.606 357.979 546.729 358.163L547.321 358.167C547.266 357.815 547.211 357.464 547.087 356.63ZM584.787 292.264C585.038 292.553 585.129 292.781 585.386 292.91C585.525 292.973 585.925 292.86 586.211 292.827C586.046 292.647 585.97 292.424 585.713 292.295C585.549 292.215 585.157 292.267 584.772 292.259L584.787 292.264ZM988.726 414.041C988.234 414.052 987.704 414.014 987.702 414.068C987.675 414.329 987.784 414.608 987.842 414.88C988.213 414.856 988.788 414.908 988.915 414.787C989.059 414.645 988.829 414.353 988.726 414.041ZM497.898 300.979C497.747 301.634 497.658 302.028 497.525 302.634C499.205 302.325 499.279 301.925 497.898 300.979ZM394.236 264.032C393.595 263.51 392.886 263.28 392.11 263.339L394.236 264.032ZM405.258 217.879L406.141 217.517C405.611 217.254 405.101 216.989 404.54 216.743C404.48 216.724 404.072 216.897 404.096 216.915C404.467 217.242 404.862 217.561 405.258 217.879ZM972.158 523.784L972.564 524.214C973.05 524.111 973.556 524.005 974.042 523.902L973.728 523.574L972.138 523.786L972.158 523.784ZM216.854 240.304C216.561 239.947 216.445 239.702 216.155 239.517C216.042 239.445 215.583 239.512 215.278 239.521C215.421 239.729 215.491 239.96 215.732 240.137C215.849 240.229 216.265 240.221 216.839 240.299L216.854 240.304ZM386.806 267.501L387.476 267.349L386.004 266.401L385.644 266.536L386.826 267.498L386.806 267.501ZM986.444 494.015C985.988 494.228 985.64 494.322 985.49 494.498C985.431 494.578 985.735 494.794 985.88 494.95C986.223 494.863 986.621 494.803 986.87 494.668C986.964 494.617 986.686 494.365 986.444 494.015ZM973.53 521.787L972.738 521.827C972.984 522.096 973.221 522.354 973.467 522.623L973.939 522.588L973.53 521.787ZM385.823 194.399L385.281 193.627L384.212 193.739C384.409 193.974 384.54 194.224 384.814 194.431C384.888 194.482 385.347 194.415 385.823 194.399ZM619.699 304.399C619.352 304.466 618.977 304.47 618.875 304.581C618.81 304.668 619.135 305.008 619.226 305.011C619.59 305.021 619.937 304.954 620.284 304.914L619.699 304.399Z" fill="#3435FF"/>
</g>
<defs>
<clipPath id="clip0_392_1392">
<rect width="995.768" height="283.464" fill="white" transform="matrix(0.950858 0.309626 -0.596345 0.802728 181.83 27.1465)"/>
</clipPath>
</defs>
</svg>
