<?xml version="1.0" encoding="UTF-8"?>
<svg id="Calque_1" xmlns="http://www.w3.org/2000/svg" version="1.1" viewBox="0 0 96 94">
  <!-- Generator: Adobe Illustrator 29.2.1, SVG Export Plug-In . SVG Version: 2.1.0 Build 116)  -->
  <defs>
    <style>
      .st0 {
        fill: #ee7d00;
      }
    </style>
  </defs>
  <path class="st0" d="M36.3,40.5c-9.8.8-18.8,6.4-22.8,15.6-3.6,8.3-3.2,18.2,2.7,25.4s7.4,5.9,11.9,6.9,11.7,1.6,17.2-.4,9-5.1,11.7-9.6,4.1-10.2,4.5-15.6.1-6.9.2-10.4.1-8.6.2-13c.1-8.5.2-17,.4-25.5,0-1,0-1.9,0-2.9s0-1.1,0-1.6,0-.4,0-.5c-.1.1-.3,1.2-.4,1.3l-2.2,1.7h0c-1-.1-1.9-.3-2.9-.4-.7-.4-1.1-.9-1.4-1.6,0,.2.1.4.2.6.1.4.2.7.3,1.1.3.9.6,1.7.9,2.5.7,1.7,1.4,3.4,2.3,5,1.7,3.3,4,6.3,6.4,9,4.7,5.3,10.6,9.7,16.9,13s4.1.5,5.1-1.3.5-4.2-1.3-5.1c-6.8-3.5-12.7-8.1-17.2-14s-2.1-3-3-4.5-.9-1.7-1.3-2.5-.2-.3-.2-.5-.4-.8-.2-.4-.1-.3-.1-.3c-.1-.3-.2-.6-.3-.9-.7-1.8-.9-4.4-2.4-5.8s-2.4-1.5-3.8-1.1-2.7,2.2-2.9,4-.1,4.5-.2,6.7,0,4.9-.1,7.3c0,4.9-.1,9.8-.2,14.7,0,5-.1,9.9-.2,14.9s0,7.8-.3,11.6,0,.7-.1,1.1c.1-.9,0,.3,0,.5-.1.8-.3,1.6-.5,2.3-.3,1.4-.8,2.7-1.3,4,.2-.7,0-.1-.1.2s-.3.6-.4.8c-.3.6-.7,1.2-1,1.8s-.3.5-.5.8c-.2.4-.5.7,0,.2-.4.5-.9,1-1.3,1.5s-.9.9-1.4,1.3.4-.3-.1.1-.5.4-.8.6c-.5.3-1.1.7-1.6.9s-.5.3-.8.4c.8-.4,0,0-.3.1-.6.2-1.3.4-1.9.6s-.6.2-.9.2-.4,0-.5.1-.9.2-.3,0-.5,0-.7,0c-.3,0-.7,0-1,0-.8,0-1.6,0-2.5,0s-1.5,0-2.3-.2-.8-.1-.3,0-.3,0-.4,0c-.5,0-.9-.2-1.4-.3-1.4-.3-2.8-.7-4.2-1.2s.5.2-.1,0-.6-.3-.9-.4c-.6-.3-1.1-.6-1.6-1s-.4-.3-.6-.5c-.3-.2.4.2.3.2s-.3-.2-.3-.3c-.4-.4-.9-.8-1.3-1.2s-.3-.4-.5-.6-.1-.2-.2-.2c-.5-.5.2.3.2.3-.2,0-.8-1.2-1-1.4-.3-.4-.5-.9-.7-1.3s-.3-.8-.4-.8c0,0,.3.8.2.4s-.1-.3-.2-.5c-.4-1-.6-2.1-.8-3.1s0-.3,0-.4c0-.4-.2-.1,0,.3,0-.2,0-.6,0-.8,0-.6,0-1.1,0-1.7s0-1.1,0-1.7,0-.5,0-.8c0-1.1-.1.6,0-.2s.4-2.2.8-3.3.3-1,.5-1.5c.3-.9-.3.5,0,0s.3-.6.4-.9c.5-1,1.1-2.1,1.8-3s.3-.4.5-.7c-.6.9,0,0,.2-.2.4-.5.8-1,1.3-1.4s.8-.8,1.2-1.1.4-.4.7-.5c.4-.3-.6.4-.2.1s.3-.2.5-.4c1-.7,2.1-1.3,3.3-1.9s.3-.1.5-.2c0,0-.7.3-.3.1s.6-.2.9-.3c.7-.2,1.4-.5,2-.6s1.3-.3,1.9-.4,1.4-.2.4,0c.4,0,.8,0,1.2-.1,2-.2,3.8-1.6,3.8-3.7s-1.7-3.9-3.8-3.8h0Z"/>
</svg>