<svg width="267" height="96" viewBox="0 0 267 96" fill="none" xmlns="http://www.w3.org/2000/svg">
<path d="M163.514 83.3977C164.065 80.0291 163.487 78.7448 162.052 78.6893C160.82 78.6393 159.595 78.5311 158.351 78.5566C157.995 78.5628 157.427 78.7295 157.209 79.1892C156.069 81.5834 155.195 80.3497 154.244 80.3962C154.08 80.4055 154.078 79.6115 153.921 79.3463C153.684 78.9478 153.418 78.4101 153.084 78.4217C151.687 78.4831 150.021 79.4433 148.901 78.7165C147.528 77.8219 146.548 76.2384 144.532 78.0355C143.85 78.6444 143.009 77.3101 142.187 77.0864C141.857 76.9965 141.38 77.5033 141.124 77.6474C140.384 77.2628 139.678 76.6995 138.883 76.5242C137.932 76.3184 136.899 76.4656 135.911 76.4192C135.625 76.4058 135.151 76.4084 135.134 76.1159C134.968 73.1853 133.846 74.4478 132.744 75.4866C132.61 75.6173 132.443 75.56 132.301 75.5384C130.161 75.2386 128.036 74.8521 125.873 74.6611C124.73 74.56 123.5 74.9014 122.346 74.8579C120.571 74.7884 118.794 74.6942 117.078 74.3501C115.458 74.0284 113.939 73.2739 112.329 72.9067C111.747 72.7694 111.012 73.3056 110.378 73.3486C109.506 73.4136 108.454 73.8029 107.847 73.155C106.621 71.8381 105.205 72.5925 103.701 73.3803C103.29 73.596 102.872 73.4856 102.49 73.3896C101.187 73.0644 99.9222 72.5621 98.5933 72.3451C97.2881 72.1278 95.9162 72.2313 94.595 72.0944C92.0897 71.8407 89.6058 71.4839 87.0953 71.265C86.4467 71.2084 85.7021 71.6341 85.0428 71.623C83.7227 71.5945 82.4211 71.4621 81.1317 71.2905C80.1612 71.158 79.2425 70.7552 78.2574 70.7095C75.154 70.5734 72.0203 70.6165 68.921 70.4633C67.4021 70.3879 65.963 69.8986 64.4455 69.8175C62.9768 69.742 61.4391 70.0349 59.9639 69.9999C57.6995 69.9532 55.4667 69.7217 53.2022 69.663C51.6933 69.6201 50.1286 69.8645 48.6371 69.7355C47.2742 69.6128 46.0256 68.8918 44.6431 68.9147C42.0625 68.9559 39.4132 69.4136 36.8167 69.5472C36.2094 69.5785 35.6767 69.0803 35.1466 68.7089C33.6617 67.6738 31.6698 68.8034 30.2592 67.2147C29.6281 66.507 28.3165 67.5084 27.3716 67.43C26.2365 67.3309 25.1986 66.7317 24.0571 66.6851C23.2145 66.6489 22.2752 67.1489 21.2292 67.4495C20.4225 66.0572 19.4284 65.0836 17.7199 65.4745C16.3862 65.7794 15.2059 64.8942 13.6877 66.6343C13.5178 66.8287 13.1585 66.0708 12.8805 65.7709C12.0846 64.9221 11.3497 63.8773 10.4561 63.3302C10.0149 63.0579 9.27308 63.7608 8.67562 63.9386C8.26201 64.0635 7.81504 64.2047 7.46718 64.0506C6.28327 63.5192 5.18559 62.6594 3.95741 62.3159C3.27259 62.1245 2.69531 62.3672 2.45502 60.7657C1.97703 57.5393 0.946926 54.8501 0.584012 51.5366C0.399026 49.876 1.15112 47.3362 1.5327 45.19C1.62144 44.6879 2.06021 44.1301 2.09365 43.6871C2.39957 39.6295 2.62341 35.6067 2.92518 31.5542C3.12427 28.8781 4.50515 26.0776 4.15154 23.4396C5.81965 22.3298 5.76847 19.6248 6.37168 17.5789C7.24401 14.6165 8.12835 14.0615 9.79174 12.8965C11.1042 11.9795 12.7072 12.237 13.9112 9.19651C14.2398 8.36625 14.9513 7.55407 15.4561 7.33039C16.7997 6.74528 18.118 6.7313 19.4633 6.03841C21.6759 4.90065 23.9008 3.30897 26.1157 2.12367C26.8355 1.74024 27.5554 1.95797 28.2503 2.03153C30.4398 2.2709 32.6133 2.59066 34.8014 2.83573C35.2824 2.88894 35.7969 2.79978 36.3018 2.72638C36.5501 2.6887 36.8902 2.33605 37.0537 2.48276C38.5358 3.8178 40.2652 1.95907 41.9609 0.958014C44.0787 -0.292213 45.8737 0.455309 47.6669 1.17238C48.2825 1.41959 49.0815 1.00074 49.7994 0.851287C50.3903 0.726044 51.0009 0.455127 51.5813 0.399543C52.9308 0.278677 54.2697 0.227471 55.6074 0.19401C55.976 0.184687 56.3278 0.309648 56.6685 0.44402C57.1352 0.620126 57.5751 0.898082 58.0486 1.04571C58.5935 1.21619 59.1468 1.3766 59.7238 1.39835C60.2296 1.42135 60.7741 1.25509 61.4826 1.14551C61.7405 6.47205 64.615 3.72899 66.6532 3.7704C67.0625 3.77667 67.5066 3.63487 67.893 3.7259C69.7312 4.17704 71.4809 4.87786 73.1075 6.12672C74.063 6.86278 75.5183 6.14172 76.56 6.69974C78.0791 7.5145 79.8401 7.20208 81.418 7.89245C83.5471 8.82691 85.6941 10.6011 88.4437 9.10302C88.7827 8.9184 89.1729 8.96825 89.4403 9.18757C91.5432 10.8732 94.1042 10.9657 96.5279 11.0138C99.1472 11.0719 101.154 12.9635 103.571 13.4909C104.341 13.6603 105.149 13.6822 105.908 13.8971C108.192 14.5375 110.453 15.2747 112.743 15.8923C113.073 15.9822 113.557 15.4228 113.909 15.4577C115.889 15.6597 117.863 15.8844 119.812 16.2294C121.519 16.5354 123.13 17.3719 124.896 17.2891C125.944 17.2416 127.212 15.8752 128.189 15.2278C129.337 15.8349 130.421 16.5772 131.592 16.9912C133.68 17.7237 135.776 18.4581 137.957 18.7855C138.918 18.9338 140.187 17.646 141.143 17.805C142.745 18.0682 144.191 19.0282 145.737 19.5787C146.669 19.9125 147.631 20.2054 148.637 20.1778C149.068 20.1652 149.644 19.303 149.917 19.4697C151.158 20.0505 152.371 20.721 153.641 21.1886C155.462 21.864 157.289 22.5351 159.173 22.9429C161.11 23.3633 163.117 23.4754 165.094 23.7128C165.186 23.7226 165.33 23.5761 165.395 23.6395C166.782 25.0542 168.517 25.1144 170.241 25.2081C172.505 25.3328 174.081 28.4392 176.798 26.5907C176.938 26.4975 177.128 26.4821 177.218 26.5996C179.188 29.2518 182.424 27.3453 184.52 29.6003C184.754 29.8479 185.455 29.3038 185.84 28.7753C186.944 27.2622 187.357 28.4055 187.98 29.0871C188.744 29.9223 189.565 30.699 190.482 31.0713C192.193 31.7629 193.974 32.2066 195.756 32.6204C197.097 32.9364 198.544 32.8266 199.849 33.2722C201.383 33.796 202.772 34.8747 204.308 35.4049C205.737 35.8979 207.27 36.0007 208.768 36.2395C209.047 36.287 209.386 36.0783 209.655 36.1537C211.93 36.768 214.235 37.2811 216.46 38.0877C219.414 39.1565 222.278 40.5708 225.237 41.6225C227.249 42.3371 229.36 42.6722 231.421 43.1938C233.572 43.7366 235.769 44.1162 237.861 44.8854C242.231 46.4922 246.549 48.297 250.878 50.0505C252.201 50.5845 253.583 50.9643 254.783 51.8541C256.165 52.8712 257.366 54.4104 258.677 55.6449C259.047 55.9908 259.511 56.1301 259.965 56.2249C260.453 56.3219 260.979 56.2474 261.486 56.2527C261.469 56.5132 261.455 56.7743 261.436 57.0405C260.933 57.4328 260.416 57.7319 259.935 58.2437C259.529 58.6769 259.076 59.2796 258.815 59.9634C258.685 60.2996 258.835 61.2965 259.043 61.4417C259.315 61.6262 259.774 61.3495 260.151 61.1138C260.84 60.675 261.548 60.2527 262.212 59.5796C262.952 58.8343 263.656 57.816 264.781 56.4159C264.353 57.842 264.092 58.7122 263.834 59.583C263.533 60.5942 263.237 61.6125 262.94 62.6244C263.451 62.6608 263.979 62.6288 264.474 62.7456C264.945 62.8564 265.377 63.1267 265.829 63.3293C265.525 64.2676 265.22 65.2115 264.897 66.2055C264.328 65.4101 263.967 64.8983 263.605 64.3921C263.425 64.7405 263.247 65.0832 263.067 65.4316C263.604 66.3395 263.998 67.917 264.707 68.018C266.406 68.256 266.31 70.2831 265.909 72.9118C265.574 75.099 264.457 77.8055 266.021 78.8052C265.599 78.5432 265.176 78.2813 264.636 77.9498C264.492 79.9897 264.613 81.611 264.223 83.04C263.703 84.9434 262.8 86.7082 262.044 88.5136C261.678 89.3892 261.271 90.2251 260.903 91.0341C260.181 91.6394 259.434 92.3409 258.685 92.8617C258.246 93.1672 257.761 93.3593 257.358 93.3005C255.593 93.0529 253.882 92.4996 251.852 94.9967C251.577 95.3347 251.1 95.1141 250.784 94.9375C248.945 93.915 247.102 93.1321 244.75 94.5495C243.651 95.2104 242.361 95.796 241.758 93.8025C241.634 93.4006 241.206 93.3238 240.876 93.3182C238.997 93.3024 237.044 93.6295 235.229 93.3162C232.385 92.8204 229.671 91.7481 226.832 91.2295C225.67 91.016 224.334 91.6087 223.076 91.8294C222.284 91.9674 221.5 92.0109 220.699 92.2611C220.287 92.3924 219.841 92.8823 219.412 93.2082C219.521 93.7387 219.629 94.2691 219.729 94.7374C218.373 94.4181 216.944 94.2377 215.623 93.674C215.221 93.501 215.115 92.2799 214.82 91.3749C212.823 93.5673 211.136 92.7129 209.471 91.6051C209.026 91.3081 208.414 91.5365 207.93 91.3444C206.116 90.6284 204.348 89.7308 202.511 89.0996C200.351 88.3564 198.145 87.8004 195.952 87.1875C194.219 86.7012 192.477 86.2427 190.741 85.7735C189.366 85.4014 188.126 84.2917 186.4 85.8746C186.124 86.1283 185.781 85.7289 185.463 85.648C184.001 85.2554 182.508 84.9818 181.087 84.4425C179.803 83.9597 178.624 83.0928 177.345 82.5872C176.816 82.3782 176.149 82.672 175.574 82.7289C173.468 81.4992 171.453 79.8885 168.499 84.5244L168.542 83.5545C168.832 83.1361 169.124 82.712 169.54 82.1127C169.035 81.8012 168.629 81.5552 168.546 81.5057C167.49 82.387 166.721 83.0293 165.523 84.0273C166.632 81.3252 166.483 79.9497 165.593 80.5694C165.021 80.9637 164.469 82.0779 163.522 83.4117L163.514 83.3977Z" fill="#FFEF00"/>
</svg>
