<?xml version="1.0" standalone="no"?>
<!DOCTYPE svg PUBLIC "-//W3C//DTD SVG 20010904//EN"
 "http://www.w3.org/TR/2001/REC-SVG-20010904/DTD/svg10.dtd">
<svg version="1.0" xmlns="http://www.w3.org/2000/svg"
 width="4076.000000pt" height="4076.000000pt" viewBox="0 0 4076.000000 4076.000000"
 preserveAspectRatio="xMidYMid meet">

<g transform="translate(0.000000,4076.000000) scale(0.100000,-0.100000)"
fill="#000000" stroke="none">
<path d="M19605 40739 c-3569 -136 -6996 -1188 -10019 -3076 -2624 -1640
-4873 -3892 -6512 -6525 -1755 -2819 -2789 -6012 -3019 -9318 -65 -941 -65
-1935 1 -2885 228 -3315 1277 -6535 3049 -9365 1485 -2372 3471 -4437 5795
-6027 1388 -949 2949 -1749 4520 -2318 2003 -725 4008 -1116 6170 -1205 341
-14 1240 -14 1575 0 767 32 1483 97 2190 201 4778 699 9154 3086 12355 6739
2498 2850 4151 6340 4765 10055 134 807 204 1460 256 2380 17 303 23 1329 10
1680 -70 1873 -359 3596 -897 5340 -428 1385 -1037 2786 -1762 4055 -1291
2258 -2998 4246 -5042 5872 -1343 1067 -2826 1966 -4407 2669 -2361 1050
-4872 1627 -7523 1729 -295 11 -1197 11 -1505 -1z m3467 -2226 c116 -110 173
-575 138 -1108 -34 -507 -287 -2518 -460 -3659 -57 -376 -100 -575 -175 -803
-71 -216 -133 -341 -205 -415 -50 -52 -60 -58 -96 -58 -123 0 -194 234 -210
695 -7 204 6 449 52 995 35 425 65 678 149 1266 78 548 111 803 170 1304 116
990 231 1437 438 1713 84 111 136 129 199 70z m-5022 -172 c185 -124 354 -599
459 -1286 52 -340 204 -1538 385 -3045 191 -1582 251 -2108 277 -2445 16 -202
16 -605 0 -729 -26 -204 -81 -351 -152 -408 -35 -28 -39 -29 -80 -18 -73 20
-156 113 -222 250 -151 312 -252 768 -376 1690 -22 162 -101 750 -176 1305
-345 2564 -418 3131 -446 3445 -19 210 -17 620 4 770 57 406 174 574 327 471z
m9690 -1836 c17 -9 40 -34 52 -58 20 -36 23 -57 23 -152 -1 -127 -19 -221 -77
-405 -100 -313 -117 -349 -980 -2080 -781 -1569 -1193 -2381 -1316 -2595 -429
-747 -794 -1090 -960 -901 -110 126 -36 528 200 1081 61 144 1486 3001 1778
3565 409 793 605 1098 866 1350 112 108 174 154 254 187 64 26 119 29 160 8z
m-14209 -207 c81 -40 262 -218 373 -365 198 -264 339 -503 613 -1033 271 -525
1755 -3501 1848 -3705 204 -451 300 -800 267 -975 -18 -101 -57 -142 -134
-142 -165 0 -427 233 -677 602 -230 339 -479 811 -1278 2415 -238 479 -507
1014 -598 1190 -450 873 -633 1321 -682 1667 -27 191 1 323 77 360 54 28 117
23 191 -14z m17877 -2118 c45 -27 55 -60 49 -155 -14 -212 -196 -555 -537
-1015 -187 -251 -808 -1040 -1296 -1645 -106 -132 -291 -364 -412 -515 -346
-435 -537 -646 -761 -843 -289 -254 -482 -373 -626 -384 -51 -4 -65 -2 -95 19
-45 31 -60 61 -60 124 0 131 108 361 314 663 88 131 167 231 652 831 126 157
559 695 961 1195 402 501 775 962 829 1025 138 162 432 453 543 539 202 155
356 211 439 161z m-22438 -839 c106 -30 193 -69 320 -142 315 -180 630 -417
1320 -994 179 -149 357 -296 395 -326 39 -30 192 -153 340 -275 490 -400 885
-716 1245 -996 649 -505 959 -782 1170 -1044 131 -164 148 -274 42 -274 -97 0
-416 143 -698 314 -530 319 -1526 1049 -2884 2115 -710 557 -878 697 -1115
935 -183 183 -284 309 -340 421 -67 137 -68 242 -2 270 45 20 131 18 207 -4z
m12945 -2060 c49 -22 73 -48 91 -98 32 -91 5 -243 -71 -393 -155 -307 -822
-1111 -1271 -1530 -157 -148 -358 -316 -574 -480 -340 -259 -486 -387 -593
-518 -152 -185 -228 -389 -182 -485 9 -20 33 -46 52 -58 31 -19 45 -21 126
-16 189 11 438 127 836 390 l263 174 48 144 c202 613 706 1134 1095 1134 69 0
89 -4 145 -31 84 -40 129 -79 165 -146 25 -45 30 -67 33 -145 4 -77 0 -106
-22 -182 -87 -305 -389 -688 -657 -835 -36 -19 -116 -48 -184 -66 -140 -37
-211 -72 -242 -119 -26 -38 -38 -90 -29 -125 11 -44 73 -121 121 -151 41 -25
61 -31 125 -33 101 -5 178 15 317 83 364 176 893 586 1480 1147 186 177 312
217 399 127 107 -112 -87 -388 -551 -784 -125 -107 -528 -432 -655 -529 -238
-181 -491 -329 -680 -399 -293 -108 -527 -85 -698 68 -87 78 -173 213 -203
315 -7 25 -15 49 -19 53 -4 4 -63 -28 -131 -71 -261 -167 -520 -305 -689 -366
-336 -121 -630 -104 -779 45 -78 78 -115 178 -126 340 -11 175 -12 179 -45
179 -39 0 -110 -32 -282 -128 -347 -193 -496 -249 -594 -223 -81 22 -112 92
-77 172 67 149 233 277 758 584 326 190 382 228 516 343 171 147 277 265 504
562 398 520 961 1162 1348 1537 201 194 460 397 597 468 117 61 260 80 335 46z
m13035 -831 c170 -18 252 -54 279 -123 12 -33 12 -42 -4 -83 -48 -126 -274
-292 -600 -442 -275 -126 -471 -199 -1135 -427 -245 -85 -580 -201 -745 -259
-864 -306 -1341 -416 -1745 -403 -190 5 -273 27 -332 87 -32 32 -38 44 -38 81
0 138 193 299 582 488 347 169 613 267 1913 707 891 302 1439 414 1825 374z
m-28755 -475 c466 -83 1157 -339 2250 -835 549 -249 887 -446 1071 -625 105
-102 139 -185 99 -242 -23 -32 -104 -53 -230 -60 -318 -16 -836 121 -1695 449
-493 188 -729 287 -1025 433 -605 298 -983 592 -988 770 -3 116 217 163 518
110z m19659 -3950 c731 -88 1256 -381 1598 -889 105 -157 186 -327 252 -528
85 -256 132 -500 156 -807 14 -182 14 -5252 0 -5441 -61 -822 -304 -1431 -737
-1851 -331 -321 -750 -506 -1304 -576 -185 -23 -603 -23 -788 0 -742 93 -1265
404 -1616 962 -237 376 -384 884 -425 1470 -8 114 -10 924 -8 2815 4 2940 -1
2726 68 3070 147 735 502 1240 1074 1527 306 153 596 226 1076 267 98 9 532
-4 654 -19z m-14983 -93 c385 -62 629 -180 864 -417 293 -295 438 -678 514
-1361 60 -533 66 -1165 15 -1574 -42 -339 -137 -657 -241 -809 -55 -79 -178
-197 -285 -274 -224 -160 -484 -260 -736 -283 -52 -4 -72 -10 -69 -18 3 -7
299 -1104 658 -2437 531 -1970 654 -2435 653 -2484 -1 -115 -66 -211 -170
-251 -47 -18 -90 -19 -944 -19 -732 0 -904 3 -943 14 -95 28 -168 119 -206
261 -11 41 -306 1155 -656 2474 -350 1319 -640 2407 -645 2417 -21 38 -88 36
-114 -4 -13 -20 13 -276 249 -2457 160 -1473 262 -2449 258 -2470 -17 -91 -81
-173 -166 -211 l-52 -24 -880 0 -880 0 -57 28 c-67 33 -121 91 -142 155 -14
41 -16 525 -16 4796 1 3943 3 4757 14 4789 29 81 105 149 194 173 38 11 406
13 1847 11 l1800 -3 136 -22z m6060 2 c65 -31 123 -91 146 -155 17 -45 97
-859 468 -4744 246 -2579 448 -4717 448 -4751 1 -110 -65 -208 -172 -258 -46
-21 -54 -21 -841 -21 -791 0 -795 0 -841 21 -67 31 -123 86 -149 146 -20 46
-29 129 -80 719 -38 432 -63 674 -71 687 -7 11 -24 25 -36 31 -16 7 -187 11
-514 11 l-491 0 -29 -29 c-16 -16 -29 -40 -29 -53 0 -13 -21 -311 -46 -663
-51 -710 -51 -708 -125 -782 -48 -49 -89 -70 -163 -84 -35 -6 -337 -9 -833 -7
l-778 3 -57 28 c-101 50 -161 148 -160 261 1 42 848 8843 897 9311 8 78 21
157 30 178 17 41 64 98 105 127 71 50 20 49 1705 47 l1570 -2 46 -21z m2496
-3 c63 -28 124 -91 147 -152 11 -29 112 -828 305 -2427 241 -1991 292 -2386
307 -2403 22 -25 75 -25 98 0 14 15 68 442 306 2402 193 1593 295 2399 306
2428 23 61 84 124 147 152 l52 24 785 0 785 0 53 -24 c106 -48 184 -180 168
-283 -3 -21 -314 -1333 -690 -2915 -377 -1583 -696 -2936 -710 -3008 -57 -288
-94 -609 -105 -910 -6 -168 1 -378 46 -1325 29 -619 53 -1157 53 -1196 0 -124
-68 -226 -182 -272 -40 -16 -118 -17 -1063 -17 -945 0 -1023 1 -1063 17 -69
28 -118 73 -151 140 -27 52 -31 72 -31 137 1 42 24 578 53 1191 44 936 51
1148 46 1320 -11 303 -41 573 -100 885 -17 88 -338 1455 -715 3038 -376 1582
-687 2894 -690 2915 -4 24 1 62 11 100 29 101 108 176 212 201 21 5 376 9 803
8 l765 -2 52 -24z m11301 0 c61 -28 124 -94 146 -154 8 -23 283 -1014 611
-2202 328 -1188 600 -2170 605 -2183 23 -53 113 -49 126 5 4 14 -89 983 -206
2153 -143 1428 -210 2142 -206 2172 16 106 111 205 219 228 36 7 323 10 932 8
810 -3 883 -4 918 -20 62 -28 111 -73 143 -130 l29 -53 0 -4775 0 -4775 -30
-54 c-34 -62 -98 -113 -165 -133 -36 -10 -237 -13 -970 -13 -883 0 -927 1
-974 19 -54 21 -115 71 -145 119 -10 18 -310 1074 -666 2347 -356 1273 -654
2325 -661 2338 -21 32 -87 31 -109 -2 -15 -23 -1 -186 200 -2295 212 -2219
216 -2272 201 -2325 -21 -70 -87 -145 -158 -177 l-53 -24 -915 0 -915 0 -53
24 c-69 31 -137 106 -157 174 -13 45 -15 591 -15 4777 0 5229 -6 4784 65 4868
49 57 83 79 146 96 46 13 203 15 1029 13 l975 -2 53 -24z m-11440 -11381 c371
-47 593 -295 644 -720 17 -145 5 -434 -22 -540 -30 -115 -72 -200 -493 -990
l-365 -685 342 -5 341 -5 58 -29 c192 -94 193 -363 2 -461 l-59 -30 -540 0
-541 0 -57 28 c-125 62 -198 194 -184 338 3 38 17 101 29 141 15 47 180 362
465 889 242 449 451 845 463 880 21 59 23 83 23 289 1 213 0 227 -21 266 -29
54 -84 101 -128 110 -69 13 -169 0 -207 -25 -63 -44 -80 -80 -89 -193 -6 -77
-14 -113 -34 -154 -95 -194 -384 -191 -482 5 -15 29 -18 60 -17 161 1 106 5
137 26 203 39 115 99 210 197 307 99 98 166 140 285 181 133 46 226 56 364 39z
m1859 -21 c269 -70 448 -280 513 -599 19 -95 21 -128 17 -340 -5 -258 -15
-316 -77 -454 -17 -38 -202 -390 -411 -783 -209 -392 -382 -720 -385 -728 -5
-13 36 -15 318 -15 366 0 394 -4 467 -67 121 -103 121 -293 0 -396 -78 -67
-84 -68 -665 -65 l-519 3 -57 27 c-76 35 -141 103 -168 176 -30 78 -24 226 12
322 13 36 218 424 456 863 237 439 443 828 459 865 26 65 27 74 31 290 4 240
-1 275 -50 337 -65 83 -253 90 -336 12 -41 -38 -54 -77 -62 -182 -8 -116 -27
-162 -88 -217 -113 -102 -294 -88 -392 29 -46 57 -64 130 -57 233 26 362 297
652 662 710 84 13 240 3 332 -21z m8785 -758 c321 -64 808 -226 1426 -472 812
-324 1362 -681 1362 -883 0 -74 -102 -112 -280 -103 -364 19 -995 240 -2047
716 -607 275 -960 513 -980 658 -7 55 18 82 93 99 79 18 299 10 426 -15z
m-18257 -407 c79 -20 116 -42 137 -85 14 -28 16 -42 7 -71 -48 -177 -445 -399
-1144 -642 -871 -302 -1185 -407 -1447 -481 -430 -123 -765 -175 -998 -155
-169 15 -244 48 -264 117 -18 57 76 171 219 266 224 147 529 274 1235 512 168
57 373 128 455 158 909 332 1493 456 1800 381z m15235 -1327 c153 -55 384
-181 644 -351 192 -126 360 -223 641 -371 445 -234 572 -319 1100 -740 288
-230 454 -375 596 -521 208 -215 302 -376 284 -486 -7 -37 -12 -42 -64 -66
-42 -20 -77 -27 -143 -30 -237 -12 -486 137 -1183 704 -392 319 -689 556 -945
754 -494 382 -676 536 -885 751 -152 156 -209 228 -236 298 -21 55 -17 78 15
91 29 12 75 3 176 -33z m-13211 -313 c18 -15 33 -39 37 -60 20 -109 -108 -377
-319 -666 -46 -62 -179 -232 -298 -378 -118 -146 -527 -652 -909 -1125 -859
-1065 -941 -1161 -1155 -1345 -145 -124 -228 -176 -329 -205 -190 -55 -218
105 -72 410 145 303 280 485 1357 1830 669 835 772 958 961 1141 354 341 621
488 727 398z m5635 -1283 c85 -53 100 -170 51 -386 -55 -245 -141 -468 -345
-895 -238 -497 -269 -560 -349 -700 -242 -423 -483 -734 -856 -1105 -329 -328
-347 -354 -426 -602 -100 -317 -135 -501 -127 -675 6 -131 36 -196 110 -234
38 -20 145 -18 209 5 220 75 447 247 824 625 264 264 381 393 718 793 199 235
232 263 311 263 26 0 44 -7 63 -26 23 -23 25 -31 20 -83 -2 -32 -14 -75 -25
-97 -17 -34 -18 -45 -9 -92 18 -86 -5 -152 -110 -317 -174 -273 -271 -472
-301 -616 -15 -70 -15 -83 -2 -121 30 -86 130 -113 235 -64 157 73 664 455
980 737 124 111 210 180 256 205 18 9 49 53 89 126 91 163 275 438 367 548
106 126 270 283 364 347 75 51 77 52 185 63 100 11 113 10 160 -8 110 -41 248
-160 275 -237 7 -19 16 -35 20 -35 5 0 48 40 96 88 105 105 174 149 208 134
52 -24 105 -147 144 -332 39 -191 49 -643 18 -863 -18 -126 -16 -160 6 -138 6
6 18 11 26 11 8 0 42 13 76 29 34 17 87 37 116 46 320 99 288 77 427 307 154
253 211 340 311 473 150 199 185 224 304 225 95 0 130 -18 163 -86 32 -65 30
-137 -4 -202 -12 -23 -20 -42 -18 -42 2 0 53 34 113 76 231 162 358 230 492
265 190 49 301 6 371 -143 58 -124 60 -194 16 -483 -8 -49 -17 -129 -21 -177
-7 -85 -7 -88 14 -88 47 0 319 155 757 432 l253 159 22 67 c131 398 511 839
828 961 97 37 187 55 253 49 114 -9 245 -101 289 -201 80 -183 -41 -480 -311
-761 -178 -185 -326 -272 -525 -306 -183 -32 -242 -70 -252 -162 -8 -74 45
-157 129 -204 48 -26 61 -29 143 -28 118 1 236 39 428 138 338 174 617 365
1099 752 243 196 288 226 359 245 58 15 91 7 137 -36 33 -30 37 -39 37 -82 -1
-162 -240 -391 -872 -832 -321 -224 -474 -320 -648 -406 -244 -121 -402 -166
-575 -166 -172 0 -274 42 -390 160 -60 60 -85 96 -122 171 -26 52 -50 108 -54
123 -4 20 -11 26 -21 22 -9 -3 -102 -59 -207 -124 -569 -352 -800 -430 -984
-331 -123 65 -202 189 -210 332 -5 85 11 287 33 413 8 43 12 81 10 83 -11 11
-142 -75 -310 -205 -235 -181 -347 -278 -685 -597 -126 -119 -273 -237 -332
-267 -113 -58 -223 -34 -282 60 -37 59 -49 105 -37 147 6 21 8 40 6 43 -7 6
-289 -138 -371 -190 -110 -70 -100 -49 -239 -514 -32 -104 -91 -284 -131 -400
-41 -115 -74 -211 -74 -214 0 -5 32 0 475 77 1564 274 2970 447 3992 492 351
15 559 -9 605 -71 53 -70 -53 -133 -352 -209 -207 -52 -479 -98 -1706 -285
-666 -101 -1401 -214 -1635 -250 -233 -36 -561 -86 -729 -111 -168 -25 -425
-65 -573 -90 -147 -24 -269 -44 -272 -44 -2 0 -16 -28 -31 -62 -59 -133 -247
-500 -334 -653 -393 -685 -911 -1267 -1455 -1634 -316 -213 -583 -340 -754
-357 -61 -6 -165 13 -236 45 -97 43 -201 178 -249 321 -22 65 -30 111 -33 195
-5 99 -2 123 25 236 45 183 114 349 174 418 16 18 35 45 41 60 64 145 379 595
610 871 58 69 102 126 98 128 -11 4 -646 -144 -1151 -269 -1012 -250 -1929
-499 -3305 -899 -485 -141 -934 -240 -1087 -240 -198 0 -117 110 212 288 347
188 1090 468 1840 692 783 234 2419 640 3710 921 l285 61 143 137 c293 278
468 430 812 706 217 174 632 486 810 609 224 155 213 143 244 276 42 186 46
230 53 535 6 277 0 425 -16 425 -4 0 -22 -22 -39 -49 -17 -26 -62 -84 -99
-127 -127 -148 -460 -568 -587 -743 -70 -95 -153 -204 -184 -241 -31 -36 -92
-110 -135 -162 -97 -120 -238 -256 -317 -307 -124 -80 -241 -97 -342 -48 -71
35 -113 86 -144 177 -26 77 -48 223 -42 275 5 43 2 41 -127 -70 -243 -209
-547 -424 -707 -500 -149 -70 -254 -97 -379 -98 -102 0 -109 2 -181 36 -121
58 -191 141 -222 262 -25 93 -19 275 11 370 3 11 -97 -84 -223 -211 -362 -365
-582 -528 -829 -617 -153 -54 -351 -62 -465 -18 -101 38 -177 139 -216 286
-27 104 -25 356 5 528 82 468 291 1073 614 1774 186 405 674 1285 932 1683
165 255 370 497 486 574 128 85 211 101 283 57z m652 -2062 c76 -71 73 -182
-8 -319 -96 -162 -149 -221 -217 -241 -34 -10 -44 -9 -77 7 -54 27 -79 80 -79
170 0 65 4 78 56 185 63 130 105 183 164 211 54 25 126 20 161 -13z m-8387
-1660 c122 -28 237 -124 266 -221 33 -112 14 -224 -66 -386 -63 -129 -169
-271 -290 -387 -181 -175 -287 -233 -487 -270 -71 -13 -148 -33 -171 -44 -106
-55 -108 -185 -5 -285 52 -50 117 -69 218 -64 108 6 200 37 386 129 333 166
631 368 1079 729 111 91 224 181 250 200 26 19 67 64 92 100 65 96 190 250
232 287 61 53 167 69 247 37 83 -33 119 -167 72 -263 -12 -25 -21 -46 -19 -47
1 -2 59 35 127 82 194 133 310 198 417 234 187 63 317 42 391 -63 86 -121 98
-232 57 -513 -14 -93 -25 -197 -25 -231 0 -56 2 -63 20 -63 45 0 358 179 757
433 332 211 372 232 455 240 41 4 51 1 84 -26 69 -58 93 -160 55 -235 -40 -78
-164 -172 -526 -398 -458 -285 -661 -385 -848 -414 -197 -31 -378 111 -418
326 -14 76 0 276 37 502 l7 44 -44 -22 c-138 -71 -487 -350 -800 -642 -338
-315 -378 -349 -484 -409 -115 -65 -229 -39 -290 66 -32 53 -42 112 -27 154 6
17 9 31 6 31 -3 0 -94 -61 -201 -137 -605 -422 -978 -571 -1275 -509 -106 23
-174 61 -260 147 -64 65 -85 94 -126 181 -64 131 -77 187 -76 323 3 575 567
1312 1059 1384 33 5 65 9 70 10 6 0 30 -4 54 -10z"/>
<path d="M21163 30416 c-249 -253 -469 -494 -720 -786 -171 -200 -424 -506
-438 -530 -12 -21 218 194 274 256 25 28 132 142 238 253 230 240 435 467 579
639 132 158 309 391 302 397 -3 3 -109 -100 -235 -229z"/>
<path d="M21640 29126 c-138 -49 -406 -321 -506 -513 -40 -77 -47 -146 -15
-163 30 -16 92 -12 138 10 132 60 342 263 461 448 80 123 89 187 32 217 -35
18 -63 18 -110 1z"/>
<path d="M25367 23718 c-137 -238 -238 -1806 -208 -3227 16 -743 38 -1176 82
-1596 31 -300 74 -546 106 -610 71 -141 145 -50 192 237 101 612 157 1907 132
3046 -15 711 -28 955 -77 1462 -52 539 -95 719 -176 728 -22 3 -31 -4 -51 -40z"/>
<path d="M9209 24282 l-34 -30 -3 -854 c-1 -469 0 -868 3 -887 4 -18 17 -44
30 -57 22 -22 33 -24 112 -24 71 0 98 5 138 24 92 43 169 151 214 301 45 151
53 226 58 568 12 784 -58 962 -392 984 l-92 6 -34 -31z"/>
<path d="M15226 23218 c-19 -30 -353 -4359 -339 -4398 17 -49 31 -50 419 -48
340 3 363 4 383 22 16 14 21 31 21 65 0 25 -25 314 -55 641 -128 1393 -256
2930 -301 3599 -8 119 -20 141 -79 141 -25 0 -39 -6 -49 -22z"/>
<path d="M19040 9974 c-80 -73 -291 -384 -535 -789 -98 -163 -198 -351 -343
-645 -369 -750 -486 -1010 -455 -1010 5 0 56 60 114 133 407 506 758 1097
1065 1789 84 190 214 514 214 534 0 27 -21 23 -60 -12z"/>
<path d="M26805 8216 c-196 -103 -465 -404 -465 -522 0 -26 39 -54 75 -54 113
0 351 174 501 366 98 126 116 185 68 223 -41 32 -100 28 -179 -13z"/>
<path d="M21703 7791 c-128 -101 -475 -503 -622 -721 -131 -195 -326 -557
-392 -727 -19 -52 28 -18 163 115 139 136 452 476 518 562 19 25 82 95 140
155 58 61 140 150 183 198 l77 88 0 179 c0 98 -4 181 -9 184 -5 4 -31 -11 -58
-33z"/>
<path d="M21960 6072 c-59 -35 -229 -152 -370 -255 -351 -258 -1022 -819 -960
-804 37 9 978 194 1028 202 42 7 45 9 74 74 51 112 154 371 183 461 15 47 41
119 57 160 16 41 29 80 29 85 1 6 6 21 11 35 18 46 27 80 20 80 -4 0 -36 -17
-72 -38z"/>
<path d="M21405 4723 c-11 -2 -173 -33 -360 -69 -187 -36 -488 -96 -669 -134
-269 -57 -334 -74 -354 -92 -75 -69 -344 -392 -503 -603 -306 -407 -506 -817
-573 -1174 -24 -126 -21 -194 8 -228 24 -27 26 -28 128 -27 84 1 118 6 183 28
90 31 295 135 436 222 332 205 846 662 1067 949 202 261 458 667 634 1003 75
142 75 141 3 125z"/>
<path d="M11429 6331 c-104 -41 -322 -218 -384 -313 -5 -8 -32 -47 -59 -86
-35 -52 -50 -84 -54 -118 -6 -58 11 -74 78 -74 67 0 145 43 280 154 171 140
288 285 297 369 5 39 2 46 -22 65 -33 26 -74 27 -136 3z"/>
</g>
</svg>
