<?xml version="1.0" encoding="UTF-8"?>
<svg id="Calque_1" xmlns="http://www.w3.org/2000/svg" version="1.1" viewBox="0 0 297 144">
  <!-- Generator: Adobe Illustrator 29.4.0, SVG Export Plug-In . SVG Version: 2.1.0 Build 152)  -->
  <defs>
    <style>
      .st0, .st1 {
        fill: #3435ff;
      }

      .st1 {
        stroke: #3435ff;
        stroke-miterlimit: 10;
        stroke-width: .8px;
      }
    </style>
  </defs>
  <path class="st0" d="M63.6,112.4c7.1-3.7,22.7-7.2,32.3-8.9,54.3-9.3,111.2-13.4,139.1-11.3,2.3.3,6.3.9,4.9,2.5-1.2,1.1-6.5,1.8-13.9,2.2-14.6.8-27.9,1.5-43.5,2.4-33.2,1.4-68.8,6.9-100.7,12.9-6.4,1.3-26,4.9-18.3.2h0Z"/>
  <path class="st0" d="M87.4,71.4c-.6-.4-1.5,0-2.2.2-.7.3-1.9.9-3.7,1.8-4.5,2.3-7.8,3.9-9.6,4.6-1.3.6-2,.7-2.3.7,0-.4,0-1.2.5-2.9.2-1,.5-1.9.7-2.8.2-1,.3-1.6.3-2.1,0-.9-.2-1.8-.6-2.7-.4-.9-1-1.5-1.6-1.7-1.5-.6-3.5-.4-6.1.7-1.5.7-3.4,1.7-5.6,3,.3-.4.6-.8.7-1.1.3-.5.4-1,.3-1.4,0-.2,0-.5-.2-.8,0-.6-.6-1.5-2.3-1.5s-1.4,0-1.8.4c-.3.2-.7.5-1.9,1.8-.6.6-1.4,1.5-2.3,2.6-.9,1.1-1.8,2.3-2.7,3.5s-1.8,2.4-2.5,3.5c-.8,1.1-1.3,2-1.7,2.5-.6,1.1-.9,1.7-.9,2.2s.2,1.1.7,1.9c.5.6,1.2,1,1.9,1s.6,0,1,0c.9-.3,2.4-1.1,4.6-2.8,3.6-2.8,6.4-4.9,8.2-6.1,1.9-1.2,3.5-2.2,4.6-2.9,1.1-.6,1.8-.9,2.3-1,0,.2,0,.4-.2.7-.2.8-.4,1.7-.6,2.6-.3,1.6-.5,2.7-.5,3.3s0,1.3.3,2c.2.5.4,1.1.8,1.5.4.5.7.8,1.1,1.1.7.5,1.5.9,2.5.9s2,0,3.3-.5c1.2-.4,2.8-1,4.6-1.8,1.8-.8,3.9-1.9,6.4-3.1,2.1-1.1,3.5-1.9,4.3-2.4.9-.6,1.3-1.1,1.6-1.8.2-.9.2-2.2-1.4-3.3h0v.3Z"/>
  <path class="st0" d="M229.4,67.9c-.6-.4-1.5,0-2.2.2-.7.3-1.9.9-3.7,1.8-4.5,2.3-7.8,3.9-9.6,4.6-1.3.6-2,.7-2.3.7,0-.4.1-1.2.5-2.9.2-1,.5-1.9.7-2.8.2-1,.3-1.6.3-2.1,0-.9-.2-1.8-.6-2.7-.4-.9-1-1.5-1.6-1.7-1.5-.6-3.5-.4-6.1.7-1.5.7-3.4,1.7-5.6,3,.3-.4.6-.8.7-1.1.3-.5.4-1,.3-1.4,0-.2,0-.5-.2-.8-.1-.6-.6-1.5-2.3-1.5s-1.4,0-1.8.4c-.3.2-.7.5-1.9,1.8-.6.6-1.4,1.5-2.3,2.6-.9,1.1-1.8,2.3-2.7,3.5s-1.8,2.4-2.5,3.5c-.8,1.1-1.3,2-1.7,2.5-.6,1.1-.9,1.7-.9,2.2s.2,1.1.7,1.9c.5.6,1.2,1,1.9,1s.6,0,1,0c.9-.3,2.4-1.1,4.6-2.8,3.6-2.8,6.4-4.9,8.2-6.1,1.9-1.2,3.5-2.2,4.6-2.9,1.1-.6,1.8-.9,2.3-1,0,.2-.1.4-.2.7-.2.8-.4,1.7-.6,2.6-.3,1.6-.5,2.7-.5,3.3s0,1.3.3,2c.2.5.4,1.1.8,1.5.4.5.7.8,1.1,1.1.7.5,1.5.9,2.5.9s2,0,3.3-.5c1.2-.4,2.8-1,4.6-1.8s3.9-1.9,6.4-3.1c2.1-1.1,3.5-1.9,4.3-2.4.9-.6,1.3-1.1,1.6-1.8.2-.9.2-2.2-1.4-3.3h0v.3Z"/>
  <path class="st0" d="M112.2,67.1c-8.4,18.3,1.4,15.6,11.8,7,4.8-3.8,9.1-8.1,13.5-12.4,2.4-2.5,5-1,2.7,2.2-2.6,3.3-5.7,5.9-8.8,8.8-6.3,5.2-15.7,15.1-23.9,11.5-7.6-4.8,4.8-27,9.4-34.8,4-6.5,9.7-14.8,14.8-21.3,2.3-2.5,5.3-6.4,8.8-7.1,1.8-.3,2.8,1.3,2.6,3.1-1.5,7-5.8,12.6-9.3,18.8-4.4,7.2-9.7,13.2-16,18.2-2.1,1.6-4.3,3.2-5.6,5.8h0v.2ZM126.4,41.6c-2.8,4.5-5.9,9.4-8.5,13.9-.4.8-1.3,2.2-1.3,2.9,8.9-8.6,16.2-19.5,21.8-30.9.9-3.9-11.7,13.2-11.9,13.9h0v.2Z"/>
  <path class="st0" d="M131.8,84c-5-2.1-3.7-7.8-1.5-11.9,1.8-3.5,3.6-7.1,6.3-9.1,3.1-2,4.9,1.5,2.9,4.3-1.4,1.7-9.9,11.9-4.2,12.2,1.1,0,2.1-.6,3.1-1.1,2.4-1.2,5.5-3.2,9.4-5.8,2.3-1.2,8-7,10.1-4.1.3.6.2,1.4-.3,2.2-2.6,3.4-6.4,5.2-9.7,7.7-4.4,2.7-10.6,7.3-15.9,5.7h-.2ZM147.1,54.9c-.6.8-1,1.4-1.8,1.9-2.4,1.3-3.6-1.8-2-4.2.9-1.5,1.8-3.2,3.6-3.3,1.5,0,2.4,1.7,1.8,3-.3.9-.9,1.7-1.4,2.4v.2h-.2Z"/>
  <path class="st0" d="M52,69.9c6,2.9-11.2,11.4-13.4,12.8-6.8,3.8-18.9,9.9-22.1-1.3-2.2-8.6,9.8-22,17.5-20.3,8.8,3.7-2,14.4-7,15.8-2,.9-6-.5-6.1,2.8,1.4,5.3,8.2,2.1,11.5.7,4.9-2.2,9.1-4.8,13.6-7.8,1.9-1.1,3.8-3,5.9-2.8h0ZM25.7,69.8c-1.1,1-3.4,3.7-.7,3.7,1.6,0,3.1-1.3,4.5-2.2,1.1-.8,2.3-1.9,3.2-3,.2-.2.7-1.1.6-1.6-1.2-2.4-6.3,1.7-7.5,2.9h-.1c0,0,0,.2,0,.2Z"/>
  <path class="st0" d="M260.7,64.5c6,2.9-11.2,11.4-13.4,12.8-6.8,3.8-18.9,9.9-22.1-1.3-2.2-8.6,9.8-22,17.5-20.3,8.8,3.7-2,14.4-7,15.8-2,.9-6-.5-6.1,2.8,1.4,5.3,8.2,2.1,11.5.7,4.9-2.2,9.1-4.8,13.6-7.8,1.9-1.1,3.8-3,5.9-2.8h.1ZM234.3,64.4c-1.1,1-3.4,3.7-.7,3.7,1.6,0,3.1-1.3,4.5-2.2,1.1-.8,2.3-1.9,3.2-3,.2-.2.7-1.1.6-1.6-1.2-2.4-6.3,1.7-7.5,2.9h-.1v.2Z"/>
  <path class="st1" d="M196.7,74.3c.3.3.3.4.2.5h-.7l-2.5-.3h-1.4c-.6.2-1.6.5-3.1,1s-3.1,1-4.8,1.6-3.2,1.2-4.6,1.8c-1.4.6-2.2,1.1-2.4,1.6,0,0-.3.4-.5,1-.3.6-.6,1.3-.9,2.2-1.9,4.8-4.1,9.5-6.5,14.1s-5.2,9-8.3,13.2c-3.1,4.1-6.6,7.9-10.5,11.3s-8.2,6.3-13,8.5c-4,1.8-6.8,2.5-8.5,2-1.6-.4-2.7-1.1-3.3-2-.2-.3-.5-.7-.8-1.3s-.5-1.1-.6-1.5c-.3-.8-.4-1.8-.4-2.9s.2-2.2.6-3.1c.3-1,.7-2.1,1.3-3.2.6-1.2,1.1-1.9,1.4-2.3,0,0,.2-.2.5-.4.2-.2.4-.5.6-.9,1.8-2.5,3.7-4.8,5.7-7s4.2-4.3,6.4-6.4c.4-.4.9-.9,1.5-1.4.5-.5.9-.9,1.2-1.2,4.3-3.8,9-7.5,14.1-10.9s10.2-6.6,15.2-9.4c.9-.5,1.5-.8,1.8-1s.5-.4.7-.5c.1-.2.3-.8.6-1.7.3-.9.6-1.8.8-2.8.1-.5.2-1.2.3-1.9l.4-3.4.3-2.9v-1.4c0-.2-.1-.2-.2-.2,0,0-.2.2-.5.6-.5.6-1.4,1.5-2.7,2.7-1.2,1.3-2.5,2.6-3.9,4-1.8,1.9-3.2,3.4-4.1,4.5-.9,1-1.7,1.9-2.3,2.4-.3.3-.7.6-.9.9-.3.3-.5.6-.7.7-.8.9-1.9,1.9-3.3,3-1.4,1.1-2.7,1.8-4,1.9-1,0-1.7,0-2.2-.4-.8-.3-1.4-1-1.8-2-.6-2.1-.6-4.3.2-6.6.6-1.6,1.4-3.3,2.6-5.2,1.2-1.9,2.4-3.8,3.9-5.6,1.4-1.9,2.9-3.5,4.5-5s3.1-2.6,4.6-3.4c.6-.3.9-.5,1-.5h2.7c.3,0,.7.3,1.2.5,1.5,1,2.5,2.1,2.9,3.2.1.2.2.3.2.5,0,0,.1.2,0,.2.2,0,.5-.2.9-.7.7-.6,1.4-1.2,2.2-1.6.8-.4,1.2-.6,1.3-.4.5.5.8,1,1,1.5.1.5.3,1.4.5,2.8.2,2.1.1,4.3,0,6.6-.2,2.4-.6,4.4-1.1,6.2,0,.2,0,.3-.1.4v.7c.1,0,.3,0,.5-.2.2,0,.3,0,.5,0,.2,0,.4,0,.6-.2.9-.3,1.6-.5,2.2-.6.2,0,.6,0,1.1-.2s1-.2,1.6-.4c1.1-.4,2-.6,2.7-.7.6,0,1.4-.3,2.3-.4,1.9-.2,3.2,0,3.9.2.5.2.9.4,1.2.7.4.2.6.4.6.6s0,.4.3.6h-.2ZM172.1,84.3c.2-.5.4-.8.5-1,0-.2,0-.3.2-.5,0,0-.6.2-1.7.7-1.1.6-2.1,1.2-3.2,1.8-3.1,1.8-6.6,4-10.4,6.6-3.8,2.6-7.5,5.4-11.2,8.5-3.7,3-7,6.2-10.1,9.6-3.1,3.3-5.5,6.7-7.3,10.1-.8,1.6-1.5,3.2-2,4.9-.5,1.7-.6,2.7-.2,3.2.2.3.7.4,1.5.5,1.5.2,3.4-.2,5.7-1.2,2.3-.9,4.7-2.1,7-3.6,2.4-1.5,4.6-3,6.7-4.7,2.1-1.6,3.7-3.1,4.9-4.4,1.7-1.8,3.4-3.8,5.2-6.1,1.7-2.3,3.4-4.6,5-7.1s3.1-5,4.5-7.5,2.7-4.9,3.7-7.2c.1-.4.3-.8.6-1.3.2-.5.5-.9.7-1.3h0ZM170.6,64.7c.2,0,.3-.3.3-.5l.2-1.5c0-.8.1-1.5.2-2.1v-1.1s-.3,0-.8.4c-.5.3-1.1.8-1.8,1.4-.7.6-1.5,1.3-2.4,2.1l-2.5,2.5c-.7.7-1.5,1.5-2.3,2.5-.8.9-1.6,1.9-2.3,3-.7,1-1.4,2-2.1,3-.7,1-1.2,1.9-1.6,2.7-.5.8-.7,1.3-.6,1.3s.6-.2,1.5-.9c1.2-1,2.5-2.1,4-3.4,1.4-1.3,2.5-2.2,3.1-2.9.4-.3.9-.7,1.3-1.2.4-.4.8-.8,1.1-1.1.3-.2.6-.5,1.1-.9s1-.9,1.5-1.3c.5-.5.9-.9,1.4-1.3.4-.4.7-.7.9-.8h-.2Z"/>
</svg>