<svg width="1458" height="498" viewBox="0 0 1458 498" fill="none" xmlns="http://www.w3.org/2000/svg">
<g clip-path="url(#clip0_640_66)">
<path d="M73.9652 490.061L70.4411 494.278H40.415L40.415 4.88477L73.9652 4.88477L73.9652 490.061Z" fill="#3435FF"/>
<path d="M1132.84 8.65797L1136.42 4.40625L1166.3 4.40625V494.348H1136.45L1132.84 490.028V8.65797Z" fill="#3435FF"/>
<path d="M1029.13 494.379H999.475L995.579 490.162V8.62064L999.418 4.4375L1029.13 4.4375V494.379Z" fill="#3435FF"/>
<path d="M546.447 494.66V4.75195L576.96 4.75195L580.341 9.68943V489.791C578.965 491.471 577.619 493.082 576.272 494.66C566.76 494.66 557.219 494.66 546.475 494.66H546.447Z" fill="#3435FF"/>
<path d="M148.277 494.322H117.678L117.678 4.55153C122.233 4.41437 127.276 4.17436 132.347 4.07149C137.504 4.00292 142.69 4.07149 148.277 4.07149L148.277 494.322Z" fill="#3435FF"/>
<path d="M1427.49 4.37695L1457.97 4.37695V494.353H1427.49V4.37695Z" fill="#3435FF"/>
<path d="M1290.21 4.37695L1320.67 4.37695V494.353H1290.21V4.37695Z" fill="#3435FF"/>
<path d="M1246.34 494.313H1215.89V4.37109L1246.34 4.37109V494.313Z" fill="#3435FF"/>
<path d="M921.283 4.33594L951.825 4.33594V494.175C947.327 494.312 942.284 494.552 937.242 494.655C932.084 494.724 926.899 494.655 921.283 494.655V4.33594Z" fill="#3435FF"/>
<path d="M254.983 4.37305L285.553 4.37305L285.553 494.178C281.027 494.315 275.984 494.555 270.942 494.658C265.784 494.726 260.599 494.658 255.012 494.658L255.012 4.37305H254.983Z" fill="#3435FF"/>
<path d="M841.269 4.37695L871.724 4.37695L871.724 494.353H841.269V4.37695Z" fill="#3435FF"/>
<path d="M734.507 494.35H703.936V4.54567C708.463 4.40851 713.506 4.1685 718.577 4.06563C723.734 3.99706 728.92 4.06563 734.507 4.06563V494.35Z" fill="#3435FF"/>
<path d="M365.601 494.348H335.059L335.059 4.54371C339.557 4.40656 344.6 4.16655 349.642 4.06368C354.828 3.99511 359.985 4.06368 365.601 4.06368L365.601 494.348Z" fill="#3435FF"/>
<path d="M660.163 494.352H629.621V4.54762C634.119 4.41047 639.162 4.17045 644.204 4.06759C649.362 3.99901 654.547 4.06759 660.163 4.06759V494.352Z" fill="#3435FF"/>
<path d="M409.431 4.37695L439.916 4.37695L439.916 494.353H409.431L409.431 4.37695Z" fill="#3435FF"/>
<path d="M452.342 4.36914L468.53 4.36914V494.345H452.342L452.342 4.36914Z" fill="#3435FF"/>
<path d="M1172.95 4.33984L1189.16 4.33984V493.733H1172.95V4.33984Z" fill="#3435FF"/>
<path d="M1038.52 4.36719L1054.8 4.36719V493.795H1038.52V4.36719Z" fill="#3435FF"/>
<path d="M602.952 494.341H586.707V4.94727L602.952 4.94727V494.341Z" fill="#3435FF"/>
<path d="M878.374 4.36523L894.676 4.36523V493.793H878.374V4.36523Z" fill="#3435FF"/>
<path d="M308.417 494.354H292.172L292.172 4.96094L308.417 4.96094V494.354Z" fill="#3435FF"/>
<path d="M173.993 494.345H157.806L157.806 4.36914L173.993 4.36914L173.993 494.345Z" fill="#3435FF"/>
<path d="M760.239 494.348H743.994V4.95508L760.239 4.95508V494.348Z" fill="#3435FF"/>
<path d="M17.1758 489.54L13.2507 494.203H0.357788L0.357788 4.70703L11.7322 4.70703L18.4078 9.50736L15.2276 15.062C15.9152 22.6397 17.1185 29.5316 17.1185 36.4235C17.2331 187.462 17.2045 338.501 17.2045 489.574L17.1758 489.54Z" fill="#3435FF"/>
<path d="M1349.05 494.351H1333.09V4.375L1346.93 4.375V21.1076C1346.93 171.461 1346.93 321.814 1347.01 472.167C1347.01 479.093 1348.24 486.019 1349.05 494.351Z" fill="#3435FF"/>
<path d="M806.249 4.64258V494.07H798.599V4.64258L806.249 4.64258Z" fill="#3435FF"/>
<path d="M785.949 494.337H778.357V4.36133L785.949 4.36133V494.337Z" fill="#3435FF"/>
<path d="M672.54 4.41016L680.104 4.41016V494.318H672.54V4.41016Z" fill="#3435FF"/>
<path d="M818.381 4.375L826.002 4.375V494.351H818.381V4.375Z" fill="#3435FF"/>
<path d="M388.459 494.351H380.866L380.866 4.375L388.459 4.375V494.351Z" fill="#3435FF"/>
<path d="M617.251 494.348H609.601V4.33789L617.251 4.33789V494.348Z" fill="#3435FF"/>
<path d="M23.3951 4.37891L30.9876 4.37891L30.9876 494.355H23.3951L23.3951 4.37891Z" fill="#3435FF"/>
<path d="M93.91 494.321H86.3175L86.3175 4.37891L93.91 4.37891L93.91 494.321Z" fill="#3435FF"/>
<path d="M212.11 4.375L219.702 4.375L219.702 494.351H212.11L212.11 4.375Z" fill="#3435FF"/>
<path d="M1266.36 494.311H1258.77V4.36914L1266.36 4.36914V494.311Z" fill="#3435FF"/>
<path d="M192.097 4.33594L199.746 4.33594L199.746 494.346H192.097L192.097 4.33594Z" fill="#3435FF"/>
<path d="M974.666 494.311H967.074V4.36914L974.666 4.36914V494.311Z" fill="#3435FF"/>
<path d="M1372.45 4.65039V494.078H1365C1363.54 492.364 1362.65 62.5629 1364.52 4.65039L1372.45 4.65039Z" fill="#3435FF"/>
<path d="M1384.11 4.41406L1392.19 4.41406V493.979C1384.22 494.219 1384.14 494.219 1384.14 487.876C1384.11 461.782 1384.14 435.655 1384.14 409.562V4.41406H1384.11Z" fill="#3435FF"/>
<path d="M1404.59 4.37891L1412.21 4.37891V494.355H1404.59V4.37891Z" fill="#3435FF"/>
<path d="M911.77 494.349H904.12V3.07031L911.77 7.6992V494.349Z" fill="#3435FF"/>
<path d="M231.664 0.945312L239.829 8.24867L239.829 490.167L234.386 495.379C232.982 493.973 231.807 493.356 231.75 492.636C231.521 489.824 231.664 486.978 231.664 484.132L231.664 0.945312Z" fill="#3435FF"/>
<path d="M523.794 8.2439L529.066 3.375C530.498 4.64366 531.759 5.22655 531.816 5.91232C532.045 8.72394 531.902 11.5698 531.902 14.4158V495.786L523.765 491.054V8.2439H523.794Z" fill="#3435FF"/>
<path d="M511.903 497.576C507.663 493.907 505.886 492.364 503.766 490.547L503.766 8.55944L509.038 3.34766C510.499 4.68489 511.76 5.26779 511.817 5.98784C512.046 8.79946 511.903 11.6454 511.903 14.4913V497.576Z" fill="#3435FF"/>
<path d="M1195.73 8.28405C1197.54 6.84395 1199.74 5.06097 1201.78 3.38086C1204.5 6.29534 1205.44 441.068 1203.38 495.243L1195.42 490.717C1196.45 484.579 1198.11 479.368 1198.11 474.19C1198.25 324.283 1198.25 174.375 1198.11 24.468C1198.11 19.8391 1196.76 15.1759 1195.7 8.24976L1195.73 8.28405Z" fill="#3435FF"/>
<path d="M482.154 4.37109L491.437 4.37109L491.437 494.347H486.566C486.165 332.165 485.764 170.188 485.277 8.21135C485.277 7.42273 484.016 6.59982 482.154 4.37109Z" fill="#3435FF"/>
<path d="M317.956 4.37305H322.684L322.684 494.315H317.956L317.956 4.37305Z" fill="#3435FF"/>
<path d="M1072.91 4.37109H1077.63V494.313H1072.91V4.37109Z" fill="#3435FF"/>
<path d="M1097.66 494.387H1092.88V4.3418H1097.66V494.387Z" fill="#3435FF"/>
<path d="M1112.93 4.37305H1117.66V494.349H1112.93V4.37305Z" fill="#3435FF"/>
</g>
<defs>
<clipPath id="clip0_640_66">
<rect width="1457.61" height="496.628" fill="white" transform="translate(0.361328 0.941406)"/>
</clipPath>
</defs>
</svg>
