<svg width="540" height="359" viewBox="0 0 540 359" fill="none" xmlns="http://www.w3.org/2000/svg">
<g clip-path="url(#clip0_640_48)">
<path d="M4.37855 299.941L1.83845 66.0512C1.6769 51.2265 1.73004 35.2071 6.96755 23.2639C14.4284 6.24593 28.9336 4.54486 41.5215 4.39151C156.842 3.00426 272.178 1.62057 387.488 4.80519C409.95 5.42571 432.409 6.22097 454.868 7.01267L508.754 8.91702C512.232 9.03827 515.837 9.21302 518.957 11.7878C526.367 17.8967 527.955 34.1265 528.612 47.9348C531.583 110.304 534.555 172.674 537.527 235.039C539.202 270.213 539.693 310.771 524.15 334.543C511.543 353.829 492.755 354.892 475.693 354.889C386.606 354.882 297.52 354.878 208.433 354.871L53.3059 354.86C40.5841 354.86 27.1587 354.55 16.2246 343.637C5.29044 332.725 -1.53702 307.209 5.38609 289.303" fill="#FF8200"/>
<path d="M3.17755 290.542C3.43475 289.676 3.63455 289.134 3.74296 288.748C3.85349 288.367 3.88963 288.16 3.89388 288.039C3.90026 287.796 3.77059 287.9 3.84074 287.625C3.59417 288.335 3.40074 288.909 3.25194 289.376C3.1074 289.847 3.02238 290.221 2.95648 290.492C2.82895 291.038 2.82257 291.216 2.86508 291.216C2.95011 291.213 3.23281 290.499 3.17967 290.542H3.17755Z" fill="#FF8200"/>
<path d="M14.6134 343.812L14.0246 343.352L14.5921 343.944C14.7834 344.136 14.9811 344.311 15.1745 344.496L15.7569 345.042L16.35 345.527C17.1428 346.165 17.9187 346.854 18.7392 347.378L18.2099 346.993L17.9442 346.8L17.687 346.583L16.6561 345.705C16.3139 345.406 15.9653 345.131 15.6252 344.81C15.2893 344.478 14.9471 344.158 14.6134 343.815V343.812Z" fill="#FF8200"/>
<path d="M46.4423 356.368C44.8991 355.919 41.936 355.851 38.62 355.495C37.791 355.384 36.9408 355.302 36.0863 355.167C35.659 355.092 35.2318 355.017 34.8046 354.946C34.3773 354.871 33.9501 354.803 33.5292 354.692C31.8393 354.318 30.2047 353.822 28.7742 353.223L27.8517 352.681C26.9568 352.567 26.0725 352.331 25.1777 352.121C28.6509 353.801 32.7427 354.917 36.5646 355.47C40.3907 356.03 43.9468 356.169 46.4423 356.368Z" fill="#FF8200"/>
<path d="M63.8447 358.111C62.7712 357.815 67.6049 357.857 59.7911 358.018C60.1843 358.05 60.297 358.068 60.5244 358.093C61.228 358.089 62.1952 358.093 63.8447 358.111Z" fill="#FF8200"/>
<path d="M60.5244 358.094C57.0916 358.115 62.7712 358.342 60.5244 358.094V358.094Z" fill="#FF8200"/>
<path d="M76.3815 357.925L71.8603 358.189C72.8041 358.364 76.83 358.403 75.3357 358.532C79.9759 358.385 79.0215 358.211 76.3836 357.922L76.3815 357.925Z" fill="#FF8200"/>
<path d="M80.6689 357.369L78.3243 357.48C78.7346 357.555 79.3553 357.58 80.6689 357.369Z" fill="#FF8200"/>
<path d="M73.3546 357.719L78.3243 357.484C77.6696 357.359 77.5995 357.113 76.0435 357.569C76.4495 357.345 75.4675 357.562 73.3546 357.719Z" fill="#FF8200"/>
<path d="M70.5403 357.601C68.0023 357.434 64.7268 357.33 69.2649 357.066C60.6137 357.17 61.8891 357.708 70.5403 357.601Z" fill="#FF8200"/>
<path d="M48.1215 355.625C46.9885 355.522 45.8577 355.418 44.7269 355.279C43.7448 355.329 42.7628 355.329 41.7808 355.34C42.1485 355.34 42.7415 355.379 43.4217 355.44C44.1019 355.49 44.8671 355.55 45.5814 355.604C47.0098 355.704 48.2256 355.743 48.1215 355.625Z" fill="#FF8200"/>
<path d="M104.552 358.322C104.835 358.158 103.032 357.89 102.694 357.68L99.353 357.865C101.07 357.976 104.325 358.079 104.552 358.318V358.322Z" fill="#FF8200"/>
<path d="M102.694 357.679L107.692 357.401C103.228 357.369 102.412 357.501 102.694 357.679Z" fill="#FF8200"/>
<path d="M81.4745 356.521L73.2653 357.106L83.058 356.514L81.4745 356.521Z" fill="#FF8200"/>
<path d="M123.64 358.343L120.807 358.721L125.855 358.15L123.64 358.343Z" fill="#FF8200"/>
<path d="M136.302 358.279C134.207 358.59 139.176 358.807 136.961 359C140.401 358.943 143.338 358.679 145.983 358.436C143.172 358.572 140.177 358.536 136.305 358.279H136.302Z" fill="#FF8200"/>
<path d="M150.421 358.086C149.018 358.161 147.564 358.293 145.98 358.435C147.473 358.364 148.941 358.261 150.421 358.086Z" fill="#FF8200"/>
<path d="M116.205 357.484C116.592 357.584 117.336 357.841 120.137 357.948L118.171 357.492C117.572 357.492 116.891 357.488 116.203 357.484H116.205Z" fill="#FF8200"/>
<path d="M118.105 357.477L118.175 357.491C120.309 357.505 121.789 357.512 122.422 357.516C121.878 357.512 120.579 357.498 118.107 357.477H118.105Z" fill="#FF8200"/>
<path d="M115.71 357.483C115.892 357.483 116.026 357.483 116.205 357.483C116.016 357.437 115.901 357.423 115.71 357.483Z" fill="#FF8200"/>
<path d="M94.5768 356.934C97.5144 356.677 103.636 356.406 97.712 356.014C95.6056 356.327 98.9959 356.549 94.5768 356.934Z" fill="#FF8200"/>
<path d="M113.269 356.91L107.962 356.807C108.066 356.928 109.022 357.103 107.568 357.231L113.269 356.914V356.91Z" fill="#FF8200"/>
<path d="M115.869 356.764L113.269 356.91L115.238 356.949L115.869 356.764Z" fill="#FF8200"/>
<path d="M141.327 357.655C143.621 357.455 146.129 357.441 148.963 357.409C145.925 357.319 142.786 357.27 139.803 357.27C139.382 357.412 138.073 357.669 141.327 357.655Z" fill="#FF8200"/>
<path d="M130.043 357.53C130.2 357.523 130.404 357.512 130.553 357.505C130.24 357.466 129.987 357.455 130.043 357.53Z" fill="#FF8200"/>
<path d="M176.857 357.412C176.702 357.383 176.568 357.358 176.409 357.33C176.372 357.355 176.349 357.383 176.304 357.408H176.857V357.412Z" fill="#FF8200"/>
<path d="M139.293 357.188C137.01 357.099 135.646 357.213 134.347 357.352C136.054 357.305 137.863 357.277 139.803 357.273C139.993 357.209 140.029 357.166 139.293 357.188Z" fill="#FF8200"/>
<path d="M158.203 357.872C157.014 357.776 155.665 357.694 154.249 357.619C155.412 357.765 157.782 357.99 158.203 357.872Z" fill="#FF8200"/>
<path d="M131.32 357.629C131.205 357.636 131.103 357.643 130.978 357.65C131.726 357.746 131.633 357.7 131.32 357.629Z" fill="#FF8200"/>
<path d="M131.32 357.63C132.496 357.562 133.418 357.451 134.345 357.352C132.955 357.387 131.667 357.437 130.551 357.505C130.833 357.537 131.116 357.587 131.32 357.63Z" fill="#FF8200"/>
<path d="M185.308 354.48C184.907 354.905 178.904 355.294 173.724 354.841C168.627 355.158 171.96 356.552 176.409 357.33C176.566 357.144 176.566 356.973 181.814 356.724C179.977 356.492 170.174 356.182 174.6 355.8C181.548 355.582 180.294 355.95 183.672 356.174C180.8 355.647 192.512 355.408 190.999 354.63L184.905 354.905C184.79 354.784 187 354.591 185.306 354.48H185.308Z" fill="#FF8200"/>
<path d="M166.414 357.287L164.254 357.34C166.716 357.415 168.478 357.583 171.719 357.914C175.312 357.708 176.056 357.551 176.304 357.408L165.674 357.347L166.412 357.283L166.414 357.287Z" fill="#FF8200"/>
<path d="M154.564 357.341C156.249 356.881 161.434 356.685 158.258 356.186C151.924 356.218 153.82 356.571 150.034 356.77C160.258 356.656 147.096 357.027 154.485 357.288C152.476 357.366 150.67 357.391 148.963 357.409C150.803 357.466 152.578 357.534 154.249 357.619C154.156 357.608 154.092 357.601 154.015 357.591H153.966C153.966 357.591 153.977 357.591 153.977 357.584C153.537 357.526 153.39 357.491 153.888 357.523C153.922 357.519 154.045 357.516 154.1 357.512C154.17 357.448 154.36 357.395 154.562 357.337C157.522 357.434 155.027 357.455 154.1 357.512C154.066 357.537 153.985 357.559 153.977 357.58L154.015 357.587L164.254 357.334C162.086 357.27 159.374 357.284 154.562 357.334L154.564 357.341Z" fill="#FF8200"/>
<path d="M103.173 355.027C103.489 355.066 103.477 355.102 103.5 355.134C104.163 355.077 104.414 355.038 103.173 355.027Z" fill="#FF8200"/>
<path d="M107.386 355.304C106.64 355.368 106.021 355.554 103.6 355.504C101.5 355.365 103.611 355.283 103.5 355.133C102.042 355.254 98.3943 355.464 102.969 355.689L103.693 355.625C107.815 355.782 113.114 356.36 112.394 356.424C111.191 356.007 110.13 355.714 107.386 355.304Z" fill="#FF8200"/>
<path d="M131.269 356.202L139.797 355.978L135.454 355.578L135.675 355.817C130.825 355.724 131.873 356.017 131.271 356.202H131.269Z" fill="#FF8200"/>
<path d="M177.833 357.645L176.702 358.13L181.627 357.441L177.833 357.645Z" fill="#FF8200"/>
<path d="M188.914 357.586L188.505 358.007L191.43 357.754L188.914 357.586Z" fill="#FF8200"/>
<path d="M431.346 8.7832L428.84 8.82225C430.026 8.82225 430.789 8.80805 431.346 8.7832Z" fill="#FF8200"/>
<path d="M449.482 9.40742L449.928 9.21484C449.086 9.304 448.742 9.37532 449.482 9.40742Z" fill="#FF8200"/>
<path d="M461.081 357.555C464.731 357.951 468.808 358.564 468.368 358.086L467.248 357.622C464.697 357.704 462.743 357.655 461.081 357.555Z" fill="#FF8200"/>
<path d="M532.874 138.68C532.874 139.265 532.874 139.871 532.874 140.477C533.039 141.946 533.195 143.33 533.333 144.564C533.195 142.795 533.037 140.787 532.872 138.68H532.874Z" fill="#FF8200"/>
<path d="M531.528 134.523L531.322 126.453C531.345 128.272 531.409 130.865 531.528 134.523Z" fill="#FF8200"/>
<path d="M332.297 6.6543L329.372 7.07868C333.944 7.15 331.933 6.87897 332.297 6.6543Z" fill="#FF8200"/>
<path d="M302.415 357.423C305.565 357.605 308.071 357.68 310.273 357.705C306.479 357.437 303.418 357.038 302.415 357.423Z" fill="#FF8200"/>
<path d="M438.541 4.09375C437.006 4.12941 436.352 4.20074 436.394 4.30416C437.974 4.27563 438.866 4.21857 438.541 4.09375Z" fill="#FF8200"/>
<path d="M319.369 357.7C318.814 357.665 318.27 357.629 317.704 357.59C315.402 357.668 313.085 357.729 310.273 357.7C313.075 357.897 316.284 358.021 319.369 357.7Z" fill="#FF8200"/>
<path d="M3.49424 73.2402C3.48787 73.6789 3.48574 74.2067 3.47511 74.6061C3.51337 74.738 3.50912 74.1318 3.49424 73.2402Z" fill="#FF8200"/>
<path d="M2.61212 248.922C2.57598 247.193 2.5441 244.372 2.51221 241.715C2.50796 243.009 2.53347 245.185 2.61212 248.922Z" fill="#FF8200"/>
<path d="M233.503 357.791C231.152 357.819 233.131 357.841 233.503 357.791V357.791Z" fill="#FF8200"/>
<path d="M222.073 355.953C222.573 355.903 222.953 355.836 223.013 355.729C222.819 355.839 222.492 355.91 222.073 355.953Z" fill="#FF8200"/>
<path d="M342.78 354.813C342.85 354.813 342.904 354.813 342.984 354.813C342.285 354.72 342.406 354.738 342.78 354.813Z" fill="#FF8200"/>
<path d="M229.968 357.58C230.85 357.637 231.866 357.684 232.973 357.719C232.489 357.684 231.575 357.637 229.968 357.58Z" fill="#FF8200"/>
<path d="M230.442 357.8C229.632 357.782 228.994 357.768 228.388 357.754C228.093 357.832 228.354 357.878 230.442 357.8Z" fill="#FF8200"/>
<path d="M236.778 357.765C235.435 357.772 234.181 357.75 232.973 357.715C233.434 357.747 233.628 357.772 233.505 357.789C234.193 357.786 235.167 357.775 236.778 357.765Z" fill="#FF8200"/>
<path d="M165.523 4.52165C165.368 4.51095 165.19 4.49669 165.02 4.48242C162.649 4.69283 163.691 4.6536 165.523 4.52165Z" fill="#FF8200"/>
<path d="M519.829 337.596C519.746 337.706 519.703 337.77 519.625 337.863C519.716 337.77 519.825 337.642 519.905 337.553L519.831 337.596H519.829Z" fill="#FF8200"/>
<path d="M525.738 328.291C524.703 330.616 523.782 332.32 522.851 333.736C522.618 334.089 522.388 334.435 522.158 334.767C521.918 335.084 521.68 335.398 521.44 335.712C520.966 336.354 520.445 336.917 519.907 337.549L521.238 336.743L522.558 335.833C522.856 335.231 523.138 334.61 523.427 334.004L523.64 333.547L523.842 333.073L524.244 332.128C524.792 330.898 525.258 329.56 525.742 328.287L525.738 328.291Z" fill="#FF8200"/>
<path d="M387.922 7.49693L393.844 8.11031C386.685 8.54539 381.511 8.2066 387.069 8.92698C387.922 7.49693 410.105 9.53323 410.944 8.10675L414.847 8.54183C413.729 8.4919 413.548 8.57035 412.441 8.52043C420.031 9.46547 418.097 7.65741 427.883 8.18164C431.293 8.40631 433.671 8.69517 431.344 8.79146L438.949 8.68091C441.16 8.78076 440.618 9.01613 438.416 8.91628L450.013 9.18018L449.926 9.2194C451.584 9.04823 455.335 8.81286 457.168 8.7344C460.112 9.04823 455.688 8.83782 456.439 9.04466L462.864 8.91984C465.475 9.39058 460.15 9.56532 455.714 9.35492C461.691 11.0168 461.045 9.17661 473.975 10.4818L467.911 10.4497C471.809 11.4126 476.545 11.2807 483.391 12.0367C481.77 11.7122 469.686 10.2572 476.658 10.1431C478.619 10.3214 481.208 10.464 484.971 10.3071C485.001 10.8242 488.671 10.8278 493.265 10.9597L492.944 11.6337C497.912 11.6123 497.525 11.2486 500.45 11.0453C505.982 11.3092 507.124 11.8798 508.421 12.3719C509.511 12.4183 510.234 12.4504 510.686 12.4682C511.129 12.486 511.305 12.4682 511.309 12.4326C511.318 12.3577 510.635 12.1865 509.987 12.0331C509.339 11.8834 508.729 11.7336 508.939 11.6337C509.043 11.5838 509.354 11.5481 509.957 11.5374C510.557 11.5374 511.456 11.5374 512.704 11.7015C514.449 12.026 515.992 12.5574 517.363 13.4454C518.728 14.3262 519.943 15.6029 521.034 17.2469C523.202 20.5778 524.862 25.5027 526.012 32.3819C526.276 34.4253 526.339 35.3846 526.346 35.6913C526.35 35.998 526.28 35.6628 526.191 35.1635C526.01 34.165 525.721 32.5424 525.865 34.0116C526.288 36.3689 526.639 38.7975 526.937 41.2617C527.064 43.0912 526.92 42.5206 526.85 42.2317C527.128 45.37 527.219 45.4948 527.356 46.0618C527.489 46.6324 527.638 47.6559 527.934 52.7199C528.512 55.391 528.27 73.6108 529.377 86.0853C529.409 89.1915 529.056 84.6268 528.943 85.5932C530.098 102.757 529.889 100.314 531.012 114.383L531.318 126.455C531.201 117.568 532.102 128.823 532.869 138.68C532.869 135.524 532.869 132.824 532.844 131.016L533.815 146.782C533.839 148.701 533.624 147.124 533.331 144.56C533.418 145.634 533.501 146.65 533.567 147.442C533.686 153.109 533.311 150.213 532.891 146.197C532.884 144.261 532.878 142.339 532.871 140.473C532.438 136.608 531.991 132.992 531.792 133.837C531.887 134.857 532.021 136.829 532.149 139.001C532.034 137.991 531.943 137.346 531.923 137.824C531.906 138.366 532.074 140.003 532.302 142.57L532.019 146.222L532.24 147.071L532.942 167.773C534.102 182.498 535.386 195.268 536.691 218.712C536.081 212.935 536.09 217.532 535.679 217.272C535.792 210.813 534.636 199.12 534.14 186.945C534.4 193.296 534.145 191.927 534.002 190.322L535.416 211.962C535.069 211.516 535.395 216.601 535.531 222.286C535.747 220.103 536.045 224.129 536.366 229.803C536.525 232.642 536.695 235.891 536.851 238.972C537.004 242.057 537.142 244.981 537.263 247.178C537.055 247.741 536.823 245.659 536.372 234.914C536.413 240.873 536.749 244.667 537.067 248.451C537.378 252.231 537.688 256.008 537.522 261.831C537.512 260.519 537.501 259.51 537.495 258.7C537.476 257.891 537.446 257.277 537.384 256.76C537.537 259.82 537.58 265.102 537.473 269.163C537.444 270.18 537.414 271.118 537.384 271.927C537.352 272.737 537.31 273.418 537.278 273.917C537.21 274.916 537.157 275.183 537.138 274.302C537.159 273.436 537.193 272.569 537.206 271.699C537.18 272.783 537.133 273.935 537.095 275.144C537.053 276.353 536.987 277.619 536.931 278.931C536.787 281.549 536.627 284.348 536.379 287.208C536.149 290.072 535.835 292.996 535.471 295.881C535.375 296.602 535.28 297.319 535.184 298.035C535.086 298.749 534.969 299.455 534.865 300.157C534.663 301.573 534.402 302.935 534.174 304.291C533.188 309.668 531.962 314.411 530.897 317.899C530.644 318.784 530.378 319.568 530.146 320.281C529.913 320.995 529.719 321.644 529.528 322.175C529.158 323.252 528.928 323.997 528.877 324.333C528.82 324.368 528.877 323.741 528.975 322.992C529.071 322.239 529.222 321.383 529.334 320.895C527.98 325.42 526.265 329.693 524.233 333.598C523.213 335.538 522.122 337.413 520.938 339.125C519.761 340.851 518.521 342.488 517.21 343.968C517.82 342.948 516.602 343.337 516.183 343.009C515.969 342.841 515.96 342.535 516.445 341.789C516.566 341.604 516.719 341.393 516.908 341.154C517.097 340.919 517.321 340.644 517.58 340.323C517.839 340.003 518.137 339.646 518.481 339.254C518.815 338.836 519.193 338.373 519.618 337.863C519.363 338.13 519.102 338.408 518.83 338.694C518.694 338.836 518.555 338.983 518.415 339.132C518.271 339.271 518.124 339.414 517.973 339.56C517.671 339.849 517.363 340.167 517.031 340.48C516.698 340.787 516.347 341.104 515.979 341.443C514.496 342.756 512.687 344.243 510.319 345.848C510.71 345.626 511.16 345.427 511.588 345.277C512.013 345.127 512.404 344.981 512.689 344.938C513.254 344.838 513.371 345.052 512.323 345.83C511.951 346.044 511.598 346.197 511.279 346.357C510.959 346.511 510.667 346.664 510.395 346.785C509.851 347.028 509.394 347.228 508.997 347.406C508.193 347.72 507.628 347.987 507.007 348.212C506.699 348.333 506.378 348.458 506.014 348.601C505.647 348.725 505.234 348.868 504.743 349.039C504.252 349.21 503.674 349.36 502.987 349.564C502.295 349.731 501.493 349.952 500.532 350.131C501.151 349.988 501.455 350.006 501.497 350.131C501.542 350.259 501.329 350.498 500.913 350.783C500.084 351.372 498.432 352.135 496.447 352.534C497.051 352.224 496.032 351.418 497.457 350.961C495.848 351.539 494.219 352.042 492.583 352.474C490.946 352.912 489.301 353.297 487.647 353.625C490.121 353.19 488.051 352.591 485.83 352.395C486.346 352.477 484.206 352.627 481.595 352.673C478.985 352.727 475.909 352.688 474.574 352.748L478.804 353.012C467.532 352.862 467.66 354.713 456.468 354.656C457.825 354.406 459.816 353.126 454.122 352.976C451.514 353.593 442.567 355.94 432.662 356.414L430.761 356.061L423.162 356.461C427.894 355.533 441.177 353.583 448.429 352.823C444.206 352.545 447.254 352.406 440.928 352.438C438.694 352.106 444.376 351.939 446.236 351.917L431.51 351.703C432.164 352.424 420.248 352.424 420.811 353.023L436.804 352.277C437.453 352.994 427.556 354.317 417.123 354.192C414.468 353.907 419.109 352.912 418.892 352.673C417.538 352.919 408.989 353.148 408.03 352.969L412.456 352.584C406.646 352.313 402.977 353.536 395.997 352.852C393.589 352.805 388.804 351.924 388.387 352.349C392.315 353.169 393.085 355.708 390.466 356.325C389.622 356.268 377.817 355.54 375.066 355.134C371.1 354.488 381.022 353.6 377.644 353.048C377.5 353.244 375.308 353.486 374.394 353.565C371.865 353.397 375.442 352.955 369.943 353.044C369.025 353.772 358.76 352.983 367.344 353.661C361.966 353.868 361.628 353.511 355.313 353.543C357.324 354.014 349.644 355.145 344.255 355.355C344.572 355.17 343.363 354.927 342.778 354.817C331.755 354.749 325.837 354.417 315.557 354.414C314.609 354.235 309.65 354.021 311.763 353.707C310.286 353.836 308.928 354.085 305.756 354.1C299.62 353.469 312.826 354.003 308.147 353.244C307.748 353.668 299.947 353.829 295.432 354.093C296.822 354.749 305.865 354.217 310.388 353.953C310.409 354.856 302.536 355.801 291.793 356.218C283.254 356.443 288.09 355.633 286.609 355.762C270.571 355.605 272.945 357.338 259.626 356.685C254.342 356.111 259.388 355.54 258.215 355.127C265.172 354.909 268.894 355.494 273.608 355.469L267.803 355.198C270.016 355.006 274.658 354.863 277.19 355.027C272.76 354.51 250.095 354.927 237.72 354.449C235.522 354.642 231.725 354.841 233.521 355.073L237.437 354.995C241.036 355.458 230.067 355.637 235.024 355.854C229.772 356.179 223.884 356.692 216.491 356.428L215.101 355.772C215.258 355.965 219.935 356.165 222.011 355.965C218.929 356.257 210.673 355.077 207.298 355.936L212.48 356.389C207.206 356.717 200.689 357.416 194.136 357.206C197.118 357.855 195.647 357.131 200.302 357.891C196.266 356.946 217.065 357.93 210.58 356.942C215.358 357.823 218.848 357.313 225.096 358.065C224.902 357.848 222.883 357.652 228.384 357.759C228.633 357.694 229.219 357.616 229.591 357.57C229.759 357.577 229.819 357.58 229.963 357.587C229.853 357.577 229.772 357.57 229.659 357.562C229.897 357.53 229.919 357.523 229.547 357.555C228.237 357.459 227.174 357.345 226.745 357.227C229.476 356.732 238.223 356.746 241.182 356.489C244.447 356.592 239.818 356.739 241.599 356.967L246.018 356.582C246.456 357.063 254.69 357.381 247 357.662L253.921 357.684C257.996 357.955 263.601 358.062 267.057 357.858C270.322 357.962 275.303 357.327 272.458 357.702L283.312 357.406L283.412 357.527C294.121 357.587 305.459 356.732 317.702 357.602C321.307 357.48 325.033 357.334 331.066 357.47L332.241 357.887C336.869 357.744 346.143 358.304 348.132 357.873C353.125 358.993 370.6 358.119 378.739 358.319L379.047 357.776C384.65 357.809 390.024 357.652 396.981 357.438L396.554 356.96C402.552 356.568 411.973 357.302 421.46 357.252C420.813 357.434 418.409 357.388 416.707 357.277C428.041 358.361 440.618 356.493 450.895 357.281C453.456 357.106 455.312 357.167 457.108 357.284C456.87 357.284 456.656 357.295 456.473 357.309C456.736 357.309 457.125 357.313 457.525 357.316C458.656 357.398 459.821 357.48 461.083 357.573C460.01 357.456 458.983 357.359 458.09 357.316C460.065 357.306 463.062 357.249 465.998 357.127L467.247 357.641C467.486 357.637 467.679 357.63 467.926 357.627C470.808 357.816 470.242 357.384 468.706 356.995C470.183 356.91 471.539 356.81 472.589 356.685C474.927 357.516 480.297 356.425 483.523 357.16C484.516 356.903 488.231 356.664 491.89 356.033C493.718 355.719 495.529 355.305 496.974 354.877C497.695 354.645 498.326 354.439 498.821 354.221C499.317 354.003 499.676 353.811 499.861 353.647C499.971 353.736 500.841 353.565 499.259 353.993C500.08 353.814 500.896 353.586 501.706 353.365C502.513 353.112 503.319 352.873 504.106 352.563C504.896 352.281 505.666 351.931 506.42 351.586C507.169 351.204 507.904 350.84 508.601 350.391C509.088 350.362 509.579 350.348 510.068 350.284C512.319 348.693 514.5 346.842 516.564 344.703C517.068 344.321 517.522 343.929 517.943 343.594C518.364 343.258 518.728 342.909 519.053 342.634C519.705 342.089 520.145 341.654 520.371 341.515C520.592 341.368 520.585 341.482 520.301 341.921C520.156 342.135 519.95 342.449 519.657 342.816C519.361 343.184 518.989 343.633 518.532 344.171C519.089 343.533 519.616 342.98 520.084 342.406C520.318 342.121 520.543 341.846 520.76 341.582C520.977 341.322 521.185 341.069 521.378 340.805C521.767 340.291 522.124 339.814 522.458 339.371C522.781 338.911 523.079 338.483 523.357 338.084C523.64 337.695 523.884 337.299 524.118 336.939C524.352 336.579 524.571 336.24 524.779 335.919C525.183 335.256 525.536 334.65 525.885 334.065C526.24 333.491 526.552 332.881 526.894 332.235C527.234 331.59 527.604 330.912 527.98 330.067C528.365 329.236 528.809 328.312 529.269 327.146C529.386 326.857 529.509 326.558 529.634 326.248C529.76 325.937 529.896 325.616 530.017 325.267C530.268 324.572 530.54 323.826 530.833 323.017L530.797 323.862C530.907 323.577 531.031 323.291 531.141 322.977C531.25 322.664 531.362 322.343 531.477 322.011C531.7 321.344 531.951 320.667 532.17 319.939C532.389 319.212 532.61 318.47 532.833 317.728C533.052 316.986 533.241 316.216 533.443 315.481C533.543 315.11 533.641 314.747 533.737 314.386C533.826 314.019 533.913 313.663 533.998 313.309C534.172 312.607 534.338 311.94 534.491 311.316C534.778 310.054 535.048 308.998 535.263 308.263C535.437 307.568 535.635 306.737 535.854 305.781C536.066 304.826 536.272 303.731 536.511 302.536C536.942 300.125 537.416 297.251 537.801 293.995C538.613 287.49 539.144 279.484 539.316 270.9C539.499 262.313 539.331 253.158 539.025 244.268C538.874 239.824 538.687 235.434 538.517 231.226C538.349 227.011 538.198 222.953 538.073 219.144C537.614 225.139 537.731 204.972 537.099 203.841C537.191 202.048 537.087 197.797 537.473 202.7C536.564 187.209 536.642 179.356 535.648 168.711C535.739 166.913 536.062 171.995 536.092 170.401C535.994 169.16 535.705 165.494 535.733 163.864C535.762 162.27 535.988 166.114 536.181 168.561C535.397 152.72 534.78 151.19 534.219 150.106C534.077 142.043 533.851 138.041 533.243 132.285C533.275 129.468 533.226 124.782 533.756 134.618C533.516 129.076 532.387 100.746 531.953 100.236C531.974 98.485 531.615 92.4902 531.498 91.0352C530.931 78.6034 530.916 77.5051 530.295 65.3051L530.391 68.6965C529.67 63.9428 529.798 58.5649 529.271 48.7329L529.334 49.0075C529.169 43.3373 528.916 39.8602 528.697 37.5315C528.476 35.1992 528.295 33.9974 528.119 32.8063C527.934 31.6187 527.753 30.4419 527.349 28.1952C527.139 27.0754 526.875 25.6846 526.446 23.9336C526.225 23.0598 525.976 22.0898 525.646 21.0342C525.323 19.9751 524.928 18.8268 524.422 17.6178C524.494 18.0636 524.558 18.5058 524.609 18.9551C524.531 18.8802 524.437 18.7483 524.329 18.5664C524.216 18.3881 524.086 18.1599 523.944 17.8853C523.655 17.3361 523.289 16.6335 522.841 15.8204C522.379 15.0287 521.837 14.1301 521.176 13.2492C520.515 12.3755 519.742 11.5232 518.87 10.7778C517.996 10.0361 517.025 9.42268 516.007 8.96977C514.987 8.51686 513.924 8.21374 512.859 8.01046C511.794 7.80719 510.729 7.71447 509.692 7.66454C508.656 7.61461 507.649 7.60391 506.682 7.62175L509.468 8.01403C505.243 8.2387 497.697 6.09541 493.463 5.80655C492.54 5.67816 494.923 5.70313 496.213 5.67816C485.132 4.63327 494.768 6.29868 486.503 6.16317C484.984 5.74592 488.478 5.31085 482.917 5.04695C480.15 4.65466 466.771 5.6532 459.191 4.69033C460.86 5.02912 462.518 5.36791 458.677 5.43923C452.793 5.32868 442.784 3.85584 437.459 4.55838C436.711 4.45852 436.43 4.37293 436.401 4.30518C431.901 4.38363 421.778 4.20176 419.066 4.59047C414.93 2.68255 391.097 4.53698 391.214 2.90366C386.604 2.76458 381.989 2.71108 377.377 2.6148L377.74 2.45788C368.897 2.12979 365.766 2.43292 362.655 2.76814C360.612 2.6148 362.104 2.49355 362.274 2.41152C355.814 2.11553 352.262 1.97645 348.97 1.98715C345.677 1.99428 342.646 2.15832 337.226 2.48285L336.101 1.93365C334.633 2.0656 329.963 1.78031 324.075 1.51641C318.187 1.26321 311.081 1.05637 304.742 1.2846C304.868 1.22398 305.129 1.12412 306.137 1.0635C299.005 1.27747 290.471 0.863791 283.065 0.589194C275.66 0.321729 269.383 0.268236 266.768 1.21328L257.356 1.64122C269.532 1.85163 255.543 2.46858 260.549 2.8145C255.762 2.90009 248.171 2.20112 254.055 2.11196L254.975 2.21182C257.137 1.20971 239.847 1.82667 240.175 1.13839C216.217 1.16692 192.865 0.69618 170.423 0.792467L173.01 1.5592L165.181 1.5699C163.125 1.40229 162.422 0.97791 168.006 0.967211C166.537 0.756805 164.197 0.867358 162.203 1.04923C160.209 1.23468 158.564 1.49144 158.483 1.57703C147.549 1.34166 162.751 0.631988 159.399 0.639121L154.846 0.731842L155.873 0.817431C152.183 1.16692 151.855 1.50214 145.145 1.52354C140.898 1.40585 142.964 1.05993 141.293 1.04567C141.298 1.01714 141.159 0.999307 140.768 0.995741C140.377 0.995741 139.733 1.00644 138.73 1.04567L128.867 1.06706L132.812 1.64836C128.442 1.99071 123.538 1.70542 128.091 2.35803C124.75 1.85163 115.552 1.84806 106.678 1.93365C97.8033 2.02637 89.252 2.21182 87.2007 2.0656C81.0811 2.5827 75.038 2.64689 67.5516 2.68255C69.4136 2.78954 70.5296 3.47069 64.0741 3.45999C66.4293 1.99784 52.2493 2.97855 47.0267 2.00854C49.3585 2.32593 44.7756 2.41509 40.5095 2.55417C38.3712 2.62906 36.3093 2.79667 35.2486 2.98212C34.1858 3.17469 34.1284 3.31734 35.9735 3.42076C34.6195 3.48495 33.9201 3.51348 33.5673 3.48852C33.2166 3.46355 33.2123 3.38866 33.2506 3.30664C33.325 3.14259 33.5652 2.90009 31.4927 3.00708C28.2618 3.61333 24.8565 4.44069 21.3833 5.98486C19.6488 6.76586 17.8973 7.70733 16.1734 8.95907C14.4495 10.2072 12.749 11.73 11.1442 13.6058C9.54787 15.4995 8.05357 17.7498 6.74631 20.3246L6.27443 21.316C6.11926 21.6512 5.95346 21.9721 5.8153 22.3288C5.52834 23.0277 5.23925 23.7303 4.95017 24.4364C4.69297 25.1746 4.4379 25.9128 4.1807 26.6546C3.93413 27.4035 3.72582 28.1845 3.49625 28.9548C2.63963 32.0681 2.01258 35.3561 1.5662 38.6976C1.12194 42.0392 0.849865 45.4342 0.703198 48.8256C0.747836 49.0432 0.875373 48.0233 0.973151 47.6845C1.02204 47.5133 1.06243 47.5097 1.08156 47.9127C1.09006 48.1124 1.09431 48.4155 1.09219 48.8506C1.09219 49.2821 1.08793 49.8456 1.08581 50.5731C0.715952 55.2912 0.539526 60.0342 0.39711 64.738C0.505516 69.9982 1.09644 69.556 0.809479 79.1633C0.890252 77.8046 1.00929 75.779 1.08368 79.2988C1.10281 131.401 2.68639 185.714 2.23576 238.64C2.37605 231.469 2.44833 236.244 2.51635 241.714C2.5291 238.155 2.7948 241.786 2.93934 241.083L2.75654 263.24C3.22205 267.263 3.0435 286.98 3.47075 289.28L3.32195 282.269C3.90012 291.581 4.23809 269.188 4.86302 270.533C4.20833 260.109 5.36467 242.973 4.40389 225.866C4.48679 222.079 4.63558 229.086 4.75461 227.057C4.4464 222.721 4.33374 217.479 4.3465 207.757L4.42302 208.855C4.06167 181.553 4.19345 169.838 4.03191 139.158L3.75558 141.436C3.72369 134.842 3.80447 133.455 3.84698 130.367C3.30707 122.817 4.02128 148.879 3.44311 142.003C3.96176 133.241 2.94784 95.5215 3.58128 89.5909C3.475 79.4486 3.26456 92.5723 3.15828 82.4371L3.3177 79.7446L3.04562 77.1912C3.01374 70.5438 3.21355 67.1809 3.37084 66.9277C3.37084 68.5396 3.46437 71.5103 3.49838 73.2399C3.53026 71.0823 3.52601 68.4826 3.5005 65.758C3.475 63.037 3.44524 60.209 3.44099 57.5628C3.44949 56.2433 3.44099 54.9631 3.46649 53.7791C3.475 53.1835 3.4835 52.6094 3.492 52.0602C3.50901 51.5146 3.52389 50.9903 3.53876 50.5018C3.56215 49.5139 3.60891 48.6545 3.6493 47.9519C3.68968 47.2494 3.71519 46.6966 3.7577 46.3436C3.51113 49.4604 3.36872 52.6272 3.28582 55.819C3.3092 52.4168 3.4091 48.9398 3.65992 45.452C3.91075 41.9678 4.31886 38.4658 4.97143 35.0851C5.62186 31.7079 6.52738 28.4555 7.72835 25.5276C8.30439 24.037 8.99734 22.6747 9.7243 21.3766C10.4491 20.0714 11.2569 18.8981 12.1007 17.7997C12.9403 16.6942 13.848 15.7277 14.7769 14.8362C15.7058 13.9375 16.6814 13.1672 17.6698 12.4646C19.6509 11.0596 21.7213 10.0325 23.7958 9.2194C27.9578 7.63244 32.1368 6.94773 36.0734 6.51979C35.6716 6.46273 35.272 6.41994 34.8703 6.37357C37.8802 6.01339 40.0015 5.95633 41.6893 5.9278C43.3834 5.9064 44.6375 5.93493 45.932 5.96703C48.5188 6.03122 51.2545 6.12394 57.9353 5.94206L57.4507 6.00626C60.1247 5.73522 63.6957 5.57118 67.3518 5.55691C63.9784 5.87787 73.7031 6.02765 69.2776 6.38784C82.4734 5.76019 75.8032 5.9385 84.5161 4.94709L86.529 5.32154C89.4985 4.92926 89.7451 4.73669 96.4195 4.56194C90.9482 4.96136 100.681 5.11827 94.5511 5.63537C108.557 6.34504 115.342 4.54055 121.772 5.74236C128.2 4.57977 109.651 5.25379 113.252 4.98276C110.236 4.65466 118.558 4.10904 122.954 4.17323C127.428 4.15183 130.565 5.50342 141.818 5.38574C140.698 5.3893 140.624 5.47489 139.506 5.47846C143.719 5.72453 147.757 5.02198 152.923 5.43923C155.815 4.75452 159.629 5.42853 160.462 4.57621L150.14 4.84724C155.992 4.58334 161.476 3.55271 171.118 3.96282C170.367 4.13757 167.498 4.38363 165.527 4.52272C168.348 4.75452 170.956 4.31588 173.879 4.55838C173.048 5.40357 161.334 4.83297 155.067 5.52125C158.094 5.85647 166.926 4.82228 163.778 5.76019C168.303 4.55481 174.865 5.83151 182.486 4.90073L181.984 5.4107C183.189 5.32511 185.687 5.07191 187.908 5.07191L183.891 5.75306C190.059 5.15393 195.786 6.181 201.703 5.86004C189.313 5.9171 198.921 5.25735 193.681 4.9043C208.962 4.18036 202.471 6.1917 219.58 5.9171C217.263 5.98842 210.884 5.62467 214.506 5.38217C217.762 5.48559 222.064 5.6746 224.063 5.94206C235.398 5.82795 222.322 5.4214 227.147 5.10401C231.007 5.72096 232.714 4.84367 237.683 4.6511L237.72 5.1682C250.637 5.52482 241.144 4.09834 252.775 4.52272L247.859 5.22882L253.923 5.05765L252.671 5.6425C259.267 5.21456 261.32 5.35007 267.782 5.54622C266.281 5.17533 268.628 4.61544 274.35 4.62613C278.251 4.95423 272.163 5.10401 280.274 5.07548C278.442 5.38217 276.436 5.78158 272.907 5.28945C272.546 5.45706 271.1 5.60327 270.728 5.76732C274.931 6.1382 281.288 5.89927 284.224 5.9278C283.093 5.89927 281.743 5.86004 281.05 5.78158L292.809 5.16463C294.658 5.37504 293.19 5.51769 291.736 5.65677C294.116 5.62111 295.766 5.39643 299.267 5.38217C298.359 5.79228 298.574 6.22736 293.619 6.38427L304.821 6.02765C305.569 6.22023 310.566 6.59824 309.113 6.73733C315.321 7.05828 324.349 6.10254 332.579 6.57328C333.007 6.49839 333.865 6.4342 335.617 6.4021C343.354 6.60894 350.203 7.27226 359.377 6.88711L364.574 7.74656C371.756 7.73943 357.538 6.63391 369.499 6.63391C377.967 6.60894 372.653 7.35428 375.621 7.63958C379.834 7.37568 387.161 6.75159 394.932 7.64314C392.356 7.7002 390.339 7.52189 387.932 7.50049L387.922 7.49693ZM476.496 10.1217C474.778 10.168 471.352 10.382 470.102 10.0325C472.064 9.51183 473.573 9.84706 476.496 10.1217ZM533.324 160.573C533.122 158.451 533.014 155.145 532.952 151.404C533.105 154.104 533.241 157.167 533.324 160.573ZM259.265 357.373C259.339 357.363 259.388 357.356 259.448 357.349C263.276 357.548 261.918 357.47 259.265 357.373ZM251.313 357.149C250.514 357.22 250.569 357.291 250.907 357.363C251.462 357.231 253.247 357.224 255.281 357.259C254.716 357.124 253.689 357.031 251.315 357.145L251.313 357.149ZM140.409 1.24537L141.956 1.36663C138.462 1.54494 139.44 1.40229 140.409 1.24537Z" fill="#FF8200"/>
<path d="M531.688 135.088C531.7 134.268 531.747 134.036 531.796 133.837C531.692 132.713 531.63 132.699 531.688 135.088Z" fill="#FF8200"/>
<path d="M332.837 6.57706C332.747 6.57706 332.658 6.56996 332.567 6.56641C332.418 6.59481 332.339 6.62676 332.295 6.65516L332.837 6.57706Z" fill="#FF8200"/>
<path d="M374.488 352.779C376.125 352.854 377.039 352.947 377.645 353.047C377.734 352.922 376.99 352.815 374.488 352.779Z" fill="#FF8200"/>
<path d="M209.175 358.022L214.268 357.886C211.804 357.911 210.924 357.797 209.681 357.715C209.793 357.836 210.767 358.011 209.175 358.018V358.022Z" fill="#FF8200"/>
<path d="M164.966 354.826C164.222 354.89 163.387 354.833 162.654 354.898L162.858 355.136C166.029 355.122 168.246 354.93 164.966 354.826Z" fill="#FF8200"/>
<path d="M204.46 356.308C204.056 355.873 200.862 356.019 197.293 356.101H197.924C196.872 356.707 200.675 356.507 204.46 356.308Z" fill="#FF8200"/>
<path d="M196.466 356.113C195.367 356.135 194.245 356.145 193.167 356.124C192.748 356.366 194.504 356.174 196.466 356.113Z" fill="#FF8200"/>
<path d="M241.227 357.438C239.535 357.327 240.166 357.994 239.208 357.816C237.318 358.368 250.488 357.149 241.227 357.438Z" fill="#FF8200"/>
<path d="M201.572 354.877L202.851 355.412L204.849 354.98L201.572 354.877Z" fill="#FF8200"/>
<path d="M229.744 355.273L224.044 355.123C224.131 355.212 223.406 355.266 222.515 355.305C226.029 355.323 229.878 355.43 229.744 355.273Z" fill="#FF8200"/>
<path d="M222.515 355.304C220.685 355.294 218.944 355.304 217.926 355.393C218.917 355.386 221.046 355.372 222.515 355.304Z" fill="#FF8200"/>
<path d="M209.366 354.717L211.052 354.827L215.076 354.867L209.366 354.717Z" fill="#FF8200"/>
<path d="M291.03 355.38L297.252 355.227C297.885 355.045 296.191 354.931 293.874 355.002C292.384 355.13 290.076 355.202 291.03 355.38Z" fill="#FF8200"/>
<path d="M272.212 353.911C273.896 354.022 274.008 354.143 274.956 354.318L275.145 353.654L272.212 353.911Z" fill="#FF8200"/>
<path d="M290.356 353.757C290.977 353.572 299.386 353.229 291.5 353.269C290.869 353.451 284.636 353.604 290.356 353.757Z" fill="#FF8200"/>
<path d="M384.108 354.602L382.527 354.612L382.754 355.7L384.108 354.602Z" fill="#FF8200"/>
<path d="M466.74 352.003C459.368 351.743 464.988 352.677 458.326 352.349C456.596 352.606 463.772 352.617 461.997 352.838C466.448 352.567 468.784 352.72 466.74 352.003Z" fill="#FF8200"/>
<path d="M461.997 352.836C461.285 352.879 460.528 352.932 459.725 353C461.013 352.932 461.621 352.879 461.997 352.836Z" fill="#FF8200"/>
<path d="M2.57811 278.068L2.52922 286.028L2.69289 280.889L2.57811 278.068Z" fill="#FF8200"/>
<path d="M3.22644 293.324L2.83321 295.211L3.26045 299.975C3.22219 298.178 3.14992 294.694 3.22857 293.324H3.22644Z" fill="#FF8200"/>
<path d="M489.647 11.9855L490.011 11.8322C489.28 11.6253 488.17 11.5718 485.947 11.4648L489.647 11.9855Z" fill="#FF8200"/>
<path d="M425.367 9.26853L426.474 9.31846L424.414 8.62305L425.367 9.26853Z" fill="#FF8200"/>
<path d="M371.41 8.42458C373.612 8.5066 376.201 8.43171 378.412 8.51373C373.612 8.5066 370.821 7.62575 371.41 8.42458Z" fill="#FF8200"/>
</g>
<defs>
<clipPath id="clip0_640_48">
<rect width="539" height="358.578" fill="white" transform="translate(0.393066 0.421875)"/>
</clipPath>
</defs>
</svg>
