<svg width="82" height="90" viewBox="0 0 82 90" fill="none" xmlns="http://www.w3.org/2000/svg">
<g clip-path="url(#clip0_640_137)">
<path d="M53.6545 83.0578C53.6545 83.0578 54.2443 83.0966 54.3691 83.1095C54.2181 82.9149 53.5039 83.0794 53.6545 83.0578Z" fill="#FF8200"/>
<path d="M51.9983 81.1638L52.2436 81.1594L51.5977 80.9434L51.9983 81.1638Z" fill="#FF8200"/>
<path d="M51.8218 79.2744C50.7591 79.5817 52.0725 79.949 51.7245 80.308L51.4922 80.4032L52.3919 80.4592C52.2104 80.0527 51.5899 79.5859 51.8519 79.2701L51.8218 79.2744Z" fill="#FF8200"/>
<path d="M54.0302 77.9681C53.6172 78.0893 53.6339 77.7779 53.9144 78.2319L54.0349 78.2146C54.0349 78.2146 54.0132 78.0632 54.0302 77.9681Z" fill="#FF8200"/>
<path d="M54.0274 78.1543C54.0578 78.3662 54.3714 77.9812 54.0274 78.1543V78.1543Z" fill="#FF8200"/>
<path d="M53.6826 77.2458L54.0832 77.4663C54.3155 77.3711 54.3409 77.1203 54.5347 77.1851C54.2847 76.943 54.0524 77.0382 53.6826 77.2458Z" fill="#FF8200"/>
<path d="M52.8633 77.1172L53.0357 77.2469C53.0357 77.2469 53.1776 77.1647 52.8633 77.1172Z" fill="#FF8200"/>
<path d="M53.4057 77.4711L53.0309 77.2161C52.8545 77.2723 52.5231 77.32 53.1688 77.3198C52.8374 77.3675 53.1731 77.3501 53.4014 77.4408L53.4057 77.4711Z" fill="#FF8200"/>
<path d="M53.2531 77.6788C53.0339 77.8648 52.9094 78.0681 52.5087 77.8477C52.7333 78.3406 53.4777 78.1717 53.2531 77.6788Z" fill="#FF8200"/>
<path d="M50.6829 79.2844L50.3777 79.5136L50.7653 79.6433C50.5715 79.5785 51.0143 79.2367 50.6829 79.2844Z" fill="#FF8200"/>
<path d="M53.9896 75.5341C53.7486 75.5688 53.4002 75.7116 53.1033 75.7851L53.4049 75.958C53.5425 75.8456 53.6626 75.612 53.994 75.5644L53.9896 75.5341Z" fill="#FF8200"/>
<path d="M53.0979 75.7547L52.6627 75.5083C52.6417 75.7894 52.8569 75.7893 53.0979 75.7547Z" fill="#FF8200"/>
<path d="M51.6498 77.2295L52.5327 77.5968L51.6367 77.1387L51.6498 77.2295Z" fill="#FF8200"/>
<path d="M53.8554 74.4092L54.4193 74.4826L53.5625 74.2969L53.8554 74.4092Z" fill="#FF8200"/>
<path d="M53.6569 73.665C54.1262 73.7211 54.3839 73.3751 54.6724 73.4572C54.5516 73.2583 54.1683 73.1589 53.8152 73.0552C54.0177 73.1806 54.0137 73.3665 53.687 73.6606L53.6569 73.665Z" fill="#FF8200"/>
<path d="M53.2695 72.8867C53.2695 72.8867 53.5925 72.9948 53.7863 73.0596C53.6829 72.9818 53.5192 72.9126 53.2695 72.8867Z" fill="#FF8200"/>
<path d="M52.7145 75.0058C52.7145 75.0058 53.2179 74.8717 53.3424 74.6684L52.7272 74.8804L52.7446 75.0015L52.7145 75.0058Z" fill="#FF8200"/>
<path d="M52.1114 76.3913C51.7238 76.2616 51.2843 75.985 50.79 76.3959C51.2592 76.452 51.5343 76.2271 52.1114 76.3913Z" fill="#FF8200"/>
<path d="M51.9245 75.3055L51.8174 75.6298C51.9981 75.6039 52.2304 75.5087 52.4199 75.5432L51.9201 75.2752L51.9245 75.3055Z" fill="#FF8200"/>
<path d="M51.6914 75.1836L51.924 75.3046L51.9669 75.1749L51.6914 75.1836Z" fill="#FF8200"/>
<path d="M52.7442 73.5187C52.4557 73.4366 52.4038 73.2895 52.3175 73.1166C52.2231 73.3155 52.189 73.5058 52.2151 73.6874C52.4259 73.6571 52.8005 73.6959 52.7442 73.5187Z" fill="#FF8200"/>
<path d="M52.0541 71.4866L51.9379 71.5342L52.0283 71.5212L52.0541 71.4866Z" fill="#FF8200"/>
<path d="M52.0981 73.7362C52.0981 73.7362 52.1587 73.9437 52.3783 73.974C52.305 73.8918 52.2273 73.7794 52.2143 73.6886C52.1239 73.7016 52.0637 73.7102 52.0981 73.7362Z" fill="#FF8200"/>
<path d="M52.9044 72.4773C52.9044 72.4773 52.6852 72.6633 52.5778 72.7715C52.7799 72.6806 53.0594 72.4859 52.9044 72.4773Z" fill="#FF8200"/>
<path d="M52.7966 74.098C52.7966 74.098 52.5382 74.0115 52.3789 73.9727C52.4522 74.0548 52.5212 74.1067 52.6202 74.1542L52.7923 74.0677L52.7966 74.098Z" fill="#FF8200"/>
<path d="M47.8498 71.7523C48.4522 71.6657 49.0724 71.9163 48.4834 72.31C48.9744 72.5174 50.8976 71.9937 51.9385 71.5351C51.6674 71.5741 51.4264 71.6087 51.0257 71.3883C50.7118 71.557 50.4029 72.1885 49.7957 72.0286C49.4078 71.6827 49.9587 71.6653 50.2295 71.4101C49.5326 71.6957 49.0496 71.1163 47.9826 71.3933L48.4221 71.67C48.2414 71.696 47.9572 71.6442 47.8196 71.7566L47.8498 71.7523Z" fill="#FF8200"/>
<path d="M51.9889 72.1142L52.0967 72.2223C52.0967 72.2223 52.3933 71.9325 52.8146 71.6556C52.4829 71.487 52.2677 71.4871 52.0569 71.5174L52.088 72.1617L51.9977 72.1747L51.9889 72.1142Z" fill="#FF8200"/>
<path d="M52.1816 72.7973C51.5359 72.7974 51.1955 72.5683 50.5288 72.8496C50.6413 73.2041 51.1058 73.0138 51.4375 73.1823C51.2042 72.6289 51.8208 73.2817 52.1213 72.8059C52.2592 72.9097 52.3024 72.9962 52.3499 73.1129C52.4229 72.9788 52.5002 72.875 52.6076 72.7669L52.5474 72.7756C52.5474 72.7756 52.4356 72.8534 52.457 72.7886L52.1859 72.8275C52.2759 72.5983 52.3579 72.741 52.4269 72.7929L52.5474 72.7756L52.1032 72.2524C52.1032 72.2524 52.0821 72.5335 52.1859 72.8275L52.1816 72.7973Z" fill="#FF8200"/>
<path d="M49.3566 76.2615C49.3566 76.2615 49.447 76.2485 49.5072 76.2399C49.4125 76.2226 49.378 76.1966 49.3566 76.2615Z" fill="#FF8200"/>
<path d="M49.7145 75.9635C49.7145 75.9635 50.089 76.0023 50.0161 76.1364C49.8527 76.2835 49.7148 76.1797 49.504 76.21C49.6978 76.2749 49.9994 76.4478 50.2915 76.1277L50.2012 76.1407C50.3729 75.8379 51.1427 75.4183 51.2374 75.4356C50.6737 75.5784 50.2607 75.6996 49.7145 75.9635Z" fill="#FF8200"/>
<path d="M50.7819 74.4188L50.3809 73.9822L49.8434 74.3066L50.1748 74.259C50.0934 74.5487 50.4763 74.4319 50.7518 74.4232L50.7819 74.4188Z" fill="#FF8200"/>
<path d="M52.3473 71.3834L53.0445 71.3141L52.0156 71.2148L52.3473 71.3834Z" fill="#FF8200"/>
<path d="M52.1628 70.7597L52.7352 70.6774L52.3476 70.5478L52.1628 70.7597Z" fill="#FF8200"/>
<path d="M33.9036 39.123L33.6797 39.0625C33.6797 39.0625 33.839 39.1014 33.9036 39.123Z" fill="#FF8200"/>
<path d="M34.3095 40.0215L34.602 39.9176C34.4213 39.9436 34.3008 39.9609 34.3095 40.0215Z" fill="#FF8200"/>
<path d="M48.2615 55.1625C48.73 54.7862 49.4911 54.306 48.8458 54.5224L48.2394 54.7949C48.2394 54.7949 48.3646 55.0241 48.2615 55.1625Z" fill="#FF8200"/>
<path d="M40.8956 46.2748L40.7323 46.4219L41.3648 46.3309L40.8956 46.2748Z" fill="#FF8200"/>
<path d="M38.3179 47.1699L38.597 46.759C38.597 46.759 38.3865 47.0055 38.3179 47.1699Z" fill="#FF8200"/>
<path d="M30.7241 34.5449L30.0443 34.7353C30.1695 34.9645 30.4058 34.6834 30.7241 34.5449Z" fill="#FF8200"/>
<path d="M50.549 64.2267C50.7595 63.9802 50.8282 63.8158 50.8409 63.6904C50.5142 63.9846 50.0068 64.3047 50.549 64.2267Z" fill="#FF8200"/>
<path d="M40.3612 36.3708C40.3612 36.3708 40.0857 36.3795 39.9394 36.4314C40.0686 36.4746 40.2192 36.453 40.3612 36.3708Z" fill="#FF8200"/>
<path d="M50.7014 63.1541L50.5682 63.2969C50.5682 63.2969 50.8139 63.5087 50.8099 63.6946C51.0549 63.474 51.175 63.2405 50.6713 63.1585L50.7014 63.1541Z" fill="#FF8200"/>
<path d="M20.2045 17.6435L20.2517 17.5441C20.2517 17.5441 20.2001 17.6133 20.2045 17.6435Z" fill="#FF8200"/>
<path d="M21.543 8.76953C21.543 8.76953 21.6809 8.87328 21.7498 8.92516C21.7411 8.86462 21.7324 8.80408 21.543 8.76953Z" fill="#FF8200"/>
<path d="M49.5232 69.2854C49.5232 69.2854 49.3381 69.2811 49.1875 69.3027C49.3381 69.2811 49.4586 69.2637 49.5232 69.2854Z" fill="#FF8200"/>
<path d="M51.6941 68.3554C51.6941 68.3554 51.8273 68.2127 51.8487 68.1478C51.7928 68.1868 51.7413 68.256 51.6941 68.3554Z" fill="#FF8200"/>
<path d="M51.9938 68.2824L51.951 68.4121C51.951 68.4121 52.1317 68.3861 51.9938 68.2824Z" fill="#FF8200"/>
<path d="M51.8806 67.9269C51.8806 67.9269 51.9023 68.0782 51.8508 68.1474C51.8809 68.1431 51.9368 68.1042 51.9368 68.1042L51.9107 67.9226L51.8806 67.9269Z" fill="#FF8200"/>
<path d="M27.9259 25.368L27.9172 25.3074C27.6461 25.3464 27.7365 25.3334 27.9259 25.368Z" fill="#FF8200"/>
<path d="M40.6445 53.9414L40.7082 53.9624L40.7039 53.9329L40.6445 53.9414Z" fill="#FF8200"/>
<path d="M40.0218 53.6611C40.8696 53.5701 40.801 53.7344 40.7066 53.9334L42.44 53.1589L40.0218 53.6611Z" fill="#FF8200"/>
<path d="M32.6516 37.047L32.2737 37.6266C31.2409 37.7133 31.3995 37.3198 30.785 37.9642C32.6516 37.047 31.5485 38.9976 33.3893 38.115L33.1059 38.4956C33.1059 38.4956 32.981 38.4826 32.9723 38.4221C32.2892 39.2309 34.4524 38.0239 34.4189 38.6466C34.3634 38.9018 34.1528 39.1483 33.873 39.1268L34.5103 39.2823C34.5103 39.2823 34.1793 39.5462 34.1619 39.4251L34.6017 39.918L34.5415 39.9266C34.8728 39.879 35.4237 39.8615 35.6691 39.8572C35.4629 40.134 35.4281 39.8918 35.2303 40.0129L35.8288 40.1123C35.4204 40.4799 34.8006 40.4455 34.7614 40.1731C33.0588 41.3756 35.3813 40.2075 34.5697 41.4056L34.2035 41.211C33.2275 41.9075 33.7269 41.9593 33.2071 42.621C33.5124 42.3918 34.565 41.1591 35.1979 41.2843C35.0992 41.453 35.0908 41.6087 35.5557 41.6345C34.8933 41.946 35.126 42.0671 35.2769 42.2616L34.3823 42.6683C34.7398 42.8023 35.1956 42.5514 35.6562 42.5469C35.704 42.8799 35.0504 43.252 34.4827 43.5807C34.5567 44.0953 35.4413 42.7632 35.8466 43.2301C35.6753 43.7491 36.1533 43.8658 36.8896 44.0688C36.7009 44.4667 36.3347 44.2722 36.1155 44.4582L36.9288 44.3413C36.9288 44.3413 36.7096 44.5273 36.5934 44.5749C36.9723 44.644 37.4924 44.1984 37.8586 44.3929C38.8868 44.0597 36.6855 45.643 37.9638 45.5518C37.7489 45.7681 37.4045 45.725 37.0648 45.9283C38.0207 46.1616 37.7753 46.166 38.9461 46.183L38.5124 46.8015C39.0797 46.2565 40.0051 46.2779 40.8101 46.3166C41.0852 46.0917 41.3603 45.8667 41.4678 45.7586L42.1569 46.0611C42.1569 46.0611 41.6924 46.2515 41.3051 46.3381L41.5461 46.3034C41.2884 46.6495 40.7204 46.762 40.1782 46.84L40.6725 46.4291C40.0701 46.5157 39.4161 46.6715 38.8956 46.9008C39.0161 46.8835 39.1152 46.9311 39.2099 46.9483C39.0593 46.97 38.9087 46.9916 38.827 47.0652C38.741 47.1084 38.9519 47.0781 39.2273 47.0694L38.2554 47.5799L38.6684 47.4587L38.3039 48.3453C39.5092 48.3883 41.1747 48.2106 41.8773 48.8202C41.0639 48.9371 40.6469 49.2442 39.7737 49.5861C40.6466 49.028 39.1618 49.1797 39.1869 48.7127C39.1615 48.9635 38.7441 49.0544 38.5634 49.0804L39.6873 49.4131C38.956 49.6728 39.2144 49.7592 38.9825 50.0706C40.3587 49.3784 40.1104 50.2174 40.6486 50.3253C40.1841 50.5157 39.6506 50.6542 39.6542 50.2521C38.7215 51.035 41.5091 50.1089 40.7183 50.8097C40.7052 50.7188 40.7266 50.654 40.49 50.7189C40.9894 50.7707 40.8267 51.3502 40.3705 51.3849L40.3575 51.2941C40.3542 51.9125 40.9068 52.9761 42.1803 52.6385C42.0341 52.6905 40.6745 53.0713 40.4379 53.1362L44.9266 52.7071C43.8294 52.9884 41.4468 54.1652 40.7017 53.9016C40.603 54.0703 40.4828 54.3038 40.935 54.4551C41.0682 54.3123 42.3973 53.7196 42.5308 53.7931C41.4689 54.5328 41.9806 54.2429 41.1037 54.9869C41.2885 54.775 42.9837 54.3767 43.0185 54.6189C42.7474 54.6579 41.3752 55.1642 41.1901 55.1599L42.972 55.1508C42.6276 55.1076 41.5867 55.5663 41.1653 55.8431C41.4793 55.6744 41.2952 56.3188 41.4934 56.4139L41.8113 56.0592C41.7565 56.7468 44.2818 55.9202 44.4077 56.5818C44.0462 56.6338 42.2606 57.0451 42.1622 57.43C43.0357 57.3043 46.3794 56.8235 47.1978 57.1693L46.7419 57.4202L47.4267 57.6925C46.0883 57.7923 43.1787 57.8708 42.0293 57.7889C41.7114 58.1436 41.4787 58.0226 41.6471 58.3382C41.2214 58.5848 40.9111 58.3513 40.8378 58.2692L40.809 59.1384C41.777 58.8139 41.9889 59.4322 42.7805 59.1639L41.5012 58.6063C42.4691 58.2818 44.4663 58.2727 44.4329 58.8954C44.0717 59.1636 42.6472 59.3066 42.3246 59.4148C42.6861 59.3628 43.1128 59.7649 42.8849 59.8904L42.2865 59.791C42.0073 60.2019 43.72 59.9248 42.8903 60.5693C42.8518 60.7293 41.738 61.322 42.3016 61.1792C43.3639 60.6557 46.8444 59.63 47.7267 59.5649C47.6752 59.6341 46.8545 60.5554 46.317 60.8798C45.4913 61.3384 44.1093 61.1355 43.4255 61.5119C43.6966 61.4729 44.0668 61.4815 44.1917 61.4944C44.0069 61.7063 43.3569 61.6762 43.5467 61.927C44.5622 61.7192 43.6381 62.5627 44.4246 61.8316C44.7952 62.0564 44.2918 62.1906 44.4344 62.5408C45.0409 62.2683 46.7324 62.2722 47.103 62.497C46.8319 62.536 46.5179 62.7047 46.3717 62.7566C46.4631 63.3923 46.0634 63.8205 46.1806 64.4215C45.9527 64.547 45.7251 64.8887 45.2602 64.8628C45.4497 64.8974 45.8198 64.906 45.8717 65.053C45.0892 65.598 45.6344 64.6855 44.6668 65.2262C45.2649 65.1093 45.597 65.4941 46.019 65.6497C46.901 65.3684 46.0525 65.027 45.6304 64.8714C46.8781 64.5684 48.2816 64.7065 48.9969 65.1906C49.4236 65.5927 48.2227 65.58 48.4466 65.6405C48.4309 66.6005 50.823 65.9167 50.0713 66.8898C49.3404 67.3657 48.4922 67.2405 47.9373 67.4439C47.5537 67.1283 48.2977 66.7432 48.2284 66.4751L47.9192 66.8904C47.6307 66.8083 47.3549 66.6008 47.5741 66.4148C46.8947 66.8214 47.7961 67.9585 47.2723 68.8062C47.5608 68.8883 47.8882 69.0266 48.172 68.8622L48.021 68.6677C48.6188 68.3345 49.0071 68.8966 49.2347 68.5549C49.7558 68.7581 50.5223 68.9568 50.2261 69.4628L49.3097 69.7182C49.5808 69.6792 49.8084 69.3375 49.4897 69.2598C49.9332 69.3505 48.3548 70.1335 49.6116 70.1073L50.1963 69.6834C50.7175 69.8865 51.7594 70.0765 51.5449 70.509C52.4181 70.1672 51.4113 70.4355 52.4221 69.9812C51.1402 70.4745 52.2828 69.0126 50.9882 69.6313C52.1754 69.1207 51.4263 69.0431 52.3896 68.472C52.0883 68.5153 51.839 68.7057 51.9116 68.3554C51.8212 68.3684 51.6964 68.3554 51.6318 68.3338C51.5244 68.442 51.3523 68.5285 51.2061 68.5804C50.4958 68.559 50.4218 68.0444 50.0085 67.9493C50.1286 67.7158 50.3786 67.9579 50.6625 67.7935L50.0898 67.6596C50.7438 67.5038 51.0915 66.9285 51.5742 67.2917L51.5176 66.8982C51.8399 66.5738 51.9125 66.2235 51.5852 66.0852C51.6752 65.8559 50.741 65.774 51.3006 65.8171L50.7316 65.281L50.9124 65.255C50.8467 64.5848 49.5032 64.2218 50.5605 63.2356C50.3536 63.08 50.0822 62.9028 50.2107 62.5135L50.7656 62.3102C50.5199 62.0983 51.1214 61.363 50.5102 61.3891C51.9812 60.7142 50.4951 60.001 50.6363 59.4864L49.8963 59.6855C49.8484 59.3525 49.5682 59.1147 49.1545 58.8035L48.5092 59.0198C47.8676 58.834 48.7358 58.0295 48.5369 57.502C48.808 57.463 48.7696 57.623 48.6364 57.7657C49.956 56.68 47.1368 56.7455 48.0522 55.8415C47.7637 55.7594 47.8065 55.6297 47.9397 55.4869C47.9397 55.4869 47.9397 55.4869 47.9742 55.5129L47.9655 55.4523L48.2577 55.1323C48.1201 55.2447 48.0127 55.3529 47.9611 55.4221C47.9136 55.3053 47.7714 55.1713 47.5689 55.0459L48.2356 54.7647C48.4417 54.4879 47.8567 54.6956 47.3707 54.9508C47.2415 54.9076 47.0822 54.8688 46.867 54.8688C47.9638 54.3712 46.3629 54.5705 47.5112 54.0038C46.8786 54.0947 46.8 53.3337 45.5522 53.6367C45.6985 53.5847 45.7801 53.5112 45.8233 53.5977C45.9133 53.3685 45.9732 53.1436 45.5987 53.1048L46.4676 52.7326L45.1462 52.7373C45.6104 52.3307 45.8855 52.1057 46.6259 52.1229C45.3643 51.9026 46.0572 51.803 44.869 51.6649L45.4584 51.4875C45.372 51.3145 44.5112 51.3147 44.9325 51.0378C45.8653 50.2549 44.4043 49.0747 45.0348 47.6864C43.4607 48.4998 45.6017 46.9252 44.2854 47.3925C44.6552 47.1849 44.8055 46.947 45.2101 46.9815C44.6371 46.6314 45.5271 45.9782 44.3091 46.0606C44.6789 45.853 44.9417 45.9697 45.1308 45.788C45.0404 45.801 44.7261 45.7535 44.954 45.628C45.1776 45.4723 45.3155 45.5761 45.5006 45.5803C45.2157 45.0961 44.0155 45.5158 42.8799 45.9572C43.3053 45.4944 43.1674 45.3906 42.3541 45.5076C42.6894 45.274 43.0117 44.9496 43.2661 45.2219C43.2356 45.01 43.3544 43.9116 42.4511 44.2578C42.6445 44.1064 42.4119 43.9854 42.287 43.9724C42.1659 43.5573 42.2174 43.4881 42.0102 43.1163L41.9115 43.2849C40.7886 43.6009 41.5409 43.0601 41.2608 42.8224L41.3813 42.8051C41.8401 41.7195 40.8645 42.6322 41.4438 41.5293L40.7858 41.8711C39.3319 42.4509 41.348 40.8634 40.616 40.6906L40.2937 41.015C39.7083 41.0065 41.9528 39.5097 42.0298 39.1897C42.1372 39.0816 42.2707 39.1551 42.3999 39.1983C42.9665 38.2208 41.4922 39.5142 41.1043 39.1683C41.5213 38.8612 42.3303 38.714 42.2824 38.381C42.5746 38.0609 40.384 38.2214 41.0671 37.4126C40.7662 37.6721 40.4352 37.936 40.0563 37.8669C39.7761 37.6291 40.9793 36.3748 39.7272 36.6475C39.8089 36.574 39.8905 36.5004 39.9766 36.4572C39.5632 36.3621 39.102 35.9341 38.4479 36.09C40.5893 34.7316 36.6301 35.2082 38.6902 34.1396L38.2242 33.4651L38.4565 33.3699C38.3782 32.8251 37.7499 32.9463 37.182 33.0589C37.2807 32.8902 37.4915 32.8599 37.6077 32.8123C37.6666 31.9387 37.5374 31.8955 36.2159 31.9002L36.8308 31.4719C36.3789 31.5369 37.3492 29.9453 36.2081 29.7077C36.2985 29.6947 36.4103 29.6168 36.5308 29.5995C35.3811 29.3014 37.357 26.7928 34.815 27.9307L33.9368 27.8098C34.1316 28.5233 32.8443 28.3377 32.604 28.8047C32.3369 28.6578 32.9467 27.7668 33.2526 27.97L33.1753 28.0738C34.4699 27.4551 33.1522 27.0576 34.0036 26.5644C33.2227 25.41 33.2072 23.8056 32.4909 22.6728L31.6442 23.4125L31.4326 23.0103C31.5829 22.7725 32.0816 22.3918 32.2155 22.6815C32.6365 22.1884 31.4835 22.5087 31.2555 22.6342C31.2672 21.8601 32.4728 22.1193 32.3865 21.9463L32.1753 21.7604L32.1023 21.8945C31.5902 21.9681 31.1946 22.2104 31.0219 21.8645C31.0644 21.5185 31.5333 21.3584 31.4901 21.2719C31.546 21.233 31.5674 21.1681 31.4382 21.1249L31.2049 20.5714L30.5948 21.2462C30.1084 21.2852 30.34 20.7576 29.6569 21.5664C30.7139 20.364 28.9262 19.4779 29.1363 19.0151C28.4134 19.1191 28.2149 18.8078 28.0033 18.4057C27.909 18.6046 27.1395 19.2405 27.0227 18.8556C28.7427 17.7741 27.3309 17.7918 28.3363 16.6585C27.7134 17.4587 27.5259 15.9409 26.6497 17.1173C26.5975 16.7541 27.2602 16.6588 27.4962 16.1614C26.4328 16.0363 26.9211 14.514 26.1325 13.9477C25.9089 14.1034 25.6857 14.4754 25.2382 14.5706L25.9852 13.3509C25.7613 13.2905 24.6608 14.1902 25.1846 13.3425C25.0256 13.5198 24.8194 13.7966 24.6601 13.7577C24.579 11.4831 21.5489 11.579 22.1941 8.58204C21.9625 9.10967 21.8246 9.00592 21.6824 8.87189C21.6783 9.05784 21.1924 9.3131 20.9216 9.5683L21.1736 8.32714C20.3308 8.88086 20.5958 7.73051 19.8177 8.30584L20.1062 8.38793C19.0439 8.91144 18.5212 10.4078 17.3949 11.3421C18.6035 10.7667 16.5415 13.3186 18.3352 12.5354C18.1936 12.8339 17.9051 12.7518 17.6989 13.0286C18.2709 12.7301 18.4948 12.7905 18.4955 13.223L18.3536 13.3052C19.0562 13.9148 18.8464 14.5937 19.1838 15.6575L19.6952 15.1514C19.73 15.3935 19.6012 15.5665 19.5369 15.7612C20.5433 15.2766 19.2132 15.2207 20.2712 14.6669C19.3003 15.8261 21.2201 15.9208 20.0384 17.1102C20.2325 17.3913 20.6271 16.5004 20.8212 16.7814L20.5334 17.1318L21.0451 16.8419C21.0799 17.0841 20.7406 17.5036 20.4397 17.7631C20.431 17.7026 20.2459 17.6983 20.2114 17.6724C19.9842 18.2303 20.8407 18.1998 20.7721 18.3641L20.8015 17.9274C21.6975 18.3855 21.9362 19.6179 23.1633 19.8122L23.4039 19.5614C24.321 19.7385 23.4394 20.236 24.0858 20.6683L23.9954 20.6813C24.3569 20.6293 24.6109 20.6854 24.6973 20.8584C24.2755 20.919 24.2809 21.598 23.7688 21.6716C24.7505 21.8703 24.4145 21.6714 25.7181 21.3295L25.3185 21.7577C25.8477 21.5889 26.0756 21.4635 26.4117 21.6623C25.8306 21.6841 25.836 22.363 25.1087 22.4367C24.5642 23.7817 26.805 22.6871 25.5201 24.015C27.0042 23.4309 25.8585 22.9468 26.2544 22.9208C26.5894 22.4709 27.3944 22.5097 27.4078 22.8167C27.533 23.0459 25.9941 24.3176 26.3737 24.8191C26.3649 24.7586 26.2532 24.8365 26.2143 24.7803C25.9998 25.2127 26.9032 24.8666 26.5297 25.4764C27.3985 25.1043 26.7024 25.8223 27.7172 25.1821L27.1786 24.8579C27.6221 24.9486 28.9642 24.4466 28.7159 25.2856C28.4836 25.3808 28.1222 25.4328 27.9327 25.3982C27.7353 25.7356 28.2902 25.5322 28.0927 25.8696C27.0435 26.4839 27.4765 25.4329 26.5213 25.6321C26.1819 26.0516 27.6061 25.6924 26.4276 26.2635C27.9545 25.5496 26.5793 26.8905 27.8829 26.5485L27.2594 26.9163C27.2594 26.9163 27.7413 26.847 27.819 26.9594L26.9113 27.2753C27.7849 27.1496 26.6761 28.2051 27.2357 28.2482C26.8474 27.6861 27.889 27.6599 28.1808 27.1236C29.4423 27.3439 26.8488 28.551 27.6159 29.1822C27.4523 29.113 27.7398 28.5464 28.1357 28.5204C28.1059 28.7409 28.0032 29.0956 27.7411 29.4113C28.2067 29.8696 28.3171 28.9268 28.8423 28.944C28.1977 29.5928 29.3159 29.0304 29.6948 29.0995L29.0756 29.4975C29.0469 30.3667 30.4907 28.8615 30.3371 29.7177L29.3347 30.0164L29.7266 30.1763L28.9826 30.5613C29.6885 30.5525 29.6242 30.7471 29.6206 31.1493C30.0332 30.8119 30.7903 30.5176 30.9801 30.7684C30.7311 31.175 30.3091 31.0194 30.6324 31.3436C30.1936 31.4994 29.6343 31.6725 30.1156 31.1708L29.4445 31.4218C29.1396 31.8672 29.6477 31.9796 29.7297 32.1222C29.721 32.0617 29.708 31.9709 29.7896 31.8974L30.9993 31.9706C30.8189 32.2128 30.5779 32.2474 30.3369 32.2821C30.4704 32.3556 30.7974 32.2777 30.9698 32.4074C30.4236 32.6713 29.8817 32.9655 29.5286 32.8618L30.3898 33.0778C30.1964 33.2292 29.926 33.7006 29.685 33.7352C29.5394 34.2196 31.0927 33.9036 30.9087 34.5479C31.0292 34.5306 31.1497 34.5133 31.2789 34.5565C31.3441 35.0105 30.9191 35.6896 31.879 35.7369L31.0668 36.5025C31.4674 36.723 32.0638 35.525 32.7359 35.9227C33.2657 36.1863 32.018 36.4893 31.8162 36.7964C32.3929 36.7444 33.5419 36.6101 32.9793 37.4015C32.7296 37.3757 32.8283 37.207 32.6904 37.1032L32.6516 37.047ZM35.2581 41.2757C35.0687 41.2411 34.5824 41.2801 34.9479 41.0422C35.7394 40.7739 35.4385 41.0335 35.2581 41.2757ZM39.878 47.532C39.637 47.5666 39.7056 47.4023 39.9205 47.186C40.0196 47.2335 40.037 47.3546 39.878 47.532ZM51.0654 66.7469L51.0353 66.7512C51.2716 66.4701 51.1641 66.5782 51.0654 66.7469ZM50.8639 67.2702C50.8639 67.2702 51.0748 67.2399 51.1652 67.2269C50.9844 67.2529 50.9369 67.1361 50.9797 67.0064C50.8077 67.0929 50.6959 67.1708 50.8639 67.2702ZM31.2364 21.432L31.1377 21.6007C30.8535 21.5488 31.0299 21.4926 31.2364 21.432Z" fill="#FF8200"/>
<path d="M38.6112 47.0664C38.6112 47.0664 38.8391 46.9409 38.9552 46.8933C38.8347 46.9107 38.6841 46.9323 38.6112 47.0664Z" fill="#FF8200"/>
<path d="M30.8436 34.5266L30.8392 34.4963L30.7231 34.5439L30.8436 34.5266Z" fill="#FF8200"/>
<path d="M43.132 61.833C43.132 61.833 43.3168 61.621 43.463 61.5691C43.2823 61.5951 43.1447 61.7076 43.132 61.833Z" fill="#FF8200"/>
<path d="M52.5305 69.4721L52.2761 69.1997C52.2761 69.1997 52.1861 69.4289 52.0743 69.5068C52.2551 69.4808 52.483 69.3554 52.4961 69.4462L52.5305 69.4721Z" fill="#FF8200"/>
<path d="M48.5511 72.7943C48.5511 72.7943 48.5641 72.8851 48.689 72.8981L49.0203 72.8504C48.9899 72.6385 48.6712 72.5608 48.5511 72.7943Z" fill="#FF8200"/>
<path d="M50.204 70.1778C49.6103 70.325 49.8429 70.446 49.9938 70.6405C50.8373 70.5193 50.5357 70.3464 50.204 70.1778Z" fill="#FF8200"/>
<path d="M50.0039 70.7012C50.0039 70.7012 50.0816 70.8136 50.03 70.8828C50.3614 70.8351 50.0772 70.7833 50.0039 70.7012Z" fill="#FF8200"/>
<path d="M51.3645 67.7552C51.2313 67.898 52.1477 67.6426 51.9197 67.7681C52.7117 67.716 50.8688 67.3013 51.3645 67.7552Z" fill="#FF8200"/>
<path d="M48.2258 70.7392L48.9614 70.5099L48.3459 70.5057L48.2258 70.7392Z" fill="#FF8200"/>
<path d="M48.4742 69.0355L48.3413 69.3945C48.3413 69.3945 48.5522 69.3642 48.6211 69.416C48.5906 69.2042 48.7108 68.9706 48.4999 69.0009L48.4742 69.0355Z" fill="#FF8200"/>
<path d="M48.5898 69.4199C48.5898 69.4199 48.6203 69.6318 48.7753 69.6404C48.7666 69.5799 48.719 69.4631 48.5898 69.4199Z" fill="#FF8200"/>
<path d="M47.919 70.3193L48.0565 70.2068L48.0518 69.9603L47.919 70.3193Z" fill="#FF8200"/>
<path d="M47.8782 65.538L47.5893 65.2397C47.3182 65.2787 47.1807 65.3912 47.3186 65.4949C47.508 65.5295 47.6459 65.6332 47.8782 65.538Z" fill="#FF8200"/>
<path d="M46.0677 67.0642C46.0677 67.0642 46.3515 66.8998 46.6096 66.77L45.6845 66.9648L46.0677 67.0642Z" fill="#FF8200"/>
<path d="M45.623 66.1085C45.3519 66.1475 44.7745 65.767 44.9302 66.2081C45.2013 66.1691 45.4902 66.4674 45.623 66.1085Z" fill="#FF8200"/>
<path d="M45.4823 60.6289L45.5254 60.7154L47.0011 60.2869L45.4823 60.6289Z" fill="#FF8200"/>
<path d="M40.6225 57.2191C40.3866 57.7165 41.5777 57.02 41.2213 57.5347C41.5871 57.513 41.5004 57.1238 41.8104 57.141C41.3625 57.02 41.5215 56.8427 40.5967 57.2537L40.6225 57.2191Z" fill="#FF8200"/>
<path d="M41.8359 57.1055C41.8359 57.1055 41.9953 57.1444 42.09 57.1616C41.9608 57.1184 41.8962 57.0968 41.8359 57.1055Z" fill="#FF8200"/>
<path d="M21.5062 7.44619L21.5657 7.00509L21.2997 7.50678L21.5062 7.44619Z" fill="#FF8200"/>
<path d="M20.2969 7.80419L20.993 7.08617L20.2319 7.56636C20.2319 7.56636 20.4558 7.62685 20.327 7.79986L20.2969 7.80419Z" fill="#FF8200"/>
<path d="M33.7475 42.7597L33.9798 42.6645C34.2034 42.5088 34.1947 42.4483 34.1773 42.3272L33.7475 42.7597Z" fill="#FF8200"/>
<path d="M32.8717 39.2402L32.8804 39.3007L33.6414 38.8205L32.8717 39.2402Z" fill="#FF8200"/>
<path d="M30.5383 37.1049C30.5383 37.1049 30.8054 37.2519 30.8228 37.373C30.5557 37.226 31.5015 36.5339 30.5383 37.1049Z" fill="#FF8200"/>
<path d="M71.1856 16.9868C71.1856 16.9868 70.9824 16.429 70.9349 16.3123C70.8405 16.5112 71.2375 17.1339 71.1856 16.9868Z" fill="#FF8200"/>
<path d="M70.1721 19.1393L70.077 18.9058L70.147 19.6064L70.1721 19.1393Z" fill="#FF8200"/>
<path d="M68.6288 19.9491C69.2802 20.8441 69.1188 19.5079 69.5754 19.6894L69.7263 19.884L69.4495 19.0278C69.1831 19.3133 69.0164 20.0788 68.6245 19.9189L68.6288 19.9491Z" fill="#FF8200"/>
<path d="M66.6958 18.2803C66.9288 18.6175 66.6921 18.6824 66.9455 18.3062L66.8722 18.224C66.8722 18.224 66.7862 18.2673 66.6958 18.2803Z" fill="#FF8200"/>
<path d="M66.8726 18.2236C66.5881 17.9556 67.0102 18.1112 66.8726 18.2236V18.2236Z" fill="#FF8200"/>
<path d="M66.2249 18.8435L66.2543 18.4067C66.1034 18.2122 65.8667 18.2771 65.8664 18.0609C65.755 18.355 65.9059 18.5495 66.2249 18.8435Z" fill="#FF8200"/>
<path d="M66.3716 19.6558L66.4058 19.4655C66.4058 19.4655 66.298 19.3575 66.3716 19.6558Z" fill="#FF8200"/>
<path d="M66.4983 19.0506L66.4043 19.4658C66.5164 19.6041 66.6848 19.9198 66.4428 19.3058C66.5767 19.5955 66.4729 19.3014 66.4682 19.0549L66.4983 19.0506Z" fill="#FF8200"/>
<path d="M66.7217 19.1117C66.9586 19.263 67.1782 19.2932 67.1531 19.7603C67.5012 19.4013 67.0697 18.7527 66.7217 19.1117Z" fill="#FF8200"/>
<path d="M69.0565 20.9996L69.3625 21.2028L69.3059 20.8093C69.332 20.9909 68.8925 20.7142 69.0565 20.9996Z" fill="#FF8200"/>
<path d="M64.5977 19.0762C64.6884 19.2794 64.9471 19.582 65.1068 19.8371L65.1536 19.5215C65.1536 19.5215 64.766 19.3918 64.5977 19.0762Z" fill="#FF8200"/>
<path d="M65.1361 19.8342L65.0809 20.3056C65.3175 20.2407 65.257 20.0331 65.1361 19.8342Z" fill="#FF8200"/>
<path d="M66.8983 20.7539L66.914 19.7939L66.8424 20.7928L66.8983 20.7539Z" fill="#FF8200"/>
<path d="M63.6792 19.5474L63.5664 18.9766L63.7184 19.8198L63.6792 19.5474Z" fill="#FF8200"/>
<path d="M63.1213 19.9381C62.9958 19.4927 62.6383 19.3587 62.5948 19.056C62.466 19.229 62.5225 19.6226 62.5446 19.9901C62.6002 19.735 62.7508 19.7133 63.117 19.9078L63.1213 19.9381Z" fill="#FF8200"/>
<path d="M62.594 20.539C62.594 20.539 62.5762 20.2017 62.5759 19.9855C62.5632 20.1109 62.5548 20.2666 62.594 20.539Z" fill="#FF8200"/>
<path d="M64.6094 20.4354C64.6094 20.4354 64.3032 20.016 64.1094 19.9512L64.5234 20.4786L64.6138 20.4657L64.6094 20.4354Z" fill="#FF8200"/>
<path d="M66.0108 20.5735C66.0673 20.967 65.9261 21.4816 66.4647 21.8058C66.3693 21.3561 66.0332 21.1573 66.0108 20.5735Z" fill="#FF8200"/>
<path d="M65.1287 21.0693L65.4299 21.026C65.4299 21.026 65.1712 20.7233 65.1752 20.5374L65.1287 21.0693Z" fill="#FF8200"/>
<path d="M65.104 21.3218L65.1294 21.071L65.0391 21.084L65.104 21.3218Z" fill="#FF8200"/>
<path d="M63.3166 20.8669C63.3601 21.1696 63.2182 21.2518 63.1108 21.3599C63.3303 21.3902 63.5111 21.3642 63.6229 21.2863C63.5321 21.0831 63.4197 20.7285 63.2821 20.841L63.3166 20.8669Z" fill="#FF8200"/>
<path d="M61.8008 22.0742L61.8784 22.1866L61.8309 22.0699L61.8008 22.0742Z" fill="#FF8200"/>
<path d="M63.7327 21.3956C63.892 21.4345 63.9004 21.2788 63.8699 21.0669C63.8227 21.1664 63.741 21.2399 63.6594 21.3135C63.6724 21.4043 63.7113 21.4605 63.7327 21.3956Z" fill="#FF8200"/>
<path d="M62.3571 21.0355C62.3571 21.0355 62.5941 21.1868 62.7276 21.2603C62.581 21.096 62.3052 20.8885 62.3571 21.0355Z" fill="#FF8200"/>
<path d="M63.8086 20.6426C63.8086 20.6426 63.8478 20.915 63.8695 21.0664C63.9211 20.9972 63.9381 20.902 63.9508 20.7766L63.8387 20.6382L63.8086 20.6426Z" fill="#FF8200"/>
<path d="M63.4087 25.984C63.1452 25.4348 63.1442 24.7862 63.7002 25.2314C63.7166 24.7039 62.6163 23.0392 61.8789 22.1875C62.0041 22.4167 62.1293 22.6458 62.0396 23.0913C62.2896 23.3334 62.9527 23.4543 63.0096 24.064C62.8296 24.5224 62.6351 24.0252 62.3292 23.822C62.8122 24.4014 62.4387 25.0112 63.0342 25.9451L63.1151 25.4391C63.1971 25.5818 63.2407 25.8845 63.3786 25.9883L63.4087 25.984Z" fill="#FF8200"/>
<path d="M62.3691 21.9615L62.442 21.8275C62.2827 21.7886 62.0758 21.6329 61.6923 21.3174C61.6498 21.6633 61.7448 21.8968 61.8011 22.0741L62.356 21.8707L62.3691 21.9615Z" fill="#FF8200"/>
<path d="M62.9018 21.6074C63.1439 22.2214 63.0455 22.6063 63.5241 23.1554C63.8036 22.9607 63.4672 22.5457 63.5097 22.1997C63.1057 22.5976 63.4531 21.8062 62.9407 21.6636C62.9791 21.5036 63.0608 21.4301 63.1124 21.3609C62.9875 21.3479 62.8583 21.3047 62.7248 21.2312L62.7549 21.2269C62.7549 21.2269 62.8369 21.3696 62.8024 21.3436L62.8975 21.5771C62.708 21.5426 62.7853 21.4388 62.8024 21.3436L62.7894 21.2528L62.7592 21.2572L62.4416 21.8281C62.4416 21.8281 62.7127 21.7891 62.8975 21.5771L62.9018 21.6074Z" fill="#FF8200"/>
<path d="M66.8789 23.1974C66.8789 23.1974 66.8056 23.1152 66.7969 23.0547C66.81 23.1455 66.8187 23.206 66.8789 23.1974Z" fill="#FF8200"/>
<path d="M66.5046 22.9427C66.5046 22.9427 66.3921 22.5881 66.5471 22.5967C66.7496 22.7221 66.7111 22.8821 66.7975 23.0551C66.7714 22.8734 66.8095 22.4972 66.4477 22.333L66.4607 22.4238C66.1421 22.346 65.4998 21.7278 65.5168 21.6326C65.8663 22.1385 66.0993 22.4758 66.5002 22.9124L66.5046 22.9427Z" fill="#FF8200"/>
<path d="M64.77 22.4196L64.534 22.9169L65.0211 23.3103L64.857 23.025C65.1626 23.0119 64.8995 22.679 64.8001 22.4152L64.77 22.4196Z" fill="#FF8200"/>
<path d="M61.5812 21.8274L61.3047 21.1875L61.5387 22.1734L61.5812 21.8274Z" fill="#FF8200"/>
<path d="M61.11 22.205L60.8465 21.6558L60.873 22.0537L61.11 22.205Z" fill="#FF8200"/>
<path d="M37.394 45.634L37.2344 45.3789C37.2863 45.5259 37.3338 45.6427 37.394 45.634Z" fill="#FF8200"/>
<path d="M48.4372 29.6489C47.9847 29.2814 47.338 28.6329 47.6962 29.1993L48.0801 29.7311C48.1487 29.5668 48.2692 29.5494 48.4071 29.6532L48.4372 29.6489Z" fill="#FF8200"/>
<path d="M42.0607 38.3218L42.203 38.4558L41.9609 37.8418L42.0262 38.2958L42.0607 38.3218Z" fill="#FF8200"/>
<path d="M43.4191 40.72L42.9883 40.5039C42.9883 40.5039 43.2597 40.6811 43.4191 40.72Z" fill="#FF8200"/>
<path d="M32.6953 49.7402L32.9718 50.3802C33.1653 50.2288 32.8895 50.0213 32.6953 49.7402Z" fill="#FF8200"/>
<path d="M55.8862 25.4265C55.6191 25.2795 55.4297 25.245 55.3136 25.2926C55.6841 25.5174 56.1109 25.9194 55.8862 25.4265Z" fill="#FF8200"/>
<path d="M32.9414 40.127C32.9414 40.127 32.9806 40.3994 33.0626 40.5421C33.0408 40.3907 33.0234 40.2696 32.9414 40.127Z" fill="#FF8200"/>
<path d="M54.8893 25.5401L55.0573 25.6396C55.0573 25.6396 55.1687 25.3455 55.315 25.2936C55.0435 25.1163 54.7895 25.0602 54.8893 25.5401Z" fill="#FF8200"/>
<path d="M17.2084 60.7097L17.1094 60.6621C17.1094 60.6621 17.1783 60.714 17.2084 60.7097Z" fill="#FF8200"/>
<path d="M8.66239 59.0049C8.66239 59.0049 8.73535 58.8708 8.82136 58.8275C8.76112 58.8362 8.70087 58.8449 8.66239 59.0049Z" fill="#FF8200"/>
<path d="M60.668 25.1094C60.668 25.1094 60.6941 25.291 60.7717 25.4034C60.6897 25.2607 60.6767 25.1699 60.668 25.1094Z" fill="#FF8200"/>
<path d="M59.1775 23.2861C59.1775 23.2861 59.0138 23.2169 58.9492 23.1953C58.9837 23.2213 59.0828 23.2688 59.1775 23.2861Z" fill="#FF8200"/>
<path d="M58.9862 23.0341L59.1067 23.0167C59.1067 23.0167 59.0247 22.8741 58.9862 23.0341Z" fill="#FF8200"/>
<path d="M58.7357 23.2256C58.7357 23.2256 58.882 23.1736 58.9466 23.1953C58.9121 23.1693 58.8776 23.1434 58.8733 23.1131L58.7357 23.2256Z" fill="#FF8200"/>
<path d="M24.197 53.0636L24.1367 53.0723C24.1759 53.3447 24.2231 53.2452 24.197 53.0636Z" fill="#FF8200"/>
<path d="M49.2224 37.23L49.2181 37.1998L49.1836 37.1738L49.2224 37.23Z" fill="#FF8200"/>
<path d="M49.1011 37.8948C48.8329 37.0992 48.9879 37.1078 49.1861 37.2029L48.043 35.668L49.0753 37.9294L49.1011 37.8948Z" fill="#FF8200"/>
<path d="M34.8174 47.6123L35.4162 47.9278C35.6545 48.944 35.2368 48.8187 35.9565 49.3331C34.8174 47.6123 36.8461 48.4637 35.707 46.7429L36.112 46.9936C36.112 46.9936 36.1294 47.1147 36.039 47.1277C36.9223 47.7112 35.4385 45.731 36.0453 45.6747C36.295 45.7006 36.5665 45.8778 36.6056 46.1502L36.6347 45.4972C36.6347 45.4972 36.9192 45.7653 36.8031 45.8129L37.2241 45.3198L37.2328 45.3803C37.1548 45.0517 37.0162 44.5155 36.9858 44.3036C37.2873 44.4765 37.0206 44.5458 37.2318 44.7317L37.2351 44.1133C37.6575 44.4851 37.7101 45.0645 37.4735 45.1295C38.892 46.6556 37.3864 44.5241 38.6443 45.1465L38.5157 45.5357C39.3479 46.4047 39.3083 45.9161 40.0106 46.3094C39.7261 46.0414 38.3731 45.1855 38.4022 44.5325C38.5659 44.6016 38.7165 44.58 38.6512 44.1259C39.0783 44.7442 39.1339 44.4891 39.2929 44.3117L39.8107 45.1332C39.879 44.7527 39.577 44.3635 39.4471 43.8879C39.744 43.8143 40.227 44.3937 40.6367 44.8909C41.11 44.761 39.6885 44.0695 40.0493 43.585C40.5875 43.693 40.5781 43.2 40.6544 42.4476C41.0721 42.5729 40.9436 42.9621 41.1849 43.1437L40.9469 42.3437C40.9469 42.3437 41.128 42.534 41.1755 42.6507C41.1835 42.2788 40.6577 41.8292 40.7818 41.4097C40.2767 40.4628 42.1779 42.3521 41.8488 41.1327C42.0902 41.3143 42.1381 41.6472 42.3667 41.9542C42.3824 40.9942 42.4429 41.2017 42.2173 40.0601L42.8807 40.3973C42.2601 39.9304 42.065 39.0007 41.9561 38.244C41.676 38.0062 41.4303 37.7944 41.3225 37.6863L41.4634 36.9554C41.4634 36.9554 41.7395 37.3791 41.8865 37.7596L41.8517 37.5175C42.1877 37.7163 42.4167 38.2395 42.5854 38.7714L42.0984 38.378C42.3016 38.9358 42.5781 39.5757 42.9188 40.0211C42.9014 39.9 42.884 39.7789 42.9054 39.714C42.9573 39.861 43.0393 40.0037 43.0825 40.0902C43.1558 40.1724 43.0651 39.9691 43.0259 39.6967L43.7031 40.5571L43.4959 40.1853L44.4173 40.3926C44.2476 39.2121 43.6812 37.6252 44.0932 36.8553C44.3569 37.6207 44.7449 37.9665 45.2627 38.7881C44.5427 38.0574 45.0228 39.4714 44.5666 39.5061C44.7774 39.4757 44.989 39.8779 45.0452 40.0552L45.1251 38.9005C45.5265 39.5534 45.5519 39.3026 45.888 39.5014C44.9434 38.2779 45.7872 38.3728 45.7691 37.8193C46.0452 38.243 46.2698 38.7359 45.9083 38.7879C46.8479 39.5488 45.3761 37.0107 46.2035 37.6332C46.1476 37.6722 46.0529 37.6549 46.1781 37.884C46.1084 37.3997 46.6982 37.4385 46.8237 37.8839L46.7635 37.8926C47.3358 37.8103 48.2083 37.036 47.5824 35.8902C47.6644 36.0329 48.3335 37.2651 48.4587 37.4943L46.9885 33.2568C47.5023 34.2642 49.1843 36.3395 49.1124 37.1223C49.3062 37.1871 49.5301 37.2476 49.5853 36.7762C49.4173 36.6768 48.546 35.5353 48.6146 35.371C49.5414 36.2573 49.1706 35.8163 50.0669 36.4907C49.8343 36.3696 49.0527 34.7828 49.2592 34.7222C49.3543 34.9557 50.1784 36.1966 50.2045 36.3782L49.7713 34.6485C49.8192 34.9815 50.505 35.9024 50.8628 36.2526C50.6429 36.0062 51.2628 36.0406 51.2926 35.8201L50.8919 35.5996C51.5245 35.5087 50.1521 33.2344 50.7027 33.0007C50.8152 33.3553 51.6915 34.9594 52.0359 35.0026C51.7032 34.1854 50.3639 31.0721 50.483 30.1899L50.815 30.5747L50.8655 29.8569C51.3238 31.1195 52.1503 33.8739 52.376 35.0155C52.7766 35.236 52.7211 35.4911 52.9962 35.2662C53.354 35.6164 53.2211 35.9753 53.1395 36.0489L53.9528 35.9319C53.3962 35.0542 53.9293 34.6995 53.459 33.9947L53.2847 35.3483C52.7324 34.5008 52.2129 32.5982 52.7765 32.4554C53.0955 32.7494 53.6271 34.0941 53.8212 34.3752C53.7087 34.0206 53.9145 33.5275 54.0956 33.7178L54.1827 34.3232C54.6392 34.5047 53.9179 32.9092 54.7195 33.5663C54.8701 33.5446 55.7153 34.5044 55.4261 33.9899C54.6499 33.082 52.7596 29.9861 52.457 29.1646C52.526 29.2165 53.6201 29.7697 54.0211 30.2064C54.6722 30.8852 54.868 32.2473 55.4156 32.8483C55.2861 32.5888 55.2037 32.2299 55.1863 32.1088C55.4233 32.2601 55.575 32.8871 55.7554 32.6449C55.2847 31.724 56.3059 32.4113 55.4226 31.8277C55.5167 31.4125 55.7972 31.8665 56.0723 31.6416C55.6281 31.1185 55.1822 29.5142 55.2762 29.0991C55.4014 29.3282 55.6257 29.6049 55.7335 29.713C56.284 29.4794 56.8139 29.743 57.2697 29.4921C57.4508 29.6823 57.8083 29.8163 57.9338 30.2617C57.9034 30.0498 57.7952 29.7255 57.9328 29.613C58.6655 30.2183 57.6707 29.9288 58.4339 30.7459C58.1403 30.2011 58.3893 29.7945 58.4188 29.3578C57.8752 28.5709 57.8508 29.4703 57.8257 29.9374C57.174 28.8262 56.8834 27.4468 57.0758 26.6467C57.3118 26.1493 57.6579 27.2736 57.6274 27.0617C58.4836 26.815 57.1417 24.7526 58.2184 25.1848C58.8564 25.7727 59.0385 26.6116 59.3836 27.0872C59.2036 27.5457 58.6215 26.9188 58.428 27.0702L58.8846 27.2517C58.9281 27.5544 58.8167 27.8485 58.5797 27.6972C59.1487 28.2333 59.9088 27.1044 60.8088 27.3766C60.7653 27.0739 60.8078 26.728 60.5577 26.4859L60.4332 26.6891C59.9331 26.2049 60.3197 25.6859 59.9622 25.5519C59.9743 24.9941 59.8912 24.2028 60.4338 24.341L60.9473 25.1322C60.8221 24.9031 60.4646 24.7691 60.478 25.0761C60.4127 24.6221 61.6113 25.9018 61.1962 24.7257L60.6403 24.2804C60.6523 23.7226 60.4742 22.6977 60.9478 22.7841C60.3527 22.0664 60.9351 22.9095 60.1719 22.0924C61.0044 23.1776 59.3677 22.4861 60.3507 23.5497C59.5056 22.5898 59.7004 23.3033 58.8813 22.5251C59.041 22.7802 59.2867 22.9921 58.9466 22.9792L58.9858 23.2516L59.0159 23.2473C59.1495 23.3208 59.2616 23.4591 59.3737 23.5975C59.5943 24.2763 59.1643 24.4927 59.2208 24.8862C59.0013 24.8559 59.1084 24.5316 58.8583 24.2895L58.9454 24.8949C58.5527 24.3025 57.9456 24.1427 58.1126 23.5934L57.7685 23.7665C57.398 23.5417 57.0623 23.5591 57.0154 23.8748C56.7959 23.8446 56.991 24.7743 56.8782 24.2035L56.5737 24.8652L56.4917 24.7225C55.9367 24.9259 56.0121 26.3053 54.8272 25.5488C54.7416 25.8083 54.686 26.0635 54.29 26.0895L53.9449 25.6139C53.8335 25.908 53.0021 25.4714 53.2096 26.0595C52.1703 24.8186 51.9963 26.3884 51.4712 26.3713L51.8468 27.0588C51.5542 27.1626 51.4214 27.5216 51.2714 27.9757L51.6296 28.5421C51.6306 29.1907 50.6784 28.5553 50.2614 28.8624C50.1663 28.6289 50.3169 28.6072 50.4548 28.711C49.1404 27.6951 49.9194 30.3328 48.8724 29.68C48.9115 29.9525 48.7566 29.9438 48.5886 29.8444C48.5886 29.8444 48.5886 29.8444 48.5799 29.7839C48.5799 29.7839 48.5497 29.7882 48.5196 29.7926L48.1792 29.5634C48.1792 29.5634 48.4249 29.7753 48.5196 29.7926C48.4379 29.8661 48.3349 30.0045 48.3094 30.2553L47.8867 29.6673C47.6239 29.5506 47.9433 30.0608 48.3141 30.5018C48.3359 30.6532 48.3275 30.8088 48.3838 30.9861C47.6634 30.0392 48.2469 31.531 47.4319 30.5669C47.6695 31.1506 46.9941 31.3713 47.5899 32.5215C47.5079 32.3788 47.4088 32.3312 47.4949 32.288C47.2753 32.2578 47.0557 32.2275 47.1123 32.621L46.5731 31.8644L46.9108 33.1443C46.4282 32.7812 46.148 32.5434 45.9833 31.8256C46.1015 33.0753 45.825 32.4354 45.9948 33.6159L45.7056 33.1014C45.7056 33.1014 45.7803 34.0484 45.4181 33.6679C44.4785 32.9071 43.7279 34.5289 42.3499 34.14C43.4756 35.5538 41.5486 33.6991 42.2435 34.8968C41.9804 34.5639 41.7177 34.4472 41.6611 34.0537C41.4727 34.6678 40.6536 33.8896 41.0084 35.0744C40.7454 34.7415 40.7708 34.4907 40.5897 34.3004C40.6028 34.3913 40.6463 34.6939 40.4652 34.5037C40.2841 34.3135 40.3226 34.1535 40.2965 33.9719C39.9139 34.3049 40.5657 35.4161 41.1785 36.4711C40.6356 36.1167 40.5972 36.2767 40.8609 37.042C40.5721 36.7437 40.2273 36.4843 40.399 36.1816C40.2183 36.2076 39.1553 36.2987 39.6731 37.1202C39.492 36.9299 39.4364 37.1851 39.4539 37.3062C39.0797 37.4836 39.0107 37.4317 38.7443 37.7171L38.908 37.7863C39.4305 38.8543 38.7795 38.1755 38.6078 38.4783L38.5904 38.3572C37.4708 38.0548 38.5094 38.8632 37.3767 38.4699L37.7995 39.0579C38.6109 40.4243 36.7529 38.6214 36.7368 39.3652L37.0816 39.6246C37.1643 40.1997 35.3705 38.2023 35.0562 38.1548C34.9528 38.077 35.0214 37.9126 35.004 37.7915C33.9875 37.3507 35.4616 38.6217 35.2169 39.0585C34.8548 38.6781 34.5609 37.9171 34.264 37.9906C33.9192 37.7313 34.4736 39.876 33.5903 39.2924C33.8748 39.5605 34.1938 39.8545 34.1858 40.2264C34.0141 40.5291 32.6307 39.4613 33.1104 40.6591C33.007 40.5813 32.938 40.5294 32.8948 40.4429C32.8912 40.8451 32.5605 41.3252 32.8069 41.9694C31.2025 40.0065 32.2761 43.8377 30.9516 41.8964L30.4144 42.437L30.2936 42.2381C29.8203 42.368 29.9934 42.9301 30.1665 43.4922C29.9727 43.4274 29.9379 43.1853 29.8646 43.1031C29.0382 43.1293 29.0211 43.2244 29.2083 44.526L28.7253 43.9466C28.8508 44.392 27.2224 43.5448 27.1683 44.6649C27.1251 44.5784 27.0474 44.466 27.03 44.3449C26.9199 45.5039 24.2958 43.7185 25.6856 46.1139L25.6826 46.9485C26.3279 46.7321 26.2912 47.9732 26.7822 48.1807C26.6707 48.4748 25.7573 47.8955 25.929 47.5928L26.0625 47.6662C25.303 46.4469 25.12 47.74 24.542 46.9271C23.5533 47.749 22.0598 47.8402 21.0538 48.541L21.8169 49.3581L21.4471 49.5657C21.2101 49.4145 20.8048 48.9475 21.0628 48.8177C20.5714 48.394 20.9822 49.5399 21.103 49.7388C20.3626 49.7217 20.5028 48.5584 20.3609 48.6406L20.2063 48.8482L20.3398 48.9217C20.4396 49.4017 20.7415 49.7908 20.4018 49.9941C20.0875 49.9466 19.9017 49.5099 19.8114 49.5229C19.7726 49.4667 19.708 49.4451 19.6651 49.5748L19.1791 49.8301L19.8774 50.4094C19.947 50.8937 19.456 50.6862 20.2533 51.3131C19.0292 50.2842 18.3304 52.053 17.8997 51.8369C18.0041 52.5634 17.7548 52.7537 17.4107 52.9268C17.6089 53.0218 18.2385 53.7655 17.9158 53.8737C16.7811 52.1831 16.8866 53.5582 15.7616 52.5769C16.5589 53.2037 15.1388 53.377 16.2765 54.233C15.9451 54.2806 15.7891 53.6234 15.3239 53.3813C15.261 54.4408 13.801 53.9092 13.2943 54.6618C13.4496 54.8866 13.8201 55.1114 13.9112 55.5309L12.7219 54.7441C12.662 54.969 13.5547 56.0456 12.7404 55.5138C12.9171 55.6738 13.1628 55.8856 13.1544 56.0413C11.0368 56.0678 11.1534 59.017 8.29834 58.1917C8.79806 58.4597 8.7251 58.5938 8.58755 58.7062C8.74687 58.7451 9.0016 59.2337 9.25163 59.4758L8.06744 59.1518C8.61974 59.9992 7.53027 59.6924 8.07386 60.4793L8.12506 60.1939C8.61746 61.2663 10.0604 61.893 10.936 63.0647C10.3616 61.8496 12.8228 63.9983 12.0753 62.2211C12.3424 62.3681 12.2912 62.6535 12.567 62.861C12.2691 62.286 12.3334 62.0913 12.7337 62.0956L12.8157 62.2383C13.3957 61.5678 14.046 61.8142 15.0829 61.5415L14.5785 61.027C14.8195 60.9924 14.9919 61.122 15.1555 61.1912C14.6719 60.1794 14.6482 61.5113 14.061 60.4217C15.186 61.4031 15.2217 59.5133 16.4073 60.7022C16.6567 60.5119 15.7995 60.1099 16.0789 59.9153L16.428 60.2049L16.1388 59.6904C16.3798 59.6557 16.8022 60.0275 17.0265 60.3043C16.9663 60.3129 16.988 60.4643 16.9666 60.5291C17.4964 60.7928 17.4606 59.902 17.6286 60.0014L17.224 59.9669C17.653 59.1019 18.8536 58.8984 18.9506 57.6486L18.7005 57.4065C18.8197 56.5243 19.3418 57.3761 19.711 56.736L19.724 56.8268C19.6718 56.4636 19.6972 56.2127 19.8693 56.1262C19.9603 56.5457 20.606 56.5455 20.6756 57.0298C20.8118 56.0525 20.6143 56.3898 20.2163 55.1186L20.6387 55.4903C20.4442 54.9931 20.2889 54.7683 20.4864 54.4309C20.5691 55.006 21.1802 54.9799 21.3148 55.7021C22.65 56.2207 21.4456 54.0458 22.7905 55.2736C22.121 53.8251 21.7613 54.9582 21.7091 54.5949C21.2652 54.288 21.2424 53.488 21.5179 53.4793C21.7157 53.3582 23.0352 54.8368 23.5037 54.4605C23.4435 54.4691 23.5211 54.5815 23.4652 54.6205C23.8917 54.8063 23.49 53.9372 24.0931 54.283C23.6613 53.4183 24.4071 54.1143 23.7125 53.1328L23.4552 53.6951C23.5147 53.254 22.8971 51.9525 23.7282 52.1728C23.8534 52.402 23.9013 52.7349 23.9317 52.9468C24.2678 53.1457 24.0345 52.5922 24.3705 52.7911C25.0694 53.8028 23.997 53.4009 24.2869 54.3479C24.7308 54.6548 24.2551 53.2711 24.9112 54.4126C24.1125 52.9208 25.5006 54.2351 25.0724 52.9682L25.4952 53.5562C25.4952 53.5562 25.3954 53.0762 25.4771 53.0027L25.8486 53.8761C25.6364 53.0416 26.7657 54.0532 26.752 53.53C26.2275 53.9452 26.1097 52.9117 25.5798 52.6481C25.6467 51.4026 27.084 53.9148 27.6121 53.0973C27.5737 53.2573 26.9836 53.0023 26.9313 52.6391C27.1509 52.6693 27.4997 52.7427 27.8143 53.0065C28.2052 52.5177 27.3055 52.4617 27.2315 51.9471C27.8996 52.5308 27.2566 51.4801 27.2948 51.1038L27.7175 51.6919C28.5439 51.6657 26.9707 50.3472 27.7844 50.4464L28.1734 51.4409L28.2674 51.0258L28.7076 51.7349C28.6075 51.0387 28.8013 51.1035 29.2273 51.0731C28.8652 50.6927 28.4852 49.9749 28.7001 49.7586C29.1352 50.005 29.0067 50.3942 29.2946 50.0439C29.4803 50.4806 29.7394 50.9995 29.1835 50.5542C29.2785 50.7877 29.3994 50.9866 29.4901 51.1898C29.9597 51.4621 30.0105 50.9605 30.118 50.8524C30.0577 50.861 29.9673 50.874 29.8984 50.8221L29.819 49.6286C30.0603 49.8102 30.1209 50.0178 30.1859 50.2556C30.2287 50.1258 30.1206 49.8015 30.2193 49.6329C30.5386 50.1431 30.8881 50.6489 30.85 51.0252L30.939 50.1473C31.12 50.3375 31.6111 50.545 31.676 50.7828C32.1496 50.8692 31.6565 49.3644 32.2894 49.4897C32.2419 49.3729 32.2245 49.2518 32.2372 49.1264C32.6502 49.0053 33.3525 49.3986 33.2778 48.4516L34.1183 49.1649C34.2725 48.7411 33.0364 48.27 33.3366 47.578C33.5036 47.0288 33.9833 48.2265 34.2849 48.3994C34.1721 47.8287 33.8561 46.7001 34.6962 47.1972C34.7009 47.4437 34.5071 47.3788 34.4643 47.5086L34.8174 47.6123ZM38.4066 44.5627C38.4327 44.7444 38.5023 45.2287 38.2436 44.926C37.8593 44.178 38.174 44.4417 38.4066 44.5627ZM43.4081 39.1474C43.4731 39.3852 43.3439 39.342 43.0768 39.1951C43.124 39.0956 43.21 39.0523 43.4081 39.1474ZM57.9416 24.3286C57.6186 24.2206 57.7521 24.2941 57.9416 24.3286V24.3286ZM58.4754 24.4063C58.4754 24.4063 58.4148 24.1988 58.3415 24.1166C58.3978 24.2939 58.3462 24.3631 58.2214 24.3502C58.3379 24.5188 58.4714 24.5923 58.4711 24.3761L58.4754 24.4063ZM20.1692 49.8731L20.3372 49.9725C20.3161 50.2536 20.2298 50.0806 20.1692 49.8731Z" fill="#FF8200"/>
<path d="M43.2548 40.4355C43.2548 40.4355 43.0738 40.2452 42.9961 40.1328C43.0135 40.2539 43.1213 40.362 43.2548 40.4355Z" fill="#FF8200"/>
<path d="M32.6484 49.623L32.696 49.7398L32.6484 49.623Z" fill="#FF8200"/>
<path d="M55.8873 33.1197C55.8873 33.1197 55.6503 32.9684 55.5469 32.8906C55.6332 33.0636 55.741 33.1717 55.8873 33.1197Z" fill="#FF8200"/>
<path d="M59.8448 22.1693L59.7032 22.4677C59.7032 22.4677 59.9228 22.498 60.0262 22.5758C59.9442 22.4331 59.7631 22.2429 59.8448 22.1693Z" fill="#FF8200"/>
<path d="M64.128 25.0145C64.128 25.0145 64.1839 24.9756 64.1966 24.8501L64.0326 24.5648C64.0326 24.5648 63.9386 24.9799 64.1581 25.0102L64.128 25.0145Z" fill="#FF8200"/>
<path d="M61.2429 24.1923C61.5666 24.7327 61.6178 24.4473 61.7165 24.2787L61.6864 24.283C61.3279 23.5004 61.2854 23.8463 61.2429 24.1923Z" fill="#FF8200"/>
<path d="M61.7731 24.2402C61.7731 24.2402 61.8504 24.1364 61.9107 24.1277C61.7724 23.8078 61.8159 24.1105 61.7731 24.2402Z" fill="#FF8200"/>
<path d="M58.7495 23.7479C58.7495 23.7479 58.3997 23.0258 58.5808 23.2161C58.2913 22.4853 58.5267 24.3361 58.7495 23.7479Z" fill="#FF8200"/>
<path d="M62.3846 25.9142L61.9531 25.2656L62.1607 25.8537L62.3846 25.9142Z" fill="#FF8200"/>
<path d="M60.7878 26.1445L61.1624 26.1833C61.1624 26.1833 61.1018 25.9758 61.1232 25.9109C60.9468 25.9672 60.7015 25.9716 60.818 26.1402L60.7878 26.1445Z" fill="#FF8200"/>
<path d="M61.093 25.915C61.093 25.915 61.265 25.8285 61.2432 25.6771C61.183 25.6858 61.1057 25.7896 61.093 25.915Z" fill="#FF8200"/>
<path d="M62.1328 26.3211L61.9648 26.2216L61.7583 26.2822L62.1328 26.3211Z" fill="#FF8200"/>
<path d="M57.866 27.645L57.6729 28.0127C57.7679 28.2461 57.936 28.3456 57.9788 28.2158C57.9483 28.0039 58.0213 27.8699 57.8402 27.6796L57.866 27.645Z" fill="#FF8200"/>
<path d="M59.7799 28.9757C59.7799 28.9757 59.5299 28.7336 59.3789 28.5391L59.8365 29.3692L59.7799 28.9757Z" fill="#FF8200"/>
<path d="M59.0425 29.6379C59.1376 29.8714 58.988 30.5417 59.3491 30.2735C59.2541 30.04 59.417 29.6767 59.0425 29.6379Z" fill="#FF8200"/>
<path d="M54.1234 31.1176L54.2094 31.0743L53.4023 29.7383L54.1234 31.1176Z" fill="#FF8200"/>
<path d="M52.2628 36.5757C52.801 36.6837 51.831 35.7109 52.3823 35.9097C52.2698 35.5551 51.9257 35.7282 51.8521 35.4298C51.8571 35.8925 51.6245 35.7715 52.2628 36.5757Z" fill="#FF8200"/>
<path d="M7.42508 58.9661L7.01172 58.8711L7.48567 59.1737L7.42508 58.9661Z" fill="#FF8200"/>
<path d="M7.7797 60.151L7.08984 59.416L7.54307 60.2159C7.54307 60.2159 7.60732 60.0213 7.78405 60.1813L7.7797 60.151Z" fill="#FF8200"/>
<path d="M40.0976 45.8335L39.9767 45.6346C39.7956 45.4444 39.7354 45.4531 39.6192 45.5007L40.1019 45.8638L40.0976 45.8335Z" fill="#FF8200"/>
<path d="M36.8704 47.1316L36.9306 47.123L36.3398 46.4355L36.8704 47.1316Z" fill="#FF8200"/>
<path d="M35.1791 49.692C35.1791 49.692 35.2949 49.4281 35.4111 49.3805C35.2953 49.6444 34.5278 48.797 35.1791 49.692Z" fill="#FF8200"/>
</g>
<defs>
<clipPath id="clip0_640_137">
<rect width="71" height="80" fill="white" transform="translate(0 10.1055) rotate(-8.1827)"/>
</clipPath>
</defs>
</svg>
