<svg width="511" height="490" viewBox="0 0 511 490" fill="none" xmlns="http://www.w3.org/2000/svg">
<g clip-path="url(#clip0_392_1418)">
<path d="M272.445 157.692C271.345 154.365 266.442 157.218 263.711 159.765C259.247 163.708 255.686 168.692 252.245 173.646C238.134 194.762 221.564 218.455 208.352 239.62C198.941 256.589 204.05 263.272 217.36 247.653C233.029 227.905 248.28 202.361 262.491 182.102C266.409 176.122 273.838 165.63 272.459 157.741L272.445 157.692Z" fill="#3435FF"/>
<path d="M243.845 291.395C250.478 296.875 270.859 279.327 276.469 275.345C290.852 264.368 307.203 251.955 321.449 241.014C325.747 237.668 329.964 234.329 333.483 230.306C339.757 223.052 340.843 216.411 332.287 217.874C323.884 219.866 316.031 226.532 308.804 231.994C301.542 237.622 293.374 244.03 285.295 250.391C276.31 257.484 268.178 263.902 260.227 270.253C255.605 274.108 240.859 285.265 243.825 291.352L243.857 291.382L243.845 291.395Z" fill="#3435FF"/>
<path d="M415.932 395.5C413.048 387.844 377.911 383.91 368.903 381.802C362.059 380.557 355.117 379.289 348.31 377.972C335.039 375.598 319.759 371.39 308.132 371.709C297.171 372.955 315.968 386.066 320.009 387.006C337.958 392.066 360.521 395.389 379.004 399.135C385.827 400.385 414.855 401.761 415.939 395.541L415.932 395.5Z" fill="#3435FF"/>
<path d="M382.672 305.281C381.484 298.251 360.948 302.361 355.792 303.698C336.777 308.283 315.53 314.012 296.548 318.851C290.798 320.376 285.032 321.837 280.049 324.533C274.273 327.761 274.122 331.111 279.78 332.792C287.554 334.68 296.211 332.866 304.31 331.072C314.714 328.638 327.797 325.16 339.043 322.287C349.232 318.972 381.842 314.029 382.675 305.343L382.674 305.295L382.672 305.281Z" fill="#3435FF"/>
<path d="M169.157 226.374C173.974 226.239 177.594 211.789 178.561 205.437C181.789 187.414 186.246 164.176 189.227 146.017C190.418 137.863 191.579 129.13 189.079 121.608C186.908 116.131 183.637 116.812 180.876 122.741C178.553 127.925 177.521 133.816 176.408 139.68C172.958 158.907 168.77 180.455 165.568 199.69C164.578 204.987 161.981 225.841 169.118 226.385L169.165 226.382L169.157 226.374Z" fill="#3435FF"/>
</g>
<defs>
<clipPath id="clip0_392_1418">
<rect width="555.646" height="151.912" fill="white" transform="matrix(-0.731967 -0.68134 -0.68134 0.731967 510.218 378.584)"/>
</clipPath>
</defs>
</svg>
