<svg width="969" height="550" viewBox="0 0 969 550" fill="none" xmlns="http://www.w3.org/2000/svg">
<g clip-path="url(#clip0_640_49)">
<path d="M666.437 448.359C663.409 448.933 665.627 451.399 665.378 452.008C670.021 450.027 666.006 447.675 666.437 448.359Z" fill="#3435FF"/>
<path d="M712.091 427.409L711.805 428.813C713.715 427.074 715.612 425.378 717.481 423.602C715.708 424.91 713.906 426.138 712.091 427.409Z" fill="#3435FF"/>
<path d="M755.771 408.409C752.229 407.371 748.628 409.566 744.673 412.194C740.734 414.851 736.406 417.881 732.058 418.77L730.162 418.258L728.68 423.315C733.343 421.104 738.4 417.997 743.066 415.098C747.799 412.244 752.112 409.517 755.754 408.379L755.771 408.409Z" fill="#3435FF"/>
<path d="M785.063 402.941C783.706 402.696 784.526 401.487 784.616 401.373C784.665 401.223 784.127 402.309 779.562 406.166C780.212 405.994 780.437 405.971 780.836 405.909C781.677 405.228 782.979 404.458 785.056 402.962L785.063 402.941Z" fill="#3435FF"/>
<path d="M780.813 405.879C784.84 405.149 776.549 409.049 780.813 405.879V405.879Z" fill="#3435FF"/>
<path d="M798.903 389.139L797.147 392.256L795.177 395.282C796.186 395.177 798.006 394.145 799.33 393.31C800.629 392.468 801.589 391.921 801.088 393.066C805.515 387.099 803.387 387.487 798.928 389.146L798.903 389.139Z" fill="#3435FF"/>
<path d="M800.333 381.917C799.803 382.982 799.157 383.986 798.535 384.998C799.365 384.86 800.263 384.34 800.333 381.917Z" fill="#3435FF"/>
<path d="M794.426 391.498C795.938 389.395 797.195 387.161 798.553 385.032C797.163 385.228 795.737 384.179 796.575 387.913C795.747 386.437 795.997 388.535 794.419 391.52L794.426 391.498Z" fill="#3435FF"/>
<path d="M790.505 393.883C788.607 394.819 786.566 395.946 785.484 396.027C784.395 396.13 784.359 395.478 786.281 392.603C781.55 396.977 780.102 399.386 781.131 399.81C781.641 399.997 782.781 399.65 784.381 398.713C785.988 397.755 788.131 396.305 790.48 393.875L790.505 393.883Z" fill="#3435FF"/>
<path d="M754.595 402.854C752.876 403.23 751.218 403.673 749.471 403.969L746.788 407.36C747.466 406.508 749.726 405.712 751.691 404.988C753.621 404.204 755.215 403.456 754.588 402.876L754.595 402.854Z" fill="#3435FF"/>
<path d="M826.367 354.86C825.451 353.997 822.545 355.798 820.925 355.612L819.734 360.691C820.727 359.703 821.973 358.179 823.179 356.95C824.392 355.7 825.448 354.685 826.335 354.874L826.367 354.86Z" fill="#3435FF"/>
<path d="M820.947 355.586C821.413 353.029 821.781 350.44 822.184 347.91C819.298 353.966 819.611 355.443 820.947 355.586Z" fill="#3435FF"/>
<path d="M796.264 377.443C795.588 379.387 794.697 381.239 793.825 383.12C792.928 384.993 792.115 386.941 791.07 388.767C793.566 384.438 795.886 380.147 797.729 375.657L796.295 377.43L796.264 377.443Z" fill="#3435FF"/>
<path d="M835.357 325.904L837.236 331.039C836.371 327.985 835.503 325.025 834.533 322.127L835.332 325.896L835.357 325.904Z" fill="#3435FF"/>
<path d="M835.939 304.981C837.105 306.755 838.017 305.598 838.806 304.402C839.57 303.199 840.099 301.968 841.018 303.923C840.482 300.856 839.566 298.046 838.461 295.485C837.357 292.924 835.756 290.561 834.44 288.407C835.421 290.762 836.346 293.289 836.509 296C836.664 298.732 836.625 301.735 835.914 304.973L835.939 304.981Z" fill="#3435FF"/>
<path d="M829.842 281.286C830.49 282.395 831.267 283.522 832.087 284.687C832.906 285.851 833.625 287.078 834.459 288.365C833.884 287.113 833.327 285.89 832.57 284.699C831.758 283.513 830.851 282.368 829.849 281.265L829.842 281.286Z" fill="#3435FF"/>
<path d="M826.864 335.905C827.689 335.527 829.775 334.936 831.623 330.851L827.658 333.001L826.864 335.905Z" fill="#3435FF"/>
<path d="M827.55 333.084L827.682 333.008C828.649 329.899 828.979 327.607 829.202 326.657C828.996 327.47 828.749 329.503 827.55 333.084Z" fill="#3435FF"/>
<path d="M826.653 336.623L826.88 335.912C826.471 336.09 826.318 336.231 826.653 336.623Z" fill="#3435FF"/>
<path d="M810.153 363.727C810.325 362.595 810.629 361.22 810.888 359.903C811.08 358.54 811.203 357.226 811.11 356.246C810.923 354.288 809.866 353.783 806.655 356.792C807.148 360.415 811.124 356.963 810.153 363.727Z" fill="#3435FF"/>
<path d="M821.671 338.923C820.535 341.289 819.546 343.703 818.301 345.987C819.164 346.168 820.929 345.308 820.917 347.631C821.367 344.784 821.431 341.789 821.671 338.923Z" fill="#3435FF"/>
<path d="M821.74 334.952C821.773 336.291 821.755 337.615 821.665 338.916C822.084 338.029 822.471 337.156 822.799 336.216L821.772 334.938L821.74 334.952Z" fill="#3435FF"/>
<path d="M830.588 296.715C829.709 294.891 828.801 292.986 828.12 290.964C827.352 288.962 826.986 286.803 826.013 284.593C826.581 287.053 826.725 289.568 827.18 292.04C827.352 293.282 827.642 294.491 827.765 295.717C827.894 296.921 828.024 298.126 828.16 299.309C829.264 299.923 831.375 302.047 830.581 296.736L830.588 296.715Z" fill="#3435FF"/>
<path d="M830.621 314.838C830.568 314.583 830.56 314.272 830.482 314.01C830.171 314.48 830.054 314.846 830.621 314.838Z" fill="#3435FF"/>
<path d="M801.343 244.473C801.39 244.749 801.399 245.061 801.439 245.358C801.621 245.298 801.779 245.23 801.985 245.177L801.336 244.495L801.343 244.473Z" fill="#3435FF"/>
<path d="M827.665 300.102C827.562 303.725 828.352 305.829 829.391 307.918C829.229 306.561 829.05 305.174 828.884 303.744C828.613 302.304 828.387 300.808 828.175 299.268C827.669 298.988 827.36 298.936 827.665 300.102Z" fill="#3435FF"/>
<path d="M823.104 269.06C823.404 271.174 823.858 273.479 824.404 275.838C824.55 273.772 824.221 269.465 823.104 269.06Z" fill="#3435FF"/>
<path d="M831.482 312.911C831.531 313.093 831.556 313.268 831.599 313.471C832.364 312.339 831.978 312.453 831.482 312.911Z" fill="#3435FF"/>
<path d="M831.466 312.911C830.975 310.974 830.136 309.447 829.371 307.944C829.643 310.144 830.166 312.234 830.488 314.022C830.755 313.609 831.135 313.185 831.473 312.889L831.466 312.911Z" fill="#3435FF"/>
<path d="M777.196 248.167C778.362 247.4 781.182 247.899 783.986 249.721C786.841 251.466 789.749 254.485 790.986 258.156C794.257 260.295 797.143 259.319 799.119 256.699C801.057 254.114 802.062 249.616 801.439 245.381C800.866 245.649 800.335 245.954 799.057 245.545C797.779 245.136 795.711 243.977 791.924 241.673C792.198 242.426 793.019 243.756 794.001 245.257C794.946 246.794 795.958 248.542 796.748 250.053C798.283 253.131 798.597 255.368 795.316 253.512C791.056 250.06 789.712 248.419 789.024 247.013C788.361 245.613 788.519 244.358 787.038 242.128C787.501 244.745 783.908 243.358 780.144 242.083C776.279 240.87 772.197 239.826 771.409 242.375C774.139 243.747 776.933 245.092 779.609 246.636C779.16 247.276 775.821 246.113 777.189 248.188L777.196 248.167Z" fill="#3435FF"/>
<path d="M812.085 258.519L814.471 261.395C812.603 257.664 811.833 254.735 810.056 249.11C804.759 245.089 803.034 244.894 801.977 245.149C804.05 247.308 805.935 249.715 807.885 252C809.676 254.448 811.588 256.769 813.176 259.343L812.092 258.497L812.085 258.519Z" fill="#3435FF"/>
<path d="M822.292 275.879C818.024 274.063 813.153 267.187 812.165 272.901C816.602 281.726 817.645 278.38 821.044 283.764C819.501 279.947 818.977 278.284 818.837 277.788C818.754 277.287 819.412 277.854 820.096 278.595C820.756 279.328 821.567 280.181 822.046 280.121C822.47 280.066 822.875 279.056 821.982 276.088C823.919 279.01 824.888 281.908 825.989 284.563C825.345 281.579 824.968 278.61 824.367 275.83L824.341 276.249L824.37 276.33C824.37 276.33 824.345 276.322 824.321 276.314C824.258 277.101 824.113 277.387 823.971 276.558C823.905 276.513 823.805 276.315 823.745 276.249C823.279 276.266 822.77 276.079 822.268 275.871C820.78 271.122 822.715 274.898 823.745 276.249C823.931 276.261 824.121 276.345 824.296 276.306L824.317 276.241L819.707 268.547C817.934 266.129 816.319 263.642 814.41 261.393C816.051 264.648 818.554 268.511 822.243 275.863L822.292 275.879Z" fill="#3435FF"/>
<path d="M803.731 347.147C804.167 346.883 804.375 346.997 804.62 347.075C804.608 346.098 804.466 345.696 803.731 347.147Z" fill="#3435FF"/>
<path d="M807.833 342.783C807.867 343.862 808.757 345.144 807.101 348.033C804.972 350.2 805.682 347.389 804.594 347.064C804.577 349.148 803.505 354.194 807.953 349.35L807.951 348.257C809.571 345.903 812.266 343.489 814.183 341.562C816.167 339.68 817.8 338.47 817.838 339.028C814.355 339.67 812.039 340.473 807.808 342.775L807.833 342.783Z" fill="#3435FF"/>
<path d="M821.269 312.062C820.639 307.849 820.174 303.712 818.963 299.622C818.256 301.746 817.676 303.815 816.681 305.824L818.39 305.563C817.875 312.425 819.953 311.095 821.262 312.084L821.269 312.062Z" fill="#3435FF"/>
<path d="M801.369 242.368L805.291 241.795C803.658 241.225 802.081 240.65 800.484 240.139L795.675 238.743C797.574 239.92 799.518 241.04 801.376 242.347L801.369 242.368Z" fill="#3435FF"/>
<path d="M786.92 230.215L789.347 228.641C787.647 228.027 785.979 227.398 784.283 226.856C785.179 227.949 786.055 229.108 786.92 230.215Z" fill="#3435FF"/>
<path d="M101.611 387.316L104.443 389.219C103.207 388.254 102.332 387.689 101.611 387.316Z" fill="#3435FF"/>
<path d="M87.6825 369.014L86.0957 369.147C87.3815 369.701 88.1355 369.799 87.6825 369.014Z" fill="#3435FF"/>
<path d="M384.384 135.312C378.575 132.979 371.797 129.268 372.935 132.315L375.065 135.227C378.829 134.556 381.819 134.777 384.409 135.32L384.384 135.312Z" fill="#3435FF"/>
<path d="M127.864 212.471C128.453 212.493 129.098 212.51 129.718 212.518C130.187 211.054 130.596 209.689 130.964 208.454C130.032 209.675 128.928 211.008 127.864 212.471Z" fill="#3435FF"/>
<path d="M132.75 224.797C130.506 225.29 128.213 225.767 126.016 226.37C127.655 226.158 129.86 225.7 132.75 224.797Z" fill="#3435FF"/>
<path d="M219.6 450.768L224.498 449.177C218.266 447.231 220.54 449.525 219.6 450.768Z" fill="#3435FF"/>
<path d="M624.026 161.114C619.649 158.622 615.951 157.392 612.687 156.419C615.345 157.934 617.663 159.577 619.586 160.596C621.502 161.636 622.977 162.108 624.026 161.114Z" fill="#3435FF"/>
<path d="M67.5824 397.533C69.5994 399.104 70.7898 399.532 71.3307 399.112C69.2961 397.512 67.8933 396.731 67.5824 397.533Z" fill="#3435FF"/>
<path d="M599.023 153.123C599.79 153.605 600.598 153.959 601.379 154.398C604.924 154.749 608.49 155.202 612.685 156.401C608.765 154.174 604.079 152.224 599.023 153.123Z" fill="#3435FF"/>
<path d="M730.269 475.694C730.664 475.725 731.111 475.676 731.492 475.75C731.439 475.326 730.946 475.432 730.269 475.694Z" fill="#3435FF"/>
<path d="M882.327 449.173C881.2 450.071 879.037 451.159 877.06 452.26C878.144 451.918 879.822 451.078 882.327 449.173Z" fill="#3435FF"/>
<path d="M725.285 194.239C728.706 195.571 725.95 194.191 725.285 194.239V194.239Z" fill="#3435FF"/>
<path d="M735.944 211.892C735.114 211.863 734.371 211.982 733.975 212.544C734.568 212.045 735.226 211.852 735.944 211.892Z" fill="#3435FF"/>
<path d="M561.193 164.26L560.9 164.166C561.838 164.945 561.67 164.796 561.193 164.26Z" fill="#3435FF"/>
<path d="M729.673 197.689C728.602 196.801 727.297 195.885 725.824 194.986C726.415 195.508 727.587 196.334 729.673 197.689Z" fill="#3435FF"/>
<path d="M729.642 196.131L732.416 197.707C733.063 197.463 732.829 197.008 729.642 196.131Z" fill="#3435FF"/>
<path d="M720.563 192.28C722.499 193.089 724.207 194.015 725.821 194.982C725.265 194.52 725.056 194.239 725.274 194.238C724.294 193.829 722.878 193.258 720.588 192.288L720.563 192.28Z" fill="#3435FF"/>
<path d="M457.665 506.234C457.897 506.355 458.143 506.434 458.4 506.564C461.87 505.537 460.347 505.643 457.665 506.234Z" fill="#3435FF"/>
<path d="M301.183 174.055C301.183 174.055 301.392 173.906 301.517 173.85L300.996 173.803L301.166 174.026L301.183 174.055Z" fill="#3435FF"/>
<path d="M289.948 178.051C293.939 173.535 296.995 173.635 301.023 173.831L294.832 165.916C293.165 169.941 291.523 173.973 289.972 178.059L289.948 178.051Z" fill="#3435FF"/>
<path d="M147.086 422.249C145.221 420.204 143.516 417.997 141.776 415.898C144.477 416.263 146.762 416.828 148.65 417.361C150.584 417.837 152.083 418.316 153.125 418.531C155.202 418.982 155.35 418.435 153.228 415.074C151.731 416.874 149.222 416.926 146.381 415.899C143.495 414.928 140.155 413.005 136.993 410.949C133.716 408.999 130.714 406.781 127.89 405.616C125.135 404.403 122.82 404.018 120.922 405.548C120.065 403.992 119.156 402.514 118.387 400.939C119.384 401.97 120.014 401.696 121.063 402.649C118.871 397.984 116.46 397.901 113.158 397.889C111.508 397.884 109.797 397.811 107.939 397.098C106.106 396.393 104.01 395.153 102.075 392.564C99.5938 388.803 98.641 385.768 101.639 387.321C98.7021 385.408 96.0895 383.243 93.2389 381.144C91.6695 378.767 93.5081 378.524 95.1119 380.794C91.8421 377.041 88.6559 373.197 85.7912 369.195L86.1029 369.152C83.4478 368.137 78.9754 364.926 76.7824 363.227C76.1829 359.427 78.7347 364.493 79.3721 363.177C77.1773 361.146 75.367 358.929 73.3256 356.757C73.802 354.844 75.427 355.269 77.1629 356.702C78.8918 358.157 80.6617 360.67 81.9686 363.106C84.6176 358.042 83.5356 356.937 81.2218 354.938C80.0738 353.954 78.6722 352.746 77.6622 350.738C76.6206 348.743 75.7081 346.006 76.0543 342.128L77.7965 345.321C78.4087 346.371 79.133 347.41 79.7766 348.447C80.7218 347.016 81.1174 345.694 81.3449 344.39C81.6039 343.073 81.5896 341.762 81.4346 340.384C81.2797 339.005 81.0402 337.551 81.1154 335.961C81.1591 334.385 81.1881 332.685 81.7176 330.86C80.8885 331.758 79.627 335.532 77.9194 338.5C76.4743 341.408 74.6352 343.431 72.028 339.725C72.0844 338.532 72.0701 337.222 71.5849 335.69C71.1242 334.166 70.1612 332.433 68.8494 330.352C72.5412 329.99 70.6754 325.999 70.1804 320.855L75.096 321.241C74.0684 318.609 73.2027 317.335 72.1176 316.324C71.0394 315.29 69.8785 314.515 68.7543 312.779C69.0875 309.705 70.487 308.039 71.964 307.064C73.4724 306.075 75.251 305.765 76.9873 305.418C78.2982 301.066 76.4682 302.214 74.4868 303.242C72.4879 304.24 70.3305 305.141 70.9919 299.347C71.7417 297.426 72.6574 295.749 73.1908 293.997C73.8225 292.276 73.9666 290.47 74.5069 288.697C74.9489 286.891 75.2463 284.945 75.5252 282.803C75.927 280.7 76.4644 278.427 77 275.821C81.5386 271.456 79.1121 278.11 81.4464 276.911C81.1895 274.834 81.0692 272.754 80.8958 270.586C81.6925 269.535 82.4934 270.504 82.9062 270.992C84.1109 266.463 78.7582 268.122 82.1697 261.522C81.3678 260.387 81.961 259.295 83.318 258.186C84.7911 257.138 87.0211 256.095 89.3555 254.895C91.623 253.65 94.3044 252.466 96.3665 250.847C97.4099 250.041 98.3265 249.123 99.0779 248.129C99.8785 247.151 100.478 246.037 100.836 244.751C103.598 244.163 102.151 247.498 104.062 248.299C107.378 242.761 109.301 240.646 110.631 238.436C111.992 236.213 113.141 234.23 115.979 229.085C119.232 228.06 122.683 227.265 125.976 226.372C117.84 227.33 122.572 219.229 127.794 212.473C124.52 212.375 121.674 212.296 119.912 212.468C123.236 209.614 126.556 206.688 130.098 203.999C131.976 203.888 131.679 205.834 130.901 208.434C131.489 207.696 132.015 206.986 132.393 206.395C137.593 205.637 136.89 209.02 135.471 212.697C133.553 212.677 131.552 212.583 129.624 212.512C128.507 216.428 127.891 220.385 130.134 222.266C130.508 221.436 131.613 220.27 132.956 219.204C132.706 220.239 132.661 221.056 133.283 221.231C133.946 221.443 134.418 219.885 135.57 217.975L141.156 220.925L140.58 218.913C146.027 217.213 151.627 215.799 157.181 214.442C165.193 205.231 171.532 194.392 189.435 186.018C186.429 191.015 191.161 191.888 192.863 195.969C185.699 193.464 179.517 202.715 169.849 205.581C174.912 204.067 174.876 206.382 174.027 207.511C178.862 204.167 183.683 200.7 188.736 197.521C190.006 200.919 193.558 198.708 198.639 198.576C192.125 193.193 209.347 190.085 215.629 186.112C217.022 188.195 216.284 190.927 207.456 192.946C213.301 193.984 215.493 191.196 217.678 188.263C219.855 185.351 222.12 182.42 227.704 183.256C225.58 183.883 224.291 183.85 223.906 185.222C228.061 181.804 241.051 180.404 238.876 183.055L236.741 183.631C240.382 182.92 244.919 181.95 249.714 180.849C254.473 179.689 259.552 178.464 264.163 177.091C273.414 174.424 280.964 171.403 281.259 168.363C281.62 169.096 281.352 175.61 280.826 176.913C287.588 168.987 294.676 161.142 302.101 153.428C301.034 158.713 312.9 169.298 301.399 173.832C305.087 173.991 309.62 174.302 316.596 171.548C314.039 171.157 308.867 165.135 312.048 164.254C322.446 168.672 319.098 166.437 331.289 169.91C327.426 169.196 329.784 160.977 335.659 160.649C334.986 161.906 337.725 168.336 335.799 169.358C340.03 166.296 344.313 163.322 348.646 160.364C345.291 162.044 349.25 166.943 352.839 168.851C351.061 167.38 365.256 168.146 368.961 167.147L362.582 165.747C370.797 165.811 374.38 162.827 378.001 159.807C381.626 156.86 385.292 153.783 393.53 153.689C391.721 155.365 389.924 163.692 398.244 164.36C399.887 162.274 403.515 157.452 408.647 152.756C413.766 148.102 420.36 143.327 427.676 141.964L430.675 144.277L441.891 141.906C438.497 144.808 432.067 149.327 425.338 153.679C418.61 158.197 411.573 162.665 406.586 165.129C412.887 166.859 408.557 167.777 417.67 167.487C421.067 169.571 413.024 170.749 410.375 170.899C417.468 171.339 424.531 171.533 431.596 172.227C430.316 167.591 447.504 167.891 446.522 164.016C438.866 165.507 431.251 166.87 423.704 168.444C423.039 166.118 426.097 162.824 431.302 160.358C436.506 157.892 443.859 155.995 451.545 156.697C455.502 158.722 448.962 164.772 449.384 166.332C451.268 164.846 463.659 163.966 465.061 165.174L458.705 167.343C467.096 169.481 472.356 161.763 482.51 167.029C486.011 167.603 492.823 173.746 493.46 171.077C487.936 165.394 486.933 149.049 490.947 145.395C492.235 145.689 509.728 152.234 513.635 155.264C519.22 159.994 504.38 164.125 509.155 168.169C509.418 166.924 512.695 165.74 514.06 165.37C517.681 166.837 512.304 169.081 520.338 169.372C521.981 164.913 536.533 172.013 524.38 165.965C532.313 165.725 532.618 168.078 541.813 169.143C540.507 167.467 542.821 165.145 546.526 163.387C550.199 161.642 555.298 160.353 559.357 160.37C558.739 161.454 560.319 163.289 561.081 164.126C569.164 165.619 575.231 167.655 581.164 169.434C587.114 171.242 592.889 172.923 600.301 174.82C601.441 176.252 608.296 179.3 604.819 180.514C607.106 180.225 609.424 179.162 614.01 180.154C617.921 183.257 615.37 182.678 612.521 182.265C609.673 181.853 606.545 181.47 609.338 184.594C609.917 183.379 613.073 183.083 616.919 183.34C620.747 183.567 625.303 184.146 628.745 184.226C627.84 179.688 614.029 179.163 607.15 179.408C607.773 176.616 611.237 174.424 616.665 173.122C622.052 171.949 629.369 171.773 637.613 172.677C644.06 173.695 645.113 175.148 644.89 176.097C644.661 177.068 643.151 177.725 644.332 177.675C655.731 181.844 661.424 180.982 666.573 180.469C671.663 180.056 676.243 179.883 685.115 185.26C691.363 191.39 682.806 192.142 683.534 195.2C673.239 192.999 669.273 187.528 662.476 185.402C665.088 186.807 667.606 188.42 670.134 189.917C668.372 189.923 665.776 189.567 663.221 188.916C660.639 188.351 658.09 187.512 656.454 186.443C657.765 187.764 660.864 189.088 664.911 190.833C668.965 192.557 674.043 194.467 679.466 196.486C684.94 198.427 690.586 200.85 695.94 203.251C701.249 205.709 706.347 207.981 710.161 210.625C713.635 210.858 719.376 212.053 717.578 209.626L712.023 207.683C708.33 202.799 723.88 208.556 717.674 204.245C725.771 205.695 735.559 206.262 744.936 212.941L744.741 217.532C745.169 216.363 739.38 212.018 735.905 211.785C738.468 211.988 741.682 215.153 745.063 217.967C748.46 220.81 752.004 223.368 755.755 222.313C753.959 220.219 752.153 218.074 750.294 216.008C758.485 218.011 770.168 219.516 778.185 226.805C776.756 220.769 775.94 225.778 772.446 217.729C773.43 221.937 767.71 218.137 762.31 215.033C756.892 211.899 751.886 209.253 754.764 214.399C751.02 206.033 744.453 206.235 737.853 197.904C737.5 199.263 739.77 201.651 732.31 197.532C731.782 197.743 730.731 197.81 730.066 197.858C729.841 197.715 729.774 197.67 729.573 197.535L729.929 197.862C729.512 197.895 729.449 197.922 730.056 197.974C731.62 199.352 732.794 200.678 733.062 201.618C727.776 202.728 715.668 197.051 710.816 196.805C706.456 194.342 713.406 196.161 711.482 193.789L704.212 193.482C704.854 190.459 693.812 183.817 705.565 186.627L695.673 182.489C690.467 178.522 682.409 175.089 676.955 174.437C674.671 173.279 671.378 172.985 669.296 172.889C667.2 172.836 666.251 173.007 668.761 172.528L652.177 169.241L652.263 168.462C644.471 165.637 635.872 164.738 627.283 162.964C618.704 161.074 609.907 159.186 601.314 154.206C595.773 153.573 589.98 153.477 581.055 150.717L579.703 147.745C572.613 147.043 558.987 141.284 555.61 143.456C553.919 141.373 550.964 139.857 547.239 138.713C543.529 137.693 539.067 137.073 534.453 136.594C529.824 136.158 525.07 135.776 520.684 135.513C516.291 135.271 512.273 134.959 509.179 134.302L508.549 137.709C504.302 137.181 500.098 136.857 495.672 136.889C491.239 136.943 486.534 137.171 481.261 137.478L481.888 140.599C477.348 141.497 471.553 140.474 465.063 139.419C458.581 138.342 451.37 136.748 444.231 136.791C445.15 135.613 448.793 135.995 451.416 136.858C442.7 133.025 433.661 134.264 424.956 135.563C416.245 137.05 407.869 138.928 399.854 136.459C396.142 137.646 393.313 137.429 390.53 136.729C390.891 136.702 391.209 136.638 391.461 136.528C391.058 136.518 390.487 136.525 389.884 136.546C388.112 136.074 386.279 135.536 384.332 135.103C386.035 135.79 387.668 136.36 389.026 136.604C386.072 136.775 381.617 137.32 377.337 138.254L374.988 135.01C374.645 135.066 374.347 135.066 373.972 135.136C369.46 134.167 370.744 136.928 373.414 139.254C371.301 139.931 369.37 140.714 367.946 141.612C363.596 136.493 356.812 144.151 351.055 138.773C349.805 140.225 344.442 141.239 339.21 142.604C334.003 143.977 328.967 145.832 328.437 148.843C328.131 148.105 326.774 147.86 329.11 147.587C324.139 147.374 319.201 147.313 315.273 149.428L312.251 145.494L303.119 152.448C296.159 150.744 293.101 149.719 298.626 145.575C284.64 152.709 286.675 149.23 275.201 156.218L275.035 153.435C270.445 154.317 264.28 159.277 260.84 157.583C257.885 156.828 253.235 157.05 247.482 157.844C241.75 158.741 234.917 160.116 227.686 161.886C213.147 165.33 196.982 169.964 183.265 171.938C191.85 177.794 169.896 172.575 171.883 178.813C169.538 177.589 165.513 177.891 168.762 174.848C162.826 178.076 157.702 179.191 153.305 180.657C151.097 181.375 149.076 182.105 147.228 183.224C145.391 184.393 143.724 185.877 142.31 188.012C139.812 186.928 143.463 184.322 141.554 183.854C140.77 184.695 138.467 187.068 136.53 186.686C134.607 186.261 137.453 184.394 139.018 182.805C126.278 189.009 128.611 194.93 131.044 200.195C127.213 200.655 124.529 201.339 122.594 202.643C120.702 203.985 119.469 205.893 118.507 208.647C115.291 208.283 110.492 208.719 117.489 203.954C116.416 204.513 114.133 205.468 111.481 206.898C108.829 208.329 105.691 210.008 102.828 211.846C99.9994 213.742 97.3994 215.688 95.6951 217.374C94.0262 219.119 93.2638 220.656 93.9979 221.579C92.0041 221.63 88.4431 225.31 87.9383 226.549C79.6839 233.214 78.6239 233.563 71.7563 241.313L74.309 239.684C75.2214 243.015 74.0991 244.745 72.0694 246.517C69.9797 248.222 67.2853 250.209 65.0545 253.626L64.7046 253.111C63.7488 253.897 62.8943 254.62 62.1655 255.289C61.4791 255.996 60.8624 256.653 60.3225 257.24C59.2427 258.414 58.4736 259.378 57.8963 260.167C56.7593 261.774 56.351 262.711 56.0833 263.718C55.791 264.716 55.4878 265.664 54.4491 267.302C53.4105 268.94 51.4426 271.111 48.549 275.076L52.3822 275.542C54.0463 276.692 54.2258 278.079 53.5234 279.682C53.1879 280.477 52.5898 281.33 51.9083 282.275C51.3004 283.244 50.5421 284.259 49.7247 285.375C46.2933 289.666 42.6853 295.61 43.3483 301.329C44.1125 300.125 45.1048 298.971 46.0588 297.852C46.2385 298.645 46.1764 299.432 45.9077 300.272C45.6951 301.106 45.3075 301.979 44.7832 302.856C43.7032 304.623 42.0421 306.513 40.2797 308.466C38.6963 310.452 37.0046 312.522 35.6385 314.507C34.9677 315.503 34.353 316.493 33.9201 317.423C33.5364 318.368 33.31 319.245 33.2409 320.054C32.7303 321.481 31.8544 317.783 31.3978 315.738C29.5607 324.361 31.0294 325.02 32.8689 324.944C33.8255 324.918 34.9531 324.78 35.9764 325.392C36.9682 326.018 37.9854 327.411 38.8015 330.45C36.6496 332.942 31.7216 327.853 32.7937 336.528C32.382 338.746 35.714 344.845 39.8994 351.24C43.8821 357.76 48.5461 364.522 49.0428 370.592C49.6533 367.582 50.3698 364.749 54.3177 369.43C56.8059 373.17 58.1009 379.115 60.5709 384.605C61.6801 387.405 63.1806 389.998 64.9486 392.178C66.6921 394.35 68.7729 396.06 71.3672 396.842C71.6716 398.008 71.5593 398.613 71.1965 398.9C72.6748 400.038 74.3486 401.665 76.3695 403.308C78.3835 404.973 80.542 406.78 82.6857 408.462C87.1512 411.695 91.4358 414.561 94.22 414.834C92.2067 420.79 101.773 427.386 110.987 431.948C115.553 434.358 120.071 436.326 122.981 438.324C125.943 440.245 127.359 442.17 125.839 444.295C132.147 447.951 138.621 451.256 145.112 454.424L144.085 455.093C150.115 458.517 154.592 460.186 158.22 460.872C161.841 461.579 164.581 461.482 167.306 461.262C169.903 463.137 167.39 463.117 166.912 463.51C171.296 465.981 174.758 467.776 177.745 469.111C180.717 470.49 183.214 471.407 185.689 472.056C190.631 473.376 195.549 473.667 204.189 473.843L204.753 477.584C207.205 477.372 213.568 480.855 221.894 484.468C230.214 488.102 240.447 491.85 250.224 492.366C249.96 492.685 249.409 493.221 247.811 493.304C253.291 493.704 259.013 495.296 264.708 497.308C270.4 499.247 276.094 501.52 281.45 503.494C292.118 507.405 301.495 509.597 306.443 504.462C311.251 504.504 316.084 504.388 320.871 504.329C303.073 499.752 324.44 499.607 317.4 496.121C324.515 496.83 334.968 503.45 326.228 502.316L324.965 501.437C322.854 504.227 328.345 506.031 334.247 507.397C340.143 508.784 346.423 509.986 345.877 512.114C381.476 518.207 416.226 526.023 450.066 529.061L446.269 523.74L457.978 524.993C461.052 526.308 462.113 529.259 453.707 528.35C458.127 531.64 467.805 526.878 467.999 525.848C484.442 528.9 461.644 531.316 466.658 531.733L473.52 531.792L471.978 531.109C477.513 529.389 477.939 527.294 488.029 527.934C494.425 529.197 491.408 531.175 493.943 531.464C493.938 531.819 494.795 532.021 497.8 531.772C502.747 532.144 507.714 532.284 512.671 532.541L506.501 528.454C512.939 526.621 520.382 528.93 513.305 524.292C518.508 527.927 532.334 528.575 545.602 528.427C552.224 528.219 558.717 527.993 563.948 527.815C569.169 527.586 573.125 527.498 574.736 527.966C583.441 524.721 592.336 524.1 603.485 523.631C600.576 522.985 598.141 518.741 607.707 518.477C606.861 523.239 611.392 523.81 617.291 523.917C620.249 523.985 623.522 523.916 626.653 524.205C629.767 524.465 632.71 525.003 635.017 526.43C631.082 524.672 637.801 523.569 643.924 522.299C650.082 521.088 655.592 519.361 649.481 517.122C657.501 516.696 650.821 520.47 657.361 521.707C661.831 520.098 666.683 519.158 671.781 518.296C676.878 517.434 682.258 516.876 687.793 516.344C698.818 515.075 710.588 514.021 721.71 510.671C721.626 509.409 717.173 508.507 721.398 505.633C726.082 506.657 730.84 507.704 735.548 508.569C739.793 506.817 736.931 500.774 746.67 502.679C745.128 501.995 742.827 500.974 745.631 499.83C768.621 496.644 790.124 488.282 811.175 479.467C832.35 470.691 852.943 461.278 876.286 455.546C869.422 456.342 872.908 454.252 876.957 452.01C873.931 452.917 875.172 449.374 873.613 448.234C880.127 446.757 886.407 444.825 892.849 443.064C892.862 441.668 893.91 440.341 895.515 439.05C895.916 438.728 896.342 438.413 896.799 438.084C897.389 437.68 898.017 437.24 898.639 436.821C900.074 435.808 901.368 434.727 902.595 433.6C904.994 431.352 906.984 428.856 908.063 426.329C909.167 423.809 909.294 421.381 908.299 420.256C907.746 423.426 906.613 425.865 905.319 428.133C905.646 425.247 904.319 424.229 902.553 424.162C900.786 424.096 898.367 424.628 895.863 424.919C893.334 425.202 890.653 425.199 888.544 424.595C887.424 424.284 886.657 423.802 885.729 423.315C884.857 422.823 884.188 422.205 883.76 421.427C881.994 426.014 875.677 426.96 869.069 428.479C862.419 429.96 855.307 431.697 851.673 438.653C848.128 438.896 852.715 435.567 850.356 434.979C848.971 439.141 845.342 441.423 837.466 443.77L837.871 442.76C817.979 452.777 807.578 454.126 783.011 461.057L786.336 463.45C780.996 464.899 779.437 464.353 776.672 464.442C773.101 471.205 791.185 459.47 788.449 466.5C785.927 465.575 782.428 465.927 778.432 466.904C774.406 467.8 769.862 469.219 765.38 470.61C763.148 471.321 760.93 471.988 758.789 472.585C756.612 473.123 754.55 473.556 752.624 473.818C748.796 474.35 745.585 474.225 743.639 472.772C735.546 475.121 747.556 475.686 739.446 478.006L736.448 476.62L735.414 479.684C729.84 480.678 726.165 478.957 725.304 477.328C726.681 477.175 728.801 475.883 730.126 475.381C726.175 475.114 721.428 476.658 717.224 478.114C713.008 479.52 709.449 480.992 708.099 480.893L716.479 480.274C694.658 487.68 665.908 490.329 644.44 497.396L646.528 498.658C638.258 501.306 634.637 501.193 630.831 501.067C627.006 500.912 622.968 500.665 613.517 502.176L614.146 501.736C610.623 503.6 605.665 504.958 600.364 505.185C604.869 503.042 590.591 502.368 596.602 499.922C578.192 504.289 587.725 503.113 575.975 509.443L572.681 507.036C568.717 509.519 568.532 510.86 558.868 511.852C566.565 509.471 552.178 508.122 560.729 505.017C550.229 502.442 542.956 504.175 536.871 505.243C530.804 506.341 526.056 507.125 521.071 503.062C512.251 510.139 539.015 506.926 533.896 508.446C538.528 510.735 526.615 513.761 520.096 513.053C516.812 512.904 513.838 510.6 509.696 508.302C505.537 505.974 500.219 503.798 492.031 503.482C493.654 503.574 493.738 503.055 495.361 503.147C489.196 501.08 483.45 505.153 475.847 501.819C471.692 505.831 466.093 500.977 464.924 506.325L479.992 505.969C475.744 506.462 471.639 508.116 466.788 509.223C461.936 510.33 456.367 510.804 449.293 508.612C450.423 507.621 454.622 506.519 457.513 505.948C453.392 504.013 449.557 506.347 445.312 504.372C445.974 501.711 450.551 501.798 456.115 502.106C461.66 502.384 468.227 502.776 472.752 500.995C468.346 498.422 455.525 503.864 460.102 498.278C456.825 501.835 452.773 501.203 448.188 500.378C443.592 499.501 438.484 498.532 432.84 500.762L433.691 497.592C431.93 497.931 428.233 499.075 425.006 498.66L431.01 495.049C426.469 496.374 422.2 495.151 417.994 493.734C413.801 492.275 409.673 490.527 405.327 490.988C423.24 493.086 409.098 495.375 416.577 498.67C394.031 500.217 404.365 488.829 379.615 486.847C382.997 486.86 391.972 490.562 386.61 491.316C381.956 489.946 375.864 487.902 373.177 485.714C356.775 483.719 375.319 489.437 368.142 490.275C363.027 485.434 359.915 490.587 352.517 490.594L352.888 487.318C334.549 481.808 346.96 493.232 330.495 487.538C333.089 486.54 335.712 485.456 338.303 484.386C335.334 484.267 332.354 484.097 329.395 483.863L331.784 480.544C321.884 481.342 318.993 480.132 309.948 477.073C311.674 479.809 307.649 482.652 299.368 480.929C294.125 477.756 303.098 478.585 291.38 476.427C294.422 475.05 297.796 473.139 302.26 477.225C302.99 476.296 305.241 475.781 305.972 474.852C300.404 471.338 291 471.012 286.806 469.979C288.379 470.482 290.289 471.117 291.179 471.805L273.417 472.201C271.048 470.375 273.365 469.905 275.651 469.45C272.165 468.999 269.496 469.807 264.433 468.781C266.348 466.521 266.683 463.78 273.969 464.377L257.413 463.117C256.606 461.744 250.069 457.872 252.391 457.475C244.091 453.61 229.675 456.5 218.986 450.873C218.238 451.18 216.914 451.255 214.42 450.837C203.998 446.744 196.11 440.494 182.79 438.939C181.203 436.533 179.634 434.155 178.121 431.772C173.416 430.22 174.918 432.552 175.701 434.678C176.466 436.774 176.519 438.643 168.412 435.954C156.951 432.146 166.359 430.431 163.293 427.48C160.117 427.248 155.706 426.977 151.087 425.665C148.819 424.963 146.49 424.029 144.31 422.714C142.175 421.343 140.182 419.613 138.526 417.422C142.078 418.511 143.905 420.591 146.997 421.936L147.086 422.249ZM72.0152 339.934C73.4589 341.773 76.9432 345.024 75.4433 346.918C70.6037 345.702 71.9857 343.414 72.0152 339.934ZM147.679 209.931C146.743 211.673 143.974 212.283 140.545 212.587C142.311 211.3 144.71 210.406 147.679 209.931ZM687.337 181.532C687.337 181.532 687.113 181.555 687.019 181.596C681.919 178.398 683.706 179.587 687.337 181.532ZM698.234 187.273C699.548 187.313 699.637 186.867 699.346 186.252C698.227 186.701 695.67 185.717 692.834 184.335C693.313 185.462 694.55 186.593 698.227 187.294L698.234 187.273ZM495.308 530.5L492.962 529.536C498.162 528.778 496.733 529.603 495.308 530.5Z" fill="#3435FF"/>
<path d="M132.234 223.369C131.307 223.215 130.744 222.774 130.212 222.319C129.787 223.227 130.203 223.788 132.234 223.369Z" fill="#3435FF"/>
<path d="M218.702 451.043C218.818 451.104 218.948 451.122 219.057 451.204C219.316 451.073 219.501 450.919 219.605 450.762L218.696 451.065L218.702 451.043Z" fill="#3435FF"/>
<path d="M513.784 170.44C511.449 169.693 510.163 168.973 509.31 168.25C509.136 169.048 510.185 169.835 513.784 170.44Z" fill="#3435FF"/>
<path d="M760.523 209.766C757.952 208.658 755.391 207.602 752.841 206.596C756.418 208.286 757.302 209.59 758.771 211.009C759.012 210.256 758.228 208.557 760.523 209.766Z" fill="#3435FF"/>
<path d="M798.597 267.995C799.544 268.677 799.943 269.802 800.826 270.512L802.153 269.583C799.524 265.775 796.569 263.833 798.573 267.987L798.597 267.995Z" fill="#3435FF"/>
<path d="M761.024 222.669C759.998 225.284 764.767 226.976 769.709 229.648C769.417 229.46 769.136 229.323 768.882 229.099C772.669 226.916 766.835 224.575 761.031 222.647L761.024 222.669Z" fill="#3435FF"/>
<path d="M770.831 230.295C772.356 231.116 773.834 232.087 775.108 233.183C776.636 232.39 773.649 231.648 770.831 230.295Z" fill="#3435FF"/>
<path d="M713.393 191.434C715.526 193.065 716.392 188.832 717.278 190.469C721.468 188.295 699.34 187.769 713.393 191.434Z" fill="#3435FF"/>
<path d="M759.52 232.443L759.87 228.638C758.498 228.864 757.087 229.125 755.725 229.402C757.01 230.382 758.274 231.427 759.513 232.465L759.52 232.443Z" fill="#3435FF"/>
<path d="M723.441 210.952L730.8 215.3C730.955 214.732 732.091 214.906 733.414 215.258C728.698 212.895 723.702 209.967 723.441 210.952Z" fill="#3435FF"/>
<path d="M733.411 215.266C735.861 216.5 738.246 217.596 739.884 217.811C738.545 217.169 735.608 215.85 733.411 215.266Z" fill="#3435FF"/>
<path d="M748.992 227.488L747.188 225.677L742.026 222.673C744.358 224.273 746.729 225.839 748.992 227.488Z" fill="#3435FF"/>
<path d="M637.378 178.279L628.1 176.711C626.899 177.585 629.146 178.945 632.618 179.438C634.983 179.245 638.448 179.76 637.378 178.279Z" fill="#3435FF"/>
<path d="M661.366 195.541C659.227 194.097 659.307 193.34 658.317 191.86L656.716 195.763L661.366 195.541Z" fill="#3435FF"/>
<path d="M635.524 188.436C634.299 189.302 621.837 188.117 633.067 190.95C634.282 190.032 643.371 191.682 635.524 188.436Z" fill="#3435FF"/>
<path d="M500.236 157.296L502.582 157.501L502.493 150.493L500.236 157.296Z" fill="#3435FF"/>
<path d="M381.046 171.292C391.822 172.579 382.973 166.876 392.817 168.624C395.106 166.887 384.762 167.211 387.119 165.686C380.931 167.671 377.463 166.823 381.046 171.292Z" fill="#3435FF"/>
<path d="M387.123 165.669C388.12 165.347 389.155 164.99 390.264 164.489C388.448 165.001 387.629 165.356 387.123 165.669Z" fill="#3435FF"/>
<path d="M908.769 437.143C911.686 434.966 914.371 432.501 916.843 428.924C914.777 431.064 912.658 432.523 910.488 433.799C909.962 434.937 909.411 436.066 908.762 437.164L908.769 437.143Z" fill="#3435FF"/>
<path d="M912.1 413.758C913.561 412.326 914.477 410.055 915.122 407.698C913.115 405.418 910.799 403.514 908.398 402.295C907.794 401.983 907.214 401.678 906.595 401.409C906.019 401.178 905.472 401.026 904.924 400.875C903.836 400.551 902.752 400.299 901.696 400.127C902.704 400.616 903.973 401.307 905.25 402.142C906.591 403.117 908.07 404.421 909.186 405.846C911.579 408.867 912.383 412.281 912.062 413.793L912.1 413.758Z" fill="#3435FF"/>
<path d="M78.7774 324.627L77.5594 324.285C76.2742 325.084 76.442 326.254 76.6586 328.625C77.3727 327.24 77.961 325.909 78.7774 324.627Z" fill="#3435FF"/>
<path d="M110.419 390.155L109.502 389.126L108.146 393.535L110.419 390.155Z" fill="#3435FF"/>
<path d="M171.205 425.266C168.67 423.791 165.035 423.127 162.577 421.581C168.562 423.875 169.633 430.01 171.205 425.266Z" fill="#3435FF"/>
</g>
<defs>
<clipPath id="clip0_640_49">
<rect width="877.662" height="435.152" fill="white" transform="translate(835.939 681.855) rotate(-162.262)"/>
</clipPath>
</defs>
</svg>
