<svg width="2122" height="1097" viewBox="0 0 2122 1097" fill="none" xmlns="http://www.w3.org/2000/svg">
<g style="mix-blend-mode:darken">
<g clip-path="url(#clip0_640_118)">
<path d="M1120.21 655.094C1120.41 652.175 1120.58 649.247 1120.87 646.342C1120.93 645.942 1121.49 645.42 1122.13 645.345C1126.18 644.87 1126.11 642.969 1125.39 640.589L1131.81 642.363C1131.42 641.632 1131.43 641.164 1131.08 641.019C1128.38 639.87 1125.58 638.792 1122.6 637.602C1123.26 634.752 1123.78 632.005 1124.52 629.294C1125.1 627.156 1123.37 624.697 1125.6 622.724C1126.34 622.045 1125.79 620.877 1127.98 620.534C1129.12 620.352 1130.46 619.481 1130.22 618.917C1129.32 616.78 1131.98 614.78 1127.69 612.412C1126.52 611.761 1127.26 609.924 1127.47 608.704C1127.63 607.799 1128.76 607.062 1128.72 606.143C1128.61 603.643 1130.23 601.974 1134.87 601.492C1134.04 600.333 1135.62 598.953 1131.67 598.504C1131.25 598.454 1130.37 597.411 1130.41 597.407C1134.05 596.414 1131.24 593.07 1135.11 592.186C1135.2 592.163 1135.08 591.956 1134.97 591.636C1134.11 591.404 1133.09 591.141 1132.11 590.874C1132.05 590.635 1131.93 590.378 1131.93 590.144C1132.3 585.369 1133.06 580.672 1134.99 576.207C1135.66 574.699 1135.39 572.969 1135.78 571.37C1136.6 568.232 1137.59 565.121 1138.61 561.663L1142.08 564.202C1141.84 563.12 1142.02 562.557 1141.59 562.115C1138.79 559.276 1138.98 556.641 1139.56 554.011C1139.62 553.782 1139.44 553.372 1139.67 553.345C1144.48 552.548 1141.14 549.082 1143.98 547.641C1144.36 547.448 1144.01 546.812 1144.01 546.393C1143.92 544.789 1143.86 543.195 1143.78 541.577C1143.63 538.428 1146.59 536.357 1150.77 534.351L1145.88 533.396C1146.2 531.018 1146.25 528.671 1146.92 526.461C1147.12 525.772 1149.05 525.46 1150.35 524.913C1149.74 524.344 1148.38 523.567 1148.34 522.932C1148.29 522.382 1149.52 521.844 1150.48 521.535C1154.44 520.294 1154.4 520.348 1151.61 517.595C1150.85 516.846 1150.53 515.886 1150.61 515.124C1150.79 513.305 1151.55 511.577 1151.64 509.743C1151.68 508.887 1150.74 507.877 1149.96 506.415C1146.77 507.873 1146.41 509.886 1145.02 511.478C1141.83 515.081 1138.65 518.706 1135.61 522.376C1134.1 524.229 1133 526.218 1131.54 528.089C1129.72 530.397 1127.67 532.609 1125.88 534.926C1125.2 535.83 1125.15 536.933 1124.47 537.837C1122.67 540.267 1123.08 543.569 1117.53 544.577C1116.9 544.688 1116.34 545.246 1116.42 545.656C1117.33 550.613 1112.97 554.155 1110.15 558.095C1107.06 562.437 1103.72 566.71 1100.32 570.951C1098.63 573.047 1096.57 575.026 1094.69 577.045C1094.41 577.323 1093.76 577.647 1093.93 577.886C1096.12 580.98 1092.54 582.631 1090.49 584.425C1085.98 588.353 1085.75 593.457 1082.32 597.653C1079.78 600.748 1077.18 603.824 1074.71 606.923C1072.79 609.316 1070.89 611.731 1069.17 614.188C1065.6 619.226 1062.29 624.333 1058.64 629.344C1057.45 630.937 1055.4 632.262 1054.05 633.8C1053.06 634.938 1052.54 636.243 1051.86 637.494C1049.9 640.964 1048.08 644.478 1045.98 647.916C1044.1 650.958 1041.93 653.922 1039.91 656.919C1038.46 659.06 1037.18 661.256 1035.61 663.361C1033.13 666.708 1030.31 669.946 1027.92 673.343C1025.26 677.104 1022.89 680.955 1020.52 684.794C1018.56 687.943 1017.11 691.242 1014.86 694.279C1009.77 701.071 1004.14 707.683 999.056 714.475C994.316 720.809 990.642 727.523 985.282 733.622C979.972 739.652 975.64 746.136 967.313 751.016C962.566 753.778 957.486 756.381 951.028 758.049C949.656 758.407 947.886 758.417 946.271 758.544C944.617 758.676 942.702 758.556 941.33 758.913C935.939 760.309 930.507 760.501 924.088 757.79C922.508 757.125 920.177 757.053 918.185 756.757C906.953 755.127 899.603 750.086 899.64 744.081C899.634 743.157 899.03 742.156 898.828 741.219C898.374 739.177 897.977 737.154 897.523 735.112C897.249 733.9 896.843 732.678 896.606 731.462C895.83 727.388 894.726 723.291 896.936 719.619C897.578 718.521 897.934 717.112 897.245 715.899C895.049 712.016 896.051 708.806 898.663 705.802C899.08 705.334 899.46 704.636 899.068 704.14C896.11 700.445 900.914 697.886 899.097 694.563C898.078 693.795 896.031 692.643 896.307 692.364C898.278 690.408 894.631 686.757 900.354 685.939C900.743 685.881 900.927 685.354 900.905 685.012C900.586 682.277 900.361 679.555 899.742 676.806C899.522 675.846 898.259 674.848 900.398 674.388C900.607 674.339 900.196 673.636 899.904 673.239C899.754 673.022 898.939 672.723 898.999 672.642C900.893 669.907 900.138 666.41 903.932 663.908C903.488 663.529 902.773 662.91 902.029 662.283C902.794 661.811 903.577 661.362 904.274 660.935C904.121 660.584 904.076 660.318 903.86 660.097C902.806 659.05 901.714 658.007 900.343 656.689C903.54 654.898 902.809 652.346 901.251 649.325C900.171 647.197 901.469 644.938 902.268 642.885C902.843 641.413 903.468 640.293 901.508 638.465C899.612 636.691 901.461 635.55 905.638 635.837C903.726 633.572 906.329 631.789 903.125 629.589C902.44 629.114 903.284 627.747 904.076 627.099C906.137 625.441 906.287 623.797 902.326 621.871C904.93 620.087 908.591 618.648 904.45 615.523L911.375 615.599C903.756 609.431 904.861 605.199 910.861 603.264L904.735 600.297C904.041 598.579 908.365 599.133 910.289 597.798C909.181 596.499 907.831 594.92 906.552 593.431C908.482 593.02 910.587 592.884 911.821 592.247C913.103 591.592 913.559 590.466 914.65 589.23L909.878 588.396C909.955 588.153 909.988 587.829 910.189 587.559C910.489 587.154 911.428 586.588 911.218 586.453C907.086 583.733 910.995 583.263 913.876 582.223C912.595 580.784 910.826 579.303 910.103 577.81C909.431 576.435 909.881 575.039 909.86 573.625L917.186 574.418C916.34 573.137 915.822 572.114 914.962 571.13C914.238 570.291 913.115 569.523 911.927 568.516C913.207 568.329 915.083 568.27 916.421 567.817C917.941 567.306 919.761 566.625 920.028 565.707C920.281 564.901 918.972 563.871 916.161 563.375C913.378 562.888 912.947 561.188 914.038 559.952C914.821 559.084 915.845 558.311 916.709 557.52C913.316 555.387 912.76 553.39 915.041 551.53L920.014 552.512C919.655 550.669 920.175 548.76 918.739 547.203C917.537 545.89 917.319 544.88 917.268 543.741C917.242 543.263 917.681 542.719 917.275 542.335C913.526 538.634 915.268 535.732 917.061 532.712C917.977 531.201 919.069 529.545 917.022 527.554C919.315 524.748 918.576 521.507 917.522 518.181C917.317 517.527 918.905 516.972 919.527 516.32C920.75 515.092 921.405 513.931 920.077 512.091C918.562 509.989 918.269 507.731 921.696 506.467C923.889 505.656 924.924 504.635 922.509 502.86C921.863 502.382 921.624 501.633 921.631 501.066C921.776 497.242 920.793 493.167 925.55 490.392C926.575 489.804 926.799 488.805 927.521 487.833C923.975 486.092 922.754 484.387 925.619 482.856C921.119 480.167 925.622 478.851 925.674 476.874L931.08 477.226C926.125 471.892 924.164 467.181 929.88 463.21L926.391 460.415C929.788 458.588 926.243 454.333 932.183 452.898C932.067 452.542 932.07 452.073 931.723 451.609C929.847 448.97 929.549 446.627 931.597 444.428C932.428 443.542 932.601 442.006 931.678 440.968C929.531 438.509 930.347 436.898 933.024 435.574C936.039 434.075 936.799 431.842 937.694 429.335C933.717 427.57 932.099 425.468 933.676 423.066C934.768 421.41 932.141 418.711 936.617 417.99C936.731 417.976 936.798 417.747 936.689 417.661C933.639 414.741 936.667 413.363 939.889 411.865C938.549 411.295 937.5 410.986 936.805 410.526C934.892 409.333 934.088 407.948 936.74 407.588C939.885 407.171 939.888 405.864 938.721 404.596C937.072 402.769 937.148 401.084 937.61 399.626C938.741 396.055 938.462 392.244 939.629 388.719C939.932 387.845 941.148 387.185 942.123 386.246C938.677 382.509 939.585 376.402 945.306 368.143C939.709 365.767 943.442 363.58 943.088 361.219C942.815 359.353 943.216 357.557 943.299 355.723C943.302 355.255 943.127 354.746 943.195 354.282C943.731 350.35 945.035 346.501 944.654 342.455C944.198 337.765 947.259 333.365 942.949 328.14C940.179 328.193 939.627 329.354 938.786 330.254C937.114 332.039 935.98 333.798 931.894 334.646C929.318 335.182 927.379 337.467 927.563 339.219C927.813 341.815 925.682 343.333 922.737 344.134C918.496 345.284 917.934 347.715 916.89 349.772C916.28 350.965 915.176 351.845 914.275 352.826C913.166 354.04 910.961 354.914 910.178 356.201C908.72 358.676 905.037 360.376 905.411 363.548C905.55 364.85 902.739 366.215 900.424 366.818C898.119 367.408 897.853 368.512 896.987 369.537C895.973 370.715 893.439 371.801 893.895 372.955C894.884 375.439 890.676 375.845 890.376 377.692C890.286 378.232 888.904 378.603 889.06 379.09C889.658 381.078 888.65 382.342 886.315 383.576C884.54 384.523 882.065 385.762 884.399 388.064C884.876 388.538 884.17 389.582 883.364 389.922C879.778 391.353 880.465 394.057 879.09 396.14C877.999 397.796 876.872 399.172 873.87 400.189C871.279 401.071 868.543 402.661 869.032 405.166C869.177 405.901 868.432 406.765 867.518 407.204C865.576 408.097 865.548 409.345 866.361 410.716C867.279 412.272 866.764 413.244 864.622 413.987C863.379 414.404 862.672 415.263 861.979 416.01C860.623 417.462 859.766 419.127 858.153 420.462C856.217 422.044 855.332 423.7 855.665 425.904C855.983 428.035 855.407 430.16 851.17 430.792C850.668 430.863 850.433 431.272 850.212 431.569C847.174 435.658 844.192 439.766 841.182 443.864C837.804 448.412 834.332 452.946 831.12 457.548C828.482 461.332 826.15 465.215 823.623 469.035C822.401 470.866 819.932 472.375 821.513 474.9C821.846 475.428 820.81 476.079 820.194 476.583C817.452 478.925 814.366 481.171 815.097 484.56C815.167 484.885 815.119 485.321 814.754 485.487C808.426 488.421 809.077 493.594 805.988 497.566C802.708 501.794 800.19 506.254 797.356 510.627C795.546 513.39 793.801 516.157 791.963 518.91C791.227 519.994 791.625 521.599 788.562 521.674C790.451 524.435 784.514 525.82 787.488 528.749C789.128 530.356 788.298 531.242 786.256 532.035C784.722 532.659 783.188 533.467 782.55 534.465C779.26 539.545 776.221 544.706 773.126 549.849C771.059 553.283 768.965 556.707 766.954 560.158C765.045 563.425 763.137 566.692 761.406 570C760.261 572.191 759.471 574.465 758.559 576.715C758.328 577.26 758.465 577.958 757.92 578.367C754.96 580.722 755.137 583.88 753.863 586.666C753.551 587.319 753.516 588.297 752.641 588.498C749.014 589.378 749.984 591.655 748.763 593.252C745.419 597.66 745.091 603.034 738.961 606.585C737.076 607.681 736.845 609.667 735.74 611.201C734.574 612.816 733.169 614.336 732.087 615.978C730.54 618.34 729.131 620.748 727.817 623.169C726.964 624.735 726.12 626.337 725.771 628.017C725.081 631.178 721.24 633.044 718.012 635.11C715.792 636.516 712.486 637.384 709.834 638.582C707.134 639.797 703.725 640.012 699.952 639.973C697.581 639.955 695.412 640.455 692.194 640.832C691.234 640.402 689.401 639.52 687.479 638.71C686.555 638.326 685.003 637.669 684.527 637.799C680.384 638.863 677.466 636.137 674 635.36C672.341 634.987 670.252 632.681 670.157 631.461C669.967 628.365 670.501 625.321 671.275 622.372C672.197 618.851 673.781 615.462 674.797 611.955C675.257 610.311 674.795 608.468 675.116 606.779C675.278 605.91 676.279 605.214 676.871 604.417C677.232 603.932 678.102 603.411 677.832 602.937C675.544 598.991 677.103 595.962 680.938 593.406C681.189 593.254 681.332 593.015 681.361 592.79C681.596 590.101 681.077 587.217 682.187 584.746C683.262 582.415 685.369 580.369 684.103 577.56C683.95 577.208 683.915 576.744 684.216 576.524C687.946 573.783 686.662 569.929 687.65 566.598C688.23 564.608 689.566 562.763 690.565 560.86C691.47 561.875 692.357 562.868 693.422 564.086C694.751 563.647 695.85 563.284 696.997 562.903C695.266 561.837 693.829 560.933 692.143 559.898L690.634 560.999C690.694 553.661 693.562 546.869 695.45 539.908C697.313 533.073 699.801 526.375 701.965 519.739L706.478 520.085C704.213 516.666 702.543 513.424 709.706 512.204C704.431 509.581 706.716 507.342 707.532 505.127C708.49 502.489 710.201 500.046 711.158 497.408C711.996 495.117 712.276 492.694 712.815 490.339C712.911 489.884 712.873 489.285 713.399 489.087C715.335 488.343 717.423 487.766 716.548 485.872C716.41 485.593 718.75 485.282 720.006 484.987C714.965 482.374 717.412 480.103 717.812 477.937C718.388 474.974 720.067 472.203 721.334 469.38C721.868 468.197 722.523 467.036 723.252 465.915C723.838 465.034 725.554 464.352 723.241 463.046C722.855 462.82 722.673 462.274 722.846 461.995C724.272 459.611 725.781 457.253 727.225 454.891C727.53 454.387 727.734 453.833 727.769 453.275C727.928 447.896 730.742 443.131 733.286 438.311C734.098 436.799 736.093 435.789 735.594 433.716C735.156 431.747 736.174 429.631 738.583 428.203C740.383 427.13 740.253 425.63 740.732 424.194C742.375 419.097 744.466 414.096 746.417 409.05C746.92 407.722 747.683 406.462 748.102 405.107C748.588 403.523 748.47 401.774 751.605 401.136C752.09 401.043 752.691 400.652 752.561 400.408C751.034 397.347 753.288 394.963 754.084 392.357C755.264 388.534 755.918 384.49 758.602 381.157C760.688 378.535 759.953 375.43 761.876 372.888C763.837 370.342 765.696 367.746 767.35 365.101C768.902 362.64 767.915 359.502 771.925 357.64C773.088 357.098 771.944 355.149 771.936 353.856C771.954 348.901 777.432 345.389 778.547 340.724C779.001 338.81 779.54 336.874 780.682 335.151C783.321 331.133 782.226 326.235 786.124 322.476C788.093 320.57 788.546 318.052 789.794 315.861C790.367 314.857 791.238 313.918 792.23 312.582C790.551 312.236 788.415 311.808 786.67 311.458C783.317 315.646 783.78 320.607 778.168 323.74C777.27 324.252 777.143 325.166 776.584 325.872C773.766 329.48 770.846 333.038 768.112 336.672C765.294 340.465 762.616 344.302 759.91 348.13C758.613 349.97 757.565 351.892 754.068 352.831C753.067 353.109 752.13 354.044 752.394 354.666C753.829 357.899 750.898 359.844 748.579 361.988C746.34 364.025 744.203 366.111 741.964 368.147C741.15 368.871 740.141 369.531 738.991 370.38C740.458 372.5 740.507 374.528 736.971 375.706C736.321 375.93 735.246 376.166 735.258 376.522C735.37 379.861 730.729 381.735 730.05 384.882C729.538 387.246 727.952 389.428 726.507 391.606C725.102 393.729 723.409 395.776 721.559 397.754C720.788 398.559 719.426 399.323 717.851 399.581C714.968 400.066 714.026 401.101 715.109 402.761C716.174 404.398 715.339 404.964 713.156 405.761C711.155 406.501 710.686 408.343 709.792 409.778C709.112 410.88 709.476 412.39 708.291 413.194C706.221 414.632 705.41 416.329 704.508 418.147C702.9 421.428 700.352 424.486 697.694 427.459C696.901 428.34 694.395 428.597 691.979 429.335C691.994 429.642 692.505 430.629 691.968 431.259C689.063 434.704 688.256 438.581 687.961 442.608C687.882 443.504 686.521 444.452 685.12 444.85C679.32 446.515 678.976 449.956 678.194 453.288C678.017 454.085 677.885 454.914 677.42 455.634C675.224 459.008 672.492 462.174 670.961 465.816C669.357 469.651 664.884 472.787 661.706 476.227C659.578 478.534 659.847 481.521 657.13 483.737C654.48 485.907 653.39 488.77 650.786 490.973C647.332 493.854 647.679 497.62 645.801 500.847C645.363 501.576 645.065 502.35 644.414 502.993C640.637 506.774 637.447 510.696 635.059 514.98C633.194 518.328 629.591 521.178 626.694 524.24C623.559 527.577 620.406 530.891 617.131 534.182C616.144 535.185 614.778 536.047 613.55 536.954C612.859 537.467 611.664 537.865 611.485 538.478C610.257 542.737 603.374 544.418 599.657 547.514C599.285 547.829 598.364 547.998 597.561 548.055C586.554 548.728 575.303 548.333 563.632 545.387C557.172 543.753 550.098 538.667 555.352 534.898C549.786 531.828 551.367 528.723 551.732 525.674C552.015 523.152 553.669 520.925 552.191 518.03C551.611 516.903 553.67 515.713 554.793 514.201C552.983 511.148 551.853 510.529 558.143 509.46C555.351 507.914 551.928 506.38 554.577 504.444C552.691 500.561 555.009 497.394 555.767 493.954C556.289 491.577 556.131 489.045 556.775 486.69C557.262 484.871 560.138 483.511 557.806 481.16C560.421 476.43 558.04 470.61 562.511 466.267C563.209 465.606 563.091 464.462 562.672 463.537C561.283 460.336 563.411 458.029 565.782 455.768C566.157 455.404 567.387 455.05 567.217 454.861C564.817 452.135 567.983 450.015 566.506 447.49C565.519 445.794 566.281 444.768 567.74 443.735C568.291 444.249 568.822 444.791 569.452 445.432C571.575 443.598 572.075 442.102 570.954 440.943C571.034 442.511 570.764 443.898 567.558 443.793C568.122 442.15 568.686 440.507 569.223 438.854C569.374 438.418 569.737 437.882 569.379 437.481C565.897 433.514 570.605 431.411 572.294 428.625C572.852 427.735 573.627 426.831 573.531 425.844C573.346 423.906 572.964 422.14 576.132 420.993C577.73 420.423 577.924 418.861 578.886 417.565L575.038 415.859C576.983 413.241 578.943 410.695 580.747 408.082C581.068 407.65 580.715 406.915 580.336 406.355C578.513 403.784 579.006 401.632 581.162 399.753C581.368 399.569 581.855 399.425 581.788 399.236C580.908 396 582.873 393.355 583.579 390.451C584.33 387.393 586.309 384.636 586.658 381.514C586.908 379.317 587.775 377.219 588.427 375.085C588.65 374.32 588.977 373.554 589.432 372.848C589.705 372.434 590.918 372.058 590.694 371.801C587.486 368.024 593.64 365.788 591.61 362.194C591.192 361.454 591.833 360.59 592.317 359.893C594.797 356.461 598.06 353.232 597.88 349.101C597.817 347.371 597.436 345.605 597.161 343.37C595.908 343.8 595.302 343.871 595.142 344.087C592.49 347.145 589.8 350.208 587.36 353.352C586.668 354.283 586.746 355.481 586.499 356.558C586.418 356.9 586.716 357.382 586.386 357.593C582.57 360.172 582.671 364.177 579.243 366.698C575.005 369.843 574.2 373.905 571.1 377.286C569.426 379.121 567.326 380.784 565.819 382.673C562.266 387.131 556.957 391.067 556.662 396.535C556.627 397.093 556.087 397.588 555.633 398.06C553.923 399.85 551.543 401.471 550.615 403.465C549.656 405.5 548.973 407.489 547.148 409.342C544.79 411.725 544.153 414.769 542.45 417.433C541.7 418.63 540.132 419.577 539.307 420.314C538.213 422.857 537.646 425.203 536.205 427.282C534.985 429.063 532.781 430.541 531.033 432.151C530.827 432.335 530.413 432.519 530.48 432.708C531.689 436.152 526.752 437.913 526.274 440.976C525.969 442.921 523.228 444.425 521.644 446.138C520.594 447.271 519.292 448.373 518.792 449.651C517.254 453.675 516.285 457.818 512.198 461.18C510.888 462.245 511.649 464.152 510.891 465.497C507.648 471.212 504.387 476.905 500.688 482.488C499.263 484.639 496.465 486.359 494.584 488.378C493.535 489.511 493.06 490.848 492.484 492.135C491.908 493.423 491.686 494.792 491.026 496.052C490.192 497.64 489.041 499.143 488.012 500.668C487.561 501.275 487.399 502.144 486.474 502.413C480.794 504.15 481.402 507.75 480.532 510.97C479.945 513.108 478.668 515.106 477.485 517.117C475.322 520.821 473.019 524.479 470.772 528.155C469.756 529.802 468.939 531.413 466.61 532.733C464.118 534.134 462.713 536.257 461.745 538.305C459.361 543.328 455.652 547.902 451.275 552.259C447.292 556.225 443.392 560.218 437.911 563.595C432.603 566.878 425.112 568.075 416.665 567.302C412.241 566.884 407.413 566.217 402.853 565.47C398.75 564.804 394.621 562.873 390.826 561.235C389.099 560.488 387.664 559.116 386.926 557.97C385.043 555.061 383.387 552.125 384.371 549.312C384.575 548.758 384.905 548.128 384.526 547.569C382.198 544.095 384.499 541.51 386.064 538.751C386.515 537.959 386.673 536.955 386.271 536.053C384.072 531.197 384.711 526.662 385.461 522.163C386.032 518.696 386.808 515.278 387.622 511.856C388.281 509.154 390.256 507.752 394.129 507.053C388.198 504.149 388.008 501.054 389.342 498.002C389.804 496.963 390.501 496.117 390.082 494.774C389.655 493.395 391.352 492.087 392.413 490.287C389.862 487.998 390.102 485.395 391.386 482.83C391.923 481.781 391.865 480.556 392.086 479.421C392.221 478.727 391.796 477.717 392.517 477.399C395.305 476.111 395.528 474.508 393.47 472.346C393.219 472.08 394.125 471.604 394.324 471.384C396.076 471.77 398.326 472.603 398.958 472.357C400.798 471.649 399.501 470.137 397.738 469.579C393.822 468.338 394.379 466.843 394.325 465.334C394.261 463.419 394.741 461.564 394.404 459.645C393.947 457.049 395.361 455.565 400.792 455.792C399.818 455.055 398.666 454.513 398.592 454.053C398.153 450.876 397.862 447.731 397.741 444.591C397.691 443.402 398.832 442.332 398.472 441.142C397.599 438.176 401.207 436.251 400.799 433.403C400.405 430.677 405.777 428.889 400.973 425.213C403.151 424.934 404.788 424.73 406.626 424.49C406.366 424.187 406.213 423.836 405.82 423.574C405.1 423.054 403.526 422.475 403.579 422.123C403.967 419.183 402.229 415.985 404.18 413.219C405.839 410.893 407.386 408.346 407.252 405.688C407.11 402.994 407.204 400.728 411.988 399.638C405.262 394.548 409.922 391.021 411.751 387.209C412.238 386.228 412.362 385.363 412.409 384.322C412.543 379.723 413.078 375.188 413.8 370.68C414.204 367.996 415.065 365.394 415.917 362.805C416.568 360.905 417.806 359.146 418.27 357.219C418.664 355.571 418.462 353.796 418.306 352.052C418.213 351.201 418.003 350.646 419.67 350.217C420.832 349.908 420.819 348.53 421.173 347.589C422.125 345.05 419.4 341.833 422.772 339.713C423.228 339.426 422.301 338.487 422.429 337.942C422.912 335.803 423.637 333.71 424.148 331.58C424.481 330.247 424.835 328.887 424.832 327.495C424.83 324.847 428.066 322.817 426.233 319.84C426.172 319.736 426.245 319.592 426.371 319.516C431.616 316.782 428.417 312.154 429.973 308.572C430.96 306.312 430.448 303.698 430.97 301.321C431.209 300.208 431.807 298.845 433.242 298.356C436.347 297.34 435.828 295.712 435.686 293.856C435.379 289.617 435.793 285.477 438.009 281.657C438.589 280.69 437.998 279.391 438.199 278.283C438.343 277.392 438.99 276.614 439.19 275.74C439.724 273.299 440.147 270.823 440.598 268.355C440.97 266.18 441.275 264 441.692 261.253C439.955 262.799 439.289 264.627 437.268 264.974C433.986 265.531 434.571 267.163 433.585 268.35C433.086 268.976 433.31 269.837 432.94 270.521C432.008 272.195 430.954 273.846 429.9 275.497C427.142 279.862 424.634 284.307 421.559 288.586C417.993 293.525 413.909 298.279 410.12 303.146C409.679 303.74 409.721 304.474 409.391 305.104C408.981 305.842 408.854 306.991 407.847 307.182C401.929 308.356 403.975 312.022 402.328 314.519C402.027 314.924 402.124 315.492 401.64 315.77C400.085 316.655 397.929 317.277 396.743 318.315C395.536 319.381 396.023 321.098 392.653 321.308C391.85 321.365 391 322.881 391.502 323.229C396.951 327.014 392.382 329.163 390.004 331.155C386.578 334.045 385.706 337.498 384.199 340.829C383.07 343.327 382.311 345.929 381.376 348.491C381.267 348.824 381.136 349.233 380.705 349.395C375.666 351.106 376.119 354.404 375.116 357.43C373.963 360.842 371.124 363.873 368.993 367.067C368.569 367.684 367.744 368.236 367.723 368.916C367.637 371.218 367.374 373.294 362.977 374.142C361.847 374.361 362.103 375.969 361.636 376.923C360.551 379.268 360.187 381.898 358.168 383.872C354.139 387.806 355.928 393.4 350.23 396.79C350.644 399.909 346.122 400.598 343.176 401.633C343.319 403.255 343.771 404.693 343.496 405.994C342.808 409.34 339.483 411.861 337.244 414.735C335.226 417.313 330.834 419.503 333.626 422.49C332.516 424.542 331.719 425.942 330.987 427.346C330.699 427.872 330.787 428.638 330.116 428.889C324.764 430.884 325.644 434.724 324.735 437.947C324.317 439.487 323.999 440.892 322.093 441.83C319.04 443.333 318.186 445.368 317.914 447.827C317.513 451.484 316.873 455.231 311.63 457.496C311.217 457.68 311.03 458.071 310.958 458.4C310.419 461.778 307.414 464.52 306.587 467.82C306.505 468.162 306.917 468.632 306.717 468.902C304.037 472.37 301.012 475.743 298.583 479.292C296.707 482.05 294.178 484.663 293.04 487.543C290.712 493.422 286.305 498.658 282.947 504.201C280.852 507.625 278.849 511.113 274.672 513.758C269.428 517.095 263.716 519.945 253.257 518.902C247.147 518.287 241.112 518.501 235.621 518.355C233.185 517.076 231.291 515.856 229.064 514.946C224.32 513.049 223.141 510.822 223.705 508.341C223.772 508.111 223.755 507.854 223.934 507.661C226.474 504.985 226.019 501.737 225.966 498.552C225.948 497.272 226.421 495.985 227.177 494.873C229.604 491.189 230.238 487.172 230.866 483.069C231.539 478.813 233.716 474.813 235.464 470.739C236.453 468.43 237.825 466.212 239.158 463.998C239.699 463.084 240.639 462.284 241.356 461.412C241.667 460.993 242.139 460.544 242 460.08C240.524 455.04 243.489 450.911 245.454 446.59C246.587 444.042 248.007 441.572 249.4 439.092C249.585 438.75 250.13 438.341 250.696 438.324C254.777 438.229 254.485 436.759 253.942 434.839C252.975 431.441 252.75 428.116 255.261 425.247C256.433 423.902 257.312 422.579 256.703 420.654C256.204 419 258.119 417.445 259.047 415.87C259.465 415.168 260.368 414.557 260.515 413.801C261.201 410.505 261.627 407.14 262.257 403.826C262.439 402.93 262.717 401.998 263.465 401.27C265.178 399.615 269.464 398.731 266.333 395.734C266.107 395.527 266.572 395.041 266.985 394.857C270.219 393.295 269.802 391.065 269.427 388.546C269.211 387.068 270.573 385.467 270.93 383.823C271.597 380.739 271.727 377.261 274.477 374.956C277.804 372.151 275.962 368.35 278.697 365.553C279.724 364.496 278.049 362.191 279.396 361.541C283.842 359.418 279.619 354.959 284.43 353.09C284.535 353.041 284.562 352.865 284.501 352.761C281.754 347.945 286.893 344.842 288.21 340.93C290.378 334.429 292.574 327.937 295.151 321.536C297.221 316.378 299.933 311.378 302.263 306.288C303.066 304.555 303.404 302.704 304.17 300.976C304.883 299.364 306.034 297.862 306.681 296.246C307.357 294.639 307.26 292.814 308.186 291.289C309.64 288.913 308.626 285.952 311.675 283.894C313.278 282.807 314.063 281.052 313.928 279.466C313.713 276.731 314.812 274.508 316.888 272.318C318.47 270.654 318.439 268.415 319.345 266.498C320.388 264.256 321.682 262.096 322.864 259.9C323.204 259.257 323.665 258.636 323.8 257.942C324.895 252.467 326.345 247.073 330.986 242.5C329.332 238.492 334.472 235.993 334.534 232.56C334.585 227.7 338.733 224.023 339.905 219.561C340.837 216.026 343.024 212.85 345.36 209.706C346.122 208.68 347.817 207.422 345.401 205.696C339.993 207.438 337.618 210.403 334.92 213.244C334.031 214.162 332.299 214.771 331.327 215.661C329.827 216.983 328.473 218.386 327.381 219.857C324.333 223.959 320.262 227.578 314.488 230.558C312.03 231.819 310.038 233.617 309.217 235.512C307.569 239.266 302.395 241.486 299.556 244.702C298.018 246.447 295.255 247.793 295.898 250.231C296.011 250.637 295.251 251.009 294.849 251.364C292.572 253.405 290.306 255.433 288.011 257.451C282.611 262.162 277.117 266.859 271.799 271.597C270.809 272.464 270.065 273.512 269.874 274.607C269.553 276.714 268.269 278.257 264.75 279.039C263.38 279.347 261.841 280.069 261.702 280.862C261.146 283.983 257.445 285.895 254.927 288.259C251.78 291.24 247.613 293.872 245.403 297.125C242.974 300.674 238.794 303.369 235.397 306.453C232.196 309.366 229.466 312.483 226.339 315.436C222.975 318.615 219.538 321.753 215.777 324.768C213.15 326.862 210.054 328.704 208.811 331.4C208.155 332.795 205.574 333.664 204.376 334.95C200.043 339.573 196.928 344.743 191.37 348.782C187.165 351.837 185.916 356.123 179.688 358.319C177.871 358.951 177.154 360.427 176.095 361.574C173.037 364.852 170.091 368.166 167.006 371.435C162.417 376.31 158.855 381.569 152.333 385.697C151.568 386.168 151.208 386.839 150.701 387.428C144.773 394.012 139.095 400.677 132.881 407.134C130.057 410.052 125.908 412.472 122.843 415.296C120.072 417.863 117.957 420.71 115.51 423.399C115.103 423.853 114.4 424.194 113.938 424.631C112.34 426.038 110.972 427.553 109.189 428.883C105.291 431.804 101.226 434.67 97.1256 437.491C96.61 437.86 95.3451 437.934 94.3453 437.977C87.4678 438.302 80.7609 437.978 73.6641 435.248C70.6294 434.076 66.9576 433.668 63.8675 432.058C57.4289 428.721 56.6475 425.4 62.5303 423.343C65.9455 422.143 70.1666 421.439 73.0019 419.949C78.1334 417.229 84.0332 414.591 86.8136 410.988C90.0027 406.881 96.4012 404.456 99.9455 400.616C103.48 396.789 108.773 393.619 113.076 390.059C114.632 388.756 115.31 387.099 116.848 385.773C120.278 382.784 124.152 379.989 127.509 376.96C130.069 374.676 131.468 371.863 134.525 369.842C138.039 367.483 139.686 364.383 143.849 362.269C146.259 361.026 146.73 358.716 148.509 357.066C152.104 353.762 156.153 350.638 159.702 347.303C162.061 345.104 164.162 342.788 165.798 340.354C166.787 338.883 169.412 339.956 169.745 339.88C170.627 337.854 170.547 336.102 172.013 335.105C173.908 333.811 174.49 332.19 175.805 330.792C177.673 328.836 179.929 326.822 183.138 325.621C185.015 324.908 185.797 324.274 186.667 323.15C189.567 319.385 190.735 315.022 196.419 312.163C199.01 310.862 200.152 308.719 202.176 307.065C205.569 304.265 206.988 300.588 210.993 298.221C215.473 295.541 215.976 291.699 219.458 288.827C221.61 287.047 224.02 285.385 226.088 283.578C227.734 282.153 229.216 280.624 230.454 279.05C231.713 277.449 231.7 275.232 233.737 274.119C241.701 269.773 243.635 263.029 251.209 258.557C253.744 257.052 254.455 254.653 258.78 253.949C259.68 253.807 259.244 252.207 259.537 250.743L266.961 247.077C264.392 245.184 265.803 243.75 267.012 242.216C272.089 235.707 277.999 229.52 285.473 223.926C286.351 223.256 286.555 222.284 287.341 221.551C289.504 219.523 291.503 217.392 294.182 215.599C297.687 213.255 299.466 210.348 301.728 207.582C306.684 201.469 312.749 195.818 320.393 190.832C323.702 188.658 326.302 186.321 327.192 183.309C327.4 182.656 327.762 181.936 328.581 181.532C334.718 178.435 337.724 174.017 342.068 170.17C345.177 167.428 348.627 164.83 351.921 162.165C352.117 161.994 352.507 161.887 352.85 161.798C360.428 160.159 363.952 156.345 368.099 152.903C370.613 150.822 374.938 151.141 379.33 151.465C380.183 151.525 381.473 152.162 381.873 152.041C387.24 150.169 391.928 153.908 396.952 154.588C397.86 154.716 398.832 155.687 399.614 156.31C400.131 156.73 400.128 157.432 400.745 157.717C407.494 160.87 405.481 163.533 403.8 166.539C400.581 172.362 398.066 178.398 395.246 184.335C394.85 185.195 394.887 186.447 393.76 186.801C390.132 187.915 389.991 189.78 390.272 192.101C390.47 193.556 388.952 194.855 388.174 196.228C387.949 196.624 387.262 197.037 387.499 197.416C388.957 199.919 387.15 201.794 386.174 203.805C382.903 210.534 380.643 217.625 375.674 223.8C371.873 228.546 371.596 234.036 368.304 238.747C366.139 241.846 366.121 245.36 364.351 248.488C362.51 251.709 360.232 254.822 358.624 258.103C355.98 263.477 353.931 269.028 351.259 274.392C348.969 279.01 346.085 283.451 343.618 288.027C342.693 289.737 342.289 291.584 341.531 293.348C338.555 300.239 335.485 307.117 332.564 314.026C330.875 318.068 329.436 322.192 327.868 326.257C327.706 326.707 327.674 327.216 327.271 327.571C323.292 330.834 323.759 335.276 321.568 338.971C319.792 342.013 318.102 345.032 316.912 348.215C315.98 350.727 315.102 353.257 313.881 355.691C312.725 357.946 308.41 359.055 310.685 362.645C312.153 364.95 309.559 367.558 308.461 369.966C306.461 374.426 304.145 378.801 302.127 383.238C301.049 385.619 300.204 388.059 299.471 390.536C297.874 395.848 295.165 400.798 291.428 405.548C289.169 408.45 289.479 412.221 288.667 415.593C288.376 416.823 288.373 418.129 287.849 419.299C286.305 422.634 283.602 425.76 283.132 429.277C282.793 431.781 282.9 434.196 280.53 436.223C279.932 436.749 281.87 438.235 281.561 439.023C280.356 442.133 279.048 445.244 277.127 448.155C275.753 450.238 274.504 452.245 274.151 454.627C273.566 458.392 271.879 461.965 270.688 465.617C270.521 466.166 270.355 466.715 269.969 467.98C271.617 467.344 273.009 467.144 273.065 466.743C273.462 462.347 279.293 459.569 280.014 455.296C284.041 453.691 282.565 450.512 284.166 448.218C286.311 445.145 286.874 441.641 290.091 438.8C292.895 436.328 293.935 433.114 295.714 430.207C295.96 429.784 295.744 429.144 296.235 428.901C302.77 425.549 301.113 419.73 304.796 415.516C306.207 413.897 307.557 412.359 311.857 412.2C305.573 407.305 311.207 404.514 313.507 401.324C315.254 398.927 319.088 397.209 321.334 395.627C321.517 393.474 321.09 391.676 321.9 390.214C323.047 388.157 325.106 386.364 326.746 384.434C326.947 384.164 327.453 383.809 327.237 383.588C325.278 381.526 327.073 380.133 328.027 378.616C331.078 373.811 332.151 368.412 337.517 364.26C339.371 362.835 340.215 360.814 340.566 358.9C341.513 353.577 346.675 349.56 349.497 344.831C351.658 341.177 352.881 337.251 354.959 333.57C356.207 331.378 357.986 329.31 360.041 327.381C362.322 325.241 364.449 323.168 364.923 320.39C365.244 318.516 366.989 316.772 368.991 315.379C370.44 314.359 371.305 313.568 370.377 312.026C369.913 311.255 370.302 310.359 370.702 309.634C372.079 307.083 373.003 304.35 375.24 302.129C378.563 298.82 379.361 294.722 384.413 291.876C387.532 290.143 387.88 286.837 389.112 284.154C389.656 282.957 389.649 282.083 392.673 281.828C394.44 281.682 395.768 279.383 395.381 277.95C394.427 274.488 396.646 272.06 399.243 269.587C400.167 268.715 400.51 267.603 400.971 266.563C401.273 265.924 400.945 265.063 401.551 264.573C405.266 261.526 405.323 257.354 408.647 254.23C409.423 253.511 411.392 253.28 413.34 252.658C411.677 247.825 414.417 243.438 417.565 239.201C419.129 237.096 421.566 235.258 423.074 233.134C424.974 230.485 426.122 227.59 427.965 224.922C431.229 220.203 434.837 215.579 438.241 210.905C440.266 208.179 441.37 205.203 444.197 202.655C445.561 201.423 445.499 199.274 446.608 197.641C449.454 193.439 451.955 189.141 454.8 184.939C457.462 181.03 460.431 177.22 463.094 173.31C464.123 171.785 465.389 170.22 465.4 168.53C465.401 165.179 467.194 162.813 472.947 161.954C474.302 161.759 475.416 161.283 476.864 161.52C479.77 161.796 482.676 162.072 485.564 162.325C490.018 162.703 494.488 163.153 497.753 165.691C500.208 167.597 503.797 169 505.163 171.489C506.153 173.32 506.144 174.541 504.742 175.777C500.925 179.193 498.94 183.122 497.266 187.237C495.199 192.346 497.029 198.07 494.701 203.111C492.533 207.751 490.802 212.501 488.978 217.236C487.526 221.004 486.429 224.854 484.923 228.603C483.005 233.325 483.774 238.57 480.848 243.114C479.663 244.941 479.957 247.199 479.412 249.234C478.568 252.277 478.327 255.534 476.489 258.287C473.478 262.804 473.912 267.99 472.153 272.731C471.263 275.139 472.021 277.933 468.756 279.77C468.109 280.129 468.713 281.13 468.671 281.837C468.437 285.549 468.43 289.234 465.618 292.508C463.957 294.464 464.49 297.236 464.305 299.672C464.036 303.104 464.478 306.651 463.734 309.978C462.819 313.954 460.962 317.757 459.468 321.629C457.781 326.04 456.253 330.47 455.479 335.095C454.474 341.053 452.489 346.842 450.794 352.659C449.58 356.806 448.124 360.907 446.844 365.049C446.313 366.787 445.904 368.547 445.41 370.515L440.609 371.348C441.44 372.323 441.927 373.202 442.846 373.92C445.793 376.187 445.648 378.151 444.5 380.208C443.435 382.107 442.964 384.182 442.243 386.177C441.617 387.95 441.018 389.733 440.364 391.498C439.787 393.019 438.479 394.454 438.68 396.044C439.005 398.631 437.286 400.2 433.354 400.981C434.423 403.357 435.425 405.543 436.407 407.757C436.561 408.109 436.879 408.564 436.671 408.798C434.066 411.654 435.104 415.327 433.025 418.405C431.512 420.627 430.182 423.395 432.281 426.525C433.136 427.793 433.016 429.212 432.79 430.445C431.908 434.75 431.22 439.119 429.63 443.26C427.89 447.789 428.665 452.7 427.74 457.343C426.777 462.175 425.534 466.966 424.189 471.707C423.447 474.381 424.398 477.473 421.112 479.571C420.636 479.885 421.23 480.715 421.296 481.323C421.534 483.563 421.983 485.703 420.484 487.813C419.004 489.946 419.618 492.794 419.868 495.389C420.075 497.669 420.381 499.863 418.887 501.874C418.165 502.846 418.18 504.175 418.568 505.374C419.327 507.749 418.441 509.64 415.88 511.085C414.287 511.974 414.212 513.006 415.3 514.332C416.844 516.209 416.13 517.636 414.367 518.939C413.529 519.554 412.994 520.553 413.257 521.41C414.91 526.675 414.598 531.701 414.846 536.81C414.948 539.139 415.648 541.546 416.253 544.827C418.942 543.021 420.969 541.921 422.487 540.622C426.023 537.584 429.486 534.505 432.625 531.303C434.47 529.424 435.706 527.295 437.088 525.248C440.57 520.097 444.051 514.946 447.449 509.767C449.279 506.977 450.998 504.152 452.773 501.344C455.236 497.47 457.755 493.614 460.162 489.722C461.524 487.517 462.486 485.199 463.958 483.031C465.238 481.168 466.751 479.365 470.538 478.687C471.259 478.553 471.785 478.172 472.298 477.853C474.48 476.451 474.297 475.721 471.536 473.901C472.538 471.947 473.262 470.088 474.386 468.343C476.229 465.49 478.378 462.737 480.22 459.885C481.342 458.188 482.484 456.465 483.019 454.628C484.68 449.136 489.434 444.784 495.106 440.731C495.679 440.332 496.234 439.725 496.042 439.193C494.334 434.094 498.472 430.431 501.251 426.458C501.774 425.707 503.411 425.318 504.799 424.614C503.791 422.341 503.01 420.042 507.751 418.871C509.322 418.478 509.619 416.496 509.493 415.131C509.193 412.184 511.636 410.432 515.603 409.093C514.38 407.203 514.247 405.567 517.546 404.664C518.499 404.404 518.586 403.31 518.705 402.544C519.262 399.189 521.547 396.346 523.462 393.35C526.869 387.973 532.292 383.186 533.795 377.022L536.796 378.099C537.961 377.322 538.443 376.44 537.786 374.952C537.239 373.735 537.209 372.1 538.382 371.359C541.155 369.58 542.125 367.298 543.299 365.066C544.276 363.239 544.879 361.357 547.995 360.327C549.094 359.964 550.016 359.141 550.022 358.389C550.02 353.646 555.259 350.642 558.476 346.963C558.983 346.374 559.557 345.74 559.579 345.06C559.63 341.222 563.085 338.525 566.19 335.648C567.949 334.025 569.676 332.258 570.254 330.318C570.965 327.918 574.046 327.027 576.294 326.234C576.551 324.307 576.011 322.522 577.1 321.335C580.469 317.638 583.63 313.941 585.143 309.624C586.087 306.864 588.784 304.491 590.808 301.999C592.86 299.516 594.939 297.043 597.259 294.664C598.236 293.675 599.907 292.962 601.096 292.058C601.828 291.492 602.311 290.795 602.757 290.102C604.108 287.911 605.209 285.638 606.7 283.492C609.688 279.236 614.333 275.637 618.848 271.978C620.344 270.756 620.852 269.095 621.887 267.655C622.929 266.251 623.569 264.599 625.311 263.558C627.818 262.044 630.531 260.95 636.18 262.186C640.972 263.227 646.142 263.386 651.203 264.715C657.278 266.308 661.627 269.434 660.577 272.661C659.723 275.3 657.453 277.611 655.947 280.104C655.256 281.219 654.761 282.399 654.424 283.596C653.607 286.464 653.227 289.441 652.177 292.25C651.097 295.1 650.685 298.167 647.151 300.318C646.822 300.529 646.819 300.998 646.973 301.349C649.357 306.701 645.16 310.815 644.174 315.539C643.688 317.961 642.986 320.347 641.969 322.647C640.55 325.906 638.704 329.042 637.202 332.274C636.721 333.341 636.882 334.566 636.577 335.674C636.078 337.556 635.662 339.465 634.781 341.257C634.583 341.662 632.73 341.645 632.227 341.716C631.653 345.048 631.566 348.422 630.361 351.533C629.527 353.725 627.465 355.617 629.528 358.284C629.777 358.6 629.679 359.104 629.359 359.302C623.693 362.602 624.838 367.667 623.284 372.039C622.583 374.006 622.335 376.154 620.938 377.895C617.249 382.442 618.106 388.034 615.274 392.777C613.768 395.27 612.308 397.794 611.454 400.432C608.785 408.63 606.498 416.919 603.895 425.122C603.205 427.261 601.752 429.218 600.996 431.351C599.909 434.35 599.242 437.434 598.239 440.459C597.641 442.242 596.463 443.92 595.986 445.726C594.127 452.88 592.334 460.04 590.811 467.253C590.105 470.577 590.165 474.032 589.73 477.41C589.604 478.324 589.083 479.21 588.492 480.007C586.366 482.868 586.845 486.225 586.353 489.4C585.673 493.804 584.721 498.203 583.034 502.381C582.185 504.501 580.83 506.372 583.056 508.958L579.011 509.936C580.182 510.686 581.865 511.352 581.972 511.906C582.411 514.06 582.484 516.196 582.463 518.317C582.444 520.809 582.2 523.277 582.069 525.966C587.169 526.219 587.986 523.77 589.481 522.363C595.204 516.986 600.149 511.306 605.141 505.657C607.035 503.525 607.92 501.031 609.926 498.936C611.063 497.731 611.602 496.029 615.01 495.815C615.699 495.771 615.956 494.681 615.967 494.015C616.196 489.799 618.793 486.303 621.887 482.836C624.783 479.589 627.985 476.442 629.588 472.656C631.422 468.326 635.332 464.505 638.41 460.362L642.846 461.37L640.902 456.681C643.969 453.624 643.727 448.785 652.075 447.783C651.253 446.61 649.855 445.468 650.088 444.689C650.345 443.784 651.948 443.116 653.227 442.51C654.036 442.12 655.83 442.218 656.34 441.764C657.538 440.662 656.61 439.958 653.146 440.154C655.081 437.549 656.813 435.264 658.5 432.948C659.091 432.151 659.255 431.233 659.902 430.455C660.421 429.802 661.274 429.259 662.044 428.688C662.58 428.293 663.911 427.989 663.788 427.597C662.549 423.774 667.625 421.874 669.505 419.017C670.184 417.964 671.558 417.138 672.038 415.887C672.424 414.856 674.691 414.27 676.35 413.386L673.32 412.533C674.794 410.549 676.166 408.516 677.779 406.577C679.51 404.526 680.676 402.073 683.6 400.696C686.476 399.336 683.787 395.745 689.968 396.032C688.208 393.749 688.074 391.929 689.839 390.157C692.599 387.419 694.721 384.423 696.972 381.486C698.005 380.096 699.535 379.153 703.05 379.493C698.016 373.01 707.05 371.829 712.452 369.163C707.478 366.135 709.886 363.685 711.72 361.634C714.764 358.234 719.041 355.269 722.789 352.132C723.445 351.575 725.206 351.344 723.267 350.092C722.636 349.686 723.241 348.592 723.694 347.935C726.685 343.63 730.402 339.511 732.668 335.019C733.889 332.584 735.752 330.727 738.555 328.908C741.107 327.242 742.371 324.888 743.211 322.363C744.323 319.004 748.371 316.3 751.097 313.283C751.92 312.361 752.99 311.385 752.992 310.313C752.967 308.16 754.336 306.829 757.641 306.614C758.002 305.291 757.742 303.966 758.682 303.166C763.945 298.779 766.696 293.541 770.533 288.656C773.91 284.342 778.065 280.332 780.971 275.814C784.048 271.068 787.511 266.313 793.962 262.748C795.545 261.873 796.044 260.41 796.901 259.163C797.192 258.772 796.728 258.001 797.217 257.808C801.347 256.203 800.776 253.017 803.024 250.783C805.437 248.418 807.851 246.053 810.237 243.679C813.489 240.464 815.595 236.792 820.566 234.288C820.897 229.468 826.603 226.533 830.51 222.995C833.445 220.348 836.954 217.904 841.938 216.778C848.209 218.2 853.973 219.607 859.765 220.79C866.22 222.104 867.81 223.174 869.726 226.597C871.711 230.16 871.253 232.776 867.449 235.292C864.324 237.358 862.899 240.346 861.427 243.119C859.205 247.272 857.616 251.598 855.645 255.834C854.884 257.463 853.675 258.997 852.97 260.644C852.351 262.035 852.17 263.535 851.729 264.966C851.429 265.975 851.552 267.205 850.586 267.946C846.314 271.231 844.329 275.16 843.494 279.447C843.322 280.33 842.544 281.099 842.064 281.931C841.509 282.957 840.211 283.959 840.568 285.014C842.235 289.982 838.471 293.7 835.803 297.524C834.052 300.021 831.265 302.097 830.744 305.078C830.225 308.009 828.222 310.659 826.854 313.431C824.092 318.917 821.451 324.426 818.466 329.84C817.266 332.013 818.434 334.908 814.353 336.26C813.942 336.395 814.527 337.189 814.487 337.662C814.285 340.261 813.259 342.524 811.052 344.705C808.638 347.07 808.093 350.177 806.78 352.968C806.271 354.025 805.789 355.092 805.336 356.168C804.576 357.982 803.899 359.823 803.084 361.619C801.712 364.675 800.312 367.722 798.764 370.738C797.989 372.245 796.732 373.612 795.846 375.084C794.84 376.717 793.945 378.387 793.116 380.061C791.096 384.129 789.01 388.193 787.139 392.293C785.532 395.759 785.231 399.7 782.412 402.704C777.831 407.615 778.009 413.656 774.576 418.789C773.364 420.607 773.902 422.86 771.577 424.5C770.294 425.39 770.855 427.148 770.633 428.517C770.498 429.21 770.899 430.112 770.276 430.579C766.177 433.77 767.153 438.412 763.621 441.77C762.519 442.835 762.757 444.422 762.348 445.763C761.708 447.834 763.139 450.328 760.416 452.039C759.563 452.583 760.202 453.863 760.093 454.8C760.024 455.498 760.168 456.282 759.663 456.822C755.744 461.027 753.92 465.762 753.072 470.765C752.928 471.657 752 472.394 751.735 473.263C751.3 474.546 751.146 475.87 750.86 477.185C750.703 477.955 750.723 478.766 750.277 479.459C747.527 483.859 746.109 488.56 744.848 493.328C743.871 497.015 742.017 500.535 740.648 504.145C738.117 510.762 735.642 517.397 733.139 524.024C732.945 524.564 732.387 525.036 732.165 525.567C731.14 527.831 729.384 530.008 729.36 532.413C729.295 537.387 726.849 541.702 724.002 545.954C723.701 546.359 722.996 546.749 723.185 547.146C724.997 550.988 721.786 553.914 721.293 557.323C720.804 560.633 721.777 564.302 718.087 566.989C717.084 567.735 717.981 569.318 717.751 570.466C717.323 572.623 716.914 574.803 712.59 575.691C714.268 577.108 714.976 578.714 714.097 580.455C712.831 583.043 712.17 585.794 711.425 588.518C711.222 589.257 711.55 590.118 712.103 591.002C715.601 587.783 718.833 584.595 720.002 580.602C720.773 577.936 723.25 575.625 725.027 573.187C725.478 572.58 726.882 572.132 726.778 571.528C726.228 568.5 729.342 566.447 730.373 563.85C731.33 561.446 733.393 559.319 734.926 557.07C735.956 555.545 737.172 554.047 737.802 552.408C738.531 550.45 739.598 548.921 744.712 549.899C741.312 546.194 743.359 543.626 745.218 541.03C745.942 540.009 747.094 539.11 747.706 538.052C750.8 532.725 753.449 527.252 756.97 522.046C758.736 519.437 760.35 516.845 761.595 514.1C762.056 513.06 764.966 512.633 767.151 511.786C762.8 509.732 764.289 508.24 766.011 506.387C768.28 503.891 769.355 500.956 771.004 498.225C772.52 495.718 774.342 493.312 778.023 491.661C778.59 491.41 779.291 490.884 779.052 490.555C776.745 487.239 780.329 485.44 782.164 483.155C782.952 482.188 782.211 480.254 783.495 479.968C787.472 479.034 785.75 476.747 786.634 475.091C788.696 471.153 791.083 467.288 793.822 463.554C794.564 462.555 797.153 462.141 799.348 461.7C800.645 460.279 801.006 458.77 799.928 456.592C798.96 454.685 801.486 452.541 803.259 450.806C804.588 449.529 807.174 448.745 809.38 447.637C806.009 444.963 806.472 442.852 809.016 440.73C812.079 438.141 811.621 434.338 815.532 431.958C816.984 431.074 818.171 430.035 819.913 428.759C818.262 425.121 821.587 422.366 824.515 419.447C825.648 418.341 825.571 416.724 826.85 415.699C829.614 413.515 829.898 410.574 832.344 408.304C833.043 407.643 833.477 407.617 835 407.66C836.42 407.704 837.441 406.561 838.907 405.798C833.306 401.846 837.461 399.277 840.387 397.012C842.759 395.17 842.977 392.224 847.943 391.495C848.331 391.437 847.566 390.048 847.275 388.998L851.713 389.723C851.895 389.245 852.299 388.841 852.12 388.43C849.706 383.119 853.028 379.206 856.903 375.34C859.831 372.422 862.111 369.259 864.688 366.21C868.2 362.04 870.062 357.3 875.242 353.724C876.963 352.525 878.458 351.302 878.006 349.446C877.936 349.121 878.29 348.784 878.566 348.505C880.831 346.108 883.049 343.68 885.453 341.329C889.75 337.08 894.057 332.817 898.623 328.673C899.585 327.796 901.656 327.381 904.226 326.341C905.12 324.068 906.71 321.183 910.002 318.752C912.514 316.905 913.956 314.593 915.952 312.511C916.585 311.845 917.204 311.058 918.321 310.718C924.069 308.936 927.297 305.847 931.37 303.202C939.76 297.771 957.711 298.824 968.62 304.89C973.386 307.548 975.893 311.012 976.304 314.414C976.922 319.677 978.3 324.986 978.009 330.171C977.658 336.878 978.121 343.699 977.994 350.429C977.974 352.551 977.139 354.558 976.762 356.648C976.235 359.543 975.466 362.393 975.379 365.348C975.277 368.835 974.601 372.118 972.857 375.304C971.707 377.41 972.285 380.028 972.42 382.452C972.802 388.358 973.231 394.247 970.185 399.557C969.94 399.98 969.498 400.389 969.543 400.84C970.154 406.485 969.043 411.889 966.836 416.953C964.305 422.732 964.447 428.962 963.215 434.947C962.237 439.707 960.214 444.244 959.517 449.044C959.352 450.197 959.7 451.45 959.59 452.621C959.467 454.09 959.994 455.753 956.329 456.034C953.542 456.25 954.24 457.868 954.83 458.982C957.105 463.41 958.416 467.508 957.763 470.295C957.097 473.145 956.692 476.063 955.412 478.764C953.769 482.184 953.552 485.734 954.452 489.546C954.76 490.853 953.979 492.091 953.696 493.356C952.912 497.157 952.239 500.993 951.333 504.771C950.558 507.955 949.101 511.033 948.7 514.271C948.277 517.586 946.898 520.791 948.457 524.416C948.738 525.061 947.926 525.735 947.531 526.36C945.892 529.078 944.315 531.665 944.728 535.018C945.057 537.739 945.333 540.997 943.539 543.178C940.888 546.421 941.57 550.062 940.979 553.557C940.47 556.475 940.783 559.543 940.396 562.484C940.006 565.475 939.037 568.36 938.741 571.364C938.478 574.044 938.186 576.765 938.964 579.532C940.419 584.598 937.321 588.768 936.706 593.412C936.624 593.988 936.063 594.51 936.264 595.077C937.312 598.318 935.009 600.954 934.993 603.999C934.967 607.058 934.558 610.075 934.307 613.111C934.093 615.539 931.238 617.475 933.06 620.28C933.121 620.384 933.056 620.564 932.895 620.595C927.981 621.627 929.103 624.07 930.257 626.658C930.513 627.244 928.839 627.822 928.215 628.29C928.399 629.858 928.705 631.399 928.731 632.899C928.765 634.435 929.345 635.981 929.709 637.491C930.468 640.705 930.092 644.001 928.58 646.828C927.933 648.025 927.103 649.095 927.106 650.487C927.081 653.312 926.617 656.077 926.471 658.878C926.416 659.883 926.847 660.978 926.969 662.024C927.047 662.803 926.983 663.587 926.873 664.339C926.675 665.816 925.695 667.274 926.307 668.73C928.015 672.806 927.576 676.467 926.605 680.241C925.646 683.951 926.805 688.066 926.555 691.939C926.327 695.083 925.352 698.118 924.816 701.211C924.687 701.991 924.959 702.833 925.148 703.649C925.798 706.543 926.871 709.473 927.053 712.298C927.189 714.487 924.381 716.221 926.241 718.787C926.481 719.117 925.89 719.679 925.344 719.903C922.909 720.853 923.778 722.242 924.989 723.776C925.64 724.575 926.703 725.843 926.18 726.175C923.804 727.698 926.128 729.594 926.464 731.329C926.791 733.028 926.932 734.7 927.354 736.412C927.773 738.175 928.399 739.937 929.176 742.52C931.742 741.16 933.625 740.533 934.657 739.562C939.199 735.309 945.79 731.974 949.889 727.527C951.849 725.4 954.022 723.359 955.732 721.15C962.178 712.892 968.458 704.579 974.81 696.306C973.962 692.795 978.707 690.922 979.794 687.923C980.898 684.948 983.429 682.286 985.446 679.524C987.562 676.676 990.767 674.083 991.755 670.986C993.085 666.776 999.777 664.514 1000.16 660.095C1004.21 658.18 1004.68 655.266 1004.94 652.217C1005.03 651.307 1006.82 650.666 1007.8 649.898C1008.69 649.215 1010.54 648.578 1010.34 647.875C1009.64 645.567 1011 643.782 1011.87 641.855C1012.19 641.153 1012.75 640.496 1013.26 639.844C1013.63 639.358 1014.66 638.991 1014.58 638.495C1013.84 634.651 1017.85 632.42 1021.15 629.926C1021.6 629.603 1022.15 629.194 1022.07 628.784C1021.37 624.566 1026.17 621.908 1027.98 618.407C1028.96 616.481 1030.6 614.736 1032.08 612.937C1032.87 611.97 1034.02 611.121 1034.87 610.158C1035.62 609.281 1036.27 608.368 1036.76 607.423C1037.15 606.676 1036.77 605.648 1037.5 605.082C1041.51 601.914 1041.8 597.531 1045.67 594.317C1047.37 592.911 1048.5 591.25 1050.25 589.875C1050.72 589.525 1052.59 589.799 1054.48 589.762C1053.18 588.584 1052.38 587.987 1051.85 587.347C1051.4 586.796 1050.65 585.898 1051.02 585.669C1056.39 582.405 1056.23 577.408 1059.47 573.504C1059.87 573.014 1060.36 572.402 1061.19 572.219C1064.82 571.424 1064.93 569.65 1063.83 567.449L1069.25 565.928C1068.25 562.57 1069.01 559.598 1071.94 557.099C1072.57 556.569 1073.3 555.966 1073.34 555.309C1073.77 550.17 1079.59 546.888 1083.4 542.931C1084.25 542.054 1084.55 541.28 1084.87 540.294C1085.49 538.299 1087.29 536.573 1088.68 534.747C1089.43 533.734 1091 532.886 1091.12 531.787C1091.7 526.68 1098 523.872 1102.78 520.367C1099.06 517.008 1101.68 514.779 1104.77 512.852C1106.27 511.914 1106.92 511.037 1107.24 509.717C1107.81 507.371 1108.84 504.959 1110.92 503.089C1114.8 499.591 1118.59 496.116 1120.56 491.931C1121.14 490.679 1122.97 489.75 1124.2 488.658C1124.82 488.105 1125.81 487.607 1125.89 486.945C1126.46 482.455 1130.29 479.061 1134.3 475.708C1136.02 474.274 1137.49 472.723 1138.84 471.135C1142.5 466.912 1145.91 462.594 1149.68 458.407C1153.02 454.702 1156.73 451.15 1159.92 447.881C1162.51 447.084 1164.79 446.534 1166.72 445.754C1169.43 444.66 1173.11 445.892 1175.78 446.258C1180.61 446.925 1185.66 448.637 1190.13 450.394C1195.49 452.526 1198.3 457.716 1196.64 460.56C1194.67 463.957 1192.79 467.368 1191.17 470.861C1190.61 472.022 1191.26 473.474 1191.02 474.735C1190.21 478.981 1189.11 483.164 1188.37 487.415C1187.65 491.554 1188.41 496.06 1186.45 499.827C1182.89 506.663 1183.18 514.232 1180.63 521.196C1178.69 526.463 1177.69 531.902 1175.7 537.138C1174.91 539.226 1173.46 541.17 1172.35 543.186C1172.02 543.816 1171.46 544.472 1171.67 545.162C1172.51 548.132 1173.14 551.003 1170.32 553.354C1169.7 553.871 1170.11 554.993 1170.61 555.809C1172.31 558.543 1169.16 560.181 1168.58 562.405C1168.46 562.837 1166.59 562.897 1164.48 563.352L1170.5 566.418C1170.06 568.084 1169.56 569.732 1169.21 571.411C1168.91 572.988 1168.8 574.614 1168.57 576.55C1165.51 577.797 1163.21 579.581 1164.54 582.863C1165.41 584.991 1164.57 587.111 1164.2 589.187C1163.87 591.123 1163.28 593.028 1162.52 594.891C1162.1 595.913 1159.98 597.049 1160.64 597.699C1162.71 599.662 1161.4 601.097 1161.13 602.619C1160.53 605.843 1159.29 608.958 1158.36 612.123C1157.63 614.586 1157.85 617.37 1156.1 619.484C1153.85 622.187 1155.19 625.37 1154.47 628.239C1154.2 629.355 1154.61 630.613 1154.76 631.802C1154.97 633.429 1154.92 634.852 1151.69 635.378C1149.26 635.774 1148.36 637.025 1150.38 638.538C1152.5 640.114 1151.69 641.378 1151.75 642.788C1151.9 647.33 1151.28 651.703 1149.04 655.798C1148.5 656.797 1149.22 658.154 1149.36 659.172C1147.46 660.48 1145.66 661.688 1143.6 663.112C1147.62 664.773 1147.88 666.431 1146.89 668.173C1144.46 672.425 1145.6 677.306 1144.92 681.859C1144.88 682.098 1144.85 682.323 1144.75 682.544C1142.97 685.869 1143.73 689.686 1142.86 693.14C1141.22 699.578 1142.11 706.486 1139.01 712.652C1138.13 714.393 1140.47 717.065 1135.73 717.484C1138.98 721.576 1138.5 723.998 1134.05 725.85C1136.74 727.247 1137.76 728.754 1137.19 730.51C1135.55 735.408 1134.54 740.442 1134.24 745.591C1134.07 748.334 1134.58 751.182 1134.81 753.989C1134.82 754.21 1135.24 754.58 1135.1 754.67C1130.7 757.157 1135.02 761.58 1131.82 764.479C1130.4 765.792 1131.63 768.186 1131.61 770.074C1131.58 773.736 1131.48 777.407 1131.51 781.088C1131.53 783.809 1131.71 786.548 1131.75 789.278C1131.8 792.008 1132.6 794.933 1131.64 797.436C1129.98 801.622 1132.97 806.065 1133.74 810.387C1133.99 811.946 1134.36 813.505 1134.48 815.055C1134.64 816.984 1136.29 818.109 1139.59 817.772C1142.92 817.418 1146.43 816.749 1148.61 815.533C1154.8 812.134 1160.75 808.591 1165.98 804.714C1170.11 801.667 1173.05 798.083 1176.52 794.72C1179.4 791.905 1182.63 789.186 1185.08 786.213C1187.83 782.885 1192.26 780.186 1193.92 776.405C1194.69 774.627 1197.17 773.289 1198.62 771.666C1199.75 770.424 1200.12 768.902 1201.5 767.792C1204.94 765.024 1208.76 762.432 1212.85 759.489C1209.48 756.163 1213.32 753.828 1215.86 751.251C1218.3 748.76 1220.61 746.296 1222.39 743.538C1223.9 741.167 1224.99 738.403 1229.15 736.807C1230.79 736.184 1230.91 734.432 1231.39 733.095C1233.09 728.521 1239.99 721.282 1246.03 718.135C1242.92 714.224 1248.6 712.203 1249.62 709.015C1250.15 707.426 1252.44 706.246 1253.6 704.779C1255.63 702.188 1257.05 699.385 1259.43 696.925C1261.39 694.897 1262.52 692.683 1263.7 690.437C1264.82 688.322 1267.03 686.511 1268.82 684.478L1272.41 685.278C1269.88 679.277 1274.88 675.944 1282.54 673.26C1278.51 670.554 1279.81 668.331 1281.7 666.064C1285.47 661.594 1288.97 657.033 1292.65 652.535C1293.46 651.541 1294.62 650.678 1295.9 649.518L1302.78 652.766C1301.56 651.48 1301.26 650.862 1300.56 650.451C1298.21 649.05 1297.68 647.769 1298.82 646.38C1301.59 643.011 1303.86 639.443 1307.13 636.251C1309.75 633.665 1312.23 631.156 1313.59 628.114C1314.53 626.021 1317.67 624.495 1319.82 622.715C1320.36 622.27 1321.28 621.903 1321.36 621.389C1322.25 615.21 1329.63 611.278 1333.98 606.309C1337.33 602.49 1340.83 598.704 1344.54 595.017C1346.68 592.881 1350.01 591.149 1351.63 588.877C1353.23 586.619 1354.2 584.301 1357.43 582.554C1360.27 581.015 1361.74 578.711 1363.98 576.81C1367.28 573.996 1369.81 570.816 1374.58 568.681C1377.22 567.497 1380.31 566.556 1383.35 565.621C1384.95 565.137 1386.68 565.095 1388.83 566.149C1392.23 567.809 1396.13 568.659 1400.32 569.153C1404.21 569.598 1406.6 570.945 1409.17 573.256C1414.14 577.725 1412.49 581.11 1411.18 584.788C1410.11 587.759 1409.04 590.73 1408.4 593.787C1407.84 596.489 1405.99 599.022 1407.76 602.093C1403.36 606.107 1407.03 611.813 1404 616.123C1403.85 616.325 1403.66 616.582 1403.81 616.798C1406.4 621.128 1403.66 624.726 1403.66 628.682C1403.66 632.587 1403.65 636.506 1403.07 640.321C1402.32 645.239 1401.01 650.074 1399.92 654.933C1399.84 655.275 1399.36 655.554 1399.44 655.901C1400.57 662.435 1397.85 668.371 1397.94 674.768C1398.03 681.066 1397.36 687.268 1396.65 693.438C1396.35 696.172 1394.78 698.696 1394.35 701.421C1394.09 702.88 1395.25 704.581 1395.32 706.112C1395.56 711.334 1395.47 716.519 1395.77 721.745C1395.98 725.097 1397.02 728.536 1397.04 731.861C1397.04 735.433 1396.03 738.891 1400.28 742.62C1399.08 745.951 1402.11 749.317 1404.59 752.638C1407.39 756.4 1407.69 756.365 1414.83 756.761C1423.76 757.256 1430.24 755.043 1436.63 753.05C1443.2 750.999 1448.82 748.186 1454.41 745.448C1459.06 743.191 1463.08 740.577 1467.37 738.103C1467.62 737.95 1467.92 737.78 1468.01 737.559C1469.65 733.819 1475.47 731.942 1478.92 729.025C1485.28 723.623 1491.92 718.311 1497.73 712.677C1503.14 707.448 1508.43 702.183 1514.93 697.394C1517.56 695.435 1518.92 692.896 1521.18 690.747C1526.3 685.847 1531.18 680.865 1537.21 676.327C1538.47 675.378 1541.07 675.924 1542.03 674.408C1544.23 670.786 1547.01 667.182 1551.12 664.312C1554.73 661.769 1555.84 658.374 1559.83 656.021C1562.84 654.252 1565.18 652.18 1566.77 649.75C1567.57 648.536 1570.51 647.983 1572.46 647.126C1578.85 644.282 1581.8 639.81 1587.33 636.55C1591.93 633.842 1596.27 630.981 1600.65 628.151C1602.26 627.1 1603.68 625.936 1605.12 624.795C1607.33 623.02 1610.02 621.633 1613.97 620.838C1616.45 620.339 1617.82 618.81 1620.04 617.971C1622.54 617.026 1625.07 615.855 1628.17 615.626C1637.26 614.932 1646.49 614.332 1656.54 617.924C1661.64 619.753 1667.48 620.832 1670.72 624.185C1674.5 628.08 1678.69 631.926 1678.65 636.084C1678.63 636.665 1678.7 637.274 1678.87 637.882C1679.85 641.402 1681.16 644.932 1681.79 648.42C1682.97 654.787 1683.78 661.136 1684.73 667.494C1684.83 668.098 1685.24 668.851 1684.84 669.292C1681.62 672.75 1685.38 676.857 1686.12 680.687C1686.43 682.363 1685.76 683.97 1685.97 685.647C1686.63 691.076 1688.53 696.706 1688.05 701.962C1687.35 709.277 1690.36 716.945 1689.71 724.242C1689.38 727.719 1690.47 731.41 1690.87 735.011C1691.3 738.854 1691.63 742.697 1692.02 746.545C1692.65 752.533 1693.36 758.512 1693.9 764.487C1694.17 767.424 1694.11 770.339 1694.22 773.258C1694.27 774.448 1694.22 775.637 1694.53 776.845C1695.42 780.252 1696.67 783.692 1697.36 787.085C1698.46 792.304 1699.17 797.495 1700.11 802.695C1700.94 807.305 1701.7 811.91 1702.82 816.534C1703.93 821.1 1705.53 825.693 1706.8 830.263C1708.2 835.312 1709.33 840.341 1710.9 845.394C1711.44 847.179 1713.34 849.038 1713.73 850.805C1714.93 856.024 1717.93 861.192 1721.09 866.392C1722.62 868.936 1723.33 871.514 1724.79 874.066C1725.69 875.649 1726.91 877.255 1728.51 878.732C1732.78 882.668 1732.56 882.028 1740.1 881.884C1747.31 881.754 1749.54 878.857 1752.81 876.773C1760.14 872.12 1765.46 866.544 1770.19 860.778C1770.49 860.373 1770.71 859.892 1771.26 859.618C1776.5 857.033 1778.09 853.212 1779.71 849.363C1780.68 847.131 1782.88 845.468 1786.25 844.236C1787.66 843.725 1788.42 842.564 1788.74 841.528C1789.7 838.422 1787.76 834.706 1791.56 832.105L1793.98 832.425C1794.32 830.809 1794.21 829.331 1795 828.13C1797.63 824.076 1800.65 820.149 1803.4 816.118C1804.36 814.737 1805.83 813.555 1805.33 811.666C1804.76 809.503 1807.08 808.012 1809.53 806.75C1810.5 806.243 1811.82 805.903 1812.58 805.297C1813.89 804.281 1815.46 803.703 1814.39 801.561C1813.2 799.162 1815.52 796.648 1816.69 794.281C1817.59 792.463 1818.9 790.745 1820.29 789.053C1821.89 787.092 1821.34 784.434 1824.82 783.053C1825.61 782.739 1825.37 781.756 1825.79 781.14C1827.13 779.196 1828.45 777.244 1829.95 775.355C1831.6 773.227 1833.36 771.136 1835.2 769.085C1836.84 767.241 1838.8 765.497 1840.42 763.644C1841.08 762.889 1841.2 761.938 1841.47 761.056C1842.15 758.895 1842.61 756.648 1845.48 756.275C1847.08 753.647 1848.23 751.69 1849.45 749.759C1850.7 747.802 1851.92 745.836 1853.36 743.942C1854.08 742.971 1854.9 741.914 1856.32 741.304C1860.51 739.483 1864.42 737.386 1871.82 738.909C1876.34 739.846 1881 740.274 1885.64 740.963C1891.46 741.834 1893.88 743.276 1894.99 746.472C1895.24 747.207 1895.29 748.027 1895.99 748.672C1899.9 752.194 1896.52 754.007 1893.4 755.826C1888.2 758.874 1886.13 763.01 1884.12 767.115C1881.97 771.544 1880.93 776.249 1879.15 780.782C1877.61 784.671 1875.72 788.465 1874.07 792.318C1873.84 792.863 1874.12 793.508 1874 794.088C1872.88 799.456 1871.64 804.801 1870.55 810.178C1869.79 813.951 1869.36 817.784 1868.44 821.526C1867.56 825.177 1866.14 828.72 1865.12 832.326C1864.52 834.479 1864.53 836.744 1863.79 838.865C1862.74 841.809 1861.69 844.717 1859.89 847.516C1858.1 850.287 1855.47 853.269 1857.77 857.201C1858.89 859.091 1857.72 861.175 1857.09 863.047C1855.87 866.554 1853.05 869.842 1853.2 873.496C1853.37 877.086 1851.83 879.953 1849.51 882.787C1849.36 882.989 1849.15 883.272 1849.36 883.457C1853.06 887.127 1850.16 890.104 1849.91 893.275C1849.6 897.463 1847.79 901.433 1846.64 905.499C1845.71 908.75 1845.34 912.132 1841.62 914.625C1841.14 914.953 1841.36 915.728 1841.58 916.305C1842.05 917.631 1841.6 918.422 1839.77 919.216C1836.76 920.517 1837.62 923.077 1838.56 925.16C1840.3 929.06 1837.92 931.84 1835 934.474C1833.3 936.016 1831.72 937.396 1832.68 939.551C1832.96 940.146 1833.26 940.913 1832.81 941.322C1829.85 944.244 1830.75 948.143 1827.89 951.164C1826.13 953.021 1825.97 955.602 1826.2 958.09C1826.34 959.626 1825.33 961.025 1825.18 962.534C1824.69 966.966 1823.31 971.143 1819.5 974.731C1818.85 975.338 1818.66 976.284 1818.92 977.104C1820.49 982.477 1818.23 987.004 1814.63 991.245C1814.24 991.722 1814.55 992.426 1814.29 992.961C1812.68 996.427 1814.66 1000.66 1810.9 1003.67C1810.36 1004.12 1810.99 1005.08 1810.99 1005.08C1808.59 1006.96 1806.87 1008.44 1804.94 1009.83C1802.71 1011.43 1801.17 1013.18 1801.24 1015.51C1801.25 1016.24 1799.46 1016.74 1798.42 1017.31C1796.17 1018.52 1794.43 1019.61 1796.28 1022.09C1798.4 1024.91 1799.52 1027.82 1794.57 1029.6C1793.06 1030.14 1793.07 1031.81 1792.25 1033.2C1784.88 1033.76 1778.66 1036.97 1768.34 1033.88C1768.14 1030.75 1765.78 1026.86 1773.04 1025.32C1774.56 1024.99 1775.48 1023.95 1776.31 1023.1C1778.56 1020.78 1781.01 1018.49 1782.62 1015.97C1783.39 1014.74 1782.63 1013.02 1782.26 1011.51C1781.97 1010.41 1781.8 1010.5 1784.48 1010.39C1785.44 1010.35 1786.69 1009.73 1786.64 1009.25C1786.54 1008.08 1785.77 1006.84 1785.17 1005.37C1788.82 1005.7 1788.65 1004.26 1788.5 1002.78C1788.39 1001.45 1788.08 1000.1 1788.3 998.826C1788.5 997.719 1788.88 996.503 1790.01 995.73C1793.25 993.502 1795.12 990.992 1792.43 987.635C1789.97 984.572 1792.74 982.289 1792.14 979.513C1792.03 979.093 1793.29 978.749 1793.99 978.421C1794.69 978.08 1795.96 977.957 1796.19 977.498C1797.28 975.572 1798.11 973.564 1799.04 971.62L1804.07 972.472C1801.57 970.818 1800.15 969.888 1798.77 968.952C1800.07 966.279 1802.98 965.071 1807.51 965.329C1805.59 962.807 1802.65 964.014 1799.65 963.724C1800.12 962.585 1803.72 962.015 1800.4 960.297C1800.02 960.107 1801.03 958.843 1801.76 958.228C1802.73 957.437 1804.06 956.813 1805.45 956.009L1809.46 958.053C1808.83 956.957 1808.16 955.803 1807.46 954.603L1800.84 953.654C1801.07 951.766 1801.26 949.969 1801.55 947.447C1802.86 948.882 1803.56 949.627 1804.23 950.349C1805.92 949.403 1805.98 948.366 1804.4 947.236C1801.03 944.834 1801.02 944.527 1803.19 942.401C1804.03 941.587 1804.44 940.578 1804.93 939.633C1805.44 938.711 1805.84 937.766 1806.23 936.82C1806.46 936.276 1807.1 935.646 1806.7 935.164C1803.95 931.789 1808.24 931.126 1811.6 930.105C1812.4 929.863 1813.44 929.802 1814.11 929.7C1811.96 926.587 1809.25 923.726 1810.98 920.887C1811.44 920.131 1811.19 919.162 1811.25 918.293C1811.41 915.932 1810.85 913.386 1814.46 911.965L1812.25 910.474C1816.25 908.91 1819.24 907.253 1813.89 903.752C1815.37 902.876 1814.68 900.924 1818.46 901.048C1818.96 901.063 1819.45 900.415 1819.55 899.996C1819.87 898.677 1818.84 897.085 1820.97 896.134C1821.38 895.95 1821.2 895.121 1820.73 894.733C1815.36 890.285 1818.78 886.791 1819.21 882.909C1819.46 880.675 1820.66 879.24 1824.61 878.802C1823.4 877.083 1821.17 875.3 1821.57 874.107C1821.99 872.936 1825.05 872.356 1827.32 871.352L1821.8 869.557C1822.9 868.775 1823.54 867.925 1824.75 867.549C1829.03 866.21 1829.22 864.229 1826.75 861.314C1825.67 860.023 1826 858.47 1826.17 857.119C1826.39 855.529 1826.87 853.944 1827.71 852.491C1828.22 851.618 1829.58 850.99 1830.76 850.1C1826.32 847.429 1827.33 845.228 1829.14 842.7C1830.5 840.779 1833.83 838.997 1831.12 835.802C1830.25 836.188 1829.37 836.34 1829.15 836.686C1824.82 843.12 1820.61 849.576 1816.31 856.019C1814.07 859.411 1812.01 862.88 1809.35 866.137C1806.66 869.42 1803.34 872.459 1800.26 875.616C1799.98 875.908 1799.69 876.2 1799.55 876.524C1797.35 882.241 1790.14 885.944 1784.53 890.285C1779.45 894.23 1772.11 896.852 1764.46 899.103C1760.58 900.235 1755.33 900.37 1750.44 900.572C1746.02 900.757 1741.34 900.492 1736.71 900.307C1729.96 900.037 1723.8 897.913 1718.01 895.659C1710.55 892.761 1702.73 889.895 1698.45 885.134C1698.01 884.656 1697.35 884.204 1697.09 883.717C1693.72 878.062 1689.95 872.428 1687.18 866.765C1683.75 859.798 1681.15 852.833 1678.23 845.868C1677.52 844.177 1676.67 842.527 1678.86 841.161C1679.83 840.555 1679.76 838.555 1678.7 837.94C1673.81 835.16 1673.7 832.056 1672.61 829.153C1670.73 824.149 1669.79 819.17 1668.48 814.185C1668.31 813.576 1668.06 812.941 1668.12 812.355C1668.22 810.63 1673.02 809.563 1669.08 807.388C1666.02 805.689 1667.6 804.11 1665.98 802.441C1664.64 801.082 1665.23 799.349 1665.01 797.785C1664.5 794.284 1663.93 790.778 1663.54 787.3C1663.35 785.646 1665.59 784.213 1662.26 782.275C1661.56 781.863 1662.16 780.869 1661.88 780.139C1660.36 776.46 1664.69 773.648 1662.22 769.724C1661.52 768.61 1663.76 767.326 1665.02 765.625C1664.4 764.922 1663.07 763.649 1662.2 762.345C1661.44 761.19 1661.11 759.996 1660.77 758.829C1660.63 758.364 1661.29 757.807 1660.92 757.468C1656.4 753.451 1660.77 750.598 1660.53 747.102C1655.59 744.403 1655.39 743.232 1659.5 739.929C1658.13 737.858 1656.76 735.801 1655.37 733.673L1660.06 733.308C1659.32 732.446 1658.58 731.584 1657.85 730.709C1657.19 729.924 1655.7 728.853 1656.06 728.367C1658.42 724.962 1655.39 721.077 1654.76 717.418C1654.16 714.038 1653.06 710.581 1653.09 707.288C1653.09 705.847 1655.41 704.725 1656.45 703.655C1655.39 701.535 1653.61 699.329 1653.46 697.302C1653.16 693.049 1651.03 688.567 1653.47 684.585C1654.47 682.965 1651.25 680.274 1655.38 679.543C1654.47 677.604 1650.47 675.88 1654.01 674.603C1654.25 674.513 1654.04 673.81 1653.67 673.607C1647.95 670.469 1651.23 667.498 1650.64 664.573C1650.16 662.239 1649.59 659.756 1649.54 657.395C1649.52 656.314 1650.89 655.956 1650.72 655.249C1650.6 654.672 1648.23 654 1647.91 653.36C1647.23 652.034 1646.64 650.551 1647.09 649.39C1648.79 644.866 1643.93 640.248 1642.28 635.019C1639.91 636.123 1638.26 636.944 1636.53 637.689C1630.28 640.38 1625.32 643.708 1620.47 647.159C1613.84 651.903 1605.56 655.928 1599.93 661.049C1595.77 664.825 1590.61 668.139 1586.77 671.966C1582.69 676.017 1577.59 679.62 1573.44 683.63C1570.55 686.395 1566.35 688.563 1564.41 691.821C1562.69 694.696 1558.86 696.968 1555.86 699.476C1553 701.881 1549.72 704.114 1547.16 706.631C1543.74 710.026 1541.09 713.724 1537.6 717.078C1534.62 719.928 1530.64 722.389 1527.58 725.212C1524.68 727.856 1522.47 730.789 1519.78 733.518C1518.48 734.853 1518.25 736.47 1514.73 737.117C1512.12 737.607 1511.05 739.74 1509.39 741.179C1506.23 743.988 1504.66 747.549 1498.52 748.969C1498.69 751.218 1495.73 752.167 1493.58 753.478C1486.53 757.853 1479.84 762.444 1470.69 765.634C1470.51 765.692 1470.36 765.759 1470.29 765.854C1467.78 769.228 1461.07 769.791 1455.87 771.264C1452.28 772.275 1447.84 772.757 1443.48 772.961C1436.14 773.303 1428.59 773.36 1421.05 773.319C1409.84 773.253 1399.76 770.724 1389.36 766.384C1378.13 761.687 1372.97 756.154 1368.95 749.664C1364.59 742.646 1364.32 735.839 1362.15 728.947C1360.74 724.516 1361.72 720.175 1361.56 715.783C1361.52 714.481 1361.11 713.124 1361.11 711.831C1361.12 711.165 1361.26 710.372 1361.97 709.968C1366.88 707.274 1367.61 703.96 1363.16 699.713C1362.37 698.968 1362.14 698.022 1362.07 697.229C1361.83 692.66 1361.35 688.06 1361.7 683.583C1362.1 678.619 1362.56 673.588 1364.5 668.975C1365.29 667.12 1366.35 665.789 1363.49 663.72C1366.51 662.541 1367.48 661.011 1364.7 658.799C1364.21 658.424 1364.24 657.829 1364.29 657.392C1364.91 652.934 1365.26 648.407 1366.36 644.04C1367.16 640.915 1368.88 637.954 1370.37 634.97C1370.89 633.948 1370.62 633.29 1369.39 632.054C1366.91 629.535 1367.73 627.037 1369.5 624.882C1369.79 624.491 1370.94 624.06 1370.75 623.898C1367.61 621.284 1370.44 618.969 1368.37 615.65C1365.28 618.648 1362.65 621.126 1360.12 623.639C1357.32 626.431 1355.92 629.712 1352.1 632.205C1349.42 633.948 1348.04 636.365 1346.18 638.505C1342.48 642.733 1338.84 646.978 1335.23 651.233C1333.55 653.216 1332.01 655.245 1330.4 657.269C1326.58 662.091 1323.47 667.212 1318.66 671.631C1314.95 675.047 1314.2 679.361 1309.77 682.529C1307.57 684.092 1306.91 686.389 1305.63 688.386C1304.61 689.948 1303.82 691.568 1302.66 693.084C1298.26 698.859 1293.81 704.617 1289.27 710.361C1286.42 713.96 1282.57 717.281 1280.54 721.093C1276.88 727.965 1270.64 733.908 1265.29 740.178C1261.53 744.585 1259.11 749.464 1255.46 753.921C1248.79 762.058 1241.46 769.977 1234.81 778.136C1232.5 780.956 1229.12 783.423 1227.87 786.637C1227.56 787.474 1226.1 788.039 1225.4 788.799C1223.32 790.989 1221.33 793.206 1219.31 795.414C1217.92 796.956 1216.8 798.603 1215.17 800.05C1209.12 805.454 1205.05 811.672 1197.27 816.378C1196.39 816.912 1195.91 817.659 1195.33 818.343C1193.23 820.843 1190.04 822.756 1186.06 824.357C1183.49 825.397 1182.15 827.242 1179.6 828.304C1171.91 831.533 1163.22 833.931 1152.63 834.506C1148.46 834.723 1144.88 835.671 1140.13 835.23C1134.24 834.687 1128.95 833.433 1123.77 831.428C1121.27 830.464 1118.64 829.639 1116.19 828.657C1107.93 825.348 1104.71 821.031 1103.63 816.253C1102.94 813.229 1101.99 810.173 1101.07 807.14C1099.75 802.858 1100.43 798.823 1100.73 794.746C1100.8 793.729 1100.52 792.665 1100.65 791.651C1100.78 790.638 1100.55 789.223 1101.68 788.82C1103.43 788.184 1103.11 787.26 1103.62 786.351C1105.18 783.542 1103.91 780.648 1102.03 777.604C1101.39 776.557 1101.07 775.264 1101.66 774.418C1102.88 772.686 1105.04 771.226 1102.37 768.865C1105.03 767.604 1103.07 765.641 1102.84 763.906C1102.59 762 1103.15 760.186 1103.29 758.321C1103.32 757.862 1103.19 757.384 1102.98 756.915C1102 754.616 1103.11 752.982 1106.35 751.962C1104.75 747.751 1101.56 743.245 1108.51 740.546C1106.45 738.803 1102.09 736.997 1106.72 735.655C1106.98 735.574 1106.69 734.993 1106.55 734.627C1105.82 732.815 1105.05 731.007 1104.26 729.141C1107.9 728.481 1110.53 728.013 1106.86 725.078C1105.28 723.809 1106.99 721.515 1107.45 719.736C1108.63 715.112 1108.66 715.121 1117.72 714.985C1116.82 714.141 1116.3 713.117 1115.17 712.647C1109.55 710.298 1109.1 707.455 1108.8 704.558C1108.73 703.963 1108.85 703.382 1108.86 702.567L1112.65 702.727C1112.45 701.875 1111.88 700.883 1112.15 700.1C1112.4 699.393 1113.57 698.886 1114.3 698.32C1109.79 694.757 1110.58 692.817 1117.26 691.911C1115.72 691.007 1118.61 689.264 1113.64 688.971C1113.34 688.957 1111.89 687.044 1112.21 686.342C1114.08 682.143 1114.19 682.179 1121.3 680.201C1120.56 679.979 1119.98 679.739 1119.38 679.662C1117.89 679.443 1116.37 679.3 1114.55 679.094C1115.64 672.695 1116.7 666.286 1117.84 659.684C1118.97 659.7 1120.27 659.806 1121.45 659.705C1123.56 659.52 1124.27 658.242 1122.35 657.751C1118.72 656.821 1121.3 655.817 1120.28 654.963C1122.04 655.036 1122.57 654.469 1121.85 653.264L1120.46 655.14L1120.21 655.094ZM1798.69 1012.28C1798.72 1011.5 1798.74 1010.73 1798.79 1009.82C1796.01 1009.47 1794.89 1009.96 1795.4 1011.5C1796.61 1011.79 1797.67 1012.03 1798.69 1012.28C1797.37 1012.67 1796 1013.07 1794.07 1013.63C1799.8 1015.36 1797.34 1012.71 1798.66 1012.28L1798.69 1012.28ZM1830.54 899.855C1827.3 901.336 1826.67 902.958 1828.66 904.721C1828.52 902.581 1832.83 902.495 1830.54 899.855ZM1851.8 815.183C1850.6 816.185 1849.44 817.196 1848.24 818.199L1849.84 818.887C1851.63 818.147 1854.49 817.886 1851.77 815.174L1851.8 815.183ZM1812.42 961.514C1810.7 962.43 1809.3 963.432 1811.96 965.167C1815.71 964.579 1813.3 962.89 1812.42 961.514ZM710.816 540.487L716.234 540.776C715.986 540.226 715.941 539.357 715.412 539.185C713.231 538.491 711.746 538.862 710.843 540.496L710.816 540.487ZM1840.55 845.862C1840.55 847.204 1840.56 848.128 1840.6 849.984C1843.19 849.151 1844.47 848.73 1846.34 848.116L1840.55 845.862ZM696.944 553.065L697.906 549.909L696.517 549.591C695.744 550.445 691.095 550.423 696.954 553.051L696.944 553.065ZM1835.14 884.827C1837.98 883.976 1836.73 882.866 1835.47 881.498C1833.32 882.44 1833.14 883.373 1835.14 884.827ZM710.439 507.867C708.575 508.857 708.95 509.918 711.566 511.049L710.439 507.867ZM817.339 430.317C818.181 431.463 818.667 432.577 819.061 432.605C820.466 432.76 821.832 432.551 823.2 432.477L822.979 431.752L817.339 430.317ZM599.976 339.208C598.088 340.292 598.154 341.459 600.175 342.709L599.976 339.208ZM1823.58 917.969C1822.99 919.554 1823.74 920.501 1826.52 921.457C1827.01 920.057 1826.93 919.043 1823.58 917.969ZM1828.45 887.742L1832.08 890.619C1832.4 889.316 1831.19 888.357 1828.45 887.742ZM1669.99 791.312L1668.37 791.305C1667.69 792.272 1668.38 793.152 1671.47 794.725C1670.74 793.048 1670.35 792.182 1669.99 791.312ZM1153.99 553.233C1157.64 553.262 1157.68 552.456 1155.26 550.694C1154.71 551.806 1154.36 552.513 1153.99 553.233ZM928.606 553.835L930.8 553.812C930.453 553.163 930.126 552.486 929.665 551.85C929.63 551.805 928.049 551.793 928.074 551.852C928.177 552.505 928.41 553.168 928.634 553.844L928.606 553.835ZM1137.41 587.05C1134.63 587.955 1134.14 588.616 1136.86 590.342C1137.06 589.149 1137.2 588.406 1137.41 587.05ZM1120.03 746.812L1118.36 746.403L1117.96 748.569L1119.13 748.814L1120.02 746.825L1120.03 746.812ZM927.123 522.38C928.232 520.746 927.16 520.096 924.658 519.834C924.312 519.788 924.003 519.973 923.261 520.133L927.123 522.38ZM725.821 506.423C729.075 505.253 727.44 504.151 726.535 503.136L725.69 503.296L725.821 506.423ZM730.121 493.611C728.969 494.09 728.041 494.224 728.027 494.521C728.011 494.868 728.638 495.374 729.178 495.717C729.371 495.83 730.58 495.738 730.594 495.625C730.617 495.13 730.376 494.616 730.121 493.611ZM1126.76 686.708L1127.57 686.367L1124.38 684.19L1123.64 684.485L1126.76 686.708ZM1285.63 673.059C1284.75 673.643 1284.13 673.876 1284.01 674.223C1283.9 674.457 1284.51 674.854 1284.78 675.179C1285.47 675.05 1286.48 675.029 1286.73 674.741C1286.92 674.485 1286.25 673.948 1285.64 673.045L1285.63 673.059ZM1016.79 662.83C1015.96 663.95 1015.54 664.283 1015.48 664.683C1015.44 664.972 1015.89 665.337 1016.12 665.68L1017.22 665.687C1017.12 665.034 1017.02 664.38 1016.79 662.83ZM1086.86 543.203C1087.32 543.74 1087.49 544.164 1087.97 544.404C1088.23 544.521 1088.97 544.311 1089.5 544.249C1089.2 543.915 1089.06 543.5 1088.58 543.26C1088.27 543.111 1087.54 543.209 1086.83 543.194L1086.86 543.203ZM1837.6 769.531C1836.68 769.552 1835.7 769.482 1835.69 769.581C1835.64 770.068 1835.85 770.586 1835.95 771.091C1836.64 771.047 1837.71 771.144 1837.95 770.919C1838.22 770.654 1837.79 770.113 1837.6 769.531ZM925.369 559.401C925.088 560.617 924.923 561.351 924.674 562.477C927.798 561.901 927.935 561.158 925.369 559.401ZM732.708 490.732C731.516 489.763 730.198 489.334 728.756 489.445L732.708 490.732ZM753.193 404.955L754.833 404.282C753.848 403.794 752.901 403.301 751.858 402.844C751.746 402.808 750.988 403.131 751.034 403.162C751.721 403.772 752.457 404.363 753.193 404.955ZM1806.8 973.495L1807.56 974.294C1808.46 974.102 1809.4 973.905 1810.31 973.713L1809.72 973.104L1806.77 973.499L1806.8 973.495ZM403.033 446.633C402.489 445.97 402.274 445.514 401.734 445.171C401.524 445.036 400.671 445.16 400.106 445.177C400.37 445.565 400.502 445.993 400.948 446.323C401.166 446.494 401.939 446.478 403.005 446.624L403.033 446.633ZM718.898 497.179L720.144 496.898L717.409 495.136L716.738 495.387L718.935 497.175L718.898 497.179ZM1833.36 918.168C1832.51 918.563 1831.86 918.737 1831.58 919.066C1831.47 919.214 1832.04 919.616 1832.31 919.905C1832.95 919.744 1833.68 919.633 1834.15 919.381C1834.32 919.287 1833.81 918.818 1833.36 918.168ZM1809.35 969.783L1807.88 969.857C1808.34 970.358 1808.78 970.836 1809.24 971.337L1810.12 971.272L1809.35 969.783ZM717.072 361.316L716.064 359.881L714.078 360.089C714.444 360.527 714.686 360.991 715.196 361.375C715.333 361.47 716.186 361.345 717.072 361.316ZM1151.74 565.756C1151.1 565.881 1150.4 565.889 1150.21 566.096C1150.09 566.258 1150.69 566.889 1150.86 566.894C1151.54 566.914 1152.18 566.789 1152.83 566.713L1151.74 565.756Z" fill="#FF8200"/>
</g>
</g>
<defs>
<clipPath id="clip0_640_118">
<rect width="1850.69" height="526.832" fill="white" transform="matrix(0.950858 0.309626 -0.596345 0.802728 337.94 50.4551)"/>
</clipPath>
</defs>
</svg>
