<svg width="540" height="460" viewBox="0 0 540 460" fill="none" xmlns="http://www.w3.org/2000/svg">
<g clip-path="url(#clip0_377_1205)">
<path d="M212.688 291.493C211.001 290.397 211.152 291.725 210.816 291.775C213.835 293.238 212.741 291.188 212.688 291.493Z" fill="#FF8200"/>
<path d="M242.628 304.619L241.964 304.773L246.688 305.817L242.628 304.619Z" fill="#FF8200"/>
<path d="M270.451 316.9C268.332 314.085 260.193 313.016 255.447 310.193L254.767 309.431L252.031 309.844C258.129 312.355 266.296 314.744 270.451 316.9Z" fill="#FF8200"/>
<path d="M284.492 326.507C283.745 325.458 287.968 327.09 280.977 325.011C281.301 325.205 281.389 325.3 281.581 325.433C282.205 325.663 283.037 325.97 284.492 326.507Z" fill="#FF8200"/>
<path d="M281.585 325.414C283.404 326.733 278.553 324.358 281.585 325.414V325.414Z" fill="#FF8200"/>
<path d="M295.7 329.82L291.52 329.127C292.24 329.829 295.795 331.103 294.399 330.962C298.623 331.946 297.855 331.251 295.696 329.794L295.7 329.82Z" fill="#FF8200"/>
<path d="M299.829 329.707L297.682 329.302C297.997 329.605 298.545 329.82 299.829 329.707Z" fill="#FF8200"/>
<path d="M293.161 328.447L297.708 329.301C297.193 328.811 297.273 328.205 295.629 328.858C296.129 328.431 295.113 328.693 293.161 328.447Z" fill="#FF8200"/>
<path d="M290.731 327.325C288.596 326.188 285.776 324.911 289.94 325.661C282.285 323.249 283.032 324.947 290.731 327.325Z" fill="#FF8200"/>
<path d="M272.472 315.627L269.713 313.936L266.997 313.508C268.357 313.735 272.467 316.249 272.472 315.627Z" fill="#FF8200"/>
<path d="M323.741 335.259C323.994 334.816 321.894 334.403 321.518 333.866C320.33 334.126 319.126 334.28 317.966 334.401C319.77 334.805 323.394 334.744 323.766 335.256L323.741 335.259Z" fill="#FF8200"/>
<path d="M321.519 333.866C323.284 333.519 325.072 333.007 326.836 332.335C322 333.308 321.2 333.374 321.519 333.866Z" fill="#FF8200"/>
<path d="M301.026 327.902L293.422 326.968C296.442 327.458 299.382 327.906 302.462 328.306L301.026 327.902Z" fill="#FF8200"/>
<path d="M342.313 317.74L343.37 323.118C342.776 319.831 342.33 316.711 341.608 313.875C341.959 315.065 342.066 316.426 342.289 317.743L342.313 317.74Z" fill="#FF8200"/>
<path d="M339.409 302.075C340.796 304.108 339.551 298.622 340.746 300.846C339.496 297.118 337.698 294.309 336.099 291.849C336.823 293.226 337.462 294.696 338.053 296.336C338.623 298.006 339.01 299.92 339.405 302.048L339.409 302.075Z" fill="#FF8200"/>
<path d="M333.338 287.861C334.121 289.148 335.096 290.406 336.075 291.852C335.272 290.433 334.361 289.112 333.338 287.861Z" fill="#FF8200"/>
<path d="M336.808 327.298C337.113 327.198 337.557 327.05 338.397 326.599C338.805 326.375 339.289 326.005 339.882 325.537L340.866 324.741L341.431 324.25C341.431 324.25 341.679 324.105 341.683 323.969L341.691 323.536C341.727 324.098 340.887 324.224 340.466 324.531L338.962 325.298C338.349 325.958 337.589 326.613 336.832 327.294L336.808 327.298Z" fill="#FF8200"/>
<path d="M338.842 325.339L338.938 325.324L340.487 323.713C340.827 323.527 340.639 323.096 340.668 322.794C340.644 322.474 340.648 322.176 340.628 321.882C340.581 320.754 340.553 319.921 340.526 319.412C340.541 319.842 340.577 320.566 340.62 321.667C340.576 322.187 340.783 322.912 340.563 323.566C340.051 324.076 339.474 324.649 338.834 325.286L338.842 325.339Z" fill="#FF8200"/>
<path d="M336.263 327.779L336.803 327.293C336.523 327.389 336.367 327.493 336.263 327.779Z" fill="#FF8200"/>
<path d="M313.191 331.717C316.159 331.539 322.119 330.857 316.352 329.727C314.284 330.336 317.583 331.217 313.191 331.717Z" fill="#FF8200"/>
<path d="M332.613 328.652C330.328 329.942 328.672 330.354 326.779 330.829C326.943 331.101 328.095 331.252 326.607 331.962C328.643 331.142 330.316 330.349 332.617 328.679L332.613 328.652Z" fill="#FF8200"/>
<path d="M335.243 326.37C334.519 327.263 333.534 327.897 332.622 328.683C333.386 328.217 334.154 327.777 334.915 327.284L335.247 326.396L335.243 326.37Z" fill="#FF8200"/>
<path d="M336.358 297.318C335.007 295.199 334.061 292.667 332.658 290.042C333.892 293.016 335.01 296.198 336.076 299.198C336.516 299.509 337.524 300.654 336.358 297.318Z" fill="#FF8200"/>
<path d="M339.414 309.262C339.366 309.107 339.33 308.869 339.259 308.718C339.239 309.072 339.255 309.34 339.414 309.262Z" fill="#FF8200"/>
<path d="M317.089 265.892L317.237 266.383C317.237 266.383 317.357 266.365 317.429 266.354L317.093 265.919L317.089 265.892Z" fill="#FF8200"/>
<path d="M336.043 299.795C336.601 302.196 337.336 303.49 337.923 304.779C337.433 302.989 336.67 301.186 336.051 299.199C335.859 299.066 335.735 299.058 336.043 299.795Z" fill="#FF8200"/>
<path d="M328.962 280.844C329.437 282.042 329.984 283.392 330.539 284.794C330.252 283.54 329.458 281.04 328.962 280.844Z" fill="#FF8200"/>
<path d="M339.343 307.835L339.47 308.194C339.49 307.354 339.411 307.474 339.343 307.835Z" fill="#FF8200"/>
<path d="M339.346 307.839C338.891 306.611 338.412 305.711 337.952 304.781C338.391 306.227 338.839 307.565 339.282 308.714C339.282 308.389 339.306 308.062 339.37 307.836L339.346 307.839Z" fill="#FF8200"/>
<path d="M306.889 264.511C307.821 264.019 312.335 267.742 314.66 272.416C318.154 275.888 318.781 271.093 317.208 266.359C316.772 266.56 316.552 266.728 312.734 263.225C313.629 264.927 319.148 273.036 315.753 270.225C311.124 265.25 312.42 265.703 310.654 262.782C311.688 265.733 303.637 257.761 303.403 260.282C304.911 261.487 306.338 262.811 307.805 264.076C307.677 264.365 305.946 263.141 306.865 264.515L306.889 264.511Z" fill="#FF8200"/>
<path d="M323.277 274.523L324.62 276.266C323.353 274.053 322.626 272.325 321.192 269.165C318.614 266.555 317.838 266.294 317.446 266.299C319.684 269.095 321.818 272.015 323.821 275.036L323.273 274.497L323.277 274.523Z" fill="#FF8200"/>
<path d="M329.839 284.849C328.159 283.806 325.002 279.635 325.736 283.036C327.422 285.754 328.053 286.685 328.701 287.236C329.305 287.82 329.852 288.035 330.891 289.715C325.765 280.466 332.894 292.088 329.786 284.992C330.957 286.734 331.896 288.402 332.655 290.016C331.96 288.176 331.23 286.422 330.543 284.797L330.582 285.061L330.638 285.107C330.734 285.579 330.738 285.767 330.562 285.253C330.558 285.227 330.466 285.106 330.434 285.056C330.266 285.082 330.078 284.975 329.863 284.846C328.572 281.987 329.847 284.254 330.434 285.056C330.506 285.046 330.59 285.114 330.634 285.08L330.626 285.027C329.707 283.491 328.74 281.962 327.717 280.549C326.71 279.08 325.731 277.634 324.64 276.259C325.227 277.224 325.879 278.287 326.722 279.646C327.569 281.031 328.644 282.625 329.859 284.819L329.839 284.849Z" fill="#FF8200"/>
<path d="M321.408 327.243C321.716 327.331 321.704 327.414 321.74 327.49C322.32 327.267 322.548 327.152 321.408 327.243Z" fill="#FF8200"/>
<path d="M325.344 327.32C324.704 327.633 324.212 328.275 321.9 328.407C319.904 328.195 321.868 327.872 321.712 327.49C320.444 327.87 316.987 328.554 321.359 328.894C321.595 328.831 321.807 328.772 322.039 328.683C323.999 328.658 326.356 328.654 328.164 328.435C329.884 328.284 331.444 327.887 331.068 328.159L328.6 327.748C327.736 327.554 326.748 327.514 325.364 327.29L325.344 327.32Z" fill="#FF8200"/>
<path d="M336.197 308.61L334.895 304.376L333.318 300.264C333.477 301.807 333.676 303.29 333.803 304.784L334.263 304.417C335.248 309.32 335.629 308.101 336.197 308.61Z" fill="#FF8200"/>
<path d="M316.843 264.741L318.379 264.834C316.96 263.886 315.48 263.029 314.025 262.168C314.964 263.026 315.924 263.854 316.819 264.745L316.843 264.741Z" fill="#FF8200"/>
<path d="M309.409 256.507L310.349 256.068C309.55 255.486 308.758 254.957 307.938 254.405C308.438 255.113 308.933 255.795 309.409 256.507Z" fill="#FF8200"/>
<path d="M226.196 115.049L224.004 114.515C225.032 114.819 225.692 114.962 226.196 115.049Z" fill="#FF8200"/>
<path d="M241.206 121.805L241.75 121.507C240.954 121.438 240.618 121.489 241.206 121.805Z" fill="#FF8200"/>
<path d="M244.296 237.856C247.042 240.279 250.04 243.393 250.069 242.119L249.494 240.585C247.25 239.707 245.611 238.766 244.268 237.834L244.296 237.856Z" fill="#FF8200"/>
<path d="M352.169 203.544L352.592 204.561C353.412 204.951 354.139 205.381 354.831 205.736C354.064 205.042 353.144 204.316 352.193 203.541L352.169 203.544Z" fill="#FF8200"/>
<path d="M347.37 204.757L344.968 200.715C345.46 201.695 346.219 202.985 347.37 204.757Z" fill="#FF8200"/>
<path d="M199.924 112.418C200.5 112.331 200.968 112.179 201.38 111.982C200.84 111.658 200.492 112.116 199.924 112.418Z" fill="#FF8200"/>
<path d="M222.911 190.456C220.496 188.605 218.501 187.258 216.697 186.206C219.58 188.554 221.694 190.856 222.911 190.456Z" fill="#FF8200"/>
<path d="M236.031 106.192C234.647 105.806 234.007 105.795 233.971 106.043C235.383 106.452 236.239 106.593 236.031 106.192Z" fill="#FF8200"/>
<path d="M209.089 182.141C209.508 182.483 209.948 182.795 210.392 183.133C212.387 183.994 214.403 184.825 216.698 186.208C214.571 184.475 211.988 182.812 209.113 182.138L209.089 182.141Z" fill="#FF8200"/>
<path d="M291.038 104.192C290.842 104.033 290.598 103.88 290.426 103.717C290.294 103.818 290.59 103.989 291.038 104.192Z" fill="#FF8200"/>
<path d="M205.101 57.5277C206.037 57.7107 207.525 58.1348 208.957 58.5132C208.277 58.2375 207.125 57.9249 205.101 57.5277Z" fill="#FF8200"/>
<path d="M277.581 226.923C279.36 228.303 277.921 227.061 277.581 226.923V226.923Z" fill="#FF8200"/>
<path d="M283.553 237.556C283.129 237.35 282.746 237.246 282.573 237.407C282.853 237.311 283.205 237.366 283.553 237.556Z" fill="#FF8200"/>
<path d="M186.88 179.112L186.72 179.028C187.232 179.491 187.148 179.423 186.88 179.112Z" fill="#FF8200"/>
<path d="M279.933 229.51C279.346 228.87 278.67 228.134 277.87 227.39C278.194 227.746 278.81 228.41 279.933 229.51Z" fill="#FF8200"/>
<path d="M279.875 228.791C280.447 229.326 280.903 229.744 281.354 230.135C281.678 230.167 281.542 229.917 279.875 228.791Z" fill="#FF8200"/>
<path d="M275.106 225C276.134 225.791 277.038 226.573 277.897 227.389C277.597 227.029 277.477 226.885 277.605 226.92C277.078 226.513 276.33 225.95 275.106 225Z" fill="#FF8200"/>
<path d="M335.006 172.42L335.43 172.626C337.594 172.651 336.662 172.494 335.006 172.42Z" fill="#FF8200"/>
<path d="M300.351 245.91L300.111 245.946L300.39 246.011L300.327 245.913L300.351 245.91Z" fill="#FF8200"/>
<path d="M307.838 246.563C304.518 247.334 302.718 246.795 300.39 246.011L302.332 249.77L307.834 246.536L307.838 246.563Z" fill="#FF8200"/>
<path d="M198.056 106.4C199.112 106.889 199.971 107.381 200.659 107.871C200.494 108.734 200.598 109.096 200.766 109.395C200.934 109.694 201.47 109.991 202.465 110.895C199.986 108.621 200.994 108.631 201.97 108.754C202.222 108.797 202.47 108.814 202.718 108.83C202.818 108.842 202.742 108.827 203.018 108.866L203.826 109.015L205.338 109.273C207.246 109.552 208.638 109.505 209.035 108.715L212.154 110.514C211.218 110.169 211.018 110.307 210.11 109.985C216.032 113.766 215.523 109.088 223.688 112.773C226.5 114.159 228.335 115.423 226.243 115.063C228.467 115.646 230.654 116.315 232.862 116.955C234.685 117.815 234.033 118.21 232.21 117.351L237.073 119.319L241.891 121.483L241.779 121.554C243.323 121.699 246.735 122.346 248.375 122.801C250.577 124.549 247.031 122.518 247.482 123.233L253.009 125.209C254.756 127.188 250.113 125.7 246.57 123.695C248.356 126.586 249.468 126.959 251.42 127.529C253.323 128.107 256.103 128.795 260.776 132.764L255.806 130.407C258.072 134.036 262.159 135.419 266.9 139.837C266.017 138.376 257.466 130.67 263.372 133.048C264.844 134.177 266.807 135.475 270.042 136.743C269.501 137.878 272.524 139.367 276.079 141.614L275.07 142.9C279.053 145.055 279.158 144.121 281.745 145.001C285.903 147.994 286.058 149.834 286.497 151.443C292.934 156.524 282.976 146.328 290.949 151.825C293.571 154.077 295.79 155.931 298.337 157.681C299.597 158.545 300.928 159.398 302.368 160.315C303.787 161.263 305.318 162.302 307.01 163.424C310.352 167.027 305.798 163.688 306.837 165.206L310.828 166.928C311.595 167.623 311.099 167.751 310.859 167.788C313.818 169.827 312.04 166.664 316.498 170.179C318.794 169.779 323.439 180.236 329.597 183.791C330.504 185.411 328.365 183.923 328.324 184.794C335.869 190.869 334.693 190.074 341.206 194.846C342.461 196.818 343.76 198.756 344.927 200.796C342.59 196.042 347.655 200.006 352.133 203.653C351.418 201.843 350.791 200.29 350.3 199.31C352.422 201.502 354.629 203.601 356.644 205.891C357.123 206.953 356.159 206.585 354.772 205.849L356.063 206.924C357.621 209.931 355.889 209.192 353.834 207.935C353.399 206.839 352.964 205.743 352.532 204.674C350.405 203.59 348.309 202.717 347.925 203.747C348.441 204.075 349.268 204.842 350.115 205.74C349.56 205.473 349.148 205.346 349.196 205.663C349.247 206.006 350.131 206.494 351.342 207.365L351.281 210.211L352.105 210.141C354.163 213.532 356.416 216.92 358.266 220.234C361.209 222.978 363.999 225.367 366.037 229.112C367.056 230.984 367.738 233.232 367.82 235.894C367.827 238.54 367.153 241.56 365.499 244.429C365.868 242.645 365.384 242.204 364.848 242.069C364.288 241.937 363.54 242.023 362.945 241.492C364.373 240.709 365.263 238.468 365.308 236.003C365.422 233.5 364.679 231.019 363.889 228.22C364.599 231.139 363.612 230.612 363.256 230.044C364.518 232.88 364.856 235.936 364.01 239.278C362.959 238.491 362.437 240.731 360.496 242.347C361.98 242.421 361.355 244.298 359.425 246.318C357.556 248.41 354.507 250.004 352.562 251.108C352.286 250.744 352.331 250.224 353.027 249.633C353.712 248.962 354.988 248.311 357.025 247.004C355.685 247.395 354.736 247.781 353.944 248.387C353.1 248.974 352.419 249.671 351.687 250.348C350.222 251.704 348.485 253.046 345.425 252.616C346.745 252.417 347.457 252.418 347.89 251.866C346.473 252.566 343.805 252.942 341.705 252.853C339.609 252.791 338.101 252.397 339.001 252.018L340.345 251.977C338.109 251.963 335.265 251.825 332.169 251.643C329.085 251.379 325.809 251.144 322.745 251.011C316.67 250.604 311.55 250.349 310.701 251.396C310.653 251.079 312.235 248.868 312.843 248.506C309.962 249.427 307.078 249.997 304.145 250.736C301.205 251.423 298.22 252.143 295.224 252.622C296.981 251.087 292.332 245.169 300.044 246.006C297.913 245.22 295.349 244.174 290.661 243.692C292.061 244.346 293.795 247.38 291.727 247.017C286.605 243.494 288.085 244.837 281.759 240.983C283.838 242.074 280.705 244.248 277.233 243.043C277.882 242.783 277.695 240.083 279.035 240.178C275.943 240.185 272.871 240 269.739 239.904C272.015 240.183 270.821 237.634 269.174 236.154C269.841 237.161 261.987 233.104 259.672 232.4L262.995 234.573C260.667 233.465 258.864 232.9 257.272 232.599C255.7 232.269 254.384 232.17 253.052 232.128C250.4 231.961 247.636 232.026 243.093 229.415C244.453 229.48 247.219 227.47 242.812 224.622C241.476 224.715 238.42 225.122 234.584 224.917C230.828 224.592 226.205 223.885 222.006 221.762L220.903 219.983L214.445 216.716C216.873 217.025 221.236 217.961 225.764 219.007C230.383 219.851 235.091 220.951 238.354 221.755C235.272 219.221 237.843 220.32 232.881 217.367C231.506 215.575 236.085 217.937 237.536 218.772C233.838 216.223 230.023 213.881 226.445 211.151C226.136 213.008 217.063 206.893 216.81 208.309C218.938 209.555 221.157 210.598 223.296 211.761C225.476 212.864 227.599 214.084 229.83 215.044C229.698 215.956 227.302 216.02 224.01 214.868C220.723 213.743 216.38 211.804 212.61 208.618C210.995 206.538 215.699 207.126 215.803 206.515C214.536 206.247 207.854 201.987 207.455 200.967C208.658 201.623 209.918 202.162 211.182 202.728C209.183 200.868 207.244 199.891 205.18 198.743C203.165 197.588 201.01 196.319 199.059 193.48C197.464 191.856 195.459 187.188 194.555 187.702C196.041 191.693 192.997 197.068 190.233 196.485C189.986 196.145 187.979 193.746 185.993 190.993C184.051 188.206 182.024 185.188 181.409 183.876C179.776 180.043 187.745 185.19 186.339 181.89C185.934 182.14 184.135 181.115 183.399 180.632C182.013 178.598 184.952 180.344 181.35 176.645C179.625 177.256 174.395 168.617 178.73 175.879C176.248 173.579 175.581 172.409 174.202 170.591L171.17 175.722C172.13 176.226 173.322 176.802 175.101 177.533C173.75 175.738 181.143 175.758 185.878 177.367C185.457 177.674 186.297 178.682 186.688 179.163C195.922 183.579 200.568 186.715 208.981 191.227C209.593 192.026 213.431 194.689 211.407 194.454C212.715 194.824 214.075 194.89 216.67 196.308C221.008 200.49 210.844 193.324 213.898 197.132C214.638 196.344 221.108 199.529 224.983 201.133C224.776 200.084 222.713 198.774 220.221 197.556C217.71 196.368 214.747 195.274 212.795 194.542C213.648 192.55 221.024 193.923 230.149 198.274C237.247 202.039 232.483 201.38 233.803 201.829C246.346 210.285 246.473 205.43 256.1 214.082C259.493 218.19 254.906 216.585 255.305 218.092C249.735 214.69 247.473 211.573 243.783 209.077L247.992 212.738C246.057 211.949 242.27 209.792 240.455 208.174C241.91 209.846 247.188 213.426 253.109 217.693C259.075 221.927 265.612 227.019 269.889 231.129C271.788 232.004 274.823 233.897 273.808 232.375C272.813 231.634 271.797 230.922 270.806 230.207C268.748 227.141 277.116 233.308 273.73 229.902C278.036 232.413 283.091 235.001 288.072 240.193L288.15 242.342C288.322 241.857 285.201 238.573 283.417 237.653C286.096 238.978 290.348 246.495 293.939 247.034L290.878 242.849C295.092 245.564 300.794 248.54 305.035 253.547C303.953 250.279 303.892 252.639 301.747 248.018C302.477 250.258 299.539 247.379 296.749 244.828C293.962 242.303 291.404 239.988 293.018 243.04C290.845 238.235 287.574 237.053 284.033 231.644C283.873 232.208 285.12 233.803 281.17 230.238C280.894 230.199 280.35 230.011 280.01 229.873L279.75 229.615L279.934 229.858C279.702 229.784 279.678 229.788 279.998 229.956C280.833 230.938 281.481 231.812 281.632 232.33C278.945 231.601 272.472 226.282 269.889 225.105C267.578 222.968 271.237 225.415 270.198 223.897C268.926 223.278 267.654 222.659 266.367 222.097C266.648 220.866 260.727 215.464 266.981 219.33L261.707 215.289C258.853 212.478 254.651 209.032 251.644 207.649C249.185 205.669 244.514 204.32 247.201 205.05L238.196 200.032L238.248 199.727C229.672 194.132 219.566 190.604 210.162 183.269C207.035 181.903 203.764 180.722 198.79 177.852L198.159 176.434C196.127 175.66 193.252 174.013 190.613 172.628C187.954 171.273 185.546 170.123 184.534 170.249C183.055 168.257 179.141 166.389 174.642 164.555L141.074 150.814L166.184 178.797C170.581 183.699 175.91 188.92 179.016 192.261L180.056 191.509C183.814 195.589 188.004 198.794 193.281 203.023L193.638 201.807C196.105 203.353 198.867 205.881 201.862 208.807C204.88 211.729 208.374 214.714 212.032 217.485C211.32 217.484 209.521 215.972 208.33 214.747C211.959 219.279 217.085 222.018 221.964 224.74C224.459 225.985 226.966 227.147 229.302 228.469C230.457 229.133 231.589 229.799 232.656 230.53C233.764 231.2 234.784 231.938 235.767 232.762C238.071 233.55 239.57 234.539 240.937 235.63C240.725 235.527 240.541 235.446 240.385 235.389L241.245 235.88C242.113 236.587 242.988 237.347 244.024 238.028C243.204 237.314 242.421 236.676 241.725 236.132C243.384 237.044 246.02 238.078 248.623 239.063L249.246 240.752L249.85 241.013C252.161 242.663 252.022 241.414 251.055 239.885C252.395 240.305 253.602 240.663 254.622 240.752C255.977 243.547 261.485 242.959 263.595 246.207C265.655 245.869 276.825 250.425 278.794 248.508C278.818 248.828 279.538 249.206 278.146 248.767C280.973 249.935 283.848 251.095 286.58 251.305L287.483 253.222L294.312 252.759C298.022 254.739 299.57 255.722 295.454 255.937C300.326 256.175 302.298 256.229 304.049 256.451C305.809 256.564 307.405 256.89 311.522 256.513L311.009 257.509C313.917 257.908 318.645 257.195 320.309 258.295C321.88 258.949 324.684 259.472 328.268 259.958C331.832 260.474 336.179 260.818 341.052 260.732C345.896 260.623 351.264 259.921 356.354 257.857C361.519 255.808 366.046 252.289 369.305 248.178C366.996 248.823 368.725 247.266 370.455 244.736C372.264 242.248 373.583 238.294 372.523 237.616C373.416 236.536 374.006 233.124 374.268 237.137C374.692 230.832 373.447 226.32 372.173 222.757C370.803 219.208 369.125 216.544 366.51 214.344C366.427 212.979 368.474 215.48 368.234 214.382C367.679 213.79 366.012 212.177 365.756 211.135C365.501 210.093 366.996 211.867 368.123 212.994C365.222 208.893 363.259 207.433 361.751 206.714C360.252 206.049 359.251 206.416 358.307 206.829C356.194 202.42 354.559 200.694 351.48 198.997C350.925 197.271 349.675 194.677 353.492 198.991C351.638 196.299 341.342 183.209 339.973 184.226C339.546 183.183 336.963 180.871 336.276 180.38C331.419 175.034 330.959 174.59 325.878 169.71L327.097 171.282C323.933 170.814 322.631 167.552 318.302 163.91L318.542 163.874C314.225 158.851 312.929 158.236 311.846 157.4C310.678 156.658 309.687 155.781 305.174 151.085L305.049 152.536C303.856 153.256 301.878 151.204 299.403 148.47C296.949 145.707 293.771 142.539 290.58 140.751L292.359 142.941C288.744 141.271 284.997 133.353 281.754 130.735C281.131 130.019 283.078 131.211 284.19 131.746C276.07 124.461 282.293 132.356 275.496 128.464C274.649 126.917 278.096 127.478 273.646 124.502C271.703 122.363 259.225 119.22 253.496 114.438C254.635 115.806 255.774 117.174 252.371 115.931C247.384 113.631 239.789 106.888 234.48 107.013C233.897 106.56 233.709 106.292 233.729 106.099C232.705 105.822 231.409 105.369 229.966 104.911C228.502 104.483 226.934 104.017 225.394 103.574C222.319 102.714 219.431 101.961 218.083 102.137C217.456 100.746 215.573 99.6521 213.081 98.7581C211.813 98.3279 210.426 97.9158 208.954 97.5975C208.218 97.4383 207.482 97.2791 206.722 97.1236L204.25 96.6858C195.987 95.1223 190.239 95.4217 188.54 93.2735C182.996 92.9749 178.18 93.431 173.739 94.2627L173.531 93.8618C168.947 94.5531 166.058 95.4209 164.214 96.2123C163.313 96.5912 162.545 97.0313 162.037 97.4051C161.773 97.607 161.528 97.7789 161.336 97.9699C161.568 98.2051 161.876 98.4559 162.156 98.6838C161.923 99.4213 160.856 98.5286 160.46 98.3452C160.324 98.9061 160.127 99.3949 159.923 99.8309C164.369 103.267 167.612 105.56 171.27 107.845C174.913 110.025 179.156 112.275 185.07 115.193C184.882 115.572 184.749 115.997 184.641 116.419C185.669 116.885 187.208 117.977 189.383 119.54C191.498 121.031 194.189 122.922 197.184 125.036C201.714 128.379 207.436 131.973 212.954 134.221C212.794 134.299 212.466 134.403 211.586 134.103C214.661 135.449 217.876 137.234 221.107 139.124C224.338 141.014 227.485 143.16 230.524 144.917C236.598 148.404 241.852 151.178 244.925 149.904L253.328 152.392C243.102 147.424 255.544 151.14 251.538 148.502C253.618 149.269 256.105 150.785 257.468 151.849C258.847 152.857 259.043 153.503 256.492 152.537L255.792 151.967C253.119 153.613 268.508 158.154 267.703 159.653C288.402 167.824 308.79 175.556 328.951 180.485L326.965 178.056L333.952 179.785C335.727 180.652 336.179 181.854 331.179 180.608C333.642 182.29 339.731 181.642 339.943 181.259C349.682 183.978 335.746 182.729 338.762 183.355C340.126 183.609 341.529 183.802 342.893 184.056L341.998 183.651C345.442 183.537 345.862 182.744 351.898 184.022C355.677 185.154 353.725 185.556 355.228 185.924C355.2 186.063 355.712 186.202 357.552 186.357L366.487 187.981L363.077 185.875C367.117 185.806 371.46 187.258 367.521 184.908C368.229 185.368 369.297 185.775 370.629 186.141C371.297 186.338 372.012 186.527 372.772 186.682C373.412 186.856 374.596 187.056 375.808 187.278C377.016 187.474 378.276 187.689 379.584 187.897C380.8 187.984 381.904 187.818 383.124 187.769L384.924 187.66C385.256 187.745 385.412 187.316 385.648 187.091L386.289 186.292C386.753 185.79 387.078 185.174 387.43 184.58C387.811 184.01 388.083 183.374 388.327 182.716C389.493 180.028 389.691 177.107 389.273 174.334C388.855 171.56 387.828 168.987 386.858 166.783C386.294 165.652 385.919 164.952 385.487 164.207C385.06 163.488 384.668 162.844 384.337 162.273C383.605 161.168 383.106 160.297 382.834 159.798C380.507 157.556 378.089 155.354 375.678 153.367C373.319 151.399 370.901 149.198 368.274 146.757C369.425 148.204 369.24 150.232 364.767 145.962C368.448 144.651 356.98 137.465 354.411 132.314C357.045 136.429 340.318 121.878 344.626 128.144C340.708 124.79 345.066 126.835 342.356 123.839C331.88 117.693 320.754 107.565 307.667 100.218C307.27 100.521 309.149 102.399 306.078 101.403L300.19 95.4025C297.522 94.1568 296.801 96.3727 292.671 92.4299C293.195 93.1344 293.97 94.2061 292.155 93.3993C279.796 85.3484 266.079 79.5284 252.278 74.1263C245.38 71.3574 238.393 68.98 231.499 66.2375C224.544 63.7472 217.682 60.8918 210.816 58.01C214.446 59.9479 211.875 59.3361 208.983 58.5565C210.839 59.3032 208.71 59.6782 208.966 60.3961C205.195 58.6684 201.34 57.1966 197.477 55.672C196.244 56.29 193.081 55.4974 189.993 54.8824C186.909 54.2938 183.95 53.7135 183.221 54.4177L187.021 54.8713C181.764 55.826 193.333 60.5921 192.156 63.0389C195.084 62.5974 198.579 64.2856 202.486 65.9387C206.385 67.7011 210.692 69.564 215.504 69.2436C217.356 70.2882 213.64 69.5787 214.58 70.4366C217.088 69.9773 219.828 70.7259 224.75 72.7661L224.126 72.8602C238.24 77.2427 243.958 80.4867 259.062 87.6915L258.319 86.0205C261.558 87.6393 262.125 88.3101 263.549 89.2841C267.953 89.1873 254.347 85.0795 258.456 84.6491C262.053 88.8073 281.593 95.3161 283.306 99.6773C288.217 102.287 282.404 97.5982 287.314 100.208L288.309 101.597L289.942 101.351C293.112 103.169 294.283 105.073 294.155 105.687C293.415 105.177 291.899 104.568 291.056 104.182C294.798 107.346 302.74 110.525 304.011 111.63L299.589 108.514C313.089 115.502 328.118 126.77 340.765 134.453L340.17 133.273C349.714 139.425 347.158 139.243 357.03 146.913L356.61 146.733C358.845 147.882 361.656 149.754 364.151 152.134C361.384 150.552 367.855 157.167 364.309 154.973C369.258 158.657 370.542 159.517 371.51 159.912C372.461 160.363 373.034 160.087 376.36 162.287C376.536 162.963 376.711 163.639 376.815 164.326C377.935 165.075 378.586 165.49 379.418 166.284C380.173 167.061 381.348 168.505 382.403 170.777C381.144 168.941 381.219 169.929 381.131 170.645C381.051 171.413 380.794 171.83 379.635 170.492C379.97 172.387 380.165 173.681 380.176 175.057C380.203 176.377 379.934 177.687 379.374 178.69C379.286 179.082 378.982 178.857 378.798 178.939L378.138 178.958C377.698 178.97 377.226 178.933 376.77 178.84C376.314 178.746 375.85 178.6 375.442 178.337C375.226 178.208 375.034 178.075 374.862 177.912C374.774 177.817 374.69 177.748 374.602 177.654L374.111 177.322C372.614 177.818 372.53 178.236 373.202 178.621C373.498 178.793 374.141 178.993 374.601 179.113C374.989 179.243 375.469 179.333 375.949 179.423C377.917 179.774 379.997 179.893 379.141 180.076C380.336 180.679 379.94 181.144 378.492 181.308C377.772 181.417 376.816 181.426 375.804 181.39C375.308 181.356 374.788 181.327 374.312 181.263C373.736 181.188 373.184 181.109 372.704 181.02C368.672 180.493 366.215 176.568 356.236 175.02C357.219 175.196 357.312 174.993 358.319 175.165C354.672 173.932 350.892 174.745 346.469 172.765C343.668 173.889 340.561 171.521 339.492 173.385C342.544 173.924 345.644 174.294 348.708 174.75C346.068 174.5 343.459 174.785 340.427 174.702C337.411 174.563 334 174.078 329.836 172.517C330.581 172.243 333.217 172.305 334.997 172.387C332.609 171.208 330.129 171.69 327.662 170.468C328.767 168.518 338.797 172.679 344.585 172.157C342.03 170.841 333.905 171.336 337.03 169.758C332.581 171.671 327.344 167.22 320.295 167.526L320.988 166.422C319.896 166.344 317.588 166.341 315.664 165.793L319.493 165.135C313.797 165.129 309.419 161.008 304.124 160.239C314.866 163.428 306.198 162.439 310.541 164.702C296.878 162.332 303.616 159.316 288.795 154.96C290.834 155.463 296.085 158.21 292.817 157.703C290.082 156.495 286.495 154.847 284.996 153.533C275.286 150.189 286.126 155.335 281.807 154.528C278.921 151.829 276.892 153.351 272.5 152.23L272.833 151.018C262.172 145.764 269.152 152.33 259.591 147.369L264.287 147.417L259.024 145.725L260.533 144.822C254.673 143.41 253.038 142.332 247.784 139.559C248.731 140.956 246.274 141.434 241.532 139.124C238.561 136.843 243.756 138.896 237.002 135.782C238.794 135.782 240.814 135.666 243.304 138.181C243.737 137.954 245.069 138.158 245.525 137.927C242.374 135.431 236.907 133.527 234.472 132.354C235.38 132.838 236.479 133.456 236.987 133.893C233.524 132.902 230.152 131.709 226.717 130.579C225.378 129.349 226.746 129.629 228.065 129.916C226.066 129.029 224.518 128.857 221.603 127.433C222.747 126.882 222.98 125.82 227.187 127.509C224.004 126.26 220.824 125.038 217.693 123.646C217.262 122.9 213.596 119.914 214.923 120.254C212.58 118.555 209.305 117.346 205.926 115.776L203.343 114.599L202.047 113.983C201.675 113.796 201.035 113.461 201.015 113.491C200.443 113.28 199.88 112.96 199.596 112.543C199.308 112.586 198.912 112.565 198.26 112.312C197.368 111.609 197.053 110.981 196.637 110.504C196.165 109.981 195.666 109.597 192.938 108.441L192.203 108.12C192.907 108.23 193.686 108.355 194.502 108.556L197.362 109.287C197.162 108.939 195.227 108.312 192.903 107.717C190.655 107.137 187.98 106.487 189.336 105.553C190.245 104.903 191.64 105.368 192.92 106.04C194.224 106.707 195.727 107.561 196.655 107.854C195.995 107.224 195.384 106.262 195.98 105.821C196.5 105.365 198.276 105.421 200.068 106.556C199.468 106.808 198.624 106.422 197.972 106.493L198.056 106.4ZM263.2 132.885C261.717 132.325 258.669 131.488 257.99 130.24C260.138 129.835 261.049 131.156 263.2 132.885ZM358.102 215.072C357.062 214.364 356.079 212.73 355.112 210.714C356.124 211.885 357.151 213.324 358.102 215.072ZM257.373 212.755C257.373 212.755 257.269 212.717 257.193 212.701C254.45 210.143 255.426 211.077 257.373 212.755ZM263.249 217.704C263.961 218.029 264.005 217.833 263.834 217.508C263.238 217.463 261.878 216.425 260.347 215.224C260.631 215.803 261.29 216.595 263.253 217.731L263.249 217.704ZM356.261 185.444L354.901 184.893C358.113 185.03 357.185 185.224 356.261 185.444Z" fill="#FF8200"/>
<path d="M347.939 204.641C347.792 204.15 347.876 203.894 347.96 203.638C347.416 203.288 347.24 203.423 347.939 204.641Z" fill="#FF8200"/>
<path d="M199.593 112.473C199.593 112.473 199.621 112.496 199.648 112.518C199.744 112.504 199.84 112.489 199.929 112.422L199.617 112.47L199.593 112.473Z" fill="#FF8200"/>
<path d="M184.867 179.28C185.839 180.511 186.274 181.283 186.534 181.865C186.778 181.693 186.454 181.013 184.867 179.28Z" fill="#FF8200"/>
<path d="M295.753 241.794L291.879 238.731C293.686 240.295 294.17 241.06 294.953 242.022C295.053 241.71 294.59 240.753 295.749 241.767L295.753 241.794Z" fill="#FF8200"/>
<path d="M319.653 279.333C320.173 279.849 320.532 280.605 321.048 281.095L321.364 280.588C319.582 278.047 318.031 276.552 319.653 279.333Z" fill="#FF8200"/>
<path d="M296.681 248.11C296.333 249.217 298.812 251.004 301.39 253.29C301.246 253.149 301.102 253.009 300.958 252.868C302.595 252.487 299.676 250.225 296.681 248.11Z" fill="#FF8200"/>
<path d="M301.968 253.853C302.759 254.544 303.539 255.318 304.246 256.102C304.89 255.978 303.423 255.038 301.968 253.853Z" fill="#FF8200"/>
<path d="M271.294 223.007C272.437 224.239 272.818 222.534 273.302 223.46C275.438 223.462 263.925 218.093 271.294 223.007Z" fill="#FF8200"/>
<path d="M296.61 252.709L296.503 250.861L294.488 250.354L296.61 252.709Z" fill="#FF8200"/>
<path d="M277.032 234.191C278.351 235.451 279.71 236.651 281.009 237.941C281.073 237.715 281.665 238.058 282.353 238.549C279.854 236.305 277.148 233.822 277.032 234.191Z" fill="#FF8200"/>
<path d="M282.352 238.547C283.655 239.702 284.922 240.78 285.798 241.215C285.071 240.623 283.523 239.316 282.352 238.547Z" fill="#FF8200"/>
<path d="M290.915 247.955L289.887 246.678L287.109 244.044L290.915 247.955Z" fill="#FF8200"/>
<path d="M230.032 200.405C228.321 199.474 226.573 198.63 224.87 197.752C224.174 197.857 225.413 198.913 227.368 199.834C228.708 200.253 230.604 201.264 230.056 200.401L230.032 200.405Z" fill="#FF8200"/>
<path d="M243.259 213.055C242.084 211.936 242.136 211.631 241.589 210.768L240.684 212.093L243.259 213.055Z" fill="#FF8200"/>
<path d="M228.836 204.226C228.156 204.274 221.094 201.071 227.412 204.711C228.108 204.606 233.186 207.352 228.836 204.226Z" fill="#FF8200"/>
<path d="M188.484 189.084L187.413 188.003L185.924 190.173L188.484 189.084Z" fill="#FF8200"/>
<path d="M253.969 227.594C248.231 224.056 251.94 228.467 246.85 224.993C245.19 224.892 251.012 227.85 249.381 227.61C253.264 228.781 255.027 230.055 253.973 227.62L253.969 227.594Z" fill="#FF8200"/>
<path d="M249.354 227.611C248.738 227.434 248.07 227.237 247.334 227.078C248.446 227.451 249.002 227.556 249.354 227.611Z" fill="#FF8200"/>
<path d="M189.698 52.4194L185.483 51.0018L188.106 52.4433L189.698 52.4194Z" fill="#FF8200"/>
<path d="M181.179 52.7551L180.4 50.8464L177.635 51.8846C178.611 52.0076 180.511 52.2344 181.203 52.7514L181.179 52.7551Z" fill="#FF8200"/>
<path d="M271.958 142.244L272.422 142.066C272.062 141.31 271.219 140.762 269.523 139.613L271.958 142.244Z" fill="#FF8200"/>
<path d="M220.692 114.69L221.608 115.065L220.301 112.912L220.692 114.69Z" fill="#FF8200"/>
<path d="M201.759 110.575C201.943 110.656 201.211 110.199 201.471 110.295C201.695 110.477 200.631 109.935 199.931 109.689C199.231 109.444 199.131 109.432 201.759 110.575Z" fill="#FF8200"/>
</g>
<defs>
<clipPath id="clip0_377_1205">
<rect width="241.651" height="302.604" fill="white" transform="translate(411.545 322.021) rotate(171.425)"/>
</clipPath>
</defs>
</svg>
