<svg width="424" height="58" viewBox="0 0 424 58" fill="none" xmlns="http://www.w3.org/2000/svg">
<path d="M270.253 1.28978C270.425 1.49924 270.671 2.07423 270.925 2.07834C273.031 2.10298 275.141 2.0578 277.247 1.97155C280.345 1.84424 283.443 1.66352 286.733 1.49514C286.528 1.97155 286.352 2.38226 286.151 2.85457C289.847 3.57741 293.277 3.47884 296.743 1.35139C297.805 3.73348 299.858 2.35761 301.701 1.9428C302.812 1.69227 303.701 1.6471 304.91 1.97566C307.438 2.65743 310.155 2.65332 312.793 2.89975C313.035 2.92439 313.396 2.79707 313.535 2.61636C315.108 0.513548 317.612 0.575153 319.792 0.0740923C320.96 -0.192866 322.308 0.332839 323.75 0.525871C323.181 2.21798 322.886 3.92651 325.561 4.19758C325.811 4.22222 325.959 5.26952 326.217 6.02111C327.844 5.82808 328.876 2.56707 331.244 4.8547C331.056 5.02309 330.765 5.28594 330.204 5.79111C331.023 6.1936 331.72 6.53449 332.576 6.95752C332.81 6.08682 332.957 5.53647 333.109 4.95738C336.604 6.87126 339.903 5.79933 343.201 4.72328C343.562 4.60417 344.094 4.14829 344.193 4.23864C345.926 5.82397 347.483 4.0949 349.093 4.08668C351.773 4.07026 354.453 4.57953 357.137 4.7972C358.362 4.89577 359.599 4.79721 360.833 4.84649C362.746 4.92042 364.709 4.80542 366.553 5.21202C368.249 5.58987 369.806 6.08271 371.445 5.14219C371.769 4.95738 372.404 4.78078 372.576 4.94095C373.719 6.017 374.965 5.2613 376.161 5.24077C376.641 8.79747 380.427 6.26753 381.632 8.51409C382.062 7.55714 382.406 6.79323 382.57 6.4277C384.127 6.67002 385.467 7.13411 386.758 7.02322C390.052 6.73573 392.912 7.96785 395.67 9.3971C396.702 9.93102 397.272 9.96388 398.19 9.38067C399.177 8.7523 400.312 8.35391 401.382 7.85696L401.64 8.30052C401.033 8.85497 400.427 9.40943 399.751 10.0255C400.48 10.6949 401.185 11.3356 401.886 11.9804L402.23 11.6971C402.029 11.2576 401.832 10.8181 401.611 10.3335C402.615 9.9762 403.607 9.62299 404.688 9.24104C404.631 10.0419 404.582 10.7606 404.529 11.5369H405.643C406.196 10.5512 406.676 9.69692 407.409 8.38677C407.798 10.1569 408.052 11.311 408.376 12.7649C410.421 12.6006 412.756 12.2392 415.08 12.2926C416.501 12.3254 417.886 13.1222 419.325 13.3399C420.382 13.5 421.496 13.2495 422.586 13.2413C423.058 13.2413 423.529 13.3892 424 13.4713C423.725 13.9354 423.48 14.7814 423.168 14.802C421.468 14.9334 419.747 14.8636 417.813 14.8636C415.969 17.5085 412.064 14.8964 409.687 17.0732C409.007 15.0813 407.491 15.5577 406.172 15.7014C405.5 15.7754 404.84 16.0834 404.221 16.3832C403.992 16.4941 403.709 16.9828 403.787 17.1389C403.951 17.4798 404.283 17.8166 404.627 17.9808C405.43 18.3587 406.282 18.638 407.02 19.291C405.094 19.558 403.164 19.829 400.906 20.1411C401.517 20.597 401.857 20.8476 402.652 21.4431C400.792 22.0058 399.28 22.4657 397.346 23.0489C398.681 23.5377 399.571 23.8662 400.46 24.1907L400.402 24.8684C398.726 25.2996 397.067 26.0101 395.371 26.1046C392.064 26.2894 388.704 25.8541 385.426 26.2114C382.98 26.4783 380.21 26.0307 378.161 28.1294C377.854 28.4456 377.19 28.4661 376.678 28.5195C371.839 29.0206 366.999 29.5299 362.152 29.9652C360.886 30.0802 359.558 29.7352 358.317 29.9447C355.58 30.4088 352.888 31.1563 350.155 31.6573C349.2 31.8339 348.167 31.6696 347.18 31.5793C345.897 31.4561 344.623 31.1275 343.34 31.1029C339.911 31.0413 336.481 31.0906 333.052 31.1029C332.646 31.1029 332.244 31.1768 331.839 31.2014C330.4 31.2918 328.958 31.3698 327.52 31.4643C325.615 31.5916 323.676 31.5629 321.808 31.8996C318.46 32.5034 315.211 32.2282 311.867 31.7148C309.88 31.4109 307.737 31.9941 305.684 32.3103C302.881 32.7416 300.083 33.756 297.313 33.6616C294.662 33.5712 292.003 33.563 289.351 33.5055C285.844 33.4275 282.332 33.3987 278.829 33.5548C275.891 33.6821 272.966 34.1503 270.028 34.3516C269.356 34.3967 268.655 33.9696 267.737 33.6944C267.446 34.101 267.09 34.598 266.668 35.1935C265.565 34.3516 264.807 33.9532 263.48 35.0169C262.623 35.7028 260.747 35.0867 259.329 35.1073C257.592 35.1319 255.854 35.2017 254.117 35.2756C253.785 35.2921 253.4 35.5878 253.138 35.4892C249.311 34.1133 245.713 36.2408 241.972 36.1792C238.583 36.1217 235.186 36.212 231.798 36.286C231.064 36.3024 230.335 36.5037 229.61 36.6679C227.34 37.1772 225.094 37.9042 222.8 38.1547C221.189 38.3313 219.518 37.8056 217.862 37.7193C217.243 37.6865 216.592 37.9781 215.973 38.1793C214.199 38.7543 212.466 39.6209 210.528 38.7379C210.175 38.5777 209.737 38.4832 209.352 38.5161C204.848 38.894 200.341 39.2431 195.846 39.7236C193.81 39.9413 191.802 40.4341 189.782 40.7996C189.716 40.8119 189.626 40.8612 189.585 40.8325C186.971 39.28 184.381 40.9885 181.767 40.9146C178.661 40.8284 175.535 40.9803 172.437 41.2678C170.2 41.4732 168.012 42.1714 165.779 42.4589C161.587 43.001 157.362 43.3049 153.179 43.9046C150.343 44.3112 147.569 45.1449 144.742 45.609C143.431 45.8225 142.05 45.5392 140.706 45.6131C139.19 45.6952 137.682 45.9458 136.17 46.0895C134.551 46.2456 132.925 46.3072 131.314 46.5125C130.311 46.6399 129.2 46.7261 128.36 47.2148C125.947 48.6277 123.267 48.1348 120.718 48.4921C118.493 48.8084 116.223 48.9932 113.982 48.9357C109.716 48.8248 105.643 49.8064 101.497 50.5621C97.4648 51.2972 93.2853 51.1658 89.2001 51.6464C86.967 51.9092 84.7994 52.7183 82.5785 53.1619C81.5705 53.3631 80.5011 53.2317 79.4685 53.322C78.2843 53.4247 77.1002 53.5849 75.9242 53.7656C73.4943 54.1434 71.0727 54.5993 68.6347 54.9279C67.3808 55.0963 66.086 54.9484 64.8404 55.1456C63.5456 55.3468 62.2999 56.0409 61.0133 56.082C56.3667 56.2421 51.7078 56.0861 47.0654 56.312C44.3446 56.4434 41.6525 57.158 38.9318 57.425C36.9527 57.618 34.9449 57.4784 32.9535 57.5441C29.7042 57.655 26.3893 58.2998 23.2301 57.8316C18.7269 57.1662 13.9574 57.6796 9.75338 55.2565C8.75768 54.6815 7.49974 54.5747 6.418 54.1229C5.70913 53.8231 5.05353 53.3426 4.44709 52.8497C3.40223 52.0037 2.2959 51.1823 1.43952 50.1637C0.763427 49.3587 -0.236367 47.9459 0.0504591 47.3627C1.85337 43.6828 0.0381663 39.9454 0.554453 36.3681C0.935522 33.7437 -0.453536 31.1398 1.02157 28.4785C1.66488 27.3203 0.939619 25.431 0.923229 23.8745C0.915034 23.0654 1.09532 22.2522 1.17318 21.6033C1.93532 20.3301 2.76301 19.1267 3.41042 17.8289C4.34056 15.9725 5.35674 14.5022 7.56121 13.7259C11.5358 12.3254 15.2891 10.2924 19.2514 8.84676C21.3493 8.08284 23.6931 7.99249 25.9304 7.60642C27.594 7.31893 29.487 7.65161 30.118 5.21612C30.241 4.74381 32.5765 4.18525 33.1953 4.63292C34.6909 5.71718 35.7808 5.3229 37.0756 4.57131C37.5018 4.32489 38.0385 4.09079 38.5016 4.13186C39.7431 4.23865 40.9683 4.66578 42.2016 4.66578C44.7585 4.66578 47.3235 4.32079 49.8763 4.38239C52.6585 4.44811 55.1334 5.46665 57.3665 7.23679C58.2925 7.97196 59.6324 8.18552 60.7879 8.62908C62.3122 9.21228 63.8447 10.2801 65.3608 10.2514C68.0733 10.2062 70.4048 11.4013 72.8797 11.7833C74.8588 12.0872 76.9649 11.6847 78.9072 12.7197C79.2841 12.921 80.0258 13.0236 80.2716 12.8018C82.6031 10.6949 85.2501 12.2556 87.7291 12.0297C88.7207 11.9394 89.6631 11.4383 90.6506 11.2206C92.011 10.9167 93.3796 10.6087 94.7645 10.4773C97.473 10.2144 100.19 10.0419 102.906 9.89816C103.767 9.85298 104.652 10.1405 105.508 10.0624C106.819 9.94334 108.364 10.0091 109.364 9.3355C111.527 7.8816 113.519 9.47103 115.592 9.31907C117.321 9.18764 118.805 9.31085 119.702 7.54893C121.853 8.78104 123.877 8.22249 126.024 7.75017C127.332 7.46268 128.827 8.01302 130.237 8.18552C132.519 8.46069 134.793 8.71533 135.449 5.5529C137.682 6.3702 139.747 7.14233 141.833 7.87339C142.201 8.00071 142.705 8.09106 143.029 7.9391C145.725 6.66181 148.581 7.1793 151.388 7.0068C153.453 6.87948 155.482 6.17717 157.543 5.88146C161.865 5.2613 166.197 4.66578 170.536 4.2099C173.355 3.91419 176.203 3.78276 179.038 3.75401C182.054 3.72526 185.078 4.0374 188.09 3.94705C190.126 3.88544 192.138 3.24474 194.174 3.11331C196.801 2.94082 199.448 3.09688 202.078 2.95724C204.373 2.83814 206.655 2.46029 208.954 2.28369C210.388 2.1728 211.831 2.22619 213.269 2.18923C215.4 2.13173 217.534 2.06191 219.665 1.9962C223.365 1.88531 227.069 1.77852 230.769 1.67585C231.245 1.66353 231.806 1.54031 232.179 1.74155C234.519 3.01063 236.518 2.02905 238.739 1.21585C240.263 0.657293 242.144 1.07621 243.869 1.06389C247.508 1.03514 251.216 1.43763 254.756 0.829788C257.19 0.410869 259.231 1.34317 261.464 1.34317C261.972 1.34317 262.484 1.19943 262.984 1.07211C263.418 0.961219 263.849 0.620332 264.258 0.653188C266.27 0.813363 268.274 1.068 270.249 1.28157L270.253 1.28978Z" fill="#FFEF00"/>
</svg>
