<svg width="367" height="66" viewBox="0 0 367 66" fill="none" xmlns="http://www.w3.org/2000/svg">
<path d="M232.367 43.6814C231.941 41.2202 230.732 40.4568 228.807 40.7369C227.154 40.976 225.49 41.1728 223.847 41.4668C223.376 41.5502 222.679 41.7922 222.548 42.1596C221.857 44.0753 220.273 43.4127 219.026 43.6561C218.811 43.6991 218.535 43.1483 218.236 42.9989C217.785 42.7749 217.246 42.4607 216.807 42.5429C214.972 42.8959 213.091 43.9324 211.354 43.6765C209.222 43.3604 207.376 42.4787 205.317 44.1743C204.621 44.7483 203.046 44.0087 201.877 44.036C201.407 44.0469 200.948 44.5047 200.659 44.6616C199.544 44.5588 198.412 44.3247 197.296 44.3795C195.963 44.4476 194.641 44.7794 193.314 44.9666C192.929 45.0209 192.301 45.1279 192.178 44.9285C190.949 42.9308 189.893 44.0565 188.788 45.0224C188.654 45.143 188.413 45.1402 188.216 45.1569C185.272 45.424 182.317 45.6276 179.379 45.9753C177.826 46.1591 176.31 46.6693 174.763 46.8954C172.383 47.2413 169.99 47.5706 167.593 47.7127C165.331 47.8493 163.055 47.6626 160.791 47.7652C159.971 47.7992 159.179 48.3347 158.352 48.5053C157.216 48.7442 155.953 49.2481 154.925 48.9331C152.843 48.2911 151.222 49.1294 149.497 50.0103C149.025 50.2514 148.433 50.2675 147.892 50.2857C146.049 50.3494 144.197 50.2815 142.358 50.426C140.55 50.565 138.764 50.9415 136.962 51.1399C133.548 51.5202 130.127 51.8241 126.718 52.2297C125.837 52.3344 124.995 52.7953 124.116 52.9341C122.353 53.2075 120.579 53.4046 118.808 53.5719C117.473 53.6954 116.115 53.6198 114.791 53.8068C110.623 54.4016 106.477 55.1275 102.309 55.7094C100.266 55.9945 98.1864 55.9743 96.1434 56.2551C94.1672 56.5288 92.226 57.0737 90.255 57.377C87.2319 57.8476 84.1875 58.1827 81.1601 58.6449C79.1418 58.9502 77.148 59.4674 75.1231 59.7091C73.271 59.9266 71.3651 59.7033 69.5371 60.0262C66.1244 60.6279 62.7638 61.5342 59.3618 62.2036C58.5662 62.3602 57.6874 62.1326 56.8558 61.9925C54.5281 61.6035 52.2714 62.8302 49.8519 62.0405C48.7705 61.6893 47.3731 62.6758 46.0914 62.8313C44.5501 63.0146 42.9658 62.829 41.4339 63.0502C40.3026 63.2122 39.2272 63.768 37.9416 64.209C36.3915 63.4215 34.7368 62.9663 32.6024 63.6171C30.9362 64.125 29.0644 63.7726 27.6468 65.318C27.488 65.4907 26.7503 65.0442 26.278 64.8977C24.9292 64.4852 23.594 63.923 22.2193 63.7416C21.5398 63.6505 20.7964 64.3033 20.0642 64.5594C19.5579 64.7381 19.0129 64.9353 18.498 64.9056C16.7431 64.7996 14.9899 64.4464 13.2408 64.4807C12.2656 64.4999 11.5825 64.7966 10.7127 63.7381C8.96846 61.6041 6.67579 59.9657 5.05442 57.7457C4.23773 56.6339 4.36305 54.7034 4.13169 53.1285C4.07689 52.7602 4.4677 52.2755 4.35979 51.9605C3.37069 49.0754 2.28455 46.2326 1.29168 43.3518C0.635789 41.4496 1.50646 39.1985 0.129708 37.4454C1.9632 36.3045 0.965008 34.4377 1.06247 32.8832C1.20216 30.6327 2.18561 30.0509 3.99384 28.8727C5.42126 27.9445 7.63854 27.7672 8.19177 25.3888C8.34261 24.7394 9.00808 24.0174 9.60154 23.75C11.1845 23.0454 12.9303 22.7429 14.4784 21.963C17.0253 20.6817 19.4324 19.0824 21.966 17.7675C22.79 17.3414 23.8209 17.3327 24.7689 17.2295C27.7587 16.9094 30.7549 16.6487 33.7448 16.3329C34.4018 16.263 35.0544 16.0868 35.6996 15.9237C36.0163 15.8424 36.3467 15.522 36.6142 15.5876C39.0415 16.1853 40.6987 14.5107 42.6062 13.4391C44.9886 12.1007 47.6292 12.221 50.2571 12.3206C51.1594 12.3556 52.0765 11.8873 52.9783 11.6241C53.72 11.4059 54.4376 11.0822 55.1893 10.9147C56.9396 10.5311 58.7 10.1981 60.4648 9.87781C60.9511 9.78947 61.4612 9.7981 61.9598 9.81573C62.6402 9.83434 63.3199 9.92964 63.9994 9.92698C64.7817 9.92431 65.5715 9.91282 66.3452 9.79976C67.0248 9.70339 67.6907 9.46703 68.5938 9.2336C70.7681 12.8746 73.6418 10.3316 76.3625 9.90772C76.9082 9.82118 77.4493 9.62407 77.9936 9.60147C80.5897 9.50645 83.1543 9.60442 85.7437 10.1103C87.2655 10.4091 88.9502 9.58525 90.5253 9.74133C92.8227 9.96965 95.0537 9.36163 97.3864 9.49052C100.535 9.66645 103.996 10.4215 107.132 8.77065C107.519 8.56718 108.054 8.51514 108.485 8.608C111.857 9.31135 115.289 8.80677 118.524 8.30188C122.023 7.7605 125.338 8.62804 128.729 8.45742C129.81 8.40404 130.89 8.23994 131.972 8.22057C135.225 8.1579 138.481 8.1675 141.734 8.08782C142.204 8.07683 142.653 7.58111 143.133 7.52711C145.831 7.22766 148.53 6.94521 151.237 6.7519C153.609 6.58527 156.036 6.80819 158.353 6.35846C159.729 6.09262 160.942 4.86238 162.017 4.19588C163.751 4.36242 165.445 4.63707 167.142 4.6646C170.166 4.70938 173.203 4.75368 176.211 4.49673C177.538 4.38625 178.781 3.21015 180.105 3.10834C182.322 2.93534 184.573 3.2806 186.815 3.31954C188.167 3.34432 189.546 3.33393 190.872 3.09147C191.44 2.98694 191.908 2.26045 192.329 2.31538C194.176 2.44315 196.017 2.63929 197.864 2.68185C200.514 2.74645 203.172 2.80647 205.814 2.67122C208.531 2.53285 211.234 2.16504 213.941 1.89077C214.067 1.87703 214.208 1.74341 214.316 1.773C216.643 2.4473 218.968 2.10372 221.291 1.78581C224.34 1.36957 227.501 3.17635 230.473 1.28954C230.627 1.19369 230.874 1.14085 231.034 1.20234C234.562 2.60629 238.203 0.563908 241.762 1.66416C242.158 1.78401 242.902 1.25049 243.231 0.798113C244.177 -0.497689 245.119 0.204337 246.18 0.539368C247.481 0.949613 248.84 1.30638 250.185 1.36124C252.695 1.4615 255.212 1.37401 257.721 1.26559C259.61 1.18713 261.494 0.789445 263.38 0.809115C265.597 0.832035 267.813 1.27248 270.035 1.29949C272.102 1.32438 274.173 1.05522 276.245 0.888281C276.631 0.859473 277.009 0.639322 277.392 0.631938C280.625 0.553072 283.863 0.39734 287.094 0.463372C291.384 0.54929 295.674 0.895074 299.964 0.968236C302.883 1.01744 305.801 0.781269 308.717 0.685741C311.759 0.584971 314.808 0.360402 317.85 0.430044C324.206 0.575034 330.56 0.869174 336.913 1.12504C338.852 1.20212 340.818 1.15882 342.717 1.51015C344.903 1.90922 347.027 2.71126 349.192 3.2773C349.803 3.43508 350.467 3.42883 351.101 3.39395C351.783 3.35286 352.456 3.18437 353.131 3.07541C353.198 3.26005 353.269 3.44451 353.336 3.6334C352.803 4.0176 352.219 4.33997 351.757 4.80217C351.366 5.19322 350.972 5.71217 350.86 6.24499C350.804 6.50716 351.345 7.1662 351.671 7.2208C352.097 7.28832 352.61 6.9944 353.031 6.74693C353.794 6.28929 354.589 5.83885 355.239 5.22405C355.966 4.5422 356.55 3.67883 357.563 2.45694C357.485 3.54205 357.438 4.20423 357.394 4.86625C357.343 5.63507 357.3 6.40781 357.253 7.17646C357.945 7.0881 358.634 6.94872 359.332 6.91973C359.995 6.89221 360.663 6.98375 361.332 7.02411C361.251 7.74304 361.171 8.46623 361.084 9.22801C360.055 8.80221 359.399 8.52701 358.744 8.25606C358.625 8.53786 358.506 8.81539 358.388 9.09718C359.412 9.60835 360.478 10.6162 361.454 10.5288C363.792 10.3167 364.361 11.7455 364.733 13.6596C365.04 15.2526 364.489 17.3797 366.909 17.7264C366.258 17.6385 365.606 17.5505 364.776 17.4402C365.286 18.8885 366.004 19.9875 365.977 21.0662C365.942 22.5031 365.349 23.929 364.966 25.3505C364.781 26.0397 364.528 26.7104 364.318 27.3538C363.568 27.9344 362.816 28.5875 362.001 29.1155C361.523 29.4249 360.945 29.6662 360.39 29.7148C357.961 29.9349 355.499 29.9306 353.661 32.1153C353.413 32.4111 352.703 32.3638 352.223 32.3114C349.429 32.01 346.713 31.8757 344.076 33.3823C342.845 34.0851 341.333 34.7783 339.847 33.5281C339.544 33.2766 338.949 33.3183 338.509 33.3877C336.009 33.7939 333.527 34.4549 331.01 34.6404C327.063 34.9278 323.09 34.7861 319.141 35.0565C317.526 35.1662 315.955 35.8746 314.361 36.3071C313.357 36.5788 312.33 36.7833 311.353 37.1348C310.85 37.3175 310.426 37.7568 309.969 38.0782C310.296 38.4224 310.622 38.7667 310.915 39.0697C309.006 39.149 307.046 39.3411 305.098 39.2431C304.504 39.2124 303.944 38.388 303.241 37.8251C301.343 39.7909 298.809 39.5724 296.216 39.1732C295.524 39.0656 294.79 39.3602 294.081 39.3342C291.426 39.24 288.769 39.0096 286.113 38.9794C282.989 38.9429 279.868 39.047 276.745 39.1085C274.278 39.1556 271.807 39.2241 269.34 39.2839C267.386 39.331 265.358 38.8359 263.61 40.3184C263.331 40.5557 262.738 40.3546 262.288 40.369C260.212 40.4211 258.135 40.5627 256.062 40.504C254.191 40.4539 252.328 40.1138 250.456 40.0467C249.68 40.0193 248.897 40.3713 248.153 40.5385C244.932 40.1526 241.704 39.4816 239.375 43.3564L239.098 42.6736C239.34 42.3185 239.582 41.9592 239.929 41.4507C239.15 41.3468 238.526 41.2662 238.399 41.2502C237.3 42.0966 236.5 42.7133 235.251 43.6724C235.796 41.5499 235.125 40.6279 234.155 41.256C233.532 41.6567 233.182 42.553 232.383 43.6893L232.367 43.6814Z" fill="#FFEF00"/>
</svg>
