<svg width="81" height="90" viewBox="0 0 81 90" fill="none" xmlns="http://www.w3.org/2000/svg">
<path d="M2.65782 10.2478C11.8002 22.7033 20.539 35.4506 28.8561 48.4715C33.01 54.9819 37.0631 61.5562 41.0153 68.1942C42.9685 71.4859 44.8941 74.7867 46.8015 78.1058C48.5621 81.1786 50.0751 84.7165 52.4684 87.3517C55.6962 90.8987 60.2353 90.0234 64.4901 89.5492L78.2082 88.0356C80.7024 87.762 81.6744 85.3001 80.1522 83.367C70.6981 71.34 61.5099 59.0942 52.5876 46.6661C48.1219 40.4474 43.7296 34.174 39.4014 27.8642C35.1374 21.6365 31.0935 15.2537 26.7928 9.06238C25.6925 7.4758 24.4362 5.91658 22.7123 4.95917C20.86 3.91969 18.7876 3.80115 16.706 3.75556C12.2586 3.65526 7.81128 3.56407 3.3639 3.47289C-0.175662 3.39994 -0.175662 8.8709 3.3639 8.94384L14.9271 9.19004C16.4126 9.21739 18.2374 8.98032 19.6496 9.53653C20.5665 9.89214 21.401 10.9043 22.0429 11.8252C26.2702 17.898 30.2224 24.1622 34.4038 30.2714C42.8951 42.6631 51.6431 54.8816 60.6479 66.9086C65.7739 73.7473 70.9824 80.5312 76.2642 87.2514L78.2082 82.5828L66.5166 83.8776C64.591 84.0874 62.6561 84.3153 60.7305 84.5159C59.5017 84.6436 57.952 84.8624 56.9708 84.1056C55.8613 83.2485 55.2194 81.8352 54.5408 80.6315C53.6238 78.9994 52.6977 77.3672 51.7624 75.735C49.9376 72.5437 48.0852 69.3614 46.2054 66.1974C38.5486 53.2859 30.4883 40.6115 22.0429 28.2016C17.2929 21.217 12.4145 14.3236 7.41697 7.51228C6.54583 6.31779 5.02365 5.73422 3.65734 6.52751C2.47443 7.21137 1.78669 9.0715 2.667 10.266L2.65782 10.2478Z" fill="#FF8200"/>
<path d="M4.22953 88.5556C17.3699 79.6014 28.4288 67.8298 36.4341 54.1159C38.213 51.0613 33.463 48.3076 31.6841 51.3531C24.1648 64.2281 13.812 75.407 1.45107 83.8232C0.231482 84.653 -0.327881 86.2213 0.460726 87.5617C1.1668 88.7653 2.99161 89.3853 4.22037 88.5465L4.22953 88.5556Z" fill="#FF8200"/>
<path d="M47.8964 43.2931L76.3229 4.1576C77.194 2.96311 76.5338 1.1121 75.3325 0.419118C73.9479 -0.392407 72.4441 0.200279 71.5729 1.40389L43.1464 40.5394C42.2753 41.7339 42.9355 43.5849 44.1367 44.2779C45.5214 45.0894 47.0252 44.4968 47.8964 43.2931Z" fill="#FF8200"/>
</svg>
