<svg width="94" height="70" viewBox="0 0 94 70" fill="none" xmlns="http://www.w3.org/2000/svg">
<path d="M10.7388 4.95883C6.4656 6.03479 3.45789 9.5909 2.0274 13.6029C0.404335 18.1621 0.899491 23.2409 1.03704 27.9824L1.48641 43.2464C1.62396 48.0517 1.41304 53.0303 2.21999 57.79C2.91689 61.8932 5.36526 65.504 9.17074 67.3368C12.692 69.0328 16.6533 69.4431 20.523 69.434C25.3096 69.434 30.1147 69.1057 34.9013 68.9234L50.3525 68.3216L65.8037 67.7198C70.4528 67.5374 75.1753 67.5921 79.7786 66.9174C83.7124 66.3429 87.4995 64.8019 89.8929 61.5193C92.6438 57.7444 92.5063 52.5105 92.8089 48.0608C93.4874 37.9304 94.0285 27.6998 93.8359 17.542C93.7534 12.9555 92.3963 8.87056 88.5357 6.13509C85.4822 3.97406 81.6034 3.26284 77.9446 2.89811C73.378 2.4422 68.738 2.47867 64.1531 2.32366L48.922 1.81304C38.6518 1.46654 28.3724 0.928564 18.1022 0.810027C15.5713 0.782672 13.0404 0.8465 10.5279 1.11093C9.05152 1.26594 7.77691 2.25983 7.77691 3.84641C7.77691 5.20502 9.04235 6.73689 10.5279 6.58188C15.287 6.0895 20.0645 6.30833 24.8328 6.47246L39.1469 6.95573L68.0136 7.93138C71.7366 8.05904 76.0556 8.00433 79.4026 8.56054C80.1728 8.6882 80.9339 8.84321 81.695 9.04381C82.0893 9.14411 82.4837 9.26265 82.8688 9.3903C83.2264 9.50884 83.694 9.6912 83.7399 9.70944C85.1612 10.3477 86.1516 11.0134 86.9218 12.0164C87.7838 13.1379 88.2056 14.9342 88.2881 16.5208C88.4074 18.8277 88.3248 21.162 88.2881 23.4689C88.224 28.2833 88.0772 33.0978 87.8663 37.9122C87.6554 42.7266 87.3803 47.3587 87.0135 52.0728C86.876 53.8418 86.7293 55.7201 85.9957 57.3614C85.3721 58.7565 84.4643 59.5772 83.1897 60.2702C80.4021 61.7747 76.8534 61.8294 73.5247 61.957L59.2105 62.5132L30.3622 63.6348C26.2266 63.7989 22.0452 64.1545 17.9188 63.8992C16.2774 63.7989 15.0944 63.6439 13.4347 63.1515C12.6553 62.9236 12.2151 62.7594 11.6833 62.4768C10.9497 62.1029 10.3169 61.6835 9.92262 61.3096C7.43759 58.948 7.34591 55.2278 7.24504 51.7811C7.10749 46.994 6.96076 42.2069 6.82321 37.4107C6.68566 32.6145 6.52066 28.0645 6.41979 23.3959C6.33726 19.6301 6.38308 15.4904 8.79475 12.4632C9.67505 11.3598 10.8213 10.5848 12.206 10.2383C15.6355 9.37207 14.1866 4.10172 10.7388 4.95883Z" fill="#FF8200"/>
<path d="M42.9395 46.7608C41.3439 38.5452 41.3256 30.0105 42.8844 21.7859L38.8406 23.4181C44.6634 27.1839 50.0094 31.5607 54.8786 36.4936L55.438 32.1989L39.62 42.7488C38.3912 43.5694 37.8502 45.156 38.6296 46.4872C39.3449 47.7 41.1514 48.2926 42.3893 47.472L58.2073 36.9222C59.6744 35.9465 60.0687 33.9405 58.7666 32.6275C53.5857 27.3754 47.8178 22.7068 41.619 18.6948C40.216 17.783 37.8961 18.631 37.5751 20.327C35.8237 29.5729 35.842 38.9738 37.6301 48.2106C37.9144 49.6604 39.6658 50.4902 41.0138 50.1254C42.536 49.706 43.2145 48.2197 42.9395 46.7608Z" fill="#FF8200"/>
</svg>
